<svg width="79" height="50" viewBox="0 0 79 50" fill="none" xmlns="http://www.w3.org/2000/svg">
<path d="M71.416 37.0564C71.7044 36.7392 72.0791 36.5373 72.454 36.3643H77.0671L78.9989 32.1252L77.269 31.8656C76.75 31.7791 76.1445 31.6061 75.6544 31.3177C75.1065 31.0005 74.6741 30.5391 74.6741 29.8758C74.7029 29.2991 74.7029 28.7512 74.6741 28.2033C74.6452 26.9921 76.1157 26.4153 77.2401 26.2423L78.9989 25.9828L77.0094 21.7437H72.3963C72.2521 21.686 72.108 21.5995 71.9638 21.5418C71.7332 21.3976 71.5314 21.2534 71.3295 21.0516C70.897 20.5613 70.4069 20.0711 69.8591 19.5808C68.7923 18.5427 69.5419 17.5911 70.3781 17.1297L71.6467 16.3799L66.2839 13.2942L65.0153 14.044C64.208 14.5343 62.5645 14.9668 60.7769 14.3613C59.9408 14.044 59.1047 13.7845 58.2398 13.525C57.9226 13.4096 57.6343 13.2943 57.4036 13.1789C56.3656 12.5733 56.3368 11.7947 56.5675 11.2468L57.0288 10.2375L49.7343 9.11279L49.273 10.1221C48.9846 10.7854 47.9755 11.6217 45.8708 11.6217C44.8905 11.5928 43.939 11.5928 42.9588 11.6217C41.8631 11.6217 41.027 11.391 40.4792 11.0738C39.989 10.7854 39.7007 10.4393 39.5565 10.1221L39.0952 9.11279L31.8007 10.2375L32.262 11.2468C32.5792 11.91 32.435 12.9482 30.6186 13.525C29.7536 13.7845 28.9175 14.0729 28.1102 14.3613C26.3226 14.9668 24.708 14.5343 23.8718 14.044L22.5744 13.2942L17.2404 16.3799L18.5091 17.1297C19.3452 17.6199 20.1237 18.5427 19.0569 19.5808C18.5379 20.0711 18.0478 20.5325 17.6153 21.0516C16.6062 22.0897 14.8186 22.1762 13.6941 22.0032L11.9354 21.7437L10.0036 25.9828L11.7336 26.2423C12.2525 26.3288 12.858 26.5019 13.3481 26.7902C13.8959 27.1074 14.3284 27.5688 14.3284 28.2321C14.2708 28.78 14.2996 29.3568 14.3284 29.9047C14.3284 30.3373 14.1555 30.7121 13.8383 31.0005H1.98828V36.3932H12.0507H16.6638C16.808 36.4508 16.9521 36.5085 17.0963 36.595C17.3269 36.7392 17.5288 36.8834 17.7306 37.0852C18.1631 37.5755 18.6532 38.0657 19.201 38.556C19.4029 38.7578 19.547 38.9597 19.6335 39.1327H12.7138V44.8425H23.1799V44.6119L24.0449 44.0928C24.8522 43.6025 26.4956 43.17 28.2832 43.7756C28.6003 43.8909 28.9175 44.0063 29.2635 44.1216V49.0528H39.2682H39.3259L39.7872 48.0435C39.8161 47.9858 39.8737 47.8993 39.9025 47.8128V49.0528H49.9649L57.2594 47.9282L56.7982 46.9189C56.5387 46.3421 56.5963 45.4481 57.9226 44.8425H66.4857L71.8197 41.7569L70.5511 41.0072C69.7149 40.5169 68.9364 39.5941 70.0032 38.556C70.4934 38.0369 70.9836 37.5466 71.416 37.0564ZM54.2609 34.6629C48.8982 37.7774 40.162 37.7774 34.7704 34.6629C29.3788 31.5484 29.35 26.5019 34.7127 23.3586C40.0755 20.2441 48.8117 20.2441 54.2033 23.3586C59.5949 26.5019 59.6237 31.5484 54.2609 34.6629Z" fill="url(#paint0_linear_1834_77620)"/>
<path d="M44.0854 14.3323C38.7226 11.2467 30.073 11.2467 24.739 14.3323C20.0106 17.0718 19.4916 21.3686 23.2398 24.4543C23.6723 24.0794 24.1912 23.7333 24.739 23.4161C30.073 20.3305 38.7226 20.3305 44.0854 23.4161C44.662 23.7622 45.2098 24.1082 45.6423 24.5119C49.3905 21.3975 48.8715 17.1007 44.0854 14.3323Z" fill="url(#paint1_linear_1834_77620)"/>
<path d="M46.5621 2.10502C46.4756 2.27805 46.4468 2.45108 46.4468 2.65294L46.418 11.7656C46.418 11.5638 46.4756 11.3907 46.5333 11.2177L46.9947 10.2084L47.0234 1.0957L46.5621 2.10502Z" fill="#BBBFE2"/>
<path d="M22.2284 2.10502L21.7671 1.0957L21.7383 10.2084L22.1996 11.2177C22.2861 11.3907 22.3149 11.5926 22.3149 11.7945L22.3437 2.68177C22.3726 2.47991 22.3149 2.27805 22.2284 2.10502Z" fill="#BBBFE2"/>
<path d="M60.3441 8.01686C59.8251 8.33407 59.3062 8.82432 59.3062 9.42991L59.2773 18.5426C59.2773 17.937 59.7963 17.4467 60.3153 17.1295L61.5839 16.3798L61.6128 7.26709L60.3441 8.01686Z" fill="#BBBFE2"/>
<path d="M8.50446 8.01686L7.23582 7.26709L7.20703 16.3798L8.4756 17.1295C9.0234 17.4467 9.54236 17.937 9.54236 18.5714L9.57122 9.45874C9.57122 8.85315 9.05226 8.33407 8.50446 8.01686Z" fill="#CED2F4"/>
<path d="M67.2082 17.1297C66.1126 17.3027 64.6421 17.8794 64.6421 19.0618L64.6133 28.1745C64.6133 26.9921 66.0549 26.4153 67.1794 26.2423L68.9093 25.9828L68.9381 16.8701L67.2082 17.1297Z" fill="#BBBFE2"/>
<path d="M64.671 20.0134L64.6422 29.1261C64.6422 29.3856 64.6421 29.6452 64.6133 29.9047L64.6422 20.792C64.671 20.5325 64.671 20.273 64.671 20.0134Z" fill="#242D3C"/>
<path d="M4.35361 20.619V19.1195C4.35361 18.485 3.94999 17.9948 3.37335 17.6776C2.8832 17.3892 2.2777 17.2162 1.75872 17.1297L0.0287899 16.8701L0 25.9828L1.72993 26.2423C2.24891 26.3288 2.85434 26.5018 3.34449 26.7902C3.8058 27.0498 4.18063 27.4535 4.29596 27.9437V29.0107C4.29596 29.2991 4.29599 29.6163 4.32482 29.9047L4.35361 20.792C4.35361 20.7343 4.35361 20.6767 4.35361 20.619Z" fill="#CED2F4"/>
<path d="M4.35299 20.8206L4.32422 29.9333C4.32422 29.9333 4.32422 29.9044 4.32422 29.8756L4.35299 20.7629C4.35299 20.7918 4.35299 20.8206 4.35299 20.8206Z" fill="#242D3C"/>
<path d="M68.9957 23.0125L68.9669 32.1251L67.0352 36.3642V27.2515L68.9957 23.0125Z" fill="#BBBFE2"/>
<path d="M2.01681 27.2515L1.98795 36.3642L0.0273438 32.1539L0.0562041 23.0125L2.01681 27.2515Z" fill="#CED2F4"/>
<path d="M65.3051 26.9917C64.1806 26.8187 62.393 26.9052 61.3839 27.9433C60.9514 28.4336 60.4613 28.9238 59.9423 29.414C59.5675 29.7601 59.4233 30.135 59.4233 30.4522L59.3945 39.5648C59.3945 39.2476 59.5386 38.9016 59.9135 38.5267C60.4324 38.0653 60.9226 37.575 61.355 37.056C62.3642 35.989 64.1518 35.9313 65.2762 36.1043L67.035 36.3639L67.0638 27.2512L65.3051 26.9917Z" fill="url(#paint2_linear_1834_77620)"/>
<path d="M9.16745 29.4142C8.64847 28.9528 8.15837 28.4626 7.69706 27.9435C7.52406 27.7417 7.29342 27.5975 7.06276 27.4533C6.02481 26.8477 4.6697 26.8189 3.74707 26.9631L2.01714 27.2226L1.98828 36.3352L3.71821 36.0757C4.64084 35.9315 5.99595 35.9604 7.0339 36.5659C7.26456 36.7101 7.46637 36.8543 7.6682 37.0562C8.10068 37.5464 8.59085 38.0366 9.13866 38.5269C9.51348 38.9018 9.65765 39.2478 9.65765 39.565L9.68644 30.4524C9.68644 30.1352 9.54227 29.7603 9.16745 29.4142Z" fill="url(#paint3_linear_1834_77620)"/>
<path d="M61.7574 32.5864L61.7285 41.6991L56.3945 44.8135L56.4234 35.7009L61.7574 32.5864Z" fill="#BBBFE2"/>
<path d="M12.7432 35.7009L12.7143 44.8135L7.35156 41.6991L7.38035 32.5864L12.7432 35.7009Z" fill="#CED2F4"/>
<path d="M55.1553 34.9513C54.3192 34.4899 52.7046 34.0285 50.917 34.663C50.1097 34.9513 49.2448 35.2397 48.4087 35.4992C47.0536 35.9318 46.6499 36.6239 46.6499 37.2006L46.6211 46.3133C46.6211 45.7365 47.0535 45.0445 48.3798 44.6119C49.2448 44.3524 50.081 44.064 50.8882 43.7756C52.6758 43.17 54.2904 43.6026 55.1265 44.0928L56.424 44.8426L56.4528 35.7299L55.1553 34.9513Z" fill="url(#paint4_linear_1834_77620)"/>
<path d="M21.5966 35.845C21.3659 35.7008 21.1064 35.5855 20.7605 35.499C19.8955 35.2394 19.0594 34.9511 18.2232 34.6627C16.4356 34.0283 14.7922 34.4897 13.9849 34.9799L12.7163 35.7297L12.6875 44.8423L13.9561 44.0926C14.7634 43.6023 16.4068 43.1698 18.1944 43.7754C19.0305 44.0926 19.8666 44.3521 20.7316 44.6116C21.0487 44.727 21.337 44.8423 21.5677 44.9577C22.2885 45.3614 22.5192 45.8805 22.5192 46.3419L22.548 37.2292C22.5769 36.7678 22.3174 36.2776 21.5966 35.845Z" fill="url(#paint5_linear_1834_77620)"/>
<path d="M47.2257 38.7866L47.1969 47.8993L39.9023 49.024L39.9312 39.9113L47.2257 38.7866Z" fill="#BBBFE2"/>
<path d="M39.4722 38.9019C39.328 38.5847 39.0397 38.2386 38.5495 37.9502C38.0017 37.633 37.1944 37.3735 36.07 37.4023C35.1185 37.4312 34.1382 37.4312 33.158 37.4023C31.082 37.4023 30.0729 38.2386 29.7558 38.9019L29.2944 39.9112L29.2656 49.0239L29.7269 48.0146C30.0152 47.3513 31.0532 46.515 33.1291 46.515C34.1094 46.5439 35.0609 46.5439 36.0412 46.515C37.1368 46.515 37.9729 46.7458 38.5207 47.063C39.0108 47.3513 39.2991 47.6974 39.4433 48.0146L39.9046 49.0239L39.9335 39.9112L39.4722 38.9019Z" fill="url(#paint6_linear_1834_77620)"/>
<path d="M60.4897 31.8655L61.7584 32.6153L56.4244 35.7009L55.1558 34.9511C54.3197 34.4897 52.7051 34.0283 50.9175 34.6628C50.1102 34.9511 49.2452 35.2395 48.4091 35.499C46.5927 36.0758 46.4485 37.1139 46.7657 37.7772L47.227 38.7865L39.9325 39.9112L39.4711 38.9019C39.327 38.5846 39.0387 38.2386 38.5485 37.9502C38.0007 37.633 37.1934 37.3735 36.0689 37.4023C35.1175 37.4312 34.1372 37.4312 33.1569 37.4023C31.081 37.4023 30.0719 38.2386 29.7547 38.9019L29.2934 39.9112L21.9989 38.7865L22.4602 37.7772C22.6909 37.2581 22.6332 36.4507 21.6241 35.8739C21.3934 35.7297 21.1339 35.6144 20.7879 35.5279C19.923 35.2683 19.0868 34.98 18.2507 34.6916C16.4631 34.0572 14.8197 34.5185 14.0124 35.0088L12.7438 35.7586L7.38098 32.673L8.64964 31.9232C9.45694 31.4329 10.2353 30.5101 9.16856 29.472C8.64958 29.0106 8.15948 28.5203 7.69816 28.0012C7.52517 27.7994 7.29453 27.6552 7.06387 27.511C6.02591 26.9054 4.6708 26.8766 3.74818 27.0208L2.01825 27.2803L0.0287899 23.0412L1.75872 22.7817C2.88317 22.6086 4.35365 22.003 4.32482 20.7919C4.26715 20.2439 4.26715 19.6672 4.32482 19.1193C4.32482 18.4849 3.92113 17.9946 3.34448 17.6774C2.85434 17.3891 2.24891 17.216 1.72993 17.1295L0 16.87L1.93174 12.6309L3.69046 12.8904C4.81491 13.0634 6.60253 12.9769 7.61165 11.9388C8.04413 11.4485 8.53428 10.9583 9.05326 10.468C10.12 9.42989 9.34161 8.47825 8.50548 8.01685L7.23682 7.26708L12.5708 4.18144L13.8394 4.93121C14.6756 5.42145 16.2901 5.85404 18.0777 5.24845C18.885 4.93124 19.75 4.6717 20.5861 4.41216C22.4025 3.83541 22.5467 2.79725 22.2295 2.13399L21.7683 1.12467L29.0627 0L29.5241 1.00931C29.6682 1.32653 29.9565 1.67259 30.4467 1.96097C30.9945 2.27818 31.8307 2.53772 32.9263 2.50889C33.8777 2.48005 34.858 2.48005 35.8383 2.50889C37.9142 2.53772 38.9233 1.67258 39.2405 1.00931L39.7018 0L46.9964 1.12467L46.535 2.13399C46.3044 2.65306 46.3332 3.4605 47.3711 4.06609C47.6018 4.21027 47.8613 4.32565 48.2073 4.41216C49.0723 4.6717 49.9084 4.96008 50.7445 5.24845C52.5321 5.85404 54.1755 5.42145 54.9828 4.93121L56.2514 4.18144L61.6142 7.26708L60.3456 8.01685C59.5383 8.50709 58.7599 9.42989 59.8267 10.468C60.3456 10.9294 60.8357 11.4197 61.2971 11.9388C61.47 12.1406 61.7007 12.2848 61.9313 12.429C62.9693 13.0346 64.3244 13.0634 65.247 12.9192L66.977 12.6597L68.9664 16.8988L67.2076 17.1583C66.0832 17.3314 64.6128 17.937 64.6416 19.1193C64.6704 19.6672 64.6993 20.2439 64.6416 20.7919C64.6416 21.4263 65.0452 21.8877 65.6219 22.2337C66.112 22.5221 66.7175 22.6951 67.2365 22.7817L68.9664 23.0412L67.0347 27.2803L65.2759 27.0208C64.1514 26.8478 62.3638 26.9343 61.3547 27.9724C60.9222 28.4627 60.4321 28.9529 59.9131 29.4431C58.8751 30.4524 59.6536 31.3752 60.4897 31.8655ZM24.7379 25.5501C30.1295 28.6645 38.8657 28.6645 44.2284 25.5501C49.5912 22.4356 49.5624 17.389 44.1708 14.2746C38.7792 11.1601 30.043 11.1601 24.6803 14.2746C19.3175 17.389 19.3463 22.4356 24.7379 25.5501Z" fill="white"/>
<path d="M29.2936 39.9113L29.2648 49.024L21.9414 47.8993L21.9703 38.7866L29.2936 39.9113Z" fill="#CED2F4"/>
<path d="M48.0924 12.7172C40.4807 8.33386 28.2271 8.33386 20.673 12.7172C17.069 14.8223 15.1949 17.5042 15.0508 20.2438C15.1949 23.0122 17.0979 25.7806 20.7596 27.8858C28.3712 32.2691 40.6537 32.2691 48.1789 27.8858C51.7829 25.7806 53.657 23.0987 53.8011 20.3591C53.657 17.5907 51.754 14.8512 48.0924 12.7172ZM44.1424 25.5499C38.8084 28.6355 30.1588 28.6355 24.7961 25.5499C22.2588 24.0792 20.9325 22.1759 20.7883 20.2726C20.9325 18.3694 22.2588 16.4949 24.7383 15.053C30.0723 11.9674 38.7219 11.9674 44.0847 15.053C46.6219 16.5238 47.9771 18.3982 48.1212 20.3303C47.9482 22.2336 46.6219 24.108 44.1424 25.5499Z" fill="#E0E0EB"/>
<path d="M20.6723 12.7174C28.2263 8.33412 40.5087 8.33412 48.0915 12.7174C51.7532 14.8226 53.6561 17.5622 53.8003 20.3306C53.9732 17.3315 52.0703 14.2747 48.0915 11.9677C40.4798 7.58434 28.2263 7.58434 20.6723 11.9677C16.7511 14.2459 14.877 17.245 15.05 20.2441C15.1942 17.5334 17.0683 14.8226 20.6723 12.7174Z" fill="url(#paint7_linear_1834_77620)"/>
<defs>
<linearGradient id="paint0_linear_1834_77620" x1="1.99687" y1="29.0527" x2="79.0155" y2="29.0527" gradientUnits="userSpaceOnUse">
<stop stop-color="#D1D6F0"/>
<stop offset="0.2899" stop-color="#D5DAF1"/>
<stop offset="0.5923" stop-color="#E2E5F5"/>
<stop offset="0.8994" stop-color="#F6F7FC"/>
<stop offset="1" stop-color="white"/>
</linearGradient>
<linearGradient id="paint1_linear_1834_77620" x1="20.7478" y1="18.2595" x2="48.1124" y2="18.2595" gradientUnits="userSpaceOnUse">
<stop stop-color="#BBBFE2"/>
<stop offset="1" stop-color="#CED2F4"/>
</linearGradient>
<linearGradient id="paint2_linear_1834_77620" x1="59.3908" y1="33.2263" x2="67.0487" y2="33.2263" gradientUnits="userSpaceOnUse">
<stop stop-color="#A5ACD4"/>
<stop offset="0.6348" stop-color="#BEC3E7"/>
<stop offset="1" stop-color="#CED2F4"/>
</linearGradient>
<linearGradient id="paint3_linear_1834_77620" x1="1.99687" y1="33.2351" x2="9.6929" y2="33.2351" gradientUnits="userSpaceOnUse">
<stop stop-color="#BBBFE2"/>
<stop offset="1" stop-color="#CED2F4"/>
</linearGradient>
<linearGradient id="paint4_linear_1834_77620" x1="46.5975" y1="40.3323" x2="56.4296" y2="40.3323" gradientUnits="userSpaceOnUse">
<stop stop-color="#A5ACD4"/>
<stop offset="0.5164" stop-color="#BCC2E6"/>
<stop offset="1" stop-color="#CED2F4"/>
</linearGradient>
<linearGradient id="paint5_linear_1834_77620" x1="12.7122" y1="40.342" x2="22.5636" y2="40.342" gradientUnits="userSpaceOnUse">
<stop stop-color="#BBBFE2"/>
<stop offset="1" stop-color="#CED2F4"/>
</linearGradient>
<linearGradient id="paint6_linear_1834_77620" x1="29.2592" y1="43.2128" x2="39.934" y2="43.2128" gradientUnits="userSpaceOnUse">
<stop stop-color="#BBBFE2"/>
<stop offset="1" stop-color="#CED2F4"/>
</linearGradient>
<linearGradient id="paint7_linear_1834_77620" x1="15.0364" y1="14.5295" x2="53.8215" y2="14.5295" gradientUnits="userSpaceOnUse">
<stop stop-color="#BBBFE2"/>
<stop offset="1" stop-color="#CED2F4"/>
</linearGradient>
</defs>
</svg>
