<svg width="177" height="115" viewBox="0 0 177 115" fill="none" xmlns="http://www.w3.org/2000/svg">
<path d="M110.207 23.1141C97.069 15.5201 79.2232 12.3687 62.1367 13.5837C74.4769 14.457 86.3995 17.6465 95.854 23.1141C118.446 36.1378 118.446 57.2871 95.854 70.3487C86.3995 75.8164 74.4769 78.9679 62.1367 79.8792C79.2232 81.0942 97.069 77.9427 110.207 70.3487C132.799 57.2871 132.799 36.1378 110.207 23.1141Z" fill="url(#paint0_linear_1834_77924)"/>
<path d="M32.0272 23.1141C41.4817 17.6465 53.4042 14.495 65.7445 13.5837C48.658 12.3687 30.8121 15.5201 17.6745 23.1141C-4.91756 36.1378 -4.91756 57.2871 17.6745 70.3487C30.8121 77.9427 48.658 81.0942 65.7445 79.8792C53.4042 79.0059 41.4817 75.8164 32.0272 70.3487C9.43509 57.2871 9.43509 36.1378 32.0272 23.1141Z" fill="url(#paint1_linear_1834_77924)"/>
<path d="M99.2344 23.1524C76.5284 10.0527 39.7355 10.0527 17.0295 23.1524C-5.6765 36.252 -5.6765 57.5151 17.0295 70.6148C39.7355 83.7144 76.5283 83.7144 99.1964 70.6148C121.94 57.5151 121.94 36.2899 99.2344 23.1524ZM92.4757 66.7038C73.5287 77.6392 42.8111 77.6392 23.8641 66.7038C4.9171 55.7685 4.9171 38.0366 23.8641 27.1012C42.8111 16.1659 73.5287 16.1659 92.4757 27.1012C111.423 38.0366 111.423 55.7685 92.4757 66.7038Z" fill="#D0D4F6"/>
<path d="M23.8256 13.7354C42.7726 2.8001 73.4903 2.8001 92.4373 13.7354C104.891 20.9118 109.144 31.0118 105.271 40.2385C103.221 35.4163 98.9681 30.8599 92.4373 27.1009C73.4903 16.1655 42.7726 16.1655 23.8256 27.1009C17.3328 30.8599 13.0422 35.4163 10.9918 40.2385C7.1189 31.0118 11.4095 20.9118 23.8256 13.7354Z" fill="#34318F"/>
<path d="M92.5915 17.9122C73.6445 6.97686 42.9268 6.97686 23.9798 17.9122C5.03278 28.8475 5.03278 46.5795 23.9798 57.5148C42.9268 68.4502 73.6445 68.4502 92.5915 57.5148C111.538 46.5795 111.538 28.8475 92.5915 17.9122Z" fill="#F6F8FF"/>
<path d="M28.8405 19.8486C32.9793 17.2287 39.8518 16.9249 44.1804 19.2031C48.509 21.4813 48.6988 25.4302 44.5601 28.0501C40.4214 30.6701 33.5488 30.9738 29.2202 28.6956C24.8917 26.4554 24.7018 22.4686 28.8405 19.8486Z" fill="white"/>
<path d="M49.6456 15.0265C51.3542 13.9254 54.202 13.8115 55.9866 14.7608C57.7712 15.71 57.8471 17.3427 56.1385 18.4059C54.4298 19.507 51.582 19.6209 49.7975 18.6716C48.0129 17.7603 47.9369 16.1277 49.6456 15.0265Z" fill="white"/>
<path d="M92.5897 19.8867C73.6427 8.95132 42.925 8.95132 23.9781 19.8867C14.9412 25.0885 10.233 31.8851 9.81531 38.7197C9.35967 31.2397 14.0679 23.6457 23.9781 17.9122C42.925 6.97686 73.6427 6.97686 92.5897 17.9122C102.5 23.6457 107.208 31.2017 106.752 38.7197C106.335 31.8472 101.627 25.0885 92.5897 19.8867Z" fill="#D0D4F6"/>
<path d="M99.2344 9.82472C76.5284 -3.27491 39.7355 -3.27491 17.0295 9.82472C-5.6765 22.9243 -5.6765 44.1875 17.0295 57.2871C39.7355 70.3867 76.5283 70.3867 99.1964 57.2871C121.94 44.1495 121.94 22.9243 99.2344 9.82472ZM92.4757 53.3382C73.5287 64.2736 42.8111 64.2736 23.8641 53.3382C4.9171 42.4029 4.9171 24.6709 23.8641 13.7356C42.8111 2.80025 73.5287 2.80025 92.4757 13.7356C111.423 24.6709 111.423 42.4029 92.4757 53.3382Z" fill="#D0D4F6"/>
<path d="M17.0682 57.2869C39.7742 70.3865 76.5671 70.3865 99.2351 57.2869C110.436 50.832 116.094 42.3648 116.246 33.8975V46.5794C116.398 55.2745 110.74 64.0076 99.2351 70.6523C76.5291 83.7519 39.7363 83.7519 17.0682 70.6523C5.56332 64.0076 -0.0942143 55.2745 0.0576654 46.5794V33.9354C0.247515 42.4027 5.90505 50.832 17.0682 57.2869Z" fill="url(#paint2_linear_1834_77924)"/>
<path fill-rule="evenodd" clip-rule="evenodd" d="M108.898 62.0782C104.531 64.5842 101 70.7353 101 75.7853C101 78.6331 102.139 80.5315 103.886 81.177L159.08 113.051C160.839 114.212 162.987 114.932 165.243 114.932C171.433 114.932 176.407 109.92 176.407 103.769C176.407 99.7182 174.232 96.1583 170.995 94.2022L171.017 94.1628L114.669 61.6225C113.226 60.7112 111.176 60.7492 108.898 62.0782Z" fill="url(#paint3_linear_1834_77924)"/>
<path d="M99.4425 58.5819C100.885 57.7466 102.214 56.9113 103.467 56L113.226 61.6575L104.758 66.5556L95 60.8981C96.5568 60.1767 98.0376 59.3793 99.4425 58.5819Z" fill="#F7F7FC"/>
<path d="M104.796 76.314L95 70.6565V60.8982L104.796 66.5178V76.314Z" fill="#D0D4F6"/>
<path d="M101.113 73.5421C101.113 68.4921 104.645 62.341 109.011 59.835C111.289 58.5061 113.34 58.4681 114.782 59.3793L171.13 91.9196L160.346 111.474L103.999 78.9339C102.252 78.2884 101.113 76.3899 101.113 73.5421Z" fill="url(#paint4_linear_1834_77924)"/>
<path d="M108.366 81.4399L111.138 83.0346C109.961 82.1233 109.202 80.4527 109.202 78.1745C109.202 73.1245 112.733 66.9733 117.099 64.4673C119.377 63.1384 121.428 63.1004 122.871 64.0117L119.15 61.8474C117.707 60.8981 115.656 60.9741 113.378 62.3031C109.012 64.8091 105.48 70.9602 105.48 76.0102C105.48 78.8959 106.582 80.7944 108.366 81.4399Z" fill="url(#paint5_linear_1834_77924)"/>
<path d="M159.052 110.715C160.836 111.93 163.039 112.689 165.355 112.689C171.544 112.689 176.518 107.677 176.518 101.526C176.518 97.3113 174.164 93.6282 170.709 91.7297C169.304 91.0463 167.405 91.1981 165.355 92.3752C160.988 94.8812 157.457 101.032 157.457 106.082C157.457 108.285 158.141 109.917 159.242 110.829L159.052 110.715Z" fill="url(#paint6_linear_1834_77924)"/>
<defs>
<linearGradient id="paint0_linear_1834_77924" x1="60.6554" y1="46.9182" x2="122.504" y2="46.9182" gradientUnits="userSpaceOnUse">
<stop stop-color="#CED4FF"/>
<stop offset="1" stop-color="#CED4FF" stop-opacity="0"/>
</linearGradient>
<linearGradient id="paint1_linear_1834_77924" x1="0.737569" y1="46.7185" x2="65.7421" y2="46.7185" gradientUnits="userSpaceOnUse">
<stop stop-color="#C6CBE7"/>
<stop offset="0.258" stop-color="#CFD3EB"/>
<stop offset="0.6821" stop-color="#E8EAF5"/>
<stop offset="1" stop-color="white"/>
</linearGradient>
<linearGradient id="paint2_linear_1834_77924" x1="0.0577034" y1="57.1633" x2="116.26" y2="57.1633" gradientUnits="userSpaceOnUse">
<stop stop-color="#7F7FF4"/>
<stop offset="0.1083" stop-color="#7574E6"/>
<stop offset="0.5128" stop-color="#5250B7"/>
<stop offset="0.8232" stop-color="#3C399A"/>
<stop offset="1" stop-color="#34318F"/>
</linearGradient>
<linearGradient id="paint3_linear_1834_77924" x1="99.2819" y1="88.1169" x2="171.018" y2="88.1169" gradientUnits="userSpaceOnUse">
<stop stop-color="#CED4FF"/>
<stop offset="1" stop-color="#CED4FF" stop-opacity="0"/>
</linearGradient>
<linearGradient id="paint4_linear_1834_77924" x1="129.075" y1="93.4785" x2="140.265" y2="74.0978" gradientUnits="userSpaceOnUse">
<stop stop-color="#4141AA"/>
<stop offset="0.2125" stop-color="#4949B3"/>
<stop offset="0.563" stop-color="#5E5ECC"/>
<stop offset="1" stop-color="#7F7FF4"/>
</linearGradient>
<linearGradient id="paint5_linear_1834_77924" x1="106.934" y1="80.6853" x2="118.126" y2="61.3012" gradientUnits="userSpaceOnUse">
<stop stop-color="#C6CBE7"/>
<stop offset="0.258" stop-color="#CFD3EB"/>
<stop offset="0.6821" stop-color="#E8EAF5"/>
<stop offset="1" stop-color="white"/>
</linearGradient>
<linearGradient id="paint6_linear_1834_77924" x1="157.321" y1="108.027" x2="175.848" y2="97.3303" gradientUnits="userSpaceOnUse">
<stop stop-color="#4141AA"/>
<stop offset="0.2125" stop-color="#4949B3"/>
<stop offset="0.563" stop-color="#5E5ECC"/>
<stop offset="1" stop-color="#7F7FF4"/>
</linearGradient>
</defs>
</svg>
