<svg width="351" height="411" viewBox="0 0 351 411" fill="none" xmlns="http://www.w3.org/2000/svg">
<path d="M197.501 328C200.001 322.833 212.901 313.6 244.501 318C284.001 323.5 312 322 336 305.5C363.5 286.594 353.5 268.912 266 222C236.5 206.184 199.535 187 191 170.5C185 158.9 191.001 136.167 193.501 124" stroke="#3998FF" stroke-width="2"/>
<path d="M129.762 293.648L175.099 319.275L189.371 311.396L139.323 291.461L129.762 293.648Z" fill="url(#paint0_linear_1834_77648)"/>
<path d="M321.347 277.105C322.89 277.974 323.787 279.628 323.815 281.451C323.843 283.273 322.89 284.927 321.347 285.825L287.369 305.198C286.64 305.619 285.827 305.843 285.013 305.843C284.228 305.843 283.415 305.619 282.714 305.226L148.524 228.962C146.982 228.093 146.029 226.439 146.001 224.616C145.973 222.822 146.926 221.14 148.44 220.243L182.447 200.645C183.176 200.224 183.989 200 184.83 200C185.643 200 186.456 200.196 187.157 200.617L321.347 277.105Z" fill="url(#paint1_linear_1834_77648)"/>
<path d="M313.557 270.241L184.946 195.688C179.171 192.324 172.049 192.324 166.301 195.716L144.628 208.614C139.749 211.474 139.805 218.539 144.712 221.343L274.023 295.195C279.659 298.392 286.584 298.392 292.192 295.139L313.501 282.971C318.408 280.139 318.436 273.073 313.557 270.241Z" fill="#017AFF"/>
<path d="M141.012 208.894V215.511L157.302 219.465L154.526 207.997L141.012 208.894Z" fill="#017AFF"/>
<path d="M317.203 270.27V276.27L311.651 280.055L310.109 270.999L317.203 270.27Z" fill="#017AFF"/>
<path d="M313.557 264.073L184.946 189.52C179.171 186.155 172.049 186.155 166.301 189.548L144.628 202.445C139.749 205.305 139.805 212.371 144.712 215.175L274.023 289.027C279.659 292.251 286.584 292.223 292.192 288.971L313.501 276.802C318.408 273.971 318.436 266.905 313.557 264.073Z" fill="url(#paint2_linear_1834_77648)"/>
<path d="M157.977 211.39L162.238 208.894L165.967 211.025L161.706 213.52L157.977 211.39ZM164.537 208.502L174.855 201.38L180.071 198.352L184.108 200.651L178.893 203.679L166.64 209.707L164.537 208.502Z" fill="white"/>
<path d="M166.414 216.184L188.648 203.23L203.06 211.474L199.303 213.661L188.817 207.661L183.882 210.52L193.639 216.1L189.882 218.287L180.125 212.707L174.068 216.24L184.947 222.437L181.19 224.624L166.414 216.184Z" fill="white"/>
<path d="M184.555 226.558L206.789 213.604L215.06 218.315C217.135 219.493 218.453 220.474 218.985 221.259C219.518 222.016 219.574 222.885 219.126 223.782C218.677 224.708 217.78 225.549 216.462 226.306C214.78 227.287 212.985 227.848 211.051 227.988C209.116 228.128 207.125 227.792 205.135 226.979C205.415 227.792 205.499 228.549 205.359 229.278C205.247 229.979 204.77 231.1 203.985 232.642L202.022 236.54L197.312 233.848L199.303 229.418C200.032 227.848 200.424 226.81 200.508 226.334C200.593 225.857 200.508 225.465 200.256 225.128C200.004 224.792 199.443 224.371 198.518 223.866L197.733 223.418L188.452 228.829L184.555 226.558ZM201.293 221.315L204.209 222.969C206.088 224.035 207.35 224.651 208.023 224.82C208.667 224.988 209.34 225.016 210.069 224.904C210.77 224.792 211.471 224.539 212.144 224.147C212.901 223.698 213.322 223.25 213.434 222.801C213.546 222.324 213.35 221.876 212.817 221.455C212.565 221.231 211.611 220.67 210.041 219.773L206.985 218.035L201.293 221.315Z" fill="white"/>
<path d="M204.156 237.773L226.39 224.82L234.662 229.53C236.737 230.708 238.054 231.689 238.587 232.474C239.12 233.231 239.176 234.1 238.727 234.998C238.279 235.923 237.381 236.764 236.064 237.521C234.409 238.502 232.587 239.063 230.652 239.203C228.718 239.344 226.727 239.007 224.736 238.194C225.017 239.007 225.101 239.764 224.96 240.493C224.848 241.194 224.372 242.316 223.587 243.886L221.624 247.755L216.914 245.063L218.904 240.633C219.633 239.063 220.026 238.026 220.11 237.549C220.194 237.072 220.11 236.68 219.858 236.344C219.605 236.007 219.044 235.586 218.119 235.082L217.334 234.633L208.054 240.045L204.156 237.773ZM220.923 232.53L223.839 234.185C225.718 235.25 226.979 235.867 227.652 236.035C228.297 236.203 228.998 236.231 229.699 236.119C230.4 236.007 231.101 235.755 231.774 235.362C232.531 234.914 232.951 234.465 233.063 234.016C233.176 233.54 232.979 233.091 232.447 232.67C232.166 232.446 231.241 231.913 229.643 230.988L226.587 229.25L220.923 232.53Z" fill="white"/>
<path d="M233.962 242.119C236.233 240.802 238.42 239.848 240.551 239.316C242.121 238.895 243.747 238.671 245.401 238.587C247.056 238.502 248.57 238.587 249.916 238.867C251.71 239.203 253.42 239.848 254.99 240.745C257.85 242.372 259.14 244.278 258.832 246.437C258.523 248.596 256.561 250.727 252.916 252.858C249.327 254.961 245.654 256.11 241.925 256.307C238.196 256.503 234.887 255.802 232.027 254.176C229.139 252.521 227.85 250.615 228.158 248.484C228.466 246.353 230.429 244.166 233.962 242.119ZM238.168 244.334C235.644 245.792 234.242 247.194 233.962 248.54C233.681 249.886 234.326 251.007 235.896 251.877C237.467 252.746 239.401 253.138 241.672 252.942C243.971 252.774 246.411 251.933 248.99 250.419C251.542 248.933 252.944 247.559 253.224 246.269C253.504 244.979 252.831 243.886 251.205 242.96C249.579 242.035 247.644 241.671 245.401 241.839C243.158 242.007 240.719 242.848 238.168 244.334Z" fill="white"/>
<path d="M244.922 261.045L267.156 248.091L275.427 252.802C277.502 253.979 278.82 254.961 279.353 255.746C279.885 256.503 279.941 257.372 279.493 258.269C279.044 259.194 278.147 260.036 276.829 260.793C275.175 261.774 273.352 262.335 271.418 262.475C269.483 262.615 267.493 262.279 265.502 261.465C265.782 262.279 265.866 263.036 265.726 263.765C265.614 264.466 265.137 265.587 264.352 267.157L262.39 271.026L257.679 268.335L259.67 263.905C260.399 262.335 260.791 261.297 260.876 260.821C260.96 260.344 260.876 259.951 260.623 259.615C260.371 259.279 259.81 258.858 258.885 258.325L258.1 257.877L248.819 263.288L244.922 261.045ZM261.689 255.802L264.605 257.456C266.483 258.521 267.745 259.138 268.418 259.307C269.063 259.475 269.764 259.503 270.465 259.391C271.166 259.279 271.866 259.026 272.539 258.634C273.296 258.185 273.717 257.736 273.829 257.288C273.941 256.811 273.745 256.363 273.212 255.942C272.932 255.718 272.007 255.157 270.409 254.26L267.352 252.521L261.689 255.802Z" fill="white"/>
<path d="M265.168 272.597L269.43 270.101L273.159 272.232L268.897 274.728L265.168 272.597ZM271.701 269.709L282.019 262.587L287.234 259.559L291.271 261.858L286.056 264.886L273.804 270.915L271.701 269.709Z" fill="white"/>
<path fill-rule="evenodd" clip-rule="evenodd" d="M156.404 343.617L106.496 371.655C104.982 372.524 104.029 374.206 104.001 376.029C103.973 377.851 104.926 379.506 106.468 380.403L145.132 401.375C145.861 401.796 146.675 402.02 147.488 402.02C148.273 402.02 149.086 401.796 149.787 401.403L199.723 373.562C201.265 372.692 202.218 371.038 202.246 369.216C202.274 367.421 201.321 365.739 199.807 364.842L161.114 343.645C160.385 343.224 159.572 343 158.731 343C157.918 343 157.105 343.196 156.404 343.617Z" fill="url(#paint3_linear_1834_77648)"/>
<path d="M197.024 317.817C194.669 316.471 192.566 316.387 191.08 317.341L166.238 331.696L179.052 350.958L202.884 337.276C204.314 336.406 205.211 334.584 205.211 332.033C205.211 326.789 201.538 320.425 197.024 317.817Z" fill="url(#paint4_linear_1834_77648)"/>
<path fill-rule="evenodd" clip-rule="evenodd" d="M200.077 333.144V367.164C200.077 367.36 199.965 367.556 199.768 367.668L148.038 397.529C147.533 397.809 146.916 397.809 146.412 397.529L105.168 374.958C104.972 374.846 104.859 374.65 104.859 374.454V339.658L105.114 339.655C105.14 339.636 105.167 339.618 105.196 339.602L157.123 309.714C157.628 309.433 158.244 309.433 158.749 309.714L196.965 330.714L199.769 332.284C199.823 332.316 199.872 332.353 199.914 332.393L200.077 332.369V332.621C200.153 332.794 200.152 332.985 200.077 333.144Z" fill="url(#paint5_linear_1834_77648)"/>
<path d="M151.485 357.631L98.1008 327.21C96.8672 326.509 94.3438 326.873 94.3438 329.397L95.3251 375.744C95.3251 376.417 95.6896 377.034 96.2504 377.342L148.85 408.548C150.616 409.39 152.411 407.932 152.411 406.165V359.257C152.439 358.584 152.074 357.968 151.485 357.631Z" fill="#C8D3FB"/>
<path d="M148.684 359.874L95.2992 329.453C94.0655 328.752 92.5234 329.649 92.5234 331.051V377.959C92.5234 378.632 92.8879 379.249 93.4487 379.557L146.833 409.979C148.067 410.679 149.609 409.782 149.609 408.38V361.473C149.609 360.828 149.245 360.211 148.684 359.874Z" fill="url(#paint6_linear_1834_77648)"/>
<path d="M72.8142 381.576C71.2161 378.856 72.1414 375.323 74.8891 373.753L103.039 357.351C105.759 355.753 109.292 356.678 110.862 359.426C112.46 362.145 111.535 365.678 108.787 367.248L80.6369 383.651C77.9172 385.249 74.4124 384.324 72.8142 381.576Z" fill="url(#paint7_linear_1834_77648)"/>
<path d="M96.2518 394.922C94.6536 392.202 95.5788 388.697 98.3266 387.099L126.477 370.697C129.197 369.099 132.729 370.024 134.299 372.772C135.898 375.491 134.972 379.024 132.225 380.594L104.074 396.997C101.355 398.567 97.8499 397.641 96.2518 394.922Z" fill="url(#paint8_linear_1834_77648)"/>
<path d="M153.145 203.506L156.481 206.113C157.014 202.553 158.752 202.973 158.752 202.973L158.612 199.581L153.145 203.506Z" fill="#F5D5D5"/>
<path d="M170.891 205.412C168.76 206.366 163.769 206.842 158.329 207.039C155.862 207.123 155.049 211.076 157.769 212.001C160.46 212.955 172.18 208.3 172.18 208.3C172.853 206.113 170.891 205.412 170.891 205.412Z" fill="#F5D5D5"/>
<path d="M178.266 203.141C176.696 203.17 177.312 202.3 176.892 201.992C176.471 201.684 174.2 201.655 173.752 201.852C173.247 202.076 172.658 204.431 170.527 205.609C170.135 205.833 171.845 208.413 171.845 208.413C171.845 208.413 175.518 207.74 176.387 207.291C177.228 206.842 178.742 207.235 178.434 206.786C178.126 206.338 176.836 206.142 176.135 206.057C175.434 205.973 176.107 205.02 177.341 204.403C178.574 203.758 181.574 203.955 181.49 203.338C181.462 202.945 179.528 203.113 178.266 203.141Z" fill="#F5D5D5"/>
<path d="M132.507 245.002C132.507 245.002 135.255 251.928 133.068 256.834C129.507 264.825 130.713 282.012 130.433 284.031C130.124 286.05 133.769 288.209 134.638 284.171C135.535 280.134 139.769 262.386 141.648 258.124C143.526 253.862 142.797 245.899 142.797 245.899L132.507 245.002Z" fill="#F5D5D5"/>
<path d="M140.104 250.413C141.814 253.946 143.608 264.376 142.711 270.909C141.814 277.414 143.861 290.199 143.917 292.246C143.973 294.293 147.562 296.087 147.758 291.938C147.954 287.788 149.917 271.302 151.039 266.732C152.16 262.161 150.225 248.283 150.225 248.283C150.225 248.283 138.365 246.881 140.104 250.413Z" fill="#F5D5D5"/>
<path d="M150.368 297.377C147.929 295.891 148.209 291.517 148.209 291.517C145.041 291.63 143.583 291.041 143.583 291.041C143.583 292.359 142.069 294.658 141.873 296.648C141.704 298.443 143.19 299.48 143.19 301.05H144.48L143.835 297.405C145.966 297.405 148.686 301.106 151.321 301.05C154.097 301.022 154.882 300.181 155.107 299.284C155.331 298.387 152.836 298.863 150.368 297.377Z" fill="#1C0A76"/>
<path d="M137.134 290.256C134.695 288.77 134.975 284.396 134.975 284.396C131.807 284.508 130.349 283.919 130.349 283.919C130.349 285.237 128.835 287.536 128.638 289.527C128.47 291.321 129.956 292.359 129.956 293.929H131.246L130.601 290.284C132.732 290.284 135.452 293.985 138.087 293.929C140.863 293.901 141.648 293.06 141.872 292.19C142.069 291.293 139.573 291.742 137.134 290.256Z" fill="#1C0A76"/>
<path d="M137.078 221.983C137.078 221.983 133.797 225.236 131.694 228.796C129.591 232.357 127.629 237.628 128.33 241.666C129.031 245.675 127.517 261.545 126.059 269.648C126.059 269.648 133.292 271.05 136.012 272.984C145.573 279.714 155.919 273.433 155.919 273.433C155.919 256.162 148.713 233.759 147.227 223.862L137.078 221.983Z" fill="url(#paint9_linear_1834_77648)"/>
<path d="M157.964 216.6C158.16 214.889 158.637 213.319 159.254 210.768C159.871 208.216 156.927 204.824 153.142 203.506C148.992 202.076 145.403 207.207 143.525 210.627C141.786 213.824 137.693 220.609 133.066 224.759C135.169 230.534 143.356 232.862 148.712 232.862C150.085 229.133 151.515 222.347 153.702 220.132C154.039 219.768 157.544 219.88 157.964 216.6Z" fill="#017AFF"/>
<path d="M164.838 197.478C165.174 197.085 165.511 196.244 165.679 195.823C167.137 192.15 160.492 192.683 157.295 194.59C154.099 196.496 158.361 205.216 161.109 203.506C164.333 201.515 164.725 198.908 164.697 198.739C164.641 198.095 164.557 197.842 164.838 197.478Z" fill="#F5D5D5"/>
<path d="M162.762 189.543C158.5 188.506 158.472 185.646 154.126 188.954C150.537 191.674 149.528 186.711 145.603 189.992C141.649 193.272 144.201 193.076 139.631 195.655C135.733 197.87 136.294 202.216 136.014 204.88C135.705 207.515 136.715 209.45 133.098 211.581C133.098 211.581 140.976 215.674 143.135 210.179C145.294 204.684 148.911 209.814 150.453 205.917C151.687 202.805 154.799 206.029 155.696 204.123C156.594 202.216 160.547 203.282 159.986 198.683C159.65 195.964 165.678 197.59 166.603 195.319C167.136 193.749 167.024 190.58 162.762 189.543Z" fill="#1C0A76"/>
<path d="M160.351 196.58C159.762 197.057 159.51 198.094 159.594 198.851C159.678 199.609 160.127 199.608 160.211 199.3C160.323 198.88 161.08 198.459 161.388 197.394C161.472 197.085 160.968 196.132 160.351 196.58Z" fill="#F5D5D5"/>
<path d="M157.069 215.843C159.312 211.216 158.78 208.665 157.77 208.076C155.163 206.506 152.247 208.272 150.789 212.31C149.387 216.179 147.761 221.927 148.602 227.31C148.938 229.441 153.396 226.441 153.789 225.236C154.181 224.002 155.135 219.796 157.069 215.843Z" fill="#F5D5D5"/>
<path d="M168.03 235.441C166.909 234.628 164.834 233.899 165.535 233.675C166.208 233.451 167.105 233.114 167.301 232.609C167.525 232.105 166.488 232.974 165.563 232.694C164.637 232.441 161.722 232.806 161.722 232.806C161.722 232.806 160.432 235.217 160.824 235.413C161.217 235.609 162.17 236.507 162.955 237.096C163.74 237.684 164.778 239.899 165.198 239.731C165.619 239.535 167.666 239.03 168.03 238.666C168.367 238.301 167.806 236.002 168.451 237.432C169.096 238.89 170.385 239.563 170.161 239.058C169.825 238.301 169.152 236.254 168.03 235.441Z" fill="#F5D5D5"/>
<path d="M162.562 232.834C160.403 231.936 155.609 226.553 153.562 225.011C152.637 224.31 147.59 225.151 148.74 227.759C149.889 230.394 161.273 235.75 161.273 235.75C163.319 234.74 162.562 232.834 162.562 232.834Z" fill="#F5D5D5"/>
<path d="M253.125 66.9177L253.069 79.3919L252.606 183.096C252.588 185.562 249.881 187.081 247.676 185.84L239.112 181.02L142.192 126.786C139.486 125.267 137.818 122.431 137.836 119.409L138.262 13.8329L138.318 3.17513C138.355 0.728481 141.061 -0.791406 143.267 0.431918L248.751 59.4851C251.438 61.0606 253.107 63.8594 253.125 66.9177Z" fill="#C8D3FB"/>
<path d="M248.752 59.5035L143.268 0.450333C142.063 -0.216934 140.71 -0.0501175 139.727 0.635685L139.709 0.61715L136.836 2.54481L138.319 3.45304L138.282 13.8513L250.234 82.1721L253.089 79.3918L253.144 66.9176C253.107 63.8593 251.439 61.0605 248.752 59.5035Z" fill="#1C0A75"/>
<path d="M250.289 68.8267L250.234 82.1906L249.789 185.042C249.789 187.489 247.064 189.028 244.84 187.786L236.295 182.966L139.375 128.732C138.763 128.399 138.225 127.991 137.725 127.528C136.001 125.934 134.982 123.691 135 121.355L135.427 17.5212L135.482 5.12117C135.519 2.67453 138.225 1.15464 140.431 2.37796L245.915 61.4311C248.621 62.951 250.289 65.7684 250.289 68.8267Z" fill="#E7ECFB"/>
<path d="M250.27 68.8084L250.214 82.1722L135.426 17.4844L135.481 5.08431C135.518 2.63766 138.225 1.11777 140.43 2.3411L245.914 61.3943C248.62 62.9512 250.288 65.7686 250.27 68.8084Z" fill="#37269C"/>
<path opacity="0.25" d="M226.379 50.4214L137.725 127.509C136.001 125.915 134.982 123.673 135 121.337L135.427 17.5029L135.482 5.10286C135.519 2.65622 138.225 1.13633 140.431 2.35965L226.379 50.4214Z" fill="white"/>
<path d="M219.114 60.9493L208.752 54.8883C208.456 54.7215 208.215 54.3137 208.215 54.0172C208.215 53.7021 208.456 53.5909 208.771 53.7762L219.132 59.8372C219.429 60.0041 219.67 60.4118 219.67 60.7084C219.67 61.0235 219.41 61.1347 219.114 60.9493Z" fill="white"/>
<path d="M243.618 75.2587C243.47 75.166 243.303 74.9992 243.192 74.8139L236.63 62.7475C236.445 62.3953 236.482 62.0617 236.705 62.0061C236.927 61.9504 237.279 62.1729 237.464 62.525L244.026 74.5915C244.211 74.9436 244.174 75.2773 243.952 75.3329C243.859 75.3699 243.729 75.3329 243.618 75.2587Z" fill="white"/>
<path d="M236.982 71.4035C236.853 71.3294 236.742 71.2182 236.63 71.0699C236.408 70.7362 236.371 70.3655 236.556 70.2358L243.247 65.9171C243.451 65.7873 243.785 65.9542 244.007 66.2878C244.23 66.6214 244.267 66.9921 244.081 67.1219L237.39 71.4406C237.298 71.5147 237.149 71.4776 236.982 71.4035Z" fill="white"/>
<path d="M227.769 66.0465C225.248 64.5822 223.228 61.2829 223.246 58.688C223.265 56.0931 225.322 55.1849 227.843 56.6491C230.364 58.1134 232.384 61.4312 232.366 64.0076C232.347 66.6026 230.29 67.5108 227.769 66.0465ZM227.824 57.7798C225.915 56.6677 224.34 57.3535 224.321 59.3182C224.303 61.2829 225.86 63.8037 227.769 64.9158C229.678 66.028 231.253 65.3422 231.272 63.3774C231.29 61.4127 229.752 58.8919 227.824 57.7798Z" fill="white"/>
<path d="M142.23 51.867V42.1731L145.363 43.9895C146.549 44.6753 147.328 45.1758 147.68 45.4724C148.236 45.9357 148.699 46.5289 149.07 47.2332C149.441 47.9375 149.626 48.679 149.626 49.4389C149.626 50.032 149.515 50.4769 149.311 50.7549C149.088 51.0329 148.829 51.1997 148.495 51.2368C148.162 51.2739 147.828 51.2368 147.476 51.1071C147.013 50.9217 146.327 50.5881 145.456 50.0691L144.177 49.3277V52.9791L142.23 51.867ZM144.195 44.9534V47.6966L145.27 48.3082C146.049 48.7531 146.549 48.994 146.809 49.0497C147.068 49.1053 147.272 49.0497 147.42 48.9199C147.569 48.7902 147.643 48.5863 147.643 48.2897C147.643 47.9375 147.532 47.5854 147.328 47.2332C147.124 46.881 146.864 46.5845 146.549 46.3435C146.308 46.1582 145.845 45.8801 145.14 45.4724L144.195 44.9534Z" fill="#5450C6"/>
<path d="M152.648 52.9977L150.962 51.7187C151.147 51.1441 151.481 50.829 151.944 50.7734C152.407 50.7178 153.093 50.9403 154.001 51.4778C154.836 51.9597 155.447 52.4045 155.855 52.8494C156.263 53.2757 156.541 53.702 156.708 54.0912C156.874 54.4805 156.949 55.0921 156.949 55.8892L156.93 58.0392C156.93 58.6509 156.967 59.1328 157.023 59.4479C157.078 59.7815 157.19 60.1523 157.356 60.5786L155.521 59.5221C155.466 59.3738 155.41 59.1514 155.336 58.8733C155.299 58.7436 155.28 58.6509 155.262 58.6138C154.947 58.7436 154.613 58.7806 154.242 58.725C153.872 58.6694 153.501 58.5212 153.093 58.2802C152.37 57.8539 151.796 57.3349 151.388 56.7047C150.98 56.0745 150.758 55.4628 150.758 54.8512C150.758 54.4619 150.85 54.1468 151.036 53.9615C151.221 53.7576 151.499 53.6835 151.833 53.702C152.166 53.7391 152.667 53.8688 153.316 54.1283C154.187 54.4619 154.78 54.6658 155.114 54.7214V54.5361C155.114 54.1839 155.021 53.8688 154.854 53.6279C154.669 53.3684 154.354 53.1089 153.853 52.8308C153.52 52.6455 153.26 52.5528 153.075 52.5714C152.908 52.5899 152.76 52.7382 152.648 52.9977ZM155.132 55.9448C154.891 55.8892 154.52 55.7594 154.001 55.5741C153.482 55.3887 153.149 55.296 152.982 55.3146C152.741 55.3516 152.611 55.4999 152.611 55.7594C152.611 56.0189 152.704 56.2969 152.908 56.5935C153.093 56.8901 153.353 57.131 153.649 57.2978C153.983 57.4832 154.298 57.5573 154.613 57.5203C154.836 57.4832 154.984 57.372 155.058 57.1681C155.114 57.0383 155.132 56.7418 155.132 56.2969V55.9448Z" fill="#5450C6"/>
<path d="M158.617 61.7834L160.749 63.2662C160.786 63.5257 160.86 63.7481 160.989 63.9149C161.175 64.1559 161.434 64.3783 161.824 64.6007C162.305 64.8788 162.676 65.0085 162.917 65.0085C163.084 65.0085 163.195 64.9158 163.288 64.749C163.343 64.6193 163.381 64.3598 163.381 63.952V62.9326C162.824 63.3774 162.12 63.3403 161.286 62.8584C160.341 62.3209 159.599 61.4868 159.043 60.3747C158.617 59.5035 158.395 58.5953 158.395 57.65C158.395 56.4823 158.673 55.7409 159.247 55.4443C159.822 55.1478 160.526 55.2404 161.36 55.7409C162.231 56.2413 162.936 57.0384 163.51 58.1319V57.1496L165.253 58.1505V64.4524C165.253 65.2865 165.178 65.8611 165.049 66.1948C164.919 66.5284 164.715 66.7323 164.474 66.8249C164.233 66.9176 163.899 66.9176 163.492 66.8064C163.084 66.6952 162.565 66.4728 161.935 66.1021C160.749 65.4163 159.896 64.7305 159.395 64.0261C158.895 63.3218 158.654 62.6731 158.654 62.0429C158.598 61.9502 158.617 61.8761 158.617 61.7834ZM160.267 58.6324C160.267 59.3738 160.415 60.004 160.693 60.523C160.989 61.042 161.342 61.4127 161.768 61.6536C162.231 61.9131 162.602 61.9687 162.917 61.7834C163.232 61.6166 163.381 61.1717 163.381 60.4859C163.381 59.763 163.232 59.1328 162.936 58.6139C162.639 58.0949 162.25 57.6871 161.805 57.4276C161.36 57.1681 160.989 57.131 160.711 57.3164C160.415 57.4647 160.267 57.9095 160.267 58.6324Z" fill="#5450C6"/>
<path d="M171.107 66.3058L172.961 67.6774C172.72 68.2149 172.349 68.5114 171.83 68.5856C171.311 68.6412 170.681 68.4558 169.903 68.011C168.679 67.3067 167.771 66.3799 167.197 65.2492C166.733 64.341 166.492 63.3957 166.492 62.4319C166.492 61.2642 166.789 60.5413 167.4 60.2262C168.012 59.9111 168.772 60.0409 169.699 60.5784C170.737 61.19 171.571 62.0056 172.164 63.0436C172.776 64.0815 173.054 65.3049 173.035 66.7135L168.383 64.0259C168.401 64.582 168.55 65.101 168.828 65.5643C169.106 66.0277 169.476 66.3984 169.903 66.6394C170.199 66.8062 170.44 66.8618 170.644 66.8247C170.867 66.7691 171.015 66.6023 171.107 66.3058ZM171.219 64.4893C171.2 63.9518 171.07 63.4513 170.811 63.025C170.551 62.5987 170.218 62.2651 169.847 62.0427C169.439 61.8017 169.106 61.7646 168.846 61.9129C168.587 62.0612 168.457 62.3763 168.457 62.8953L171.219 64.4893Z" fill="#5450C6"/>
<path d="M184.731 76.4077L182.877 75.3326V71.7553C182.877 70.9954 182.84 70.4764 182.766 70.2169C182.692 69.9574 182.562 69.6979 182.377 69.4755C182.191 69.2531 181.987 69.0677 181.728 68.9194C181.413 68.7341 181.116 68.6599 180.857 68.6785C180.597 68.7156 180.43 68.8453 180.338 69.0677C180.245 69.3087 180.189 69.8091 180.189 70.6061V73.7757L178.336 72.7006V65.6758L180.06 66.6767V67.7147C180.671 67.2698 181.45 67.3254 182.377 67.8629C182.784 68.1039 183.155 68.3819 183.507 68.7341C183.841 69.0863 184.1 69.4199 184.286 69.735C184.453 70.0686 184.582 70.4023 184.656 70.7174C184.731 71.051 184.768 71.4773 184.768 72.0334V76.4077H184.731Z" fill="#5450C6"/>
<path d="M186.176 73.6272C186.176 73.0156 186.324 72.4966 186.639 72.1073C186.936 71.6996 187.381 71.5142 187.937 71.5328C188.493 71.5513 189.123 71.7552 189.809 72.163C190.865 72.7746 191.736 73.6272 192.422 74.7023C193.108 75.7773 193.442 76.8524 193.442 77.9089C193.442 78.9654 193.108 79.6512 192.422 79.9477C191.736 80.2443 190.884 80.096 189.827 79.5029C189.178 79.1322 188.567 78.6317 187.992 78.0015C187.399 77.3713 186.973 76.6855 186.658 75.9627C186.324 75.2027 186.176 74.4428 186.176 73.6272ZM188.085 74.832C188.085 75.5364 188.252 76.148 188.585 76.7226C188.919 77.2787 189.327 77.705 189.809 77.983C190.291 78.261 190.698 78.3166 191.032 78.1313C191.366 77.9459 191.532 77.5011 191.532 76.7968C191.532 76.111 191.366 75.4808 191.032 74.9247C190.698 74.3686 190.291 73.9423 189.809 73.6643C189.327 73.3863 188.919 73.3307 188.585 73.516C188.252 73.7014 188.085 74.1277 188.085 74.832Z" fill="#5450C6"/>
<path d="M198.095 77.0936V78.5764L196.835 77.835V80.6709C196.835 81.2455 196.854 81.5791 196.872 81.6903C196.891 81.8015 196.946 81.9127 197.039 82.0239C197.132 82.1351 197.224 82.2278 197.354 82.302C197.521 82.3946 197.78 82.4873 198.095 82.5615L198.262 84.0999C197.836 84.0443 197.335 83.8404 196.798 83.5253C196.464 83.3399 196.168 83.099 195.89 82.8395C195.612 82.58 195.426 82.3205 195.297 82.061C195.167 81.8015 195.093 81.5235 195.037 81.1899C195 80.9489 194.982 80.5041 194.982 79.8553V76.7785L194.129 76.278V74.7952L194.982 75.2957V73.9055H196.854V76.3892L198.095 77.0936Z" fill="#5450C6"/>
<path d="M202.34 79.5402L203.378 80.1333V79.5958C203.378 79.0027 203.433 78.5949 203.563 78.391C203.693 78.1686 203.915 78.0759 204.249 78.0759C204.583 78.0759 205.009 78.2427 205.528 78.5393C206.065 78.8359 206.566 79.2251 207.085 79.67L206.825 80.8191C206.529 80.5782 206.251 80.3743 205.973 80.226C205.695 80.0777 205.509 80.0221 205.398 80.0777C205.287 80.1333 205.231 80.3372 205.231 80.7079V81.2084L206.621 82.0054V83.4697L205.231 82.6727V88.2332L203.378 87.1582V81.5976L202.34 81.0045V79.5402Z" fill="#5450C6"/>
<path d="M207.215 85.7867C207.215 85.175 207.363 84.656 207.678 84.2668C207.975 83.859 208.42 83.6736 208.976 83.6922C209.532 83.7107 210.162 83.9146 210.848 84.3224C211.904 84.934 212.775 85.7867 213.461 86.8617C214.147 87.9367 214.481 89.0118 214.481 90.0683C214.481 91.1248 214.147 91.8106 213.461 92.1072C212.775 92.4037 211.923 92.2554 210.866 91.6623C210.218 91.2916 209.606 90.7912 209.031 90.161C208.457 89.5308 208.012 88.845 207.697 88.1221C207.382 87.3622 207.215 86.5837 207.215 85.7867ZM209.124 86.9729C209.124 87.6773 209.291 88.2889 209.624 88.8635C209.958 89.4196 210.366 89.8459 210.848 90.1239C211.33 90.4019 211.737 90.4575 212.071 90.2722C212.405 90.0868 212.572 89.642 212.572 88.9376C212.572 88.2518 212.405 87.6216 212.071 87.0656C211.737 86.5095 211.33 86.0832 210.848 85.8052C210.366 85.5272 209.958 85.4716 209.624 85.6569C209.291 85.8423 209.124 86.2871 209.124 86.9729Z" fill="#5450C6"/>
<path d="M220.539 97.0742V96.0177C220.28 96.2402 219.946 96.3514 219.538 96.3143C219.13 96.2958 218.686 96.1475 218.222 95.8695C217.759 95.5914 217.332 95.2578 216.962 94.8315C216.591 94.4052 216.313 93.9603 216.146 93.497C215.979 93.0336 215.887 92.459 215.887 91.7917V87.3433L217.74 88.4183V91.6434C217.74 92.6258 217.777 93.256 217.851 93.5155C217.926 93.775 218.037 94.0345 218.222 94.2569C218.408 94.4978 218.63 94.6832 218.908 94.85C219.223 95.0354 219.501 95.1095 219.761 95.0724C220.02 95.0354 220.187 94.9242 220.28 94.7203C220.372 94.5164 220.428 93.9047 220.428 92.9038V89.9382L222.281 91.0132V98.0381L220.539 97.0742Z" fill="#5450C6"/>
<path d="M230.57 102.876L228.717 101.801V98.2239C228.717 97.4639 228.68 96.9449 228.606 96.6854C228.532 96.4259 228.402 96.1665 228.216 95.944C228.031 95.7216 227.827 95.5363 227.568 95.388C227.253 95.2026 226.956 95.1285 226.697 95.147C226.437 95.1841 226.27 95.3138 226.178 95.5363C226.085 95.7772 226.029 96.2777 226.029 97.0747V100.263L224.176 99.1877V92.1628L225.9 93.1637V94.2017C226.511 93.7569 227.29 93.8125 228.216 94.35C228.624 94.591 228.995 94.869 229.347 95.2212C229.681 95.5733 229.94 95.907 230.126 96.2221C230.292 96.5557 230.422 96.8893 230.496 97.2044C230.57 97.5381 230.589 97.9644 230.589 98.5204V102.876H230.57Z" fill="#5450C6"/>
<path d="M238.892 107.676L237.168 106.676V105.638C236.89 105.879 236.538 105.971 236.149 105.953C235.76 105.916 235.371 105.786 234.963 105.563C234.166 105.1 233.461 104.377 232.887 103.395C232.312 102.412 232.016 101.337 232.016 100.17C232.016 98.9834 232.294 98.242 232.85 97.9454C233.406 97.6489 234.11 97.7416 234.963 98.242C235.741 98.6869 236.427 99.4097 237.002 100.392V96.9075L238.855 97.9825V107.676H238.892ZM233.943 101.152C233.943 101.893 234.055 102.505 234.258 102.95C234.555 103.599 234.981 104.099 235.519 104.396C235.945 104.637 236.316 104.674 236.612 104.488C236.909 104.303 237.057 103.84 237.057 103.117C237.057 102.301 236.909 101.652 236.612 101.115C236.316 100.596 235.945 100.207 235.5 99.9287C235.055 99.6692 234.685 99.6321 234.388 99.8175C234.092 100.021 233.943 100.448 233.943 101.152Z" fill="#5450C6"/>
<path d="M179.932 90.4759L155.744 123.747C154.78 125.063 155.188 126.916 156.597 127.732L203.213 154.367C205.437 155.646 208.032 153.421 207.142 151.03L184.715 91.1246C183.955 89.0857 181.211 88.715 179.932 90.4759Z" fill="url(#paint10_linear_1834_77648)"/>
<path d="M204.584 153.051C204.417 153.051 204.232 152.995 204.065 152.902L157.449 126.267C157.097 126.063 156.986 125.748 156.948 125.581C156.911 125.415 156.893 125.081 157.115 124.747L181.304 91.4766C181.563 91.1244 181.897 91.0503 182.138 91.0503C182.305 91.0503 182.879 91.1059 183.12 91.7176L205.548 151.623C205.678 151.957 205.64 152.291 205.437 152.55C205.251 152.865 204.899 153.051 204.584 153.051ZM182.138 91.3654C181.897 91.3654 181.711 91.4581 181.563 91.662L157.375 124.933C157.208 125.155 157.226 125.396 157.245 125.507C157.264 125.618 157.356 125.841 157.597 125.989L204.213 152.624C204.343 152.698 204.454 152.735 204.584 152.735C204.806 152.735 205.047 152.606 205.196 152.402C205.325 152.198 205.362 151.994 205.27 151.753L182.842 91.8473C182.675 91.421 182.286 91.3654 182.138 91.3654Z" fill="white"/>
<path d="M180.136 104.174L184.64 106.861C185.085 107.139 185.345 107.64 185.252 108.159L182.657 125.285C182.527 126.193 181.526 126.675 180.729 126.212L180.284 125.952C179.914 125.73 179.673 125.359 179.636 124.933L178.171 105.378C178.097 104.34 179.228 103.636 180.136 104.174Z" fill="white"/>
<path d="M180.431 129.122C179.041 128.325 177.91 128.973 177.91 130.586C177.91 132.198 179.041 134.145 180.431 134.96C181.821 135.757 182.952 135.109 182.952 133.496C182.952 131.883 181.821 129.919 180.431 129.122Z" fill="white"/>
<defs>
<linearGradient id="paint0_linear_1834_77648" x1="128.404" y1="305.446" x2="185.111" y2="305.446" gradientUnits="userSpaceOnUse">
<stop stop-color="#CED4FF"/>
<stop offset="1" stop-color="#CED4FF" stop-opacity="0"/>
</linearGradient>
<linearGradient id="paint1_linear_1834_77648" x1="160.044" y1="250.142" x2="323.828" y2="250.142" gradientUnits="userSpaceOnUse">
<stop stop-color="#CED4FF"/>
<stop offset="1" stop-color="#CED4FF" stop-opacity="0"/>
</linearGradient>
<linearGradient id="paint2_linear_1834_77648" x1="141.006" y1="239.182" x2="317.203" y2="239.182" gradientUnits="userSpaceOnUse">
<stop stop-color="#0FD0FF"/>
<stop offset="1" stop-color="#017AFF"/>
</linearGradient>
<linearGradient id="paint3_linear_1834_77648" x1="111.76" y1="370.96" x2="202.253" y2="370.96" gradientUnits="userSpaceOnUse">
<stop stop-color="#CED4FF"/>
<stop offset="1" stop-color="#CED4FF" stop-opacity="0"/>
</linearGradient>
<linearGradient id="paint4_linear_1834_77648" x1="194.357" y1="342.266" x2="181.036" y2="323.277" gradientUnits="userSpaceOnUse">
<stop stop-color="#0FD1FF"/>
<stop offset="1" stop-color="#017AFF"/>
</linearGradient>
<linearGradient id="paint5_linear_1834_77648" x1="106.189" y1="335.86" x2="198.54" y2="335.86" gradientUnits="userSpaceOnUse">
<stop stop-color="white"/>
<stop offset="1" stop-color="#E1E8FF"/>
</linearGradient>
<linearGradient id="paint6_linear_1834_77648" x1="92.5191" y1="369.728" x2="149.606" y2="369.728" gradientUnits="userSpaceOnUse">
<stop stop-color="white"/>
<stop offset="1" stop-color="#E2E9FF"/>
</linearGradient>
<linearGradient id="paint7_linear_1834_77648" x1="88.9614" y1="365.551" x2="94.7245" y2="375.449" gradientUnits="userSpaceOnUse">
<stop stop-color="#0FD1FF"/>
<stop offset="1" stop-color="#017AFF"/>
</linearGradient>
<linearGradient id="paint8_linear_1834_77648" x1="112.39" y1="378.882" x2="118.153" y2="388.779" gradientUnits="userSpaceOnUse">
<stop stop-color="#0FD1FF"/>
<stop offset="1" stop-color="#017AFF"/>
</linearGradient>
<linearGradient id="paint9_linear_1834_77648" x1="126.054" y1="249.032" x2="155.921" y2="249.032" gradientUnits="userSpaceOnUse">
<stop stop-color="#6E66C2"/>
<stop offset="1" stop-color="#4438B8"/>
</linearGradient>
<linearGradient id="paint10_linear_1834_77648" x1="155.219" y1="122.052" x2="207.323" y2="122.052" gradientUnits="userSpaceOnUse">
<stop stop-color="#12D2FF"/>
<stop offset="1" stop-color="#0FD1FF"/>
</linearGradient>
</defs>
</svg>
