<svg width="107" height="99" viewBox="0 0 107 99" fill="none" xmlns="http://www.w3.org/2000/svg">
<path d="M10.031 77.6511L46.265 97.9669C49.4155 99.8053 60.2943 98.9762 63.452 97.1523L101.178 77.6367C102.723 76.7414 104.005 75.456 104.896 73.9092C105.788 72.3624 106.257 70.6085 106.257 68.8233C106.257 67.0381 105.788 65.2842 104.896 63.7374C104.005 62.1905 102.723 60.9051 101.178 60.0099L62.0245 37.2429C60.4727 36.3469 58.7123 35.8752 56.9204 35.8752C55.1284 35.8752 53.368 36.3469 51.8161 37.2429L10.0021 60.0459C8.69789 60.8084 7.58259 61.8497 6.73379 63.0914C6.4543 63.4093 6.19679 63.7472 5.96347 64.1028C5.75606 64.3404 5.56262 64.5907 5.38436 64.8525C5.2214 65.0589 5.0692 65.2743 4.92856 65.498C4.67409 65.7826 4.4453 66.0909 4.24558 66.4194C4.09589 66.5817 3.95652 66.7537 3.82846 66.9344C3.71937 67.054 3.61654 67.1794 3.52045 67.3101C3.28847 67.5472 3.08561 67.8131 2.91726 68.1023C2.8814 68.164 2.84723 68.2264 2.81477 68.2896C2.61666 68.4794 2.44544 68.697 2.30694 68.9365C2.28584 68.973 2.26556 69.0099 2.24611 69.0472C2.18403 69.1247 2.12673 69.2062 2.07463 69.2913C1.93351 69.4189 1.8128 69.5685 1.71753 69.7349C1.70785 69.7518 1.69845 69.7689 1.68934 69.7861C1.57668 69.8808 1.48114 69.995 1.40755 70.1238C1.29852 70.3146 1.24146 70.5306 1.24219 70.7504C1.24292 70.9701 1.30139 71.1858 1.41169 71.3759C1.52199 71.5659 1.68029 71.7237 1.87072 71.8333L2.00878 71.9136C2.11978 72.0245 2.24521 72.1211 2.38223 72.2003L2.48254 72.2585C2.59388 72.3619 2.7153 72.4547 2.84532 72.5353C3.0067 72.6855 3.18526 72.8176 3.37795 72.9285L3.46405 72.9781C3.57789 73.0713 3.69783 73.1574 3.82322 73.2359C3.96526 73.3541 4.11561 73.4628 4.27335 73.5609C4.44714 73.7065 4.63195 73.8394 4.82647 73.9583C4.96565 74.0691 5.11077 74.1728 5.26131 74.2689C5.40966 74.3885 5.5642 74.5009 5.72442 74.6055C5.90676 74.7491 6.09737 74.8828 6.29548 75.0058C6.36357 75.0578 6.43269 75.1084 6.50279 75.1578C6.69102 75.312 6.88709 75.4571 7.09037 75.5925C7.2723 75.733 7.46058 75.8659 7.65475 75.9905C7.74931 76.0628 7.84544 76.1331 7.94311 76.2015C8.1652 76.3759 8.39574 76.5402 8.63408 76.6936C8.70572 76.7472 8.77814 76.7998 8.85132 76.8513C9.22415 77.1442 9.6182 77.4116 10.031 77.6511Z" fill="url(#paint0_linear_1834_76656)"/>
<path d="M0.722656 24.663L43.135 0L85.843 24.6414L43.4306 49.3045L0.722656 24.663Z" fill="url(#paint1_linear_1834_76656)"/>
<path d="M86.5083 24.6418L86.4579 70.2624L43.375 95.3147L43.4255 49.6942L86.5083 24.6418Z" fill="#E4E7FB"/>
<path d="M43.4289 49.6943L43.3784 95.3148L0 70.2913L0.0504705 24.6636L43.4289 49.6943Z" fill="#F1F4FE"/>
<path d="M20.2305 13.3374L23.9938 11.1458L67.0117 35.9674L63.2556 38.159L20.2305 13.3374Z" fill="#D2D7F6"/>
<path d="M63.2611 38.1516L67.0243 35.96L66.8225 82.323L63.0664 84.5075L63.2611 38.1516Z" fill="#B7C0EB"/>
<rect width="1.14287" height="7.61838" transform="matrix(0.866025 0.5 -2.20305e-08 1 3.21484 30.8896)" fill="#D2D7F6"/>
<rect width="0.48612" height="7.61838" transform="matrix(0.866025 0.5 -2.20305e-08 1 4.48828 31.6252)" fill="#D2D7F6"/>
<rect width="1.14287" height="7.61838" transform="matrix(0.866025 0.5 -2.20305e-08 1 5.19141 32.0317)" fill="#D2D7F6"/>
<rect width="2.62569" height="7.61838" transform="matrix(0.866025 0.5 -2.20305e-08 1 7.875 33.5803)" fill="#D2D7F6"/>
<rect width="0.48612" height="7.61838" transform="matrix(0.866025 0.5 -2.20305e-08 1 6.46484 32.7668)" fill="#D2D7F6"/>
<rect width="0.48612" height="7.61838" transform="matrix(0.866025 0.5 -2.20305e-08 1 7.17188 33.1738)" fill="#D2D7F6"/>
<rect width="13.4428" height="1.19969" transform="matrix(0.866025 0.5 -2.20305e-08 1 3.21484 40.0229)" fill="#D2D7F6"/>
<rect width="8.33405" height="1.19969" transform="matrix(0.866025 0.5 -2.20305e-08 1 3.21484 41.7734)" fill="#D2D7F6"/>
<defs>
<linearGradient id="paint0_linear_1834_76656" x1="9.53635" y1="65.7798" x2="106.264" y2="65.7798" gradientUnits="userSpaceOnUse">
<stop stop-color="#CED4FF"/>
<stop offset="1" stop-color="#CED4FF" stop-opacity="0"/>
</linearGradient>
<linearGradient id="paint1_linear_1834_76656" x1="217953" y1="27757.9" x2="207903" y2="27757.9" gradientUnits="userSpaceOnUse">
<stop stop-color="#F1F4FE"/>
<stop offset="0.58" stop-color="#F7F9FE"/>
<stop offset="1" stop-color="white"/>
</linearGradient>
</defs>
</svg>
