<svg width="194" height="349" viewBox="0 0 194 349" fill="none" xmlns="http://www.w3.org/2000/svg">
<path d="M118.895 343.858L108 339.5L162 307L171.921 308.705C179.329 309.978 181.051 319.841 174.511 323.549L141.374 342.335C134.501 346.232 126.23 346.792 118.895 343.858Z" fill="url(#paint0_linear_2705_69292)"/>
<path d="M64.3121 264.494C50.7137 262.475 40.4237 251.848 39.8068 239.203C39.3302 229.39 45.4425 217.277 64.0318 212.679C104.519 202.67 180.25 170.314 180.67 144.07C180.81 135.771 178.063 129.743 172.511 126.182C161.184 118.92 140.407 123.126 124.846 130.556L123.641 128.032C138.725 120.855 160.959 115.443 174.025 123.827C180.446 127.948 183.614 134.761 183.474 144.126C182.997 174.127 99.4438 206.819 64.7047 215.399C50.3492 218.96 42.0779 227.792 42.6106 239.063C43.0873 248.764 50.8258 259.671 64.7327 261.718L64.3121 264.494Z" fill="#3998FF"/>
<path d="M98.332 170.662L140.437 194.748L173.58 173.906L133.785 152.013L98.332 170.662Z" fill="url(#paint1_linear_2705_69292)"/>
<path d="M1.5625 166.997L57.0649 198.716L100.734 171.245L51.1365 140.903L1.5625 166.997Z" fill="url(#paint2_linear_2705_69292)"/>
<path d="M100.711 172.319L49.2227 142.304V19.6523L100.711 49.6675V172.319Z" fill="#027FFF"/>
<g opacity="0.35">
<path opacity="0.35" d="M96.8832 51.8613L53.0508 26.2808V140.086L96.8832 165.644V51.8613ZM95.7862 163.776L54.1478 139.479V28.1946L95.8096 52.4915V163.776H95.7862Z" fill="white"/>
</g>
<path d="M134.511 152.667L100.691 172.319V49.6676L134.511 30.062V152.667Z" fill="url(#paint3_linear_2705_69292)"/>
<path d="M57.8832 40.8207L56.1094 39.7938V37.7632L57.8832 38.7901V40.8207Z" fill="#0ACEFF"/>
<path d="M61.2191 42.7348L59.4453 41.7078V39.6772L61.2191 40.7042V42.7348Z" fill="#0054B0"/>
<path d="M64.5356 44.6485L62.7617 43.6448V41.6143L64.5356 42.6179V44.6485Z" fill="#0054B0"/>
<path d="M67.8715 46.5856L66.0977 45.5587V43.5281L67.8715 44.555V46.5856Z" fill="#0ACEFF"/>
<path d="M71.1879 48.4997L69.4141 47.4727V45.4421L71.1879 46.4691V48.4997Z" fill="#0ACEFF"/>
<path d="M74.5238 50.4132L72.75 49.4096V47.3557L74.5238 48.3827V50.4132Z" fill="#0054B0"/>
<path d="M77.8403 52.3505L76.0664 51.3235V49.293L77.8403 50.3199V52.3505Z" fill="#0ACEFF"/>
<path d="M81.1762 54.2648L79.4023 53.2379V51.2073L81.1762 52.2342V54.2648Z" fill="#0054B0"/>
<path d="M84.4887 56.1781L82.7148 55.1512V53.1206L84.4887 54.1476V56.1781Z" fill="#0ACEFF"/>
<path d="M87.8285 58.0923L86.0547 57.0887V55.0581L87.8285 56.0617V58.0923Z" fill="#0054B0"/>
<path d="M91.141 60.0297L89.3672 59.0027V56.9722L91.141 57.9991V60.0297Z" fill="#0054B0"/>
<path d="M94.4809 61.9433L92.707 60.9163V58.8857L94.4809 59.9127V61.9433Z" fill="#0054B0"/>
<path d="M57.8832 37.2025L56.1094 36.1756V34.145L57.8832 35.172V37.2025Z" fill="#0054B0"/>
<path d="M61.2191 39.1162L59.4453 38.1126V36.082L61.2191 37.0856V39.1162Z" fill="#0ACEFF"/>
<path d="M64.5356 41.0536L62.7617 40.0267V37.9961L64.5356 39.023V41.0536Z" fill="#0ACEFF"/>
<path d="M67.8715 42.9672L66.0977 41.9402V39.9097L67.8715 40.9366V42.9672Z" fill="#0054B0"/>
<path d="M71.1879 44.8813L69.4141 43.8776V41.8237L71.1879 42.8507V44.8813Z" fill="#0ACEFF"/>
<path d="M74.5238 46.8188L72.75 45.7918V43.7612L74.5238 44.7882V46.8188Z" fill="#0ACEFF"/>
<path d="M77.8403 48.7323L76.0664 47.7054V45.6748L77.8403 46.7018V48.7323Z" fill="#0054B0"/>
<path d="M81.1762 50.6466L79.4023 49.6197V47.5891L81.1762 48.6161V50.6466Z" fill="#0054B0"/>
<path d="M84.4887 52.5601L82.7148 51.5564V49.5259L84.4887 50.5295V52.5601Z" fill="#0054B0"/>
<path d="M87.8285 54.4975L86.0547 53.4705V51.4399L87.8285 52.4669V54.4975Z" fill="#0ACEFF"/>
<path d="M91.141 56.4115L89.3672 55.3846V53.354L91.141 54.381V56.4115Z" fill="#0054B0"/>
<path d="M94.4809 58.3251L92.707 57.2981V55.2676L94.4809 56.2945V58.3251Z" fill="#0ACEFF"/>
<path d="M57.8832 63.2816L56.1094 62.2547V60.2241L57.8832 61.2511V63.2816Z" fill="#0ACEFF"/>
<path d="M61.2191 65.1957L59.4453 64.1688V62.1382L61.2191 63.1651V65.1957Z" fill="#0054B0"/>
<path d="M64.5356 67.1091L62.7617 66.1055V64.075L64.5356 65.0786V67.1091Z" fill="#0054B0"/>
<path d="M67.8715 69.0465L66.0977 68.0196V65.989L67.8715 67.016V69.0465Z" fill="#0ACEFF"/>
<path d="M71.1879 70.9606L69.4141 69.9336V67.9031L71.1879 68.93V70.9606Z" fill="#0ACEFF"/>
<path d="M74.5238 72.8742L72.75 71.8706V69.8167L74.5238 70.8436V72.8742Z" fill="#0054B0"/>
<path d="M77.8403 74.8114L76.0664 73.7845V71.7539L77.8403 72.7809V74.8114Z" fill="#0ACEFF"/>
<path d="M81.1762 76.7257L79.4023 75.6988V73.6682L81.1762 74.6952V76.7257Z" fill="#0054B0"/>
<path d="M84.4887 78.6393L82.7148 77.6124V75.5818L84.4887 76.6087V78.6393Z" fill="#0ACEFF"/>
<path d="M87.8285 80.5532L86.0547 79.5496V77.519L87.8285 78.5227V80.5532Z" fill="#0054B0"/>
<path d="M91.141 82.4904L89.3672 81.4634V79.4329L91.141 80.4598V82.4904Z" fill="#0054B0"/>
<path d="M94.4809 84.4042L92.707 83.3773V81.3467L94.4809 82.3736V84.4042Z" fill="#0054B0"/>
<path d="M57.8832 59.664L56.1094 58.637V56.6064L57.8832 57.6334V59.664Z" fill="#0054B0"/>
<path d="M61.2191 61.5779L59.4453 60.5743V58.5437L61.2191 59.5473V61.5779Z" fill="#0ACEFF"/>
<path d="M64.5356 63.5148L62.7617 62.4878V60.4573L64.5356 61.4842V63.5148Z" fill="#0ACEFF"/>
<path d="M67.8715 65.4289L66.0977 64.4019V62.3713L67.8715 63.3983V65.4289Z" fill="#0054B0"/>
<path d="M71.1879 67.3429L69.4141 66.3393V64.2854L71.1879 65.3124V67.3429Z" fill="#0ACEFF"/>
<path d="M74.5238 69.2802L72.75 68.2532V66.2227L74.5238 67.2496V69.2802Z" fill="#0ACEFF"/>
<path d="M77.8403 71.1938L76.0664 70.1668V68.1362L77.8403 69.1632V71.1938Z" fill="#0054B0"/>
<path d="M81.1762 73.1081L79.4023 72.0811V70.0505L81.1762 71.0775V73.1081Z" fill="#0054B0"/>
<path d="M84.4887 75.0215L82.7148 74.0179V71.9873L84.4887 72.9909V75.0215Z" fill="#0054B0"/>
<path d="M87.8285 76.9589L86.0547 75.9319V73.9014L87.8285 74.9283V76.9589Z" fill="#0ACEFF"/>
<path d="M91.141 78.8727L89.3672 77.8458V75.8152L91.141 76.8421V78.8727Z" fill="#0054B0"/>
<path d="M94.4809 80.7865L92.707 79.7596V77.729L94.4809 78.756V80.7865Z" fill="#0ACEFF"/>
<path d="M57.8832 85.7565L56.1094 84.7295V82.699L57.8832 83.7259V85.7565Z" fill="#0ACEFF"/>
<path d="M61.2191 87.6703L59.4453 86.6434V84.6128L61.2191 85.6397V87.6703Z" fill="#0054B0"/>
<path d="M64.5356 89.5842L62.7617 88.5806V86.55L64.5356 87.5537V89.5842Z" fill="#0054B0"/>
<path d="M67.8715 91.5214L66.0977 90.4944V88.4639L67.8715 89.4908V91.5214Z" fill="#0ACEFF"/>
<path d="M71.1879 93.4352L69.4141 92.4083V90.3777L71.1879 91.4046V93.4352Z" fill="#0ACEFF"/>
<path d="M74.5238 95.3493L72.75 94.3457V92.2917L74.5238 93.3187V95.3493Z" fill="#0054B0"/>
<path d="M77.8403 97.2863L76.0664 96.2593V94.2288L77.8403 95.2557V97.2863Z" fill="#0ACEFF"/>
<path d="M81.1762 99.2006L79.4023 98.1736V96.1431L81.1762 97.17V99.2006Z" fill="#0054B0"/>
<path d="M84.4887 101.114L82.7148 100.087V98.0566L84.4887 99.0836V101.114Z" fill="#0ACEFF"/>
<path d="M87.8285 103.028L86.0547 102.024V99.9939L87.8285 100.998V103.028Z" fill="#0054B0"/>
<path d="M91.141 104.965L89.3672 103.938V101.908L91.141 102.935V104.965Z" fill="#0054B0"/>
<path d="M94.4809 106.879L92.707 105.852V103.822L94.4809 104.849V106.879Z" fill="#0054B0"/>
<path d="M57.8832 82.1388L56.1094 81.1119V79.0813L57.8832 80.1083V82.1388Z" fill="#0054B0"/>
<path d="M61.2191 84.0525L59.4453 83.0489V81.0183L61.2191 82.0219V84.0525Z" fill="#0ACEFF"/>
<path d="M64.5356 85.9899L62.7617 84.9629V82.9324L64.5356 83.9593V85.9899Z" fill="#0ACEFF"/>
<path d="M67.8715 87.9037L66.0977 86.8768V84.8462L67.8715 85.8731V87.9037Z" fill="#0054B0"/>
<path d="M71.1879 89.8175L69.4141 88.8139V86.76L71.1879 87.787V89.8175Z" fill="#0ACEFF"/>
<path d="M74.5238 91.755L72.75 90.7281V88.6975L74.5238 89.7245V91.755Z" fill="#0ACEFF"/>
<path d="M77.8403 93.6686L76.0664 92.6417V90.6111L77.8403 91.638V93.6686Z" fill="#0054B0"/>
<path d="M81.1762 95.5829L79.4023 94.556V92.5254L81.1762 93.5524V95.5829Z" fill="#0054B0"/>
<path d="M84.4887 97.4964L82.7148 96.4927V94.4622L84.4887 95.4658V97.4964Z" fill="#0054B0"/>
<path d="M87.8285 99.4338L86.0547 98.4068V96.3762L87.8285 97.4032V99.4338Z" fill="#0ACEFF"/>
<path d="M91.141 101.348L89.3672 100.321V98.29L91.141 99.317V101.348Z" fill="#0054B0"/>
<path d="M94.4809 103.262L92.707 102.235V100.204L94.4809 101.231V103.262Z" fill="#0ACEFF"/>
<path d="M57.8832 108.232L56.1094 107.205V105.175L57.8832 106.202V108.232Z" fill="#0ACEFF"/>
<path d="M61.2191 110.146L59.4453 109.119V107.089L61.2191 108.116V110.146Z" fill="#0054B0"/>
<path d="M64.5356 112.06L62.7617 111.056V109.026L64.5356 110.029V112.06Z" fill="#0054B0"/>
<path d="M67.8715 113.997L66.0977 112.97V110.94L67.8715 111.967V113.997Z" fill="#0ACEFF"/>
<path d="M71.1879 115.911L69.4141 114.884V112.854L71.1879 113.88V115.911Z" fill="#0ACEFF"/>
<path d="M74.5238 117.825L72.75 116.821V114.768L74.5238 115.795V117.825Z" fill="#0054B0"/>
<path d="M77.8403 119.762L76.0664 118.735V116.705L77.8403 117.732V119.762Z" fill="#0ACEFF"/>
<path d="M81.1762 121.676L79.4023 120.649V118.619L81.1762 119.646V121.676Z" fill="#0054B0"/>
<path d="M84.4887 123.59L82.7148 122.563V120.532L84.4887 121.559V123.59Z" fill="#0ACEFF"/>
<path d="M87.8285 125.504L86.0547 124.5V122.47L87.8285 123.473V125.504Z" fill="#0054B0"/>
<path d="M91.141 127.441L89.3672 126.414V124.384L91.141 125.411V127.441Z" fill="#0054B0"/>
<path d="M94.4809 129.355L92.707 128.328V126.297L94.4809 127.324V129.355Z" fill="#0054B0"/>
<path d="M57.8832 104.615L56.1094 103.588V101.557L57.8832 102.584V104.615Z" fill="#0054B0"/>
<path d="M61.2191 106.528L59.4453 105.525V103.494L61.2191 104.498V106.528Z" fill="#0ACEFF"/>
<path d="M64.5356 108.466L62.7617 107.439V105.408L64.5356 106.435V108.466Z" fill="#0ACEFF"/>
<path d="M67.8715 110.38L66.0977 109.353V107.322L67.8715 108.349V110.38Z" fill="#0054B0"/>
<path d="M71.1879 112.293L69.4141 111.29V109.236L71.1879 110.263V112.293Z" fill="#0ACEFF"/>
<path d="M74.5238 114.231L72.75 113.204V111.173L74.5238 112.2V114.231Z" fill="#0ACEFF"/>
<path d="M77.8403 116.144L76.0664 115.117V113.087L77.8403 114.114V116.144Z" fill="#0054B0"/>
<path d="M81.1762 118.059L79.4023 117.032V115.001L81.1762 116.028V118.059Z" fill="#0054B0"/>
<path d="M84.4887 119.972L82.7148 118.969V116.938L84.4887 117.942V119.972Z" fill="#0054B0"/>
<path d="M87.8285 121.91L86.0547 120.883V118.852L87.8285 119.879V121.91Z" fill="#0ACEFF"/>
<path d="M91.141 123.823L89.3672 122.796V120.766L91.141 121.793V123.823Z" fill="#0054B0"/>
<path d="M94.4809 125.737L92.707 124.71V122.68L94.4809 123.707V125.737Z" fill="#0ACEFF"/>
<path d="M57.8832 130.708L56.1094 129.681V127.65L57.8832 128.677V130.708Z" fill="#0ACEFF"/>
<path d="M61.2191 132.622L59.4453 131.595V129.564L61.2191 130.591V132.622Z" fill="#0054B0"/>
<path d="M64.5356 134.536L62.7617 133.532V131.501L64.5356 132.505V134.536Z" fill="#0054B0"/>
<path d="M67.8715 136.473L66.0977 135.446V133.415L67.8715 134.442V136.473Z" fill="#0ACEFF"/>
<path d="M71.1879 138.387L69.4141 137.36V135.329L71.1879 136.356V138.387Z" fill="#0ACEFF"/>
<path d="M74.5238 140.301L72.75 139.297V137.243L74.5238 138.27V140.301Z" fill="#0054B0"/>
<path d="M77.8403 142.238L76.0664 141.211V139.18L77.8403 140.207V142.238Z" fill="#0ACEFF"/>
<path d="M81.1762 144.152L79.4023 143.125V141.094L81.1762 142.121V144.152Z" fill="#0054B0"/>
<path d="M84.4887 146.066L82.7148 145.039V143.008L84.4887 144.035V146.066Z" fill="#0ACEFF"/>
<path d="M87.8285 147.98L86.0547 146.976V144.945L87.8285 145.949V147.98Z" fill="#0054B0"/>
<path d="M91.141 149.917L89.3672 148.89V146.859L91.141 147.886V149.917Z" fill="#0054B0"/>
<path d="M94.4809 151.83L92.707 150.804V148.773L94.4809 149.8V151.83Z" fill="#0054B0"/>
<path d="M57.8832 127.09L56.1094 126.063V124.033L57.8832 125.06V127.09Z" fill="#0054B0"/>
<path d="M61.2191 129.004L59.4453 128V125.97L61.2191 126.973V129.004Z" fill="#0ACEFF"/>
<path d="M64.5356 130.941L62.7617 129.914V127.884L64.5356 128.911V130.941Z" fill="#0ACEFF"/>
<path d="M67.8715 132.855L66.0977 131.828V129.798L67.8715 130.825V132.855Z" fill="#0054B0"/>
<path d="M71.1879 134.769L69.4141 133.765V131.711L71.1879 132.738V134.769Z" fill="#0ACEFF"/>
<path d="M74.5238 136.706L72.75 135.68V133.649L74.5238 134.676V136.706Z" fill="#0ACEFF"/>
<path d="M77.8403 138.62L76.0664 137.593V135.562L77.8403 136.589V138.62Z" fill="#0054B0"/>
<path d="M81.1762 140.534L79.4023 139.507V137.477L81.1762 138.504V140.534Z" fill="#0054B0"/>
<path d="M84.4887 142.448L82.7148 141.444V139.414L84.4887 140.417V142.448Z" fill="#0054B0"/>
<path d="M87.8285 144.385L86.0547 143.358V141.328L87.8285 142.355V144.385Z" fill="#0ACEFF"/>
<path d="M91.141 146.299L89.3672 145.272V143.241L91.141 144.268V146.299Z" fill="#0054B0"/>
<path d="M94.4809 148.213L92.707 147.186V145.155L94.4809 146.182V148.213Z" fill="#0ACEFF"/>
<path d="M57.8832 48.2968L56.1094 47.2698V45.2393L57.8832 46.2662V48.2968Z" fill="#0ACEFF"/>
<path d="M61.2191 50.2109L59.4453 49.1839V47.1533L61.2191 48.1803V50.2109Z" fill="#0054B0"/>
<path d="M64.5356 52.1243L62.7617 51.1207V49.0901L64.5356 50.0937V52.1243Z" fill="#0054B0"/>
<path d="M67.8715 54.0617L66.0977 53.0347V51.0042L67.8715 52.0311V54.0617Z" fill="#0ACEFF"/>
<path d="M71.1879 55.9757L69.4141 54.9488V52.9182L71.1879 53.9452V55.9757Z" fill="#0ACEFF"/>
<path d="M74.5238 57.8893L72.75 56.8857V54.8318L74.5238 55.8588V57.8893Z" fill="#0054B0"/>
<path d="M77.8403 59.8266L76.0664 58.7996V56.769L77.8403 57.796V59.8266Z" fill="#0ACEFF"/>
<path d="M81.1762 61.7409L79.4023 60.7139V58.6833L81.1762 59.7103V61.7409Z" fill="#0054B0"/>
<path d="M84.4887 63.6542L82.7148 62.6273V60.5967L84.4887 61.6236V63.6542Z" fill="#0ACEFF"/>
<path d="M87.8285 65.5684L86.0547 64.5648V62.5342L87.8285 63.5378V65.5684Z" fill="#0054B0"/>
<path d="M91.141 67.5058L89.3672 66.4788V64.4482L91.141 65.4752V67.5058Z" fill="#0054B0"/>
<path d="M94.4809 69.4193L92.707 68.3924V66.3618L94.4809 67.3888V69.4193Z" fill="#0054B0"/>
<path d="M57.8832 44.6786L56.1094 43.6517V41.6211L57.8832 42.648V44.6786Z" fill="#0054B0"/>
<path d="M61.2191 46.5925L59.4453 45.5889V43.5583L61.2191 44.562V46.5925Z" fill="#0ACEFF"/>
<path d="M64.5356 48.5295L62.7617 47.5025V45.4719L64.5356 46.4989V48.5295Z" fill="#0ACEFF"/>
<path d="M67.8715 50.4435L66.0977 49.4166V47.386L67.8715 48.4129V50.4435Z" fill="#0054B0"/>
<path d="M71.1879 52.3576L69.4141 51.354V49.3L71.1879 50.327V52.3576Z" fill="#0054B0"/>
<path d="M74.5238 54.2948L72.75 53.2679V51.2373L74.5238 52.2643V54.2948Z" fill="#0ACEFF"/>
<path d="M77.8403 56.2084L76.0664 55.1814V53.1509L77.8403 54.1778V56.2084Z" fill="#0054B0"/>
<path d="M81.1762 58.1227L79.4023 57.0958V55.0652L81.1762 56.0921V58.1227Z" fill="#0054B0"/>
<path d="M84.4887 60.0361L82.7148 59.0325V57.002L84.4887 58.0056V60.0361Z" fill="#0054B0"/>
<path d="M87.8285 61.9735L86.0547 60.9466V58.916L87.8285 59.943V61.9735Z" fill="#0ACEFF"/>
<path d="M91.141 63.8876L89.3672 62.8607V60.8301L91.141 61.857V63.8876Z" fill="#0054B0"/>
<path d="M94.4809 65.8012L92.707 64.7742V62.7437L94.4809 63.7706V65.8012Z" fill="#0ACEFF"/>
<path d="M57.8832 70.7567L56.1094 69.7298V67.6992L57.8832 68.7262V70.7567Z" fill="#0ACEFF"/>
<path d="M61.2191 72.6708L59.4453 71.6439V69.6133L61.2191 70.6402V72.6708Z" fill="#0054B0"/>
<path d="M64.5356 74.5842L62.7617 73.5806V71.55L64.5356 72.5537V74.5842Z" fill="#0054B0"/>
<path d="M67.8715 76.5216L66.0977 75.4947V73.4641L67.8715 74.4911V76.5216Z" fill="#0ACEFF"/>
<path d="M71.1879 78.4355L69.4141 77.4085V75.3779L71.1879 76.4049V78.4355Z" fill="#0ACEFF"/>
<path d="M74.5238 80.3495L72.75 79.3459V77.292L74.5238 78.319V80.3495Z" fill="#0054B0"/>
<path d="M77.8403 82.2865L76.0664 81.2596V79.229L77.8403 80.256V82.2865Z" fill="#0ACEFF"/>
<path d="M81.1762 84.2008L79.4023 83.1739V81.1433L81.1762 82.1703V84.2008Z" fill="#0054B0"/>
<path d="M84.4887 86.1144L82.7148 85.0875V83.0569L84.4887 84.0838V86.1144Z" fill="#0ACEFF"/>
<path d="M87.8285 88.0283L86.0547 87.0247V84.9941L87.8285 85.9978V88.0283Z" fill="#0054B0"/>
<path d="M91.141 89.9655L89.3672 88.9385V86.908L91.141 87.9349V89.9655Z" fill="#0054B0"/>
<path d="M94.4809 91.8793L92.707 90.8523V88.8218L94.4809 89.8487V91.8793Z" fill="#0054B0"/>
<path d="M57.8832 67.1386L56.1094 66.1116V64.0811L57.8832 65.108V67.1386Z" fill="#0054B0"/>
<path d="M61.2191 69.0525L59.4453 68.0489V66.0183L61.2191 67.0219V69.0525Z" fill="#0ACEFF"/>
<path d="M64.5356 70.9894L62.7617 69.9625V67.9319L64.5356 68.9588V70.9894Z" fill="#0ACEFF"/>
<path d="M67.8715 72.9035L66.0977 71.8765V69.8459L67.8715 70.8729V72.9035Z" fill="#0054B0"/>
<path d="M71.1879 74.8175L69.4141 73.8139V71.76L71.1879 72.787V74.8175Z" fill="#0054B0"/>
<path d="M74.5238 76.7548L72.75 75.7278V73.6973L74.5238 74.7242V76.7548Z" fill="#0ACEFF"/>
<path d="M77.8403 78.6684L76.0664 77.6414V75.6108L77.8403 76.6378V78.6684Z" fill="#0054B0"/>
<path d="M81.1762 80.5827L79.4023 79.5557V77.5251L81.1762 78.5521V80.5827Z" fill="#0054B0"/>
<path d="M84.4887 82.4961L82.7148 81.4925V79.4619L84.4887 80.4655V82.4961Z" fill="#0054B0"/>
<path d="M87.8285 84.4335L86.0547 83.4066V81.376L87.8285 82.4029V84.4335Z" fill="#0ACEFF"/>
<path d="M91.141 86.3473L89.3672 85.3204V83.2898L91.141 84.3168V86.3473Z" fill="#0054B0"/>
<path d="M94.4809 88.2611L92.707 87.2342V85.2036L94.4809 86.2306V88.2611Z" fill="#0ACEFF"/>
<path d="M57.8832 115.708L56.1094 114.681V112.651L57.8832 113.678V115.708Z" fill="#0ACEFF"/>
<path d="M61.2191 117.622L59.4453 116.595V114.565L61.2191 115.592V117.622Z" fill="#0054B0"/>
<path d="M64.5356 119.536L62.7617 118.533V116.502L64.5356 117.506V119.536Z" fill="#0054B0"/>
<path d="M67.8715 121.473L66.0977 120.446V118.416L67.8715 119.443V121.473Z" fill="#0ACEFF"/>
<path d="M71.1879 123.387L69.4141 122.36V120.33L71.1879 121.357V123.387Z" fill="#0ACEFF"/>
<path d="M74.5238 125.301L72.75 124.298V122.244L74.5238 123.271V125.301Z" fill="#0054B0"/>
<path d="M77.8403 127.238L76.0664 126.211V124.181L77.8403 125.208V127.238Z" fill="#0ACEFF"/>
<path d="M81.1762 129.153L79.4023 128.126V126.095L81.1762 127.122V129.153Z" fill="#0054B0"/>
<path d="M84.4887 131.066L82.7148 130.039V128.009L84.4887 129.036V131.066Z" fill="#0ACEFF"/>
<path d="M87.8285 132.98L86.0547 131.976V129.946L87.8285 130.949V132.98Z" fill="#0054B0"/>
<path d="M91.141 134.917L89.3672 133.89V131.86L91.141 132.887V134.917Z" fill="#0054B0"/>
<path d="M94.4809 136.831L92.707 135.804V133.773L94.4809 134.8V136.831Z" fill="#0054B0"/>
<path d="M57.8832 112.091L56.1094 111.064V109.033L57.8832 110.06V112.091Z" fill="#0054B0"/>
<path d="M61.2191 114.004L59.4453 113.001V110.97L61.2191 111.974V114.004Z" fill="#0ACEFF"/>
<path d="M64.5356 115.942L62.7617 114.915V112.884L64.5356 113.911V115.942Z" fill="#0ACEFF"/>
<path d="M67.8715 117.856L66.0977 116.829V114.798L67.8715 115.825V117.856Z" fill="#0054B0"/>
<path d="M71.1879 119.769L69.4141 118.766V116.712L71.1879 117.739V119.769Z" fill="#0054B0"/>
<path d="M74.5238 121.707L72.75 120.68V118.649L74.5238 119.676V121.707Z" fill="#0ACEFF"/>
<path d="M77.8403 123.621L76.0664 122.594V120.563L77.8403 121.59V123.621Z" fill="#0054B0"/>
<path d="M81.1762 125.535L79.4023 124.508V122.477L81.1762 123.504V125.535Z" fill="#0054B0"/>
<path d="M84.4887 127.448L82.7148 126.445V124.414L84.4887 125.418V127.448Z" fill="#0054B0"/>
<path d="M87.8285 129.386L86.0547 128.359V126.328L87.8285 127.355V129.386Z" fill="#0ACEFF"/>
<path d="M91.141 131.299L89.3672 130.273V128.242L91.141 129.269V131.299Z" fill="#0054B0"/>
<path d="M94.4809 133.213L92.707 132.186V130.156L94.4809 131.183V133.213Z" fill="#0ACEFF"/>
<path d="M57.8832 93.2328L56.1094 92.2059V90.1753L57.8832 91.2022V93.2328Z" fill="#0ACEFF"/>
<path d="M61.2191 95.1466L59.4453 94.1197V92.0891L61.2191 93.1161V95.1466Z" fill="#0054B0"/>
<path d="M64.5356 97.0606L62.7617 96.0569V94.0264L64.5356 95.03V97.0606Z" fill="#0054B0"/>
<path d="M67.8715 98.9977L66.0977 97.9708V95.9402L67.8715 96.9671V98.9977Z" fill="#0ACEFF"/>
<path d="M71.1879 100.912L69.4141 99.8846V97.854L71.1879 98.881V100.912Z" fill="#0ACEFF"/>
<path d="M74.5238 102.826L72.75 101.822V99.7681L74.5238 100.795V102.826Z" fill="#0054B0"/>
<path d="M77.8403 104.763L76.0664 103.736V101.705L77.8403 102.732V104.763Z" fill="#0ACEFF"/>
<path d="M81.1762 106.677L79.4023 105.65V103.619L81.1762 104.646V106.677Z" fill="#0054B0"/>
<path d="M84.4887 108.59L82.7148 107.564V105.533L84.4887 106.56V108.59Z" fill="#0ACEFF"/>
<path d="M87.8285 110.504L86.0547 109.501V107.47L87.8285 108.474V110.504Z" fill="#0054B0"/>
<path d="M91.141 112.442L89.3672 111.415V109.384L91.141 110.411V112.442Z" fill="#0054B0"/>
<path d="M94.4809 114.355L92.707 113.328V111.298L94.4809 112.325V114.355Z" fill="#0054B0"/>
<path d="M57.8832 89.6151L56.1094 88.5882V86.5576L57.8832 87.5846V89.6151Z" fill="#0054B0"/>
<path d="M61.2191 91.5288L59.4453 90.5252V88.4946L61.2191 89.4982V91.5288Z" fill="#0ACEFF"/>
<path d="M64.5356 93.4662L62.7617 92.4393V90.4087L64.5356 91.4356V93.4662Z" fill="#0ACEFF"/>
<path d="M67.8715 95.38L66.0977 94.3531V92.3225L67.8715 93.3495V95.38Z" fill="#0054B0"/>
<path d="M71.1879 97.2939L69.4141 96.2902V94.2363L71.1879 95.2633V97.2939Z" fill="#0054B0"/>
<path d="M74.5238 99.2314L72.75 98.2044V96.1738L74.5238 97.2008V99.2314Z" fill="#0ACEFF"/>
<path d="M77.8403 101.145L76.0664 100.118V98.0874L77.8403 99.1144V101.145Z" fill="#0054B0"/>
<path d="M81.1762 103.059L79.4023 102.032V100.002L81.1762 101.029V103.059Z" fill="#0054B0"/>
<path d="M84.4887 104.973L82.7148 103.969V101.938L84.4887 102.942V104.973Z" fill="#0054B0"/>
<path d="M87.8285 106.91L86.0547 105.883V103.853L87.8285 104.88V106.91Z" fill="#0ACEFF"/>
<path d="M91.141 108.824L89.3672 107.797V105.766L91.141 106.793V108.824Z" fill="#0054B0"/>
<path d="M94.4809 110.738L92.707 109.711V107.68L94.4809 108.707V110.738Z" fill="#0ACEFF"/>
<path d="M57.8832 138.184L56.1094 137.157V135.126L57.8832 136.153V138.184Z" fill="#0ACEFF"/>
<path d="M61.2191 140.098L59.4453 139.071V137.04L61.2191 138.067V140.098Z" fill="#0054B0"/>
<path d="M64.5356 142.012L62.7617 141.008V138.978L64.5356 139.981V142.012Z" fill="#0054B0"/>
<path d="M67.8715 143.949L66.0977 142.922V140.891L67.8715 141.918V143.949Z" fill="#0ACEFF"/>
<path d="M71.1879 145.863L69.4141 144.836V142.805L71.1879 143.832V145.863Z" fill="#0ACEFF"/>
<path d="M74.5238 147.777L72.75 146.773V144.719L74.5238 145.746V147.777Z" fill="#0054B0"/>
<path d="M77.8403 149.714L76.0664 148.687V146.656L77.8403 147.683V149.714Z" fill="#0ACEFF"/>
<path d="M81.1762 151.628L79.4023 150.601V148.571L81.1762 149.598V151.628Z" fill="#0054B0"/>
<path d="M84.4887 153.542L82.7148 152.515V150.484L84.4887 151.511V153.542Z" fill="#0ACEFF"/>
<path d="M87.8285 155.456L86.0547 154.452V152.421L87.8285 153.425V155.456Z" fill="#0054B0"/>
<path d="M91.141 157.393L89.3672 156.366V154.335L91.141 155.362V157.393Z" fill="#0054B0"/>
<path d="M94.4809 159.307L92.707 158.28V156.249L94.4809 157.276V159.307Z" fill="#0054B0"/>
<path d="M57.8832 134.566L56.1094 133.539V131.509L57.8832 132.536V134.566Z" fill="#0054B0"/>
<path d="M61.2191 136.48L59.4453 135.476V133.446L61.2191 134.449V136.48Z" fill="#0ACEFF"/>
<path d="M64.5356 138.417L62.7617 137.39V135.36L64.5356 136.387V138.417Z" fill="#0ACEFF"/>
<path d="M67.8715 140.331L66.0977 139.304V137.274L67.8715 138.301V140.331Z" fill="#0054B0"/>
<path d="M71.1879 142.245L69.4141 141.241V139.188L71.1879 140.214V142.245Z" fill="#0054B0"/>
<path d="M74.5238 144.183L72.75 143.156V141.125L74.5238 142.152V144.183Z" fill="#0ACEFF"/>
<path d="M77.8403 146.096L76.0664 145.069V143.039L77.8403 144.066V146.096Z" fill="#0054B0"/>
<path d="M81.1762 148.01L79.4023 146.983V144.953L81.1762 145.98V148.01Z" fill="#0054B0"/>
<path d="M84.4887 149.924L82.7148 148.92V146.89L84.4887 147.893V149.924Z" fill="#0054B0"/>
<path d="M87.8285 151.861L86.0547 150.834V148.804L87.8285 149.831V151.861Z" fill="#0ACEFF"/>
<path d="M91.141 153.775L89.3672 152.748V150.718L91.141 151.744V153.775Z" fill="#0054B0"/>
<path d="M94.4809 155.689L92.707 154.662V152.631L94.4809 153.658V155.689Z" fill="#0ACEFF"/>
<path d="M57.8832 55.789L56.1094 54.762V52.7314L57.8832 53.7584V55.789Z" fill="#0ACEFF"/>
<path d="M61.2191 57.703L59.4453 56.6761V54.6455L61.2191 55.6725V57.703Z" fill="#0054B0"/>
<path d="M64.5356 59.6165L62.7617 58.6128V56.5823L64.5356 57.5859V59.6165Z" fill="#0054B0"/>
<path d="M67.8715 61.5539L66.0977 60.5269V58.4963L67.8715 59.5233V61.5539Z" fill="#0ACEFF"/>
<path d="M71.1879 63.4679L69.4141 62.441V60.4104L71.1879 61.4374V63.4679Z" fill="#0ACEFF"/>
<path d="M74.5238 65.3815L72.75 64.3779V62.324L74.5238 63.3509V65.3815Z" fill="#0054B0"/>
<path d="M77.8403 67.3188L76.0664 66.2918V64.2612L77.8403 65.2882V67.3188Z" fill="#0ACEFF"/>
<path d="M81.1762 69.2331L79.4023 68.2061V66.1755L81.1762 67.2025V69.2331Z" fill="#0054B0"/>
<path d="M84.4887 71.1464L82.7148 70.1194V68.0889L84.4887 69.1158V71.1464Z" fill="#0ACEFF"/>
<path d="M87.8285 73.0606L86.0547 72.0569V70.0264L87.8285 71.03V73.0606Z" fill="#0054B0"/>
<path d="M91.141 74.998L89.3672 73.971V71.9404L91.141 72.9674V74.998Z" fill="#0054B0"/>
<path d="M94.4809 76.9115L92.707 75.8846V73.854L94.4809 74.881V76.9115Z" fill="#0054B0"/>
<path d="M57.8832 52.1713L56.1094 51.1443V49.1138L57.8832 50.1407V52.1713Z" fill="#0054B0"/>
<path d="M61.2191 54.0852L59.4453 53.0816V51.051L61.2191 52.0546V54.0852Z" fill="#0ACEFF"/>
<path d="M64.5356 56.0221L62.7617 54.9952V52.9646L64.5356 53.9916V56.0221Z" fill="#0ACEFF"/>
<path d="M67.8715 57.9362L66.0977 56.9092V54.8787L67.8715 55.9056V57.9362Z" fill="#0054B0"/>
<path d="M71.1879 59.8503L69.4141 58.8466V56.7927L71.1879 57.8197V59.8503Z" fill="#0054B0"/>
<path d="M74.5238 61.7875L72.75 60.7606V58.73L74.5238 59.7569V61.7875Z" fill="#0ACEFF"/>
<path d="M77.8403 63.7011L76.0664 62.6741V60.6436L77.8403 61.6705V63.7011Z" fill="#0054B0"/>
<path d="M81.1762 65.6154L79.4023 64.5884V62.5579L81.1762 63.5848V65.6154Z" fill="#0054B0"/>
<path d="M84.4887 67.5288L82.7148 66.5252V64.4946L84.4887 65.4982V67.5288Z" fill="#0054B0"/>
<path d="M87.8285 69.4662L86.0547 68.4393V66.4087L87.8285 67.4357V69.4662Z" fill="#0ACEFF"/>
<path d="M91.141 71.3803L89.3672 70.3533V68.3228L91.141 69.3497V71.3803Z" fill="#0054B0"/>
<path d="M94.4809 73.2939L92.707 72.2669V70.2363L94.4809 71.2633V73.2939Z" fill="#0ACEFF"/>
<path d="M57.8832 123.2L56.1094 122.173V120.143L57.8832 121.17V123.2Z" fill="#0ACEFF"/>
<path d="M61.2191 125.114L59.4453 124.087V122.057L61.2191 123.084V125.114Z" fill="#0054B0"/>
<path d="M64.5356 127.028L62.7617 126.024V123.994L64.5356 124.998V127.028Z" fill="#0054B0"/>
<path d="M67.8715 128.965L66.0977 127.938V125.908L67.8715 126.935V128.965Z" fill="#0ACEFF"/>
<path d="M71.1879 130.879L69.4141 129.852V127.822L71.1879 128.848V130.879Z" fill="#0ACEFF"/>
<path d="M74.5238 132.793L72.75 131.79V129.736L74.5238 130.763V132.793Z" fill="#0054B0"/>
<path d="M77.8403 134.73L76.0664 133.703V131.673L77.8403 132.7V134.73Z" fill="#0ACEFF"/>
<path d="M81.1762 136.644L79.4023 135.617V133.587L81.1762 134.614V136.644Z" fill="#0054B0"/>
<path d="M84.4887 138.558L82.7148 137.531V135.5L84.4887 136.527V138.558Z" fill="#0ACEFF"/>
<path d="M87.8285 140.472L86.0547 139.468V137.438L87.8285 138.441V140.472Z" fill="#0054B0"/>
<path d="M91.141 142.409L89.3672 141.382V139.352L91.141 140.379V142.409Z" fill="#0054B0"/>
<path d="M94.4809 144.323L92.707 143.296V141.266L94.4809 142.293V144.323Z" fill="#0054B0"/>
<path d="M57.8832 119.583L56.1094 118.556V116.525L57.8832 117.552V119.583Z" fill="#0054B0"/>
<path d="M61.2191 121.496L59.4453 120.493V118.462L61.2191 119.466V121.496Z" fill="#0ACEFF"/>
<path d="M64.5356 123.434L62.7617 122.407V120.376L64.5356 121.403V123.434Z" fill="#0ACEFF"/>
<path d="M67.8715 125.348L66.0977 124.321V122.29L67.8715 123.317V125.348Z" fill="#0054B0"/>
<path d="M71.1879 127.261L69.4141 126.258V124.204L71.1879 125.231V127.261Z" fill="#0054B0"/>
<path d="M74.5238 129.199L72.75 128.172V126.141L74.5238 127.168V129.199Z" fill="#0ACEFF"/>
<path d="M77.8403 131.112L76.0664 130.086V128.055L77.8403 129.082V131.112Z" fill="#0054B0"/>
<path d="M81.1762 133.027L79.4023 132V129.969L81.1762 130.996V133.027Z" fill="#0054B0"/>
<path d="M84.4887 134.94L82.7148 133.937V131.906L84.4887 132.91V134.94Z" fill="#0054B0"/>
<path d="M87.8285 136.878L86.0547 135.851V133.82L87.8285 134.847V136.878Z" fill="#0ACEFF"/>
<path d="M91.141 138.791L89.3672 137.764V135.734L91.141 136.761V138.791Z" fill="#0054B0"/>
<path d="M94.4809 140.705L92.707 139.679V137.648L94.4809 138.675V140.705Z" fill="#0ACEFF"/>
<path d="M57.8832 78.2489L56.1094 77.222V75.1914L57.8832 76.2184V78.2489Z" fill="#0ACEFF"/>
<path d="M61.2191 80.1628L59.4453 79.1358V77.1052L61.2191 78.1322V80.1628Z" fill="#0054B0"/>
<path d="M64.5356 82.0767L62.7617 81.0731V79.0425L64.5356 80.0461V82.0767Z" fill="#0054B0"/>
<path d="M67.8715 84.0138L66.0977 82.9869V80.9563L67.8715 81.9833V84.0138Z" fill="#0ACEFF"/>
<path d="M71.1879 85.9277L69.4141 84.9007V82.8701L71.1879 83.8971V85.9277Z" fill="#0ACEFF"/>
<path d="M74.5238 87.8417L72.75 86.8381V84.7842L74.5238 85.8111V87.8417Z" fill="#0054B0"/>
<path d="M77.8403 89.7787L76.0664 88.7518V86.7212L77.8403 87.7481V89.7787Z" fill="#0ACEFF"/>
<path d="M81.1762 91.693L79.4023 90.6661V88.6355L81.1762 89.6625V91.693Z" fill="#0054B0"/>
<path d="M84.4887 93.6066L82.7148 92.5796V90.5491L84.4887 91.576V93.6066Z" fill="#0ACEFF"/>
<path d="M87.8285 95.5205L86.0547 94.5169V92.4863L87.8285 93.4899V95.5205Z" fill="#0054B0"/>
<path d="M91.141 97.4577L89.3672 96.4307V94.4001L91.141 95.4271V97.4577Z" fill="#0054B0"/>
<path d="M94.4809 99.3715L92.707 98.3445V96.314L94.4809 97.3409V99.3715Z" fill="#0054B0"/>
<path d="M57.8832 74.6313L56.1094 73.6043V71.5737L57.8832 72.6007V74.6313Z" fill="#0054B0"/>
<path d="M61.2191 76.5452L59.4453 75.5416V73.511L61.2191 74.5146V76.5452Z" fill="#0ACEFF"/>
<path d="M64.5356 78.4823L62.7617 77.4554V75.4248L64.5356 76.4518V78.4823Z" fill="#0ACEFF"/>
<path d="M67.8715 80.3962L66.0977 79.3692V77.3386L67.8715 78.3656V80.3962Z" fill="#0054B0"/>
<path d="M71.1879 82.31L69.4141 81.3064V79.2524L71.1879 80.2794V82.31Z" fill="#0054B0"/>
<path d="M74.5238 84.2475L72.75 83.2205V81.1899L74.5238 82.2169V84.2475Z" fill="#0ACEFF"/>
<path d="M77.8403 86.161L76.0664 85.1341V83.1035L77.8403 84.1305V86.161Z" fill="#0054B0"/>
<path d="M81.1762 88.0754L79.4023 87.0484V85.0178L81.1762 86.0448V88.0754Z" fill="#0054B0"/>
<path d="M84.4887 89.9888L82.7148 88.9852V86.9546L84.4887 87.9582V89.9888Z" fill="#0054B0"/>
<path d="M87.8285 91.9262L86.0547 90.8992V88.8687L87.8285 89.8956V91.9262Z" fill="#0ACEFF"/>
<path d="M91.141 93.84L89.3672 92.813V90.7825L91.141 91.8094V93.84Z" fill="#0054B0"/>
<path d="M94.4809 95.7538L92.707 94.7269V92.6963L94.4809 93.7232V95.7538Z" fill="#0ACEFF"/>
<path d="M57.8832 100.725L56.1094 99.6976V97.667L57.8832 98.6939V100.725Z" fill="#0ACEFF"/>
<path d="M61.2191 102.638L59.4453 101.611V99.5808L61.2191 100.608V102.638Z" fill="#0054B0"/>
<path d="M64.5356 104.552L62.7617 103.549V101.518L64.5356 102.522V104.552Z" fill="#0054B0"/>
<path d="M67.8715 106.489L66.0977 105.462V103.432L67.8715 104.459V106.489Z" fill="#0ACEFF"/>
<path d="M71.1879 108.403L69.4141 107.376V105.346L71.1879 106.373V108.403Z" fill="#0ACEFF"/>
<path d="M74.5238 110.317L72.75 109.314V107.26L74.5238 108.287V110.317Z" fill="#0054B0"/>
<path d="M77.8403 112.254L76.0664 111.227V109.197L77.8403 110.224V112.254Z" fill="#0ACEFF"/>
<path d="M81.1762 114.169L79.4023 113.142V111.111L81.1762 112.138V114.169Z" fill="#0054B0"/>
<path d="M84.4887 116.082L82.7148 115.055V113.025L84.4887 114.052V116.082Z" fill="#0ACEFF"/>
<path d="M87.8285 117.996L86.0547 116.992V114.962L87.8285 115.966V117.996Z" fill="#0054B0"/>
<path d="M91.141 119.933L89.3672 118.906V116.876L91.141 117.903V119.933Z" fill="#0054B0"/>
<path d="M94.4809 121.847L92.707 120.82V118.79L94.4809 119.817V121.847Z" fill="#0054B0"/>
<path d="M57.8832 97.1068L56.1094 96.0799V94.0493L57.8832 95.0763V97.1068Z" fill="#0054B0"/>
<path d="M61.2191 99.0205L59.4453 98.0169V95.9863L61.2191 96.9899V99.0205Z" fill="#0ACEFF"/>
<path d="M64.5356 100.958L62.7617 99.931V97.9004L64.5356 98.9273V100.958Z" fill="#0ACEFF"/>
<path d="M67.8715 102.872L66.0977 101.845V99.8142L67.8715 100.841V102.872Z" fill="#0054B0"/>
<path d="M71.1879 104.786L69.4141 103.782V101.728L71.1879 102.755V104.786Z" fill="#0054B0"/>
<path d="M74.5238 106.723L72.75 105.696V103.666L74.5238 104.692V106.723Z" fill="#0ACEFF"/>
<path d="M77.8403 108.637L76.0664 107.61V105.579L77.8403 106.606V108.637Z" fill="#0054B0"/>
<path d="M81.1762 110.551L79.4023 109.524V107.493L81.1762 108.52V110.551Z" fill="#0054B0"/>
<path d="M84.4887 112.464L82.7148 111.461V109.43L84.4887 110.434V112.464Z" fill="#0054B0"/>
<path d="M87.8285 114.402L86.0547 113.375V111.344L87.8285 112.371V114.402Z" fill="#0ACEFF"/>
<path d="M91.141 116.316L89.3672 115.289V113.258L91.141 114.285V116.316Z" fill="#0054B0"/>
<path d="M94.4809 118.229L92.707 117.202V115.172L94.4809 116.199V118.229Z" fill="#0ACEFF"/>
<path d="M134.507 30.0618L100.687 49.6674L49.2227 19.6522L83.1123 0L134.507 30.0618Z" fill="url(#paint4_linear_2705_69292)"/>
<path d="M123.236 26.4676V28.1947L97.3987 43.1089L59.1445 21.006V19.2789L84.9585 6.0918L123.236 26.4676Z" fill="#027DFF"/>
<path d="M102.44 33.2362L102.254 33.1195C102.254 33.0728 102.23 33.0262 102.183 33.0028H102.16V32.8628C102.23 32.8861 102.3 32.9095 102.347 32.9328C102.51 33.0028 102.534 33.1195 102.44 33.2362Z" fill="#0ACEFF"/>
<path d="M101.646 32.9099C101.693 32.8865 101.763 32.8632 101.833 32.8398V33.0032H101.809C101.693 33.0732 101.693 33.1666 101.809 33.2133C101.879 33.26 101.949 33.26 102.019 33.26L102.206 33.3767C102.019 33.4233 101.786 33.4 101.646 33.33C101.436 33.1899 101.436 33.0266 101.646 32.9099Z" fill="#0ACEFF"/>
<path d="M78.9615 21.9869C79.1482 21.8702 79.475 21.8702 79.6617 21.9869C79.8251 22.0803 79.8484 22.197 79.755 22.3137L79.5683 22.197C79.5683 22.1503 79.545 22.1036 79.4983 22.057C79.3816 21.9869 79.2182 21.9869 79.1249 22.057C79.0082 22.127 79.0082 22.2203 79.1249 22.267C79.1949 22.2904 79.2649 22.3137 79.3583 22.3137L79.545 22.4304C79.3583 22.4771 79.1248 22.4537 78.9848 22.3837C78.7747 22.2904 78.7748 22.1036 78.9615 21.9869Z" fill="#0ACEFF"/>
<path d="M102.02 28.3351C102.207 28.2184 102.533 28.2184 102.72 28.3351C102.907 28.4518 102.907 28.6385 102.72 28.7319C102.533 28.8486 102.207 28.8486 102.02 28.7319C101.833 28.6152 101.81 28.4284 102.02 28.3351Z" fill="#0ACEFF"/>
<path d="M91.6566 35.9438H92.6602C92.6835 36.0371 92.7769 36.1305 92.8936 36.2005C93.2203 36.3872 93.7571 36.3872 94.0839 36.2005C94.4107 36.0138 94.4107 35.7104 94.0839 35.5236C93.7571 35.3369 93.2203 35.3369 92.8936 35.5236C92.7769 35.5937 92.7069 35.687 92.6602 35.757H91.9833L93.5471 34.8701H97.1881L101.903 37.6009H103.98L102.23 38.6045L99.1954 36.854H97.1648L93.3837 39.0246H93.3137L88.9258 36.4806H90.723L91.6566 35.9438Z" fill="#0ACEFF"/>
<path d="M103.443 29.152C103.629 29.0353 103.956 29.0353 104.143 29.152C104.33 29.2687 104.33 29.4554 104.143 29.5721C103.956 29.6888 103.629 29.6888 103.443 29.5721C103.233 29.4321 103.233 29.2453 103.443 29.152Z" fill="#0ACEFF"/>
<path d="M104.843 29.9689C105.03 29.8522 105.357 29.8522 105.543 29.9689C105.73 30.0856 105.73 30.2723 105.543 30.389C105.357 30.5057 105.03 30.5057 104.843 30.389C104.656 30.249 104.656 30.0622 104.843 29.9689Z" fill="#0ACEFF"/>
<path d="M76.1127 20.3527C76.2994 20.236 76.6262 20.236 76.8129 20.3527C76.8596 20.376 76.9063 20.4227 76.9296 20.4694H76.4628V20.6561H76.9296C76.9063 20.7028 76.8596 20.7261 76.8129 20.7494C76.6262 20.8661 76.2994 20.8661 76.1127 20.7494C75.926 20.6561 75.926 20.4694 76.1127 20.3527Z" fill="#0ACEFF"/>
<path d="M60.1953 18.6726L62.5293 20.0263L61.4557 20.6331L64.0464 22.1269L67.0106 20.4231L68.2009 21.0999L65.2367 22.8037L65.9369 23.2239L74.2926 18.3925C74.2926 18.3458 74.316 18.2991 74.3627 18.2525C74.4794 18.1824 74.6427 18.1824 74.7361 18.2525C74.8528 18.3225 74.8528 18.4158 74.7361 18.4625C74.6661 18.5092 74.5961 18.5092 74.5027 18.5092L72.7989 19.4895V20.073C72.9623 20.0963 73.1023 20.143 73.219 20.213C73.5458 20.3997 73.5458 20.7031 73.219 20.8899C72.8923 21.0766 72.3554 21.0766 72.0287 20.8899C71.7019 20.7031 71.7019 20.3997 72.0287 20.213C72.1454 20.143 72.3087 20.0963 72.4488 20.073V19.6762L69.9514 21.1233V21.7068C70.1148 21.7301 70.2548 21.7768 70.3715 21.8468C70.6983 22.0335 70.6983 22.3369 70.3715 22.5237C70.0448 22.7104 69.5079 22.7104 69.1812 22.5237C68.8544 22.3369 68.8544 22.0335 69.1812 21.8468C69.2979 21.7768 69.4613 21.7301 69.6013 21.7068V21.31L68.0375 22.2202V24.3208L71.7252 26.4448H77.3968L90.6306 34.0769H92.3811L96.9557 31.4395C96.7457 31.2528 96.769 30.9961 97.0491 30.8327C97.3758 30.646 97.9127 30.646 98.2394 30.8327C98.5662 31.0194 98.5662 31.3228 98.2394 31.5095C97.9593 31.6729 97.5159 31.6963 97.1891 31.5796L92.5211 34.287H90.4906L77.2568 26.6548H71.8186L74.316 28.1019H76.4633L85.0757 33.0733V34.1703L88.7634 36.2942H90.5139L97.1424 32.4665L100.107 33.0266L105.942 36.3876L107.599 35.4306L106.548 34.8238H104.938C104.938 34.8238 104.938 34.8238 104.915 34.8238C104.798 34.8938 104.635 34.8938 104.541 34.8238C104.471 34.7771 104.448 34.7304 104.471 34.7071L102.371 33.4934C102.044 33.6101 101.6 33.5868 101.32 33.4234C100.994 33.2367 100.994 32.9333 101.32 32.7466C101.437 32.6765 101.6 32.6299 101.74 32.6065V32.023L96.3956 28.9421V29.689C96.5356 29.7124 96.6756 29.759 96.7923 29.8057C97.1191 29.9924 97.1191 30.2959 96.7923 30.4826C96.4656 30.6693 95.9288 30.6693 95.602 30.4826C95.2752 30.2959 95.2752 29.9924 95.602 29.8057C95.742 29.7357 95.8821 29.689 96.0688 29.6657V28.7321L93.5714 27.285V28.0552C93.7115 28.0786 93.8515 28.1252 93.9682 28.1719C94.295 28.3586 94.295 28.6621 93.9682 28.8488C93.6414 29.0355 93.1046 29.0355 92.7779 28.8488C92.4511 28.6621 92.4511 28.3586 92.7779 28.1719C92.8946 28.1019 93.0579 28.0552 93.2213 28.0319V27.0749L92.3811 26.5848H90.724V28.1719C90.864 28.1953 91.004 28.2419 91.0974 28.2886C91.4242 28.4753 91.4242 28.7788 91.0974 28.9655C90.7706 29.1522 90.2338 29.1522 89.9071 28.9655C89.5803 28.7788 89.5803 28.4753 89.9071 28.2886C90.0471 28.2186 90.2105 28.1719 90.3739 28.1486V26.5615H88.5767L79.9642 21.5901V20.5631H77.1635C77.1401 20.6565 77.0468 20.7265 76.93 20.7965C76.6033 20.9832 76.0665 20.9832 75.7397 20.7965C75.413 20.6098 75.413 20.3064 75.7397 20.1196C76.0665 19.9329 76.6033 19.9329 76.93 20.1196C77.0468 20.1897 77.1168 20.283 77.1635 20.3764H79.9642V19.4194L75.3429 16.7354H69.6713L67.8508 15.6851L64.0698 17.8557L63.1362 17.3189L62.436 17.739L65.2601 19.3728L64.0698 20.0496L60.7788 18.1591L60.1953 18.6726ZM78.7272 21.8468C79.054 21.6601 79.5908 21.6601 79.9176 21.8468C80.1976 22.0102 80.2443 22.2669 80.0343 22.4536L86.126 25.9546V27.1216L83.3719 28.7087L90.7006 32.9566C91.0274 32.8399 91.4708 32.8633 91.7509 33.0266C92.0777 33.2134 92.0777 33.5168 91.7509 33.7035C91.4242 33.8902 90.8873 33.8902 90.5606 33.7035C90.2805 33.5401 90.2338 33.2834 90.4439 33.0967L82.8817 28.7321L85.7759 27.0516V26.048L79.7775 22.5937C79.4508 22.7104 79.0073 22.687 78.7272 22.5237C78.4005 22.3603 78.4005 22.0335 78.7272 21.8468Z" fill="#0ACEFF"/>
<path d="M100.597 27.4948C100.784 27.3781 101.111 27.3781 101.297 27.4948C101.484 27.6115 101.484 27.7982 101.297 27.9149C101.111 28.0316 100.784 28.0316 100.597 27.9149C100.41 27.7982 100.41 27.6115 100.597 27.4948Z" fill="#0ACEFF"/>
<path d="M93.2918 35.7336L93.0117 35.757C93.0351 35.7103 93.0817 35.6869 93.1284 35.6403C93.3151 35.5236 93.6419 35.5236 93.8286 35.6403C94.0153 35.757 94.0153 35.9437 93.8286 36.0604C93.6419 36.1771 93.3151 36.1771 93.1284 36.0604C93.0817 36.037 93.0351 35.9904 93.0117 35.9437H93.2685C93.2685 35.9437 93.2685 35.9437 93.2918 35.967C93.4085 36.037 93.5719 36.037 93.6652 35.967C93.7819 35.897 93.7819 35.8036 93.6652 35.757C93.5719 35.6636 93.4085 35.6636 93.2918 35.7336Z" fill="#0ACEFF"/>
<path d="M90.2572 28.5217C90.3272 28.475 90.3973 28.4517 90.4906 28.4517V28.5917C90.4673 28.5917 90.4439 28.615 90.4206 28.615C90.3039 28.6851 90.3039 28.7784 90.4206 28.8251C90.514 28.8951 90.7007 28.8951 90.794 28.8251C90.8874 28.7784 90.8874 28.6851 90.8174 28.615V28.4517C90.8641 28.475 90.9107 28.475 90.9574 28.4983C91.1441 28.615 91.1441 28.8018 90.9574 28.8951C90.7707 29.0118 90.4439 29.0118 90.2572 28.8951C90.0705 28.8018 90.0705 28.6384 90.2572 28.5217Z" fill="#0ACEFF"/>
<path d="M93.1263 28.3585C93.313 28.2418 93.6398 28.2418 93.8265 28.3585C94.0132 28.4752 94.0132 28.6619 93.8265 28.7786C93.6398 28.8953 93.313 28.8953 93.1263 28.7786C92.9162 28.6619 92.9162 28.4752 93.1263 28.3585Z" fill="#0ACEFF"/>
<path d="M95.9291 29.9923C96.1158 29.8756 96.4426 29.8756 96.6293 29.9923C96.816 30.109 96.816 30.2957 96.6293 30.4124C96.4426 30.5291 96.1158 30.5291 95.9291 30.4124C95.7424 30.2957 95.7424 30.109 95.9291 29.9923Z" fill="#0ACEFF"/>
<path d="M90.7689 33.1666C90.9557 33.0499 91.2824 33.0499 91.4691 33.1666C91.6559 33.2833 91.6559 33.47 91.4691 33.5867C91.2824 33.7034 90.9557 33.7034 90.7689 33.5867C90.5822 33.47 90.5822 33.2833 90.7689 33.1666Z" fill="#0ACEFF"/>
<path d="M86.4055 15.5216C86.4055 15.5683 86.4288 15.615 86.4755 15.6383C86.5455 15.685 86.6155 15.685 86.7089 15.685L86.7556 15.7084L86.989 15.5683L86.9423 15.545C86.9423 15.4983 86.919 15.4516 86.8723 15.4049C86.8023 15.3583 86.7322 15.3583 86.6622 15.3583L86.4755 15.2416C86.6622 15.1949 86.8956 15.2182 87.0357 15.2882C87.2224 15.4049 87.2224 15.5917 87.0357 15.7084C86.8489 15.8251 86.5222 15.8251 86.3355 15.7084C86.1721 15.615 86.1487 15.4983 86.2421 15.3816L86.4055 15.5216Z" fill="#0ACEFF"/>
<path d="M79.1496 7.72589V7.88927H79.1263C79.0096 7.95929 79.0096 8.05265 79.1263 8.12267C79.2196 8.19269 79.4064 8.19269 79.4997 8.12267C79.6164 8.05265 79.6164 7.95929 79.4997 7.91261H79.4764V7.56251L81.0402 6.67559V12.4639L85.9882 15.3114C85.7782 15.4981 85.8015 15.7548 86.0816 15.9182C86.4083 16.1049 86.9452 16.1049 87.2719 15.9182C87.5987 15.7315 87.5987 15.4281 87.2719 15.2414C86.9918 15.078 86.5484 15.0546 86.2216 15.1713L81.3669 12.3705V6.48888L84.9613 4.41162L85.7782 4.87842L83.9343 5.22852L81.9738 6.37218V11.9037L93.317 18.4389V20.6329L103.797 26.6779L106.621 27.2147L114.3 31.6493L112.642 32.6063C112.642 32.5596 112.619 32.5129 112.572 32.4896C112.502 32.4662 112.432 32.4429 112.339 32.4429L108.651 30.319H107.741L106.807 29.2453L88.8124 18.859H87.0152V18.1822C87.1085 18.1588 87.1786 18.1355 87.2486 18.0888C87.5753 17.9021 87.5753 17.5987 87.2486 17.412C86.9685 17.2486 86.525 17.2253 86.1983 17.3419L79.453 13.4442V9.24299H79.4764C79.5697 9.17297 79.5931 9.07961 79.4764 9.03293C79.3597 8.96291 79.1963 8.96291 79.1029 9.03293C78.9862 9.10295 78.9862 9.19631 79.1029 9.24299H79.1263V13.2575L77.5625 12.3472V8.63615L79.1496 7.72589Z" fill="#0ACEFF"/>
<path d="M87.0367 17.5055C87.2234 17.6222 87.2234 17.8089 87.0367 17.9023V17.7623L86.99 17.7389L86.9434 17.7156C86.9434 17.6689 86.92 17.6222 86.8733 17.5989C86.8033 17.5522 86.7333 17.5522 86.6633 17.5522L86.4766 17.4355C86.6633 17.4122 86.8733 17.4355 87.0367 17.5055Z" fill="#0ACEFF"/>
<path d="M84.1411 5.36855L86.0783 4.99512L87.6654 5.90538V6.32549L83.8844 8.51945V11.8804L97.1181 19.5126V21.7065L102.253 24.6707C102.043 24.8574 102.066 25.1141 102.37 25.2775C102.696 25.4642 103.233 25.4642 103.56 25.2775C103.887 25.0908 103.887 24.7874 103.56 24.6007C103.28 24.4373 102.836 24.4139 102.51 24.5306L97.4449 21.6132V19.4425L84.2111 11.787V8.58947L87.9922 6.41885V6.11543L91.4465 8.09933V8.51945L87.6654 10.7134V12.9774L101.063 20.7029L101.996 20.1661L102.253 20.3061C102.043 20.4928 102.066 20.7496 102.37 20.913C102.696 21.0997 103.233 21.0997 103.56 20.913C103.887 20.7262 103.887 20.4228 103.56 20.2361C103.28 20.0727 102.836 20.0494 102.51 20.1661L102.253 20.026L103.91 19.0691L105.1 19.7693C104.89 19.956 104.914 20.2128 105.217 20.3761C105.544 20.5629 106.081 20.5629 106.407 20.3761C106.734 20.1894 106.734 19.886 106.407 19.6993C106.127 19.5359 105.684 19.5126 105.357 19.6293L104.167 18.9291L105.357 18.2289C105.684 18.3456 106.127 18.3222 106.407 18.1588C106.734 17.9721 106.734 17.6687 106.407 17.482C106.081 17.2953 105.544 17.2953 105.217 17.482C104.937 17.6454 104.89 17.9021 105.1 18.0888L101.063 20.4228L87.9922 12.884V10.7834L90.653 9.24299L91.8433 9.91984C91.6332 10.1066 91.6566 10.3633 91.96 10.5267C92.2868 10.7134 92.8236 10.7134 93.1503 10.5267C93.4771 10.34 93.4771 10.0365 93.1503 9.84982C92.8703 9.68645 92.4268 9.6631 92.1 9.7798L90.9097 9.0796L91.7966 8.56613V8.2627L97.4916 11.5536L97.2582 11.6937L94.4107 11.1569L91.3765 12.9074L93.5004 14.1444L94.434 13.6076L95.1342 14.0277L93.2437 15.1247L94.434 15.8015L97.2582 14.1677L97.9584 14.5645L96.0678 15.6615L97.2582 16.3383L98.2151 15.8015L98.9153 16.1983L97.0248 17.2953L99.0787 18.4856H103L106.197 16.6417L110.679 19.2325L110.399 19.3959L107.574 19.9327L102.813 22.6868L103.046 22.8268L107.738 20.1194L110.562 19.5826L110.912 19.3959L111.612 19.816L105.264 23.4803C104.937 23.3636 104.494 23.387 104.213 23.5504C103.887 23.7371 103.887 24.0405 104.213 24.2272C104.494 24.3906 104.937 24.4139 105.264 24.2972L111.355 27.8216H114.997C114.997 27.8216 114.997 27.8216 115.02 27.8449C115.137 27.9149 115.3 27.9149 115.393 27.8449C115.51 27.7749 115.51 27.6815 115.393 27.6349C115.277 27.5648 115.113 27.5648 115.02 27.6349C115.02 27.6349 115.02 27.6349 114.997 27.6582H111.496L105.497 24.2039C105.684 24.0405 105.684 23.8304 105.497 23.6671L106.687 22.9902L107.364 23.387C107.364 23.4337 107.388 23.4803 107.434 23.5037C107.528 23.5737 107.714 23.5737 107.831 23.5037C107.948 23.4337 107.925 23.3403 107.831 23.2936C107.761 23.247 107.691 23.2469 107.621 23.2469L106.944 22.8502L108.601 21.8932L109.278 22.29C109.278 22.3367 109.302 22.3834 109.348 22.4067C109.442 22.4767 109.628 22.4767 109.745 22.4067C109.862 22.3367 109.838 22.2433 109.745 22.1733C109.675 22.1266 109.605 22.1266 109.535 22.1266L108.858 21.7299L110.515 20.7729L111.192 21.1697C111.169 21.2164 111.192 21.2631 111.262 21.2864C111.355 21.3564 111.542 21.3564 111.636 21.2864C111.752 21.2164 111.729 21.123 111.636 21.053C111.566 21.0297 111.496 21.0063 111.426 21.0063L110.749 20.6095L111.892 19.956L115.067 21.7999C114.903 21.8232 114.763 21.8465 114.646 21.9166C114.32 22.1033 114.32 22.4067 114.646 22.5934C114.973 22.7802 115.51 22.7802 115.837 22.5934C115.953 22.5234 116.023 22.4534 116.047 22.36L117.331 23.0836L116.117 23.7838H113.223C113.199 23.6904 113.106 23.6204 112.989 23.5504C112.663 23.3636 112.126 23.3636 111.799 23.5504C111.472 23.7371 111.472 24.0405 111.799 24.2272C112.126 24.4139 112.663 24.4139 112.989 24.2272C113.106 24.1572 113.176 24.0638 113.223 23.9705H115.79L111.239 26.6079L112.359 27.2381H117.284C117.307 27.3314 117.401 27.4248 117.517 27.4715C117.844 27.6582 118.381 27.6582 118.708 27.4715C119.034 27.2848 119.034 26.9813 118.708 26.7946C118.381 26.6079 117.844 26.6079 117.517 26.7946C117.401 26.8646 117.33 26.958 117.284 27.028H112.499L111.729 26.5846L117.587 23.2003L118.287 23.6204L112.966 26.7013H115.043L115.067 26.7246C115.183 26.7946 115.347 26.7946 115.44 26.7246C115.557 26.6546 115.557 26.5612 115.44 26.4912C115.323 26.4212 115.16 26.4212 115.067 26.4912H113.783L117.004 24.6473V25.3942H116.98C116.864 25.4642 116.864 25.5576 116.98 25.6276C117.097 25.6976 117.26 25.6976 117.354 25.6276C117.471 25.5576 117.471 25.4642 117.354 25.3942H117.331V24.4606L118.544 23.7604L123.306 26.5145L115.743 30.8791H113.479L110.025 28.8952H112.592C112.616 28.9886 112.709 29.0819 112.826 29.1519C113.153 29.3387 113.689 29.3387 114.016 29.1519C114.343 28.9652 114.343 28.6618 114.016 28.4751C113.689 28.2884 113.153 28.2884 112.826 28.4751C112.709 28.5451 112.639 28.6385 112.592 28.7085H109.698L106.874 27.0747L104.05 26.5379L93.7338 20.5862V18.3456L82.3906 11.787V6.41885L84.1411 5.36855Z" fill="#0ACEFF"/>
<path d="M86.4054 17.6919C86.4054 17.7386 86.4287 17.7853 86.4754 17.8086C86.5454 17.8553 86.6154 17.8553 86.6855 17.8553V17.9953C86.5454 17.9953 86.4054 17.972 86.312 17.902C86.1487 17.8086 86.1253 17.6919 86.2187 17.5752L86.4054 17.6919Z" fill="#0ACEFF"/>
<path d="M69.0859 13.538V13.9114H74.6642L84.2102 19.4197V20.5166L103.956 31.9299H105.846L109.814 34.2172L111.471 33.2602L108.484 31.5331L107.55 30.4595H106.64L106.033 30.1094C106.056 30.2494 105.986 30.3894 105.8 30.4828C105.473 30.6695 104.936 30.6695 104.609 30.4828C104.283 30.2961 104.283 29.9927 104.609 29.8059C104.796 29.7126 105.029 29.6659 105.263 29.6659L104.609 29.2925C104.633 29.4325 104.563 29.5725 104.376 29.6659C104.049 29.8526 103.512 29.8526 103.186 29.6659C102.859 29.4792 102.859 29.1758 103.186 28.989C103.372 28.8957 103.606 28.849 103.839 28.849L103.186 28.4756C103.209 28.6156 103.139 28.7556 102.952 28.8723C102.625 29.0591 102.089 29.0591 101.762 28.8723C101.435 28.6856 101.435 28.3822 101.762 28.1955C101.949 28.1021 102.182 28.0554 102.415 28.0554L101.762 27.682C101.785 27.822 101.715 27.9621 101.528 28.0554C101.202 28.2422 100.665 28.2422 100.338 28.0554C100.011 27.8687 100.011 27.5653 100.338 27.3786C100.525 27.2619 100.758 27.2385 100.992 27.2385L100.338 26.8651C100.361 27.0051 100.291 27.1452 100.105 27.2385C99.7779 27.4253 99.2411 27.4253 98.9144 27.2385C98.5876 27.0518 98.5876 26.7484 98.9144 26.5617C99.1011 26.4683 99.3345 26.4216 99.5679 26.4216L98.9144 26.0482C98.9377 26.1882 98.8677 26.3283 98.681 26.4216C98.3542 26.6084 97.8174 26.6084 97.4906 26.4216C97.1639 26.2349 97.1639 25.9315 97.4906 25.7448C97.6774 25.6514 97.9108 25.6047 98.1442 25.6047L91.819 21.9404C91.8424 22.0804 91.7724 22.2205 91.5856 22.3138C91.2589 22.5005 90.7221 22.5005 90.3953 22.3138C90.0685 22.1271 90.0685 21.8237 90.3953 21.637C90.582 21.5436 90.8154 21.4969 91.0488 21.4969L90.3953 21.1235C90.4186 21.2635 90.3486 21.4036 90.1619 21.4969C89.8351 21.6836 89.2983 21.6836 88.9716 21.4969C88.6448 21.3102 88.6448 21.0068 88.9716 20.8201C89.1583 20.7034 89.3917 20.68 89.6251 20.68L88.9716 20.3066C88.9949 20.4466 88.9249 20.5867 88.7382 20.68C88.4114 20.8667 87.8746 20.8667 87.5478 20.68C87.2211 20.4933 87.2211 20.1899 87.5478 20.0032C87.7345 19.9098 87.9679 19.8631 88.2013 19.8631L86.7309 19.0229L86.6376 18.9762L77.1849 13.5147V12.4877H71.5133V12.1143L69.0859 13.538ZM96.4637 25.1146C96.5804 25.0446 96.7438 25.0446 96.8605 25.1146C96.9772 25.1846 96.9772 25.278 96.8605 25.348C96.7438 25.418 96.5804 25.418 96.487 25.348C96.347 25.278 96.3703 25.1846 96.4637 25.1146ZM95.5534 24.6011C95.6701 24.5311 95.8335 24.5311 95.9502 24.6011C96.0669 24.6711 96.0436 24.7645 95.9502 24.8112C95.8568 24.8812 95.6701 24.8812 95.5768 24.8112C95.4601 24.7645 95.4601 24.6478 95.5534 24.6011ZM94.6198 24.041C94.7365 23.9709 94.8999 23.9709 95.0166 24.041C95.1333 24.111 95.11 24.2043 95.0166 24.2744C94.9232 24.3444 94.7365 24.3444 94.6432 24.2744C94.5031 24.2043 94.5031 24.111 94.6198 24.041ZM93.6629 23.5042C93.7796 23.4341 93.943 23.4341 94.0363 23.5042C94.153 23.5742 94.153 23.6675 94.0363 23.7376C93.943 23.8076 93.7563 23.8076 93.6629 23.7376C93.5695 23.6675 93.5695 23.5742 93.6629 23.5042ZM92.7293 22.9673C92.846 22.8973 93.0094 22.8973 93.1261 22.9673C93.2428 23.0373 93.2428 23.1307 93.1261 23.1774C93.0327 23.2474 92.846 23.2474 92.7526 23.1774C92.6126 23.1307 92.6126 23.014 92.7293 22.9673Z" fill="#0ACEFF"/>
<path d="M99.1713 26.6779C99.358 26.5612 99.6848 26.5612 99.8715 26.6779C100.058 26.7946 100.058 26.9813 99.8715 27.098C99.6848 27.2147 99.358 27.2147 99.1713 27.098C98.9846 26.9813 98.9846 26.7946 99.1713 26.6779Z" fill="#0ACEFF"/>
<path d="M68.7614 14.098H74.5264L83.8857 19.4896V20.5866L103.818 32.1165H105.709L109.583 34.3571L107.926 35.3141L106.782 34.6605H105.032L105.008 34.6372C104.938 34.6138 104.868 34.5905 104.798 34.5905L102.698 33.3768C102.908 33.1901 102.884 32.9334 102.581 32.77C102.464 32.7 102.324 32.6533 102.161 32.63V31.9764L92.6149 26.4682H88.8338L80.4314 21.6135V19.4196L75.6 16.6421H69.9284L66.8242 14.8449L68.7614 13.7246V14.098Z" fill="#0ACEFF"/>
<path d="M90.6752 21.7765C90.8619 21.6598 91.1887 21.6598 91.3754 21.7765C91.5621 21.8932 91.5621 22.0799 91.3754 22.1733C91.1887 22.29 90.8619 22.29 90.6752 22.1733C90.4885 22.0799 90.4885 21.8932 90.6752 21.7765Z" fill="#0ACEFF"/>
<path d="M97.7747 25.8615C97.9615 25.7448 98.2882 25.7448 98.4749 25.8615C98.6616 25.9782 98.6616 26.1649 98.4749 26.2816C98.2882 26.3983 97.9615 26.3983 97.7747 26.2816C97.5647 26.1649 97.5647 25.9782 97.7747 25.8615Z" fill="#0ACEFF"/>
<path d="M89.2533 20.9596C89.44 20.8429 89.7668 20.8429 89.9535 20.9596C90.1402 21.0763 90.1402 21.263 89.9535 21.3797C89.7668 21.4964 89.44 21.4964 89.2533 21.3797C89.0666 21.263 89.0666 21.0763 89.2533 20.9596Z" fill="#0ACEFF"/>
<path d="M87.8529 20.1427C88.0396 20.026 88.3663 20.026 88.5531 20.1427C88.7398 20.2594 88.7398 20.4461 88.5531 20.5628C88.3663 20.6795 88.0396 20.6795 87.8529 20.5628C87.6428 20.4461 87.6428 20.2594 87.8529 20.1427Z" fill="#0ACEFF"/>
<path d="M85.9844 17.4587C85.7743 17.6454 85.7977 17.9022 86.0778 18.0655C86.2412 18.1589 86.4746 18.2056 86.708 18.2056V18.6957L77.582 13.4209V12.604L79.1458 13.5143L85.9844 17.4587Z" fill="#0ACEFF"/>
<path d="M106.595 29.3392L107.389 30.2728H106.782L87.2695 19.0229H88.6933L106.595 29.3392Z" fill="#0ACEFF"/>
<path d="M101.086 39.2582L100.362 39.6783L98.2152 38.418L95.251 40.1451L94.5508 39.725L98.2152 37.6011L101.086 39.2582Z" fill="#0ACEFF"/>
<path d="M92.4282 10.27L92.6616 10.1299L92.3349 9.94323C92.5216 9.89655 92.755 9.91989 92.895 9.98991C93.0818 10.1066 93.0818 10.2933 92.895 10.41C92.7083 10.5267 92.3816 10.5267 92.1948 10.41C92.0315 10.3167 92.0081 10.2 92.1015 10.0833L92.4282 10.27Z" fill="#0ACEFF"/>
<path d="M102.811 20.6333L103.044 20.4932L102.718 20.3065C102.904 20.2598 103.138 20.2832 103.278 20.3532C103.465 20.4699 103.465 20.6566 103.278 20.7733C103.091 20.89 102.764 20.89 102.578 20.7733C102.414 20.68 102.391 20.5633 102.484 20.4466L102.811 20.6333Z" fill="#0ACEFF"/>
<path d="M105.522 20.0027C105.522 20.0494 105.522 20.0961 105.592 20.1427C105.709 20.2128 105.873 20.2128 105.966 20.1427C106.083 20.0727 106.083 19.9794 105.966 19.9093C105.896 19.8627 105.826 19.8627 105.733 19.8627L105.546 19.746C105.733 19.6993 105.966 19.7226 106.106 19.7926C106.293 19.9093 106.293 20.0961 106.106 20.2128C105.919 20.3295 105.592 20.3295 105.406 20.2128C105.242 20.1194 105.219 20.0027 105.312 19.886L105.522 20.0027Z" fill="#0ACEFF"/>
<path d="M106.127 17.6222C106.314 17.7389 106.314 17.9256 106.127 18.019C105.964 18.1123 105.754 18.1357 105.567 18.0657L105.754 17.949C105.824 17.949 105.917 17.949 105.964 17.9023C106.081 17.8323 106.081 17.7389 105.964 17.6922C105.847 17.6222 105.684 17.6222 105.59 17.6922C105.52 17.7389 105.52 17.7856 105.52 17.8323L105.334 17.949C105.24 17.8323 105.287 17.7156 105.427 17.6222C105.614 17.5055 105.941 17.5055 106.127 17.6222Z" fill="#0ACEFF"/>
<path d="M77.2589 12.2771H71.9141V11.9036L77.2589 8.82275V12.2771Z" fill="#0ACEFF"/>
<path d="M97.3053 11.9503L97.7021 11.7169L98.4023 12.137L98.1689 12.2537L94.7612 11.6002L99.8727 14.5644L98.9157 15.1012L102.93 17.4118L105.264 16.0815L105.964 16.5016L102.86 18.2754H99.2192L97.5154 17.2951L99.4059 16.1982L98.2156 15.5213L97.2586 16.0581L96.5584 15.638L98.449 14.5644L97.2586 13.8642L94.4345 15.5213L93.7343 15.1012L95.6248 14.0042L94.4345 13.3273L93.5009 13.8642L91.8438 12.9306L94.4812 11.3901L97.3053 11.9503Z" fill="#0ACEFF"/>
<path d="M98.2601 12.4874L98.6335 12.254L105.029 15.9417L102.928 17.1554L99.4037 15.1015L100.337 14.5647L95.9961 12.0439L98.2601 12.4874Z" fill="#0ACEFF"/>
<path d="M114.877 21.9865C115.017 21.9165 115.204 21.8931 115.391 21.9165L115.718 22.1032C115.764 22.1966 115.741 22.3132 115.601 22.4066C115.414 22.5233 115.087 22.5233 114.901 22.4066C114.667 22.2899 114.667 22.1032 114.877 21.9865Z" fill="#0ACEFF"/>
<path d="M102.671 24.9042C102.671 24.9509 102.694 24.9975 102.741 25.0442C102.858 25.1142 103.021 25.1142 103.114 25.0442C103.231 24.9742 103.231 24.8808 103.114 24.8341C103.044 24.8108 102.974 24.7875 102.904 24.7875L102.718 24.6708C102.904 24.6241 103.138 24.6474 103.278 24.7174C103.465 24.8341 103.465 25.0209 103.278 25.1376C103.091 25.2543 102.764 25.2543 102.578 25.1376C102.414 25.0442 102.391 24.9275 102.484 24.8108L102.671 24.9042Z" fill="#0ACEFF"/>
<path d="M104.472 23.6201C104.635 23.5267 104.846 23.5034 105.032 23.5734L104.846 23.6901C104.775 23.6901 104.682 23.6901 104.635 23.7368C104.519 23.8068 104.519 23.9002 104.635 23.9469C104.705 23.9702 104.775 23.9935 104.846 23.9935L105.032 24.1102C104.846 24.1569 104.612 24.1336 104.472 24.0636C104.285 23.9235 104.285 23.7368 104.472 23.6201Z" fill="#0ACEFF"/>
<path d="M112.032 23.6202C112.218 23.5035 112.545 23.5035 112.732 23.6202C112.779 23.6436 112.825 23.6903 112.849 23.7369H112.592C112.592 23.7369 112.592 23.7369 112.569 23.7136C112.452 23.6436 112.289 23.6436 112.195 23.7136C112.078 23.7836 112.078 23.877 112.195 23.9237C112.312 23.9937 112.475 23.9937 112.592 23.9237C112.592 23.9237 112.592 23.9237 112.615 23.9003H112.872C112.849 23.947 112.802 23.9703 112.755 24.017C112.569 24.1337 112.242 24.1337 112.055 24.017C111.845 23.9237 111.845 23.7369 112.032 23.6202Z" fill="#0ACEFF"/>
<path d="M105.288 23.9467L105.102 23.83C105.102 23.8066 105.102 23.8066 105.102 23.8066L105.288 23.6899C105.335 23.7833 105.358 23.8767 105.288 23.9467Z" fill="#0ACEFF"/>
<path d="M112.99 28.545C113.176 28.4283 113.503 28.4283 113.69 28.545C113.876 28.6617 113.876 28.8485 113.69 28.9652C113.503 29.0819 113.176 29.0819 112.99 28.9652C112.78 28.8251 112.78 28.6617 112.99 28.545Z" fill="#0ACEFF"/>
<path d="M117.706 26.9113C117.893 26.7946 118.22 26.7946 118.407 26.9113C118.593 27.028 118.593 27.2147 118.407 27.3314C118.22 27.4481 117.893 27.4481 117.706 27.3314C117.52 27.1913 117.52 27.0046 117.706 26.9113Z" fill="#0ACEFF"/>
<path d="M67.7342 15.6379L64.1865 17.6918L63.2529 17.155L62.0626 17.8318L64.9101 19.4656L64.1865 19.8858L61.1523 18.1119L66.5905 14.9844L67.7342 15.6379Z" fill="#0ACEFF"/>
<path d="M100.014 33.1898L105.802 36.5274L104.331 37.3676H102.067L97.3294 34.6602H93.8984L97.3061 32.6763L100.014 33.1898Z" fill="#0ACEFF"/>
<path d="M96.9096 40.005C97.0963 39.8883 97.423 39.8883 97.6098 40.005C97.7965 40.1217 97.7965 40.3084 97.6098 40.4251C97.423 40.5418 97.0963 40.5418 96.9096 40.4251C96.7229 40.2851 96.7229 40.1217 96.9096 40.005Z" fill="#0ACEFF"/>
<path d="M99.0786 37.0171L102.019 38.7209L101.319 39.1177L98.2151 37.3438L94.364 39.5611H94.2473L93.5938 39.1877L97.3281 37.0171H99.0786Z" fill="#0ACEFF"/>
<path d="M100.129 39.8183L98.4718 40.7752L97.9583 40.4718C98.1684 40.2851 98.145 40.0283 97.8416 39.865C97.5149 39.6782 96.978 39.6782 96.6513 39.865C96.3245 40.0517 96.3245 40.3551 96.6513 40.5418C96.9313 40.7052 97.3748 40.7285 97.7016 40.6118L98.215 40.9152L97.3748 41.4054L95.4609 40.3084L98.1917 38.7446L100.129 39.8183Z" fill="#0ACEFF"/>
<path d="M84.8211 33.1428V34.0997L74.7383 28.2881H76.4187L84.8211 33.1428Z" fill="#0ACEFF"/>
<path d="M114.551 31.4858L113.734 31.019H115.345L114.551 31.4858Z" fill="#0ACEFF"/>
<path d="M67.7357 21.0994L65.0049 22.6865L64.3047 22.2664L67.0355 20.7026L67.7357 21.0994Z" fill="#0ACEFF"/>
<path d="M62.062 20.0023L61.3618 20.4225L59.4713 19.3255L59.3546 19.3955L59.1445 19.2788L59.9614 18.812L62.062 20.0023Z" fill="#0ACEFF"/>
<path d="M69.5072 21.9865C69.5539 21.9632 69.6239 21.9398 69.6939 21.9165V22.1966H70.0207V21.9165C70.0907 21.9398 70.1607 21.9632 70.2074 21.9865C70.3941 22.1032 70.3941 22.2899 70.2074 22.4066C70.0207 22.5233 69.6939 22.5233 69.5072 22.4066C69.3205 22.2899 69.3205 22.1032 69.5072 21.9865Z" fill="#0ACEFF"/>
<path d="M97.3997 30.9957C97.5865 30.879 97.9132 30.879 98.0999 30.9957C98.2866 31.1124 98.2866 31.2991 98.0999 31.4158C97.9132 31.5325 97.5865 31.5325 97.3997 31.4158C97.1897 31.2991 97.1897 31.1124 97.3997 30.9957Z" fill="#0ACEFF"/>
<path d="M112.198 32.6763C112.244 32.6996 112.338 32.723 112.408 32.723L111.708 33.1431L110.914 32.6763H112.198Z" fill="#0ACEFF"/>
<path d="M67.8061 22.4302V24.2974L67.2226 23.9473C67.3393 23.8773 67.3393 23.7839 67.2226 23.7372C67.1059 23.6672 66.9425 23.6672 66.8491 23.7372L66.2656 23.4105V23.3404L67.8061 22.4302Z" fill="#0ACEFF"/>
<path d="M72.3314 20.3527C72.3781 20.3294 72.4482 20.3061 72.5182 20.2827V20.5628H72.8449V20.2827C72.9149 20.3061 72.985 20.3061 73.0316 20.3527C73.2184 20.4694 73.2184 20.6562 73.0316 20.7729C72.8449 20.8896 72.5182 20.8896 72.3314 20.7729C72.1447 20.6562 72.1447 20.4694 72.3314 20.3527Z" fill="#0ACEFF"/>
<path d="M111.987 32.4663H110.563L108.743 31.416L107.926 30.4824H108.533L111.987 32.4663Z" fill="#0ACEFF"/>
<path d="M2.03058 169.611L0 168.491V46.0959L2.03058 47.2163V169.611Z" fill="#0067CF"/>
<path d="M49.2239 19.6052L2.03058 47.2163L0 46.096L47.1934 18.4849L49.2239 19.6052Z" fill="#027EFF"/>
<path d="M49.2246 19.605L2.03125 47.2161V169.611L49.2246 142.28V19.605ZM46.7973 140.856L4.48194 165.363V48.6399L46.7973 24.1329V140.856Z" fill="#0ACFFF"/>
<path opacity="0.7" d="M46.7958 140.856L4.48047 165.363V48.6402L46.7958 24.1333V140.856Z" fill="url(#paint5_linear_2705_69292)"/>
<path d="M45.0453 25.1369L46.7958 24.1333V140.856L4.48047 165.363V163.123L45.0453 139.619V25.1369Z" fill="#0067CF"/>
<path d="M71.2835 85.9372C70.6767 87.1275 69.8365 88.1078 70.42 88.3179C71.0735 88.5746 72.7773 87.5943 72.964 87.781C73.8276 88.6446 70.7234 89.8583 69.393 89.8583C67.6658 89.8583 63.9081 100.921 63.9081 100.921L59.6836 99.1943C59.6836 99.1943 65.0985 90.5352 65.6586 88.1311C65.8687 87.1975 66.4755 85.8672 67.9926 84.8169C68.366 84.5601 70.3266 85.7505 70.7701 84.0233C71.1435 82.5296 71.7737 81.4559 72.0071 81.5259C72.4505 81.666 71.8904 84.7468 71.2835 85.9372Z" fill="#F5D5D5"/>
<path d="M42.6909 104.376C42.8076 107.62 46.0986 107.993 50.6499 107.48C54.501 107.06 59.7758 106.056 64.0937 102.158C65.7975 100.618 61.1295 96.9769 59.7991 97.327C58.4688 97.7005 55.5046 98.7741 50.8599 99.381C45.4217 100.081 42.5742 101.505 42.6909 104.376Z" fill="white"/>
<path d="M44.7874 183.242C44.2272 183.779 43.527 186.837 44.0172 187.373C44.3206 187.7 44.7174 187.887 45.1142 188.05C48.4751 189.334 53.6332 184.853 54.4968 184.106C55.2904 183.429 56.0839 181.912 55.6405 180.978C55.2904 180.208 45.5109 182.542 44.7874 183.242Z" fill="#4438B8"/>
<path d="M49.6667 180.558C48.4064 181.048 45.1388 182.869 44.5786 183.405C43.9718 183.989 43.5283 185.926 44.0184 186.486C44.3219 186.813 45.0687 187.093 45.4889 187.233C47.1227 187.77 51.6273 185.693 53.8679 183.732C54.6381 183.055 55.9685 181.445 55.525 180.511C55.1516 179.741 52.024 179.648 49.6667 180.558Z" fill="#1C0A76"/>
<path d="M48.5449 184.712C48.2882 184.712 48.0781 184.992 48.0781 185.319C48.0781 185.669 48.2882 185.926 48.5449 185.926C48.8017 185.926 49.0117 185.646 49.0117 185.319C49.0351 184.992 48.825 184.712 48.5449 184.712Z" fill="white"/>
<path d="M44.7436 183.615C44.7436 183.615 43.8566 184.456 44.1367 186.626C44.1367 186.626 44.5102 187.256 45.6071 187.326C45.6071 187.326 45.5371 185.132 46.0039 184.456L46.2373 184.012L45.3037 182.775L44.7436 183.615Z" fill="white"/>
<path d="M45.0923 181.935C44.9989 182.495 44.9056 183.078 44.7422 183.615C45.0223 183.452 45.3724 183.382 45.6524 183.568C45.9325 183.755 46.0959 184.129 45.9792 184.455C46.7728 184.595 47.683 184.362 48.4065 184.035C50.4838 183.148 50.8572 181.958 50.6472 181.538C50.0637 180.184 45.6758 182.028 45.0923 181.935Z" fill="#F5D5D5"/>
<path d="M43.1337 155.7C42.7836 156.47 42.1068 160.018 42.4802 164.149C42.8536 168.257 43.974 181.701 43.974 181.701C48.1051 183.288 50.2991 181.281 50.2991 181.281C50.2991 181.281 51.7695 162.399 51.9095 156.587C52.0496 150.752 44.0673 153.623 43.1337 155.7Z" fill="#3B31A1"/>
<path d="M51.6273 126.992C48.5697 124.332 45.5122 124.752 44.5086 125.522C40.4008 128.626 40.4474 136.025 40.6341 138.476C40.8209 140.716 42.3146 153.04 42.9448 156.587C43.8551 161.885 51.814 162.259 51.814 158.314C51.8373 154.463 57.1588 131.8 51.6273 126.992Z" fill="#3B31A1"/>
<path d="M53.8421 187.7C53.2819 188.237 52.5817 191.294 53.0719 191.831C53.3519 192.158 53.7721 192.345 54.1688 192.508C57.5298 193.792 62.6879 189.31 63.5515 188.563C64.3451 187.887 65.1386 186.37 64.6952 185.436C64.3684 184.666 54.589 186.976 53.8421 187.7Z" fill="#4438B8"/>
<path d="M58.7214 185.016C57.461 185.506 54.1935 187.326 53.6333 187.863C53.0265 188.447 52.583 190.384 53.0731 190.944C53.3532 191.271 54.1234 191.551 54.5436 191.691C56.1774 192.228 60.682 190.151 62.9226 188.19C63.6928 187.513 65.0232 185.903 64.5797 184.969C64.2296 184.199 61.1021 184.082 58.7214 185.016Z" fill="#1C0A76"/>
<path d="M57.623 189.17C57.3663 189.17 57.1562 189.45 57.1562 189.777C57.1562 190.104 57.3663 190.384 57.623 190.384C57.8798 190.384 58.0898 190.104 58.0898 189.777C58.0898 189.45 57.9031 189.17 57.623 189.17Z" fill="white"/>
<path d="M53.8217 188.073C53.8217 188.073 52.9348 188.913 53.2148 191.084C53.2148 191.084 53.5883 191.714 54.6619 191.784C54.6619 191.784 54.5919 189.59 55.0587 188.913L55.2921 188.47L54.3585 187.233L53.8217 188.073Z" fill="white"/>
<path d="M54.1743 186.393C54.081 186.953 53.9876 187.536 53.8242 188.073C54.1043 187.91 54.4544 187.84 54.7345 188.027C55.0146 188.213 55.1779 188.587 55.0612 188.914C55.8548 189.054 56.7651 188.82 57.4886 188.493C59.5658 187.607 59.9393 186.416 59.7292 185.996C59.1457 184.642 54.7578 186.486 54.1743 186.393Z" fill="#F5D5D5"/>
<path d="M51.5331 159.855C51.183 160.625 50.9496 164.826 51.3231 168.958C51.6965 173.065 52.8635 187.209 52.8635 187.209C56.9947 188.797 59.1653 185.692 59.1653 185.692C59.1653 185.692 60.589 167.207 60.7524 161.372C60.8924 155.537 52.4667 157.778 51.5331 159.855Z" fill="#4438B8"/>
<path d="M59.8211 130.237C56.6935 127.646 52.9124 129.793 51.9088 130.54C47.801 133.644 48.4545 137.752 48.6412 140.179C48.8279 142.42 51.1853 157.801 51.7921 161.349C52.7024 166.647 60.6613 167.02 60.6613 163.076C60.6846 159.271 64.0456 133.738 59.8211 130.237Z" fill="#4438B8"/>
<path d="M61.5943 109.417C61.5943 102.579 51.0213 99.918 47.8004 99.918C41.2886 99.918 41.0085 108.204 41.9188 114.249C42.829 120.294 40.2383 134.134 40.2383 134.134C45.023 139.666 62.2479 135.908 62.2479 135.908C60.5674 128.743 61.5943 115.392 61.5943 109.417Z" fill="url(#paint6_linear_2705_69292)"/>
<path d="M58.3973 90.2319C58.3273 89.4384 57.3937 90.0219 56.8102 89.4851C56.18 88.9249 55.3164 88.7382 54.4762 88.6448C53.7293 88.5748 52.9357 88.5748 52.3056 88.9949C51.8388 89.2983 51.5354 89.7651 51.2553 90.2553C49.3647 93.6162 50.2517 96.3237 49.7148 99.8947C50.7418 100.431 53.916 101.552 55.0597 101.715C55.2464 101.739 53.776 99.8947 54.1728 98.3075C55.6899 98.751 56.6468 96.7905 58.0472 94.4565C58.4673 93.7563 58.2106 92.6593 58.0239 92.1225C57.6971 91.3522 58.4673 91.0255 58.3973 90.2319Z" fill="#F5D5D5"/>
<path d="M55.2214 86.0306C55.2914 83.9534 50.9502 83.8833 51.417 86.2874C49.4098 85.9839 46.6557 87.7111 47.7526 90.4185C46.679 92.5425 48.7563 94.6431 49.3164 95.9268C49.4331 96.2068 49.8532 97.2805 49.8532 97.2805C49.8532 97.2805 52.584 98.004 53.6576 97.3038C54.918 96.4636 55.3615 94.9932 55.6415 93.5928C56.1083 91.3055 57.4621 92.4258 57.4621 90.4419C58.3256 90.0451 58.7224 91.2588 58.7224 91.2588C60.7296 87.4077 57.4154 84.7703 55.2214 86.0306Z" fill="#1C0A76"/>
<path d="M54.871 99.8947C52.2803 98.5877 51.2067 98.3776 49.993 98.3076C49.6195 98.2843 49.2461 98.471 49.036 98.7978L48.3125 99.9181L56.2481 102.462C56.2714 101.295 55.5012 100.222 54.871 99.8947Z" fill="white"/>
<path d="M72.2383 130.75C71.0946 130.049 70.5578 130.096 70.9312 129.606C71.3513 129.046 72.5417 128.229 72.5417 127.972C72.5183 127.459 71.1179 127.972 70.1377 128.719C69.6709 129.069 68.4105 128.929 68.0604 128.789C65.353 127.762 58.0942 121.857 58.0942 121.857L55.4102 125.568C55.4102 125.568 65.7731 131.03 67.5003 132.804C68.1538 133.48 69.4841 135.348 69.8809 135.138C70.2777 134.928 72.1916 134.251 72.495 133.877C72.7984 133.48 71.6781 131.123 72.7984 132.664C73.7087 133.901 75.2958 134.694 75.0391 134.227C74.6423 133.48 73.4053 131.427 72.2383 130.75Z" fill="#F5D5D5"/>
<path d="M57.8358 104.376C54.6849 103.605 53.4245 106.663 52.6543 111.191C52.0008 114.995 51.534 120.363 54.1014 125.592C55.105 127.646 59.913 124.168 59.913 122.791C59.9364 121.414 59.703 118.263 60.3798 113.642C61.2201 108.203 60.6366 105.076 57.8358 104.376Z" fill="white"/>
<path d="M148.637 308.739C150.123 309.58 151.049 311.178 151.049 312.917C151.049 314.655 150.152 316.281 148.666 317.122L111.487 337.282C110.786 337.674 110.001 337.899 109.216 337.899C108.459 337.899 107.674 337.702 107.001 337.31L73.7109 300.63C73.5315 300.49 73.3562 300.333 73.1878 300.162C71.8594 299.292 71.0266 297.77 71 296.122C71 294.384 71.8972 292.785 73.3552 291.916L94.7483 280.617C95.4492 280.224 96.2343 280 97.0474 280C97.8325 280 98.6175 280.196 99.2904 280.589L148.637 308.739Z" fill="url(#paint7_linear_2705_69292)"/>
<path d="M64.5357 255.634C66.7787 254.344 68.8255 254.26 70.2554 255.185L94.1439 268.98L81.8071 287.485L58.872 274.335C57.4981 273.494 56.6289 271.756 56.6289 269.288C56.6569 264.242 60.1617 258.157 64.5357 255.634Z" fill="url(#paint8_linear_2705_69292)"/>
<path d="M153.054 308.934L97.4822 279.494V260.905C97.4822 259.587 96.0522 258.746 94.9027 259.391L74.1826 271.167C72.276 272.26 71.0703 274.307 71.0703 276.522V293.401C71.0703 293.934 71.2666 294.383 71.575 294.747L71.6311 294.803C71.6591 294.859 71.7152 294.887 71.7713 294.943L110.071 335.851L153.054 308.934Z" fill="url(#paint9_linear_2705_69292)"/>
<path d="M152.099 264.073L95.4345 259.167L73.7891 271.391L112.622 287.373L152.099 264.073Z" fill="url(#paint10_linear_2705_69292)"/>
<path d="M152.829 314.542L110.492 338.486C106.062 340.982 100.566 337.813 100.538 332.71L100.426 300.943C100.398 294.523 103.819 288.606 109.37 285.382L151.792 260.961C156.222 258.409 161.773 261.606 161.773 266.709L161.885 298.925C161.942 305.373 158.465 311.345 152.829 314.542Z" fill="#C8D3FB"/>
<path d="M156.728 315.691L114.39 339.636C109.96 342.131 104.465 338.963 104.437 333.86L104.324 302.093C104.296 295.672 107.717 289.756 113.269 286.532L155.69 262.111C160.12 259.559 165.672 262.755 165.672 267.858L165.784 300.074C165.812 306.551 162.335 312.523 156.728 315.691Z" fill="url(#paint11_linear_2705_69292)"/>
<path d="M128.83 319.224L125.577 321.159C124.932 321.551 124.091 321.075 124.091 320.318L124.035 303.355C124.035 301.616 124.96 300.018 126.474 299.149L129.643 297.355C130.288 296.99 131.101 297.467 131.101 298.196L131.157 315.047C131.185 316.785 130.288 318.383 128.83 319.224Z" fill="url(#paint12_linear_2705_69292)"/>
<path d="M131.127 298.252C131.127 297.495 130.314 297.018 129.669 297.411L129.389 297.551L129.445 313.981C129.445 315.663 128.548 317.262 127.09 318.131L124.09 319.925V320.346C124.09 321.103 124.931 321.579 125.576 321.187L128.828 319.252C130.286 318.383 131.183 316.813 131.183 315.103L131.127 298.252Z" fill="#017AFF"/>
<path d="M152.38 305.85L149.128 307.785C148.483 308.177 147.642 307.7 147.642 306.943L147.586 289.98C147.586 288.242 148.511 286.644 150.025 285.775L153.194 283.98C153.838 283.616 154.652 284.092 154.652 284.821L154.708 301.672C154.736 303.411 153.838 304.981 152.38 305.85Z" fill="url(#paint13_linear_2705_69292)"/>
<path d="M154.651 284.85C154.651 284.093 153.838 283.616 153.193 283.98L152.912 284.121L152.969 300.551C152.969 302.261 152.071 303.831 150.613 304.701L147.613 306.495V306.916C147.613 307.673 148.454 308.149 149.099 307.757L152.352 305.822C153.81 304.953 154.707 303.383 154.707 301.672L154.651 284.85Z" fill="#017AFF"/>
<defs>
<linearGradient id="paint0_linear_2705_69292" x1="135" y1="313.5" x2="172.5" y2="336.5" gradientUnits="userSpaceOnUse">
<stop stop-color="#CED4FF" stop-opacity="0.65"/>
<stop offset="1" stop-color="#CED4FF" stop-opacity="0"/>
</linearGradient>
<linearGradient id="paint1_linear_2705_69292" x1="96.6175" y1="173.5" x2="168.202" y2="173.5" gradientUnits="userSpaceOnUse">
<stop stop-color="#CED4FF"/>
<stop offset="1" stop-color="#CED4FF" stop-opacity="0"/>
</linearGradient>
<linearGradient id="paint2_linear_2705_69292" x1="-0.697129" y1="169.971" x2="93.6465" y2="169.971" gradientUnits="userSpaceOnUse">
<stop stop-color="#CED4FF"/>
<stop offset="1" stop-color="#CED4FF" stop-opacity="0"/>
</linearGradient>
<linearGradient id="paint3_linear_2705_69292" x1="100.68" y1="101.186" x2="134.512" y2="101.186" gradientUnits="userSpaceOnUse">
<stop stop-color="#0AD1FF"/>
<stop offset="1" stop-color="#017AFF"/>
</linearGradient>
<linearGradient id="paint4_linear_2705_69292" x1="49.1939" y1="24.8321" x2="134.51" y2="24.8321" gradientUnits="userSpaceOnUse">
<stop stop-color="#0AD1FF"/>
<stop offset="1" stop-color="#017AFF"/>
</linearGradient>
<linearGradient id="paint5_linear_2705_69292" x1="4.47713" y1="94.7465" x2="46.7871" y2="94.7465" gradientUnits="userSpaceOnUse">
<stop stop-color="white"/>
<stop offset="1" stop-color="#D3DBEB"/>
</linearGradient>
<linearGradient id="paint6_linear_2705_69292" x1="62.2292" y1="118.539" x2="40.2311" y2="118.539" gradientUnits="userSpaceOnUse">
<stop stop-color="#4CA2FF"/>
<stop offset="1" stop-color="#017AFF"/>
</linearGradient>
<linearGradient id="paint7_linear_2705_69292" x1="77.3223" y1="307.429" x2="151.054" y2="307.429" gradientUnits="userSpaceOnUse">
<stop stop-color="#CED4FF"/>
<stop offset="1" stop-color="#CED4FF" stop-opacity="0"/>
</linearGradient>
<linearGradient id="paint8_linear_2705_69292" x1="67.0762" y1="279.143" x2="79.8846" y2="260.886" gradientUnits="userSpaceOnUse">
<stop stop-color="#0FD1FF"/>
<stop offset="1" stop-color="#017AFF"/>
</linearGradient>
<linearGradient id="paint9_linear_2705_69292" x1="171.118" y1="273.864" x2="67.103" y2="309.809" gradientUnits="userSpaceOnUse">
<stop stop-color="white"/>
<stop offset="1" stop-color="#E3EAFF"/>
</linearGradient>
<linearGradient id="paint10_linear_2705_69292" x1="163.776" y1="252.621" x2="59.7615" y2="288.566" gradientUnits="userSpaceOnUse">
<stop stop-color="white"/>
<stop offset="1" stop-color="#E3EAFF"/>
</linearGradient>
<linearGradient id="paint11_linear_2705_69292" x1="99.5641" y1="314.419" x2="167.819" y2="322.072" gradientUnits="userSpaceOnUse">
<stop stop-color="white"/>
<stop offset="1" stop-color="#E3EAFF"/>
</linearGradient>
<linearGradient id="paint12_linear_2705_69292" x1="122.679" y1="311.166" x2="132.135" y2="312.226" gradientUnits="userSpaceOnUse">
<stop stop-color="#0FD0FF"/>
<stop offset="1" stop-color="#017AFF"/>
</linearGradient>
<linearGradient id="paint13_linear_2705_69292" x1="146.229" y1="297.792" x2="155.685" y2="298.852" gradientUnits="userSpaceOnUse">
<stop stop-color="#0FD0FF"/>
<stop offset="1" stop-color="#017AFF"/>
</linearGradient>
</defs>
</svg>
