<svg width="32" height="32" viewBox="0 0 32 32" fill="none" xmlns="http://www.w3.org/2000/svg">
<path opacity="0.2" d="M0 8C0 3.58172 3.58172 0 8 0H32V32H0V8Z" fill="#031D3A"/>
<path d="M14 8C10.6863 8 8 10.6863 8 14C8 17.3137 10.6863 20 14 20C17.3137 20 20 17.3137 20 14C20 10.6863 17.3137 8 14 8ZM6 14C6 9.58172 9.58172 6 14 6C18.4183 6 22 9.58172 22 14C22 15.8487 21.3729 17.551 20.3199 18.9056L25.7071 24.2929C26.0976 24.6834 26.0976 25.3166 25.7071 25.7071C25.3166 26.0976 24.6834 26.0976 24.2929 25.7071L18.9056 20.3199C17.551 21.3729 15.8487 22 14 22C9.58172 22 6 18.4183 6 14Z" fill="white"/>
<path d="M15 10.5C15 9.94772 14.5523 9.5 14 9.5C13.4477 9.5 13 9.94772 13 10.5H15ZM13 17C13 17.5523 13.4477 18 14 18C14.5523 18 15 17.5523 15 17H13ZM13 10.5V17H15V10.5H13Z" fill="white"/>
<path d="M10.75 12.75C10.1977 12.75 9.75 13.1977 9.75 13.75C9.75 14.3023 10.1977 14.75 10.75 14.75L10.75 12.75ZM17.25 14.75C17.8023 14.75 18.25 14.3023 18.25 13.75C18.25 13.1977 17.8023 12.75 17.25 12.75L17.25 14.75ZM10.75 14.75L17.25 14.75L17.25 12.75L10.75 12.75L10.75 14.75Z" fill="white"/>
</svg>
