<svg width="83" height="37" viewBox="0 0 83 37" fill="none" xmlns="http://www.w3.org/2000/svg">
<path d="M29.3574 10.3942C29.5523 9.66598 29.6138 8.90701 29.8395 8.16855C31.3266 3.29677 35.7164 0.0557559 40.824 0.0762687C41.1933 0.0762687 41.2753 0.189089 41.2651 0.537805C41.2446 1.67626 41.2446 2.81472 41.2651 3.95318C41.2753 4.32241 41.142 4.3942 40.8035 4.3942C37.1933 4.466 34.4138 6.85573 33.7984 10.3942C33.101 14.3737 36.342 18.3326 40.4035 18.4557C41.2651 18.4865 41.2651 18.4865 41.2651 19.3275C41.2651 20.4967 41.2548 21.6659 41.2446 22.8454C41.0702 22.8454 40.9061 22.8454 40.7317 22.8454C40.3215 22.7223 39.8907 22.8249 39.4805 22.7941C37.2959 22.63 35.3882 21.789 33.6856 20.4762C31.501 18.7839 30.1266 16.5788 29.5113 13.9019C29.3882 13.389 29.4702 12.8557 29.3574 12.3429C29.3574 11.6865 29.3574 11.0403 29.3574 10.3942Z" fill="#E94450"/>
<path d="M43.0806 19.5738C43.0806 18.7123 43.0703 17.8405 43.0908 16.979C43.0908 16.7123 43.0088 16.6303 42.7421 16.6303C42.0447 16.6405 41.337 16.6508 40.6396 16.6303C37.8396 16.5585 35.5934 14.2816 35.5319 11.4816C35.4806 8.73286 37.6652 6.36364 40.4447 6.18928C41.1729 6.14825 41.9114 6.138 42.6498 6.15851C43.019 6.16877 43.1011 6.04569 43.0908 5.69697C43.0703 4.0457 43.1011 2.40468 43.0703 0.753401C43.0601 0.312377 43.1831 0.271352 43.5831 0.373916C49.1216 1.73801 52.8036 7.04056 52.1267 12.6816C51.5523 17.4815 48.178 21.3072 43.5319 22.4764C43.1626 22.5687 43.0601 22.5174 43.0703 22.1277C43.1011 21.2764 43.0806 20.4251 43.0806 19.5738Z" fill="#203D8C"/>
<path d="M45.1225 32.2494C45.3806 31.9071 45.6275 31.5817 45.8688 31.2562C46.5309 30.3808 47.1931 29.5054 47.844 28.6188C47.9619 28.4617 48.0853 28.3887 48.2873 28.4056C48.4893 28.4224 48.697 28.428 48.9046 28.4056C49.1459 28.3831 49.2188 28.4505 49.2188 28.703C49.2076 30.263 49.2132 31.8286 49.2132 33.3885C49.2132 34.1517 49.2076 34.9149 49.2188 35.678C49.2188 35.8632 49.1683 35.9193 48.9831 35.9081C48.7306 35.8913 48.4781 35.8913 48.2256 35.9081C48.018 35.9249 47.9843 35.8408 47.9843 35.6556C47.9899 34.0002 47.9899 32.3448 47.9899 30.6894C47.9899 30.5996 47.9899 30.5099 47.9899 30.4089C47.8608 30.4481 47.8328 30.5435 47.7767 30.6109C47.064 31.5536 46.3514 32.4963 45.6387 33.439C45.4311 33.714 44.8082 33.7084 44.6006 33.4334C43.8935 32.4963 43.1921 31.5592 42.4907 30.6221C42.4402 30.5491 42.3841 30.4818 42.2831 30.3527C42.2831 30.5155 42.2831 30.6053 42.2831 30.695C42.2831 32.3392 42.2774 33.989 42.2887 35.6331C42.2887 35.852 42.2382 35.9305 42.0137 35.9081C41.6995 35.8744 41.2786 36.0372 41.1046 35.8464C40.9475 35.678 41.0541 35.2628 41.0541 34.9598C41.0541 32.8667 41.0541 30.7736 41.0485 28.6805C41.0485 28.4673 41.1046 28.428 41.3179 28.3943C42.0137 28.2877 42.4346 28.5683 42.8161 29.1407C43.4783 30.1283 44.2302 31.0598 44.9429 32.0137C44.9878 32.0923 45.0495 32.1596 45.1225 32.2494Z" fill="#203D8C"/>
<path d="M66.5637 32.1373C66.5637 30.9757 66.5693 29.8141 66.5581 28.6526C66.5581 28.4562 66.603 28.3944 66.805 28.4057C67.0575 28.4225 67.31 28.4225 67.5626 28.4057C67.759 28.3944 67.8151 28.4505 67.8151 28.6469C67.8039 29.5111 67.8151 30.3753 67.8038 31.2394C67.8038 31.4415 67.8431 31.5088 68.062 31.5088C69.3414 31.4976 70.6208 31.4976 71.9002 31.5088C72.1359 31.5088 72.1696 31.4246 72.1696 31.2226C72.1583 30.3753 72.1752 29.5279 72.1583 28.6862C72.1527 28.4449 72.2313 28.3832 72.4558 28.4057C72.6858 28.4225 72.9215 28.4281 73.1572 28.4057C73.3816 28.3832 73.4097 28.473 73.4097 28.6694C73.4041 30.7456 73.4041 32.8163 73.4041 34.8925C73.4041 35.1619 73.3985 35.4312 73.4097 35.7006C73.4153 35.8521 73.3816 35.9194 73.2133 35.9082C72.9327 35.897 72.6522 35.8913 72.3716 35.9082C72.1864 35.9194 72.1583 35.8465 72.1583 35.6837C72.164 34.7747 72.1583 33.86 72.164 32.9509C72.164 32.7601 72.1247 32.6984 71.9227 32.6984C70.632 32.7096 69.3414 32.7096 68.0564 32.6984C67.8319 32.6984 67.7982 32.777 67.8038 32.9734C67.8151 33.8768 67.8038 34.7747 67.8095 35.6781C67.8095 35.8633 67.759 35.9194 67.5794 35.9082C67.3269 35.8913 67.0744 35.8913 66.8218 35.9082C66.6198 35.925 66.5581 35.8689 66.5581 35.6557C66.5693 34.4829 66.5637 33.3101 66.5637 32.1373Z" fill="#203D8C"/>
<path d="M31.8961 35.908C31.3406 35.908 30.858 35.9024 30.3754 35.9136C30.2239 35.9192 30.1678 35.8126 30.0892 35.7228C29.27 34.7576 28.4451 33.7925 27.6314 32.8217C27.5136 32.6758 27.3901 32.6197 27.2049 32.6253C26.9075 32.6365 26.6045 32.6421 26.3071 32.6253C26.0939 32.6141 26.0153 32.6702 26.0209 32.9002C26.0378 33.8093 26.0209 34.724 26.0322 35.633C26.0322 35.835 25.9985 35.9417 25.7628 35.9136C25.4486 35.8799 25.0389 36.0427 24.8481 35.8463C24.6686 35.6667 24.8032 35.2627 24.7976 34.9596C24.792 32.8778 24.8032 30.7959 24.792 28.7085C24.792 28.456 24.8594 28.383 25.1063 28.4055C25.3195 28.4279 25.5383 28.4279 25.7516 28.4055C25.9985 28.3774 26.0378 28.4784 26.0378 28.7029C26.0265 29.5502 26.0434 30.3975 26.0265 31.2392C26.0209 31.4693 26.0995 31.5198 26.3127 31.5086C26.6943 31.4918 27.132 31.6096 27.4462 31.4637C27.7717 31.3122 27.9849 30.9194 28.2431 30.622C28.8435 29.9374 29.4439 29.2472 30.0443 28.5626C30.1117 28.4896 30.1622 28.4055 30.2913 28.4055C30.7851 28.4111 31.2733 28.4055 31.8288 28.4055C31.3125 28.9778 30.8412 29.5053 30.3642 30.0328C29.8143 30.6444 29.27 31.2561 28.7144 31.8565C28.5798 32.0024 28.6022 32.0866 28.72 32.2213C29.6908 33.3379 30.6616 34.4602 31.6268 35.5825C31.6997 35.6723 31.7783 35.7677 31.8961 35.908Z" fill="#203D8C"/>
<path d="M82.0964 28.411C81.0358 29.5838 80.0369 30.7005 79.0269 31.806C78.8641 31.9855 78.8585 32.0865 79.0213 32.2717C80.0089 33.3996 80.9853 34.5388 81.9673 35.6723C82.0234 35.734 82.0739 35.8013 82.1581 35.9023C81.5969 35.9023 81.0807 35.9023 80.5644 35.9023C80.4634 35.9023 80.4297 35.8069 80.3792 35.7452C79.56 34.78 78.7351 33.8205 77.927 32.8441C77.7867 32.6757 77.6465 32.6028 77.4276 32.6196C77.1583 32.6365 76.8833 32.6421 76.614 32.6196C76.3783 32.6028 76.2941 32.6645 76.2997 32.917C76.3165 33.8205 76.2997 34.7183 76.3109 35.6218C76.3165 35.8631 76.238 35.9248 76.0135 35.9079C75.7722 35.8855 75.5253 35.8911 75.284 35.9079C75.0989 35.9192 75.0708 35.8518 75.0708 35.6835C75.0764 33.3323 75.0764 30.9811 75.0708 28.6299C75.0708 28.4391 75.1325 28.3942 75.3065 28.4054C75.559 28.4166 75.8115 28.4223 76.064 28.4054C76.2717 28.3886 76.3109 28.4728 76.3053 28.6579C76.2941 29.5221 76.3109 30.3863 76.2941 31.2504C76.2885 31.4637 76.3558 31.5198 76.5578 31.5086C76.8721 31.4917 77.1919 31.4973 77.5118 31.5086C77.6801 31.5142 77.7868 31.4524 77.8934 31.329C78.6846 30.4143 79.4926 29.5109 80.2839 28.5962C80.4073 28.4559 80.5308 28.3998 80.7159 28.4054C81.1536 28.4166 81.5857 28.411 82.0964 28.411Z" fill="#203D8C"/>
<path d="M4.06895 36.0426C2.69975 36.0146 1.52135 35.6161 0.752578 34.4826C-0.150867 33.1639 -0.229429 31.7218 0.45517 30.2965C1.11732 28.9105 2.3294 28.3156 3.83327 28.2427C4.89384 28.1922 5.86462 28.4671 6.7344 29.0788C6.91396 29.2022 6.97008 29.2976 6.79051 29.4772C6.61655 29.6456 6.47066 29.842 6.33037 30.0384C6.23498 30.173 6.16764 30.1843 6.02735 30.0776C5.28103 29.5333 4.43931 29.2976 3.51903 29.4492C2.11055 29.6848 1.24639 30.8127 1.31372 32.2605C1.42595 34.6341 3.5527 35.2009 5.08463 34.6959C5.49426 34.5612 5.88145 34.3648 6.20692 34.0842C6.35282 33.9552 6.40893 34 6.49871 34.1235C6.65022 34.3367 6.80173 34.55 6.97008 34.7464C7.09914 34.8923 7.05425 34.9764 6.92519 35.0774C6.22936 35.6218 5.43254 35.9079 4.56276 36.009C4.38319 36.0314 4.20363 36.037 4.06895 36.0426Z" fill="#203D8C"/>
<path d="M22.4017 32.0418C22.3848 32.0361 22.3736 32.0193 22.34 31.9856C22.441 31.9015 22.5307 31.8341 22.6093 31.7612C23.4061 31.0541 23.4454 29.8645 22.6879 29.107C22.2053 28.6244 21.5992 28.4336 20.9315 28.428C19.7194 28.4168 18.5017 28.428 17.2896 28.4224C17.1101 28.4224 17.054 28.4616 17.054 28.6524C17.0596 30.998 17.0596 33.338 17.054 35.6836C17.054 35.8688 17.1045 35.9193 17.2896 35.9137C18.6139 35.9024 19.9439 35.9081 21.2682 35.9024C21.5992 35.9024 21.9191 35.8351 22.2277 35.7285C23.0526 35.4367 23.5801 34.724 23.6025 33.8767C23.6362 32.9452 23.3051 32.4402 22.4017 32.0418ZM18.2885 29.7411C18.2885 29.5895 18.3614 29.5783 18.4793 29.5783C18.9057 29.5839 19.3378 29.5783 19.7643 29.5783C20.1346 29.5783 20.5106 29.5727 20.881 29.5783C21.5263 29.5895 21.9415 29.9262 21.9752 30.4593C22.0145 30.998 21.6105 31.4862 20.982 31.5255C20.1346 31.5816 19.2873 31.5592 18.44 31.576C18.3165 31.576 18.2829 31.5199 18.2829 31.4077C18.2941 30.8521 18.2941 30.2966 18.2885 29.7411ZM22.3231 33.9665C22.2333 34.4098 21.8518 34.7128 21.3131 34.724C20.3703 34.7409 19.4276 34.7296 18.4849 34.7353C18.3502 34.7353 18.3109 34.6904 18.3109 34.5613C18.3165 34.0058 18.3165 33.4446 18.3109 32.8891C18.3109 32.7432 18.3614 32.6983 18.5017 32.6983C18.9787 32.7039 19.4557 32.6983 19.927 32.6983C19.927 32.7039 19.927 32.7095 19.927 32.7095C20.4096 32.7095 20.8978 32.6871 21.3804 32.7151C22.0594 32.7656 22.4578 33.3156 22.3231 33.9665Z" fill="#203D8C"/>
<path d="M56.1715 31.7273C55.7731 31.5533 55.3522 31.4804 54.9201 31.4804C54.0784 31.4804 53.2367 31.4748 52.395 31.486C52.1705 31.4916 52.0863 31.4411 52.0975 31.1998C52.12 30.7621 52.12 30.3244 52.0975 29.8867C52.0863 29.6398 52.1537 29.5781 52.4006 29.5837C53.7529 29.5949 55.1109 29.5837 56.4633 29.5949C56.6933 29.5949 56.7495 29.5276 56.7326 29.3143C56.7158 29.1011 56.7158 28.8879 56.7326 28.6746C56.7551 28.4614 56.6765 28.4165 56.4689 28.4165C54.6844 28.4277 52.9 28.4277 51.1155 28.4165C50.9079 28.4165 50.8518 28.4614 50.8518 28.6746C50.863 29.8362 50.8574 30.9978 50.8574 32.1593C50.8574 33.3209 50.863 34.4825 50.8518 35.6441C50.8518 35.8461 50.8911 35.9078 51.1099 35.9078C52.3501 35.8966 53.5958 35.9022 54.8359 35.9022C55.0885 35.9022 55.341 35.891 55.5879 35.8405C56.5867 35.6553 57.2882 34.9314 57.406 33.9494C57.5294 32.9898 57.0469 32.1201 56.1715 31.7273ZM55.066 34.7294C55.038 34.7294 55.0099 34.7294 54.9818 34.7294C54.5441 34.7294 54.1065 34.7294 53.6631 34.7294C53.6631 34.7294 53.6631 34.7294 53.6631 34.735C53.203 34.735 52.7485 34.7294 52.2883 34.7406C52.1424 34.7406 52.0975 34.7013 52.0975 34.5498C52.1032 33.9831 52.1032 33.4163 52.0975 32.8496C52.0975 32.698 52.1481 32.6644 52.2883 32.6644C53.1918 32.67 54.1008 32.6588 55.0043 32.67C55.6552 32.6812 56.0985 33.0628 56.1322 33.6071C56.1771 34.2468 55.7562 34.6901 55.066 34.7294Z" fill="#203D8C"/>
<path d="M35.7344 28.2427C33.4337 28.2371 31.7503 29.8756 31.7446 32.1202C31.739 34.4153 33.4112 36.0707 35.7176 36.0763C38.0014 36.0763 39.6905 34.4265 39.6961 32.1819C39.7017 29.9037 38.0351 28.2483 35.7344 28.2427ZM35.7232 34.8979C34.1576 34.8979 33.0184 33.7531 33.0128 32.1763C33.0128 30.6107 34.1632 29.4379 35.7119 29.4379C37.2719 29.4379 38.4167 30.5827 38.4167 32.1651C38.4279 33.7363 37.2832 34.8979 35.7232 34.8979Z" fill="#203D8C"/>
<path d="M11.7229 28.2427C9.42223 28.2427 7.7444 29.8981 7.75001 32.1707C7.75563 34.4209 9.43345 36.0763 11.7173 36.0763C14.0236 36.0763 15.7015 34.4265 15.7015 32.1651C15.7015 29.8868 14.0292 28.2427 11.7229 28.2427ZM11.7622 34.8979C10.1854 34.9035 9.02943 33.7531 9.02382 32.1707C9.02382 30.5995 10.1742 29.4379 11.7285 29.4379C13.2885 29.4379 14.4333 30.5883 14.4333 32.1651C14.4389 33.7195 13.2941 34.8923 11.7622 34.8979Z" fill="#203D8C"/>
<path d="M65.6098 35.796C64.5605 33.3887 63.5055 30.9814 62.4618 28.574C62.4057 28.4506 62.3383 28.4169 62.2093 28.4169C61.8894 28.4225 61.5752 28.4281 61.2553 28.4169C61.0814 28.4113 60.9972 28.4618 60.9242 28.6302C59.903 30.987 58.8705 33.3438 57.8436 35.695C57.8155 35.7567 57.7594 35.8128 57.7987 35.9026C58.1634 35.9026 58.5282 35.8914 58.8929 35.9082C59.05 35.9138 59.123 35.8633 59.1791 35.723C59.3867 35.2292 59.6168 34.741 59.8244 34.2416C59.8861 34.0845 59.9703 34.0396 60.133 34.0452C61.1712 34.0508 62.2093 34.0508 63.2418 34.0452C63.4157 34.0452 63.5111 34.0957 63.5785 34.2584C63.7805 34.7466 63.9993 35.2292 64.207 35.7174C64.2631 35.8521 64.3248 35.9251 64.4875 35.9138C64.8579 35.897 65.2339 35.9082 65.6323 35.9082C65.621 35.8465 65.621 35.8184 65.6098 35.796ZM62.5347 32.9005C61.9006 32.9005 61.2665 32.9005 60.6325 32.9005C60.5483 32.9005 60.3912 32.9566 60.4753 32.7602C60.8794 31.8287 61.2834 30.8916 61.7042 29.9264C62.1139 30.8691 62.5123 31.7782 62.9051 32.6816C62.9275 32.7377 62.95 32.7995 62.9893 32.9061C62.8209 32.9005 62.6806 32.9005 62.5347 32.9005Z" fill="#203D8C"/>
</svg>
