<svg width="72" height="72" viewBox="0 0 72 72" fill="none" xmlns="http://www.w3.org/2000/svg">
<circle cx="36.1202" cy="36.0381" r="35" fill="white" stroke="#EEF3FA"/>
<path d="M60.1285 31.3323C59.1043 29.5399 57.637 28.1809 55.9333 27.0583C53.885 25.719 51.6495 24.813 49.3057 24.1433C47.0801 23.5032 44.815 23.0994 42.5205 22.8532C40.6888 22.6563 38.8571 22.5676 37.1238 22.5381C36.208 22.5479 35.4005 22.5479 34.5929 22.5676C33.1551 22.607 31.7173 22.7055 30.2796 22.8729C28.8122 23.0403 27.3547 23.2668 25.9169 23.582C23.6913 24.0744 21.5149 24.7342 19.4469 25.719C17.5265 26.6348 15.7638 27.7673 14.3063 29.343C12.6912 31.1058 11.7163 33.1443 11.6276 35.557C11.5489 37.5857 12.1003 39.4469 13.2427 41.1211C14.326 42.7263 15.7638 43.9573 17.3985 44.9716C19.5749 46.3306 21.9482 47.2268 24.4201 47.8866C27.6502 48.7433 30.9394 49.1373 34.268 49.2653C35.43 49.3145 36.5921 49.3145 37.7541 49.2948C39.2214 49.2653 40.6789 49.1766 42.1266 49.0289C43.6825 48.8714 45.2188 48.6449 46.7551 48.3199C49.2663 47.7881 51.6987 47.0298 53.9933 45.8678C55.7462 44.9814 57.3514 43.8982 58.6809 42.4407C60.2073 40.7665 61.1527 38.8364 61.3103 36.5516C61.4481 34.7002 61.0444 32.9572 60.1285 31.3323ZM57.8044 41.4165C56.3666 43.1005 54.5448 44.2527 52.5555 45.1686C50.448 46.1336 48.2224 46.7639 45.9476 47.2169C44.3128 47.5419 42.6682 47.7586 41.0138 47.8866C39.507 48.0047 37.9905 48.0737 36.5133 48.0638C34.8391 48.0737 33.2044 48.0047 31.5696 47.857C28.4971 47.5813 25.4639 47.0397 22.5391 46.0155C20.5498 45.3261 18.6689 44.4201 16.9947 43.1399C15.6062 42.0763 14.4441 40.8158 13.7449 39.2007C12.6518 36.6698 12.8192 34.1783 14.1881 31.7951C15.163 30.0914 16.591 28.8604 18.2257 27.8461C19.9885 26.753 21.8891 25.9848 23.8686 25.4038C25.72 24.8523 27.6108 24.488 29.5213 24.2319C31.0477 24.035 32.5741 23.9069 34.1104 23.8479C36.3163 23.7592 38.5124 23.7888 40.7183 23.9562C43.7318 24.1827 46.7058 24.6455 49.5913 25.5515C51.5609 26.172 53.4517 26.9696 55.1849 28.1218C56.5636 29.0475 57.7749 30.1505 58.6612 31.5686C59.4392 32.8193 59.8626 34.1685 59.9119 35.6456C59.9808 37.8417 59.2225 39.7522 57.8044 41.4165Z" fill="#005395"/>
<path d="M57.5681 32.4056C56.8985 31.1648 55.9038 30.2096 54.7812 29.3823C53.0479 28.112 51.1177 27.2749 49.0792 26.6348C46.9816 25.975 44.8348 25.5613 42.6485 25.3053C41.0926 25.1182 39.5268 25.0099 37.9609 24.9705C36.8974 24.9409 35.8239 24.9508 34.7505 24.9803C33.4408 25.0197 32.1408 25.0985 30.8311 25.2364C29.2357 25.4038 27.6502 25.6598 26.0844 26.034C23.7898 26.5757 21.574 27.3143 19.5257 28.496C18.1174 29.3134 16.8372 30.2883 15.882 31.6277C14.198 34.001 13.9518 36.5122 15.2123 39.1416C15.882 40.54 16.9652 41.6036 18.2061 42.4997C20.0969 43.8784 22.2339 44.7549 24.4693 45.395C27.7093 46.3306 31.0379 46.7343 34.396 46.8624C35.5482 46.9017 36.7103 46.9214 37.8625 46.882C39.2806 46.8427 40.6888 46.7639 42.0971 46.6063C43.8401 46.4192 45.5734 46.1336 47.2771 45.7101C49.4534 45.1685 51.551 44.4398 53.4911 43.3073C54.8599 42.5096 56.1106 41.5445 57.0462 40.2446C58.8286 37.7432 59.0256 35.1138 57.5681 32.4056ZM56.7212 40.2446C55.697 41.5839 54.3577 42.5588 52.8904 43.3467C51.1276 44.3019 49.2565 44.9519 47.3164 45.4344C45.2582 45.9465 43.1606 46.2616 41.0433 46.4487C39.1427 46.6162 37.2322 46.6752 35.3217 46.6358C32.8893 46.5866 30.4667 46.3897 28.0737 45.9563C25.7692 45.5427 23.5239 44.9519 21.3869 43.9966C19.8802 43.327 18.472 42.4899 17.2607 41.3574C16.2069 40.3627 15.3797 39.2204 14.9858 37.8121C14.3752 35.6259 14.7888 33.6169 16.1085 31.7852C17.1031 30.4065 18.4326 29.4119 19.9097 28.5847C21.8399 27.5112 23.908 26.812 26.0548 26.2999C27.8472 25.8666 29.669 25.5909 31.5007 25.4235C32.9188 25.2955 34.3369 25.2068 35.7649 25.2068C36.0111 25.2068 36.2573 25.2068 36.5035 25.2068C38.4139 25.197 40.3244 25.2856 42.2251 25.4924C45.1204 25.8174 47.9664 26.3886 50.6943 27.4521C52.3389 28.1021 53.8948 28.9096 55.2637 30.052C56.5341 31.1156 57.5386 32.3662 58.0014 33.9813C58.6317 36.2956 58.1491 38.3735 56.7212 40.2446Z" fill="#005296"/>
<path d="M43.3477 35.5473C43.0916 36.4238 42.8257 37.3002 42.5697 38.1669C42.4121 38.6986 42.2545 39.2206 42.1068 39.7524C42.0773 39.8705 42.028 39.9099 41.9 39.9099C41.4569 39.9001 41.0039 39.9001 40.5607 39.9099C40.4228 39.9099 40.3637 39.8705 40.3243 39.7425C39.9304 38.3934 39.5267 37.0442 39.1328 35.7049C39.1131 35.6458 39.0934 35.5966 39.0638 35.4882C38.9456 36.3844 38.8373 37.2215 38.729 38.0684C38.6601 38.6199 38.5813 39.1812 38.5222 39.7327C38.5025 39.8607 38.4729 39.9198 38.3154 39.9198C37.6556 39.9099 36.9958 39.9099 36.3261 39.9198C36.1784 39.9198 36.1488 39.8902 36.1685 39.7425C36.4443 37.8222 36.7003 35.9018 36.9662 33.9717C37.0745 33.2035 37.1829 32.4354 37.2813 31.6771C37.301 31.5688 37.3306 31.5195 37.4586 31.5195C38.1972 31.5294 38.9259 31.5294 39.6645 31.5195C39.7926 31.5195 39.832 31.5688 39.8615 31.6869C40.2948 33.2232 40.7281 34.7595 41.1713 36.2958C41.1811 36.3352 41.2008 36.3844 41.2304 36.473C41.4372 35.764 41.6243 35.0943 41.8114 34.4148C42.0674 33.5088 42.3235 32.593 42.5795 31.6869C42.6091 31.5688 42.6583 31.5195 42.7962 31.5195C43.5151 31.5294 44.2438 31.5294 44.9627 31.5195C45.0907 31.5195 45.14 31.5392 45.1597 31.6771C45.2975 32.6914 45.4453 33.7156 45.5831 34.7299C45.7505 35.9412 45.918 37.1525 46.0854 38.354C46.1543 38.8365 46.2134 39.3191 46.2922 39.8016C46.3119 39.9001 46.2725 39.9099 46.1937 39.9099C45.4945 39.9099 44.7854 39.9099 44.0862 39.9099C43.9976 39.9099 43.9582 39.8902 43.9484 39.7918C43.781 38.4328 43.6037 37.0737 43.4264 35.7246C43.4067 35.6655 43.4166 35.6064 43.3477 35.5473Z" fill="#005395"/>
<path d="M18.6787 35.6948C18.6787 34.3752 18.6787 33.0457 18.6787 31.7261C18.6787 31.5587 18.7181 31.5094 18.8855 31.5193C19.5946 31.5291 20.3036 31.5291 21.0127 31.5193C21.1702 31.5193 21.1998 31.5587 21.1998 31.7064C21.1899 32.6025 21.1998 33.4987 21.1899 34.3949C21.1899 34.5721 21.2392 34.6017 21.3967 34.6017C22.155 34.5918 22.9035 34.5918 23.6617 34.6017C23.7996 34.6017 23.839 34.5721 23.839 34.4244C23.8292 33.5184 23.839 32.6025 23.8292 31.6965C23.8292 31.5587 23.8587 31.5193 24.0064 31.5193C24.7253 31.5291 25.4541 31.5291 26.173 31.5193C26.3207 31.5193 26.3502 31.5685 26.3502 31.7064C26.3502 34.385 26.3502 37.0636 26.3502 39.7423C26.3502 39.8801 26.3207 39.9195 26.173 39.9195C25.4541 39.9097 24.7253 39.9097 24.0064 39.9195C23.8587 39.9195 23.8292 39.8801 23.8292 39.7423C23.839 38.7575 23.8292 37.7727 23.839 36.7977C23.839 36.6303 23.7898 36.6008 23.6421 36.6008C22.8838 36.6106 22.1353 36.6106 21.377 36.6008C21.2293 36.6008 21.1899 36.6303 21.1899 36.7879C21.1998 37.7727 21.1899 38.7575 21.1998 39.7324C21.1998 39.8801 21.1702 39.9195 21.0127 39.9195C20.2938 39.9097 19.5847 39.9097 18.8658 39.9195C18.7083 39.9195 18.6787 39.8703 18.6787 39.7226C18.6886 38.3833 18.6787 37.0341 18.6787 35.6948Z" fill="#005395"/>
<path d="M35.233 35.7245C35.233 37.054 35.233 38.3834 35.233 39.7129C35.233 39.8606 35.2034 39.9197 35.036 39.9099C34.3565 39.9 33.6868 39.9 33.0073 39.9099C32.8399 39.9099 32.8005 39.8705 32.8005 39.7031C32.8104 37.7138 32.8005 35.7344 32.8104 33.7451C32.8104 33.5481 32.7513 33.4989 32.5642 33.5087C32.1801 33.5186 31.8059 33.5186 31.4218 33.5087C31.2642 33.4989 31.2347 33.558 31.2347 33.6958C31.2446 34.4935 31.2446 35.301 31.2347 36.0987C31.2249 36.7979 31.1855 37.4971 30.9688 38.1766C30.6143 39.2796 29.7772 39.8409 28.6743 39.9689C28.2114 40.0182 27.7584 39.9886 27.2955 39.9296C27.1872 39.9197 27.1478 39.8902 27.1478 39.772C27.1577 39.1614 27.1478 38.5509 27.1478 37.9501C27.1478 37.8517 27.1478 37.8123 27.2759 37.832C27.4334 37.8615 27.6107 37.8713 27.7781 37.8713C28.2409 37.8615 28.5364 37.635 28.6743 37.1918C28.7727 36.857 28.8023 36.5123 28.8023 36.1677C28.8023 34.6806 28.8023 33.2034 28.7924 31.7164C28.7924 31.5391 28.8417 31.4998 29.0091 31.4998C31.0082 31.5096 33.0073 31.5096 35.0064 31.4998C35.1936 31.4998 35.2231 31.5588 35.2133 31.7263C35.233 33.0656 35.233 34.395 35.233 35.7245Z" fill="#005395"/>
<path d="M54.9387 39.9099C53.9441 39.9099 52.9987 39.9099 52.0434 39.9099C51.9253 39.9099 51.8859 39.8508 51.8268 39.772C51.167 38.7675 50.4973 37.7532 49.8375 36.7487C49.7981 36.6994 49.7686 36.6404 49.6997 36.5419C49.6997 36.6601 49.6997 36.729 49.6997 36.7881C49.6997 37.763 49.6997 38.738 49.6997 39.7129C49.6997 39.8705 49.6504 39.9099 49.5027 39.9099C48.7838 39.9 48.0747 39.9 47.3558 39.9099C47.218 39.9099 47.1786 39.8803 47.1786 39.7326C47.1786 37.0441 47.1786 34.3556 47.1786 31.677C47.1786 31.549 47.218 31.5096 47.346 31.5096C48.0747 31.5195 48.8035 31.5195 49.5322 31.5096C49.68 31.5096 49.6997 31.5687 49.6997 31.6967C49.6997 32.6815 49.6997 33.6663 49.6997 34.6412C49.6997 34.7003 49.6997 34.7693 49.6997 34.8283C49.7095 34.8283 49.7292 34.8382 49.739 34.8382C50.0246 34.4344 50.3102 34.0405 50.586 33.6367C51.0587 32.9671 51.5314 32.2974 52.0041 31.6278C52.0533 31.5588 52.0828 31.4998 52.1912 31.4998C53.0676 31.4998 53.9441 31.4998 54.8501 31.4998C54.5744 31.8641 54.3183 32.199 54.0623 32.5338C53.304 33.5284 52.5555 34.5231 51.7973 35.5078C51.7086 35.6162 51.7086 35.6851 51.7973 35.7934C52.8214 37.1229 53.8358 38.4524 54.8501 39.7818C54.8796 39.8311 54.8993 39.8606 54.9387 39.9099Z" fill="#005395"/>
</svg>
