<svg width="51" height="28" viewBox="0 0 51 28" fill="none" xmlns="http://www.w3.org/2000/svg">
<path d="M49.1284 9.33226C48.1042 7.53994 46.6369 6.18093 44.9332 5.05827C42.8848 3.71896 40.6494 2.81295 38.3056 2.14329C36.0799 1.50318 33.8149 1.09942 31.5204 0.853219C29.6887 0.656261 27.8569 0.56763 26.1237 0.538086C25.2079 0.547934 24.4003 0.547934 23.5928 0.56763C22.155 0.607021 20.7172 0.7055 19.2794 0.872914C17.8121 1.04033 16.3546 1.26683 14.9168 1.58196C12.6912 2.07436 10.5148 2.73417 8.44674 3.71896C6.5264 4.63481 4.76363 5.76732 3.30614 7.34298C1.69109 9.10576 0.716144 11.1443 0.627513 13.557C0.54873 15.5857 1.10021 17.4469 2.24257 19.1211C3.32584 20.7263 4.76363 21.9573 6.39838 22.9716C8.57477 24.3306 10.9481 25.2268 13.4199 25.8866C16.65 26.7433 19.9392 27.1373 23.2678 27.2653C24.4299 27.3145 25.5919 27.3145 26.754 27.2948C28.2213 27.2653 29.6788 27.1766 31.1264 27.0289C32.6824 26.8714 34.2187 26.6449 35.755 26.3199C38.2662 25.7881 40.6986 25.0298 42.9932 23.8678C44.7461 22.9814 46.3513 21.8982 47.6808 20.4407C49.2072 18.7665 50.1526 16.8364 50.3102 14.5516C50.448 12.7002 50.0443 10.9572 49.1284 9.33226ZM46.8043 19.4165C45.3665 21.1005 43.5447 22.2527 41.5554 23.1686C39.4479 24.1336 37.2223 24.7639 34.9474 25.2169C33.3127 25.5419 31.6681 25.7586 30.0136 25.8866C28.5069 26.0047 26.9903 26.0737 25.5131 26.0638C23.839 26.0737 22.2043 26.0047 20.5695 25.857C17.497 25.5813 14.4638 25.0397 11.539 24.0155C9.54971 23.3261 7.66876 22.4201 5.99462 21.1399C4.60606 20.0763 3.44401 18.8158 2.74481 17.2007C1.65169 14.6698 1.81911 12.1783 3.18797 9.79511C4.16291 8.09142 5.59085 6.86044 7.2256 5.8461C8.98838 4.75299 10.889 3.98485 12.8684 3.40382C14.7199 2.85234 16.6107 2.48797 18.5211 2.23192C20.0476 2.03497 21.574 1.90694 23.1103 1.84786C25.3162 1.75923 27.5123 1.78877 29.7182 1.95618C32.7317 2.18268 35.7057 2.64554 38.5912 3.55154C40.5607 4.17196 42.4515 4.96964 44.1848 6.12184C45.5635 7.04755 46.7748 8.15051 47.6611 9.56861C48.4391 10.8193 48.8625 12.1685 48.9118 13.6456C48.9807 15.8417 48.2224 17.7522 46.8043 19.4165Z" fill="#005395"/>
<path d="M46.5679 10.4056C45.8982 9.1648 44.9036 8.20956 43.7809 7.38233C42.0477 6.11195 40.1175 5.27488 38.079 4.63477C35.9814 3.97496 33.8345 3.56135 31.6483 3.3053C30.0923 3.11819 28.5265 3.00987 26.9607 2.97048C25.8971 2.94093 24.8237 2.95078 23.7503 2.98032C22.4405 3.01971 21.1406 3.0985 19.8308 3.23637C18.2355 3.40378 16.65 3.65983 15.0841 4.03405C12.7896 4.57568 10.5738 5.31427 8.52544 6.49602C7.11719 7.3134 5.83696 8.28834 4.88171 9.62765C3.19772 12.001 2.95153 14.5122 4.21206 17.1416C4.88171 18.54 5.96498 19.6036 7.20582 20.4997C9.09661 21.8784 11.2336 22.7549 13.4691 23.395C16.709 24.3306 20.0376 24.7343 23.3958 24.8624C24.548 24.9017 25.71 24.9214 26.8622 24.882C28.2803 24.8427 29.6886 24.7639 31.0968 24.6063C32.8399 24.4192 34.5731 24.1336 36.2768 23.7101C38.4532 23.1685 40.5508 22.4398 42.4908 21.3073C43.8597 20.5096 45.1104 19.5445 46.0459 18.2446C47.8284 15.7432 48.0254 13.1138 46.5679 10.4056ZM45.7209 18.2446C44.6968 19.5839 43.3574 20.5588 41.8901 21.3467C40.1273 22.3019 38.2562 22.9519 36.3162 23.4344C34.258 23.9465 32.1604 24.2616 30.0431 24.4487C28.1424 24.6162 26.232 24.6752 24.3215 24.6358C21.889 24.5866 19.4665 24.3897 17.0734 23.9563C14.769 23.5427 12.5237 22.9519 10.3867 21.9966C8.87996 21.327 7.47171 20.4899 6.26042 19.3574C5.20669 18.3627 4.37947 17.2204 3.98555 15.8121C3.37499 13.6259 3.7886 11.6169 5.10821 9.78522C6.10285 8.40651 7.43232 7.41188 8.9095 6.58465C10.8397 5.51123 12.9078 4.81203 15.0546 4.29994C16.8469 3.86663 18.6688 3.59089 20.5005 3.42348C21.9186 3.29546 23.3367 3.20682 24.7646 3.20682C25.0108 3.20682 25.257 3.20682 25.5032 3.20682C27.4137 3.19698 29.3242 3.28561 31.2248 3.49241C34.1201 3.81739 36.9662 4.38857 39.694 5.45215C41.3386 6.10211 42.8946 6.90963 44.2635 8.05199C45.5338 9.11556 46.5383 10.3662 47.0012 11.9813C47.6314 14.2956 47.1489 16.3735 45.7209 18.2446Z" fill="#005296"/>
<path d="M32.3477 13.5473C32.0916 14.4238 31.8257 15.3002 31.5697 16.1669C31.4121 16.6986 31.2545 17.2206 31.1068 17.7524C31.0773 17.8705 31.028 17.9099 30.9 17.9099C30.4569 17.9001 30.0039 17.9001 29.5607 17.9099C29.4228 17.9099 29.3637 17.8705 29.3243 17.7425C28.9304 16.3934 28.5267 15.0442 28.1328 13.7049C28.1131 13.6458 28.0934 13.5966 28.0638 13.4882C27.9456 14.3844 27.8373 15.2215 27.729 16.0684C27.6601 16.6199 27.5813 17.1812 27.5222 17.7327C27.5025 17.8607 27.4729 17.9198 27.3154 17.9198C26.6556 17.9099 25.9958 17.9099 25.3261 17.9198C25.1784 17.9198 25.1488 17.8902 25.1685 17.7425C25.4443 15.8222 25.7003 13.9018 25.9662 11.9717C26.0745 11.2035 26.1829 10.4354 26.2813 9.6771C26.301 9.56877 26.3306 9.51953 26.4586 9.51953C27.1972 9.52938 27.9259 9.52938 28.6645 9.51953C28.7926 9.51953 28.832 9.56877 28.8615 9.68695C29.2948 11.2232 29.7281 12.7595 30.1713 14.2958C30.1811 14.3352 30.2008 14.3844 30.2304 14.473C30.4372 13.764 30.6243 13.0943 30.8114 12.4148C31.0674 11.5088 31.3235 10.593 31.5795 9.68695C31.6091 9.56877 31.6583 9.51953 31.7962 9.51953C32.5151 9.52938 33.2438 9.52938 33.9627 9.51953C34.0907 9.51953 34.14 9.53923 34.1597 9.6771C34.2975 10.6914 34.4453 11.7156 34.5831 12.7299C34.7505 13.9412 34.918 15.1525 35.0854 16.354C35.1543 16.8365 35.2134 17.3191 35.2922 17.8016C35.3119 17.9001 35.2725 17.9099 35.1937 17.9099C34.4945 17.9099 33.7854 17.9099 33.0862 17.9099C32.9976 17.9099 32.9582 17.8902 32.9484 17.7918C32.781 16.4328 32.6037 15.0737 32.4264 13.7246C32.4067 13.6655 32.4166 13.6064 32.3477 13.5473Z" fill="#005395"/>
<path d="M7.67871 13.6948C7.67871 12.3752 7.67871 11.0457 7.67871 9.72607C7.67871 9.55866 7.7181 9.50942 7.88552 9.51927C8.59457 9.52911 9.30361 9.52911 10.0127 9.51927C10.1702 9.51927 10.1998 9.55866 10.1998 9.70638C10.1899 10.6025 10.1998 11.4987 10.1899 12.3949C10.1899 12.5721 10.2392 12.6017 10.3967 12.6017C11.155 12.5918 11.9035 12.5918 12.6617 12.6017C12.7996 12.6017 12.839 12.5721 12.839 12.4244C12.8292 11.5184 12.839 10.6025 12.8292 9.69653C12.8292 9.55866 12.8587 9.51927 13.0064 9.51927C13.7253 9.52911 14.4541 9.52911 15.173 9.51927C15.3207 9.51927 15.3502 9.5685 15.3502 9.70638C15.3502 12.385 15.3502 15.0636 15.3502 17.7423C15.3502 17.8801 15.3207 17.9195 15.173 17.9195C14.4541 17.9097 13.7253 17.9097 13.0064 17.9195C12.8587 17.9195 12.8292 17.8801 12.8292 17.7423C12.839 16.7575 12.8292 15.7727 12.839 14.7977C12.839 14.6303 12.7898 14.6008 12.6421 14.6008C11.8838 14.6106 11.1353 14.6106 10.377 14.6008C10.2293 14.6008 10.1899 14.6303 10.1899 14.7879C10.1998 15.7727 10.1899 16.7575 10.1998 17.7324C10.1998 17.8801 10.1702 17.9195 10.0127 17.9195C9.29377 17.9097 8.58472 17.9097 7.86582 17.9195C7.70825 17.9195 7.67871 17.8703 7.67871 17.7226C7.68856 16.3833 7.67871 15.0341 7.67871 13.6948Z" fill="#005395"/>
<path d="M24.2328 13.7245C24.2328 15.054 24.2328 16.3834 24.2328 17.7129C24.2328 17.8606 24.2033 17.9197 24.0359 17.9099C23.3564 17.9 22.6867 17.9 22.0072 17.9099C21.8398 17.9099 21.8004 17.8705 21.8004 17.7031C21.8102 15.7138 21.8004 13.7344 21.8102 11.7451C21.8102 11.5481 21.7512 11.4989 21.564 11.5087C21.18 11.5186 20.8058 11.5186 20.4217 11.5087C20.2641 11.4989 20.2346 11.558 20.2346 11.6958C20.2444 12.4935 20.2444 13.301 20.2346 14.0987C20.2247 14.7979 20.1853 15.4971 19.9687 16.1766C19.6142 17.2796 18.7771 17.8409 17.6741 17.9689C17.2113 18.0182 16.7583 17.9886 16.2954 17.9296C16.1871 17.9197 16.1477 17.8902 16.1477 17.772C16.1576 17.1614 16.1477 16.5509 16.1477 15.9501C16.1477 15.8517 16.1477 15.8123 16.2757 15.832C16.4333 15.8615 16.6106 15.8713 16.778 15.8713C17.2408 15.8615 17.5363 15.635 17.6741 15.1918C17.7726 14.857 17.8022 14.5123 17.8022 14.1677C17.8022 12.6806 17.8022 11.2034 17.7923 9.71641C17.7923 9.53915 17.8415 9.49976 18.009 9.49976C20.0081 9.5096 22.0072 9.5096 24.0063 9.49976C24.1934 9.49976 24.223 9.55884 24.2131 9.72626C24.2328 11.0656 24.2328 12.395 24.2328 13.7245Z" fill="#005395"/>
<path d="M43.9386 17.9099C42.944 17.9099 41.9986 17.9099 41.0433 17.9099C40.9252 17.9099 40.8858 17.8508 40.8267 17.772C40.1669 16.7675 39.4972 15.7532 38.8374 14.7487C38.798 14.6994 38.7685 14.6404 38.6995 14.5419C38.6995 14.6601 38.6995 14.729 38.6995 14.7881C38.6995 15.763 38.6995 16.738 38.6995 17.7129C38.6995 17.8705 38.6503 17.9099 38.5026 17.9099C37.7837 17.9 37.0746 17.9 36.3557 17.9099C36.2179 17.9099 36.1785 17.8803 36.1785 17.7326C36.1785 15.0441 36.1785 12.3556 36.1785 9.67702C36.1785 9.549 36.2179 9.5096 36.3459 9.5096C37.0746 9.51945 37.8034 9.51945 38.5321 9.5096C38.6798 9.5096 38.6995 9.56869 38.6995 9.69671C38.6995 10.6815 38.6995 11.6663 38.6995 12.6412C38.6995 12.7003 38.6995 12.7693 38.6995 12.8283C38.7094 12.8283 38.7291 12.8382 38.7389 12.8382C39.0245 12.4344 39.3101 12.0405 39.5858 11.6367C40.0585 10.9671 40.5312 10.2974 41.0039 9.62778C41.0532 9.55884 41.0827 9.49976 41.191 9.49976C42.0675 9.49976 42.944 9.49976 43.85 9.49976C43.5742 9.86413 43.3182 10.199 43.0621 10.5338C42.3039 11.5284 41.5554 12.5231 40.7971 13.5078C40.7085 13.6162 40.7085 13.6851 40.7971 13.7934C41.8213 15.1229 42.8356 16.4524 43.85 17.7818C43.8795 17.8311 43.8992 17.8606 43.9386 17.9099Z" fill="#005395"/>
</svg>
