<svg width="34" height="34" viewBox="0 0 34 34" fill="none" xmlns="http://www.w3.org/2000/svg">
<circle cx="17.4785" cy="16.5103" r="16" fill="white"/>
<circle cx="17.4785" cy="16.5103" r="16" fill="url(#paint0_linear_1716_18330)"/>
<circle cx="17.4785" cy="16.5103" r="16" stroke="#EEF3FA"/>
<path d="M17.9279 9.29978C17.8796 9.21934 17.8715 9.09065 17.7026 9.11478C17.7026 10.828 17.7026 12.5332 17.7026 14.2303C17.7026 14.3349 17.7026 14.4234 17.8474 14.3751C18.6759 14.4877 19.247 14.914 19.5606 15.6942C19.6491 15.9114 19.5365 16.2331 19.7859 16.3377C19.995 16.4181 20.2604 16.3618 20.5017 16.3618C20.7832 16.3618 21.0648 16.3699 21.3463 16.3618C22.1184 16.3457 22.8825 16.4101 23.6547 16.3216C22.778 15.2358 21.8932 14.1499 21.0165 13.0721C19.9869 11.8093 18.9574 10.5545 17.9279 9.29978Z" fill="#013366"/>
<path d="M20.0754 23.432C21.2417 22.1289 22.4321 20.842 23.6064 19.547C23.8879 19.354 24.1051 19.1127 24.274 18.8231C24.2981 18.7507 24.3383 18.6944 24.4107 18.6703C24.652 18.4451 24.9577 18.2762 25.0703 17.9303C25.1185 17.8821 25.1668 17.8338 25.2151 17.7855C25.3598 17.681 25.4885 17.5523 25.569 17.3914C25.7057 17.2305 25.8424 17.0697 25.9792 16.9169C26.502 16.3377 26.502 16.3377 25.9068 15.7827C25.8344 15.5897 25.6574 15.4691 25.5288 15.3243C24.0729 13.7076 22.6171 12.0909 21.1612 10.4822C20.7591 9.95937 20.3247 9.47677 19.8582 9.01025C19.826 9.03438 19.8019 9.06656 19.7697 9.09069C20.2041 9.60546 20.6464 10.1202 21.0808 10.635C21.491 11.1417 21.9012 11.6565 22.3114 12.1632C23.3973 13.4824 24.4831 14.8015 25.569 16.1206C25.6011 16.2171 25.7861 16.3699 25.4885 16.3699C24.8772 16.3619 24.274 16.3538 23.6627 16.3377C23.5581 16.4825 23.4536 16.6353 23.341 16.7801C22.8021 17.4638 22.2551 18.1475 21.7082 18.8312C21.4588 19.0725 21.2417 19.3379 21.0567 19.6355C20.8395 19.8607 20.6223 20.0779 20.4695 20.3514C20.4534 20.3755 20.4373 20.3996 20.4212 20.4238C19.9547 20.9305 19.5284 21.4613 19.1263 22.0163C19.0056 22.2335 18.523 22.3702 18.9654 22.7161C19.1423 22.9413 19.3434 23.1585 19.4962 23.3998C19.6893 23.6974 19.818 23.7135 20.0754 23.432Z" fill="#013366"/>
<path d="M10.2947 17.8578C11.4449 19.1206 12.5871 20.3834 13.7373 21.6462C14.0671 22.1127 14.4853 22.5069 14.8634 22.9332C15.0805 23.2066 15.2816 23.4801 15.5873 23.6651C15.4183 23.3514 15.2173 23.0779 14.9599 22.8366C14.5818 22.3862 14.2038 21.9358 13.8338 21.4854C13.4799 21.043 13.134 20.6006 12.7801 20.1743C11.7988 18.9758 10.8095 17.7854 9.82018 16.587C9.6754 16.3537 9.84431 16.3698 9.99713 16.3618C10.5763 16.3457 11.1634 16.41 11.7425 16.3296C11.7828 16.4502 11.8471 16.5548 11.9597 16.6191C12.0241 16.7076 12.0723 16.7961 12.1447 16.8765C13.5845 18.6622 15.0323 20.4478 16.4801 22.2254C16.8581 22.6919 17.2442 23.1664 17.6222 23.6329C17.7027 21.9036 17.7027 20.2145 17.7027 18.5174C17.7027 18.3726 17.6383 18.3002 17.5096 18.26C16.7535 18.0106 16.3272 17.4717 16.1342 16.7237C16.0457 15.6539 16.4801 14.8818 17.574 14.4153C16.6248 14.4716 15.917 15.1311 15.7723 16.032C15.732 16.3135 15.6275 16.3618 15.3701 16.3618C14.3003 16.3457 13.2306 16.3537 12.1608 16.3537C12.0321 16.3537 11.8873 16.41 11.7828 16.2894C13.1823 14.5681 14.5818 12.8468 15.9814 11.1255C16.7214 10.2166 16.7214 10.2086 15.909 9.35601C15.7723 9.03428 15.6033 8.9458 15.362 9.28362C15.2655 9.42036 15.1288 9.54101 15.0162 9.6697C14.0992 10.6912 13.1903 11.7127 12.2734 12.7342C11.2036 13.9005 10.1258 15.0748 9.04802 16.2331C8.90324 16.3859 9.01585 16.4663 9.10432 16.5628C9.51453 16.9891 9.90061 17.4235 10.2947 17.8578Z" fill="#013366"/>
<defs>
<linearGradient id="paint0_linear_1716_18330" x1="33.9785" y1="17.0103" x2="26.4785" y2="17.0103" gradientUnits="userSpaceOnUse">
<stop offset="0.801932" stop-color="white"/>
<stop offset="1" stop-color="white" stop-opacity="0"/>
</linearGradient>
</defs>
</svg>
