<svg width="51" height="52" viewBox="0 0 51 52" fill="none" xmlns="http://www.w3.org/2000/svg">
<circle cx="25.5" cy="25.5762" r="25" fill="white" stroke="#EEF3FA"/>
<path d="M39.8945 30.0835C39.841 30.0514 39.7555 30.0675 39.6859 30.0675C34.899 30.0728 30.1122 30.0782 25.3253 30.0835C25.2611 30.0835 25.1862 30.0461 25.1167 30.1317C25.2558 30.2172 25.3895 30.3028 25.5285 30.383C26.181 30.7574 26.8175 31.1693 27.4914 31.5116C27.7321 31.6667 27.9728 31.8271 28.2402 31.9395C28.7804 32.2764 29.3313 32.6027 29.8982 32.8968C30.7219 33.3835 31.5509 33.8649 32.3746 34.3516C32.4601 34.4051 32.535 34.4051 32.6206 34.3516C32.7276 34.2767 32.8452 34.2072 32.9576 34.1377C33.0806 34.0681 33.2089 33.9933 33.3319 33.9237C33.9524 33.5761 34.5835 33.2445 35.1772 32.8487C35.8778 32.485 36.5571 32.0892 37.2256 31.672C37.3059 31.6239 37.3807 31.5651 37.461 31.5223C38.2793 31.1051 39.0548 30.6184 39.8517 30.1638C39.8838 30.1477 39.948 30.1156 39.8945 30.0835Z" fill="#60B3E6"/>
<path d="M26.2024 27.9709C26.5501 27.42 26.871 26.853 27.1758 26.2808C27.593 25.6122 27.9781 24.9276 28.3525 24.2376C28.7643 23.5744 29.1494 22.9005 29.5185 22.2159C29.9838 21.4564 30.4384 20.6916 30.8449 19.8947C31.1177 19.6005 31.2139 19.2047 31.4332 18.8785C31.8076 18.3543 32.0804 17.7713 32.4173 17.2098C32.2783 17.1723 32.2301 17.2953 32.1339 17.2846C32.0911 17.3167 32.0483 17.3488 32.0055 17.3756C31.4867 17.6804 30.9732 17.9799 30.4544 18.2848C30.4437 18.2901 30.433 18.2955 30.4224 18.3008C30.0426 18.5041 29.6629 18.7073 29.2992 18.9427C28.4113 19.4615 27.5235 19.9749 26.6303 20.4937C26.0794 20.7932 25.5232 21.0927 25.0044 21.4457C24.9134 21.7453 24.9348 22.0501 24.9669 22.355C24.983 22.3817 24.999 22.4085 25.0151 22.4245C24.9562 22.4833 24.9455 22.5582 24.9455 22.6331C24.9509 23.4086 24.9241 24.1842 24.9616 24.9597C24.9776 24.9971 24.9937 25.0239 25.0151 25.0453C24.9562 25.0987 24.9455 25.1736 24.9455 25.2485C24.9455 25.901 24.9241 26.5535 24.9562 27.2007C24.9669 27.2381 24.983 27.2702 25.0097 27.2916C24.9188 27.3772 24.9455 27.4949 24.9402 27.6018C24.9241 28.126 25.0204 28.6448 24.9883 29.1689C24.9776 29.3829 24.983 29.5968 24.9883 29.8054C24.9883 29.8589 24.9616 29.9338 25.0525 29.9551C25.4483 29.2973 25.828 28.6341 26.2024 27.9709Z" fill="#60B3E6"/>
<path d="M39.9372 21.4032C39.7447 21.2963 39.5682 21.1465 39.3489 21.0877C39.274 21.0449 39.1885 21.0128 39.1189 20.9647C38.429 20.4833 37.6855 20.0929 36.9474 19.6864C36.3377 19.3066 35.7173 18.9429 35.0808 18.606C34.3534 18.1032 32.7061 17.194 32.5457 17.2047C32.9735 17.9428 33.4068 18.6862 33.84 19.4243C34.1502 19.9591 34.4604 20.4886 34.7706 21.0235C35.1718 21.7188 35.5729 22.4194 35.974 23.1147C36.3859 23.8261 36.7977 24.5374 37.2149 25.2488C37.6 25.928 37.9904 26.6073 38.3755 27.2865C38.5734 27.6235 38.7659 27.9658 38.9638 28.3028C39.2847 28.859 39.6056 29.4206 39.9212 29.9768C39.9479 29.9661 39.9747 29.9554 39.9961 29.9447C39.9961 27.1582 39.9961 24.377 39.9961 21.5904C39.9961 21.5262 40.0228 21.446 39.9372 21.4032Z" fill="#60B3E6"/>
<path d="M10.173 21.4619C10.2907 21.4566 10.403 21.4512 10.5206 21.4512C15.2006 21.4459 19.8858 21.4459 24.5657 21.4405C24.6727 21.4405 24.785 21.478 24.908 21.3817C24.0737 20.9057 23.2874 20.4029 22.4584 19.975C22.0573 19.729 21.6615 19.4669 21.2283 19.2797C20.8325 19.023 20.4314 18.7663 20.0035 18.563C19.6719 18.3598 19.351 18.1298 18.9819 17.9908C18.7894 17.8303 18.5754 17.7073 18.3454 17.6057C18.0994 17.3971 17.7678 17.3222 17.5432 17.0762C17.5271 17.0762 17.5057 17.0762 17.4897 17.0762C17.4362 17.1617 17.3399 17.1938 17.2544 17.242C16.8693 17.472 16.4842 17.6966 16.0991 17.9266C15.1952 18.424 14.302 18.9374 13.4249 19.4723C13.3179 19.5311 13.2109 19.5793 13.104 19.6434C12.1091 20.2157 11.109 20.788 10.1142 21.3656C10.0179 21.4619 10.1356 21.4352 10.173 21.4619Z" fill="#FE1E1B"/>
<path d="M25.0364 29.8054C25.0364 29.7947 25.0364 29.784 25.0364 29.7787C25.0845 29.3348 25.0471 28.8908 25.0364 28.4469C25.0364 28.0565 25.0364 27.6714 25.0364 27.281C25.0364 26.5322 25.0364 25.7834 25.0364 25.0346C25.0364 24.1628 25.0364 23.291 25.0364 22.4139C25.031 22.0876 25.0257 21.7667 25.015 21.4404C24.9668 21.4618 24.9454 21.4993 24.9347 21.5474C24.5924 22.1411 24.2448 22.7294 23.9025 23.3231C23.6832 23.7082 23.4693 24.0933 23.25 24.4784C22.8221 25.1683 22.4156 25.869 22.0359 26.5857C21.6187 27.2489 21.2336 27.9281 20.8592 28.6181C20.7469 28.7625 20.656 28.9176 20.5864 29.0887C20.442 29.292 20.319 29.5113 20.2174 29.7359C20.0462 29.9659 19.9125 30.2226 19.7895 30.4793C19.5595 30.8751 19.3295 31.2709 19.0996 31.6613C19.0889 31.672 19.0835 31.6827 19.0782 31.6988C18.8161 32.116 18.5701 32.5492 18.3401 32.9878C18.0727 33.3568 17.8855 33.774 17.6501 34.1537C17.6073 34.2233 17.5966 34.3677 17.4469 34.2874C17.1046 33.6938 16.7676 33.1054 16.42 32.5118C16.2114 32.1534 16.0242 31.779 15.7782 31.4421C15.3877 30.6719 14.9385 29.9338 14.4945 29.1957C14.1469 28.5432 13.7725 27.9014 13.382 27.2703C13.3232 27.0617 13.1574 26.9173 13.0611 26.7354C12.9649 26.4145 12.7242 26.1738 12.5744 25.8797C12.3658 25.409 12.0824 24.9865 11.8203 24.5479C11.5475 24.013 11.2373 23.5049 10.9218 22.9968C10.7239 22.6278 10.526 22.2587 10.3281 21.8897C10.1997 21.8041 10.2051 21.6009 10.0072 21.526C10.0072 23.0182 10.0072 24.4837 10.0072 25.9492C10.0072 26.4305 10.0125 26.9066 10.0179 27.3879C10.0125 28.2223 10.0072 29.0566 10.0072 29.8857C10.0072 29.9605 9.96973 30.0515 10.066 30.0996C10.5634 30.3831 11.0608 30.6719 11.5582 30.9554C12.43 31.4635 13.3018 31.9662 14.1736 32.4743C15.2487 33.1001 16.3184 33.7205 17.3934 34.3463C17.4629 34.4372 17.5432 34.3891 17.602 34.3516C18.0994 34.0628 18.5968 33.774 19.0942 33.4852C19.6023 33.2178 20.1051 32.9396 20.5811 32.6241C21.0197 32.3887 21.4529 32.1534 21.8701 31.8806C22.1856 31.7202 22.4958 31.5544 22.7847 31.3511C23.0414 31.2281 23.2981 31.0891 23.5281 30.9233C23.7527 30.8163 23.972 30.6986 24.1699 30.5489C24.4534 30.4045 24.7315 30.2654 24.9829 30.0675C25.031 30.0461 25.0524 30.0087 25.0631 29.9605C25.0578 29.9071 25.0364 29.8589 25.0364 29.8054Z" fill="#FE1E1B"/>
</svg>
