<svg width="13" height="20" viewBox="0 0 13 20" fill="none" xmlns="http://www.w3.org/2000/svg">
<path d="M0.73837 19.0763C0.688279 19.015 0.666016 18.9427 0.666016 18.8592C0.671581 18.1579 0.671581 17.4511 0.666016 16.7498C0.666016 16.5884 0.732805 16.5383 0.877514 16.5327C0.905343 16.5327 0.933172 16.5327 0.961 16.5327C4.85146 16.5327 8.74192 16.5327 12.6379 16.5327C12.855 16.5327 12.9218 16.5939 12.9218 16.811C12.9218 17.4566 12.9218 18.1023 12.9218 18.7534C12.9218 18.8703 12.8995 18.9761 12.8494 19.0763C8.81427 19.0763 4.77354 19.0763 0.73837 19.0763Z" fill="#E52522"/>
<path d="M12.4431 11.7795C12.1704 11.0281 11.9032 10.2767 11.625 9.52535C11.1463 8.20627 10.6621 6.88718 10.1779 5.57367C9.81052 4.56627 9.42649 3.57 9.06471 2.5626C8.89217 2.08394 8.73633 1.59416 8.50257 1.13777C8.3356 0.80382 8.1074 0.519967 7.78459 0.3196C7.47291 0.124799 7.1334 0.0580101 6.79945 0.0802731C6.64361 0.0802731 6.5156 0.0802731 6.39315 0.0802731C6.37646 0.0802731 6.35976 0.0914046 6.34306 0.0914046C5.60838 0.24168 5.16869 0.748163 4.91266 1.40492C4.42288 2.67391 3.97205 3.95403 3.50453 5.22859C3.02031 6.54767 2.54166 7.86119 2.05744 9.18027C1.74019 10.043 1.42851 10.9112 1.11126 11.7739C1.05003 11.9353 1.11682 12.0244 1.2504 12.08C1.87377 12.3305 2.50269 12.5754 3.12606 12.8147C3.32086 12.8871 3.40991 12.8314 3.48783 12.6255C3.74942 11.9186 4.01101 11.2118 4.26704 10.4994C4.30043 10.3992 4.34496 10.3769 4.43401 10.3825C4.6789 10.388 4.92936 10.3825 5.17425 10.3825C6.48777 10.3825 7.80129 10.3825 9.1148 10.3825C9.19272 10.3825 9.24838 10.3713 9.28734 10.4827C9.54893 11.2173 9.82165 11.952 10.0944 12.6867C10.1445 12.8258 10.2224 12.8815 10.3727 12.8258C11.0183 12.5921 11.6584 12.3305 12.2984 12.0856C12.4654 12.0244 12.4988 11.9298 12.4431 11.7795ZM5.1186 8.11165C5.66961 6.45305 6.22061 4.80559 6.78275 3.11917C7.3449 4.80003 7.8959 6.45305 8.45248 8.11165C7.33376 8.11165 6.23731 8.11165 5.1186 8.11165Z" fill="#E52522"/>
</svg>
