<svg width="34" height="28" viewBox="0 0 34 28" fill="none" xmlns="http://www.w3.org/2000/svg">
<path d="M20.5483 0.220215C20.9412 0.347628 21.3341 0.448497 21.6844 0.682088C22.7781 1.41471 23.2346 2.77379 22.7834 4.01076C22.3321 5.24773 21.1058 5.98566 19.7361 5.8317C18.4832 5.69367 17.4639 4.65313 17.3205 3.35776C17.156 1.89782 18.1328 0.565292 19.5821 0.267995C19.6246 0.257377 19.6618 0.236141 19.6989 0.220215C19.9856 0.220215 20.267 0.220215 20.5483 0.220215Z" fill="#155E9B"/>
<path d="M14.1828 0.220215C14.4642 0.331701 14.7668 0.390099 15.0375 0.533439C16.232 1.15458 16.8213 2.51365 16.4603 3.83025C16.1205 5.06191 14.9207 5.91664 13.6307 5.84763C12.1283 5.768 11.0559 4.72746 10.9284 3.21973C10.8117 1.83942 11.7832 0.57591 13.2006 0.267995C13.2378 0.262686 13.2697 0.257377 13.2856 0.220215C13.5829 0.220215 13.8855 0.220215 14.1828 0.220215Z" fill="#155E9B"/>
<path d="M0.454102 18.0422C1.58489 18.1325 2.64667 18.2068 3.70845 18.3077C5.16839 18.4457 6.62302 18.5837 8.06704 18.8226C10.1747 19.173 12.0859 19.9428 13.6467 21.4558C15.027 22.799 15.8711 24.4394 16.3011 26.3029C16.3861 26.6639 16.4445 27.0302 16.4816 27.3965C16.4975 27.5451 16.4551 27.5823 16.317 27.577C14.581 27.5345 12.8344 27.6142 11.0984 27.492C9.44735 27.3806 7.95024 26.7541 6.57524 25.841C4.30835 24.3386 2.58296 22.369 1.49995 19.8526C1.23982 19.2367 0.894739 18.6528 0.454102 18.0422Z" fill="#00B74A"/>
<path d="M33.4541 18.0527C32.4879 19.3003 32.1003 20.7974 31.219 22.0344C29.5892 24.3172 27.5665 26.0851 24.8962 27.046C23.9406 27.3911 22.9531 27.5397 21.9391 27.545C20.5163 27.5556 19.0935 27.5609 17.6761 27.5822C17.4372 27.5875 17.4053 27.5025 17.4319 27.2955C17.9415 23.4943 20.288 20.1179 24.8006 19.0349C26.1968 18.7004 27.6196 18.5677 29.0424 18.419C30.4811 18.2704 31.9304 18.1483 33.4541 18.0527Z" fill="#00B74A"/>
<path d="M26.972 8.09326C26.972 9.67531 25.7138 10.9282 24.1318 10.9282C22.5709 10.9282 21.3127 9.66469 21.3127 8.09857C21.3127 6.53776 22.5763 5.26363 24.1318 5.25832C25.7085 5.25301 26.972 6.51652 26.972 8.09326Z" fill="#155E9B"/>
<path d="M22.7461 11.5545C24.3228 11.5545 25.5969 12.8286 25.5757 14.3735C25.5545 15.9608 24.2857 17.1819 22.6664 17.1819C21.1322 17.1766 19.8952 15.8971 19.9058 14.3257C19.9111 12.7702 21.1587 11.5492 22.7461 11.5545Z" fill="#155E9B"/>
<path d="M6.89917 8.0932C6.89917 6.53239 8.16799 5.25826 9.7235 5.25295C11.2843 5.24764 12.5425 6.52708 12.5425 8.11443C12.5425 9.66463 11.2737 10.9281 9.7235 10.9228C8.16268 10.9228 6.89917 9.65401 6.89917 8.0932Z" fill="#155E9B"/>
<path d="M11.2364 11.5544C12.8237 11.5544 14.0554 12.7755 14.0554 14.3416C14.0554 15.9343 12.8237 17.1819 11.2576 17.1819C9.67558 17.1819 8.40145 15.913 8.40675 14.3469C8.41206 12.7914 9.66496 11.5544 11.2364 11.5544Z" fill="#155E9B"/>
<path d="M16.9382 14.2568C18.4831 14.2568 19.7466 15.5203 19.7466 17.0652C19.7466 18.6048 18.4884 19.8843 16.9701 19.8843C15.3827 19.8843 14.1245 18.6367 14.1245 17.0546C14.1245 15.5044 15.3774 14.2568 16.9382 14.2568Z" fill="#155E9B"/>
</svg>
