<svg width="30" height="18" viewBox="0 0 30 18" fill="none" xmlns="http://www.w3.org/2000/svg">
<path d="M29.8943 13.0835C29.8408 13.0514 29.7552 13.0675 29.6857 13.0675C24.8988 13.0728 20.1119 13.0782 15.325 13.0835C15.2609 13.0835 15.186 13.0461 15.1165 13.1317C15.2555 13.2172 15.3892 13.3028 15.5283 13.383C16.1808 13.7574 16.8173 14.1693 17.4912 14.5116C17.7319 14.6667 17.9725 14.8271 18.24 14.9395C18.7802 15.2764 19.331 15.6027 19.898 15.8968C20.7216 16.3835 21.5507 16.8649 22.3743 17.3516C22.4599 17.4051 22.5348 17.4051 22.6204 17.3516C22.7273 17.2767 22.845 17.2072 22.9573 17.1377C23.0803 17.0681 23.2087 16.9933 23.3317 16.9237C23.9521 16.5761 24.5832 16.2445 25.1769 15.8487C25.8776 15.485 26.5568 15.0892 27.2254 14.672C27.3056 14.6239 27.3805 14.5651 27.4607 14.5223C28.279 14.1051 29.0546 13.6184 29.8515 13.1638C29.8836 13.1477 29.9478 13.1156 29.8943 13.0835Z" fill="#60B3E6"/>
<path d="M16.2023 10.9709C16.5499 10.42 16.8708 9.85304 17.1757 9.28075C17.5929 8.61219 17.978 7.92759 18.3524 7.23764C18.7642 6.57443 19.1493 5.90052 19.5183 5.21592C19.9837 4.45643 20.4383 3.6916 20.8448 2.89468C21.1175 2.60052 21.2138 2.20473 21.4331 1.87847C21.8075 1.35432 22.0803 0.771341 22.4172 0.209752C22.2781 0.172313 22.23 0.295328 22.1337 0.284631C22.091 0.316722 22.0482 0.348812 22.0054 0.375555C21.4866 0.680417 20.9731 0.979932 20.4543 1.28479C20.4436 1.29014 20.4329 1.29549 20.4222 1.30084C20.0425 1.50408 19.6627 1.70732 19.2991 1.94266C18.4112 2.46146 17.5234 2.97491 16.6302 3.49371C16.0793 3.79323 15.523 4.09274 15.0042 4.44574C14.9133 4.74525 14.9347 5.05011 14.9668 5.35498C14.9828 5.38172 14.9989 5.40846 15.0149 5.42451C14.9561 5.48334 14.9454 5.55822 14.9454 5.6331C14.9508 6.40863 14.924 7.18415 14.9614 7.95968C14.9775 7.99712 14.9935 8.02386 15.0149 8.04526C14.9561 8.09874 14.9454 8.17362 14.9454 8.2485C14.9454 8.90101 14.924 9.55352 14.9561 10.2007C14.9668 10.2381 14.9828 10.2702 15.0096 10.2916C14.9187 10.3772 14.9454 10.4949 14.9401 10.6018C14.924 11.126 15.0203 11.6448 14.9882 12.1689C14.9775 12.3829 14.9828 12.5968 14.9882 12.8054C14.9882 12.8589 14.9614 12.9338 15.0524 12.9551C15.4482 12.2973 15.8279 11.6341 16.2023 10.9709Z" fill="#60B3E6"/>
<path d="M29.9372 4.40323C29.7447 4.29626 29.5682 4.1465 29.3489 4.08767C29.274 4.04488 29.1885 4.01279 29.1189 3.96466C28.429 3.48329 27.6855 3.09286 26.9474 2.68637C26.3377 2.30663 25.7173 1.94294 25.0808 1.60598C24.3534 1.10323 22.7061 0.193986 22.5457 0.204683C22.9735 0.942772 23.4068 1.68621 23.84 2.4243C24.1502 2.95914 24.4604 3.48864 24.7706 4.02349C25.1718 4.71879 25.5729 5.41944 25.974 6.11474C26.3859 6.82609 26.7977 7.53743 27.2149 8.24878C27.6 8.92803 27.9904 9.60729 28.3755 10.2865C28.5734 10.6235 28.7659 10.9658 28.9638 11.3028C29.2847 11.859 29.6056 12.4206 29.9212 12.9768C29.9479 12.9661 29.9747 12.9554 29.9961 12.9447C29.9961 10.1582 29.9961 7.37698 29.9961 4.59043C29.9961 4.52624 30.0228 4.44602 29.9372 4.40323Z" fill="#60B3E6"/>
<path d="M0.172992 4.46191C0.290659 4.45657 0.402976 4.45122 0.520643 4.45122C5.20055 4.44587 9.88581 4.44587 14.5657 4.44052C14.6727 4.44052 14.785 4.47796 14.908 4.38169C14.0737 3.90567 13.2874 3.40292 12.4584 2.97504C12.0573 2.72901 11.6615 2.46694 11.2283 2.27974C10.8325 2.02301 10.4314 1.76629 10.0035 1.56305C9.67187 1.3598 9.35096 1.12982 8.98192 0.99076C8.78937 0.830306 8.57543 0.707291 8.34545 0.60567C8.09942 0.39708 7.76781 0.322201 7.54318 0.0761719C7.52713 0.0761719 7.50574 0.0761719 7.48969 0.0761719C7.43621 0.161747 7.33994 0.193838 7.25436 0.241974C6.86927 0.471958 6.48418 0.696594 6.09909 0.926578C5.1952 1.42399 4.30201 1.93744 3.42486 2.47229C3.31789 2.53112 3.21092 2.57925 3.10395 2.64344C2.10914 3.21572 1.10897 3.78801 0.114157 4.36564C0.0178849 4.46192 0.135553 4.43517 0.172992 4.46191Z" fill="#FE1E1B"/>
<path d="M15.0364 12.8054C15.0364 12.7947 15.0364 12.784 15.0364 12.7787C15.0845 12.3348 15.0471 11.8908 15.0364 11.4469C15.0364 11.0565 15.0364 10.6714 15.0364 10.281C15.0364 9.53217 15.0364 8.78338 15.0364 8.0346C15.0364 7.1628 15.0364 6.291 15.0364 5.41385C15.031 5.08759 15.0257 4.76669 15.015 4.44043C14.9668 4.46182 14.9454 4.49926 14.9347 4.5474C14.5924 5.14108 14.2448 5.72941 13.9025 6.32309C13.6832 6.70818 13.4693 7.09327 13.25 7.47836C12.8221 8.16831 12.4156 8.86896 12.0359 9.58565C11.6187 10.2489 11.2336 10.9281 10.8592 11.6181C10.7469 11.7625 10.656 11.9176 10.5864 12.0887C10.442 12.292 10.319 12.5113 10.2174 12.7359C10.0462 12.9659 9.91253 13.2226 9.78951 13.4793C9.55953 13.8751 9.32954 14.2709 9.09956 14.6613C9.08886 14.672 9.08352 14.6827 9.07817 14.6988C8.81609 15.116 8.57006 15.5492 8.34008 15.9878C8.07266 16.3568 7.88546 16.774 7.65013 17.1537C7.60734 17.2233 7.59664 17.3677 7.44688 17.2874C7.10458 16.6938 6.76763 16.1054 6.41998 15.5118C6.21139 15.1534 6.02419 14.779 5.77816 14.4421C5.38772 13.6719 4.93845 12.9338 4.49453 12.1957C4.14688 11.5432 3.77249 10.9014 3.38205 10.2703C3.32322 10.0617 3.15741 9.91726 3.06114 9.73541C2.96487 9.4145 2.72419 9.17382 2.57443 8.87966C2.36584 8.40899 2.08237 7.98646 1.8203 7.54789C1.54752 7.01304 1.23731 6.50494 0.921755 5.99683C0.723862 5.62779 0.525967 5.25875 0.328073 4.8897C0.19971 4.80413 0.205059 4.60088 0.00716531 4.52601C0.00716531 6.01823 0.00716531 7.48371 0.00716531 8.94919C0.00716531 9.43055 0.0125144 9.90656 0.0178629 10.3879C0.0125144 11.2223 0.00716531 12.0566 0.00716531 12.8857C0.00716531 12.9605 -0.030272 13.0515 0.0660004 13.0996C0.563408 13.3831 1.06081 13.6719 1.55822 13.9554C2.43002 14.4635 3.30182 14.9662 4.17362 15.4743C5.24866 16.1001 6.31836 16.7205 7.3934 17.3463C7.46293 17.4372 7.54316 17.3891 7.60199 17.3516C8.0994 17.0628 8.5968 16.774 9.09421 16.4852C9.60232 16.2178 10.1051 15.9396 10.5811 15.6241C11.0197 15.3887 11.4529 15.1534 11.8701 14.8806C12.1856 14.7202 12.4958 14.5544 12.7847 14.3511C13.0414 14.2281 13.2981 14.0891 13.5281 13.9233C13.7527 13.8163 13.972 13.6986 14.1699 13.5489C14.4534 13.4045 14.7315 13.2654 14.9829 13.0675C15.031 13.0461 15.0524 13.0087 15.0631 12.9605C15.0578 12.9071 15.0364 12.8589 15.0364 12.8054Z" fill="#FE1E1B"/>
</svg>
