<svg width="19" height="15" viewBox="0 0 19 15" fill="none" xmlns="http://www.w3.org/2000/svg">
<path d="M9.92785 0.299778C9.87959 0.219345 9.87155 0.0906515 9.70264 0.114781C9.70264 1.82801 9.70264 3.5332 9.70264 5.23035C9.70264 5.33491 9.70264 5.42339 9.84742 5.37513C10.6759 5.48773 11.247 5.91403 11.5606 6.69423C11.6491 6.9114 11.5365 7.23314 11.7859 7.3377C11.995 7.41813 12.2604 7.36183 12.5017 7.36183C12.7832 7.36183 13.0648 7.36987 13.3463 7.36183C14.1184 7.34574 14.8825 7.41009 15.6547 7.32161C14.778 6.23576 13.8932 5.14991 13.0165 4.0721C11.9869 2.8093 10.9574 1.55454 9.92785 0.299778Z" fill="#013366"/>
<path d="M12.0754 14.432C13.2417 13.1289 14.4321 11.842 15.6064 10.547C15.8879 10.354 16.1051 10.1127 16.274 9.82313C16.2981 9.75074 16.3383 9.69443 16.4107 9.6703C16.652 9.44509 16.9577 9.27618 17.0703 8.93032C17.1185 8.88206 17.1668 8.8338 17.2151 8.78554C17.3598 8.68097 17.4885 8.55228 17.569 8.39141C17.7057 8.23055 17.8424 8.06968 17.9792 7.91686C18.502 7.33774 18.502 7.33774 17.9068 6.78275C17.8344 6.58971 17.6574 6.46906 17.5288 6.32428C16.0729 4.70756 14.6171 3.09085 13.1612 1.48218C12.7591 0.959368 12.3247 0.476768 11.8582 0.0102539C11.826 0.0343839 11.8019 0.0665573 11.7697 0.0906873C12.2041 0.605461 12.6464 1.12023 13.0808 1.63501C13.491 2.14174 13.9012 2.65651 14.3114 3.16324C15.3973 4.48235 16.4831 5.80146 17.569 7.12057C17.6011 7.21709 17.7861 7.36991 17.4885 7.36991C16.8772 7.36187 16.274 7.35382 15.6627 7.33774C15.5581 7.48252 15.4536 7.63534 15.341 7.78012C14.8021 8.4638 14.2551 9.14749 13.7082 9.83117C13.4588 10.0725 13.2417 10.3379 13.0567 10.6355C12.8395 10.8607 12.6223 11.0779 12.4695 11.3514C12.4534 11.3755 12.4373 11.3996 12.4212 11.4238C11.9547 11.9305 11.5284 12.4613 11.1263 13.0163C11.0056 13.2335 10.523 13.3702 10.9654 13.7161C11.1423 13.9413 11.3434 14.1585 11.4962 14.3998C11.6893 14.6974 11.818 14.7135 12.0754 14.432Z" fill="#013366"/>
<path d="M2.29474 8.85782C3.44493 10.1206 4.58709 11.3834 5.73729 12.6462C6.06706 13.1127 6.48532 13.5069 6.86335 13.9332C7.08052 14.2066 7.28161 14.4801 7.58725 14.6651C7.41834 14.3514 7.21726 14.0779 6.95987 13.8366C6.58184 13.3862 6.2038 12.9358 5.83381 12.4854C5.4799 12.043 5.13404 11.6006 4.78013 11.1743C3.79884 9.97584 2.80951 8.78543 1.82018 7.58697C1.6754 7.35372 1.84431 7.3698 1.99713 7.36176C2.57625 7.34567 3.16342 7.41002 3.74254 7.32959C3.78275 7.45024 3.8471 7.5548 3.95971 7.61915C4.02405 7.70762 4.07231 7.7961 4.14471 7.87653C5.58446 9.66216 7.03226 11.4478 8.48007 13.2254C8.8581 13.6919 9.24418 14.1664 9.62222 14.6329C9.70265 12.9036 9.70265 11.2145 9.70265 9.51737C9.70265 9.37259 9.63831 9.3002 9.50961 9.25999C8.75354 9.01064 8.32724 8.47174 8.1342 7.72371C8.04572 6.65395 8.48007 5.88179 9.57396 5.41527C8.62485 5.47158 7.91703 6.13113 7.77225 7.03198C7.73203 7.3135 7.62747 7.36176 7.37008 7.36176C6.30032 7.34567 5.23056 7.35372 4.16079 7.35372C4.0321 7.35372 3.88732 7.41002 3.78275 7.28937C5.1823 5.56809 6.58184 3.84682 7.98138 2.12555C8.72136 1.21665 8.72137 1.20861 7.90899 0.356011C7.77225 0.0342775 7.60334 -0.0541992 7.36204 0.283621C7.26552 0.420358 7.12878 0.541008 7.01618 0.669701C6.09924 1.69121 5.19034 2.71271 4.2734 3.73421C3.20363 4.9005 2.12583 6.07483 1.04802 7.23307C0.903239 7.38589 1.01585 7.46632 1.10432 7.56284C1.51453 7.98914 1.90061 8.42348 2.29474 8.85782Z" fill="#013366"/>
</svg>
