<svg width="52" height="52" viewBox="0 0 52 52" fill="none" xmlns="http://www.w3.org/2000/svg">
<circle cx="25.954" cy="25.7202" r="25" fill="white" stroke="#EEF3FA"/>
<path d="M29.5481 12.2202C29.941 12.3476 30.3338 12.4485 30.6842 12.6821C31.7778 13.4147 32.2344 14.7738 31.7831 16.0108C31.3319 17.2477 30.1055 17.9857 28.7358 17.8317C27.4829 17.6937 26.4636 16.6531 26.3203 15.3578C26.1557 13.8978 27.1326 12.5653 28.5819 12.268C28.6244 12.2574 28.6615 12.2361 28.6987 12.2202C28.9854 12.2202 29.2667 12.2202 29.5481 12.2202Z" fill="#155E9B"/>
<path d="M23.1828 12.2202C23.4642 12.3317 23.7668 12.3901 24.0375 12.5334C25.232 13.1546 25.8213 14.5137 25.4603 15.8303C25.1205 17.0619 23.9207 17.9166 22.6307 17.8476C21.1283 17.768 20.0559 16.7275 19.9284 15.2197C19.8117 13.8394 20.7832 12.5759 22.2006 12.268C22.2378 12.2627 22.2697 12.2574 22.2856 12.2202C22.5829 12.2202 22.8855 12.2202 23.1828 12.2202Z" fill="#155E9B"/>
<path d="M9.45398 30.0422C10.5848 30.1325 11.6465 30.2068 12.7083 30.3077C14.1683 30.4457 15.6229 30.5837 17.0669 30.8226C19.1745 31.173 21.0857 31.9428 22.6466 33.4558C24.0269 34.799 24.871 36.4394 25.301 38.3029C25.3859 38.6639 25.4443 39.0302 25.4815 39.3965C25.4974 39.5451 25.4549 39.5823 25.3169 39.577C23.5809 39.5345 21.8343 39.6142 20.0983 39.492C18.4472 39.3806 16.9501 38.7541 15.5751 37.841C13.3082 36.3386 11.5828 34.369 10.4998 31.8526C10.2397 31.2367 9.89462 30.6528 9.45398 30.0422Z" fill="#00B74A"/>
<path d="M42.4539 30.0527C41.4877 31.3003 41.1002 32.7974 40.2189 34.0344C38.5891 36.3172 36.5664 38.0851 33.896 39.046C32.9404 39.3911 31.953 39.5397 30.939 39.545C29.5162 39.5556 28.0934 39.5609 26.676 39.5822C26.4371 39.5875 26.4052 39.5025 26.4317 39.2955C26.9414 35.4943 29.2879 32.1179 33.8005 31.0349C35.1967 30.7004 36.6195 30.5677 38.0423 30.419C39.481 30.2704 40.9303 30.1483 42.4539 30.0527Z" fill="#00B74A"/>
<path d="M35.9719 20.0933C35.9719 21.6753 34.7137 22.9282 33.1316 22.9282C31.5708 22.9282 30.3126 21.6647 30.3126 20.0986C30.3126 18.5378 31.5761 17.2636 33.1316 17.2583C34.7084 17.253 35.9719 18.5165 35.9719 20.0933Z" fill="#155E9B"/>
<path d="M31.746 23.5545C33.3227 23.5545 34.5968 24.8286 34.5756 26.3735C34.5544 27.9608 33.2855 29.1819 31.6663 29.1819C30.1321 29.1766 28.8951 27.8971 28.9057 26.3257C28.911 24.7702 30.1586 23.5492 31.746 23.5545Z" fill="#155E9B"/>
<path d="M15.8989 20.0932C15.8989 18.5324 17.1677 17.2583 18.7233 17.2529C20.2841 17.2476 21.5423 18.5271 21.5423 20.1144C21.5423 21.6646 20.2734 22.9281 18.7233 22.9228C17.1624 22.9228 15.8989 21.654 15.8989 20.0932Z" fill="#155E9B"/>
<path d="M20.2364 23.5544C21.8237 23.5544 23.0554 24.7755 23.0554 26.3416C23.0554 27.9343 21.8237 29.1819 20.2576 29.1819C18.6756 29.1819 17.4014 27.913 17.4068 26.3469C17.4121 24.7914 18.665 23.5544 20.2364 23.5544Z" fill="#155E9B"/>
<path d="M25.9381 26.2568C27.483 26.2568 28.7465 27.5203 28.7465 29.0652C28.7465 30.6048 27.4883 31.8843 25.9699 31.8843C24.3826 31.8843 23.1244 30.6367 23.1244 29.0546C23.1244 27.5044 24.3773 26.2568 25.9381 26.2568Z" fill="#155E9B"/>
</svg>
