<svg width="101" height="101" viewBox="0 0 101 101" fill="none" xmlns="http://www.w3.org/2000/svg">
<circle cx="50.5" cy="50.5" r="50" fill="white" stroke="#EEF3FA"/>
<path d="M39.3574 42.318C39.5523 41.5898 39.6138 40.8308 39.8395 40.0924C41.3266 35.2206 45.7164 31.9796 50.824 32.0001C51.1933 32.0001 51.2753 32.1129 51.2651 32.4616C51.2446 33.6001 51.2446 34.7385 51.2651 35.877C51.2753 36.2462 51.142 36.318 50.8035 36.318C47.1933 36.3898 44.4138 38.7796 43.7984 42.318C43.101 46.2975 46.342 50.2564 50.4035 50.3795C51.2651 50.4103 51.2651 50.4103 51.2651 51.2513C51.2651 52.4205 51.2548 53.5898 51.2446 54.7692C51.0702 54.7692 50.9061 54.7692 50.7317 54.7692C50.3215 54.6462 49.8907 54.7487 49.4805 54.718C47.2959 54.5539 45.3882 53.7128 43.6856 52.4C41.501 50.7077 40.1266 48.5026 39.5113 45.8257C39.3882 45.3129 39.4702 44.7795 39.3574 44.2667C39.3574 43.6103 39.3574 42.9642 39.3574 42.318Z" fill="#E94450"/>
<path d="M53.0805 51.4977C53.0805 50.6361 53.0702 49.7643 53.0907 48.9028C53.0907 48.6361 53.0087 48.5541 52.742 48.5541C52.0446 48.5643 51.3369 48.5746 50.6394 48.5541C47.8395 48.4823 45.5933 46.2054 45.5318 43.4054C45.4805 40.6567 47.6651 38.2875 50.4446 38.1131C51.1728 38.0721 51.9112 38.0618 52.6497 38.0823C53.0189 38.0926 53.101 37.9695 53.0907 37.6208C53.0702 35.9695 53.101 34.3285 53.0702 32.6772C53.0599 32.2362 53.183 32.1952 53.583 32.2977C59.1215 33.6618 62.8035 38.9644 62.1266 44.6054C61.5522 49.4054 58.1779 53.231 53.5317 54.4002C53.1625 54.4925 53.0599 54.4412 53.0702 54.0515C53.101 53.2002 53.0805 52.3489 53.0805 51.4977Z" fill="#203D8C"/>
<path d="M55.1224 64.1732C55.3805 63.8309 55.6274 63.5055 55.8687 63.18C56.5309 62.3046 57.193 61.4292 57.844 60.5426C57.9618 60.3855 58.0852 60.3126 58.2873 60.3294C58.4893 60.3462 58.6969 60.3518 58.9045 60.3294C59.1458 60.3069 59.2188 60.3743 59.2188 60.6268C59.2075 62.1868 59.2131 63.7524 59.2131 65.3124C59.2131 66.0755 59.2075 66.8387 59.2188 67.6019C59.2188 67.787 59.1683 67.8431 58.9831 67.8319C58.7306 67.8151 58.478 67.8151 58.2255 67.8319C58.0179 67.8488 57.9842 67.7646 57.9842 67.5794C57.9898 65.924 57.9898 64.2686 57.9898 62.6133C57.9898 62.5235 57.9898 62.4337 57.9898 62.3327C57.8608 62.372 57.8327 62.4674 57.7766 62.5347C57.064 63.4774 56.3513 64.4202 55.6386 65.3629C55.431 65.6378 54.8081 65.6322 54.6005 65.3573C53.8935 64.4202 53.192 63.483 52.4906 62.5459C52.4401 62.473 52.384 62.4056 52.283 62.2766C52.283 62.4393 52.283 62.5291 52.283 62.6189C52.283 64.263 52.2774 65.9128 52.2886 67.557C52.2886 67.7758 52.2381 67.8544 52.0136 67.8319C51.6994 67.7983 51.2785 67.961 51.1046 67.7702C50.9475 67.6019 51.0541 67.1866 51.0541 66.8836C51.0541 64.7905 51.0541 62.6974 51.0485 60.6044C51.0485 60.3911 51.1046 60.3518 51.3178 60.3182C52.0136 60.2116 52.4345 60.4921 52.8161 61.0645C53.4782 62.0521 54.2302 62.9836 54.9428 63.9376C54.9877 64.0161 55.0494 64.0835 55.1224 64.1732Z" fill="#203D8C"/>
<path d="M76.5638 64.0611C76.5638 62.8995 76.5695 61.738 76.5582 60.5764C76.5582 60.38 76.6031 60.3183 76.8051 60.3295C77.0576 60.3463 77.3102 60.3463 77.5627 60.3295C77.7591 60.3183 77.8152 60.3744 77.8152 60.5708C77.804 61.4349 77.8152 62.2991 77.804 63.1633C77.804 63.3653 77.8432 63.4326 78.0621 63.4326C79.3415 63.4214 80.6209 63.4214 81.9003 63.4326C82.136 63.4326 82.1697 63.3484 82.1697 63.1464C82.1585 62.2991 82.1753 61.4518 82.1585 60.6101C82.1529 60.3688 82.2314 60.307 82.4559 60.3295C82.6859 60.3463 82.9216 60.3519 83.1573 60.3295C83.3818 60.307 83.4098 60.3968 83.4098 60.5932C83.4042 62.6695 83.4042 64.7401 83.4042 66.8163C83.4042 67.0857 83.3986 67.355 83.4098 67.6244C83.4154 67.7759 83.3818 67.8432 83.2134 67.832C82.9328 67.8208 82.6523 67.8152 82.3717 67.832C82.1865 67.8432 82.1585 67.7703 82.1585 67.6075C82.1641 66.6985 82.1585 65.7838 82.1641 64.8748C82.1641 64.684 82.1248 64.6222 81.9228 64.6222C80.6321 64.6335 79.3415 64.6335 78.0565 64.6222C77.832 64.6222 77.7984 64.7008 77.804 64.8972C77.8152 65.8007 77.804 66.6985 77.8096 67.6019C77.8096 67.7871 77.7591 67.8432 77.5795 67.832C77.327 67.8152 77.0745 67.8152 76.822 67.832C76.62 67.8488 76.5582 67.7927 76.5582 67.5795C76.5695 66.4067 76.5638 65.2339 76.5638 64.0611Z" fill="#203D8C"/>
<path d="M41.8963 67.8318C41.3407 67.8318 40.8581 67.8262 40.3755 67.8374C40.224 67.843 40.1679 67.7364 40.0894 67.6466C39.2701 66.6815 38.4452 65.7163 37.6315 64.7455C37.5137 64.5996 37.3902 64.5435 37.2051 64.5491C36.9077 64.5603 36.6046 64.5659 36.3072 64.5491C36.094 64.5379 36.0154 64.594 36.0211 64.8241C36.0379 65.7331 36.0211 66.6478 36.0323 67.5569C36.0323 67.7589 35.9986 67.8655 35.7629 67.8374C35.4487 67.8038 35.039 67.9665 34.8483 67.7701C34.6687 67.5905 34.8034 67.1865 34.7978 66.8835C34.7921 64.8016 34.8034 62.7198 34.7921 60.6323C34.7921 60.3798 34.8595 60.3068 35.1064 60.3293C35.3196 60.3517 35.5385 60.3517 35.7517 60.3293C35.9986 60.3012 36.0379 60.4022 36.0379 60.6267C36.0267 61.474 36.0435 62.3214 36.0267 63.1631C36.0211 63.3931 36.0996 63.4437 36.3128 63.4324C36.6944 63.4156 37.1321 63.5334 37.4464 63.3875C37.7718 63.236 37.9851 62.8432 38.2432 62.5458C38.8436 61.8612 39.444 61.171 40.0445 60.4864C40.1118 60.4135 40.1623 60.3293 40.2914 60.3293C40.7852 60.3349 41.2734 60.3293 41.8289 60.3293C41.3127 60.9017 40.8413 61.4291 40.3643 61.9566C39.8144 62.5683 39.2701 63.1799 38.7146 63.7803C38.5799 63.9262 38.6023 64.0104 38.7202 64.1451C39.6909 65.2618 40.6617 66.3841 41.6269 67.5063C41.6999 67.5961 41.7784 67.6915 41.8963 67.8318Z" fill="#203D8C"/>
<path d="M92.0964 60.3349C91.0358 61.5077 90.0369 62.6243 89.0269 63.7298C88.8641 63.9094 88.8585 64.0104 89.0213 64.1956C90.0089 65.3235 90.9853 66.4626 91.9673 67.5961C92.0234 67.6578 92.0739 67.7252 92.1581 67.8262C91.5969 67.8262 91.0807 67.8262 90.5644 67.8262C90.4634 67.8262 90.4297 67.7308 90.3792 67.669C89.56 66.7039 88.7351 65.7443 87.927 64.7679C87.7867 64.5996 87.6465 64.5266 87.4276 64.5435C87.1583 64.5603 86.8833 64.5659 86.614 64.5435C86.3783 64.5266 86.2941 64.5884 86.2997 64.8409C86.3165 65.7443 86.2997 66.6421 86.3109 67.5456C86.3165 67.7869 86.238 67.8486 86.0135 67.8318C85.7722 67.8093 85.5253 67.8149 85.284 67.8318C85.0989 67.843 85.0708 67.7757 85.0708 67.6073C85.0764 65.2561 85.0764 62.9049 85.0708 60.5537C85.0708 60.3629 85.1325 60.318 85.3065 60.3293C85.559 60.3405 85.8115 60.3461 86.064 60.3293C86.2717 60.3124 86.3109 60.3966 86.3053 60.5818C86.2941 61.4459 86.3109 62.3101 86.2941 63.1743C86.2885 63.3875 86.3558 63.4436 86.5578 63.4324C86.8721 63.4156 87.1919 63.4212 87.5118 63.4324C87.6801 63.438 87.7868 63.3763 87.8934 63.2528C88.6846 62.3382 89.4926 61.4347 90.2839 60.52C90.4073 60.3798 90.5308 60.3236 90.7159 60.3293C91.1536 60.3405 91.5857 60.3349 92.0964 60.3349Z" fill="#203D8C"/>
<path d="M14.069 67.9664C12.6998 67.9384 11.5213 67.54 10.7526 66.4065C9.84913 65.0878 9.77057 63.6456 10.4552 62.2203C11.1173 60.8343 12.3294 60.2395 13.8333 60.1665C14.8938 60.116 15.8646 60.391 16.7344 61.0026C16.914 61.1261 16.9701 61.2215 16.7905 61.401C16.6166 61.5694 16.4707 61.7658 16.3304 61.9622C16.235 62.0969 16.1676 62.1081 16.0274 62.0015C15.281 61.4572 14.4393 61.2215 13.519 61.373C12.1106 61.6087 11.2464 62.7366 11.3137 64.1843C11.426 66.558 13.5527 67.1247 15.0846 66.6197C15.4943 66.485 15.8815 66.2886 16.2069 66.008C16.3528 65.879 16.4089 65.9239 16.4987 66.0473C16.6502 66.2606 16.8017 66.4738 16.9701 66.6702C17.0991 66.8161 17.0542 66.9003 16.9252 67.0013C16.2294 67.5456 15.4325 67.8318 14.5628 67.9328C14.3832 67.9552 14.2036 67.9608 14.069 67.9664Z" fill="#203D8C"/>
<path d="M32.4016 63.9656C32.3847 63.96 32.3735 63.9431 32.3398 63.9095C32.4408 63.8253 32.5306 63.758 32.6092 63.685C33.406 62.978 33.4453 61.7883 32.6877 61.0308C32.2052 60.5482 31.5991 60.3574 30.9314 60.3518C29.7193 60.3406 28.5016 60.3518 27.2895 60.3462C27.1099 60.3462 27.0538 60.3855 27.0538 60.5763C27.0594 62.9219 27.0594 65.2618 27.0538 67.6074C27.0538 67.7926 27.1043 67.8431 27.2895 67.8375C28.6138 67.8263 29.9437 67.8319 31.268 67.8263C31.5991 67.8263 31.919 67.7589 32.2276 67.6523C33.0525 67.3605 33.58 66.6479 33.6024 65.8005C33.6361 64.869 33.305 64.364 32.4016 63.9656ZM28.2884 61.6649C28.2884 61.5134 28.3613 61.5022 28.4791 61.5022C28.9056 61.5078 29.3377 61.5022 29.7642 61.5022C30.1345 61.5022 30.5105 61.4965 30.8809 61.5022C31.5262 61.5134 31.9414 61.8501 31.9751 62.3832C32.0144 62.9219 31.6103 63.41 30.9819 63.4493C30.1345 63.5054 29.2872 63.483 28.4399 63.4998C28.3164 63.4998 28.2827 63.4437 28.2827 63.3315C28.294 62.776 28.294 62.2204 28.2884 61.6649ZM32.323 65.8903C32.2332 66.3336 31.8516 66.6366 31.3129 66.6479C30.3702 66.6647 29.4275 66.6535 28.4848 66.6591C28.3501 66.6591 28.3108 66.6142 28.3108 66.4851C28.3164 65.9296 28.3164 65.3684 28.3108 64.8129C28.3108 64.667 28.3613 64.6221 28.5016 64.6221C28.9786 64.6277 29.4555 64.6221 29.9269 64.6221C29.9269 64.6277 29.9269 64.6333 29.9269 64.6333C30.4095 64.6333 30.8977 64.6109 31.3803 64.639C32.0593 64.6895 32.4577 65.2394 32.323 65.8903Z" fill="#203D8C"/>
<path d="M66.1714 63.6511C65.7729 63.4771 65.3521 63.4042 64.92 63.4042C64.0783 63.4042 63.2366 63.3986 62.3948 63.4098C62.1704 63.4154 62.0862 63.3649 62.0974 63.1236C62.1199 62.6859 62.1199 62.2482 62.0974 61.8105C62.0862 61.5636 62.1535 61.5019 62.4004 61.5075C63.7528 61.5187 65.1108 61.5075 66.4631 61.5187C66.6932 61.5187 66.7493 61.4514 66.7325 61.2382C66.7157 61.0249 66.7157 60.8117 66.7325 60.5985C66.7549 60.3852 66.6764 60.3403 66.4688 60.3403C64.6843 60.3516 62.8999 60.3516 61.1154 60.3403C60.9078 60.3403 60.8517 60.3852 60.8517 60.5985C60.8629 61.76 60.8573 62.9216 60.8573 64.0832C60.8573 65.2447 60.8629 66.4063 60.8517 67.5679C60.8517 67.7699 60.891 67.8316 61.1098 67.8316C62.3499 67.8204 63.5957 67.826 64.8358 67.826C65.0883 67.826 65.3409 67.8148 65.5878 67.7643C66.5866 67.5791 67.288 66.8552 67.4059 65.8732C67.5293 64.9137 67.0467 64.0439 66.1714 63.6511ZM65.0659 66.6532C65.0378 66.6532 65.0098 66.6532 64.9817 66.6532C64.544 66.6532 64.1063 66.6532 63.663 66.6532C63.663 66.6532 63.663 66.6532 63.663 66.6588C63.2029 66.6588 62.7484 66.6532 62.2882 66.6644C62.1423 66.6644 62.0974 66.6252 62.0974 66.4737C62.103 65.9069 62.103 65.3401 62.0974 64.7734C62.0974 64.6219 62.1479 64.5882 62.2882 64.5882C63.1917 64.5938 64.1007 64.5826 65.0042 64.5938C65.6551 64.605 66.0984 64.9866 66.1321 65.5309C66.177 66.1706 65.7561 66.6139 65.0659 66.6532Z" fill="#203D8C"/>
<path d="M45.7344 60.1665C43.4337 60.1609 41.7503 61.7995 41.7446 64.044C41.739 66.3391 43.4112 67.9945 45.7176 68.0001C48.0014 68.0001 49.6905 66.3503 49.6961 64.1058C49.7017 61.8275 48.0351 60.1721 45.7344 60.1665ZM45.7232 66.8217C44.1576 66.8217 43.0184 65.677 43.0128 64.1002C43.0128 62.5346 44.1632 61.3618 45.7119 61.3618C47.2719 61.3618 48.4167 62.5065 48.4167 64.0889C48.4279 65.6601 47.2832 66.8217 45.7232 66.8217Z" fill="#203D8C"/>
<path d="M21.7229 60.1665C19.4222 60.1665 17.7444 61.8219 17.75 64.0945C17.7556 66.3447 19.4335 68.0001 21.7173 68.0001C24.0236 68.0001 25.7015 66.3503 25.7015 64.0889C25.7015 61.8107 24.0292 60.1665 21.7229 60.1665ZM21.7622 66.8217C20.1854 66.8273 19.0294 65.677 19.0238 64.0945C19.0238 62.5233 20.1742 61.3617 21.7285 61.3617C23.2885 61.3617 24.4333 62.5121 24.4333 64.0889C24.4389 65.6433 23.2941 66.8161 21.7622 66.8217Z" fill="#203D8C"/>
<path d="M75.6098 67.7198C74.5605 65.3125 73.5055 62.9052 72.4618 60.4979C72.4057 60.3744 72.3383 60.3407 72.2093 60.3407C71.8894 60.3464 71.5752 60.352 71.2553 60.3407C71.0814 60.3351 70.9972 60.3856 70.9242 60.554C69.903 62.9108 68.8705 65.2676 67.8436 67.6188C67.8155 67.6805 67.7594 67.7367 67.7987 67.8264C68.1634 67.8264 68.5282 67.8152 68.8929 67.832C69.05 67.8377 69.123 67.7872 69.1791 67.6469C69.3867 67.1531 69.6168 66.6649 69.8244 66.1654C69.8861 66.0083 69.9703 65.9634 70.133 65.969C71.1712 65.9747 72.2093 65.9747 73.2418 65.969C73.4157 65.969 73.5111 66.0195 73.5785 66.1823C73.7805 66.6705 73.9993 67.1531 74.207 67.6413C74.2631 67.7759 74.3248 67.8489 74.4875 67.8377C74.8579 67.8208 75.2339 67.832 75.6323 67.832C75.621 67.7703 75.621 67.7423 75.6098 67.7198ZM72.5347 64.8243C71.9006 64.8243 71.2665 64.8243 70.6325 64.8243C70.5483 64.8243 70.3912 64.8804 70.4753 64.684C70.8794 63.7525 71.2834 62.8154 71.7042 61.8502C72.1139 62.793 72.5123 63.702 72.9051 64.6055C72.9275 64.6616 72.95 64.7233 72.9893 64.8299C72.8209 64.8243 72.6806 64.8243 72.5347 64.8243Z" fill="#203D8C"/>
</svg>
