<svg width="72" height="72" viewBox="0 0 72 72" fill="none" xmlns="http://www.w3.org/2000/svg">
<circle cx="35.6727" cy="35.5762" r="35" fill="white"/>
<circle cx="35.6727" cy="35.5762" r="35" fill="url(#paint0_linear_1693_23027)"/>
<circle cx="35.6727" cy="35.5762" r="35" stroke="#EEF3FA"/>
<path d="M51.1036 28.0269C50.9286 27.6988 50.8411 27.2177 50.2944 27.7426C48.7635 29.186 47.2107 30.6076 45.6579 32.0292C43.6458 33.7569 41.6556 35.4847 39.6654 37.2124C38.3751 38.131 37.1941 39.2026 36.0131 40.2524C32.3826 43.2267 28.6647 46.1136 24.7062 48.9567C24.9249 49.0879 25.0561 49.1536 25.1655 49.241C25.3404 49.3723 25.4935 49.5254 25.6685 49.6347C30.9173 53.3308 36.538 54.0962 42.5523 51.7561C43.9957 51.2094 45.3298 50.4439 46.4889 49.4379C48.2604 48.1694 49.6601 46.5729 50.7099 44.6702C53.9248 39.1807 53.9248 33.6257 51.1036 28.0269Z" fill="#D41316"/>
<path d="M36.6692 27.48C35.8163 26.977 34.9633 26.474 34.1104 25.9491C33.8042 25.0087 34.0448 24.5494 35.0508 24.4182C36.4068 24.2432 37.7627 24.112 39.1187 23.9589C41.9399 23.8495 44.7612 23.6527 47.8886 23.7839C45.7016 21.9031 43.6021 20.5253 41.087 19.891C40.8464 19.8036 40.6058 19.6942 40.3653 19.6505C29.5832 16.7855 18.8449 25.0087 18.8887 36.1188C18.9106 40.0773 20.179 43.6421 22.6722 46.7258C22.9347 47.032 23.1096 47.535 23.5908 46.8789C27.9867 40.7771 32.4045 34.6753 36.8223 28.5735C37.3472 28.1361 37.1503 27.7862 36.6692 27.48Z" fill="#D41316"/>
<defs>
<linearGradient id="paint0_linear_1693_23027" x1="35.6727" y1="0.0761719" x2="35.6727" y2="71.0762" gradientUnits="userSpaceOnUse">
<stop offset="0.685628" stop-color="white" stop-opacity="0"/>
<stop offset="0.701644" stop-color="white"/>
<stop offset="1" stop-color="white"/>
</linearGradient>
</defs>
</svg>
