<svg width="52" height="52" viewBox="0 0 52 52" fill="none" xmlns="http://www.w3.org/2000/svg">
<circle cx="25.9504" cy="25.5762" r="25" fill="white" stroke="#EEF3FA"/>
<path d="M17.3882 18.0762C17.1728 18.6639 16.9558 19.2517 16.7435 19.8395C16.7235 19.8933 16.6973 19.9056 16.645 19.9056C13.6047 19.9041 10.5658 19.9041 7.52546 19.9056C7.47622 19.9056 7.44084 19.9102 7.46699 19.8395C7.68394 19.2517 7.89935 18.6639 8.11476 18.0762C11.2059 18.0762 14.297 18.0762 17.3882 18.0762Z" fill="#009FDD"/>
<path d="M10.0766 25.4001C8.56254 25.4001 7.04698 25.4001 5.53295 25.4001C5.43601 25.4001 5.43755 25.4001 5.4714 25.3063C5.67604 24.7493 5.88068 24.1938 6.08071 23.6353C6.10071 23.5799 6.12686 23.563 6.18533 23.563C9.22262 23.5645 12.2599 23.5645 15.2957 23.5645C15.3449 23.5645 15.3864 23.5568 15.3572 23.6353C15.1479 24.1984 14.9418 24.7616 14.7387 25.3263C14.7171 25.3847 14.6894 25.4017 14.6279 25.4017C13.1108 25.4001 11.5937 25.4001 10.0766 25.4001Z" fill="#009FDD"/>
<path d="M11.0767 22.6537C9.56264 22.6537 8.04708 22.6537 6.53305 22.6537C6.43919 22.6537 6.43919 22.6537 6.4715 22.566C6.67614 22.0075 6.88232 21.449 7.08542 20.8889C7.10389 20.8397 7.12543 20.8228 7.17774 20.8228C10.2196 20.8243 13.2616 20.8243 16.3035 20.8228C16.3696 20.8228 16.3804 20.8351 16.3573 20.8997C16.1496 21.4598 15.9449 22.0214 15.7418 22.5845C15.7218 22.6399 15.6941 22.6553 15.6372 22.6553C14.1155 22.6537 12.5953 22.6537 11.0767 22.6537Z" fill="#009FDD"/>
<path d="M36.2151 20.8597C36.0997 21.1997 35.9874 21.5336 35.8751 21.8675C35.7843 22.1352 35.692 22.403 35.6043 22.6738C35.5858 22.7291 35.5612 22.7415 35.5073 22.7415C34.6103 22.7399 33.7133 22.7415 32.8162 22.7384C32.7408 22.7384 32.7254 22.7584 32.7254 22.8322C32.727 25.8788 32.727 28.9268 32.727 31.9733C32.727 32.0733 32.727 32.0733 32.6239 32.0733C31.9423 32.0733 31.2607 32.0718 30.579 32.0749C30.5098 32.0749 30.4913 32.0595 30.4913 31.9887C30.4929 28.9391 30.4929 25.8895 30.4944 22.8399C30.4944 22.763 30.479 22.7384 30.3975 22.7384C29.385 22.7415 28.3726 22.7399 27.3602 22.743C27.2879 22.743 27.2725 22.723 27.274 22.6538C27.2771 22.0783 27.2756 21.5013 27.274 20.9259C27.274 20.872 27.2863 20.8582 27.3417 20.8582C30.2867 20.8597 33.2317 20.8597 36.1751 20.8597C36.1828 20.8582 36.1936 20.8582 36.2151 20.8597Z" fill="#28366A"/>
<path d="M27.0832 28.2804C27.0109 27.8465 26.8447 27.4526 26.5647 27.1095C26.2108 26.6771 25.7523 26.391 25.2476 26.1694C25.2153 26.1555 25.1584 26.1586 25.1584 26.114C25.1584 26.0694 25.2153 26.0709 25.2461 26.054C25.8662 25.737 26.337 25.2816 26.5755 24.6138C26.7309 24.1784 26.7632 23.7306 26.7078 23.2752C26.6463 22.7598 26.4585 22.2966 26.1139 21.9043C25.7308 21.4673 25.2399 21.2042 24.6906 21.0411C24.2121 20.898 23.7198 20.8641 23.2243 20.8611C21.9642 20.8549 20.7025 20.8595 19.4423 20.8564C19.3746 20.8564 19.3546 20.8703 19.3546 20.9426C19.3562 22.7844 19.3562 24.6246 19.3562 26.4663C19.3562 28.3081 19.3562 30.1483 19.3546 31.9901C19.3546 32.0439 19.3531 32.0763 19.4269 32.0763C20.8256 32.0732 22.2257 32.0747 23.6244 32.0716C24.0829 32.0701 24.5399 32.0455 24.9876 31.9239C25.9477 31.6608 26.6124 31.0746 26.9432 30.1314C27.1556 29.5267 27.1863 28.9082 27.0832 28.2804ZM21.5687 25.2708C21.5687 24.8538 21.5687 24.4369 21.5687 24.0184C21.5687 23.6029 21.5703 23.189 21.5672 22.7736C21.5672 22.7136 21.5826 22.6982 21.6426 22.6982C22.0934 22.7013 22.5442 22.6967 22.9951 22.7028C23.2443 22.7059 23.4905 22.729 23.7259 22.8244C24.0983 22.9752 24.3306 23.2444 24.4014 23.6414C24.466 23.9984 24.4583 24.3507 24.2921 24.6831C24.0906 25.0862 23.7536 25.3001 23.3074 25.3247C22.7473 25.357 22.1857 25.3324 21.6241 25.3401C21.5641 25.3416 21.5687 25.3108 21.5687 25.2708ZM24.6476 29.4221C24.466 29.8821 24.1167 30.1406 23.6228 30.2006C23.449 30.2222 23.2766 30.2283 23.1012 30.2283C22.6196 30.2283 22.138 30.2268 21.6564 30.2299C21.5995 30.2299 21.5841 30.216 21.5841 30.1591C21.5872 29.6914 21.5857 29.2221 21.5857 28.7543C21.5857 28.2866 21.5872 27.8173 21.5841 27.3495C21.5841 27.2911 21.5995 27.2788 21.6564 27.2788C22.158 27.2818 22.6612 27.2788 23.1628 27.2803C23.3813 27.2818 23.5967 27.2972 23.809 27.3526C24.2198 27.4603 24.506 27.7111 24.6522 28.1081C24.8122 28.5451 24.8183 28.9882 24.6476 29.4221Z" fill="#28366A"/>
<path d="M44.5454 27.408C44.233 26.4694 43.6222 25.8124 42.6836 25.4755C42.1697 25.2908 41.6327 25.2324 41.0896 25.2262C40.4618 25.2185 39.834 25.2216 39.2063 25.2247C39.137 25.2247 39.1232 25.2077 39.1232 25.14C39.1263 24.3692 39.1263 23.5983 39.1232 22.8275C39.1232 22.7582 39.1386 22.7382 39.2109 22.7382C40.6203 22.7413 42.0297 22.7397 43.4406 22.7413C43.5037 22.7413 43.5283 22.7228 43.5483 22.6644C43.6884 22.2397 43.833 21.8181 43.9761 21.395C44.0361 21.2196 44.0946 21.0426 44.1561 20.858C44.1223 20.858 44.0961 20.858 44.0715 20.858C41.7112 20.858 39.3509 20.858 36.9891 20.8564C36.9214 20.8564 36.906 20.8734 36.906 20.9411C36.9075 24.6231 36.9075 28.3066 36.906 31.9885C36.906 32.0624 36.9291 32.0747 36.9952 32.0747C38.1692 32.0732 39.3432 32.0747 40.5172 32.0732C41.0865 32.0716 41.6543 32.0624 42.2159 31.9547C43.076 31.7901 43.7468 31.3454 44.2207 30.6099C44.5238 30.1376 44.6731 29.6129 44.7177 29.0559C44.7623 28.4943 44.7239 27.9419 44.5454 27.408ZM42.2805 29.3667C42.0697 29.8544 41.6881 30.1129 41.1619 30.1683C40.8634 30.2006 40.5634 30.1853 40.2633 30.1868C39.9125 30.1899 39.5617 30.1853 39.2094 30.1899C39.1355 30.1914 39.1217 30.1668 39.1232 30.1006C39.1263 29.6083 39.1247 29.1174 39.1247 28.6251C39.1247 28.1312 39.1263 27.6373 39.1232 27.1418C39.1232 27.0772 39.1401 27.0618 39.2032 27.0633C39.7571 27.0664 40.311 27.0649 40.8634 27.0664C41.025 27.0664 41.1865 27.0818 41.3435 27.1172C41.9035 27.2434 42.3097 27.6911 42.3913 28.265C42.4482 28.642 42.4328 29.0143 42.2805 29.3667Z" fill="#28366A"/>
</svg>
