<svg width="71" height="72" viewBox="0 0 71 72" fill="none" xmlns="http://www.w3.org/2000/svg">
<circle cx="35.5" cy="35.5762" r="35" fill="white"/>
<circle cx="35.5" cy="35.5762" r="35" fill="url(#paint0_linear_1693_23012)"/>
<circle cx="35.5" cy="35.5762" r="35" stroke="#EEF3FA"/>
<path d="M21.1676 57.0821C21.0516 56.9403 21 56.7727 21 56.5793C21.0129 54.9551 21.0129 53.3179 21 51.6937C21 51.3198 21.1547 51.2038 21.4899 51.1909C21.5543 51.1909 21.6188 51.1909 21.6832 51.1909C30.6939 51.1909 39.7047 51.1909 48.7283 51.1909C49.2311 51.1909 49.3857 51.3327 49.3857 51.8355C49.3857 53.3308 49.3857 54.8261 49.3857 56.3344C49.3857 56.6051 49.3342 56.85 49.2182 57.0821C39.8723 57.0821 30.5135 57.0821 21.1676 57.0821Z" fill="#E52522"/>
<path d="M48.2771 40.1823C47.6455 38.4421 47.0267 36.7018 46.3822 34.9615C45.2735 31.9064 44.152 28.8512 43.0305 25.809C42.1797 23.4757 41.2902 21.1683 40.4523 18.835C40.0527 17.7264 39.6918 16.592 39.1504 15.5349C38.7636 14.7615 38.2351 14.1041 37.4874 13.64C36.7655 13.1888 35.9792 13.0341 35.2057 13.0857C34.8448 13.0857 34.5483 13.0857 34.2647 13.0857C34.226 13.0857 34.1874 13.1115 34.1487 13.1115C32.4471 13.4595 31.4287 14.6326 30.8357 16.1537C29.7013 19.0928 28.6572 22.0577 27.5743 25.0097C26.4528 28.0649 25.3442 31.1071 24.2227 34.1623C23.4879 36.1604 22.766 38.1713 22.0313 40.1694C21.8895 40.5433 22.0442 40.7495 22.3535 40.8784C23.7973 41.4585 25.254 42.0257 26.6978 42.58C27.1489 42.7476 27.3552 42.6187 27.5357 42.1417C28.1415 40.5046 28.7474 38.8675 29.3404 37.2174C29.4177 36.9854 29.5209 36.9338 29.7271 36.9467C30.2943 36.9596 30.8744 36.9467 31.4416 36.9467C34.4839 36.9467 37.5261 36.9467 40.5684 36.9467C40.7488 36.9467 40.8777 36.9209 40.968 37.1787C41.5738 38.8803 42.2055 40.5819 42.8372 42.2835C42.9532 42.6058 43.1336 42.7347 43.4817 42.6058C44.977 42.0644 46.4595 41.4585 47.9419 40.8913C48.3287 40.7495 48.406 40.5304 48.2771 40.1823ZM31.3127 31.6872C32.5889 27.8457 33.8651 24.03 35.1671 20.1241C36.4691 24.0171 37.7453 27.8457 39.0343 31.6872C36.4433 31.6872 33.9038 31.6872 31.3127 31.6872Z" fill="#E52522"/>
<defs>
<linearGradient id="paint0_linear_1693_23012" x1="71" y1="37.5762" x2="55.5" y2="38.0762" gradientUnits="userSpaceOnUse">
<stop offset="0.714787" stop-color="white"/>
<stop offset="1" stop-color="white" stop-opacity="0"/>
</linearGradient>
</defs>
</svg>
