<svg width="40" height="15" viewBox="0 0 40 15" fill="none" xmlns="http://www.w3.org/2000/svg">
<path d="M12.3883 0.0761719C12.1729 0.663935 11.9559 1.2517 11.7436 1.83946C11.7236 1.89331 11.6975 1.90562 11.6451 1.90562C8.60477 1.90408 5.56595 1.90408 2.52558 1.90562C2.47635 1.90562 2.44096 1.91024 2.46712 1.83946C2.68406 1.2517 2.89947 0.663935 3.11489 0.0761719C6.20602 0.0761719 9.29717 0.0761719 12.3883 0.0761719Z" fill="#009FDD"/>
<path d="M5.07657 7.40013C3.56254 7.40013 2.04698 7.40013 0.532948 7.40013C0.436013 7.40013 0.437552 7.40013 0.471402 7.30627C0.676042 6.74928 0.880682 6.19383 1.08071 5.6353C1.10071 5.57991 1.12686 5.56299 1.18533 5.56299C4.22262 5.56453 7.25991 5.56453 10.2957 5.56453C10.3449 5.56453 10.3864 5.55683 10.3572 5.6353C10.1479 6.19845 9.94177 6.76159 9.73867 7.32628C9.71713 7.38475 9.68943 7.40167 9.62788 7.40167C8.11078 7.40013 6.59367 7.40013 5.07657 7.40013Z" fill="#009FDD"/>
<path d="M6.07679 4.65374C4.56277 4.65374 3.0472 4.65374 1.53317 4.65374C1.43931 4.65374 1.43931 4.65374 1.47163 4.56604C1.67627 4.00751 1.88245 3.44898 2.08555 2.88892C2.10401 2.83968 2.12555 2.82275 2.17787 2.82275C5.21977 2.82429 8.26167 2.82429 11.3036 2.82275C11.3697 2.82275 11.3805 2.83506 11.3574 2.89969C11.1497 3.45975 10.9451 4.02136 10.742 4.5845C10.722 4.6399 10.6943 4.65528 10.6373 4.65528C9.11562 4.65374 7.59544 4.65374 6.07679 4.65374Z" fill="#009FDD"/>
<path d="M31.2151 2.85969C31.0997 3.19973 30.9874 3.53362 30.8751 3.86751C30.7843 4.13523 30.692 4.40295 30.6043 4.67376C30.5858 4.72915 30.5612 4.74146 30.5073 4.74146C29.6103 4.73992 28.7133 4.74146 27.8162 4.73838C27.7408 4.73838 27.7254 4.75838 27.7254 4.83224C27.727 7.87876 27.727 10.9268 27.727 13.9733C27.727 14.0733 27.727 14.0733 27.6239 14.0733C26.9423 14.0733 26.2607 14.0718 25.579 14.0749C25.5098 14.0749 25.4913 14.0595 25.4913 13.9887C25.4929 10.9391 25.4929 7.88953 25.4944 4.83993C25.4944 4.763 25.479 4.73838 25.3975 4.73838C24.385 4.74146 23.3726 4.73992 22.3602 4.743C22.2879 4.743 22.2725 4.72299 22.274 4.65375C22.2771 4.0783 22.2756 3.50131 22.274 2.92585C22.274 2.872 22.2863 2.85815 22.3417 2.85815C25.2867 2.85969 28.2317 2.85969 31.1751 2.85969C31.1828 2.85815 31.1936 2.85815 31.2151 2.85969Z" fill="#28366A"/>
<path d="M22.0831 10.2804C22.0108 9.84652 21.8446 9.45262 21.5646 9.1095C21.2107 8.67714 20.7522 8.39096 20.2475 8.16939C20.2152 8.15554 20.1583 8.15862 20.1583 8.114C20.1583 8.06938 20.2152 8.07092 20.246 8.05399C20.866 7.73703 21.3369 7.28159 21.5754 6.61382C21.7308 6.17838 21.7631 5.73064 21.7077 5.2752C21.6461 4.75975 21.4584 4.29662 21.1138 3.90426C20.7306 3.46729 20.2398 3.20418 19.6905 3.04108C19.212 2.89799 18.7196 2.86414 18.2242 2.86106C16.964 2.85491 15.7023 2.85952 14.4422 2.85645C14.3745 2.85645 14.3545 2.87029 14.3545 2.94261C14.356 4.78437 14.356 6.62459 14.356 8.46635C14.356 10.3081 14.356 12.1483 14.3545 13.9901C14.3545 14.0439 14.353 14.0763 14.4268 14.0763C15.8254 14.0732 17.2256 14.0747 18.6242 14.0716C19.0828 14.0701 19.5397 14.0455 19.9875 13.9239C20.9476 13.6608 21.6123 13.0746 21.9431 12.1314C22.1554 11.5267 22.1862 10.9082 22.0831 10.2804ZM16.5686 7.27082C16.5686 6.85385 16.5686 6.43688 16.5686 6.01836C16.5686 5.60293 16.5701 5.18903 16.5671 4.7736C16.5671 4.71359 16.5825 4.6982 16.6425 4.6982C17.0933 4.70128 17.5441 4.69667 17.9949 4.70282C18.2442 4.7059 18.4904 4.72898 18.7258 4.82437C19.0981 4.97516 19.3305 5.24442 19.4013 5.6414C19.4659 5.99836 19.4582 6.35071 19.292 6.68306C19.0904 7.08618 18.7535 7.30006 18.3073 7.32467C17.7472 7.35699 17.1856 7.33237 16.624 7.34006C16.564 7.3416 16.5686 7.31083 16.5686 7.27082ZM19.6474 11.4221C19.4659 11.8821 19.1166 12.1406 18.6227 12.2006C18.4488 12.2222 18.2765 12.2283 18.1011 12.2283C17.6195 12.2283 17.1379 12.2268 16.6563 12.2299C16.5994 12.2299 16.584 12.216 16.584 12.1591C16.5871 11.6914 16.5855 11.2221 16.5855 10.7543C16.5855 10.2866 16.5871 9.81728 16.584 9.34953C16.584 9.29106 16.5994 9.27875 16.6563 9.27875C17.1579 9.28183 17.661 9.27875 18.1626 9.28029C18.3811 9.28183 18.5965 9.29722 18.8089 9.35261C19.2197 9.46032 19.5059 9.71111 19.6521 10.1081C19.8121 10.5451 19.8182 10.9882 19.6474 11.4221Z" fill="#28366A"/>
<path d="M39.5454 9.408C39.233 8.46943 38.6222 7.81242 37.6836 7.47546C37.1697 7.29082 36.6327 7.23235 36.0896 7.2262C35.4618 7.21851 34.834 7.22158 34.2063 7.22466C34.137 7.22466 34.1232 7.20774 34.1232 7.14004C34.1263 6.36917 34.1263 5.59831 34.1232 4.82745C34.1232 4.75821 34.1386 4.73821 34.2109 4.73821C35.6203 4.74129 37.0297 4.73975 38.4406 4.74129C38.5037 4.74129 38.5283 4.72282 38.5483 4.66435C38.6884 4.23969 38.833 3.8181 38.9761 3.39497C39.0361 3.21957 39.0946 3.04262 39.1561 2.85798C39.1223 2.85798 39.0961 2.85798 39.0715 2.85798C36.7112 2.85798 34.3509 2.85798 31.9891 2.85645C31.9214 2.85645 31.906 2.87337 31.906 2.94107C31.9075 6.62305 31.9075 10.3066 31.906 13.9885C31.906 14.0624 31.9291 14.0747 31.9952 14.0747C33.1692 14.0732 34.3432 14.0747 35.5172 14.0732C36.0865 14.0716 36.6543 14.0624 37.2159 13.9547C38.076 13.7901 38.7468 13.3454 39.2207 12.6099C39.5238 12.1376 39.6731 11.6129 39.7177 11.0559C39.7623 10.4943 39.7239 9.94191 39.5454 9.408ZM37.2805 11.3667C37.0697 11.8544 36.6881 12.1129 36.1619 12.1683C35.8634 12.2006 35.5634 12.1853 35.2633 12.1868C34.9125 12.1899 34.5617 12.1853 34.2094 12.1899C34.1355 12.1914 34.1217 12.1668 34.1232 12.1006C34.1263 11.6083 34.1247 11.1174 34.1247 10.6251C34.1247 10.1312 34.1263 9.63726 34.1232 9.14181C34.1232 9.07719 34.1401 9.0618 34.2032 9.06334C34.7571 9.06642 35.311 9.06488 35.8634 9.06642C36.025 9.06642 36.1865 9.08181 36.3435 9.1172C36.9035 9.24336 37.3097 9.69111 37.3913 10.265C37.4482 10.642 37.4328 11.0143 37.2805 11.3667Z" fill="#28366A"/>
</svg>
