<svg width="36" height="35" viewBox="0 0 36 35" fill="none" xmlns="http://www.w3.org/2000/svg">
<path d="M33.1037 9.0269C32.9287 8.69885 32.8413 8.2177 32.2945 8.74259C30.7636 10.186 29.2108 11.6076 27.658 13.0292C25.6459 14.7569 23.6557 16.4847 21.6656 18.2124C20.3752 19.131 19.1942 20.2026 18.0132 21.2524C14.3828 24.2267 10.6648 27.1136 6.7063 29.9567C6.925 30.0879 7.05622 30.1536 7.16557 30.241C7.34054 30.3723 7.49363 30.5254 7.66859 30.6347C12.9174 34.3308 18.5381 35.0962 24.5524 32.7561C25.9959 32.2094 27.3299 31.4439 28.4891 30.4379C30.2606 29.1694 31.6603 27.5729 32.71 25.6702C35.925 20.1807 35.925 14.6257 33.1037 9.0269Z" fill="#D41316"/>
<path d="M18.6693 8.48001C17.8164 7.97699 16.9634 7.47398 16.1105 6.94909C15.8043 6.00867 16.0449 5.5494 17.0509 5.41818C18.4069 5.24321 19.7628 5.11199 21.1188 4.9589C23.9401 4.84955 26.7613 4.65272 29.8888 4.78394C27.7017 2.9031 25.6022 1.52527 23.0871 0.891033C22.8465 0.803552 22.606 0.694201 22.3654 0.65046C11.5834 -2.21454 0.845065 6.00867 0.888805 17.1188C0.910675 21.0773 2.17915 24.6421 4.67236 27.7258C4.9348 28.032 5.10976 28.535 5.59091 27.8789C9.98683 21.7771 14.4046 15.6753 18.8224 9.57352C19.3473 9.13612 19.1505 8.78619 18.6693 8.48001Z" fill="#D41316"/>
</svg>
