<svg width="46" height="40" viewBox="0 0 46 40" fill="none" xmlns="http://www.w3.org/2000/svg">
<path d="M19.1568 33.6895L10.6504 27.4747V23.8125L19.7816 30.3137C21.2351 31.3485 23.1692 31.4045 24.6801 30.4553L35.2542 23.8125V27.4747L25.9196 33.8075C23.8666 35.2003 21.16 35.1531 19.1568 33.6895Z" fill="url(#paint0_linear_1850_37829)"/>
<path d="M10.6504 0V27.4746L19.1568 33.6894C21.16 35.153 23.8666 35.2002 25.9196 33.8074L35.2542 27.4746V0H10.6504Z" fill="url(#paint1_linear_1850_37829)"/>
<path opacity="0.6" d="M25.9771 18.2389L35.2542 23.812L24.6801 30.4548C23.1692 31.404 21.2351 31.3481 19.7816 30.3132L10.6504 23.812L19.9275 18.2389C21.789 17.1207 24.1156 17.1207 25.9771 18.2389Z" fill="#BFDEFF"/>
<g clip-path="url(#clip0_1850_37829)" filter="url(#filter0_d_1850_37829)">
<path d="M21.9716 2.00005C21.6687 2.00111 21.4146 2.22885 21.3802 2.52964L21.1783 4.31923C20.7959 4.44323 20.4245 4.59497 20.0666 4.77762L18.6562 3.65765C18.4186 3.46859 18.0768 3.48752 17.8615 3.70219L15.7011 5.85816C15.4875 6.07336 15.4688 6.41442 15.6579 6.65148L16.7778 8.06773C16.596 8.42426 16.4464 8.79278 16.3229 9.17384L14.5285 9.37677C14.2267 9.41171 13.9992 9.66797 14 9.9717V13.0237C13.9995 13.3277 14.2267 13.5837 14.5285 13.6186L16.3229 13.8263C16.4458 14.2052 16.597 14.5738 16.7778 14.9287L15.6579 16.3438C15.4688 16.5809 15.4875 16.922 15.7011 17.1371L17.8618 19.2931C18.0757 19.5091 18.4175 19.5302 18.6562 19.3422L20.0714 18.2176C20.4266 18.3987 20.7946 18.5531 21.1737 18.676L21.3801 20.4704C21.4145 20.7715 21.6687 20.9989 21.9716 21H25.027C25.33 20.9989 25.5841 20.7712 25.6185 20.4704L25.8249 18.676C26.206 18.5523 26.575 18.3998 26.9321 18.2176L28.3425 19.3422C28.5811 19.5305 28.9233 19.5094 29.1369 19.2931L31.2976 17.1371C31.5112 16.922 31.5299 16.5809 31.3408 16.3438L30.2174 14.9287C30.3995 14.5719 30.5558 14.2025 30.6795 13.8215L32.4704 13.6188C32.7728 13.5844 33.0008 13.3281 33 13.0239V9.97192C33.0005 9.66765 32.7725 9.41139 32.4704 9.37699L30.6795 9.17405C30.5553 8.79086 30.4011 8.42204 30.2174 8.06337L31.3408 6.65648C31.5326 6.41861 31.5142 6.07435 31.2976 5.85838L29.1369 3.7024C28.922 3.48774 28.5801 3.46854 28.3425 3.65814L26.9321 4.77811C26.5742 4.59544 26.2025 4.44345 25.8204 4.31972L25.6185 2.53013C25.5844 2.22879 25.3303 2.00106 25.0273 2L21.9716 2.00005ZM22.5047 3.1947H24.4938L24.6746 4.80004C24.7034 5.04377 24.8783 5.2451 25.1156 5.3075C25.6823 5.45551 26.2284 5.68137 26.7337 5.9771C26.9468 6.10216 27.2148 6.08296 27.4081 5.92936L28.6692 4.92381L30.0761 6.32619L29.0657 7.59096C28.9113 7.78455 28.8923 8.05308 29.0179 8.26642C29.3142 8.77174 29.5393 9.31334 29.6875 9.88002C29.7507 10.1187 29.9542 10.2939 30.1998 10.3211L31.8041 10.5067V12.4901L30.1998 12.6709C29.9531 12.6987 29.7491 12.876 29.6875 13.1165C29.5395 13.6832 29.3174 14.2248 29.0214 14.7301C28.8948 14.9427 28.9126 15.2115 29.0657 15.4056L30.0761 16.6701L28.6692 18.0725L27.4081 17.0679C27.2151 16.9138 26.9471 16.8943 26.7337 17.0189C26.2292 17.3146 25.685 17.5415 25.1191 17.6898C24.8826 17.7525 24.7084 17.9533 24.6794 18.1962L24.4938 19.806H22.5047L22.3191 18.1962C22.29 17.9533 22.1156 17.7527 21.8794 17.6898C21.3146 17.5421 20.7735 17.3183 20.2695 17.0237C20.0573 16.8978 19.7893 16.9154 19.5951 17.0679L18.3293 18.0725L16.9224 16.6701L17.9279 15.4056C18.0826 15.2123 18.1021 14.9437 17.977 14.7301C17.6823 14.2261 17.4586 13.6861 17.3109 13.1214C17.248 12.883 17.045 12.7078 16.8 12.6803L15.1946 12.4942V10.5062L16.8 10.3206C17.045 10.2931 17.2479 10.1179 17.3109 9.87955C17.4586 9.31503 17.6823 8.77317 17.977 8.26943C18.1015 8.0561 18.0821 7.7881 17.9279 7.59504L16.9224 6.32918L18.3293 4.92332L19.5951 5.92887C19.7885 6.08274 20.0565 6.10167 20.2695 5.9766C20.7743 5.68114 21.3138 5.45475 21.8794 5.30701C22.118 5.24568 22.2946 5.04408 22.3239 4.79955L22.5047 3.1947ZM23.5014 7.08429C21.0712 7.08429 19.0878 9.06749 19.0878 11.4978C19.0878 13.928 21.071 15.9113 23.5014 15.9113C25.9315 15.9113 27.9115 13.9282 27.9115 11.4978C27.9115 9.06769 25.9318 7.08429 23.5014 7.08429ZM23.5014 8.27894C25.2859 8.27894 26.7168 9.71335 26.7168 11.4978C26.7168 13.2823 25.2862 14.7167 23.5014 14.7167C21.7168 14.7167 20.2825 13.2823 20.2825 11.4978C20.2825 9.71335 21.7169 8.27894 23.5014 8.27894Z" fill="#017AFF" stroke="#017AFF" stroke-width="0.1"/>
</g>
<path fill-rule="evenodd" clip-rule="evenodd" d="M10.65 19.6304L1.6674 25.3076C0.523476 26.0306 0.528496 27.7007 1.67675 28.4167L16.9521 37.943C20.4284 40.1109 24.8404 40.0917 28.2978 37.8936L44.3225 27.7052C45.439 26.9954 45.4605 25.3732 44.3633 24.6339L35.3182 18.5395L35.2538 18.4961V19.3814L43.953 25.2429C44.6114 25.6864 44.5984 26.6597 43.9285 27.0856L27.9039 37.274C24.6849 39.3205 20.5772 39.3384 17.3406 37.3199L2.06528 27.7937C1.37632 27.3641 1.37331 26.362 2.05967 25.9282L10.65 20.499V19.6304Z" fill="#B9DAFF"/>
<defs>
<filter id="filter0_d_1850_37829" x="6.31368" y="0.174124" width="36.3512" height="38.0238" filterUnits="userSpaceOnUse" color-interpolation-filters="sRGB">
<feFlood flood-opacity="0" result="BackgroundImageFix"/>
<feColorMatrix in="SourceAlpha" type="matrix" values="0 0 0 0 0 0 0 0 0 0 0 0 0 0 0 0 0 0 127 0" result="hardAlpha"/>
<feOffset dy="4.40536"/>
<feGaussianBlur stdDeviation="2.93691"/>
<feColorMatrix type="matrix" values="0 0 0 0 0 0 0 0 0 0.367139 0 0 0 0 0.770689 0 0 0 0.38 0"/>
<feBlend mode="normal" in2="BackgroundImageFix" result="effect1_dropShadow_1850_37829"/>
<feBlend mode="normal" in="SourceGraphic" in2="effect1_dropShadow_1850_37829" result="shape"/>
</filter>
<linearGradient id="paint0_linear_1850_37829" x1="22.9523" y1="-0.000182586" x2="22.9523" y2="36.6687" gradientUnits="userSpaceOnUse">
<stop stop-color="white" stop-opacity="0"/>
<stop offset="1" stop-color="#017AFF" stop-opacity="0.34"/>
</linearGradient>
<linearGradient id="paint1_linear_1850_37829" x1="22.9523" y1="0" x2="22.9523" y2="36.6688" gradientUnits="userSpaceOnUse">
<stop stop-color="#017AFF" stop-opacity="0"/>
<stop offset="0.491843" stop-color="#82BEFF" stop-opacity="0.167227"/>
<stop offset="1" stop-color="#017AFF" stop-opacity="0.34"/>
</linearGradient>
<clipPath id="clip0_1850_37829">
<rect width="24.6038" height="26.2761" fill="white" transform="translate(12.1875 1.64258)"/>
</clipPath>
</defs>
</svg>
