<svg width="46" height="40" viewBox="0 0 46 40" fill="none" xmlns="http://www.w3.org/2000/svg">
<path d="M19.1568 33.6895L10.6504 27.4747V23.8125L19.7816 30.3137C21.2351 31.3485 23.1692 31.4045 24.6801 30.4553L35.2542 23.8125V27.4747L25.9196 33.8075C23.8666 35.2003 21.16 35.1531 19.1568 33.6895Z" fill="url(#paint0_linear_1850_37682)"/>
<path d="M10.6504 0V27.4746L19.1568 33.6894C21.16 35.153 23.8666 35.2002 25.9196 33.8074L35.2542 27.4746V0H10.6504Z" fill="url(#paint1_linear_1850_37682)"/>
<path opacity="0.6" d="M25.9771 18.2389L35.2542 23.812L24.6801 30.4548C23.1692 31.404 21.2351 31.3481 19.7816 30.3132L10.6504 23.812L19.9275 18.2389C21.789 17.1207 24.1156 17.1207 25.9771 18.2389Z" fill="#BFDEFF"/>
<g clip-path="url(#clip0_1850_37682)" filter="url(#filter0_d_1850_37682)">
<path d="M16 4.5V11M13 8H19M22 13.5V24M17 19H27M32 9.5V16M29 13H35" stroke="#017AFF" stroke-width="1.2" stroke-linecap="round"/>
</g>
<path fill-rule="evenodd" clip-rule="evenodd" d="M10.65 19.6304L1.6674 25.3076C0.523476 26.0306 0.528496 27.7007 1.67675 28.4167L16.9521 37.943C20.4284 40.1109 24.8404 40.0917 28.2978 37.8936L44.3225 27.7052C45.439 26.9954 45.4605 25.3732 44.3633 24.6339L35.3182 18.5395L35.2538 18.4961V19.3814L43.953 25.2429C44.6114 25.6864 44.5984 26.6597 43.9285 27.0856L27.9039 37.274C24.6849 39.3205 20.5772 39.3384 17.3406 37.3199L2.06528 27.7937C1.37632 27.3641 1.37331 26.362 2.05967 25.9282L10.65 20.499V19.6304Z" fill="#B9DAFF"/>
<defs>
<filter id="filter0_d_1850_37682" x="6.31368" y="0.174124" width="36.3512" height="38.0238" filterUnits="userSpaceOnUse" color-interpolation-filters="sRGB">
<feFlood flood-opacity="0" result="BackgroundImageFix"/>
<feColorMatrix in="SourceAlpha" type="matrix" values="0 0 0 0 0 0 0 0 0 0 0 0 0 0 0 0 0 0 127 0" result="hardAlpha"/>
<feOffset dy="4.40536"/>
<feGaussianBlur stdDeviation="2.93691"/>
<feColorMatrix type="matrix" values="0 0 0 0 0 0 0 0 0 0.367139 0 0 0 0 0.770689 0 0 0 0.38 0"/>
<feBlend mode="normal" in2="BackgroundImageFix" result="effect1_dropShadow_1850_37682"/>
<feBlend mode="normal" in="SourceGraphic" in2="effect1_dropShadow_1850_37682" result="shape"/>
</filter>
<linearGradient id="paint0_linear_1850_37682" x1="22.9523" y1="-0.000182586" x2="22.9523" y2="36.6687" gradientUnits="userSpaceOnUse">
<stop stop-color="white" stop-opacity="0"/>
<stop offset="1" stop-color="#017AFF" stop-opacity="0.34"/>
</linearGradient>
<linearGradient id="paint1_linear_1850_37682" x1="22.9523" y1="0" x2="22.9523" y2="36.6688" gradientUnits="userSpaceOnUse">
<stop stop-color="#017AFF" stop-opacity="0"/>
<stop offset="0.491843" stop-color="#82BEFF" stop-opacity="0.167227"/>
<stop offset="1" stop-color="#017AFF" stop-opacity="0.34"/>
</linearGradient>
<clipPath id="clip0_1850_37682">
<rect width="24.6038" height="26.2761" fill="white" transform="translate(12.1875 1.64258)"/>
</clipPath>
</defs>
</svg>
