<svg width="46" height="40" viewBox="0 0 46 40" fill="none" xmlns="http://www.w3.org/2000/svg">
<path d="M19.1587 33.6908L10.6523 27.4759V23.8137L19.7835 30.3149C21.237 31.3498 23.1712 31.4057 24.682 30.4565L35.2562 23.8137V27.4759L25.9216 33.8087C23.8686 35.2015 21.1619 35.1543 19.1587 33.6908Z" fill="url(#paint0_linear_1850_37510)"/>
<path d="M10.6523 0V27.4746L19.1587 33.6894C21.1619 35.153 23.8686 35.2002 25.9216 33.8074L35.2562 27.4746V0H10.6523Z" fill="url(#paint1_linear_1850_37510)"/>
<path opacity="0.6" d="M25.979 18.2397L35.2562 23.8127L24.682 30.4556C23.1712 31.4047 21.237 31.3488 19.7835 30.3139L10.6523 23.8127L19.9295 18.2397C21.791 17.1214 24.1175 17.1214 25.979 18.2397Z" fill="#BFDEFF"/>
<g filter="url(#filter0_d_1850_37510)">
<path d="M24.4906 2.95788C20.4899 2.95788 17.1094 6.65254 17.1094 11.0271C17.1094 14.1517 18.416 15.5809 19.4659 16.7294C20.2916 17.633 20.7229 18.1489 20.7229 19.1088V24.084C20.7229 25.4753 21.7043 26.6062 22.9097 26.6062H26.0027C27.209 26.6062 28.1895 25.4748 28.1895 24.0847L28.1948 19.1083C28.1948 18.1529 28.6334 17.637 29.4736 16.7338C30.5415 15.5853 31.8717 14.1556 31.8717 11.0258C31.8717 6.65333 28.4915 2.95776 24.4905 2.95776L24.4906 2.95788ZM26.0031 24.7144H22.9101C22.6138 24.7144 22.3632 24.4254 22.3632 24.0836V21.8761H26.5522L26.5496 24.0836C26.5496 24.4254 26.2994 24.7144 26.003 24.7144H26.0031ZM28.3555 15.351C27.5115 16.258 26.555 17.2865 26.555 19.108L26.5539 19.9851H22.3629V19.1093C22.3629 17.2912 21.4232 16.2633 20.5949 15.3571C19.6464 14.319 18.7501 13.3389 18.7501 11.0278C18.7501 7.73651 21.4331 4.85006 24.491 4.85006C27.5489 4.85006 30.2319 7.73662 30.2319 11.0278C30.2315 13.3341 29.32 14.3133 28.3555 15.3511L28.3555 15.351Z" fill="#017AFF"/>
</g>
<path fill-rule="evenodd" clip-rule="evenodd" d="M10.6522 19.6297L1.66936 25.307C0.525429 26.0299 0.530449 27.7 1.6787 28.4161L16.954 37.9423C20.4304 40.1103 24.8424 40.0911 28.2997 37.8929L44.3244 27.7046C45.4409 26.9947 45.4625 25.3726 44.3653 24.6333L35.3202 18.5389L35.256 18.4956V19.3809L43.955 25.2422C44.6133 25.6858 44.6004 26.6591 43.9305 27.085L27.9058 37.2733C24.6869 39.3199 20.5792 39.3378 17.3426 37.3193L2.06723 27.7931C1.37828 27.3635 1.37527 26.3614 2.06162 25.9276L10.6522 20.4982V19.6297Z" fill="#B9DAFF"/>
<defs>
<filter id="filter0_d_1850_37510" x="6.31563" y="0.174856" width="36.3512" height="38.0238" filterUnits="userSpaceOnUse" color-interpolation-filters="sRGB">
<feFlood flood-opacity="0" result="BackgroundImageFix"/>
<feColorMatrix in="SourceAlpha" type="matrix" values="0 0 0 0 0 0 0 0 0 0 0 0 0 0 0 0 0 0 127 0" result="hardAlpha"/>
<feOffset dy="4.40536"/>
<feGaussianBlur stdDeviation="2.93691"/>
<feColorMatrix type="matrix" values="0 0 0 0 0 0 0 0 0 0.367139 0 0 0 0 0.770689 0 0 0 0.38 0"/>
<feBlend mode="normal" in2="BackgroundImageFix" result="effect1_dropShadow_1850_37510"/>
<feBlend mode="normal" in="SourceGraphic" in2="effect1_dropShadow_1850_37510" result="shape"/>
</filter>
<linearGradient id="paint0_linear_1850_37510" x1="22.9543" y1="0.00103812" x2="22.9543" y2="36.6699" gradientUnits="userSpaceOnUse">
<stop stop-color="white" stop-opacity="0"/>
<stop offset="1" stop-color="#017AFF" stop-opacity="0.34"/>
</linearGradient>
<linearGradient id="paint1_linear_1850_37510" x1="22.9543" y1="0" x2="22.9543" y2="36.6688" gradientUnits="userSpaceOnUse">
<stop stop-color="#017AFF" stop-opacity="0"/>
<stop offset="0.491843" stop-color="#82BEFF" stop-opacity="0.167227"/>
<stop offset="1" stop-color="#017AFF" stop-opacity="0.34"/>
</linearGradient>
</defs>
</svg>
