<svg width="94" height="96" viewBox="0 0 94 96" fill="none" xmlns="http://www.w3.org/2000/svg">
<g clip-path="url(#clip0_1861_43252)">
<path d="M42.1458 93.2513L5.58704 71.9059C4.34 71.1778 4.33475 69.3776 5.57753 68.6423L45.0581 45.2811C48.5721 43.2018 52.9542 43.2642 56.4076 45.4427L91.1939 67.3866C92.3893 68.1406 92.3666 69.8912 91.1522 70.614L53.2006 93.2046C49.7985 95.2298 45.5649 95.2477 42.1458 93.2513Z" stroke="#00193F"/>
<path d="M42.2591 88.3661L13.7144 71.7107C12.4668 70.9827 12.4615 69.1817 13.7049 68.4465L44.6188 50.1662C48.1314 48.0891 52.5108 48.1514 55.9629 50.3276L83.0669 67.4143C84.2628 68.1682 84.2402 69.9195 83.0252 70.6423L53.3087 88.3195C49.9078 90.3425 45.677 90.3604 42.2591 88.3661Z" fill="#00193F"/>
<path fill-rule="evenodd" clip-rule="evenodd" d="M20.6447 70.6887L42.4175 83.1944C45.8025 85.1387 49.9695 85.1212 53.3381 83.1487L76.0969 69.8218C76.6998 69.4688 77.0126 68.8636 77.0323 68.2498L77.0342 68.2497V64.2211L72.4353 64.282L55.5254 53.7883C52.1044 51.6653 47.7908 51.6044 44.3111 53.6299L24.9314 64.9107L19.6904 64.98V69.0757L19.6948 69.0757C19.704 69.7051 20.0209 70.3305 20.6447 70.6887Z" fill="#9CBDEE"/>
<path d="M42.4175 79.1945L20.6447 66.6888C19.3821 65.9636 19.3768 64.144 20.6352 63.4115L44.3111 49.63C47.7908 47.6045 52.1044 47.6654 55.5254 49.7884L76.1385 62.5801C77.3496 63.3317 77.3269 65.1017 76.0969 65.8219L53.3381 79.1488C49.9695 81.1213 45.8025 81.1388 42.4175 79.1945Z" fill="#ECF4FF"/>
<ellipse opacity="0.67" cx="47.8239" cy="64.0972" rx="11.7318" ry="5.53796" transform="rotate(30 47.8239 64.0972)" fill="url(#paint0_radial_1861_43252)"/>
<path opacity="0.2" d="M20.6447 66.725L42.4175 79.2306C45.8025 81.1749 49.9695 81.1574 53.3381 79.1849L76.0969 65.8581C76.6998 65.505 77.0126 64.8999 77.0323 64.286L77.0342 64.286V60.2573V13.8668L19.6948 13.8666L19.6904 61.0163V65.112L19.6948 65.1119C19.704 65.7413 20.0209 66.3667 20.6447 66.725Z" fill="url(#paint1_linear_1861_43252)"/>
<circle cx="66.8062" cy="63.0664" r="1" fill="#017AFF"/>
<circle cx="30.8062" cy="62.0664" r="1" fill="#017AFF"/>
<circle cx="30.8062" cy="44.0664" r="1" fill="#017AFF"/>
<circle cx="37.8062" cy="33.0664" r="1" fill="#017AFF"/>
<circle cx="31.8062" cy="32.0664" r="1" fill="#017AFF"/>
<circle cx="41.8062" cy="22.0664" r="1" fill="#017AFF"/>
<circle cx="59.8062" cy="23.0664" r="1" fill="#017AFF"/>
<circle cx="72.8062" cy="47.0664" r="1" fill="#017AFF"/>
<circle cx="71.3062" cy="56.5664" r="0.5" fill="#017AFF"/>
<circle cx="37.3062" cy="41.5664" r="0.5" fill="#017AFF"/>
<circle cx="50.3062" cy="15.5664" r="0.5" fill="#017AFF"/>
<circle cx="35.3062" cy="18.5664" r="0.5" fill="#017AFF"/>
<circle cx="64.3062" cy="24.5664" r="0.5" fill="#017AFF"/>
<circle cx="71.3062" cy="39.5664" r="0.5" fill="#017AFF"/>
<circle cx="26.3062" cy="49.5664" r="0.5" fill="#017AFF"/>
<circle cx="35.3062" cy="66.5664" r="0.5" fill="#017AFF"/>
<path fill-rule="evenodd" clip-rule="evenodd" d="M36.9153 27.1406L39.2085 25.6931L39.2442 25.7047L49.307 27.6843L59.7006 37.5812V53.2751C59.6921 53.3174 59.6834 53.361 59.6744 53.4057C59.3946 54.8073 58.8826 57.3723 55.6426 58.12C53.0587 58.7163 50.8918 58.5769 49.5969 58.12C47.8577 56.8363 45.6252 54.6269 42.5888 50.0864C40.162 46.4573 39.5648 43.8067 39.2967 42.6165C39.2608 42.4576 39.2309 42.3247 39.2033 42.219V28.7867L36.9153 27.1406Z" fill="#3D8AFF"/>
<path d="M47.015 29.1297L36.9113 27.1421V43.6644C37.1459 44.5616 37.5459 47.4181 40.2968 51.5318C43.3332 56.0723 45.5657 58.2817 47.3049 59.5654C48.5998 60.0222 50.7666 60.1616 53.3506 59.5654C56.694 58.7938 57.1326 56.087 57.4086 54.7205V39.0266L47.015 29.1297Z" fill="url(#paint2_linear_1861_43252)"/>
</g>
<defs>
<radialGradient id="paint0_radial_1861_43252" cx="0" cy="0" r="1" gradientUnits="userSpaceOnUse" gradientTransform="translate(47.8239 64.0972) rotate(90) scale(5.53796 11.7318)">
<stop stop-color="#479FFF" stop-opacity="0.36"/>
<stop offset="1" stop-color="#479FFF" stop-opacity="0"/>
</radialGradient>
<linearGradient id="paint1_linear_1861_43252" x1="48.3623" y1="13.8667" x2="48.3623" y2="80.6767" gradientUnits="userSpaceOnUse">
<stop stop-color="#017AFF" stop-opacity="0"/>
<stop offset="1" stop-color="#017AFF"/>
</linearGradient>
<linearGradient id="paint2_linear_1861_43252" x1="36.9113" y1="35.0564" x2="57.495" y2="54.1057" gradientUnits="userSpaceOnUse">
<stop stop-color="#3D9AFF"/>
<stop offset="1" stop-color="#88C0FF"/>
</linearGradient>
<clipPath id="clip0_1861_43252">
<rect width="92.3752" height="96" fill="white" transform="translate(0.80603)"/>
</clipPath>
</defs>
</svg>
