<svg width="302" height="380" viewBox="0 0 302 380" fill="none" xmlns="http://www.w3.org/2000/svg">
<g opacity="0.15">
<mask id="mask0_1785_29352" style="mask-type:alpha" maskUnits="userSpaceOnUse" x="0" y="0" width="302" height="380">
<rect x="0.5" y="0.5" width="301" height="379" fill="white" stroke="white"/>
</mask>
<g mask="url(#mask0_1785_29352)">
<path d="M236.023 352.411V332.003C236.023 331.811 236.183 331.588 236.47 331.461L242.082 328.654C242.688 328.336 243.709 328.336 244.315 328.654L249.927 331.461C250.246 331.62 250.373 331.811 250.373 332.003V352.411H236.023Z" fill="url(#paint0_linear_1785_29352)"/>
<path d="M256.496 316.409L245.399 310.892C244.187 310.286 242.21 310.286 240.998 310.892L229.901 316.441C229.295 316.76 228.976 317.142 228.976 317.525V331.588C228.976 331.97 229.295 332.385 229.901 332.672L240.998 338.221C242.21 338.826 244.187 338.826 245.399 338.221L256.496 332.672C257.102 332.353 257.421 331.97 257.421 331.588V317.525C257.421 317.11 257.102 316.728 256.496 316.409Z" fill="url(#paint1_linear_1785_29352)"/>
<path d="M256.496 318.609L245.399 324.158C244.187 324.764 242.21 324.764 240.998 324.158L229.901 318.609C228.689 318.003 228.689 317.015 229.901 316.409L240.998 310.86C242.21 310.254 244.187 310.254 245.399 310.86L256.496 316.409C257.708 317.047 257.708 318.003 256.496 318.609Z" fill="url(#paint2_linear_1785_29352)"/>
<path d="M243.231 321.798C242.146 321.798 241.062 321.575 240.233 321.161L226.553 314.304C225.277 313.667 225.086 312.838 225.086 312.391C225.086 311.945 225.277 311.116 226.553 310.478L240.233 303.622C241.923 302.793 244.538 302.793 246.228 303.622L259.908 310.478C261.184 311.116 261.375 311.945 261.375 312.391C261.375 312.838 261.184 313.667 259.908 314.304L259.621 313.73L259.908 314.304L246.228 321.161C245.367 321.607 244.283 321.798 243.231 321.798ZM243.231 304.291C242.338 304.291 241.477 304.451 240.807 304.77L227.127 311.626C226.649 311.849 226.362 312.168 226.362 312.423C226.362 312.678 226.649 312.965 227.127 313.22L240.807 320.076C242.114 320.746 244.347 320.746 245.654 320.076L259.334 313.22C259.813 312.997 260.1 312.678 260.1 312.423C260.1 312.168 259.813 311.881 259.334 311.626L245.654 304.77C244.984 304.451 244.092 304.291 243.231 304.291Z" fill="#8CD9FF"/>
<path d="M237.586 332.704L232.898 330.344C232.452 330.121 232.101 329.579 232.101 329.132V324.445C232.101 323.998 232.452 323.839 232.898 324.03L237.586 326.39C238.032 326.613 238.383 327.155 238.383 327.602V332.289C238.383 332.768 238.032 332.927 237.586 332.704Z" fill="#A7B1F2"/>
<path d="M248.843 332.704L253.53 330.344C253.977 330.121 254.327 329.579 254.327 329.132V324.445C254.327 323.998 253.977 323.839 253.53 324.03L248.843 326.39C248.396 326.613 248.045 327.155 248.045 327.602V332.289C248.045 332.768 248.428 332.927 248.843 332.704Z" fill="#A7B1F2"/>
<path d="M237.586 326.422L232.898 324.063C232.675 323.935 232.452 323.935 232.324 324.031L213.223 333.597C213.064 333.661 213 333.821 213 334.044V338.731C213 339.178 213.351 339.72 213.797 339.943L218.485 342.303C218.708 342.431 218.931 342.431 219.059 342.335L238.192 332.768C238.351 332.705 238.415 332.545 238.415 332.322V327.634C238.383 327.156 238.033 326.646 237.586 326.422Z" fill="url(#paint3_linear_1785_29352)"/>
<path d="M248.843 326.422L253.53 324.063C253.753 323.935 253.977 323.935 254.104 324.031L273.205 333.597C273.365 333.661 273.429 333.821 273.429 334.044V338.731C273.429 339.178 273.078 339.72 272.631 339.943L267.944 342.303C267.721 342.431 267.497 342.431 267.37 342.335L248.237 332.768C248.077 332.705 248.013 332.545 248.013 332.322V327.634C248.045 327.156 248.428 326.646 248.843 326.422Z" fill="url(#paint4_linear_1785_29352)"/>
<path d="M158 97.0227H319.716V117.712L238.763 156.228L158 117.712V97.0227Z" fill="url(#paint5_linear_1785_29352)"/>
<path d="M315.158 117.026L249.775 149.718C243.736 152.737 233.922 152.737 227.883 149.718L162.529 117.026C159.51 115.517 158 113.542 158 111.568V114.471C158 116.446 159.51 118.42 162.529 119.93L227.913 152.621C233.951 155.641 243.765 155.641 249.804 152.621L315.158 119.93C318.177 118.42 319.687 116.446 319.687 114.471V111.568C319.716 113.542 318.206 115.517 315.158 117.026Z" fill="#8CD9FF"/>
<path d="M315.158 119.929L249.775 152.621C243.736 155.64 233.922 155.64 227.883 152.621L162.529 119.929C159.51 118.419 158 116.445 158 114.471V117.374C158 119.349 159.51 121.323 162.529 122.833L227.913 155.524C233.951 158.544 243.765 158.544 249.804 155.524L315.158 122.833C318.177 121.323 319.687 119.349 319.687 117.374V114.471C319.716 116.445 318.206 118.419 315.158 119.929Z" fill="white"/>
<path d="M315.158 102.51L249.804 135.201C243.765 138.221 233.951 138.221 227.912 135.201L162.529 102.51C156.49 99.4902 156.49 94.5836 162.529 91.5641L227.912 58.8725C233.951 55.853 243.765 55.853 249.804 58.8725L315.158 91.5641C321.226 94.5836 321.226 99.4902 315.158 102.51Z" fill="url(#paint6_linear_1785_29352)"/>
<path d="M282.738 46.6592L232.841 21.2745C232.634 21.1224 232.389 21.0295 232.133 21.006C231.877 20.9824 231.62 21.029 231.388 21.1408L228.006 23.0518L230.777 61.0494C230.807 61.77 231.011 62.4727 231.37 63.098C231.729 63.7234 232.234 64.253 232.841 64.6422L280.885 95.6011L284.286 93.6901C284.487 93.5377 284.645 93.3364 284.745 93.1055C284.845 92.8747 284.885 92.6219 284.86 92.3715V50.3284C284.83 49.5906 284.622 48.8709 284.252 48.2317C283.883 47.5924 283.363 47.0527 282.738 46.6592Z" fill="#D5DAF2"/>
<path d="M279.356 48.6089L229.382 23.0454C228.255 22.3956 227.337 22.9308 227.337 24.2303V66.2733C227.375 66.9848 227.579 67.6776 227.935 68.2952C228.29 68.9128 228.786 69.4379 229.382 69.8278L279.356 95.3913C280.484 96.041 281.401 95.5251 281.401 94.2065V52.1635C281.361 51.4526 281.155 50.761 280.8 50.1438C280.445 49.5266 279.95 49.001 279.356 48.6089Z" fill="#E3E6F9"/>
<path d="M230.032 67.3143V26.6782L278.706 51.3604V91.951L230.032 67.3143Z" fill="url(#paint7_linear_1785_29352)"/>
<path d="M280.177 97.1654L229.344 71.0223C228.706 70.7014 228.003 70.5342 227.289 70.5342C226.576 70.5342 225.872 70.7014 225.235 71.0223L187.716 88.6825V93.1409C187.744 93.3937 187.835 93.6353 187.982 93.8427C188.13 94.0501 188.327 94.2164 188.557 94.3257L238.765 120.196C239.399 120.517 240.099 120.684 240.81 120.684C241.52 120.684 242.221 120.517 242.855 120.196L279.317 101.991C279.553 101.887 279.756 101.723 279.908 101.515C280.059 101.307 280.152 101.062 280.177 100.806V97.1654Z" fill="#D8DCF7"/>
<path d="M279.318 95.4293L228.985 69.5647C228.348 69.2438 227.644 69.0767 226.931 69.0767C226.217 69.0767 225.514 69.2438 224.876 69.5647L188.604 87.6418C187.476 88.3107 187.476 89.3617 188.604 90.0115L238.765 115.861C239.399 116.181 240.1 116.348 240.81 116.348C241.521 116.348 242.221 116.181 242.855 115.861L279.318 97.7991C279.561 97.7104 279.771 97.5492 279.919 97.3372C280.067 97.1253 280.147 96.8729 280.147 96.6142C280.147 96.3556 280.067 96.1032 279.919 95.8912C279.771 95.6793 279.561 95.518 279.318 95.4293Z" fill="#F5F5FD"/>
<g style="mix-blend-mode:multiply">
<path d="M204.695 82.1038L226.108 71.439L276.03 96.841L254.701 107.506L204.695 82.1038Z" fill="#D5D5F9"/>
</g>
<g style="mix-blend-mode:multiply">
<path d="M225.856 106.33L208.348 97.3444L218.887 91.9702L236.731 100.955L225.856 106.33Z" fill="#D5D5F9"/>
</g>
<path d="M270.333 70.5343L235.841 53.2553C236.058 52.5163 237.288 51.0646 240.47 51.1689C244.448 51.2993 246.534 55.8636 250.838 58.6673C255.141 61.4711 256.249 57.4937 261.727 58.6673C266.108 59.6063 269.29 66.9699 270.333 70.5343Z" fill="#5FDEFF"/>
<path d="M278.132 157.182L281.409 157.092L289.758 163.825C291.014 164.813 289.892 167.326 288.142 166.563L280.017 162.972C278.043 162.119 278.177 159.247 278.132 157.182Z" fill="#8EAAE8"/>
<path d="M266.238 109.558L281.723 122.889L282.396 123.473C283.429 124.371 284.012 125.672 284.012 126.974L284.102 156.418C284.102 158.393 282.531 160.009 280.556 160.009C278.716 160.009 277.235 158.663 277.01 156.912L273.24 127.692L275.529 131.777L257.755 121.767C254.164 119.747 252.907 115.169 254.927 111.578C256.947 107.988 261.525 106.731 265.116 108.751C265.475 108.93 265.879 109.244 266.238 109.558Z" fill="#130F40"/>
<path d="M265.116 164.901L269.335 173.698C270.143 175.314 266.821 176.526 265.43 174.91L260.896 169.614C260.088 168.626 259.864 166.607 259.864 164.901H265.116Z" fill="#8EAAE8"/>
<path d="M257.934 118.311L262.198 128.41L262.737 129.712C262.961 130.206 263.185 130.744 263.365 131.283C263.769 132.315 264.083 133.392 264.397 134.47C264.981 136.624 265.34 138.779 265.475 140.933L265.519 141.741V142.459L265.564 143.806L265.609 146.544L265.744 152.02L266.013 162.972C266.058 164.947 264.487 166.607 262.512 166.652C260.762 166.697 259.28 165.44 258.921 163.78L256.767 153.052L255.69 147.711L255.151 145.018L254.882 143.671L254.747 143.043L254.612 142.504C254.253 141.068 253.76 139.721 253.131 138.42C252.817 137.791 252.503 137.163 252.099 136.534C251.919 136.22 251.74 135.951 251.515 135.637L250.797 134.515L244.827 125.358C242.583 121.902 243.571 117.279 247.027 115.035C250.483 112.79 255.106 113.778 257.35 117.234C257.53 117.503 257.754 117.907 257.934 118.311Z" fill="#130F40"/>
<path d="M272.881 97.5294C272.612 97.9782 272.342 98.427 271.938 98.9208C271.849 99.0554 271.714 99.1901 271.579 99.3248C271.445 99.4594 271.31 99.5941 271.131 99.7287C270.772 99.998 270.278 100.267 269.649 100.402C268.976 100.537 268.258 100.402 267.719 100.178C267.45 100.043 267.27 99.9083 267.046 99.7736C266.867 99.639 266.732 99.5043 266.597 99.3696C266.059 98.831 265.789 98.3822 265.52 97.9333C264.981 97.0356 264.667 96.2277 264.308 95.3749C263.994 94.567 263.68 93.759 263.455 92.9511C262.378 89.7642 261.57 86.5774 260.627 83.3906C260.089 81.5503 261.121 79.6651 262.917 79.1265C264.757 78.5879 266.642 79.6202 267.181 81.4605C267.27 81.7747 267.315 82.0889 267.315 82.4031C267.36 83.9741 267.45 85.545 267.585 87.116C267.719 88.687 267.944 90.2131 268.213 91.6943C268.348 92.4573 268.527 93.1755 268.707 93.8488C268.886 94.5221 269.156 95.1953 269.38 95.734C269.515 95.9584 269.649 96.1828 269.694 96.2277C269.649 96.1828 269.649 96.1828 269.56 96.1379C269.515 96.1379 269.47 96.093 269.425 96.093C269.38 96.093 269.29 96.0482 269.245 96.0482C269.111 96.0482 268.976 96.0033 268.841 96.0482C268.572 96.093 268.482 96.1828 268.437 96.2277C268.437 96.1828 268.437 96.1828 268.482 96.1379C268.572 96.0032 268.707 95.7788 268.841 95.5095C269.335 94.3425 270.682 93.8039 271.849 94.2528C273.016 94.7465 273.554 96.0481 273.106 97.26C273.061 97.3498 273.016 97.4396 272.971 97.5294H272.881Z" fill="#3176FF"/>
<path d="M265.61 103.23C265.655 110.008 265.52 116.92 265.52 116.92C265.206 119.973 245.097 125 243.616 121.813C243.257 117.369 243.436 113.015 244.334 108.662L265.61 103.23Z" fill="#130F40"/>
<path d="M239.531 84.0638C243.93 80.2486 255.42 77.735 261.076 77.0618C264.263 76.7027 267.046 79.0816 267.225 82.2684C267.719 90.9761 266.013 104.666 266.013 104.666C266.013 108.167 245.95 112.207 244.199 108.526C244.199 98.7412 242.045 95.6442 237.556 88.4626C237.511 86.8018 238.229 85.186 239.531 84.0638Z" fill="#3176FF"/>
<path d="M255.735 76.2536L254.927 81.9091C252.817 81.9091 250.438 80.8767 250.573 79.0813L251.605 73.4707L255.735 76.2536Z" fill="#F3ABC7"/>
<path d="M258.248 76.5673C258.024 77.5099 256.273 78.5872 254.747 77.4201L251.65 73.4702C251.65 73.4702 250.259 66.9619 254.882 66.9619C256.228 66.9619 258.248 67.9943 258.966 69.1164C259.954 71.5402 258.877 74.1884 258.248 76.5673Z" fill="#F3ABC7"/>
<path d="M250.707 69.8798C250.707 66.4237 254.522 65.4362 256.632 66.289C257.978 66.8725 260.043 68.6231 262.197 67.3663C262.781 69.1168 261.479 70.2389 259.459 70.8673C257.619 71.4059 255.644 71.002 254.208 69.7452L254.163 69.7003L253.176 69.5656C254.073 70.5531 254.253 72.2138 253.939 74.2337L256.228 75.4007L258.696 74.6825L258.427 77.4205C258.337 78.0489 257.799 78.5426 257.17 78.5875L256.362 78.6324C256.048 78.6324 255.689 78.5427 255.465 78.3182C255.465 78.3182 252.772 76.6126 252.816 75.67L252.996 72.4832C252.772 72.0792 252.502 72.0792 252.323 72.2587C252.143 72.4832 251.021 76.7024 251.021 76.7024C251.021 76.7024 250.707 71.2713 250.707 69.8798Z" fill="#130F40"/>
<path d="M268.527 103.992L261.031 105.788C260.403 105.922 259.954 105.563 260.044 104.98L262.378 92.5017C262.513 91.8733 263.096 91.2898 263.769 91.1103L271.265 89.3149C271.894 89.1802 272.342 89.5393 272.253 90.1228L269.919 102.601C269.784 103.229 269.2 103.858 268.527 103.992Z" fill="#130F40"/>
<path d="M272.971 95.7342C273.105 97.2154 271.804 98.0683 270.726 98.3376L270.906 95.9587C270.592 95.4649 270.457 94.8365 270.547 94.253L270.816 92.0088L272.028 92.5923C273.24 93.2656 273.464 94.2082 272.971 95.7342Z" fill="#F3ABC7"/>
<path d="M261.211 102.916L259.011 104.127C258.248 104.487 257.53 104.89 256.767 105.25C255.286 106.013 253.715 106.686 252.054 107.269C250.438 107.853 248.688 108.302 246.803 108.526C246.354 108.571 245.86 108.571 245.366 108.616C245.142 108.616 244.873 108.616 244.603 108.571C244.334 108.571 244.11 108.526 243.84 108.526C243.302 108.436 242.808 108.392 242.269 108.167C242 108.077 241.731 108.032 241.506 107.898C241.237 107.763 241.013 107.673 240.743 107.539C239.756 107 238.813 106.237 238.095 105.339C237.422 104.442 236.883 103.454 236.524 102.467C236.434 102.197 236.344 101.973 236.3 101.749C236.255 101.524 236.165 101.255 236.12 101.03L235.985 100.312C235.94 100.088 235.896 99.8185 235.896 99.594C235.851 99.1003 235.806 98.6515 235.761 98.1577L235.716 97.4396V96.7663C235.761 94.926 236.03 93.1306 236.389 91.425C236.748 89.6744 237.197 88.0137 237.736 86.353C238.319 84.5576 240.205 83.5701 242 84.1087C243.795 84.6922 244.783 86.5774 244.244 88.3728C244.199 88.5074 244.154 88.687 244.065 88.8216V88.8665C242.763 91.5596 241.776 94.3874 241.461 97.1254C241.327 98.4719 241.282 99.8185 241.596 100.896C241.731 101.434 241.955 101.883 242.18 102.287C242.449 102.691 242.763 102.96 243.122 103.23C243.212 103.275 243.347 103.364 243.436 103.409C243.526 103.454 243.661 103.499 243.795 103.544C244.02 103.679 244.289 103.679 244.558 103.768C244.828 103.813 245.142 103.858 245.456 103.858C245.77 103.858 246.085 103.903 246.399 103.858C247.745 103.813 249.137 103.499 250.528 103.005C253.356 102.063 256.139 100.626 258.742 98.9657H258.787C259.864 98.2924 261.256 98.6066 261.929 99.6838C262.602 100.761 262.288 102.152 261.211 102.826C261.301 102.871 261.256 102.916 261.211 102.916Z" fill="#3176FF"/>
<path d="M261.121 95.6893C261.211 95.4649 261.48 95.3751 261.704 95.4649C261.929 95.5547 262.064 95.824 261.974 96.0484L261.525 97.4847L262.378 96.5421L264.038 95.4649C264.263 95.3302 264.532 95.3751 264.622 95.5996C264.757 95.7791 264.712 96.0484 264.532 96.1831L263.186 97.2154L263.006 97.4847L263.949 97.0808L264.353 99.9983L263.814 100.582C263.814 100.582 262.827 101.614 261.974 102.377C261.48 102.826 260.717 102.781 260.268 102.287L258.966 100.896C258.607 100.492 258.563 99.9085 258.832 99.4148L261.121 95.6893Z" fill="#F3ABC7"/>
<path d="M198.599 265.783L171.602 250.169C168.491 248.365 167.06 245.939 167.247 243.451C167.434 240.713 169.486 237.852 173.406 235.55L189.455 226.344C196.92 222.051 208.241 221.554 214.773 225.286L272.004 258.38C275.114 260.184 276.545 262.61 276.358 265.099C276.172 267.836 274.119 270.697 270.2 272.999L254.15 282.206C250.045 284.569 244.819 285.751 239.78 285.751H140V265.721H198.599V265.783Z" fill="url(#paint8_linear_1785_29352)"/>
<path d="M224.664 265.596C225.411 266.902 221.056 268.831 219.003 269.328C217.821 269.577 216.204 271.257 214.96 270.883C211.912 270.012 213.28 267.711 213.778 266.715C214.524 265.16 215.893 265.222 215.893 265.222C215.893 265.222 219.128 265.409 220.123 265.16C221.056 264.911 223.607 263.792 224.664 265.596Z" fill="#001370"/>
<path d="M218.194 264.725C218.256 265.969 218.008 267.525 215.955 267.773C212.222 268.209 214.648 263.917 214.648 263.917L218.194 264.725Z" fill="white"/>
<path d="M200.403 243.513C210.108 235.177 221.118 232.502 225.597 236.545C230.076 240.589 220.745 260.744 219.003 264.352C217.261 267.96 213.218 266.654 213.84 264.041C214.462 261.491 215.582 247.992 215.582 247.992C215.582 247.992 206.437 255.394 197.728 255.021C191.446 254.648 198.164 245.441 200.403 243.513Z" fill="url(#paint9_linear_1785_29352)"/>
<path d="M219.563 277.104L204.073 268.146L188.646 277.104L204.073 286L219.563 277.104Z" fill="#BCC0E5"/>
<path d="M219.563 257.633V275.425L204.073 284.382V266.591L219.563 257.633Z" fill="#E6E7F5"/>
<path d="M188.646 257.633V275.425L204.073 284.382V266.591L188.646 257.633Z" fill="#BCC0E5"/>
<path d="M219.563 257.634L204.073 248.738L188.646 257.634L204.073 266.591L219.563 257.634Z" fill="#DCDEFA"/>
<path d="M239.718 269.888C240.465 271.194 236.11 273.123 234.057 273.62C232.875 273.869 231.258 275.549 230.014 275.176C226.966 274.305 228.334 272.003 228.832 271.008C229.578 269.453 230.947 269.515 230.947 269.515C230.947 269.515 234.182 269.701 235.177 269.453C236.172 269.266 238.723 268.146 239.718 269.888Z" fill="#001370"/>
<path d="M233.248 269.018C233.311 270.262 233.062 271.817 231.009 272.066C227.277 272.501 228.334 269.018 228.334 269.018H233.248Z" fill="white"/>
<path d="M210.792 249.484C221.864 243.077 231.32 238.411 235.799 242.455C240.278 246.498 234.492 262.548 233.933 267.338C233.497 271.319 228.21 272.128 228.085 269.453C227.961 266.467 228.085 253.403 228.085 253.403C228.085 253.403 216.826 261.428 208.179 260.992C201.834 260.681 197.604 257.82 195.924 255.705C192.689 251.537 194.493 245.067 194.493 245.067L210.792 249.484Z" fill="url(#paint10_linear_1785_29352)"/>
<path d="M190.637 219.874C190.823 217.137 192.876 214.275 196.795 211.974L212.845 202.767C220.31 198.475 231.631 197.977 238.163 201.709L295.394 234.804C298.504 236.608 299.935 239.034 299.748 241.522C299.561 244.259 297.509 247.121 293.59 249.422L277.54 258.629C270.075 262.921 258.754 263.419 252.222 259.686L194.991 226.592C191.943 224.788 190.512 222.362 190.637 219.874Z" fill="url(#paint11_linear_1785_29352)"/>
<path d="M190.637 216.763C190.823 214.026 192.876 211.165 196.795 208.863L212.845 199.656C220.31 195.364 231.631 194.866 238.163 198.599L295.394 231.693C298.504 233.497 299.935 235.923 299.748 238.411C299.561 241.148 297.509 244.01 293.59 246.312L277.54 255.518C270.075 259.811 258.754 260.308 252.222 256.576L194.991 223.482C191.943 221.74 190.512 219.314 190.637 216.763Z" fill="url(#paint12_linear_1785_29352)"/>
<path d="M259.088 238.111V236.282L212.868 225.812V227.838L245.049 246.317L259.088 238.111Z" fill="#D2D7F6"/>
<path d="M212.797 225.88L227.034 217.648L259.096 236.165L244.859 244.385L212.797 225.88Z" fill="#E5E9FF"/>
<path d="M226.592 224.851C226.592 224.851 228.21 224.913 229.578 224.353C230.885 223.793 231.818 223.482 233.435 224.353C234.368 224.851 235.488 226.157 234.617 226.406C233.186 226.779 233 226.157 232.564 225.846C232.129 225.535 230.823 225.722 230.698 225.908C230.449 226.219 231.382 227.028 231.258 227.277C230.947 227.899 229.765 226.53 228.334 226.219C226.904 225.846 226.406 226.344 226.468 226.219C226.468 226.033 226.592 224.851 226.592 224.851Z" fill="#F5D5D5"/>
<path d="M227.339 224.415C227.774 224.291 228.459 226.157 227.836 226.468C227.214 226.841 213.653 231.32 213.653 231.32L207.246 221.429L215.457 225.66L227.339 224.415Z" fill="url(#paint13_linear_1785_29352)"/>
<path d="M241.211 232.627C243.202 230.823 243.637 231.258 243.451 231.631C243.326 231.942 242.704 232.378 242.891 232.627C243.015 232.875 243.451 232.378 245.192 233.062C246.934 233.746 248.241 235.799 247.245 236.11C246.25 236.359 244.259 235.488 242.953 235.861C241.647 236.235 239.905 235.426 239.905 235.426L239.78 233.995C239.78 233.933 240.962 232.875 241.211 232.627Z" fill="#F5D5D5"/>
<path d="M216.515 222.611C218.443 232.626 212.098 235.674 217.012 246.374C219.749 252.284 213.404 257.011 205.877 257.074C200.216 257.136 193 251.973 193.062 249.36C193.498 230.138 195.924 220.123 201.149 214.151C206.313 208.303 215.395 217.199 216.515 222.611Z" fill="url(#paint14_linear_1785_29352)"/>
<path d="M204.696 216.453C203.7 215.768 203.949 214.711 205.38 214.4C207.059 214.026 206.251 210.045 206.251 210.045L211.849 213.778C211.849 213.778 210.792 215.768 211.29 216.266C213.653 218.319 212.098 221.491 204.696 216.453Z" fill="#F5D5D5"/>
<path d="M211.849 213.778C212.16 213.031 213.653 214.213 214.524 213.778C215.395 213.342 218.07 206.686 216.204 203.638C214.4 200.59 208.925 203.016 206.25 210.107L211.849 213.778Z" fill="#F5D5D5"/>
<path d="M217.759 204.82C217.137 207.06 214.089 208.864 213.716 209.237C213.342 209.672 213.84 208.615 213.342 208.428C212.845 208.304 212.036 208.801 212.409 209.983C212.783 211.227 210.356 212.347 209.672 212.72C208.988 213.156 206.375 213.467 205.504 212.907C204.696 212.347 205.691 207.682 205.318 204.633C204.944 201.648 206.064 199.47 208.801 199.968C211.476 200.466 211.165 196.92 213.591 197.791C216.017 198.662 215.333 200.59 217.572 200.466C219.75 200.466 218.008 203.887 217.759 204.82Z" fill="#020C82"/>
<path d="M239.096 233.373C240.651 233.497 240.9 235.488 240.154 235.923C239.469 236.359 229.516 238.909 224.851 237.852C216.764 235.923 210.73 229.578 211.601 224.477C213.031 216.204 216.017 222.86 224.664 230.449C230.014 235.239 239.096 233.373 239.096 233.373Z" fill="url(#paint15_linear_1785_29352)"/>
<path d="M248.072 205.261C248.072 204.807 248.706 204.437 249.499 204.437C250.291 204.437 250.926 204.807 250.926 205.261V206.191C250.926 206.656 250.281 207.016 249.499 207.016C248.717 207.016 248.072 206.656 248.072 206.191V205.261Z" fill="url(#paint16_linear_1785_29352)"/>
<path d="M250.926 205.261C250.926 205.716 250.281 206.086 249.499 206.086C248.717 206.086 248.072 205.716 248.072 205.261C248.072 204.807 248.706 204.437 249.499 204.437C250.291 204.437 250.926 204.775 250.926 205.261Z" fill="white"/>
<path d="M261.103 210.567L249.171 203.687L246.836 205.04L258.757 211.931L261.103 210.567Z" fill="#B3B3B3"/>
<path d="M261.082 217.87C261.034 219.338 260.609 220.769 259.846 222.023C259.138 223.317 258.112 224.408 256.865 225.194L250.524 228.851L238.603 221.971V219.265L244.944 215.608C245.493 215.256 245.947 214.773 246.265 214.203C246.605 213.64 246.794 213 246.814 212.343V205.04L258.757 211.93L261.103 210.546L261.082 217.87Z" fill="#E5E9FF"/>
<path d="M259.845 222.024C260.608 220.769 261.034 219.338 261.082 217.87V210.567L258.736 211.931V219.223C258.711 219.876 258.522 220.512 258.186 221.073C257.871 221.643 257.417 222.123 256.865 222.468L250.524 226.125V228.83L256.865 225.173C258.109 224.393 259.135 223.31 259.845 222.024V222.024Z" fill="#D2D7F6"/>
<path d="M250.567 226.124L238.635 219.244V221.949L250.556 228.829L250.567 226.124Z" fill="url(#paint17_linear_1785_29352)"/>
<path d="M231.881 165.164L276.269 190.782C276.687 191.054 277.035 191.421 277.285 191.852C277.535 192.284 277.679 192.768 277.707 193.266V222.679C277.721 222.853 277.692 223.029 277.622 223.189C277.552 223.35 277.443 223.49 277.305 223.598L274.927 224.972L231.881 197.863C231.465 197.59 231.119 197.223 230.871 196.792C230.623 196.36 230.48 195.877 230.454 195.38L228.52 166.4L230.866 165.1C231.027 165.025 231.204 164.991 231.381 165.002C231.559 165.013 231.73 165.069 231.881 165.164Z" fill="#D2D7F6"/>
<path d="M229.524 166.527L273.913 192.145C274.331 192.417 274.679 192.784 274.929 193.215C275.178 193.647 275.323 194.131 275.35 194.629V224.042C275.35 224.961 274.716 225.331 273.923 224.866L229.535 199.248C229.12 198.981 228.774 198.622 228.522 198.198C228.271 197.774 228.122 197.298 228.087 196.806V167.351C228.087 166.442 228.732 166.072 229.524 166.527Z" fill="#E5E9FF"/>
<path d="M273.437 222.425V194.069L229.978 168.979V197.335L273.437 222.425Z" fill="white"/>
<path d="M250.437 194.499V183.894L234.184 174.511V185.115L250.437 194.499Z" fill="#F3F5FF"/>
<path d="M250.437 206.026V195.421L234.184 186.038V196.642L250.437 206.026Z" fill="#F3F5FF"/>
<path d="M267.667 204.492V193.888L251.414 184.504V195.109L267.667 204.492Z" fill="#F3F5FF"/>
<path d="M267.667 216.02V205.415L251.414 196.032V206.637L267.667 216.02Z" fill="#F3F5FF"/>
<ellipse cx="242.31" cy="183.187" rx="1.67642" ry="2.36502" transform="rotate(-13.3635 242.31 183.187)" fill="#E5E9FF"/>
<path fill-rule="evenodd" clip-rule="evenodd" d="M238.504 187.609L246 191.937C245.976 191.477 245.909 191.004 245.796 190.527C245.074 187.487 242.741 185.437 240.586 185.949C239.706 186.158 238.992 186.761 238.504 187.609Z" fill="#E5E9FF"/>
<ellipse cx="242.31" cy="194.717" rx="1.67642" ry="2.36502" transform="rotate(-13.3635 242.31 194.717)" fill="#E5E9FF"/>
<ellipse cx="258.152" cy="203.896" rx="1.67642" ry="2.36502" transform="rotate(-13.3635 258.152 203.896)" fill="#E5E9FF"/>
<ellipse cx="258.152" cy="192.38" rx="1.67642" ry="2.36502" transform="rotate(-13.3635 258.152 192.38)" fill="#E5E9FF"/>
<path fill-rule="evenodd" clip-rule="evenodd" d="M254.345 208.318L261.841 212.646C261.817 212.185 261.75 211.713 261.637 211.236C260.915 208.196 258.582 206.146 256.427 206.658C255.547 206.867 254.833 207.47 254.345 208.318Z" fill="#E5E9FF"/>
<path fill-rule="evenodd" clip-rule="evenodd" d="M238.504 199.139L246 203.467C245.976 203.007 245.909 202.534 245.796 202.057C245.074 199.017 242.741 196.967 240.586 197.479C239.706 197.688 238.992 198.291 238.504 199.139Z" fill="#E5E9FF"/>
<path fill-rule="evenodd" clip-rule="evenodd" d="M254.345 196.802L261.841 201.129C261.817 200.669 261.75 200.196 261.637 199.72C260.915 196.679 258.582 194.63 256.427 195.142C255.547 195.351 254.833 195.954 254.345 196.802Z" fill="#E5E9FF"/>
<path opacity="0.090909" d="M123.802 346.01L149.256 333.266C153.001 331.376 156.058 326.808 156.058 323.063V297.609C156.058 293.865 153.001 292.319 149.256 294.208L123.802 306.952C120.058 308.842 117 313.411 117 317.155V342.609C117 346.388 120.023 347.899 123.802 346.01Z" fill="#A7B1F2"/>
<path opacity="0.1818" d="M123.802 344.773L149.256 332.029C153.001 330.14 156.058 325.571 156.058 321.827V296.372C156.058 292.628 153.001 291.082 149.256 292.971L123.802 305.716C120.058 307.605 117 312.174 117 315.918V341.373C117 345.117 120.023 346.663 123.802 344.773Z" fill="#A7B1F2"/>
<path opacity="0.2727" d="M123.802 343.537L149.256 330.793C153.001 328.904 156.058 324.335 156.058 320.591V295.136C156.058 291.392 153.001 289.846 149.256 291.735L123.802 304.48C120.058 306.369 117 310.938 117 314.682V340.137C117 343.881 120.023 345.427 123.802 343.537Z" fill="#A7B1F2"/>
<path opacity="0.3636" d="M123.802 342.301L149.256 329.556C153.001 327.667 156.058 323.098 156.058 319.354V293.899C156.058 290.155 153.001 288.609 149.256 290.499L123.802 303.243C120.058 305.132 117 309.701 117 313.445V338.9C117 342.644 120.023 344.19 123.802 342.301Z" fill="#A7B1F2"/>
<path opacity="0.4545" d="M123.802 341.064L149.256 328.32C153.001 326.43 156.058 321.862 156.058 318.117V292.663C156.058 288.919 153.001 287.373 149.256 289.262L123.802 302.006C120.058 303.896 117 308.464 117 312.209V337.663C117 341.408 120.023 342.953 123.802 341.064Z" fill="#A7B1F2"/>
<path opacity="0.5455" d="M123.802 339.827L149.256 327.083C153.001 325.193 156.058 320.624 156.058 316.88V291.426C156.058 287.681 153.001 286.136 149.256 288.025L123.802 300.769C120.058 302.659 117 307.227 117 310.972V336.426C117 340.17 120.023 341.716 123.802 339.827Z" fill="#A7B1F2"/>
<path opacity="0.6364" d="M123.802 338.591L149.256 325.846C153.001 323.957 156.058 319.388 156.058 315.644V290.19C156.058 286.445 153.001 284.9 149.256 286.789L123.802 299.533C120.058 301.423 117 305.991 117 309.736V335.19C117 338.934 120.023 340.446 123.802 338.591Z" fill="#A7B1F2"/>
<path opacity="0.7273" d="M123.802 337.354L149.256 324.609C153.001 322.72 156.058 318.151 156.058 314.407V288.952C156.058 285.208 153.001 283.662 149.256 285.552L123.802 298.296C120.058 300.185 117 304.754 117 308.498V333.953C117 337.697 120.023 339.209 123.802 337.354Z" fill="#A7B1F2"/>
<path opacity="0.8182" d="M123.802 336.117L149.256 323.373C153.001 321.483 156.058 316.915 156.058 313.17V287.716C156.058 283.971 153.001 282.426 149.256 284.315L123.802 297.059C120.058 298.949 117 303.517 117 307.262V332.716C117 336.46 120.023 337.972 123.802 336.117Z" fill="#A7B1F2"/>
<path opacity="0.9091" d="M123.802 334.88L149.256 322.136C153.001 320.247 156.058 315.678 156.058 311.934V286.479C156.058 282.735 153.001 281.189 149.256 283.078L123.802 295.823C120.058 297.712 117 302.281 117 306.025V331.48C117 335.224 120.023 336.735 123.802 334.88Z" fill="#A7B1F2"/>
<path d="M123.802 333.609L149.257 320.865C153.001 318.975 156.058 314.407 156.058 310.662V285.208C156.058 281.464 153.001 279.918 149.257 281.807L123.802 294.552C120.058 296.441 117.001 301.01 117.001 304.754V330.208C117.001 333.987 120.024 335.498 123.802 333.609Z" fill="#A7B1F2"/>
<path d="M123.768 294.552L149.222 281.807C151.111 280.846 152.863 280.777 154.1 281.43L161.657 285.208C161.76 285.243 161.863 285.311 161.966 285.38H162.001C163.134 286.033 163.821 287.304 163.821 289.09V314.544C163.821 318.289 160.764 322.892 157.02 324.747L131.565 337.491C129.676 338.453 127.958 338.522 126.722 337.869L119.164 334.09C119.061 334.056 118.958 333.987 118.855 333.953C117.722 333.3 117 332.029 117 330.243V304.789C116.966 301.01 120.023 296.441 123.768 294.552Z" fill="url(#paint18_linear_1785_29352)"/>
<path d="M131.531 337.526L156.985 324.781C160.73 322.892 163.787 318.323 163.787 314.579V289.09C163.787 285.346 160.73 283.8 156.985 285.69L131.531 298.434C127.787 300.323 124.729 304.892 124.729 308.636V334.091C124.729 337.869 127.752 339.381 131.531 337.526Z" fill="url(#paint19_linear_1785_29352)"/>
<path d="M152.302 317.914C158.023 310.587 159.048 301.826 154.592 298.347C150.136 294.868 141.886 297.987 136.165 305.314C130.444 312.642 129.419 321.402 133.875 324.881C138.331 328.361 146.581 325.241 152.302 317.914Z" fill="#8CD9FF"/>
<path d="M144.241 311.589L137.921 303.242C139.844 301.215 142.043 299.566 144.241 298.467C144.482 298.33 144.757 298.227 144.997 298.124L144.241 311.589Z" fill="#005ABE"/>
<path d="M144.241 311.589L144.481 296.784C148.329 294.929 152.039 294.654 154.718 296.028C157.432 297.437 158.943 300.356 158.943 304.238L144.241 311.589Z" fill="#017AFF"/>
</g>
</g>
<defs>
<linearGradient id="paint0_linear_1785_29352" x1="243.215" y1="352.58" x2="243.215" y2="328.462" gradientUnits="userSpaceOnUse">
<stop stop-color="white" stop-opacity="0"/>
<stop offset="1" stop-color="#22D2FD"/>
</linearGradient>
<linearGradient id="paint1_linear_1785_29352" x1="229.167" y1="324.561" x2="257.263" y2="324.561" gradientUnits="userSpaceOnUse">
<stop stop-color="#D3D7F2"/>
<stop offset="0.45" stop-color="#BBC9F8"/>
<stop offset="0.55" stop-color="#D3D7F2"/>
<stop offset="1" stop-color="#F2F3FF"/>
</linearGradient>
<linearGradient id="paint2_linear_1785_29352" x1="235.475" y1="321.393" x2="241.669" y2="309.008" gradientUnits="userSpaceOnUse">
<stop stop-color="#E8EAFB"/>
<stop offset="1" stop-color="white"/>
</linearGradient>
<linearGradient id="paint3_linear_1785_29352" x1="217.001" y1="337.63" x2="235.819" y2="327.94" gradientUnits="userSpaceOnUse">
<stop offset="0.0001" stop-color="white" stop-opacity="0"/>
<stop offset="1" stop-color="#22D2FD"/>
</linearGradient>
<linearGradient id="paint4_linear_1785_29352" x1="269.429" y1="337.63" x2="250.611" y2="327.94" gradientUnits="userSpaceOnUse">
<stop offset="0.0001" stop-color="white" stop-opacity="0"/>
<stop offset="1" stop-color="#22D2FD"/>
</linearGradient>
<linearGradient id="paint5_linear_1785_29352" x1="159.608" y1="158.084" x2="321.042" y2="158.084" gradientUnits="userSpaceOnUse">
<stop stop-color="#E1E3F8"/>
<stop offset="0.5" stop-color="#D3D7F2"/>
<stop offset="1" stop-color="#F2F3FF"/>
</linearGradient>
<linearGradient id="paint6_linear_1785_29352" x1="157.991" y1="97.0352" x2="319.703" y2="97.0352" gradientUnits="userSpaceOnUse">
<stop stop-color="#E8EAFB"/>
<stop offset="1" stop-color="white"/>
</linearGradient>
<linearGradient id="paint7_linear_1785_29352" x1="254.369" y1="26.6782" x2="254.369" y2="91.951" gradientUnits="userSpaceOnUse">
<stop stop-color="#4B58DA"/>
<stop offset="0.527895" stop-color="#3640B3"/>
<stop offset="1" stop-color="#4C59DA"/>
</linearGradient>
<linearGradient id="paint8_linear_1785_29352" x1="276.326" y1="254.223" x2="139.99" y2="254.223" gradientUnits="userSpaceOnUse">
<stop stop-color="#CED4FF"/>
<stop offset="1" stop-color="#CED4FF" stop-opacity="0"/>
</linearGradient>
<linearGradient id="paint9_linear_1785_29352" x1="242.089" y1="282.091" x2="222.39" y2="259.075" gradientUnits="userSpaceOnUse">
<stop stop-color="#5B68F5"/>
<stop offset="1" stop-color="#010854"/>
</linearGradient>
<linearGradient id="paint10_linear_1785_29352" x1="238.739" y1="284.742" x2="218.444" y2="253.031" gradientUnits="userSpaceOnUse">
<stop stop-color="#5B68F5"/>
<stop offset="1" stop-color="#010854"/>
</linearGradient>
<linearGradient id="paint11_linear_1785_29352" x1="299.815" y1="230.702" x2="190.654" y2="230.702" gradientUnits="userSpaceOnUse">
<stop stop-color="#DCDEFA"/>
<stop offset="1" stop-color="#F2F3FA"/>
</linearGradient>
<linearGradient id="paint12_linear_1785_29352" x1="240.795" y1="233.922" x2="254.688" y2="214.224" gradientUnits="userSpaceOnUse">
<stop stop-color="white"/>
<stop offset="1" stop-color="#F2F3FA"/>
</linearGradient>
<linearGradient id="paint13_linear_1785_29352" x1="228.053" y1="226.383" x2="207.193" y2="226.383" gradientUnits="userSpaceOnUse">
<stop stop-color="#5B68F5"/>
<stop offset="1" stop-color="#8992F5"/>
</linearGradient>
<linearGradient id="paint14_linear_1785_29352" x1="217.649" y1="234.674" x2="193.036" y2="234.674" gradientUnits="userSpaceOnUse">
<stop stop-color="#5B68F5"/>
<stop offset="1" stop-color="#8992F5"/>
</linearGradient>
<linearGradient id="paint15_linear_1785_29352" x1="240.535" y1="229.373" x2="211.473" y2="229.373" gradientUnits="userSpaceOnUse">
<stop stop-color="#5B68F5"/>
<stop offset="1" stop-color="#8992F5"/>
</linearGradient>
<linearGradient id="paint16_linear_1785_29352" x1="95.5209" y1="822.285" x2="95.5209" y2="828.345" gradientUnits="userSpaceOnUse">
<stop stop-color="#BECEFA"/>
<stop offset="0.5" stop-color="#D3E2FD"/>
<stop offset="1" stop-color="#E4F1FF"/>
</linearGradient>
<linearGradient id="paint17_linear_1785_29352" x1="-454.619" y1="2660.85" x2="-454.619" y2="2744.44" gradientUnits="userSpaceOnUse">
<stop stop-color="#BECEFA"/>
<stop offset="0.5" stop-color="#D3E2FD"/>
<stop offset="1" stop-color="#E4F1FF"/>
</linearGradient>
<linearGradient id="paint18_linear_1785_29352" x1="126.534" y1="337.092" x2="154.428" y2="281.837" gradientUnits="userSpaceOnUse">
<stop stop-color="#E1E3F8"/>
<stop offset="0.4179" stop-color="#B4C1F3"/>
<stop offset="0.5363" stop-color="#D3D7F2"/>
<stop offset="1" stop-color="#D3D7F2"/>
</linearGradient>
<linearGradient id="paint19_linear_1785_29352" x1="163.794" y1="311.604" x2="124.715" y2="311.604" gradientUnits="userSpaceOnUse">
<stop stop-color="#E8EAFB"/>
<stop offset="1" stop-color="white"/>
</linearGradient>
</defs>
</svg>
