<svg width="289" height="352" viewBox="0 0 289 352" fill="none" xmlns="http://www.w3.org/2000/svg">
<g opacity="0.2">
<mask id="mask0_2929_67848" style="mask-type:alpha" maskUnits="userSpaceOnUse" x="-10" y="0" width="299" height="367">
<rect x="-9.56618" y="1.15648" width="297.603" height="364.626" fill="white" stroke="white" stroke-width="0.867647"/>
</mask>
<g mask="url(#mask0_2929_67848)">
<path opacity="0.3" d="M231.613 102.676H202.922L287.565 152.894C291.361 155.172 291.361 160.841 287.565 163.069L202.922 213.286H231.613C234.423 213.286 237.134 212.527 239.55 211.109L318.08 164.537C322.96 161.651 322.96 154.362 318.08 151.476L239.55 104.904C237.134 103.436 234.423 102.676 231.613 102.676Z" fill="url(#paint0_linear_2929_67848)"/>
<path d="M295.148 161.628C295.005 159.459 293.386 157.243 290.385 155.46L217.239 112.767C211.429 109.393 202.667 109.008 197.667 111.947L121.711 156.375C119.33 157.773 118.235 159.652 118.33 161.628C118.473 163.796 120.092 166.013 123.092 167.795L196.238 210.489C202.048 213.862 210.81 214.247 215.811 211.308L291.766 166.88C294.195 165.531 295.29 163.603 295.148 161.628Z" fill="#BCC0E5"/>
<path d="M295.149 160.669L295.149 148.145L265.481 162.745L217.241 134.556C211.431 131.183 202.669 130.798 197.668 133.737L148.095 162.745L118.379 148.145L118.379 160.139C118.379 160.332 118.379 160.525 118.379 160.669C118.522 162.838 120.141 165.054 123.141 166.837L196.287 209.53C199.287 211.265 203.097 212.229 206.764 212.325C210.145 212.421 213.431 211.747 215.86 210.349L291.815 165.921C294.197 164.524 295.292 162.645 295.149 160.669Z" fill="url(#paint1_linear_2929_67848)"/>
<path d="M295.148 148.145C295.005 145.977 293.386 143.76 290.385 141.977L217.239 99.2841C211.429 95.911 202.667 95.5256 197.667 98.4649L121.711 142.893C119.33 144.29 118.235 146.169 118.33 148.145C118.473 150.314 120.092 152.53 123.092 154.313L196.238 197.006C202.048 200.379 210.81 200.765 215.811 197.825L291.766 153.397C294.195 152 295.29 150.121 295.148 148.145Z" fill="white"/>
<path d="M295.148 147.277C295.005 145.109 293.386 142.892 290.385 141.11L217.239 98.4164C211.429 95.0434 202.667 94.6579 197.667 97.5973L121.711 142.025C119.33 143.423 118.235 145.302 118.33 147.277C118.473 149.446 120.092 151.662 123.092 153.445L196.238 196.138C202.048 199.512 210.81 199.897 215.811 196.958L291.766 152.53C294.195 151.132 295.29 149.205 295.148 147.277Z" fill="url(#paint2_linear_2929_67848)"/>
<g opacity="0.2">
<path opacity="0.2" d="M151.951 146.555C152.428 146.844 152.428 147.278 151.951 147.567C151.475 147.856 150.713 147.856 150.237 147.567C149.761 147.278 149.761 146.844 150.237 146.555C150.713 146.266 151.475 146.266 151.951 146.555Z" fill="white"/>
<path opacity="0.2" d="M161.142 141.207C161.618 141.496 161.618 141.929 161.142 142.219C160.666 142.508 159.904 142.508 159.427 142.219C158.951 141.929 158.951 141.496 159.427 141.207C159.904 140.917 160.666 140.917 161.142 141.207Z" fill="white"/>
<path opacity="0.2" d="M170.333 135.81C170.809 136.099 170.809 136.532 170.333 136.822C169.857 137.111 169.095 137.111 168.619 136.822C168.143 136.532 168.143 136.099 168.619 135.81C169.095 135.52 169.857 135.52 170.333 135.81Z" fill="white"/>
<path opacity="0.2" d="M179.572 130.461C180.048 130.751 180.048 131.184 179.572 131.473C179.095 131.763 178.333 131.763 177.857 131.473C177.381 131.184 177.381 130.751 177.857 130.461C178.286 130.172 179.095 130.172 179.572 130.461Z" fill="white"/>
<path opacity="0.2" d="M161.142 151.952C161.618 152.241 161.618 152.675 161.142 152.964C160.666 153.253 159.904 153.253 159.427 152.964C158.951 152.675 158.951 152.241 159.427 151.952C159.904 151.663 160.666 151.663 161.142 151.952Z" fill="white"/>
<path opacity="0.2" d="M170.333 146.555C170.809 146.844 170.809 147.278 170.333 147.567C169.857 147.856 169.095 147.856 168.619 147.567C168.143 147.278 168.143 146.844 168.619 146.555C169.095 146.266 169.857 146.266 170.333 146.555Z" fill="white"/>
<path opacity="0.2" d="M179.572 141.207C180.048 141.496 180.048 141.929 179.572 142.219C179.095 142.508 178.333 142.508 177.857 142.219C177.381 141.929 177.381 141.496 177.857 141.207C178.286 140.917 179.095 140.917 179.572 141.207Z" fill="white"/>
<path opacity="0.2" d="M188.762 135.81C189.238 136.099 189.238 136.532 188.762 136.822C188.286 137.111 187.524 137.111 187.048 136.822C186.571 136.532 186.571 136.099 187.048 135.81C187.524 135.52 188.286 135.52 188.762 135.81Z" fill="white"/>
<path opacity="0.2" d="M170.333 157.302C170.809 157.591 170.809 158.025 170.333 158.314C169.857 158.603 169.095 158.603 168.619 158.314C168.143 158.025 168.143 157.591 168.619 157.302C169.095 157.061 169.857 157.061 170.333 157.302Z" fill="white"/>
<path opacity="0.2" d="M179.572 151.952C180.048 152.241 180.048 152.675 179.572 152.964C179.095 153.253 178.333 153.253 177.857 152.964C177.381 152.675 177.381 152.241 177.857 151.952C178.333 151.663 179.095 151.663 179.572 151.952Z" fill="white"/>
<path opacity="0.2" d="M188.762 146.555C189.238 146.844 189.238 147.278 188.762 147.567C188.286 147.856 187.524 147.856 187.048 147.567C186.571 147.278 186.571 146.844 187.048 146.555C187.524 146.266 188.286 146.266 188.762 146.555Z" fill="white"/>
<path opacity="0.2" d="M197.953 141.207C198.43 141.496 198.43 141.929 197.953 142.219C197.477 142.508 196.715 142.508 196.239 142.219C195.763 141.929 195.763 141.496 196.239 141.207C196.715 140.917 197.477 140.917 197.953 141.207Z" fill="white"/>
<path opacity="0.2" d="M178.715 163.901C179.399 163.901 179.953 163.578 179.953 163.178C179.953 162.779 179.399 162.456 178.715 162.456C178.031 162.456 177.477 162.779 177.477 163.178C177.477 163.578 178.031 163.901 178.715 163.901Z" fill="white"/>
<path opacity="0.2" d="M187.905 158.553C188.589 158.553 189.143 158.229 189.143 157.83C189.143 157.431 188.589 157.107 187.905 157.107C187.221 157.107 186.667 157.431 186.667 157.83C186.667 158.229 187.221 158.553 187.905 158.553Z" fill="white"/>
<path opacity="0.2" d="M197.953 151.952C198.43 152.241 198.43 152.675 197.953 152.964C197.477 153.253 196.715 153.253 196.239 152.964C195.763 152.675 195.763 152.241 196.239 151.952C196.715 151.663 197.477 151.663 197.953 151.952Z" fill="white"/>
<path opacity="0.2" d="M207.144 146.555C207.62 146.844 207.62 147.278 207.144 147.567C206.668 147.856 205.906 147.856 205.429 147.567C204.953 147.278 204.953 146.844 205.429 146.555C205.906 146.266 206.668 146.266 207.144 146.555Z" fill="white"/>
<path opacity="0.2" d="M188.762 168.045C189.238 168.335 189.238 168.768 188.762 169.057C188.286 169.346 187.524 169.346 187.048 169.057C186.571 168.768 186.571 168.335 187.048 168.045C187.524 167.805 188.286 167.805 188.762 168.045Z" fill="white"/>
<path opacity="0.2" d="M197.953 162.698C198.43 162.987 198.43 163.421 197.953 163.71C197.477 163.999 196.715 163.999 196.239 163.71C195.763 163.421 195.763 162.987 196.239 162.698C196.715 162.409 197.477 162.409 197.953 162.698Z" fill="white"/>
<path opacity="0.2" d="M207.144 157.302C207.62 157.591 207.62 158.025 207.144 158.314C206.668 158.603 205.906 158.603 205.429 158.314C204.953 158.025 204.953 157.591 205.429 157.302C205.906 157.061 206.668 157.061 207.144 157.302Z" fill="white"/>
<path opacity="0.2" d="M216.336 151.952C216.812 152.241 216.812 152.675 216.336 152.964C215.86 153.253 215.098 153.253 214.622 152.964C214.146 152.675 214.146 152.241 214.622 151.952C215.098 151.663 215.86 151.663 216.336 151.952Z" fill="white"/>
<path opacity="0.2" d="M216.336 151.952C216.812 152.241 216.812 152.675 216.336 152.964C215.86 153.253 215.098 153.253 214.622 152.964C214.146 152.675 214.146 152.241 214.622 151.952C215.098 151.663 215.86 151.663 216.336 151.952Z" fill="white"/>
<path opacity="0.2" d="M188.762 125.064C189.238 125.353 189.238 125.787 188.762 126.076C188.286 126.365 187.524 126.365 187.048 126.076C186.571 125.787 186.571 125.353 187.048 125.064C187.524 124.775 188.286 124.775 188.762 125.064Z" fill="white"/>
<path opacity="0.2" d="M197.953 119.666C198.43 119.955 198.43 120.389 197.953 120.678C197.477 120.967 196.715 120.967 196.239 120.678C195.763 120.389 195.763 119.955 196.239 119.666C196.715 119.425 197.477 119.425 197.953 119.666Z" fill="white"/>
<path opacity="0.2" d="M206.287 115.523C206.971 115.523 207.525 115.2 207.525 114.8C207.525 114.401 206.971 114.078 206.287 114.078C205.603 114.078 205.049 114.401 205.049 114.8C205.049 115.2 205.603 115.523 206.287 115.523Z" fill="white"/>
<path opacity="0.2" d="M197.953 130.461C198.43 130.751 198.43 131.184 197.953 131.473C197.477 131.763 196.715 131.763 196.239 131.473C195.763 131.184 195.763 130.751 196.239 130.461C196.715 130.172 197.477 130.172 197.953 130.461Z" fill="white"/>
<path opacity="0.2" d="M207.144 125.064C207.62 125.353 207.62 125.787 207.144 126.076C206.668 126.365 205.906 126.365 205.429 126.076C204.953 125.787 204.953 125.353 205.429 125.064C205.906 124.775 206.668 124.775 207.144 125.064Z" fill="white"/>
<path opacity="0.2" d="M216.336 119.666C216.812 119.955 216.812 120.389 216.336 120.678C215.86 120.967 215.098 120.967 214.622 120.678C214.146 120.389 214.146 119.955 214.622 119.666C215.098 119.425 215.86 119.425 216.336 119.666Z" fill="white"/>
<path opacity="0.2" d="M207.144 135.81C207.62 136.099 207.62 136.532 207.144 136.822C206.668 137.111 205.906 137.111 205.429 136.822C204.953 136.532 204.953 136.099 205.429 135.81C205.906 135.52 206.668 135.52 207.144 135.81Z" fill="white"/>
<path opacity="0.2" d="M216.336 130.461C216.812 130.751 216.812 131.184 216.336 131.473C215.86 131.763 215.098 131.763 214.622 131.473C214.146 131.184 214.146 130.751 214.622 130.461C215.098 130.172 215.86 130.172 216.336 130.461Z" fill="white"/>
<path opacity="0.2" d="M225.573 125.064C226.05 125.353 226.05 125.786 225.573 126.075C225.097 126.365 224.335 126.365 223.859 126.075C223.383 125.786 223.383 125.353 223.859 125.064C224.335 124.774 225.097 124.774 225.573 125.064Z" fill="white"/>
<path opacity="0.2" d="M215.478 142.412C216.162 142.412 216.717 142.088 216.717 141.689C216.717 141.29 216.162 140.966 215.478 140.966C214.795 140.966 214.24 141.29 214.24 141.689C214.24 142.088 214.795 142.412 215.478 142.412Z" fill="white"/>
<path opacity="0.2" d="M225.573 135.809C226.05 136.098 226.05 136.532 225.573 136.821C225.097 137.11 224.335 137.11 223.859 136.821C223.383 136.532 223.383 136.098 223.859 135.809C224.335 135.52 225.097 135.52 225.573 135.809Z" fill="white"/>
<path opacity="0.2" d="M234.764 130.461C235.24 130.751 235.24 131.184 234.764 131.473C234.288 131.763 233.526 131.763 233.05 131.473C232.573 131.184 232.573 130.751 233.05 130.461C233.526 130.172 234.288 130.172 234.764 130.461Z" fill="white"/>
<path opacity="0.2" d="M225.573 146.555C226.05 146.844 226.05 147.278 225.573 147.567C225.097 147.856 224.335 147.856 223.859 147.567C223.383 147.278 223.383 146.844 223.859 146.555C224.335 146.266 225.097 146.266 225.573 146.555Z" fill="white"/>
<path opacity="0.2" d="M234.764 141.207C235.24 141.496 235.24 141.929 234.764 142.219C234.288 142.508 233.526 142.508 233.05 142.219C232.573 141.929 232.573 141.496 233.05 141.207C233.526 140.917 234.288 140.917 234.764 141.207Z" fill="white"/>
<path opacity="0.2" d="M243.956 135.81C244.432 136.099 244.432 136.532 243.956 136.822C243.48 137.111 242.718 137.111 242.242 136.822C241.766 136.532 241.766 136.099 242.242 135.81C242.718 135.52 243.48 135.52 243.956 135.81Z" fill="white"/>
<path opacity="0.2" d="M197.953 173.442C198.43 173.731 198.43 174.165 197.953 174.454C197.477 174.743 196.715 174.743 196.239 174.454C195.763 174.165 195.763 173.731 196.239 173.442C196.715 173.153 197.477 173.153 197.953 173.442Z" fill="white"/>
<path opacity="0.2" d="M207.144 168.045C207.62 168.335 207.62 168.768 207.144 169.057C206.668 169.346 205.906 169.346 205.429 169.057C204.953 168.768 204.953 168.335 205.429 168.045C205.906 167.805 206.668 167.805 207.144 168.045Z" fill="white"/>
<path opacity="0.2" d="M216.336 162.698C216.812 162.987 216.812 163.421 216.336 163.71C215.86 163.999 215.098 163.999 214.622 163.71C214.146 163.421 214.146 162.987 214.622 162.698C215.098 162.409 215.86 162.409 216.336 162.698Z" fill="white"/>
<path opacity="0.2" d="M225.573 157.302C226.05 157.591 226.05 158.025 225.573 158.314C225.097 158.603 224.335 158.603 223.859 158.314C223.383 158.025 223.383 157.591 223.859 157.302C224.335 157.013 225.097 157.061 225.573 157.302Z" fill="white"/>
<path opacity="0.2" d="M207.144 178.792C207.62 179.081 207.62 179.514 207.144 179.803C206.668 180.093 205.906 180.093 205.429 179.803C204.953 179.514 204.953 179.081 205.429 178.792C205.906 178.551 206.668 178.551 207.144 178.792Z" fill="white"/>
<path opacity="0.2" d="M216.336 173.442C216.812 173.731 216.812 174.165 216.336 174.454C215.86 174.743 215.098 174.743 214.622 174.454C214.146 174.165 214.146 173.731 214.622 173.442C215.098 173.153 215.86 173.153 216.336 173.442Z" fill="white"/>
<path opacity="0.2" d="M224.717 169.299C225.401 169.299 225.955 168.975 225.955 168.576C225.955 168.177 225.401 167.853 224.717 167.853C224.033 167.853 223.479 168.177 223.479 168.576C223.479 168.975 224.033 169.299 224.717 169.299Z" fill="white"/>
<path opacity="0.2" d="M234.764 162.698C235.24 162.987 235.24 163.421 234.764 163.71C234.288 163.999 233.526 163.999 233.05 163.71C232.573 163.421 232.573 162.987 233.05 162.698C233.526 162.409 234.288 162.409 234.764 162.698Z" fill="white"/>
<path opacity="0.2" d="M234.764 151.952C235.24 152.241 235.24 152.675 234.764 152.964C234.288 153.253 233.526 153.253 233.05 152.964C232.573 152.675 232.573 152.241 233.05 151.952C233.526 151.663 234.288 151.663 234.764 151.952Z" fill="white"/>
<path opacity="0.2" d="M243.956 146.555C244.432 146.844 244.432 147.278 243.956 147.567C243.48 147.856 242.718 147.856 242.242 147.567C241.766 147.278 241.766 146.844 242.242 146.555C242.718 146.266 243.48 146.266 243.956 146.555Z" fill="white"/>
<path opacity="0.2" d="M253.146 141.207C253.622 141.496 253.622 141.929 253.146 142.219C252.67 142.508 251.908 142.508 251.431 142.219C250.955 141.929 250.955 141.496 251.431 141.207C251.908 140.917 252.67 140.917 253.146 141.207Z" fill="white"/>
<path opacity="0.2" d="M243.956 157.302C244.432 157.591 244.432 158.025 243.956 158.314C243.48 158.603 242.718 158.603 242.242 158.314C241.766 158.025 241.766 157.591 242.242 157.302C242.718 157.061 243.48 157.061 243.956 157.302Z" fill="white"/>
<path opacity="0.2" d="M253.146 151.952C253.622 152.241 253.622 152.675 253.146 152.964C252.67 153.253 251.908 153.253 251.431 152.964C250.955 152.675 250.955 152.241 251.431 151.952C251.908 151.663 252.67 151.663 253.146 151.952Z" fill="white"/>
<path opacity="0.2" d="M262.336 146.555C262.812 146.844 262.812 147.278 262.336 147.567C261.86 147.856 261.098 147.856 260.622 147.567C260.146 147.278 260.146 146.844 260.622 146.555C261.098 146.266 261.86 146.266 262.336 146.555Z" fill="white"/>
</g>
<path d="M214.499 108.636H200.868L241.05 132.103C242.859 133.149 242.859 135.829 241.05 136.875L176.643 174.462H190.273C191.63 174.462 192.922 174.135 194.02 173.416L255.521 137.529C257.846 136.156 257.846 132.757 255.521 131.384L218.246 109.617C217.147 108.963 215.855 108.636 214.499 108.636Z" fill="url(#paint3_linear_2929_67848)"/>
<path d="M244.345 134.98C244.281 133.934 243.506 132.823 242.02 131.973L206.037 110.99C203.194 109.356 198.866 109.16 196.411 110.598L134.911 146.55C133.748 147.269 133.167 148.184 133.231 149.165C133.296 150.211 134.071 151.322 135.557 152.172L171.54 173.155C174.382 174.789 178.711 174.985 181.165 173.547L242.666 137.595C243.829 136.876 244.41 135.961 244.345 134.98Z" fill="#9295B2"/>
<path d="M244.346 133.476V94.3203L133.232 108.44V147.334C133.232 147.399 133.232 147.53 133.232 147.595C133.297 148.641 134.072 149.752 135.558 150.602L171.541 171.585C173.027 172.435 174.9 172.892 176.709 172.958C178.389 173.023 180.004 172.696 181.167 171.977L242.667 136.025C243.83 135.371 244.411 134.456 244.346 133.476Z" fill="url(#paint4_linear_2929_67848)"/>
<path d="M244.345 94.3209C244.281 93.275 243.506 92.1638 242.02 91.314L206.037 70.3309C203.194 68.6967 198.866 68.5006 196.411 69.9387L134.911 105.891C133.748 106.61 133.167 107.525 133.231 108.506C133.296 109.552 134.071 110.663 135.557 111.513L171.54 132.496C174.382 134.13 178.711 134.326 181.165 132.888L242.666 96.9356C243.829 96.2166 244.41 95.3014 244.345 94.3209Z" fill="white"/>
<path d="M244.345 93.0143C244.281 91.9684 243.506 90.8571 242.02 90.0073L206.037 69.0243C203.194 67.3901 198.866 67.194 196.411 68.6321L134.911 104.584C133.748 105.303 133.167 106.219 133.231 107.199C133.296 108.245 134.071 109.356 135.557 110.206L171.54 131.189C174.382 132.823 178.711 133.019 181.165 131.581L242.666 95.629C243.829 94.9099 244.41 93.9948 244.345 93.0143Z" fill="url(#paint5_linear_2929_67848)"/>
<path d="M191.18 120.077C190.017 120.077 188.919 119.75 187.885 119.162L181.748 115.567C180.908 115.044 180.392 114.194 180.392 113.214C180.392 112.233 180.908 111.318 181.748 110.86L209.139 94.8454C211.206 93.6687 213.726 93.6687 215.728 94.8454L221.866 98.4406C222.705 98.9635 223.222 99.8133 223.222 100.794C223.222 101.774 222.705 102.689 221.866 103.147L194.475 119.162C193.441 119.816 192.278 120.077 191.18 120.077ZM212.434 94.78C211.4 94.78 210.431 95.0415 209.527 95.5644L182.136 111.58C181.554 111.906 181.167 112.56 181.167 113.279C181.167 113.998 181.554 114.586 182.136 114.979L188.273 118.574C190.082 119.62 192.278 119.62 194.087 118.574L221.478 102.559C222.059 102.232 222.447 101.578 222.447 100.859C222.447 100.14 222.059 99.5518 221.478 99.1596L215.341 95.5644C214.436 95.0415 213.467 94.78 212.434 94.78Z" fill="#BCC0E5"/>
<mask id="mask1_2929_67848" style="mask-type:alpha" maskUnits="userSpaceOnUse" x="151" y="18" width="53" height="90">
<path d="M203.129 76.5428L151.771 107.135V48.4346L203.129 18.0386V76.5428Z" fill="url(#paint6_linear_2929_67848)"/>
</mask>
<g mask="url(#mask1_2929_67848)">
<path d="M203.13 76.5428L151.772 107.135V48.4346L203.13 18.0386V76.5428Z" fill="url(#paint7_linear_2929_67848)"/>
<path opacity="0.8" d="M156.359 27.8409L198.479 3.26261C200.998 1.75915 203.066 2.6743 203.066 5.22364V55.8837C203.066 58.433 200.998 61.7668 198.479 63.2049L156.359 87.7832C153.84 89.2866 151.772 88.3715 151.772 85.8221V35.2275C151.772 32.6127 153.84 29.3444 156.359 27.8409Z" fill="#BCDBFF"/>
<path d="M187.236 62.6171L194.988 58.1067V37.7773L187.236 42.2877V62.6171Z" fill="#0249FF"/>
<path d="M178.064 68.0435L185.752 63.5331V35.5557L178.064 40.066V68.0435Z" fill="#0148FF" fill-opacity="0.86"/>
<path d="M168.826 73.4036L176.578 68.8932V35.5557L168.826 40.066V73.4036Z" fill="#0249FF" fill-opacity="0.91"/>
<path d="M159.654 78.765L167.342 74.2547V29.6738L159.654 34.1842V78.765Z" fill="#0148FF"/>
<path d="M187.236 50.0664L194.988 45.5561V42.353L187.236 46.9288V50.0664Z" fill="white"/>
<path d="M178.064 60.0034L185.752 55.4931V52.29L178.064 56.8658V60.0034Z" fill="white"/>
<path d="M168.826 50.526L176.578 46.0156V42.8779L168.826 47.3883V50.526Z" fill="white"/>
<path d="M159.654 40.9161L167.342 36.4057V33.2681L159.654 37.7784V40.9161Z" fill="white"/>
<path d="M151.772 107.788C151.578 107.788 151.32 107.657 151.191 107.461C150.997 107.134 151.126 106.742 151.449 106.546L202.742 76.0189C203.065 75.8228 203.453 75.9535 203.647 76.2804C203.841 76.6072 203.711 76.9994 203.388 77.1955L152.095 107.722C152.03 107.788 151.901 107.788 151.772 107.788Z" fill="#011AFF"/>
</g>
<path d="M264.955 137.398C258.624 137.398 253.521 140.078 253.521 143.412C253.521 146.746 258.624 149.426 264.955 149.426H323.16V137.333H264.955V137.398Z" fill="url(#paint8_linear_2929_67848)"/>
<path d="M265.924 137.006C266.699 137.79 266.505 139.424 266.053 140.078C265.343 141.255 264.374 140.601 263.728 140.993C261.983 142.105 258.366 143.15 257.59 142.627C256.815 142.105 256.234 140.47 260.304 138.902C262.113 138.182 263.017 137.202 263.017 137.202L265.924 137.006Z" fill="#636BE4"/>
<path d="M265.859 135.632C265.988 136.678 266.053 137.332 266.118 137.658C266.182 137.92 266.053 138.181 265.924 138.312C265.407 138.77 264.244 139.489 263.017 138.9C263.017 138.9 262.241 138.574 262.629 137.593C262.952 136.613 263.146 135.371 263.146 135.371L265.859 135.632Z" fill="white"/>
<path d="M273.16 142.888C273.935 143.673 273.806 145.372 273.289 145.96C272.772 146.549 271.932 146.091 271.545 146.745C270.124 149.294 267.475 148.967 266.571 148.902C265.214 148.771 265.149 147.595 267.41 145.503C269.607 143.411 269.994 142.888 269.994 142.888H273.16Z" fill="#636BE4"/>
<path d="M272.189 80.3311C274.773 86.7371 271.996 88.1752 270.058 96.2154C268.313 103.406 269.412 117.983 266.117 136.874C265.923 138.051 262.37 138.312 262.435 136.155C262.435 132.429 260.432 118.963 260.238 110.923C260.109 105.498 260.238 88.5674 260.238 88.5674L272.189 80.3311Z" fill="url(#paint9_linear_2929_67848)"/>
<path d="M273.16 141.516C273.289 142.562 273.354 143.215 273.418 143.542C273.483 143.804 273.354 144.065 273.225 144.196C272.708 144.654 271.545 145.373 270.317 144.784C270.317 144.784 269.542 144.457 269.93 143.477C270.253 142.496 270.447 141.254 270.447 141.254L273.16 141.516Z" fill="white"/>
<path d="M258.754 76.4747C255.524 78.9587 254.232 79.9392 254.232 79.9392L251.066 78.1743L255.588 71.6375L257.074 70.3955L259.142 73.3371L258.754 76.4747Z" fill="#D5E9F5"/>
<path d="M279.942 84.8423C282.526 91.2483 280.588 99.4193 278.779 107.46C275.614 121.252 274.322 132.757 273.611 142.235C273.547 143.412 269.864 144.392 269.606 142.235C269.283 139.62 268.055 122.821 267.539 117.069C266.699 107.59 267.991 93.144 267.991 93.144L279.942 84.8423Z" fill="url(#paint10_linear_2929_67848)"/>
<path d="M261.661 64.9692L261.467 77.5852C261.467 77.5852 259.529 76.0164 258.689 76.474C258.689 76.474 259.076 72.0943 255.523 71.7021C255.588 71.7021 260.562 65.6229 261.661 64.9692Z" fill="#8EB4FF"/>
<path d="M281.881 89.2213C280.912 94.843 274.064 97.9806 265.343 93.078C256.622 88.1754 260.756 86.2798 260.885 81.5733C261.014 76.8668 263.728 74.3828 261.79 67.4538C259.787 60.5249 269.994 65.1006 275.033 69.4149C280.072 73.5984 282.785 83.9919 281.881 89.2213Z" fill="#8EB4FF"/>
<path d="M276.647 69.4798C280.717 74.7092 281.751 91.0511 280.846 96.2152C280.071 100.66 276.13 100.529 269.993 99.0914C270.123 98.2416 270.704 93.0122 270.704 91.1819C270.898 83.5338 269.024 76.9971 270.123 67.7148C270.123 67.7148 274.192 66.9958 270.252 65.1655C266.311 63.3352 264.567 63.3352 264.05 64.8387C263.533 66.3421 263.856 78.3698 263.598 86.5408C263.469 89.5477 262.306 93.6659 262.241 95.1039C256.944 91.3126 260.045 85.691 260.174 81.5074C260.303 76.801 261.337 74.5131 261.208 67.3226C261.078 59.9361 272.577 64.185 276.647 69.4798Z" fill="url(#paint11_linear_2929_67848)"/>
<path d="M268.378 60.1328C270.122 63.8588 269.541 64.5125 271.027 65.8852C271.608 66.4081 269.605 67.454 268.184 67.5194L265.471 70.8531L265.6 66.212C265.6 66.212 264.696 65.8198 264.89 65.0354C265.083 64.251 265.729 63.6627 265.083 62.6168C264.889 62.1592 268.378 60.1328 268.378 60.1328Z" fill="#D5E9F5"/>
<path d="M269.218 60.1318C268.443 62.6812 266.118 63.2041 264.309 63.1388C262.5 63.0734 260.11 56.602 261.273 54.3141C262.5 52.0262 266.828 50.7189 268.443 53.0721C270.058 55.4254 269.218 60.1318 269.218 60.1318Z" fill="#D5E9F5"/>
<path d="M259.722 81.7688H259.787L262.694 80.9844C262.888 80.919 262.952 80.7883 262.888 80.5922C262.823 80.3961 262.694 80.3307 262.5 80.3961L259.593 81.1805C259.399 81.2459 259.335 81.3766 259.399 81.5727C259.464 81.7035 259.593 81.7688 259.722 81.7688Z" fill="white"/>
<path d="M275.033 69.3502C278.133 70.2 278.586 75.4948 279.49 79.9398C280.394 84.3848 276.066 83.2736 274.516 81.7048C273.03 80.0706 270.769 68.1736 275.033 69.3502Z" fill="#8EB4FF"/>
<path d="M259.528 80.791C260.626 80.5295 260.756 81.1178 261.725 82.4905C263.921 83.3403 269.089 85.3667 271.35 86.2819C271.35 86.2819 272.901 73.862 273.547 71.9663L278.133 79.9412C276.518 87.0009 274.774 89.8771 273.353 91.2498C272.255 92.3611 263.469 86.9355 260.045 84.7784C260.045 84.7784 258.947 84.9745 257.138 83.5364C255.394 82.033 258.301 81.1178 259.528 80.791Z" fill="#D5E9F5"/>
<path d="M269.605 60.329C268.83 61.9632 270.833 61.5056 270.962 62.6168C271.091 63.7281 268.378 63.2705 267.667 61.7671C267.28 60.9173 266.698 61.048 267.603 60.1982C268.507 59.3484 267.215 58.4987 266.44 59.0216C265.665 59.5446 265.148 58.6294 265.019 57.9757C264.89 57.322 262.629 58.1065 261.143 57.9757C259.657 57.845 257.848 56.7991 258.623 55.1649C259.398 53.4653 259.915 54.642 260.368 54.0537C260.82 53.4653 259.334 53.0731 260.432 52.3541C261.53 51.635 262.241 53.0078 262.758 52.3541C263.21 51.635 264.567 51.8965 265.277 51.2428C265.988 50.5892 266.763 51.9619 267.151 51.7658C267.538 51.5697 269.153 52.0273 269.412 54.4459C269.67 56.9298 269.864 55.9493 270.187 57.1913C270.51 58.3679 269.605 60.329 269.605 60.329Z" fill="#8EB4FF"/>
<path d="M259.077 82.5537L250.355 75.2979L255.394 84.5801L264.051 92.2935L259.077 82.5537Z" fill="#5A61FF"/>
<path d="M251.583 77.52C249.322 80.5923 250.355 82.0304 251.001 82.9455C251.647 83.7953 258.107 87.8481 259.012 89.4823C259.916 91.1165 262.113 90.7243 262.888 90.2667C263.663 89.8745 264.115 88.3711 263.598 87.2598C263.017 85.8871 260.885 87.1945 260.885 87.1945L253.262 80.723L251.583 77.52Z" fill="#D5E9F5"/>
<path d="M272.449 78.6984C273.87 77.5218 277.553 79.4174 277.876 81.5092L278.78 80.3979L276.325 73.2729L273.935 71.1157L272.708 72.0309L272.449 78.6984Z" fill="#8EB4FF"/>
<path d="M228.776 151.06C222.445 151.06 217.342 153.741 217.342 157.074C217.342 160.408 222.445 163.088 228.776 163.088H286.982V150.995H228.776V151.06Z" fill="url(#paint12_linear_2929_67848)"/>
<path d="M209.268 60.7872C207.911 58.9569 207.007 58.6955 206.296 57.9111C205.586 57.1266 206.038 56.9305 206.555 57.2574C207.072 57.5842 207.395 57.8457 207.33 57.5842C207.33 57.4535 207.395 56.9305 205.844 56.0808C204.294 55.231 203.777 53.989 204.681 54.3812C205.586 54.708 206.038 55.4925 207.007 55.3617C207.976 55.231 208.557 54.5773 209.268 55.8847C209.979 57.192 210.625 59.2838 210.625 59.2838L209.268 60.7872Z" fill="#D5E9F5"/>
<path d="M200.352 102.752C198.802 104.06 198.479 103.929 197.381 104.648C196.283 105.367 194.861 105.302 194.926 105.694C194.991 106.086 196.735 105.629 197.122 105.629C197.381 105.629 197.639 106.871 198.479 107.001C199.9 107.197 199.965 105.629 200.74 104.975C201.58 104.387 200.352 102.752 200.352 102.752Z" fill="#D5E9F5"/>
<path d="M221.026 78.7643C223.739 76.5418 231.039 78.9604 232.912 83.7976C232.912 83.7976 230.264 77.7838 228.326 74.8422C226.323 71.9007 218.054 67.6518 217.473 66.8673C216.956 66.0829 212.95 60.3959 211.012 58.631C209.72 57.4544 208.17 60.1345 208.622 60.8535C211.077 65.037 214.63 70.5933 214.63 70.5933L221.026 78.7643Z" fill="#8EB4FF"/>
<path d="M218.439 157.923C217.793 159.034 221.476 160.669 223.155 161.061C224.189 161.322 225.481 162.695 226.515 162.433C229.034 161.714 227.936 159.753 227.548 158.904C226.902 157.596 225.804 157.662 225.804 157.662C225.804 157.662 223.091 157.792 222.251 157.596C221.476 157.4 219.344 156.42 218.439 157.923Z" fill="#8992F5"/>
<path d="M228.002 151.91C227.356 153.022 231.038 154.656 232.718 155.048C233.751 155.31 235.043 156.682 236.077 156.421C238.597 155.702 237.498 153.741 237.111 152.891C236.465 151.584 235.366 151.649 235.366 151.649C235.366 151.649 232.653 151.78 231.813 151.584C230.974 151.387 228.842 150.407 228.002 151.91Z" fill="#8992F5"/>
<path d="M236.336 103.736C238.403 114.783 235.302 129.033 235.302 131.909C235.238 136.616 235.884 147.336 236.336 151.781C236.401 152.5 233.881 153.35 233.623 152.696C231.039 145.375 227.292 132.498 227.486 130.471C227.873 127.007 225.612 103.278 225.612 103.278L229.036 98.3756C229.101 98.3756 234.656 94.9765 236.336 103.736Z" fill="url(#paint13_linear_2929_67848)"/>
<path d="M219.087 100.531C216.115 110.728 220.12 125.501 220.831 136.875C221.025 139.621 222.381 152.564 223.867 158.185C224.126 159.035 227.679 160.342 227.549 158.12C227.291 153.217 227.937 141.386 228.195 137.594C229.294 124.848 232.782 103.865 232.782 103.865L219.087 100.531Z" fill="url(#paint14_linear_2929_67848)"/>
<path d="M236.722 100.923C232.071 93.9287 235.818 92.0984 232.717 82.4893C229.939 73.8607 226.127 74.7759 221.735 76.214C220.895 76.6062 213.595 79.6131 215.662 84.5157C217.019 87.6534 216.76 91.2486 216.114 96.6741C215.081 105.629 215.985 110.728 218.052 111.774C224.642 115.108 241.18 107.656 236.722 100.923Z" fill="url(#paint15_linear_2929_67848)"/>
<path d="M218.441 78.7619C221.478 78.0428 218.635 103.013 216.632 91.5739C216.632 91.5739 214.953 96.3458 211.787 99.0259C208.687 101.641 205.779 102.49 201.451 104.778C200.288 105.432 199.449 103.275 200.095 102.686C202.549 100.464 205.069 97.7185 208.557 94.7116C209.656 93.7311 215.599 79.4155 218.441 78.7619Z" fill="#8EB4FF"/>
<path d="M224.771 65.0371C219.087 67.5211 218.441 69.2207 218.634 70.4626C218.828 71.7046 220.056 71.77 220.508 73.1427C220.96 74.5154 220.895 75.1691 220.379 76.5418C220.056 77.5224 222.123 77.3916 223.415 76.4765C224.707 75.5613 225.159 75.4306 224.642 73.2081C224.061 70.9856 226.322 70.5934 226.58 67.9787C226.774 65.2986 224.771 65.0371 224.771 65.0371Z" fill="#D5E9F5"/>
<path d="M224.191 64.7097C222.77 65.1019 223.739 69.3509 223.48 69.4816C223.48 69.4816 224.772 69.4816 224.126 70.3967C223.48 71.3119 222.834 70.6582 222.834 70.6582C222.834 70.6582 222.705 71.8348 223.48 72.2924C224.32 72.75 224.514 72.6192 224.514 72.6192C224.514 72.6192 226.581 72.8153 228.067 71.1812C229.811 69.2855 227.292 63.86 224.191 64.7097Z" fill="#3261D8"/>
<path d="M227.937 69.1557C227.356 69.3519 227.55 70.4631 227.744 70.6592C228.002 70.8553 229.875 71.8358 229.875 73.8622C229.875 75.954 228.39 75.6925 228.26 79.0263C228.131 82.36 236.917 84.7133 235.948 87.4587C234.979 90.2042 231.555 88.3739 231.038 91.054C230.844 92.2306 231.232 93.6687 236.336 92.5574C241.374 91.4462 241.891 86.6089 238.403 82.0332C234.914 77.4575 236.788 74.9735 235.948 72.6856C235.108 70.3977 230.844 68.3713 227.937 69.1557Z" fill="#3261D8"/>
<path d="M231.969 183.281C230.53 184.737 229.571 186.713 229.571 188.411V192.64C229.571 195.066 231.524 196.037 233.922 194.824L238.101 192.709C238.786 192.363 239.471 191.843 240.053 191.254C241.492 189.798 242.451 187.822 242.451 186.124V181.93C242.451 179.503 240.499 178.533 238.101 179.746L233.922 181.86C233.237 182.172 232.551 182.692 231.969 183.281Z" fill="white"/>
<path d="M238.066 211.083L233.886 213.198C231.489 214.411 229.536 213.44 229.536 211.014V206.785C229.536 204.359 231.489 201.413 233.886 200.2L238.066 198.085C240.463 196.872 242.416 197.843 242.416 200.269V204.463C242.416 206.889 240.463 209.87 238.066 211.083Z" fill="#4066FF"/>
<path d="M238.066 229.419L233.886 231.534C231.489 232.747 229.536 231.776 229.536 229.35V225.121C229.536 222.695 231.489 219.749 233.886 218.536L238.066 216.421C240.463 215.208 242.416 216.179 242.416 218.605V222.834C242.416 225.26 240.463 228.206 238.066 229.419Z" fill="#F4F5FC"/>
<path d="M250.124 174.097C248.686 175.553 247.726 177.529 247.726 179.227V183.456C247.726 185.882 249.679 186.853 252.077 185.64L256.256 183.525C256.941 183.179 257.626 182.659 258.209 182.07C259.647 180.614 260.606 178.638 260.606 176.94V172.711C260.606 170.285 258.654 169.314 256.256 170.527L252.077 172.642C251.358 172.988 250.707 173.508 250.124 174.097Z" fill="#428EFF"/>
<path d="M256.223 201.895L252.044 204.009C249.646 205.222 247.693 204.252 247.693 201.826V197.597C247.693 195.171 249.646 192.224 252.044 191.011L256.223 188.897C258.621 187.684 260.573 188.654 260.573 191.08V195.309C260.539 197.736 258.621 200.682 256.223 201.895Z" fill="#F4F5FC"/>
<path d="M256.223 220.232L252.044 222.347C249.646 223.56 247.693 222.589 247.693 220.163V215.934C247.693 213.508 249.646 210.562 252.044 209.349L256.223 207.234C258.621 206.021 260.573 206.992 260.573 209.418V213.647C260.539 216.073 258.621 219.019 256.223 220.232Z" fill="#2F4DEC"/>
<path d="M257.078 194.512C257.043 194.546 256.975 194.581 256.94 194.581C257.043 194.269 257.078 193.992 257.078 193.68C257.078 192.259 255.947 191.704 254.577 192.397C253.172 193.09 252.076 194.824 252.076 196.21C252.076 196.279 252.076 196.349 252.076 196.418C251.905 196.453 251.768 196.522 251.597 196.591C250.535 197.111 249.678 198.428 249.678 199.468C249.678 200.543 250.535 200.959 251.597 200.439L253.686 199.364V197.423L252.453 198.047L254.406 195.101L256.358 196.071L255.125 196.695V198.636L257.078 197.631C257.078 197.631 257.078 197.631 257.112 197.631C257.968 197.181 258.688 196.141 258.688 195.239C258.688 194.338 257.934 194.096 257.078 194.512Z" fill="#428EFF"/>
<path d="M240.155 221.861C240.155 224.183 238.305 227.026 235.976 228.204C235.154 228.62 234.366 228.759 233.715 228.689L235.736 225.639C235.873 225.396 236.113 225.223 236.319 225.154C236.935 224.946 237.552 224.461 238.031 223.733C238.511 223.005 238.682 222.242 238.545 221.688L237.141 223.802L236.113 223.837L235.634 223.039L237.038 220.925C236.421 221.098 235.736 221.618 235.257 222.346C234.846 223.005 234.64 223.663 234.709 224.218C234.743 224.426 234.674 224.634 234.503 224.842L232.414 227.996C232.037 227.546 231.797 226.922 231.797 226.09C231.797 223.767 233.647 220.925 235.976 219.747C238.305 218.603 240.155 219.539 240.155 221.861Z" fill="#4282FF"/>
<path d="M239.505 186.888C239.403 186.784 237.758 187.095 237.313 186.991C237.313 186.991 237.313 186.991 237.279 186.991C237.998 186.021 238.478 184.738 238.478 183.837C238.478 182.451 237.347 181.896 235.977 182.589C234.607 183.283 233.477 184.981 233.477 186.368C233.477 187.269 233.956 188.066 234.675 188.309C234.675 188.309 234.675 188.309 234.641 188.343C234.196 188.898 232.552 190.25 232.449 190.458C232.175 191.082 231.969 191.671 231.832 192.295L240.122 188.101C239.985 187.615 239.78 187.199 239.505 186.888Z" fill="#4066FF"/>
<g opacity="0.3">
<path opacity="0.0909091" d="M265.577 287.302C271.675 284.252 278.868 284.252 284.931 287.302C284.966 287.302 285 287.337 285.034 287.337C286.644 288.169 288.117 289.001 289.453 289.902C291.132 291.046 291.132 293.507 289.453 294.651C288.117 295.552 286.644 296.418 285.034 297.216C285 297.216 284.966 297.25 284.931 297.25C278.834 300.3 271.64 300.3 265.577 297.25C265.543 297.25 265.509 297.216 265.474 297.216C263.864 296.384 262.391 295.552 261.055 294.651C259.377 293.507 259.377 291.046 261.055 289.902C262.391 289.001 263.864 288.134 265.474 287.337C265.543 287.337 265.577 287.302 265.577 287.302Z" fill="#A7B1F2"/>
<path opacity="0.1818" d="M264.857 286.921C270.955 283.871 278.148 283.871 284.212 286.921C284.246 286.921 284.28 286.956 284.314 286.956C285.924 287.788 287.397 288.619 288.733 289.521C290.412 290.664 290.412 293.125 288.733 294.269C287.397 295.17 285.924 296.037 284.314 296.834C284.28 296.834 284.246 296.869 284.212 296.869C278.114 299.919 270.921 299.919 264.857 296.869C264.823 296.869 264.789 296.834 264.755 296.834C263.145 296.002 261.672 295.17 260.336 294.269C258.657 293.125 258.657 290.664 260.336 289.521C261.672 288.619 263.145 287.753 264.755 286.956C264.789 286.956 264.823 286.921 264.857 286.921Z" fill="#A7B1F2"/>
<path opacity="0.2727" d="M264.103 286.542C270.2 283.491 277.394 283.491 283.457 286.542C283.491 286.542 283.525 286.576 283.56 286.576C285.17 287.408 286.642 288.24 287.978 289.141C289.657 290.285 289.657 292.746 287.978 293.89C286.642 294.791 285.17 295.658 283.56 296.455C283.525 296.455 283.491 296.489 283.457 296.489C277.359 299.54 270.166 299.54 264.103 296.489C264.068 296.489 264.034 296.455 264 296.455C262.39 295.623 260.917 294.791 259.581 293.89C257.902 292.746 257.902 290.285 259.581 289.141C260.917 288.24 262.39 287.373 264 286.576C264.034 286.576 264.068 286.542 264.103 286.542Z" fill="#A7B1F2"/>
<path opacity="0.3636" d="M263.35 286.158C269.447 283.108 276.641 283.108 282.704 286.158C282.738 286.158 282.772 286.193 282.807 286.193C284.417 287.025 285.89 287.857 287.225 288.758C288.904 289.902 288.904 292.363 287.225 293.507C285.89 294.408 284.417 295.274 282.807 296.072C282.772 296.072 282.738 296.106 282.704 296.106C276.606 299.156 269.413 299.156 263.35 296.106C263.315 296.106 263.281 296.072 263.247 296.072C261.637 295.24 260.164 294.408 258.828 293.507C257.149 292.363 257.149 289.902 258.828 288.758C260.164 287.857 261.637 286.99 263.247 286.193C263.281 286.193 263.315 286.193 263.35 286.158Z" fill="#A7B1F2"/>
<path opacity="0.4545" d="M262.597 285.777C268.694 282.727 275.888 282.727 281.951 285.777C281.985 285.777 282.019 285.812 282.054 285.812C283.664 286.643 285.137 287.475 286.473 288.377C288.151 289.52 288.151 291.981 286.473 293.125C285.137 294.026 283.664 294.893 282.054 295.69C282.019 295.69 281.985 295.725 281.951 295.725C275.853 298.775 268.66 298.775 262.597 295.725C262.562 295.725 262.528 295.69 262.494 295.69C260.884 294.858 259.411 294.026 258.075 293.125C256.397 291.981 256.397 289.52 258.075 288.377C259.411 287.475 260.884 286.609 262.494 285.812C262.528 285.812 262.562 285.812 262.597 285.777Z" fill="#A7B1F2"/>
<path opacity="0.5455" d="M261.842 285.396C267.939 282.346 275.133 282.346 281.196 285.396C281.23 285.396 281.265 285.431 281.299 285.431C282.909 286.263 284.382 287.094 285.718 287.996C287.396 289.14 287.396 291.601 285.718 292.744C284.382 293.646 282.909 294.512 281.299 295.309C281.265 295.309 281.23 295.344 281.196 295.344C275.099 298.394 267.905 298.394 261.842 295.344C261.808 295.344 261.773 295.309 261.739 295.309C260.129 294.477 258.656 293.646 257.32 292.744C255.642 291.601 255.642 289.14 257.32 287.996C258.656 287.094 260.129 286.228 261.739 285.431C261.808 285.431 261.808 285.431 261.842 285.396Z" fill="#A7B1F2"/>
<path opacity="0.6364" d="M261.123 285.014C267.22 281.964 274.414 281.964 280.477 285.014C280.512 285.014 280.546 285.049 280.58 285.049C282.19 285.881 283.663 286.713 284.999 287.614C286.677 288.758 286.677 291.219 284.999 292.363C283.663 293.264 282.19 294.13 280.58 294.927C280.546 294.927 280.512 294.962 280.477 294.962C274.38 298.012 267.186 298.012 261.123 294.962C261.089 294.962 261.055 294.927 261.02 294.927C259.41 294.096 257.937 293.264 256.601 292.363C254.923 291.219 254.923 288.758 256.601 287.614C257.937 286.713 259.41 285.846 261.02 285.049C261.055 285.049 261.089 285.049 261.123 285.014Z" fill="#A7B1F2"/>
<path opacity="0.7273" d="M260.369 284.637C266.467 281.587 273.66 281.587 279.723 284.637C279.758 284.637 279.792 284.671 279.826 284.671C281.436 285.503 282.909 286.335 284.245 287.236C285.924 288.38 285.924 290.841 284.245 291.985C282.909 292.886 281.436 293.753 279.826 294.55C279.792 294.55 279.758 294.585 279.723 294.585C273.626 297.635 266.432 297.635 260.369 294.585C260.335 294.585 260.301 294.55 260.266 294.55C258.656 293.718 257.183 292.886 255.847 291.985C254.169 290.841 254.169 288.38 255.847 287.236C257.183 286.335 258.656 285.469 260.266 284.671C260.301 284.671 260.335 284.671 260.369 284.637Z" fill="#A7B1F2"/>
<path opacity="0.8182" d="M259.616 284.288C265.714 281.237 272.907 281.237 278.97 284.288C279.005 284.288 279.039 284.322 279.073 284.322C280.683 285.154 282.156 285.986 283.492 286.887C285.171 288.031 285.171 290.492 283.492 291.636C282.156 292.537 280.683 293.404 279.073 294.201C279.039 294.201 279.005 294.236 278.97 294.236C272.873 297.286 265.679 297.286 259.616 294.236C259.582 294.236 259.548 294.201 259.513 294.201C257.903 293.369 256.43 292.537 255.095 291.636C253.416 290.492 253.416 288.031 255.095 286.887C256.43 285.986 257.903 285.12 259.513 284.322C259.548 284.288 259.582 284.288 259.616 284.288Z" fill="#A7B1F2"/>
<path opacity="0.9091" d="M258.862 283.906C264.96 280.856 272.153 280.856 278.217 283.906C278.251 283.906 278.285 283.941 278.319 283.941C279.929 284.773 281.402 285.605 282.738 286.506C284.417 287.65 284.417 290.111 282.738 291.255C281.402 292.156 279.929 293.022 278.319 293.82C278.285 293.82 278.251 293.854 278.217 293.854C272.119 296.905 264.925 296.905 258.862 293.854C258.828 293.854 258.794 293.82 258.76 293.82C257.15 292.988 255.677 292.156 254.341 291.255C252.662 290.111 252.662 287.65 254.341 286.506C255.677 285.605 257.15 284.738 258.76 283.941C258.794 283.906 258.828 283.906 258.862 283.906Z" fill="#A7B1F2"/>
<path opacity="0.3" d="M258.108 283.525C264.206 280.475 271.399 280.475 277.463 283.525C277.497 283.525 277.531 283.56 277.565 283.56C279.175 284.392 280.648 285.223 281.984 286.125C283.663 287.268 283.663 289.729 281.984 290.873C280.648 291.774 279.175 292.641 277.565 293.438C277.531 293.438 277.497 293.473 277.463 293.473C271.365 296.523 264.172 296.523 258.108 293.473C258.074 293.473 258.04 293.438 258.006 293.438C256.396 292.606 254.923 291.774 253.587 290.873C251.908 289.729 251.908 287.268 253.587 286.125C254.923 285.223 256.396 284.357 258.006 283.56C258.074 283.56 258.074 283.525 258.108 283.525Z" fill="#A7B1F2"/>
</g>
<path d="M277.496 286.505C274.927 285.638 270.713 282.969 268.932 281.34C267.082 279.642 268.384 277.701 270.713 278.082L280.716 279.365V284.252C280.716 285.812 279.311 287.094 277.496 286.505Z" fill="#1E41BF"/>
<path d="M277.016 283.63C279.14 283.63 280.818 281.896 280.818 279.782V239.366C280.818 237.217 279.106 235.519 277.016 235.519C274.892 235.519 273.214 237.252 273.214 239.366V279.782C273.179 281.896 274.892 283.63 277.016 283.63Z" fill="#3176FF"/>
<path d="M270.85 288.793L270.405 284.668L257.696 287.823C255.846 288.308 255.881 291.635 258.141 291.635H268.692C270.199 291.635 270.953 289.937 270.85 288.793Z" fill="#1E41BF"/>
<path d="M267.118 288.863C267.494 288.863 267.905 288.794 268.282 288.69C270.303 288.031 271.399 285.882 270.749 283.837L265.542 267.269C264.583 264.219 264.548 260.995 265.405 257.98C267.529 250.597 269.652 244.635 271.742 240.267C272.667 238.361 271.845 236.039 269.961 235.103C268.077 234.167 265.782 234.999 264.857 236.905C262.63 241.654 260.335 247.997 258.074 255.796C256.772 260.302 256.841 265.085 258.245 269.591L263.452 286.16C264 287.823 265.508 288.863 267.118 288.863Z" fill="#3176FF"/>
<path d="M271.604 213.578L271.125 217.599L275.612 217.357V212.469L271.604 213.578Z" fill="#B5ABF3"/>
<path d="M269.995 212.678C269.995 213.302 270.851 214.272 272.016 213.787C272.427 213.648 274.962 212.47 274.962 212.47C274.962 212.47 274.893 208.172 274.38 207.79C273.694 207.27 271.947 207.132 271.262 207.652C270.269 208.414 270.029 211.257 269.995 212.678Z" fill="#B5ABF3"/>
<path d="M271.365 209.003C271.981 209.384 271.639 210.632 271.57 211.082C271.467 211.949 273.763 213.786 275.612 213.751C275.612 211.914 278.421 208.448 276.058 208.448C275.201 205.744 271.33 207.235 270.44 206.784C269.892 207.304 270.2 208.275 271.365 209.003Z" fill="#1E41BF"/>
<path d="M271.878 209.973L271.33 211.359C271.193 211.636 270.919 211.775 270.611 211.706L270.337 211.636C270.063 211.567 269.754 211.706 269.652 211.948L268.932 213.335C268.795 213.612 268.864 213.959 269.138 214.132L269.24 214.201C269.343 214.271 269.48 214.305 269.617 214.305L271.296 214.236C271.57 214.236 271.775 214.063 271.844 213.82L272.666 211.324L271.878 209.973Z" fill="#1E41BF"/>
<path d="M262.388 242.971L261.977 248.135C262.868 250.77 279.79 246.679 280.338 244.184C280.338 244.184 280.783 241.134 281.263 237.321L262.388 242.971Z" fill="#3176FF"/>
<path d="M265.336 220.199C268.967 217.322 275.236 215.416 279.552 214.931C281.95 214.653 283.8 216.456 283.663 218.847C283.217 225.433 281.402 238.085 281.402 238.085C280.82 240.719 262.938 245.052 261.979 242.279L263.486 223.561C263.589 222.279 264.274 221.031 265.336 220.199Z" fill="#83A4FF"/>
<path d="M253.483 216.177C253.825 215.865 254.339 215.9 254.647 216.247L254.613 215.969L254.133 214.791C254.065 214.617 254.133 214.444 254.27 214.375C254.442 214.305 254.613 214.34 254.716 214.513L255.401 215.831L255.606 216.766L255.812 215.657C255.846 215.484 256.017 215.345 256.189 215.38C256.36 215.415 256.497 215.553 256.497 215.727L256.463 218.396C256.463 219.227 256.189 219.643 255.572 219.817L255.332 219.886L254.442 220.129C253.996 220.267 253.517 219.99 253.38 219.539L252.935 217.98L252.695 216.905L253.483 216.177Z" fill="#B5ABF3"/>
<path d="M256.155 234.027C259.204 234.027 262.424 230.249 267.048 224.287C267.699 223.455 267.562 222.242 266.74 221.583C265.918 220.925 264.719 221.063 264.068 221.895C262.184 224.322 260.505 226.436 258.964 227.996C257.285 229.729 256.498 230.041 256.224 230.11C256.087 229.867 255.812 229.105 255.95 227.025C256.052 225.223 256.429 223.247 256.669 221.93L256.772 221.341C256.977 220.301 256.292 219.296 255.23 219.088C254.202 218.88 253.209 219.573 253.004 220.647L252.901 221.202C252.113 225.465 250.777 232.606 255.093 233.854C255.47 233.992 255.812 234.027 256.155 234.027Z" fill="#83A4FF"/>
<path d="M171.656 256.486V240.186C171.656 240.034 171.782 239.855 172.009 239.753L176.438 237.512C176.917 237.258 177.722 237.258 178.2 237.512L182.63 239.753C182.882 239.881 182.982 240.034 182.982 240.186V256.486H171.656Z" fill="url(#paint16_linear_2929_67848)"/>
<path d="M177.32 249.252C176.465 249.252 175.609 249.074 174.954 248.743L164.157 243.293C163.15 242.783 162.999 242.121 162.999 241.764C162.999 241.408 163.15 240.746 164.157 240.236L174.954 234.761C176.288 234.099 178.352 234.099 179.686 234.761L190.484 240.236C191.491 240.746 191.642 241.408 191.642 241.764C191.642 242.121 191.491 242.783 190.484 243.293L179.686 248.768C179.032 249.099 178.176 249.252 177.32 249.252ZM177.32 235.27C176.616 235.27 175.936 235.397 175.407 235.652L164.61 241.128C164.232 241.306 164.006 241.561 164.006 241.764C164.006 241.968 164.232 242.197 164.61 242.401L175.407 247.877C176.439 248.412 178.201 248.412 179.233 247.877L190.031 242.401C190.408 242.223 190.635 241.968 190.635 241.764C190.635 241.561 190.408 241.332 190.031 241.128L179.233 235.652C178.73 235.397 178.025 235.27 177.32 235.27Z" fill="#023AFF"/>
<path d="M187.817 227.759L179.058 223.327C178.101 222.843 176.541 222.843 175.585 223.327L166.826 227.759C166.347 228.013 166.096 228.319 166.096 228.625V239.856C166.096 240.162 166.347 240.493 166.826 240.722L175.585 245.179C176.541 245.663 178.101 245.663 179.058 245.179L187.817 240.747C188.295 240.493 188.547 240.187 188.547 239.881V228.65C188.521 228.319 188.295 228.013 187.817 227.759Z" fill="url(#paint17_linear_2929_67848)"/>
<path d="M187.819 229.516L179.06 233.947C178.103 234.431 176.543 234.431 175.587 233.947L166.828 229.516C165.871 229.032 165.871 228.243 166.828 227.759L175.587 223.327C176.543 222.843 178.103 222.843 179.06 223.327L187.819 227.759C188.775 228.243 188.775 229.032 187.819 229.516Z" fill="url(#paint18_linear_2929_67848)"/>
<path d="M182.632 229.081L178.203 231.322C177.724 231.577 176.919 231.577 176.441 231.322L172.011 229.081C171.533 228.826 171.533 228.444 172.011 228.19L176.441 225.948C176.919 225.694 177.724 225.694 178.203 225.948L182.632 228.19C183.136 228.444 183.136 228.826 182.632 229.081Z" fill="#D3DAF3"/>
<path d="M171.656 212.324V228.623C171.656 228.776 171.782 228.954 172.009 229.056L176.438 231.297C176.917 231.552 177.722 231.552 178.2 231.297L182.63 229.056C182.882 228.929 182.982 228.776 182.982 228.623V212.324H171.656Z" fill="url(#paint19_linear_2929_67848)"/>
</g>
</g>
<defs>
<linearGradient id="paint0_linear_2929_67848" x1="202.964" y1="157.909" x2="321.749" y2="157.909" gradientUnits="userSpaceOnUse">
<stop stop-color="#CED4FF"/>
<stop offset="1" stop-color="#CED4FF" stop-opacity="0"/>
</linearGradient>
<linearGradient id="paint1_linear_2929_67848" x1="135.857" y1="167.879" x2="283.522" y2="195.426" gradientUnits="userSpaceOnUse">
<stop offset="0.4252" stop-color="#F3F4FF"/>
<stop offset="0.489581" stop-color="#E5E8FE"/>
</linearGradient>
<linearGradient id="paint2_linear_2929_67848" x1="118.357" y1="147.257" x2="295.181" y2="147.257" gradientUnits="userSpaceOnUse">
<stop stop-color="#F7F8FF"/>
<stop offset="1" stop-color="#F2F3FA"/>
</linearGradient>
<linearGradient id="paint3_linear_2929_67848" x1="176.671" y1="141.506" x2="257.271" y2="141.506" gradientUnits="userSpaceOnUse">
<stop stop-color="#CED4FF"/>
<stop offset="1" stop-color="#CED4FF" stop-opacity="0"/>
</linearGradient>
<linearGradient id="paint4_linear_2929_67848" x1="144.219" y1="132.009" x2="239.067" y2="142.668" gradientUnits="userSpaceOnUse">
<stop offset="0.4252" stop-color="#F3F4FF"/>
<stop offset="0.489581" stop-color="#E5E8FE"/>
</linearGradient>
<linearGradient id="paint5_linear_2929_67848" x1="133.243" y1="100.1" x2="244.342" y2="100.1" gradientUnits="userSpaceOnUse">
<stop stop-color="#F7F8FF"/>
<stop offset="1" stop-color="#F2F3FA"/>
</linearGradient>
<linearGradient id="paint6_linear_2929_67848" x1="195.939" y1="91.4904" x2="174.543" y2="58.8453" gradientUnits="userSpaceOnUse">
<stop stop-color="white"/>
<stop offset="1"/>
</linearGradient>
<linearGradient id="paint7_linear_2929_67848" x1="194.343" y1="93.8918" x2="181.827" y2="70.3917" gradientUnits="userSpaceOnUse">
<stop stop-color="#0601FF"/>
<stop offset="1" stop-color="#0157FF" stop-opacity="0"/>
</linearGradient>
<linearGradient id="paint8_linear_2929_67848" x1="253.545" y1="143.372" x2="323.166" y2="143.372" gradientUnits="userSpaceOnUse">
<stop stop-color="#CED4FF"/>
<stop offset="0.44929" stop-color="#CED4FF" stop-opacity="0"/>
</linearGradient>
<linearGradient id="paint9_linear_2929_67848" x1="264.58" y1="107.64" x2="257.13" y2="135.223" gradientUnits="userSpaceOnUse">
<stop stop-color="#BCC0E5"/>
<stop offset="1" stop-color="#C4CAFF"/>
</linearGradient>
<linearGradient id="paint10_linear_2929_67848" x1="273.4" y1="101.674" x2="270.58" y2="119.71" gradientUnits="userSpaceOnUse">
<stop stop-color="#BCC0E5"/>
<stop offset="1" stop-color="#CCD1FF"/>
</linearGradient>
<linearGradient id="paint11_linear_2929_67848" x1="273.429" y1="117.018" x2="278.995" y2="164.111" gradientUnits="userSpaceOnUse">
<stop stop-color="#2A4DAE"/>
<stop offset="1" stop-color="#5B68F5"/>
</linearGradient>
<linearGradient id="paint12_linear_2929_67848" x1="217.367" y1="157.034" x2="286.987" y2="157.034" gradientUnits="userSpaceOnUse">
<stop stop-color="#CED4FF"/>
<stop offset="1" stop-color="#CED4FF" stop-opacity="0"/>
</linearGradient>
<linearGradient id="paint13_linear_2929_67848" x1="234.631" y1="128.645" x2="244.897" y2="169.229" gradientUnits="userSpaceOnUse">
<stop stop-color="#8EB4FF"/>
<stop offset="1" stop-color="#4D7DFF"/>
</linearGradient>
<linearGradient id="paint14_linear_2929_67848" x1="229.66" y1="133.473" x2="238.854" y2="177.564" gradientUnits="userSpaceOnUse">
<stop stop-color="#8EB4FF"/>
<stop offset="1" stop-color="#4D7DFF"/>
</linearGradient>
<linearGradient id="paint15_linear_2929_67848" x1="221.54" y1="82.4716" x2="227.769" y2="109.296" gradientUnits="userSpaceOnUse">
<stop stop-color="#BCC0E5"/>
<stop offset="1" stop-color="white"/>
</linearGradient>
<linearGradient id="paint16_linear_2929_67848" x1="177.324" y1="256.634" x2="177.324" y2="237.372" gradientUnits="userSpaceOnUse">
<stop stop-color="white" stop-opacity="0"/>
<stop offset="1" stop-color="#023AFF"/>
</linearGradient>
<linearGradient id="paint17_linear_2929_67848" x1="166.239" y1="234.258" x2="188.414" y2="234.258" gradientUnits="userSpaceOnUse">
<stop stop-color="#D3D7F2"/>
<stop offset="0.45" stop-color="#BBC9F8"/>
<stop offset="0.55" stop-color="#D3D7F2"/>
<stop offset="1" stop-color="#F2F3FF"/>
</linearGradient>
<linearGradient id="paint18_linear_2929_67848" x1="171.219" y1="231.728" x2="176.201" y2="221.883" gradientUnits="userSpaceOnUse">
<stop stop-color="#E8EAFB"/>
<stop offset="1" stop-color="white"/>
</linearGradient>
<linearGradient id="paint19_linear_2929_67848" x1="177.324" y1="212.188" x2="177.324" y2="231.449" gradientUnits="userSpaceOnUse">
<stop stop-color="white" stop-opacity="0"/>
<stop offset="1" stop-color="#022AFF" stop-opacity="0.76"/>
</linearGradient>
</defs>
</svg>
