<svg width="302" height="379" viewBox="0 0 302 379" fill="none" xmlns="http://www.w3.org/2000/svg">
<g clip-path="url(#clip0_2929_68381)">
<g opacity="0.15">
<mask id="mask0_2929_68381" style="mask-type:alpha" maskUnits="userSpaceOnUse" x="-25" y="-22" width="327" height="393">
<rect x="-25" y="-22" width="326.051" height="393" fill="#017AFF"/>
</mask>
<g mask="url(#mask0_2929_68381)">
<path d="M296.098 172.618H117.521V191.255L206.809 235.658L296.098 191.255V172.618Z" fill="url(#paint0_linear_2929_68381)"/>
<path d="M122.523 178.624L194.736 214.586C201.406 217.907 212.244 217.907 218.914 214.586L291.095 178.624C297.765 175.303 297.765 169.905 291.095 166.584L218.882 130.622C212.212 127.3 201.374 127.3 194.704 130.622L122.523 166.584C115.821 169.905 115.821 175.303 122.523 178.624Z" fill="url(#paint1_linear_2929_68381)"/>
<path d="M296.098 172.618H117.521V189.464L206.809 235.658L296.098 189.464V172.618Z" fill="url(#paint2_linear_2929_68381)"/>
<path d="M122.523 191.398L194.736 227.36C201.406 230.682 212.244 230.682 218.914 227.36L291.095 191.398C294.43 189.738 296.098 187.566 296.098 185.394V188.588C296.098 190.76 294.43 192.931 291.095 194.592L218.882 230.554C212.212 233.875 201.374 233.875 194.704 230.554L122.523 194.592C119.188 192.931 117.521 190.76 117.521 188.588V185.394C117.521 187.566 119.188 189.738 122.523 191.398Z" fill="#8C98FF"/>
<path d="M122.523 194.593L194.736 230.555C201.406 233.876 212.244 233.876 218.914 230.555L291.095 194.593C294.43 192.932 296.098 190.761 296.098 188.589V191.783C296.098 193.954 294.43 196.126 291.095 197.787L218.882 233.749C212.212 237.07 201.374 237.07 194.704 233.749L122.523 197.787C119.188 196.126 117.521 193.954 117.521 191.783V188.589C117.521 190.761 119.188 192.932 122.523 194.593Z" fill="#838990"/>
<path d="M122.523 178.624L194.736 214.586C201.406 217.907 212.244 217.907 218.914 214.586L291.095 178.624C297.765 175.303 297.765 169.905 291.095 166.584L218.882 130.622C212.212 127.3 201.374 127.3 194.704 130.622L122.523 166.584C115.821 169.905 115.821 175.303 122.523 178.624Z" fill="url(#paint3_linear_2929_68381)"/>
<path d="M206.792 213.434C210.864 213.434 214.936 212.667 218.015 211.134L283.045 178.749C286.252 177.153 287.983 174.981 287.983 172.617C287.983 170.254 286.22 168.082 283.045 166.485L218.047 134.101C211.858 131.003 201.757 131.003 195.568 134.101L130.57 166.485C127.363 168.082 125.632 170.254 125.632 172.617C125.632 174.981 127.396 177.153 130.57 178.749L195.568 211.102C198.679 212.635 202.751 213.434 206.792 213.434ZM206.792 133.366C210.607 133.366 214.423 134.101 217.309 135.538L282.308 167.891C284.937 169.2 286.38 170.861 286.38 172.586C286.38 174.31 284.937 175.971 282.308 177.28L217.309 209.665C211.505 212.539 202.078 212.539 196.274 209.665L131.276 177.28C128.646 175.971 127.203 174.31 127.203 172.586C127.203 170.861 128.646 169.2 131.276 167.891L196.274 135.538C199.192 134.069 203.008 133.366 206.792 133.366Z" fill="#D3DAF3"/>
<path opacity="0.0909091" d="M166.244 180.553L207.617 201.176C212.141 203.45 219.479 203.45 224.003 201.176L265.335 180.593C269.86 178.32 269.86 174.666 265.335 172.433L224.003 151.85C219.479 149.577 212.141 149.577 207.617 151.85L166.244 172.393C161.72 174.666 161.72 178.32 166.244 180.553Z" fill="#BEDDFF"/>
<path opacity="0.1818" d="M165.18 180.026L206.512 200.61C211.036 202.883 218.373 202.883 222.898 200.61L264.271 180.026C268.795 177.753 268.795 174.099 264.271 171.866L222.939 151.283C218.414 149.01 211.077 149.01 206.553 151.283L165.22 171.866C160.655 174.14 160.655 177.794 165.18 180.026Z" fill="#BEDDFF"/>
<path opacity="0.2727" d="M164.124 179.495L205.456 200.078C209.98 202.352 217.317 202.352 221.842 200.078L263.174 179.495C267.699 177.222 267.699 173.568 263.174 171.335L221.883 150.752C217.358 148.479 210.021 148.479 205.497 150.752L164.165 171.335C159.599 173.609 159.599 177.262 164.124 179.495Z" fill="#BEDDFF"/>
<path opacity="0.3636" d="M163.061 178.971L204.393 199.594C208.918 201.868 216.255 201.868 220.779 199.594L262.111 179.011C266.636 176.738 266.636 173.084 262.111 170.851L220.779 150.268C216.255 147.995 208.918 147.995 204.393 150.268L163.061 170.851C158.537 173.084 158.537 176.738 163.061 178.971Z" fill="#BEDDFF"/>
<path opacity="0.4545" d="M162 178.442L203.332 199.025C207.856 201.299 215.193 201.299 219.718 199.025L261.05 178.442C265.574 176.169 265.574 172.515 261.05 170.282L219.718 149.699C215.193 147.425 207.856 147.425 203.332 149.699L162 170.282C157.475 172.555 157.475 176.209 162 178.442Z" fill="#BEDDFF"/>
<path opacity="0.5455" d="M160.943 177.915L202.275 198.498C206.8 200.772 214.137 200.772 218.661 198.498L259.993 177.915C264.518 175.642 264.518 171.988 259.993 169.755L218.661 149.172C214.137 146.898 206.8 146.898 202.275 149.172L160.943 169.755C156.419 172.028 156.419 175.682 160.943 177.915Z" fill="#BEDDFF"/>
<path opacity="0.6364" d="M159.885 177.385L201.217 197.968C205.741 200.241 213.078 200.241 217.603 197.968L258.976 177.385C263.5 175.111 263.5 171.458 258.976 169.225L217.644 148.642C213.119 146.368 205.782 146.368 201.258 148.642L159.925 169.225C155.36 171.498 155.36 175.152 159.885 177.385Z" fill="#BEDDFF"/>
<path opacity="0.7273" d="M158.824 176.862L200.156 197.445C204.681 199.719 212.018 199.719 216.542 197.445L257.874 176.862C262.399 174.589 262.399 170.935 257.874 168.702L216.542 148.119C212.018 145.846 204.681 145.846 200.156 148.119L158.824 168.702C154.299 170.935 154.299 174.63 158.824 176.862Z" fill="#BEDDFF"/>
<path opacity="0.8182" d="M157.721 176.333L199.053 196.916C203.578 199.189 210.915 199.189 215.44 196.916L256.772 176.333C261.296 174.059 261.296 170.405 256.772 168.172L215.44 147.589C210.915 145.316 203.578 145.316 199.053 147.589L157.721 168.172C153.197 170.405 153.197 174.059 157.721 176.333Z" fill="#BEDDFF"/>
<path opacity="0.9091" d="M156.663 175.803L197.995 196.386C202.519 198.659 209.856 198.659 214.381 196.386L255.713 175.803C260.238 173.529 260.238 169.876 255.713 167.643L214.381 147.06C209.856 144.786 202.519 144.786 197.995 147.06L156.663 167.643C152.138 169.876 152.138 173.529 156.663 175.803Z" fill="#BEDDFF"/>
<path d="M155.603 175.275L196.935 195.859C201.46 198.132 208.797 198.132 213.321 195.859L254.653 175.275C259.178 173.002 259.178 169.348 254.653 167.115L213.321 146.532C208.797 144.259 201.46 144.259 196.935 146.532L155.603 167.115C151.079 169.348 151.079 173.002 155.603 175.275Z" fill="#BEDDFF"/>
<path d="M248.215 45.9313L207.209 25.5106C204.152 23.9679 201.38 23.8461 199.383 24.9016L153.241 47.88C153.078 47.9612 152.915 48.0424 152.752 48.1236C150.917 49.1791 149.776 51.2496 149.776 54.0914V158.265C149.776 164.314 154.667 171.622 160.741 174.626L201.747 195.047C204.804 196.59 207.576 196.712 209.573 195.697L255.715 172.718C255.878 172.637 256.041 172.556 256.204 172.475C258.038 171.419 259.18 169.389 259.18 166.507V62.2922C259.18 56.2837 254.248 48.9355 248.215 45.9313Z" fill="url(#paint4_linear_2929_68381)"/>
<path d="M201.741 195.046L160.735 174.625C154.662 171.621 149.77 164.273 149.77 158.264V54.0903C149.77 48.0413 154.662 45.6054 160.735 48.6502L201.741 69.0709C207.815 72.0752 212.706 79.4234 212.706 85.4318V189.606C212.706 195.614 207.774 198.05 201.741 195.046Z" fill="#E3E5F9"/>
<path d="M201.742 188.958C204.432 190.297 206.593 189.201 206.593 186.562V82.3883C206.593 79.7089 204.432 76.4611 201.742 75.1619L160.736 54.7412C158.046 53.4015 155.886 54.4976 155.886 57.1365V161.31C155.886 163.99 158.046 167.238 160.736 168.537L201.742 188.958Z" fill="url(#paint5_linear_2929_68381)"/>
<path d="M160.003 54.4167C159.962 54.6197 159.962 54.8633 159.962 55.1069V159.281C159.962 161.96 162.123 165.208 164.813 166.507L205.819 186.928C206.064 187.05 206.308 187.131 206.553 187.212C206.227 189.364 204.189 190.176 201.743 188.958L160.737 168.537C158.047 167.197 155.886 163.95 155.886 161.311V57.1368C155.886 54.7009 157.68 53.6048 160.003 54.4167Z" fill="url(#paint6_linear_2929_68381)"/>
<path d="M247.52 120.589C247.52 118.924 248.865 116.894 250.577 116.042C252.248 115.189 253.634 115.879 253.634 117.544C253.634 119.208 252.289 121.238 250.577 122.091C248.865 122.943 247.52 122.294 247.52 120.589Z" fill="#5B78E6"/>
<path d="M238.347 125.134C238.347 123.47 239.692 121.44 241.404 120.587C243.075 119.735 244.461 120.425 244.461 122.089C244.461 123.754 243.116 125.784 241.404 126.636C239.733 127.489 238.347 126.839 238.347 125.134Z" fill="#034AFF"/>
<path d="M229.881 131.251C228.852 130.451 229.096 128.427 230.426 126.73C231.756 125.034 233.668 124.307 234.697 125.108C235.726 125.908 235.482 127.932 234.152 129.629C232.822 131.325 230.91 132.052 229.881 131.251Z" fill="#034AFF"/>
<path d="M220.752 135.807C219.723 135.007 219.967 132.983 221.297 131.286C222.627 129.589 224.539 128.863 225.568 129.663C226.597 130.464 226.353 132.488 225.024 134.184C223.694 135.881 221.781 136.607 220.752 135.807Z" fill="#034AFF"/>
<path d="M247.52 112.185C247.52 110.52 248.865 108.49 250.577 107.638C252.248 106.785 253.634 107.475 253.634 109.14C253.634 110.804 252.289 112.834 250.577 113.687C248.865 114.539 247.52 113.849 247.52 112.185Z" fill="#034AFF"/>
<path d="M238.999 118.293C237.97 117.493 238.214 115.468 239.544 113.772C240.874 112.075 242.786 111.349 243.815 112.149C244.844 112.949 244.601 114.973 243.271 116.67C241.941 118.367 240.028 119.093 238.999 118.293Z" fill="#838990"/>
<path d="M229.875 122.848C228.846 122.048 229.09 120.024 230.42 118.327C231.75 116.631 233.662 115.904 234.691 116.704C235.72 117.505 235.477 119.529 234.147 121.225C232.817 122.922 230.904 123.648 229.875 122.848Z" fill="#838990"/>
<path d="M220.087 125.867C220.087 124.203 221.432 122.173 223.144 121.32C224.815 120.468 226.201 121.158 226.201 122.823C226.201 124.487 224.856 126.517 223.144 127.37C221.432 128.222 220.087 127.532 220.087 125.867Z" fill="#5B78E6"/>
<path d="M222.53 116.651L251.185 102.402C252.53 101.752 253.59 100.128 253.59 98.7885V82.4275C253.59 81.0878 252.489 80.56 251.185 81.2096L222.53 95.4594C221.185 96.109 220.125 97.7329 220.125 99.0726V115.434C220.125 116.814 221.185 117.342 222.53 116.651Z" fill="url(#paint7_linear_2929_68381)"/>
<path d="M222.53 116.651L251.185 102.402C252.53 101.752 253.59 100.128 253.59 98.7885V82.4275C253.59 81.0878 252.489 80.56 251.185 81.2096L222.53 95.4594C221.185 96.109 220.125 97.7329 220.125 99.0726V115.434C220.125 116.814 221.185 117.342 222.53 116.651Z" fill="url(#paint8_linear_2929_68381)"/>
<path d="M220.492 115.638L249.147 101.388C250.492 100.738 251.552 99.1143 251.552 97.7746V81.4137C251.552 81.2919 251.552 81.1701 251.511 81.0889C252.693 80.6829 253.59 81.2513 253.59 82.4286V98.7895C253.59 100.129 252.489 101.753 251.185 102.403L222.53 116.653C221.307 117.262 220.288 116.856 220.125 115.8C220.247 115.759 220.369 115.719 220.492 115.638Z" fill="url(#paint9_linear_2929_68381)"/>
<path d="M220.293 107.111L224.41 105.041C225.185 104.635 225.837 103.823 226.082 102.97C226.856 99.8035 227.63 98.4232 228.12 98.2202C228.201 98.1796 228.283 98.1796 228.364 98.2202C229.016 98.5044 229.75 100.453 230.076 101.712C230.198 102.199 230.851 104.635 231.91 105.122C232.196 105.244 232.481 105.244 232.766 105.122C233.052 105 233.867 104.594 234.805 100.818C234.968 100.209 235.457 99.5599 236.027 99.2757C236.802 98.9104 237.454 98.0578 237.699 97.2053C238.31 94.8506 238.881 93.8762 239.207 93.6733C239.247 93.6327 239.288 93.6327 239.329 93.6733C239.818 93.8762 240.389 95.419 240.633 96.3933C240.796 96.9617 241.571 99.8847 242.794 100.453C243.12 100.615 243.446 100.575 243.731 100.453C244.587 100.007 245.443 98.2202 246.218 95.0942C246.381 94.4852 246.87 93.8356 247.441 93.5515L251.843 91.3592L251.476 90.6284L247.074 92.8207C246.299 93.2267 245.647 94.0386 245.402 94.8912C244.628 98.0984 243.813 99.4787 243.364 99.7223C243.283 99.7629 243.201 99.7629 243.12 99.7223C242.468 99.4381 241.734 97.4894 241.408 96.1903C241.286 95.7437 240.674 93.3891 239.655 92.9019C239.37 92.7801 239.084 92.7801 238.84 92.9019C238.595 93.0237 237.821 93.4297 236.883 96.9617C236.72 97.5706 236.231 98.2202 235.66 98.5044C234.886 98.8698 234.234 99.7223 233.989 100.575C233.337 103.092 232.726 104.147 232.359 104.35C232.318 104.391 232.277 104.391 232.196 104.35C231.666 104.107 231.054 102.524 230.81 101.468C230.647 100.9 229.872 98.0172 228.65 97.4488C228.323 97.2865 227.997 97.3271 227.712 97.4488C226.856 97.8954 226.041 99.6817 225.266 102.767C225.103 103.376 224.614 104.026 224.043 104.31L219.927 106.38L220.293 107.111Z" fill="#838990"/>
<path d="M242.504 153.275C243.32 152.869 243.972 153.194 243.972 154.006V166.145C243.972 166.957 243.32 167.931 242.504 168.337C241.689 168.743 241.037 168.418 241.037 167.606V155.467C241.078 154.655 241.73 153.681 242.504 153.275ZM238.143 155.467C238.958 155.061 239.61 155.386 239.61 156.198V168.337C239.61 169.149 238.958 170.123 238.143 170.529C237.328 170.935 236.676 170.61 236.676 169.798V157.66C236.676 156.848 237.328 155.873 238.143 155.467ZM246.907 151.083C247.722 150.677 248.374 151.002 248.374 151.814V163.952C248.374 164.764 247.722 165.739 246.907 166.145C246.092 166.551 245.439 166.226 245.439 165.414V153.275C245.439 152.463 246.092 151.489 246.907 151.083ZM233.741 157.66C234.556 157.254 235.208 157.579 235.208 158.39V170.529C235.208 171.341 234.556 172.316 233.741 172.722C232.926 173.127 232.273 172.803 232.273 171.991V159.852C232.273 159.04 232.926 158.066 233.741 157.66ZM229.339 159.852C230.154 159.446 230.806 159.771 230.806 160.583V172.722C230.806 173.533 230.154 174.508 229.339 174.914C228.523 175.32 227.871 174.995 227.871 174.183V162.044C227.871 161.232 228.523 160.258 229.339 159.852ZM224.936 162.044C225.752 161.638 226.404 161.963 226.404 162.775V174.914C226.404 175.726 225.752 176.7 224.936 177.106C224.121 177.512 223.469 177.187 223.469 176.375V164.237C223.469 163.425 224.121 162.45 224.936 162.044ZM220.534 164.237C221.349 163.831 222.001 164.155 222.001 164.967V177.106C222.001 177.918 221.349 178.892 220.534 179.298C219.719 179.704 219.067 179.38 219.067 178.568V166.429C219.107 165.617 219.76 164.643 220.534 164.237ZM251.309 148.891C252.124 148.485 252.776 148.809 252.776 149.621V161.76C252.776 162.572 252.124 163.546 251.309 163.952C250.494 164.358 249.842 164.034 249.842 163.222V151.083C249.842 150.271 250.494 149.297 251.309 148.891Z" fill="url(#paint10_linear_2929_68381)"/>
<path d="M166.725 73.2529C168.722 74.2273 170.353 73.4559 170.353 71.4666C170.353 69.4773 168.722 67.0415 166.725 66.0671C164.727 65.0928 163.097 65.8641 163.097 67.8534C163.097 69.8427 164.727 72.238 166.725 73.2529Z" fill="#034AFF"/>
<path d="M176.916 78.3266C178.914 79.301 180.544 78.5296 180.544 76.5403C180.544 74.551 178.914 72.1152 176.916 71.1408C174.919 70.1665 173.288 70.9378 173.288 72.9271C173.288 74.9164 174.919 77.3117 176.916 78.3266Z" fill="#B2C0F6"/>
<path d="M203.411 117.138L196.685 113.809V107.151L203.411 110.48V117.138Z" fill="#838990"/>
<path d="M202.066 116.37C202.148 116.37 202.23 116.37 202.311 116.329C202.393 116.329 202.474 116.289 202.556 116.248C202.637 116.207 202.719 116.167 202.759 116.126C202.841 116.086 202.882 116.045 202.963 115.964C203.208 115.761 203.33 115.436 203.33 115.111C203.33 114.786 203.208 114.462 202.963 114.259C202.922 114.218 202.841 114.137 202.759 114.096C202.678 114.056 202.637 114.015 202.556 113.974C202.474 113.934 202.393 113.934 202.311 113.893C202.148 113.853 201.985 113.853 201.822 113.893C201.74 113.893 201.659 113.934 201.577 113.974C201.496 114.015 201.414 114.056 201.374 114.096C201.292 114.137 201.251 114.177 201.17 114.259C200.925 114.502 200.803 114.786 200.803 115.111C200.803 115.436 200.925 115.761 201.17 115.964C201.21 116.004 201.292 116.086 201.374 116.126C201.455 116.167 201.496 116.207 201.577 116.248C201.659 116.289 201.74 116.289 201.822 116.329C201.903 116.37 201.985 116.37 202.066 116.37Z" fill="#9EB4FB"/>
<path d="M198.032 114.378C198.114 114.378 198.195 114.378 198.277 114.337C198.358 114.337 198.44 114.297 198.521 114.256C198.603 114.216 198.643 114.175 198.725 114.134C198.807 114.094 198.847 114.053 198.888 113.972C199.133 113.728 199.255 113.444 199.255 113.119C199.255 112.795 199.133 112.47 198.888 112.267C198.847 112.226 198.766 112.145 198.725 112.105C198.643 112.064 198.603 112.023 198.521 111.983C198.44 111.942 198.358 111.942 198.277 111.902C198.114 111.861 197.951 111.861 197.787 111.902C197.706 111.902 197.624 111.942 197.543 111.983C197.461 112.023 197.38 112.064 197.339 112.105C197.258 112.145 197.217 112.186 197.135 112.267C196.891 112.511 196.768 112.795 196.768 113.119C196.768 113.444 196.891 113.769 197.135 113.972C197.176 114.013 197.258 114.094 197.339 114.134C197.421 114.175 197.461 114.216 197.543 114.256C197.624 114.297 197.706 114.297 197.787 114.337C197.869 114.337 197.951 114.378 198.032 114.378Z" fill="#9EB4FB"/>
<path d="M198.031 110.359C198.113 110.359 198.194 110.359 198.276 110.318C198.357 110.318 198.439 110.278 198.52 110.237C198.602 110.197 198.643 110.156 198.724 110.115C198.806 110.075 198.847 110.034 198.887 109.953C198.928 109.912 199.01 109.831 199.05 109.75C199.091 109.669 199.132 109.628 199.173 109.547C199.213 109.466 199.213 109.385 199.254 109.303C199.254 109.222 199.295 109.141 199.295 109.06C199.295 108.735 199.173 108.41 198.928 108.207C198.887 108.167 198.806 108.086 198.765 108.045C198.684 108.004 198.643 107.964 198.561 107.923C198.48 107.883 198.398 107.883 198.317 107.842C198.154 107.801 197.991 107.801 197.828 107.842C197.746 107.842 197.664 107.883 197.583 107.923C197.501 107.964 197.42 108.004 197.379 108.045C197.298 108.086 197.257 108.126 197.175 108.207C196.931 108.451 196.808 108.735 196.808 109.06C196.808 109.141 196.808 109.222 196.849 109.303C196.849 109.385 196.89 109.466 196.931 109.547C196.972 109.628 197.012 109.709 197.053 109.75C197.094 109.831 197.135 109.872 197.216 109.953C197.42 110.237 197.705 110.359 198.031 110.359Z" fill="#9EB4FB"/>
<path d="M202.066 112.353C202.148 112.353 202.23 112.353 202.311 112.312C202.393 112.312 202.474 112.271 202.556 112.231C202.637 112.19 202.719 112.15 202.759 112.109C202.841 112.068 202.882 112.028 202.963 111.947C203.208 111.744 203.33 111.419 203.33 111.094C203.33 110.769 203.208 110.445 202.963 110.242C202.922 110.201 202.841 110.12 202.759 110.079C202.678 110.039 202.637 109.998 202.556 109.957C202.474 109.917 202.393 109.917 202.311 109.876C202.148 109.836 201.985 109.836 201.822 109.876C201.74 109.876 201.659 109.917 201.577 109.957C201.496 109.998 201.414 110.039 201.374 110.079C201.292 110.12 201.251 110.16 201.17 110.242C200.925 110.485 200.803 110.769 200.803 111.094C200.803 111.419 200.925 111.744 201.17 111.947C201.21 111.987 201.292 112.068 201.374 112.109C201.455 112.15 201.496 112.19 201.577 112.231C201.659 112.271 201.74 112.271 201.822 112.312C201.903 112.353 201.985 112.353 202.066 112.353Z" fill="#9EB4FB"/>
<path d="M203.411 107.723L196.685 104.394V97.7363L203.411 101.065V107.723Z" fill="#034AFF"/>
<path d="M202.064 106.912C202.145 106.912 202.227 106.912 202.308 106.871C202.39 106.871 202.471 106.831 202.553 106.79C202.634 106.749 202.716 106.709 202.757 106.668C202.838 106.628 202.879 106.587 202.961 106.506C203.001 106.465 203.083 106.384 203.124 106.343C203.164 106.262 203.205 106.222 203.246 106.14C203.287 106.059 203.287 105.978 203.327 105.897C203.327 105.816 203.368 105.734 203.368 105.653C203.368 105.572 203.368 105.491 203.327 105.41C203.327 105.328 203.287 105.247 203.246 105.166C203.205 105.085 203.164 105.044 203.124 104.963C203.083 104.882 203.042 104.841 202.961 104.76C202.92 104.719 202.838 104.638 202.757 104.598C202.675 104.557 202.634 104.516 202.553 104.476C202.471 104.435 202.39 104.435 202.308 104.395C202.145 104.354 201.982 104.354 201.819 104.395C201.738 104.395 201.656 104.435 201.575 104.476C201.493 104.516 201.412 104.557 201.371 104.598C201.289 104.638 201.249 104.679 201.167 104.76C201.126 104.801 201.045 104.882 201.004 104.963C200.963 105.044 200.922 105.085 200.882 105.166C200.841 105.247 200.841 105.328 200.8 105.41C200.8 105.491 200.759 105.572 200.759 105.653C200.759 105.734 200.759 105.816 200.8 105.897C200.8 105.978 200.841 106.059 200.882 106.14C200.922 106.222 200.963 106.303 201.004 106.343C201.045 106.425 201.086 106.465 201.167 106.506C201.208 106.546 201.289 106.628 201.371 106.668C201.452 106.709 201.493 106.749 201.575 106.79C201.656 106.831 201.738 106.831 201.819 106.871C201.901 106.912 201.982 106.912 202.064 106.912Z" fill="#5577DA"/>
<path d="M198.033 104.922C198.115 104.922 198.196 104.922 198.278 104.881C198.359 104.881 198.441 104.841 198.522 104.8C198.604 104.76 198.644 104.719 198.726 104.678C198.807 104.638 198.848 104.597 198.889 104.516C199.134 104.272 199.256 103.988 199.256 103.663C199.256 103.582 199.256 103.501 199.215 103.42C199.215 103.339 199.174 103.258 199.134 103.176C199.093 103.095 199.052 103.014 199.011 102.973C198.971 102.892 198.93 102.852 198.848 102.77C198.807 102.73 198.726 102.649 198.685 102.608C198.604 102.567 198.563 102.527 198.481 102.486C198.4 102.446 198.318 102.446 198.237 102.405C198.074 102.364 197.911 102.364 197.748 102.405C197.666 102.405 197.585 102.446 197.503 102.486C197.422 102.527 197.34 102.567 197.299 102.608C197.218 102.649 197.177 102.689 197.096 102.77C197.055 102.811 196.973 102.892 196.932 102.973C196.892 103.055 196.851 103.095 196.81 103.176C196.769 103.258 196.769 103.339 196.729 103.42C196.729 103.501 196.688 103.582 196.688 103.663C196.688 103.988 196.81 104.313 197.055 104.516C197.095 104.557 197.177 104.638 197.259 104.678C197.34 104.719 197.381 104.76 197.462 104.8C197.544 104.841 197.625 104.841 197.707 104.881C197.87 104.922 197.951 104.922 198.033 104.922Z" fill="#5577DA"/>
<path d="M198.03 100.944C198.112 100.944 198.193 100.944 198.275 100.903C198.356 100.903 198.438 100.863 198.519 100.822C198.601 100.782 198.642 100.741 198.723 100.7C198.805 100.66 198.846 100.619 198.886 100.538C198.927 100.497 199.009 100.416 199.049 100.335C199.09 100.254 199.131 100.213 199.172 100.132C199.212 100.051 199.212 99.9696 199.253 99.8884C199.253 99.8073 199.294 99.7261 199.294 99.6449C199.294 99.3201 199.172 98.9953 198.927 98.7923C198.886 98.7517 198.805 98.6705 198.764 98.6299C198.683 98.5893 198.642 98.5487 198.56 98.5081C198.479 98.4675 198.397 98.4675 198.316 98.4269C198.153 98.3863 197.99 98.3863 197.827 98.4269C197.745 98.4269 197.664 98.4675 197.582 98.5081C197.5 98.5487 197.419 98.5893 197.378 98.6299C197.297 98.6705 197.256 98.7111 197.174 98.7923C196.93 98.9953 196.808 99.3201 196.808 99.6449C196.808 99.9696 196.93 100.294 197.174 100.497C197.215 100.538 197.297 100.619 197.378 100.66C197.46 100.7 197.5 100.741 197.582 100.782C197.664 100.822 197.745 100.822 197.827 100.863C197.867 100.944 197.949 100.944 198.03 100.944Z" fill="#5577DA"/>
<path d="M202.064 102.931C202.145 102.931 202.227 102.931 202.308 102.891C202.39 102.891 202.471 102.85 202.553 102.81C202.634 102.769 202.716 102.728 202.757 102.688C202.838 102.647 202.879 102.607 202.961 102.525C203.001 102.485 203.083 102.404 203.124 102.322C203.164 102.241 203.205 102.201 203.246 102.119C203.287 102.038 203.287 101.957 203.327 101.876C203.327 101.795 203.368 101.713 203.368 101.632C203.368 101.551 203.368 101.47 203.327 101.389C203.327 101.307 203.287 101.226 203.246 101.145C203.205 101.064 203.164 100.983 203.124 100.942C203.083 100.861 203.042 100.82 202.961 100.739C202.92 100.698 202.838 100.617 202.757 100.577C202.675 100.536 202.634 100.496 202.553 100.455C202.471 100.414 202.39 100.414 202.308 100.374C202.145 100.333 201.982 100.333 201.819 100.374C201.738 100.374 201.656 100.414 201.575 100.455C201.493 100.496 201.412 100.536 201.371 100.577C201.289 100.617 201.249 100.658 201.167 100.739C201.126 100.78 201.045 100.861 201.004 100.942C200.963 101.023 200.922 101.064 200.882 101.145C200.841 101.226 200.841 101.307 200.8 101.389C200.8 101.47 200.759 101.551 200.759 101.632C200.759 101.713 200.759 101.795 200.8 101.876C200.8 101.957 200.841 102.038 200.882 102.119C200.922 102.201 200.963 102.282 201.004 102.322C201.045 102.404 201.086 102.444 201.167 102.525C201.208 102.566 201.289 102.647 201.371 102.688C201.452 102.728 201.493 102.769 201.575 102.81C201.656 102.85 201.738 102.85 201.819 102.891C201.901 102.931 201.982 102.931 202.064 102.931Z" fill="#5577DA"/>
<path d="M203.411 98.2605L196.685 94.9315V88.2734L203.411 91.6025V98.2605Z" fill="#838990"/>
<path d="M202.066 97.4869C202.148 97.4869 202.23 97.4869 202.311 97.4463C202.393 97.4463 202.474 97.4057 202.556 97.3651C202.637 97.3245 202.719 97.2839 202.759 97.2433C202.841 97.2027 202.882 97.1621 202.963 97.0809C203.208 96.8373 203.33 96.5531 203.33 96.2284C203.33 95.9036 203.208 95.5788 202.963 95.3758C202.922 95.3352 202.841 95.254 202.759 95.2134C202.678 95.1728 202.637 95.1322 202.556 95.0916C202.474 95.051 202.393 95.051 202.311 95.0104C202.148 94.9698 201.985 94.9698 201.822 95.0104C201.74 95.0104 201.659 95.051 201.577 95.0916C201.496 95.1322 201.414 95.1728 201.374 95.2134C201.292 95.254 201.251 95.2946 201.17 95.3758C200.925 95.5788 200.803 95.9036 200.803 96.2284C200.803 96.5531 200.925 96.8779 201.17 97.0809C201.21 97.1215 201.292 97.2027 201.374 97.2433C201.455 97.2839 201.496 97.3245 201.577 97.3651C201.659 97.4057 201.74 97.4057 201.822 97.4463C201.903 97.4869 201.985 97.4869 202.066 97.4869Z" fill="#6379ED"/>
<path d="M198.031 95.5002C198.113 95.5002 198.194 95.5002 198.276 95.4596C198.357 95.4596 198.439 95.419 198.52 95.3784C198.602 95.3378 198.643 95.2972 198.724 95.2566C198.806 95.216 198.847 95.1754 198.887 95.0942C198.928 95.0536 199.01 94.9724 199.05 94.8912C199.091 94.81 199.132 94.7694 199.173 94.6882C199.213 94.607 199.213 94.5258 199.254 94.4446C199.254 94.3634 199.295 94.2822 199.295 94.201C199.295 93.8762 199.173 93.5515 198.928 93.3485C198.887 93.3079 198.806 93.2267 198.765 93.1861C198.684 93.1455 198.643 93.1049 198.561 93.0643C198.48 93.0237 198.398 93.0237 198.317 92.9831C198.154 92.9425 197.991 92.9425 197.828 92.9831C197.746 92.9831 197.664 93.0237 197.583 93.0643C197.501 93.1049 197.42 93.1455 197.379 93.1861C197.298 93.2267 197.257 93.2673 197.175 93.3485C196.931 93.5921 196.808 93.8762 196.808 94.201C196.808 94.5258 196.931 94.8506 197.175 95.0536C197.216 95.0942 197.298 95.1754 197.379 95.216C197.461 95.2566 197.501 95.2972 197.583 95.3378C197.664 95.3784 197.746 95.3784 197.828 95.419C197.868 95.5001 197.95 95.5002 198.031 95.5002Z" fill="#6379ED"/>
<path d="M198.031 91.5241C198.113 91.5241 198.194 91.5241 198.276 91.4835C198.357 91.4835 198.439 91.4429 198.52 91.4023C198.602 91.3617 198.643 91.3211 198.724 91.2805C198.806 91.2399 198.847 91.1993 198.887 91.1181C198.928 91.0775 199.01 90.9963 199.05 90.9151C199.091 90.8339 199.132 90.7933 199.173 90.7121C199.213 90.6309 199.213 90.5497 199.254 90.4685C199.254 90.3873 199.295 90.3061 199.295 90.2249C199.295 89.9002 199.173 89.5754 198.928 89.3724C198.887 89.3318 198.806 89.2506 198.765 89.21C198.684 89.1694 198.643 89.1288 198.561 89.0882C198.48 89.0476 198.398 89.0476 198.317 89.007C198.154 88.9664 197.991 88.9664 197.828 89.007C197.746 89.007 197.664 89.0476 197.583 89.0882C197.501 89.1288 197.42 89.1694 197.379 89.21C197.298 89.2506 197.257 89.2912 197.175 89.3724C196.931 89.616 196.808 89.9002 196.808 90.2249C196.808 90.3061 196.808 90.3873 196.849 90.4685C196.849 90.5497 196.89 90.6309 196.931 90.7121C196.972 90.7933 197.012 90.8745 197.053 90.9151C197.094 90.9963 197.135 91.0369 197.216 91.1181C197.42 91.3617 197.705 91.5241 198.031 91.5241Z" fill="#6379ED"/>
<path d="M202.066 93.5103C202.148 93.5103 202.23 93.5103 202.311 93.4697C202.393 93.4697 202.474 93.4291 202.556 93.3885C202.637 93.3479 202.719 93.3073 202.759 93.2667C202.841 93.2261 202.882 93.1855 202.963 93.1044C203.208 92.8608 203.33 92.5766 203.33 92.2518C203.33 91.927 203.208 91.6022 202.963 91.3992C202.922 91.3586 202.841 91.2775 202.759 91.2369C202.678 91.1963 202.637 91.1557 202.556 91.1151C202.474 91.0745 202.393 91.0745 202.311 91.0339C202.148 90.9933 201.985 90.9933 201.822 91.0339C201.74 91.0339 201.659 91.0745 201.577 91.1151C201.496 91.1557 201.414 91.1963 201.374 91.2369C201.292 91.2775 201.251 91.318 201.17 91.3992C200.925 91.6428 200.803 91.927 200.803 92.2518C200.803 92.5766 200.925 92.9014 201.17 93.1044C201.21 93.1449 201.292 93.2261 201.374 93.2667C201.455 93.3073 201.496 93.3479 201.577 93.3885C201.659 93.4291 201.74 93.4291 201.822 93.4697C201.903 93.5103 201.985 93.5103 202.066 93.5103Z" fill="#6379ED"/>
<path d="M164.285 93.347C163.306 92.8598 162.491 91.6419 162.491 90.6269C162.491 89.6526 163.306 89.2466 164.285 89.7338C165.263 90.2209 166.078 91.4389 166.078 92.4538C166.078 93.4282 165.263 93.8342 164.285 93.347Z" fill="#838990"/>
<path d="M164.285 98.9129C163.306 98.4257 162.491 97.2078 162.491 96.1928C162.491 95.2185 163.306 94.8125 164.285 95.2997C165.263 95.7869 166.078 97.0048 166.078 98.0197C166.078 99.0347 165.263 99.4407 164.285 98.9129Z" fill="#B2C0F6"/>
<path d="M163.147 103.603C162.357 102.595 162.221 101.387 162.842 100.904C163.463 100.421 164.607 100.847 165.396 101.854C166.186 102.861 166.323 104.069 165.702 104.552C165.081 105.035 163.937 104.61 163.147 103.603Z" fill="#B2C0F6"/>
<path d="M186.898 105.936V108.94L180.01 105.489V102.525L186.898 105.936Z" fill="#B2C0F6"/>
<path d="M197.745 73.29H198.561V89.0014H197.745V73.29Z" fill="#838990"/>
<path d="M201.536 75.1626H202.352V90.8739H201.536V75.1626Z" fill="#838990"/>
<path d="M199.617 74.2227H200.433V89.934H199.617V74.2227Z" fill="#838990"/>
<path d="M181.198 106.301H182.014V138.252H181.198V106.301Z" fill="#838990"/>
<path d="M184.951 108.171H185.767V140.121H184.951V108.171Z" fill="#838990"/>
<path d="M183.072 107.235H183.888V139.185H183.072V107.235Z" fill="#838990"/>
<path d="M178.591 93.5528L185.602 90.0614L192.45 93.4716L192.816 92.7408L185.602 89.1276L178.591 92.619L166.281 86.4888L165.914 87.2195L178.591 93.5528Z" fill="#838990"/>
<path d="M192.246 157.092H193.062V164.928H192.246V157.092Z" fill="#838990"/>
<path d="M196.035 158.954H196.851V166.789H196.035V158.954Z" fill="#838990"/>
<path d="M194.163 158.022H194.979V165.858H194.163V158.022Z" fill="#838990"/>
<path d="M192.246 171.988H193.062V180.473H192.246V171.988Z" fill="#838990"/>
<path d="M196.035 173.858H196.851V182.343H196.035V173.858Z" fill="#838990"/>
<path d="M194.162 172.919H194.978V181.404H194.162V172.919Z" fill="#838990"/>
<path d="M202.434 146.208L186.659 138.373V154.084L202.434 161.96V146.208Z" fill="#838990"/>
<path d="M191.774 152.347C189.793 149.82 189.438 146.798 190.982 145.598C192.526 144.398 195.383 145.473 197.364 148C199.345 150.527 199.7 153.549 198.156 154.75C196.612 155.95 193.755 154.875 191.774 152.347Z" fill="#5B78E6"/>
<path d="M176.755 156.846V136.425L178.874 137.481L179.241 136.75L175.94 135.126V155.547L172.679 153.923L172.312 154.654L176.755 156.846Z" fill="#838990"/>
<path d="M176.543 146.015L179.241 147.359L178.876 148.086L176.178 146.742L176.543 146.015Z" fill="#838990"/>
<path d="M176.532 140.734L179.23 142.078L178.865 142.805L176.167 141.461L176.532 140.734Z" fill="#838990"/>
<path d="M182.691 149.112L186.848 151.182L186.483 151.909L182.326 149.839L182.691 149.112Z" fill="#838990"/>
<path d="M182.691 138.483L186.848 140.553L186.483 141.279L182.326 139.209L182.691 138.483Z" fill="#838990"/>
<path d="M182.691 143.791L186.848 145.861L186.483 146.588L182.326 144.518L182.691 143.791Z" fill="#838990"/>
<path d="M197.992 171.622V174.626L191.103 171.216V168.212L197.992 171.622Z" fill="#B2C0F6"/>
<path d="M163.147 86.837C162.357 85.8297 162.221 84.6216 162.842 84.1387C163.463 83.6558 164.607 84.0809 165.396 85.0882C166.186 86.0955 166.323 87.3036 165.702 87.7865C165.081 88.2694 163.937 87.8443 163.147 86.837Z" fill="#5B78E6"/>
<path d="M192.612 92.9016L188.862 87.3397L184.868 85.3098L179.772 87.8675L159.962 78.0022V74.186L177.816 83.077L182.055 80.9659L196.688 88.2735V94.9315L192.612 92.9016Z" fill="#5B78E6"/>
<path d="M196.688 107.152L189.963 110.521V120.874L193.835 122.823V120.346L191.389 116.652V111.171L196.688 113.81V107.152Z" fill="#5B78E6"/>
<path d="M206.51 118.722V112.023L203.412 110.48V117.139L206.51 118.722Z" fill="#5B78E6"/>
<path d="M179.036 137.115C179.036 136.181 179.81 135.775 180.748 136.263C181.685 136.75 182.46 137.886 182.46 138.82C182.46 139.754 181.685 140.16 180.748 139.673C179.81 139.226 179.036 138.049 179.036 137.115Z" fill="#5B78E6"/>
<path d="M179.036 142.433C179.036 141.499 179.81 141.093 180.748 141.58C181.685 142.067 182.46 143.204 182.46 144.138C182.46 145.071 181.685 145.477 180.748 144.99C179.81 144.544 179.036 143.366 179.036 142.433Z" fill="#5B78E6"/>
<path d="M182.501 149.457C182.501 150.391 181.727 150.797 180.789 150.31C179.851 149.823 179.077 148.686 179.077 147.752C179.077 146.819 179.851 146.413 180.789 146.9C181.727 147.346 182.501 148.524 182.501 149.457Z" fill="#034AFF"/>
<path d="M197.992 167.564V170.568L191.103 167.117V164.113L197.992 167.564Z" fill="#5B78E6"/>
<path d="M168.522 93.5917L176.226 97.4485L186.172 92.4956L196.688 97.7327V104.391L187.313 99.722L184.949 96.1494L174.596 101.305L177.897 106.177L177.857 127.044L174.759 125.502L172.15 126.801L168.482 124.974L168.522 93.5917Z" fill="#5B78E6"/>
<path d="M167.826 134.598H168.642V140.363H167.826V134.598Z" fill="#838990"/>
<path d="M169.947 135.45C169.947 136.383 169.173 136.789 168.235 136.302C167.298 135.815 166.523 134.678 166.523 133.745C166.523 132.811 167.298 132.405 168.235 132.892C169.173 133.379 169.947 134.516 169.947 135.45Z" fill="#034AFF"/>
<path d="M168.237 140.361C166.321 139.428 164.813 140.199 164.813 142.066V152.46C164.813 154.368 166.362 156.641 168.237 157.575C170.153 158.509 171.661 157.737 171.661 155.87V145.477C171.661 143.609 170.153 141.295 168.237 140.361Z" fill="#838990"/>
<path fill-rule="evenodd" clip-rule="evenodd" d="M170.426 292.962L169.141 292.322C166.007 290.761 166.007 288.25 169.141 286.689L208.733 266.973C211.867 265.412 216.91 265.412 220.044 266.973L236.729 275.287C236.826 275.33 236.921 275.375 237.014 275.422L293.539 303.588C293.606 303.621 293.672 303.655 293.736 303.689L295.239 304.438C298.373 305.999 298.373 308.51 295.239 310.071L255.648 329.787C252.513 331.348 247.47 331.348 244.336 329.787L241.576 328.412C241.352 328.322 241.136 328.226 240.928 328.122L239.438 327.38C239.366 327.346 239.294 327.312 239.224 327.277L182.699 299.111C182.57 299.046 182.447 298.979 182.328 298.911L174.214 294.868C174.18 294.851 174.146 294.833 174.112 294.816L172.514 294.02C172.487 294.006 172.461 293.992 172.434 293.979L170.81 293.169C170.677 293.102 170.549 293.033 170.426 292.962Z" fill="url(#paint11_linear_2929_68381)"/>
<path d="M258.311 244.912L210.252 220.561C210.053 220.415 209.817 220.326 209.571 220.303C209.324 220.28 209.076 220.325 208.854 220.432L205.596 222.266L208.265 258.716C208.294 259.407 208.49 260.081 208.836 260.681C209.182 261.281 209.668 261.789 210.252 262.163L256.526 291.861L259.802 290.028C259.995 289.882 260.147 289.688 260.244 289.467C260.341 289.246 260.379 289.003 260.354 288.763V248.432C260.326 247.724 260.125 247.033 259.769 246.42C259.414 245.807 258.913 245.289 258.311 244.912Z" fill="#D5DAF2"/>
<path d="M255.051 246.783L206.919 222.26C205.833 221.637 204.949 222.15 204.949 223.397V263.728C204.985 264.411 205.182 265.075 205.524 265.668C205.866 266.26 206.344 266.764 206.919 267.138L255.051 291.661C256.137 292.284 257.02 291.789 257.02 290.524V250.193C256.982 249.511 256.783 248.848 256.442 248.255C256.1 247.663 255.623 247.159 255.051 246.783Z" fill="#E3E6F9"/>
<path d="M207.543 264.727V225.746L254.424 249.423V288.361L207.543 264.727Z" fill="url(#paint12_linear_2929_68381)"/>
<path d="M255.841 293.361L206.881 268.282C206.267 267.974 205.589 267.814 204.902 267.814C204.215 267.814 203.537 267.974 202.923 268.282L166.787 285.223V289.5C166.814 289.743 166.902 289.975 167.044 290.173C167.185 290.372 167.376 290.532 167.597 290.637L215.955 315.454C216.565 315.761 217.24 315.922 217.924 315.922C218.609 315.922 219.283 315.761 219.894 315.454L255.013 297.99C255.24 297.89 255.436 297.733 255.581 297.533C255.727 297.333 255.816 297.099 255.841 296.853V293.361Z" fill="#D8DCF7"/>
<path d="M255.011 291.696L206.533 266.885C205.919 266.577 205.242 266.417 204.554 266.417C203.867 266.417 203.189 266.577 202.576 266.885L167.64 284.226C166.554 284.867 166.554 285.876 167.64 286.499L215.953 311.296C216.563 311.603 217.238 311.764 217.922 311.764C218.607 311.764 219.281 311.603 219.892 311.296L255.011 293.969C255.245 293.884 255.447 293.73 255.59 293.526C255.733 293.323 255.809 293.081 255.809 292.833C255.809 292.585 255.733 292.343 255.59 292.139C255.447 291.936 255.245 291.781 255.011 291.696Z" fill="#F5F5FD"/>
<g style="mix-blend-mode:multiply">
<path d="M183.141 278.914L203.765 268.684L251.847 293.051L231.304 303.282L183.141 278.914Z" fill="#DED5F9"/>
</g>
<g style="mix-blend-mode:multiply">
<path d="M203.524 302.151L186.661 293.532L196.811 288.376L213.998 296.996L203.524 302.151Z" fill="#DED5F9"/>
</g>
<path d="M246.36 267.815L213.139 251.24C213.348 250.531 214.533 249.138 217.598 249.239C221.428 249.364 223.438 253.742 227.583 256.432C231.728 259.121 232.795 255.306 238.071 256.432C242.291 257.332 245.356 264.396 246.36 267.815Z" fill="#5F82FF"/>
<path d="M273.283 207.156L275.39 207.099L280.757 211.41C281.565 212.042 280.843 213.651 279.718 213.163L274.495 210.863C273.225 210.317 273.312 208.478 273.283 207.156Z" fill="#8EAAE8"/>
<path d="M265.639 176.662L275.594 185.198L276.027 185.571C276.69 186.146 277.066 186.979 277.066 187.813L277.123 206.666C277.123 207.93 276.113 208.965 274.844 208.965C273.661 208.965 272.708 208.103 272.564 206.982L270.14 188.273L271.612 190.888L260.185 184.479C257.877 183.186 257.069 180.254 258.367 177.955C259.666 175.656 262.609 174.851 264.918 176.145C265.148 176.26 265.408 176.461 265.639 176.662Z" fill="#00438D"/>
<path d="M264.917 212.097L267.629 217.73C268.149 218.764 266.014 219.54 265.119 218.506L262.205 215.114C261.685 214.482 261.541 213.189 261.541 212.097H264.917Z" fill="#8EAAE8"/>
<path d="M260.299 182.267L263.04 188.733L263.386 189.566C263.53 189.883 263.675 190.227 263.79 190.572C264.05 191.233 264.252 191.923 264.454 192.613C264.829 193.992 265.06 195.372 265.146 196.751L265.175 197.269V197.728L265.204 198.591L265.233 200.344L265.319 203.85L265.493 210.862C265.521 212.127 264.512 213.19 263.242 213.219C262.117 213.248 261.164 212.443 260.933 211.38L259.548 204.511L258.856 201.091L258.51 199.367L258.337 198.504L258.25 198.102L258.163 197.757C257.933 196.838 257.615 195.975 257.211 195.142C257.009 194.74 256.807 194.337 256.548 193.935C256.432 193.734 256.317 193.561 256.172 193.36L255.711 192.642L251.873 186.779C250.43 184.566 251.065 181.606 253.287 180.169C255.509 178.732 258.481 179.364 259.924 181.577C260.039 181.749 260.183 182.008 260.299 182.267Z" fill="#00438D"/>
<path d="M269.91 168.961C269.737 169.249 269.563 169.536 269.304 169.852C269.246 169.938 269.16 170.025 269.073 170.111C268.986 170.197 268.9 170.283 268.784 170.37C268.554 170.542 268.236 170.714 267.832 170.801C267.399 170.887 266.938 170.801 266.591 170.657C266.418 170.571 266.303 170.485 266.159 170.398C266.043 170.312 265.957 170.226 265.87 170.14C265.524 169.795 265.351 169.507 265.177 169.22C264.831 168.645 264.629 168.128 264.398 167.582C264.196 167.065 263.994 166.547 263.85 166.03C263.158 163.989 262.638 161.949 262.032 159.908C261.686 158.73 262.35 157.523 263.504 157.178C264.687 156.833 265.899 157.494 266.245 158.673C266.303 158.874 266.332 159.075 266.332 159.276C266.361 160.282 266.418 161.288 266.505 162.294C266.591 163.3 266.736 164.277 266.909 165.225C266.995 165.714 267.111 166.174 267.226 166.605C267.342 167.036 267.515 167.467 267.659 167.812C267.746 167.955 267.832 168.099 267.861 168.128C267.832 168.099 267.832 168.099 267.774 168.07C267.746 168.07 267.717 168.042 267.688 168.042C267.659 168.042 267.601 168.013 267.572 168.013C267.486 168.013 267.399 167.984 267.313 168.013C267.14 168.042 267.082 168.099 267.053 168.128C267.053 168.099 267.053 168.099 267.082 168.07C267.14 167.984 267.226 167.841 267.313 167.668C267.63 166.921 268.496 166.576 269.246 166.863C269.996 167.18 270.343 168.013 270.054 168.789C270.025 168.846 269.996 168.904 269.967 168.961H269.91Z" fill="#315EFF"/>
<path d="M265.233 172.611C265.262 176.95 265.175 181.376 265.175 181.376C264.973 183.331 252.046 186.549 251.094 184.509C250.863 181.664 250.978 178.876 251.556 176.088L265.233 172.611Z" fill="#00438D"/>
<path d="M248.469 160.34C251.297 157.897 258.684 156.288 262.32 155.857C264.368 155.627 266.157 157.15 266.273 159.191C266.59 164.766 265.494 173.532 265.494 173.532C265.494 175.773 252.595 178.36 251.47 176.003C251.47 169.738 250.085 167.755 247.2 163.157C247.171 162.093 247.632 161.059 248.469 160.34Z" fill="#315EFF"/>
<path d="M258.885 155.338L258.366 158.959C257.01 158.959 255.48 158.298 255.567 157.148L256.231 153.556L258.885 155.338Z" fill="#DCABF3"/>
<path d="M260.5 155.536C260.356 156.14 259.23 156.83 258.249 156.083L256.258 153.553C256.258 153.553 255.364 149.386 258.336 149.386C259.201 149.386 260.5 150.047 260.962 150.766C261.596 152.318 260.904 154.013 260.5 155.536Z" fill="#DCABF3"/>
<path d="M255.653 151.256C255.653 149.043 258.106 148.411 259.462 148.957C260.328 149.331 261.655 150.451 263.04 149.647C263.415 150.768 262.579 151.486 261.28 151.888C260.097 152.233 258.827 151.975 257.904 151.17L257.875 151.141L257.24 151.055C257.817 151.687 257.933 152.751 257.731 154.044L259.203 154.791L260.79 154.331L260.616 156.084C260.559 156.487 260.212 156.803 259.808 156.832L259.289 156.86C259.087 156.86 258.856 156.803 258.712 156.659C258.712 156.659 256.981 155.567 257.01 154.964L257.125 152.923C256.981 152.664 256.808 152.664 256.692 152.779C256.577 152.923 255.855 155.625 255.855 155.625C255.855 155.625 255.653 152.147 255.653 151.256Z" fill="#00438D"/>
<path d="M267.109 173.1L262.291 174.25C261.887 174.336 261.598 174.106 261.656 173.732L263.156 165.743C263.243 165.34 263.618 164.967 264.051 164.852L268.87 163.702C269.274 163.616 269.562 163.846 269.504 164.219L268.004 172.209C267.917 172.611 267.542 173.014 267.109 173.1Z" fill="#00438D"/>
<path d="M269.969 167.809C270.056 168.757 269.219 169.303 268.527 169.476L268.642 167.952C268.44 167.636 268.353 167.234 268.411 166.86L268.584 165.423L269.363 165.797C270.142 166.228 270.287 166.832 269.969 167.809Z" fill="#DCABF3"/>
<path d="M262.406 172.412L260.992 173.188C260.502 173.418 260.04 173.676 259.55 173.906C258.597 174.395 257.588 174.826 256.52 175.199C255.481 175.573 254.356 175.86 253.144 176.004C252.855 176.033 252.538 176.033 252.22 176.062C252.076 176.062 251.903 176.062 251.73 176.033C251.557 176.033 251.413 176.004 251.239 176.004C250.893 175.947 250.576 175.918 250.229 175.774C250.056 175.717 249.883 175.688 249.739 175.602C249.566 175.516 249.422 175.458 249.248 175.372C248.614 175.027 248.008 174.538 247.546 173.964C247.113 173.389 246.767 172.757 246.536 172.124C246.478 171.952 246.421 171.808 246.392 171.664C246.363 171.521 246.305 171.348 246.276 171.205L246.19 170.745C246.161 170.601 246.132 170.429 246.132 170.285C246.103 169.969 246.074 169.681 246.045 169.365L246.017 168.905V168.474C246.045 167.296 246.219 166.146 246.449 165.054C246.68 163.934 246.969 162.87 247.315 161.807C247.69 160.657 248.902 160.025 250.056 160.37C251.211 160.743 251.845 161.951 251.499 163.1C251.47 163.186 251.441 163.301 251.384 163.388V163.416C250.547 165.141 249.912 166.951 249.71 168.704C249.623 169.566 249.595 170.429 249.797 171.118C249.883 171.463 250.027 171.751 250.172 172.009C250.345 172.268 250.547 172.44 250.778 172.613C250.835 172.642 250.922 172.699 250.98 172.728C251.037 172.757 251.124 172.785 251.211 172.814C251.355 172.9 251.528 172.9 251.701 172.958C251.874 172.986 252.076 173.015 252.278 173.015C252.48 173.015 252.682 173.044 252.884 173.015C253.75 172.986 254.644 172.785 255.539 172.469C257.357 171.866 259.146 170.946 260.819 169.883H260.848C261.541 169.452 262.435 169.653 262.868 170.342C263.301 171.032 263.099 171.923 262.406 172.354C262.464 172.383 262.435 172.412 262.406 172.412Z" fill="#315EFF"/>
<path d="M262.349 167.784C262.406 167.641 262.579 167.583 262.724 167.641C262.868 167.698 262.954 167.871 262.897 168.014L262.608 168.934L263.156 168.331L264.224 167.641C264.368 167.555 264.542 167.583 264.599 167.727C264.686 167.842 264.657 168.014 264.542 168.101L263.676 168.762L263.56 168.934L264.166 168.675L264.426 170.543L264.08 170.917C264.08 170.917 263.445 171.578 262.897 172.067C262.579 172.354 262.089 172.325 261.8 172.009L260.963 171.118C260.733 170.86 260.704 170.486 260.877 170.17L262.349 167.784Z" fill="#DCABF3"/>
<path d="M170.569 229.246C163.085 225.56 154.286 225.56 146.802 229.246C146.761 229.246 146.72 229.287 146.679 229.287C144.705 230.27 142.896 231.294 141.251 232.399C139.195 233.751 139.195 236.781 141.251 238.133C142.896 239.198 144.705 240.263 146.679 241.245C146.72 241.245 146.761 241.286 146.802 241.286C154.286 244.972 163.085 244.972 170.569 241.286C170.61 241.286 170.651 241.245 170.692 241.245C172.666 240.263 174.475 239.239 176.12 238.133C178.176 236.781 178.176 233.751 176.12 232.399C174.475 231.335 172.666 230.27 170.692 229.287C170.651 229.287 170.61 229.246 170.569 229.246Z" fill="#0123D3" fill-opacity="0.6"/>
<path d="M155.807 239.157C157.411 240.345 160.742 242.352 162.345 242.884C163.99 243.416 164.812 242.106 163.826 240.918L157.987 234.243L155.931 236.454C155.191 237.232 154.779 238.379 155.807 239.157Z" fill="#2815FF" fill-opacity="0.64"/>
<path d="M152.272 234.57C154.04 233.997 156.877 232.195 158.07 231.13C159.303 229.983 158.44 228.714 156.877 228.96L150.093 229.82V233.096C150.093 234.12 151.038 234.98 152.272 234.57Z" fill="#2815FF" fill-opacity="0.64"/>
<path d="M145.396 181.205L144.903 184.481C144.862 184.686 144.697 184.85 144.451 184.85C144.204 184.85 144.04 184.686 144.04 184.44L143.916 181.819L145.396 181.205Z" fill="#DCABF3"/>
<path d="M143.715 183.291L143.921 185.502C143.962 185.789 143.838 186.034 143.674 186.239L142.728 187.263L143.304 183.659L143.715 183.291Z" fill="#DCABF3"/>
<path d="M143.14 184.603L142.728 187.265C142.687 187.47 142.482 187.634 142.276 187.593C142.112 187.552 141.988 187.429 141.947 187.265L141.454 184.399L141.988 180.917C142.112 180.057 142.934 179.484 143.756 179.607L144.085 179.648C144.867 179.771 145.442 180.426 145.401 181.245L143.14 184.603Z" fill="#DCABF3"/>
<path d="M147.913 155.691C146.31 157.288 144.953 159.09 143.842 161.015C142.773 162.94 141.992 164.988 141.499 167.076C141.005 169.165 140.8 171.295 140.8 173.383C140.8 175.472 141.005 177.561 141.416 179.608C141.622 180.837 142.814 181.615 144.007 181.41C145.24 181.205 146.022 180.018 145.816 178.83C145.816 178.789 145.775 178.707 145.775 178.666C145.323 176.987 145.158 175.226 145.24 173.465C145.323 171.745 145.652 170.025 146.227 168.428C146.803 166.831 147.625 165.356 148.612 164.046C149.64 162.735 150.833 161.67 152.19 160.81C153.752 159.827 154.246 157.78 153.259 156.182C152.272 154.626 150.216 154.135 148.612 155.118C148.407 155.241 148.201 155.404 148.037 155.568L147.913 155.691Z" fill="#315EFF"/>
<path d="M156.384 183.46C157.947 187.392 159.139 191.405 159.921 195.542C160.702 199.678 161.072 203.937 160.99 208.197C160.867 216.797 159.181 225.479 156.837 234.08C156.467 235.513 157.289 236.947 158.687 237.356C160.003 237.725 161.401 236.987 161.894 235.759C163.539 231.459 165.02 227.077 166.253 222.613C167.487 218.108 168.432 213.48 168.967 208.729C169.502 203.978 169.584 199.146 169.173 194.313C168.761 189.481 167.816 184.689 166.5 180.061C165.677 177.235 162.717 175.597 159.88 176.416C157.042 177.235 155.398 180.184 156.22 183.01C156.261 183.133 156.302 183.296 156.384 183.46Z" fill="#0026AC"/>
<path d="M147.258 177.234L149.93 228.96C150.013 230.434 151.246 231.54 152.727 231.458C154.083 231.376 155.194 230.27 155.235 228.96L157.908 177.234C158.072 174.286 155.81 171.788 152.85 171.665C149.889 171.501 147.381 173.753 147.258 176.702C147.258 176.866 147.258 177.071 147.258 177.234Z" fill="#0026AC"/>
<path d="M153.341 183.991L160.454 185.956C163.867 186.898 166.622 184.933 166.622 181.533C166.622 178.134 163.867 174.612 160.454 173.67L153.341 171.704C149.928 170.762 147.173 172.728 147.173 176.127C147.173 179.527 149.928 183.049 153.341 183.991Z" fill="#0026AC"/>
<path d="M160.618 151.47C160.412 154.091 156.835 151.88 156.465 151.552C155.314 150.487 153.299 146.965 155.971 145.491C156.876 145 158.85 144.918 159.631 145.614C160.741 146.597 160.741 149.873 160.618 151.47Z" fill="#DCABF3"/>
<path d="M159.631 152.743L154.655 147.952L154.409 157.617L158.891 157.412L158.233 152.948L159.631 152.743Z" fill="#DCABF3"/>
<path d="M148.076 173.136C150.543 168.672 147.418 159.908 147.994 156.304C148.117 155.526 148.693 154.953 149.474 154.83C153.051 154.257 160.741 156.468 163.454 160.482C164.811 164.946 164.482 172.727 166.045 178.87C158.356 181.327 148.076 175.88 148.076 173.136Z" fill="#315EFF"/>
<path d="M180.314 141.357C180.561 141.398 180.725 141.603 180.684 141.848L180.52 143.241L181.136 142.217L182.493 140.947C182.658 140.783 182.905 140.783 183.069 140.988C183.233 141.152 183.233 141.398 183.069 141.562L182 142.749L181.877 143.036L183.192 142.585C183.398 142.463 183.686 142.544 183.809 142.749L184.426 143.855C184.508 144.019 184.467 144.224 184.344 144.346L183.727 145.002L183.192 145.862L182.041 147.5C181.712 147.991 181.013 148.114 180.52 147.746L179.533 147.049L179.286 146.845C178.628 146.353 178.423 145.78 178.793 144.756L179.821 141.562C179.903 141.439 180.108 141.316 180.314 141.357Z" fill="#DCABF3"/>
<path d="M161.976 164.372C164.032 163.798 166.088 163.184 168.103 162.365C170.118 161.546 172.133 160.604 174.024 159.293C175.875 158.024 177.602 156.386 178.917 154.461C180.233 152.577 181.138 150.488 181.837 148.441C182.248 147.253 181.59 146.024 180.439 145.615C179.287 145.205 178.013 145.86 177.602 147.007C177.602 147.048 177.56 147.13 177.56 147.171C177.108 148.932 176.368 150.57 175.34 151.922C175.093 152.249 174.805 152.577 174.518 152.905C174.189 153.191 173.901 153.478 173.572 153.765C172.914 154.297 172.215 154.789 171.434 155.198C169.912 156.017 168.185 156.631 166.417 157.041C164.608 157.451 162.758 157.696 160.866 157.819H160.825C158.975 157.942 157.577 159.539 157.7 161.382C157.823 163.225 159.427 164.618 161.277 164.495C161.524 164.495 161.771 164.454 161.976 164.372Z" fill="#315EFF"/>
<path d="M140.143 154.75C141.007 154.013 142.199 153.808 143.309 153.767C144.461 153.726 145.571 153.849 146.681 153.644C147.791 153.439 148.943 152.866 149.354 151.801C149.765 150.9 149.56 149.794 149.889 148.852C150.3 147.665 151.492 146.886 152.726 146.641C152.849 146.6 152.972 146.6 153.096 146.559C153.178 145.904 153.466 145.248 153.918 144.716C155.604 142.832 157.742 142.3 160.004 142.218C163.335 142.095 165.719 144.347 159.757 146.764L158.441 147.009C160.045 150.163 155.234 149.385 155.152 151.228C155.07 153.234 163.211 155.855 161.525 160.852C159.88 165.848 149.765 166.299 146.763 165.562C143.762 164.824 140.924 163.022 139.526 160.279C139.074 159.378 138.745 158.395 138.786 157.371C138.951 156.429 139.362 155.405 140.143 154.75Z" fill="#00438D"/>
<path d="M118.278 279.041L130.292 273.058C131.191 272.61 131.994 272.578 132.573 272.866L136.138 274.658C136.202 274.69 136.234 274.69 136.299 274.722C136.845 275.042 137.166 275.618 137.166 276.481V288.447C137.166 290.206 135.721 292.35 133.954 293.246L121.94 299.229C121.041 299.676 120.238 299.708 119.659 299.42L116.094 297.629C116.03 297.597 115.997 297.597 115.965 297.565C115.419 297.245 115.098 296.669 115.098 295.805V283.84C115.098 282.048 116.511 279.905 118.278 279.041Z" fill="url(#paint13_linear_2929_68381)"/>
<path d="M121.94 299.197L133.954 293.214C135.721 292.318 137.166 290.175 137.166 288.415V276.449C137.166 274.69 135.721 273.954 133.954 274.85L121.94 280.833C120.173 281.728 118.728 283.872 118.728 285.632V297.597C118.728 299.357 120.173 300.092 121.94 299.197Z" fill="url(#paint14_linear_2929_68381)"/>
<path d="M145.625 265.415L157.639 259.432C158.538 258.984 159.341 258.952 159.919 259.24L163.485 261.032C163.549 261.064 163.581 261.064 163.645 261.096C164.191 261.416 164.513 261.992 164.513 262.855V274.821C164.513 276.58 163.067 278.724 161.3 279.62L149.287 285.603C148.387 286.05 147.584 286.082 147.006 285.794L143.441 284.003C143.376 283.971 143.344 283.971 143.312 283.939C142.766 283.619 142.445 283.043 142.445 282.179V270.214C142.413 268.454 143.826 266.311 145.625 265.415Z" fill="url(#paint15_linear_2929_68381)"/>
<path d="M149.253 285.601L161.266 279.618C163.033 278.722 164.479 276.579 164.479 274.819V262.854C164.479 261.094 163.033 260.358 161.266 261.254L149.253 267.237C147.486 268.133 146.04 270.276 146.04 272.036V284.001C146.04 285.761 147.486 286.465 149.253 285.601Z" fill="url(#paint16_linear_2929_68381)"/>
</g>
</g>
</g>
<defs>
<linearGradient id="paint0_linear_2929_68381" x1="294.323" y1="316.597" x2="116.026" y2="316.597" gradientUnits="userSpaceOnUse">
<stop stop-color="#E1E3F8"/>
<stop offset="0.5" stop-color="#D3D7F2"/>
<stop offset="1" stop-color="#F2F3FF"/>
</linearGradient>
<linearGradient id="paint1_linear_2929_68381" x1="296.108" y1="172.605" x2="117.505" y2="172.605" gradientUnits="userSpaceOnUse">
<stop stop-color="#E8EAFB"/>
<stop offset="1" stop-color="white"/>
</linearGradient>
<linearGradient id="paint2_linear_2929_68381" x1="294.323" y1="316.597" x2="116.026" y2="316.597" gradientUnits="userSpaceOnUse">
<stop stop-color="#E1E3F8"/>
<stop offset="0.5" stop-color="#D3D7F2"/>
<stop offset="1" stop-color="#F2F3FF"/>
</linearGradient>
<linearGradient id="paint3_linear_2929_68381" x1="296.108" y1="172.605" x2="117.505" y2="172.605" gradientUnits="userSpaceOnUse">
<stop stop-color="#E8EAFB"/>
<stop offset="1" stop-color="white"/>
</linearGradient>
<linearGradient id="paint4_linear_2929_68381" x1="240.116" y1="180.537" x2="169.382" y2="39.9833" gradientUnits="userSpaceOnUse">
<stop stop-color="#697BE0"/>
<stop offset="0.5769" stop-color="#7B94F8"/>
<stop offset="0.7279" stop-color="#B0C0FF"/>
<stop offset="1" stop-color="#BBC9FF"/>
</linearGradient>
<linearGradient id="paint5_linear_2929_68381" x1="203.965" y1="77.4153" x2="158.582" y2="166.844" gradientUnits="userSpaceOnUse">
<stop stop-color="#C5D0F9"/>
<stop offset="1" stop-color="#E3E5F9"/>
</linearGradient>
<linearGradient id="paint6_linear_2929_68381" x1="200.15" y1="191.774" x2="136.434" y2="65.1654" gradientUnits="userSpaceOnUse">
<stop stop-color="#90A4F2"/>
<stop offset="0.2721" stop-color="#AAB9F3"/>
<stop offset="0.4231" stop-color="#697DCF"/>
<stop offset="1" stop-color="#7D91E4"/>
</linearGradient>
<linearGradient id="paint7_linear_2929_68381" x1="252.201" y1="98.9388" x2="217.753" y2="98.9388" gradientUnits="userSpaceOnUse">
<stop stop-color="#1487FB"/>
<stop offset="1" stop-color="#22D2FD"/>
</linearGradient>
<linearGradient id="paint8_linear_2929_68381" x1="252.201" y1="98.9388" x2="217.753" y2="98.9388" gradientUnits="userSpaceOnUse">
<stop stop-color="#141DFB"/>
<stop offset="1" stop-color="#291369"/>
</linearGradient>
<linearGradient id="paint9_linear_2929_68381" x1="250.764" y1="80.5046" x2="230.088" y2="121.246" gradientUnits="userSpaceOnUse">
<stop stop-color="#C5D0F9"/>
<stop offset="1" stop-color="#E3E5F9"/>
</linearGradient>
<linearGradient id="paint10_linear_2929_68381" x1="245.327" y1="145.727" x2="226.567" y2="182.693" gradientUnits="userSpaceOnUse">
<stop stop-color="#C5D0F9"/>
<stop offset="1" stop-color="#E3E5F9"/>
</linearGradient>
<linearGradient id="paint11_linear_2929_68381" x1="249.19" y1="298.522" x2="276.531" y2="322.743" gradientUnits="userSpaceOnUse">
<stop stop-color="#0064D3"/>
<stop offset="1" stop-color="#017AFF" stop-opacity="0"/>
</linearGradient>
<linearGradient id="paint12_linear_2929_68381" x1="230.983" y1="225.746" x2="230.983" y2="288.361" gradientUnits="userSpaceOnUse">
<stop stop-color="#5F4BDA"/>
<stop offset="0.527895" stop-color="#3640B3"/>
<stop offset="1" stop-color="#4C59DA"/>
</linearGradient>
<linearGradient id="paint13_linear_2929_68381" x1="117.103" y1="297.146" x2="135.005" y2="275.087" gradientUnits="userSpaceOnUse">
<stop stop-color="#2962D4"/>
<stop offset="1" stop-color="#3176FF"/>
</linearGradient>
<linearGradient id="paint14_linear_2929_68381" x1="127.947" y1="296.379" x2="127.947" y2="277.15" gradientUnits="userSpaceOnUse">
<stop stop-color="#3176FF"/>
<stop offset="1" stop-color="#66B3FF"/>
</linearGradient>
<linearGradient id="paint15_linear_2929_68381" x1="159.368" y1="261.673" x2="147.151" y2="284.224" gradientUnits="userSpaceOnUse">
<stop stop-color="#E1E3F8"/>
<stop offset="1" stop-color="#D3D7F2"/>
</linearGradient>
<linearGradient id="paint16_linear_2929_68381" x1="155.267" y1="285.803" x2="155.267" y2="263.78" gradientUnits="userSpaceOnUse">
<stop stop-color="#E8EAFB"/>
<stop offset="1" stop-color="white"/>
</linearGradient>
<clipPath id="clip0_2929_68381">
<rect width="302" height="379" fill="white"/>
</clipPath>
</defs>
</svg>
