<svg width="303" height="380" viewBox="0 0 303 380" fill="none" xmlns="http://www.w3.org/2000/svg">
<g opacity="0.2">
<mask id="mask0_1861_42445" style="mask-type:alpha" maskUnits="userSpaceOnUse" x="0" y="0" width="303" height="380">
<rect x="0.841919" width="302.144" height="380" fill="#017AFF"/>
</mask>
<g mask="url(#mask0_1861_42445)">
<path d="M316.457 150.498H150.974V168.518L233.716 211.453L316.457 168.518V150.498Z" fill="url(#paint0_linear_1861_42445)"/>
<path d="M155.61 156.304L222.528 191.076C228.709 194.288 238.752 194.288 244.933 191.076L311.822 156.304C318.002 153.092 318.002 147.873 311.822 144.662L244.903 109.89C238.723 106.678 228.679 106.678 222.498 109.89L155.61 144.662C149.399 147.873 149.399 153.092 155.61 156.304Z" fill="url(#paint1_linear_1861_42445)"/>
<path d="M316.457 150.498H150.974V166.787L233.716 211.453L316.457 166.787V150.498Z" fill="url(#paint2_linear_1861_42445)"/>
<path d="M155.61 168.656L222.528 203.428C228.709 206.64 238.752 206.64 244.933 203.428L311.822 168.656C314.912 167.05 316.457 164.95 316.457 162.85V165.938C316.457 168.038 314.912 170.138 311.822 171.744L244.903 206.516C238.723 209.728 228.679 209.728 222.498 206.516L155.61 171.744C152.519 170.138 150.974 168.038 150.974 165.938V162.85C150.974 164.95 152.519 167.05 155.61 168.656Z" fill="#8CD9FF"/>
<path d="M155.61 171.744L222.528 206.516C228.709 209.728 238.752 209.728 244.933 206.516L311.822 171.744C314.912 170.138 316.457 168.038 316.457 165.938V169.027C316.457 171.127 314.912 173.226 311.822 174.832L244.903 209.604C238.723 212.816 228.679 212.816 222.498 209.604L155.61 174.832C152.519 173.226 150.974 171.127 150.974 169.027V165.938C150.974 168.038 152.519 170.138 155.61 171.744Z" fill="white"/>
<path d="M155.61 156.304L222.528 191.076C228.709 194.288 238.752 194.288 244.933 191.076L311.822 156.304C318.002 153.092 318.002 147.873 311.822 144.662L244.903 109.89C238.723 106.678 228.679 106.678 222.498 109.89L155.61 144.662C149.399 147.873 149.399 153.092 155.61 156.304Z" fill="url(#paint3_linear_1861_42445)"/>
<path d="M233.701 189.964C237.474 189.964 241.248 189.223 244.101 187.741L304.363 156.427C307.335 154.883 308.939 152.783 308.939 150.498C308.939 148.213 307.305 146.113 304.363 144.569L244.131 113.255C238.396 110.26 229.035 110.26 223.3 113.255L163.068 144.569C160.096 146.113 158.492 148.213 158.492 150.498C158.492 152.783 160.126 154.883 163.068 156.427L223.3 187.71C226.183 189.192 229.957 189.964 233.701 189.964ZM233.701 112.545C237.237 112.545 240.773 113.255 243.447 114.645L303.68 145.928C306.116 147.194 307.453 148.8 307.453 150.467C307.453 152.135 306.116 153.741 303.68 155.007L243.447 186.32C238.069 189.099 229.333 189.099 223.954 186.32L163.722 155.007C161.285 153.741 159.948 152.135 159.948 150.467C159.948 148.8 161.285 147.194 163.722 145.928L223.954 114.645C226.658 113.225 230.194 112.545 233.701 112.545Z" fill="#D3DAF3"/>
<path opacity="0.0909091" d="M196.127 158.169L234.466 178.111C238.659 180.309 245.458 180.309 249.651 178.111L287.952 158.209C292.145 156.01 292.145 152.478 287.952 150.319L249.651 130.416C245.458 128.218 238.659 128.218 234.466 130.416L196.127 150.279C191.934 152.478 191.934 156.01 196.127 158.169Z" fill="#BEDDFF"/>
<path opacity="0.1818" d="M195.145 157.659L233.446 177.561C237.639 179.76 244.438 179.76 248.631 177.561L286.97 157.659C291.163 155.461 291.163 151.928 286.97 149.769L248.669 129.867C244.476 127.668 237.677 127.668 233.484 129.867L195.183 149.769C190.952 151.967 190.952 155.5 195.145 157.659Z" fill="#BEDDFF"/>
<path opacity="0.2727" d="M194.163 157.149L232.464 177.051C236.657 179.25 243.456 179.25 247.649 177.051L285.95 157.149C290.143 154.951 290.143 151.418 285.95 149.259L247.687 129.357C243.494 127.158 236.695 127.158 232.502 129.357L194.2 149.259C189.97 151.457 189.97 154.99 194.163 157.149Z" fill="#BEDDFF"/>
<path opacity="0.3636" d="M193.181 156.638L231.482 176.58C235.675 178.778 242.474 178.778 246.667 176.58L284.968 156.678C289.161 154.479 289.161 150.947 284.968 148.788L246.667 128.885C242.474 126.687 235.675 126.687 231.482 128.885L193.181 148.788C188.988 150.947 188.988 154.479 193.181 156.638Z" fill="#BEDDFF"/>
<path opacity="0.4545" d="M192.198 156.128L230.5 176.031C234.692 178.229 241.492 178.229 245.684 176.031L283.986 156.128C288.179 153.93 288.179 150.397 283.986 148.238L245.684 128.336C241.492 126.138 234.692 126.138 230.5 128.336L192.198 148.238C188.005 150.436 188.005 153.969 192.198 156.128Z" fill="#BEDDFF"/>
<path opacity="0.5455" d="M191.216 155.618L229.518 175.52C233.711 177.718 240.51 177.718 244.702 175.52L283.004 155.618C287.197 153.419 287.197 149.886 283.004 147.727L244.702 127.825C240.51 125.627 233.711 125.627 229.518 127.825L191.216 147.727C187.023 149.926 187.023 153.459 191.216 155.618Z" fill="#BEDDFF"/>
<path opacity="0.6364" d="M190.234 155.108L228.536 175.01C232.728 177.208 239.527 177.208 243.72 175.01L282.06 155.108C286.252 152.909 286.252 149.376 282.06 147.217L243.758 127.315C239.565 125.117 232.766 125.117 228.573 127.315L190.272 147.217C186.041 149.416 186.041 152.949 190.234 155.108Z" fill="#BEDDFF"/>
<path opacity="0.7273" d="M189.252 154.597L227.554 174.499C231.746 176.698 238.546 176.698 242.738 174.499L281.04 154.597C285.233 152.399 285.233 148.866 281.04 146.707L242.738 126.805C238.546 124.606 231.746 124.606 227.554 126.805L189.252 146.707C185.059 148.866 185.059 152.438 189.252 154.597Z" fill="#BEDDFF"/>
<path opacity="0.8182" d="M188.232 154.087L226.534 173.99C230.727 176.188 237.526 176.188 241.718 173.99L280.02 154.087C284.213 151.889 284.213 148.356 280.02 146.197L241.718 126.295C237.526 124.097 230.727 124.097 226.534 126.295L188.232 146.197C184.04 148.356 184.04 151.889 188.232 154.087Z" fill="#BEDDFF"/>
<path opacity="0.9091" d="M187.25 153.577L225.552 173.479C229.744 175.677 236.543 175.677 240.736 173.479L279.038 153.577C283.23 151.378 283.23 147.845 279.038 145.686L240.736 125.784C236.543 123.586 229.744 123.586 225.552 125.784L187.25 145.686C183.057 147.845 183.057 151.378 187.25 153.577Z" fill="#BEDDFF"/>
<path d="M186.268 153.067L224.57 172.969C228.762 175.167 235.561 175.167 239.754 172.969L278.056 153.067C282.249 150.868 282.249 147.335 278.056 145.176L239.754 125.274C235.561 123.076 228.762 123.076 224.57 125.274L186.268 145.176C182.075 147.335 182.075 150.868 186.268 153.067Z" fill="#BEDDFF"/>
<path d="M272.088 28.0004L234.088 8.25524C231.255 6.76356 228.687 6.64579 226.836 7.66642L184.077 29.8847C183.926 29.9632 183.775 30.0417 183.624 30.1202C181.924 31.1408 180.867 33.1428 180.867 35.8907V136.619C180.867 142.468 185.399 149.534 191.028 152.438L229.027 172.184C231.86 173.675 234.428 173.793 236.279 172.812L279.038 150.593C279.189 150.515 279.34 150.436 279.491 150.358C281.191 149.337 282.249 147.375 282.249 144.587V43.8202C282.249 38.0104 277.678 30.9053 272.088 28.0004Z" fill="url(#paint4_linear_1861_42445)"/>
<path d="M229.027 172.183L191.027 152.438C185.399 149.533 180.866 142.428 180.866 136.618V35.8904C180.866 30.0415 185.399 27.6862 191.027 30.6303L229.027 50.3755C234.655 53.2803 239.188 60.3855 239.188 66.1952V166.923C239.188 172.733 234.617 175.088 229.027 172.183Z" fill="#E3E5F9"/>
<path d="M229.027 166.295C231.52 167.591 233.522 166.531 233.522 163.979V63.2512C233.522 60.6604 231.52 57.52 229.027 56.2639L191.028 36.5187C188.535 35.2233 186.533 36.2831 186.533 38.8347V139.563C186.533 142.154 188.535 145.294 191.028 146.55L229.027 166.295Z" fill="url(#paint5_linear_1861_42445)"/>
<path d="M190.348 36.2044C190.31 36.4006 190.31 36.6362 190.31 36.8717V137.6C190.31 140.191 192.312 143.331 194.805 144.587L232.804 164.332C233.031 164.45 233.257 164.529 233.484 164.607C233.182 166.688 231.293 167.473 229.027 166.295L191.028 146.55C188.535 145.254 186.533 142.114 186.533 139.562V38.8344C186.533 36.4792 188.195 35.4193 190.348 36.2044Z" fill="url(#paint6_linear_1861_42445)"/>
<path d="M271.446 100.19C271.446 98.5806 272.692 96.6178 274.278 95.7935C275.827 94.9691 277.111 95.6364 277.111 97.2459C277.111 98.8553 275.865 100.818 274.278 101.642C272.692 102.467 271.446 101.839 271.446 100.19Z" fill="#5B78E6"/>
<path d="M262.947 104.586C262.947 102.977 264.193 101.014 265.78 100.19C267.328 99.3654 268.613 100.033 268.613 101.642C268.613 103.252 267.366 105.214 265.78 106.039C264.231 106.863 262.947 106.235 262.947 104.586Z" fill="#03CDFF"/>
<path d="M255.097 110.502C254.143 109.729 254.369 107.771 255.602 106.131C256.834 104.49 258.606 103.788 259.56 104.562C260.514 105.336 260.288 107.293 259.055 108.933C257.823 110.574 256.051 111.276 255.097 110.502Z" fill="#03CDFF"/>
<path d="M246.638 114.906C245.684 114.133 245.91 112.175 247.142 110.535C248.375 108.895 250.147 108.192 251.101 108.966C252.055 109.74 251.829 111.697 250.596 113.337C249.364 114.978 247.591 115.68 246.638 114.906Z" fill="#03CDFF"/>
<path d="M271.446 92.064C271.446 90.4546 272.692 88.4918 274.278 87.6675C275.827 86.8431 277.111 87.5105 277.111 89.1199C277.111 90.7294 275.865 92.6921 274.278 93.5165C272.692 94.3408 271.446 93.6735 271.446 92.064Z" fill="#03CDFF"/>
<path d="M263.553 97.9714C262.599 97.1975 262.825 95.2404 264.057 93.5999C265.29 91.9595 267.062 91.2569 268.016 92.0308C268.969 92.8046 268.743 94.7617 267.511 96.4022C266.278 98.0426 264.506 98.7452 263.553 97.9714Z" fill="white"/>
<path d="M255.093 102.374C254.14 101.6 254.366 99.6427 255.598 98.0023C256.831 96.3618 258.603 95.6593 259.557 96.4331C260.51 97.2069 260.284 99.1641 259.052 100.805C257.819 102.445 256.047 103.148 255.093 102.374Z" fill="white"/>
<path d="M246.025 105.293C246.025 103.684 247.271 101.721 248.858 100.896C250.406 100.072 251.691 100.739 251.691 102.349C251.691 103.958 250.444 105.921 248.858 106.745C247.271 107.57 246.025 106.902 246.025 105.293Z" fill="#5B78E6"/>
<path d="M248.289 96.3823L274.843 82.6039C276.089 81.9758 277.072 80.4056 277.072 79.1102V63.2904C277.072 61.995 276.052 61.4847 274.843 62.1128L248.289 75.8913C247.042 76.5193 246.06 78.0895 246.06 79.3849V95.2047C246.06 96.5393 247.042 97.0496 248.289 96.3823Z" fill="url(#paint7_linear_1861_42445)"/>
<path d="M248.289 96.3823L274.843 82.6039C276.089 81.9758 277.072 80.4056 277.072 79.1102V63.2904C277.072 61.995 276.052 61.4847 274.843 62.1128L248.289 75.8913C247.042 76.5193 246.06 78.0895 246.06 79.3849V95.2047C246.06 96.5393 247.042 97.0496 248.289 96.3823Z" fill="url(#paint8_linear_1861_42445)"/>
<path d="M246.4 95.4021L272.954 81.6236C274.201 80.9955 275.183 79.4253 275.183 78.1299V62.3102C275.183 62.1925 275.183 62.0747 275.145 61.9962C276.241 61.6036 277.072 62.1532 277.072 63.2916V79.1113C277.072 80.4067 276.052 81.9769 274.843 82.605L248.289 96.3835C247.156 96.9723 246.211 96.5797 246.06 95.5591C246.173 95.5199 246.287 95.4806 246.4 95.4021Z" fill="url(#paint9_linear_1861_42445)"/>
<path d="M246.214 87.1574L250.029 85.1555C250.746 84.7629 251.351 83.9778 251.577 83.1535C252.295 80.0916 253.013 78.7569 253.466 78.5606C253.542 78.5214 253.617 78.5214 253.693 78.5606C254.297 78.8354 254.977 80.7196 255.279 81.9365C255.392 82.4076 255.997 84.7629 256.979 85.234C257.243 85.3517 257.508 85.3517 257.772 85.234C258.037 85.1162 258.792 84.7236 259.661 81.0729C259.812 80.4841 260.265 79.856 260.794 79.5813C261.512 79.228 262.116 78.4036 262.343 77.5793C262.909 75.3025 263.438 74.3604 263.74 74.1641C263.778 74.1248 263.816 74.1248 263.853 74.1641C264.307 74.3604 264.836 75.852 265.062 76.7942C265.213 77.3437 265.931 80.1701 267.064 80.7196C267.366 80.8767 267.669 80.8374 267.933 80.7196C268.726 80.2878 269.519 78.5606 270.237 75.538C270.388 74.9492 270.841 74.3211 271.37 74.0463L275.45 71.9266L275.11 71.22L271.03 73.3397C270.313 73.7323 269.708 74.5174 269.482 75.3417C268.764 78.4429 268.008 79.7775 267.593 80.0131C267.517 80.0523 267.442 80.0523 267.366 80.0131C266.762 79.7383 266.082 77.854 265.78 76.5979C265.667 76.1661 265.1 73.8893 264.156 73.4182C263.891 73.3005 263.627 73.3005 263.4 73.4182C263.174 73.536 262.456 73.9286 261.587 77.3437C261.436 77.9326 260.983 78.5606 260.454 78.8354C259.736 79.1887 259.132 80.0131 258.905 80.8374C258.301 83.2712 257.734 84.2918 257.394 84.4881C257.357 84.5274 257.319 84.5274 257.243 84.4881C256.752 84.2526 256.186 82.7216 255.959 81.701C255.808 81.1515 255.09 78.3644 253.957 77.8148C253.655 77.6578 253.353 77.697 253.088 77.8148C252.295 78.2466 251.54 79.9738 250.822 82.9572C250.671 83.546 250.218 84.1741 249.689 84.4489L245.874 86.4509L246.214 87.1574Z" fill="white"/>
<path d="M266.799 131.79C267.555 131.398 268.159 131.712 268.159 132.497V144.234C268.159 145.019 267.555 145.961 266.799 146.354C266.044 146.746 265.44 146.432 265.44 145.647V133.91C265.477 133.125 266.082 132.183 266.799 131.79ZM262.758 133.91C263.513 133.518 264.118 133.832 264.118 134.617V146.354C264.118 147.139 263.513 148.081 262.758 148.474C262.002 148.866 261.398 148.552 261.398 147.767V136.03C261.398 135.245 262.002 134.303 262.758 133.91ZM270.879 129.671C271.634 129.278 272.239 129.592 272.239 130.377V142.114C272.239 142.899 271.634 143.842 270.879 144.234C270.123 144.627 269.519 144.313 269.519 143.528V131.79C269.519 131.005 270.123 130.063 270.879 129.671ZM258.678 136.03C259.434 135.637 260.038 135.951 260.038 136.736V148.474C260.038 149.259 259.434 150.201 258.678 150.593C257.923 150.986 257.318 150.672 257.318 149.887V138.15C257.318 137.365 257.923 136.422 258.678 136.03ZM254.599 138.15C255.354 137.757 255.959 138.071 255.959 138.856V150.593C255.959 151.379 255.354 152.321 254.599 152.713C253.843 153.106 253.239 152.792 253.239 152.007V140.269C253.239 139.484 253.843 138.542 254.599 138.15ZM250.519 140.269C251.275 139.877 251.879 140.191 251.879 140.976V152.713C251.879 153.498 251.275 154.44 250.519 154.833C249.764 155.226 249.16 154.911 249.16 154.126V142.389C249.16 141.604 249.764 140.662 250.519 140.269ZM246.44 142.389C247.195 141.997 247.8 142.311 247.8 143.096V154.833C247.8 155.618 247.195 156.56 246.44 156.953C245.684 157.345 245.08 157.031 245.08 156.246V144.509C245.118 143.724 245.722 142.782 246.44 142.389ZM274.958 127.551C275.714 127.158 276.318 127.472 276.318 128.257V139.995C276.318 140.78 275.714 141.722 274.958 142.114C274.203 142.507 273.598 142.193 273.598 141.408V129.671C273.598 128.885 274.203 127.943 274.958 127.551Z" fill="url(#paint10_linear_1861_42445)"/>
<path d="M196.58 54.4183C198.431 55.3604 199.942 54.6146 199.942 52.6911C199.942 50.7676 198.431 48.4123 196.58 47.4702C194.729 46.5281 193.218 47.2739 193.218 49.1974C193.218 51.1209 194.729 53.4369 196.58 54.4183Z" fill="#03CDFF"/>
<path d="M206.023 59.3253C207.874 60.2674 209.385 59.5216 209.385 57.5981C209.385 55.6746 207.874 53.3193 206.023 52.3772C204.172 51.4351 202.661 52.1809 202.661 54.1044C202.661 56.0279 204.172 58.3439 206.023 59.3253Z" fill="#B2C0F6"/>
<path d="M230.575 96.8535L224.343 93.6346V87.1968L230.575 90.4157V96.8535Z" fill="white"/>
<path d="M229.329 96.1073C229.405 96.1073 229.48 96.1073 229.556 96.0681C229.631 96.0681 229.707 96.0288 229.782 95.9896C229.858 95.9503 229.933 95.9111 229.971 95.8718C230.047 95.8326 230.084 95.7933 230.16 95.7148C230.387 95.5185 230.5 95.2045 230.5 94.8904C230.5 94.5764 230.387 94.2624 230.16 94.0661C230.122 94.0268 230.047 93.9483 229.971 93.9091C229.896 93.8698 229.858 93.8306 229.782 93.7913C229.707 93.7521 229.631 93.752 229.556 93.7128C229.405 93.6735 229.253 93.6735 229.102 93.7128C229.027 93.7128 228.951 93.7521 228.876 93.7913C228.8 93.8306 228.725 93.8698 228.687 93.9091C228.611 93.9483 228.574 93.9876 228.498 94.0661C228.271 94.3016 228.158 94.5764 228.158 94.8904C228.158 95.2045 228.271 95.5185 228.498 95.7148C228.536 95.754 228.611 95.8326 228.687 95.8718C228.762 95.9111 228.8 95.9503 228.876 95.9896C228.951 96.0288 229.027 96.0288 229.102 96.0681C229.178 96.1073 229.254 96.1073 229.329 96.1073Z" fill="#9EB4FB"/>
<path d="M225.589 94.184C225.665 94.184 225.74 94.184 225.816 94.1447C225.892 94.1447 225.967 94.1055 226.043 94.0662C226.118 94.027 226.156 93.9877 226.231 93.9485C226.307 93.9092 226.345 93.87 226.383 93.7915C226.609 93.5559 226.723 93.2811 226.723 92.9671C226.723 92.6531 226.609 92.339 226.383 92.1427C226.345 92.1035 226.269 92.025 226.231 91.9857C226.156 91.9465 226.118 91.9072 226.043 91.868C225.967 91.8287 225.892 91.8287 225.816 91.7895C225.665 91.7502 225.514 91.7502 225.363 91.7895C225.287 91.7895 225.212 91.8287 225.136 91.868C225.061 91.9072 224.985 91.9465 224.947 91.9857C224.872 92.025 224.834 92.0642 224.758 92.1427C224.532 92.3783 224.418 92.6531 224.418 92.9671C224.418 93.2811 224.532 93.5952 224.758 93.7915C224.796 93.8307 224.872 93.9092 224.947 93.9485C225.023 93.9877 225.061 94.027 225.136 94.0662C225.212 94.1055 225.287 94.1055 225.363 94.1447C225.438 94.1447 225.514 94.184 225.589 94.184Z" fill="#9EB4FB"/>
<path d="M225.589 90.2975C225.665 90.2975 225.74 90.2975 225.816 90.2582C225.891 90.2582 225.967 90.219 226.043 90.1797C226.118 90.1405 226.156 90.1012 226.231 90.0619C226.307 90.0227 226.345 89.9834 226.383 89.9049C226.42 89.8657 226.496 89.7872 226.534 89.7086C226.571 89.6301 226.609 89.5909 226.647 89.5124C226.685 89.4339 226.685 89.3554 226.722 89.2768C226.722 89.1983 226.76 89.1198 226.76 89.0413C226.76 88.7273 226.647 88.4132 226.42 88.217C226.383 88.1777 226.307 88.0992 226.269 88.0599C226.194 88.0207 226.156 87.9814 226.08 87.9422C226.005 87.9029 225.929 87.9029 225.854 87.8637C225.703 87.8244 225.552 87.8244 225.4 87.8637C225.325 87.8637 225.249 87.9029 225.174 87.9422C225.098 87.9814 225.023 88.0207 224.985 88.0599C224.909 88.0992 224.872 88.1385 224.796 88.217C224.569 88.4525 224.456 88.7273 224.456 89.0413C224.456 89.1198 224.456 89.1983 224.494 89.2768C224.494 89.3554 224.532 89.4339 224.569 89.5124C224.607 89.5909 224.645 89.6694 224.683 89.7086C224.721 89.7872 224.758 89.8264 224.834 89.9049C225.023 90.1797 225.287 90.2975 225.589 90.2975Z" fill="#9EB4FB"/>
<path d="M229.329 92.2211C229.405 92.2211 229.48 92.2211 229.556 92.1819C229.631 92.1819 229.707 92.1426 229.782 92.1033C229.858 92.0641 229.933 92.0248 229.971 91.9856C230.047 91.9463 230.084 91.9071 230.16 91.8286C230.387 91.6323 230.5 91.3182 230.5 91.0042C230.5 90.6902 230.387 90.3761 230.16 90.1799C230.122 90.1406 230.047 90.0621 229.971 90.0228C229.896 89.9836 229.858 89.9443 229.782 89.9051C229.707 89.8658 229.631 89.8658 229.556 89.8266C229.405 89.7873 229.253 89.7873 229.102 89.8266C229.027 89.8266 228.951 89.8658 228.876 89.9051C228.8 89.9443 228.725 89.9836 228.687 90.0228C228.611 90.0621 228.574 90.1013 228.498 90.1799C228.271 90.4154 228.158 90.6902 228.158 91.0042C228.158 91.3182 228.271 91.6323 228.498 91.8286C228.536 91.8678 228.611 91.9463 228.687 91.9856C228.762 92.0248 228.8 92.0641 228.876 92.1033C228.951 92.1426 229.027 92.1426 229.102 92.1819C229.178 92.2211 229.254 92.2211 229.329 92.2211Z" fill="#9EB4FB"/>
<path d="M230.575 87.7463L224.343 84.5274V78.0896L230.575 81.3085V87.7463Z" fill="#03CDFF"/>
<path d="M229.329 86.9608C229.404 86.9608 229.48 86.9608 229.556 86.9215C229.631 86.9215 229.707 86.8823 229.782 86.843C229.858 86.8038 229.933 86.7645 229.971 86.7253C230.047 86.686 230.084 86.6468 230.16 86.5683C230.198 86.529 230.273 86.4505 230.311 86.4112C230.349 86.3327 230.387 86.2935 230.424 86.215C230.462 86.1365 230.462 86.0579 230.5 85.9794C230.5 85.9009 230.538 85.8224 230.538 85.7439C230.538 85.6654 230.538 85.5869 230.5 85.5084C230.5 85.4299 230.462 85.3513 230.424 85.2728C230.387 85.1943 230.349 85.1551 230.311 85.0766C230.273 84.9981 230.235 84.9588 230.16 84.8803C230.122 84.841 230.047 84.7625 229.971 84.7233C229.895 84.684 229.858 84.6448 229.782 84.6055C229.707 84.5663 229.631 84.5663 229.556 84.527C229.404 84.4877 229.253 84.4877 229.102 84.527C229.027 84.527 228.951 84.5663 228.876 84.6055C228.8 84.6448 228.725 84.684 228.687 84.7233C228.611 84.7625 228.573 84.8018 228.498 84.8803C228.46 84.9195 228.385 84.9981 228.347 85.0766C228.309 85.1551 228.271 85.1943 228.233 85.2728C228.196 85.3513 228.196 85.4299 228.158 85.5084C228.158 85.5869 228.12 85.6654 228.12 85.7439C228.12 85.8224 228.12 85.9009 228.158 85.9794C228.158 86.0579 228.196 86.1365 228.233 86.215C228.271 86.2935 228.309 86.372 228.347 86.4112C228.385 86.4897 228.422 86.529 228.498 86.5683C228.536 86.6075 228.611 86.686 228.687 86.7253C228.762 86.7645 228.8 86.8038 228.876 86.843C228.951 86.8823 229.027 86.8823 229.102 86.9215C229.178 86.9608 229.253 86.9608 229.329 86.9608Z" fill="#5577DA"/>
<path d="M225.589 85.037C225.665 85.037 225.74 85.037 225.816 84.9977C225.891 84.9977 225.967 84.9585 226.043 84.9192C226.118 84.88 226.156 84.8407 226.231 84.8014C226.307 84.7622 226.345 84.7229 226.382 84.6444C226.609 84.4089 226.722 84.1341 226.722 83.8201C226.722 83.7416 226.722 83.6631 226.685 83.5845C226.685 83.506 226.647 83.4275 226.609 83.349C226.571 83.2705 226.534 83.192 226.496 83.1527C226.458 83.0742 226.42 83.035 226.345 82.9565C226.307 82.9172 226.231 82.8387 226.194 82.7994C226.118 82.7602 226.08 82.7209 226.005 82.6817C225.929 82.6424 225.854 82.6424 225.778 82.6032C225.627 82.5639 225.476 82.5639 225.325 82.6032C225.249 82.6032 225.174 82.6424 225.098 82.6817C225.023 82.7209 224.947 82.7602 224.909 82.7994C224.834 82.8387 224.796 82.878 224.72 82.9565C224.683 82.9957 224.607 83.0742 224.569 83.1527C224.532 83.2312 224.494 83.2705 224.456 83.349C224.418 83.4275 224.418 83.506 224.381 83.5845C224.381 83.6631 224.343 83.7416 224.343 83.8201C224.343 84.1341 224.456 84.4481 224.683 84.6444C224.72 84.6837 224.796 84.7622 224.872 84.8014C224.947 84.8407 224.985 84.88 225.06 84.9192C225.136 84.9585 225.212 84.9585 225.287 84.9977C225.438 85.037 225.514 85.037 225.589 85.037Z" fill="#5577DA"/>
<path d="M225.589 81.1903C225.665 81.1903 225.74 81.1903 225.816 81.151C225.891 81.151 225.967 81.1118 226.043 81.0725C226.118 81.0333 226.156 80.994 226.231 80.9548C226.307 80.9155 226.345 80.8763 226.383 80.7977C226.42 80.7585 226.496 80.68 226.534 80.6015C226.571 80.523 226.609 80.4837 226.647 80.4052C226.685 80.3267 226.685 80.2482 226.722 80.1697C226.722 80.0912 226.76 80.0126 226.76 79.9341C226.76 79.6201 226.647 79.3061 226.42 79.1098C226.383 79.0705 226.307 78.992 226.269 78.9528C226.194 78.9135 226.156 78.8743 226.08 78.835C226.005 78.7957 225.929 78.7957 225.854 78.7565C225.703 78.7172 225.552 78.7172 225.4 78.7565C225.325 78.7565 225.249 78.7957 225.174 78.835C225.098 78.8743 225.023 78.9135 224.985 78.9528C224.909 78.992 224.872 79.0313 224.796 79.1098C224.569 79.3061 224.456 79.6201 224.456 79.9341C224.456 80.2482 224.569 80.5622 224.796 80.7585C224.834 80.7977 224.909 80.8763 224.985 80.9155C225.061 80.9548 225.098 80.994 225.174 81.0333C225.249 81.0725 225.325 81.0725 225.4 81.1118C225.438 81.1903 225.514 81.1903 225.589 81.1903Z" fill="#5577DA"/>
<path d="M229.329 83.1136C229.404 83.1136 229.48 83.1136 229.556 83.0743C229.631 83.0743 229.707 83.0351 229.782 82.9958C229.858 82.9566 229.933 82.9173 229.971 82.8781C230.047 82.8388 230.084 82.7995 230.16 82.721C230.198 82.6818 230.273 82.6033 230.311 82.5248C230.349 82.4462 230.387 82.407 230.424 82.3285C230.462 82.25 230.462 82.1715 230.5 82.093C230.5 82.0144 230.538 81.9359 230.538 81.8574C230.538 81.7789 230.538 81.7004 230.5 81.6219C230.5 81.5434 230.462 81.4649 230.424 81.3864C230.387 81.3079 230.349 81.2293 230.311 81.1901C230.273 81.1116 230.235 81.0723 230.16 80.9938C230.122 80.9546 230.047 80.8761 229.971 80.8368C229.895 80.7975 229.858 80.7583 229.782 80.719C229.707 80.6798 229.631 80.6798 229.556 80.6405C229.404 80.6013 229.253 80.6013 229.102 80.6405C229.027 80.6405 228.951 80.6798 228.876 80.719C228.8 80.7583 228.725 80.7975 228.687 80.8368C228.611 80.8761 228.573 80.9153 228.498 80.9938C228.46 81.0331 228.385 81.1116 228.347 81.1901C228.309 81.2686 228.271 81.3079 228.233 81.3864C228.196 81.4649 228.196 81.5434 228.158 81.6219C228.158 81.7004 228.12 81.7789 228.12 81.8574C228.12 81.9359 228.12 82.0144 228.158 82.093C228.158 82.1715 228.196 82.25 228.233 82.3285C228.271 82.407 228.309 82.4855 228.347 82.5248C228.385 82.6033 228.422 82.6425 228.498 82.721C228.536 82.7603 228.611 82.8388 228.687 82.8781C228.762 82.9173 228.8 82.9566 228.876 82.9958C228.951 83.0351 229.027 83.0351 229.102 83.0743C229.178 83.1136 229.253 83.1136 229.329 83.1136Z" fill="#5577DA"/>
<path d="M230.575 78.5998L224.343 75.3809V68.9431L230.575 72.162V78.5998Z" fill="white"/>
<path d="M229.329 77.8537C229.405 77.8537 229.48 77.8537 229.556 77.8144C229.631 77.8144 229.707 77.7752 229.782 77.7359C229.858 77.6967 229.933 77.6574 229.971 77.6181C230.047 77.5789 230.084 77.5396 230.16 77.4611C230.387 77.2256 230.5 76.9508 230.5 76.6368C230.5 76.3227 230.387 76.0087 230.16 75.8124C230.122 75.7732 230.047 75.6947 229.971 75.6554C229.896 75.6161 229.858 75.5769 229.782 75.5376C229.707 75.4984 229.631 75.4984 229.556 75.4591C229.405 75.4199 229.253 75.4199 229.102 75.4591C229.027 75.4591 228.951 75.4984 228.876 75.5376C228.8 75.5769 228.725 75.6161 228.687 75.6554C228.611 75.6947 228.574 75.7339 228.498 75.8124C228.271 76.0087 228.158 76.3227 228.158 76.6368C228.158 76.9508 228.271 77.2649 228.498 77.4611C228.536 77.5004 228.611 77.5789 228.687 77.6181C228.762 77.6574 228.8 77.6967 228.876 77.7359C228.951 77.7752 229.027 77.7752 229.102 77.8144C229.178 77.8537 229.254 77.8537 229.329 77.8537Z" fill="#ED637F"/>
<path d="M225.589 75.9305C225.665 75.9305 225.74 75.9305 225.816 75.8913C225.891 75.8913 225.967 75.852 226.043 75.8128C226.118 75.7735 226.156 75.7343 226.231 75.695C226.307 75.6557 226.345 75.6165 226.383 75.538C226.42 75.4987 226.496 75.4202 226.534 75.3417C226.571 75.2632 226.609 75.2239 226.647 75.1454C226.685 75.0669 226.685 74.9884 226.722 74.9099C226.722 74.8314 226.76 74.7529 226.76 74.6744C226.76 74.3603 226.647 74.0463 226.42 73.85C226.383 73.8108 226.307 73.7323 226.269 73.693C226.194 73.6537 226.156 73.6145 226.08 73.5752C226.005 73.536 225.929 73.536 225.854 73.4967C225.703 73.4575 225.552 73.4575 225.4 73.4967C225.325 73.4967 225.249 73.536 225.174 73.5752C225.098 73.6145 225.023 73.6537 224.985 73.693C224.909 73.7323 224.872 73.7715 224.796 73.85C224.569 74.0856 224.456 74.3603 224.456 74.6744C224.456 74.9884 224.569 75.3025 224.796 75.4987C224.834 75.538 224.909 75.6165 224.985 75.6557C225.061 75.695 225.098 75.7343 225.174 75.7735C225.249 75.8128 225.325 75.8128 225.4 75.852C225.438 75.9305 225.514 75.9305 225.589 75.9305Z" fill="#ED637F"/>
<path d="M225.589 72.0834C225.665 72.0834 225.74 72.0834 225.816 72.0441C225.891 72.0441 225.967 72.0048 226.043 71.9656C226.118 71.9263 226.156 71.8871 226.231 71.8478C226.307 71.8086 226.345 71.7693 226.383 71.6908C226.42 71.6516 226.496 71.573 226.534 71.4945C226.571 71.416 226.609 71.3768 226.647 71.2983C226.685 71.2198 226.685 71.1412 226.722 71.0627C226.722 70.9842 226.76 70.9057 226.76 70.8272C226.76 70.5132 226.647 70.1991 226.42 70.0028C226.383 69.9636 226.307 69.8851 226.269 69.8458C226.194 69.8066 226.156 69.7673 226.08 69.7281C226.005 69.6888 225.929 69.6888 225.854 69.6496C225.703 69.6103 225.552 69.6103 225.4 69.6496C225.325 69.6496 225.249 69.6888 225.174 69.7281C225.098 69.7673 225.023 69.8066 224.985 69.8458C224.909 69.8851 224.872 69.9243 224.796 70.0028C224.569 70.2384 224.456 70.5132 224.456 70.8272C224.456 70.9057 224.456 70.9842 224.494 71.0627C224.494 71.1412 224.532 71.2198 224.569 71.2983C224.607 71.3768 224.645 71.4553 224.683 71.4945C224.721 71.573 224.758 71.6123 224.834 71.6908C225.023 71.9263 225.287 72.0834 225.589 72.0834Z" fill="#ED637F"/>
<path d="M229.329 74.0067C229.405 74.0067 229.48 74.0068 229.556 73.9675C229.631 73.9675 229.707 73.9282 229.782 73.889C229.858 73.8497 229.933 73.8105 229.971 73.7712C230.047 73.732 230.084 73.6927 230.16 73.6142C230.387 73.3787 230.5 73.1039 230.5 72.7899C230.5 72.4758 230.387 72.1618 230.16 71.9655C230.122 71.9262 230.047 71.8477 229.971 71.8085C229.896 71.7692 229.858 71.73 229.782 71.6907C229.707 71.6515 229.631 71.6515 229.556 71.6122C229.405 71.5729 229.253 71.5729 229.102 71.6122C229.027 71.6122 228.951 71.6515 228.876 71.6907C228.8 71.73 228.725 71.7692 228.687 71.8085C228.611 71.8477 228.574 71.887 228.498 71.9655C228.271 72.201 228.158 72.4758 228.158 72.7899C228.158 73.1039 228.271 73.4179 228.498 73.6142C228.536 73.6535 228.611 73.732 228.687 73.7712C228.762 73.8105 228.8 73.8497 228.876 73.889C228.951 73.9282 229.027 73.9282 229.102 73.9675C229.178 74.0068 229.254 74.0067 229.329 74.0067Z" fill="#ED637F"/>
<path d="M194.314 73.8495C193.407 73.3785 192.652 72.2008 192.652 71.2195C192.652 70.2773 193.407 69.8848 194.314 70.3559C195.22 70.8269 195.976 72.0046 195.976 72.9859C195.976 73.9281 195.22 74.3206 194.314 73.8495Z" fill="white"/>
<path d="M194.314 79.228C193.407 78.7569 192.652 77.5792 192.652 76.5979C192.652 75.6558 193.407 75.2632 194.314 75.7343C195.22 76.2053 195.976 77.383 195.976 78.3643C195.976 79.3457 195.22 79.7383 194.314 79.228Z" fill="#B2C0F6"/>
<path d="M193.261 83.7655C192.529 82.7915 192.402 81.6234 192.978 81.1565C193.553 80.6895 194.613 81.1006 195.345 82.0746C196.077 83.0486 196.203 84.2167 195.628 84.6836C195.052 85.1505 193.992 84.7395 193.261 83.7655Z" fill="#B2C0F6"/>
<path d="M215.278 86.0191V88.924L208.894 85.5873V82.7217L215.278 86.0191Z" fill="#B2C0F6"/>
<path d="M225.327 54.4578H226.08V69.6494H225.327V54.4578Z" fill="white"/>
<path d="M228.84 56.2637H229.593V71.4553H228.84V56.2637Z" fill="white"/>
<path d="M227.065 55.3604H227.818V70.552H227.065V55.3604Z" fill="white"/>
<path d="M209.992 86.3723H210.745V117.266H209.992V86.3723Z" fill="white"/>
<path d="M213.467 88.1782H214.22V119.072H213.467V88.1782Z" fill="white"/>
<path d="M211.729 87.2754H212.482V118.169H211.729V87.2754Z" fill="white"/>
<path d="M207.572 74.0467L214.069 70.6707L220.414 73.9682L220.754 73.2616L214.069 69.7679L207.572 73.1438L196.164 67.2163L195.824 67.9229L207.572 74.0467Z" fill="white"/>
<path d="M220.228 135.48H220.981V143.056H220.228V135.48Z" fill="white"/>
<path d="M223.741 137.286H224.494V144.862H223.741V137.286Z" fill="white"/>
<path d="M222.003 136.383H222.756V143.959H222.003V136.383Z" fill="white"/>
<path d="M220.228 149.886H220.981V158.091H220.228V149.886Z" fill="white"/>
<path d="M223.741 151.692H224.494V159.897H223.741V151.692Z" fill="white"/>
<path d="M222.003 150.789H222.756V158.994H222.003V150.789Z" fill="white"/>
<path d="M229.669 124.96L215.051 117.384V132.575L229.669 140.191V124.96Z" fill="white"/>
<path d="M219.788 130.895C217.952 128.451 217.623 125.53 219.054 124.369C220.484 123.208 223.132 124.248 224.968 126.692C226.804 129.135 227.133 132.057 225.702 133.218C224.272 134.379 221.624 133.339 219.788 130.895Z" fill="#5B78E6"/>
<path d="M205.872 135.244V115.499L207.836 116.52L208.176 115.813L205.117 114.243V133.988L202.095 132.418L201.755 133.125L205.872 135.244Z" fill="white"/>
<path d="M205.679 124.774L208.179 126.073L207.841 126.775L205.341 125.476L205.679 124.774Z" fill="white"/>
<path d="M205.665 119.667L208.165 120.966L207.827 121.668L205.327 120.369L205.665 119.667Z" fill="white"/>
<path d="M211.372 127.765L215.224 129.767L214.886 130.469L211.035 128.467L211.372 127.765Z" fill="white"/>
<path d="M211.377 117.49L215.228 119.492L214.89 120.194L211.039 118.193L211.377 117.49Z" fill="white"/>
<path d="M211.376 122.624L215.227 124.625L214.889 125.327L211.038 123.326L211.376 122.624Z" fill="white"/>
<path d="M225.552 149.533V152.438L219.168 149.141V146.236L225.552 149.533Z" fill="#B2C0F6"/>
<path d="M193.262 67.5538C192.53 66.5798 192.403 65.4117 192.979 64.9448C193.554 64.4779 194.614 64.8889 195.346 65.8629C196.078 66.8369 196.205 68.005 195.629 68.4719C195.054 68.9389 193.994 68.5278 193.262 67.5538Z" fill="#5B78E6"/>
<path d="M220.566 73.418L217.091 68.0401L213.389 66.0774L208.667 68.5504L190.31 59.0115V55.3215L206.854 63.9184L210.783 61.8771L224.343 68.943V75.3808L220.566 73.418Z" fill="#5B78E6"/>
<path d="M224.343 87.1965L218.111 90.4547V100.465L221.699 102.349V99.9544L219.433 96.3822V91.0828L224.343 93.6343V87.1965Z" fill="#5B78E6"/>
<path d="M233.446 98.3843V91.9072L230.575 90.4155V96.8533L233.446 98.3843Z" fill="#5B78E6"/>
<path d="M207.987 116.166C207.987 115.263 208.705 114.871 209.574 115.342C210.443 115.813 211.16 116.912 211.16 117.815C211.16 118.718 210.443 119.11 209.574 118.639C208.705 118.208 207.987 117.069 207.987 116.166Z" fill="#5B78E6"/>
<path d="M207.987 121.309C207.987 120.406 208.705 120.013 209.574 120.484C210.443 120.956 211.16 122.055 211.16 122.958C211.16 123.86 210.443 124.253 209.574 123.782C208.705 123.35 207.987 122.212 207.987 121.309Z" fill="#5B78E6"/>
<path d="M211.198 128.1C211.198 129.003 210.48 129.396 209.612 128.924C208.743 128.453 208.025 127.354 208.025 126.451C208.025 125.549 208.743 125.156 209.612 125.627C210.48 126.059 211.198 127.197 211.198 128.1Z" fill="#03CDFF"/>
<path d="M225.552 145.608V148.513L219.168 145.176V142.271L225.552 145.608Z" fill="#5B78E6"/>
<path d="M198.242 74.0853L205.381 77.8145L214.598 73.0254L224.343 78.0893V84.5271L215.655 80.0128L213.464 76.5583L203.87 81.5437L206.93 86.2543L206.892 106.431L204.021 104.94L201.604 106.196L198.204 104.429L198.242 74.0853Z" fill="#5B78E6"/>
<path d="M197.602 113.733H198.355V119.307H197.602V113.733Z" fill="white"/>
<path d="M199.564 114.557C199.564 115.46 198.846 115.853 197.978 115.382C197.109 114.911 196.391 113.812 196.391 112.909C196.391 112.006 197.109 111.613 197.978 112.084C198.846 112.555 199.564 113.655 199.564 114.557Z" fill="#03CDFF"/>
<path d="M197.978 119.307C196.202 118.404 194.805 119.15 194.805 120.956V131.005C194.805 132.85 196.24 135.048 197.978 135.951C199.753 136.854 201.151 136.108 201.151 134.303V124.253C201.151 122.448 199.753 120.21 197.978 119.307Z" fill="white"/>
<path fill-rule="evenodd" clip-rule="evenodd" d="M212.048 298.258L210.865 297.643C207.96 296.134 207.96 293.705 210.865 292.196L247.553 273.132C250.458 271.623 255.131 271.623 258.036 273.132L273.532 281.189C273.609 281.226 273.685 281.264 273.759 281.302L275.297 282.102L275.338 282.123L327.718 309.357C330.623 310.867 330.623 313.295 327.718 314.804L291.03 333.868C288.125 335.377 283.452 335.377 280.547 333.868L279.01 333.069L278.969 333.048L278.011 332.549C277.796 332.46 277.589 332.364 277.39 332.26L225.01 305.026C224.989 305.015 224.969 305.004 224.948 304.993L223.431 304.205C223.322 304.147 223.217 304.089 223.117 304.029L212.412 298.463C212.285 298.397 212.164 298.328 212.048 298.258Z" fill="url(#paint11_linear_1861_42445)"/>
<path d="M293.496 251.8L248.961 228.255C248.776 228.114 248.558 228.027 248.33 228.006C248.101 227.984 247.872 228.027 247.665 228.131L244.646 229.903L247.119 265.148C247.146 265.816 247.328 266.468 247.648 267.048C247.969 267.628 248.419 268.119 248.961 268.48L291.842 297.196L294.878 295.424C295.057 295.282 295.198 295.096 295.287 294.882C295.377 294.667 295.412 294.433 295.389 294.201V255.204C295.363 254.519 295.177 253.852 294.848 253.259C294.518 252.666 294.054 252.165 293.496 251.8Z" fill="#D5DAF2"/>
<path d="M290.478 253.609L245.874 229.897C244.868 229.295 244.049 229.791 244.049 230.996V269.993C244.083 270.653 244.265 271.296 244.582 271.869C244.899 272.442 245.342 272.929 245.874 273.29L290.478 297.002C291.484 297.604 292.303 297.126 292.303 295.903V256.906C292.267 256.246 292.083 255.605 291.766 255.032C291.449 254.46 291.008 253.972 290.478 253.609Z" fill="#E3E6F9"/>
<path d="M246.454 270.959V233.267L289.898 256.161V293.811L246.454 270.959Z" fill="url(#paint12_linear_1861_42445)"/>
<path d="M291.21 298.647L245.84 274.398C245.271 274.101 244.643 273.946 244.006 273.946C243.369 273.946 242.741 274.101 242.173 274.398L208.686 290.779V294.914C208.711 295.149 208.792 295.373 208.924 295.565C209.055 295.758 209.232 295.912 209.437 296.013L254.249 320.009C254.815 320.307 255.44 320.462 256.074 320.462C256.708 320.462 257.333 320.307 257.899 320.009L290.443 303.123C290.653 303.027 290.835 302.875 290.97 302.682C291.105 302.488 291.188 302.262 291.21 302.024V298.647Z" fill="#D8DCF7"/>
<path d="M290.443 297.037L245.52 273.046C244.951 272.749 244.323 272.594 243.686 272.594C243.049 272.594 242.421 272.749 241.853 273.046L209.478 289.814C208.472 290.434 208.472 291.409 209.478 292.012L254.249 315.988C254.815 316.286 255.44 316.441 256.074 316.441C256.708 316.441 257.333 316.286 257.899 315.988L290.443 299.235C290.66 299.153 290.847 299.003 290.98 298.807C291.112 298.61 291.183 298.376 291.183 298.136C291.183 297.896 291.112 297.662 290.98 297.466C290.847 297.269 290.66 297.119 290.443 297.037Z" fill="#F5F5FD"/>
<g style="mix-blend-mode:multiply">
<path d="M223.841 284.677L242.952 274.785L287.509 298.346L268.472 308.238L223.841 284.677Z" fill="#D5D5F9"/>
</g>
<g style="mix-blend-mode:multiply">
<path d="M242.728 307.148L227.101 298.813L236.507 293.828L252.433 302.163L242.728 307.148Z" fill="#D5D5F9"/>
</g>
<path d="M282.425 273.946L251.639 257.918C251.833 257.233 252.931 255.886 255.771 255.983C259.321 256.104 261.183 260.338 265.024 262.938C268.865 265.539 269.854 261.85 274.743 262.938C278.654 263.809 281.494 270.639 282.425 273.946Z" fill="#5FDEFF"/>
<path d="M277.256 196.452L279.208 196.396L284.181 200.564C284.93 201.176 284.261 202.732 283.219 202.259L278.379 200.036C277.202 199.508 277.282 197.73 277.256 196.452Z" fill="#8EAAE8"/>
<path d="M270.17 166.968L279.395 175.221L279.796 175.582C280.411 176.138 280.759 176.944 280.759 177.75L280.812 195.979C280.812 197.202 279.876 198.202 278.7 198.202C277.603 198.202 276.721 197.368 276.587 196.285L274.341 178.194L275.705 180.723L265.116 174.526C262.977 173.276 262.228 170.441 263.431 168.218C264.635 165.995 267.362 165.217 269.501 166.467C269.715 166.578 269.956 166.773 270.17 166.968Z" fill="#00438D"/>
<path d="M269.501 201.23L272.015 206.677C272.496 207.677 270.517 208.428 269.688 207.427L266.988 204.148C266.506 203.537 266.373 202.286 266.373 201.23H269.501Z" fill="#8EAAE8"/>
<path d="M265.223 172.386L267.763 178.639L268.084 179.444C268.218 179.75 268.351 180.084 268.458 180.417C268.699 181.056 268.886 181.723 269.073 182.39C269.421 183.724 269.635 185.058 269.715 186.392L269.742 186.892V187.336L269.769 188.17L269.795 189.865L269.876 193.255L270.036 200.036C270.063 201.259 269.127 202.287 267.95 202.315C266.908 202.342 266.025 201.564 265.811 200.536L264.528 193.895L263.886 190.588L263.565 188.92L263.405 188.087L263.324 187.698L263.244 187.364C263.03 186.475 262.736 185.641 262.362 184.835C262.175 184.446 261.987 184.057 261.747 183.668C261.64 183.474 261.533 183.307 261.399 183.113L260.971 182.418L257.415 176.749C256.078 174.609 256.666 171.747 258.725 170.358C260.784 168.968 263.538 169.579 264.875 171.719C264.982 171.886 265.116 172.136 265.223 172.386Z" fill="#00438D"/>
<path d="M274.127 159.52C273.967 159.798 273.807 160.076 273.566 160.381C273.512 160.465 273.432 160.548 273.352 160.632C273.272 160.715 273.192 160.798 273.085 160.882C272.871 161.048 272.577 161.215 272.202 161.298C271.801 161.382 271.373 161.298 271.052 161.16C270.892 161.076 270.785 160.993 270.651 160.909C270.544 160.826 270.464 160.743 270.384 160.659C270.063 160.326 269.903 160.048 269.742 159.77C269.421 159.214 269.234 158.714 269.02 158.186C268.833 157.686 268.646 157.186 268.512 156.686C267.87 154.713 267.389 152.74 266.828 150.767C266.507 149.627 267.122 148.46 268.191 148.127C269.288 147.793 270.411 148.432 270.731 149.572C270.785 149.766 270.812 149.961 270.812 150.155C270.838 151.128 270.892 152.1 270.972 153.073C271.052 154.046 271.186 154.99 271.347 155.907C271.427 156.38 271.534 156.824 271.641 157.241C271.748 157.658 271.908 158.075 272.042 158.408C272.122 158.547 272.202 158.686 272.229 158.714C272.202 158.686 272.202 158.686 272.149 158.659C272.122 158.659 272.095 158.631 272.068 158.631C272.042 158.631 271.988 158.603 271.962 158.603C271.881 158.603 271.801 158.575 271.721 158.603C271.56 158.631 271.507 158.686 271.48 158.714C271.48 158.686 271.48 158.686 271.507 158.659C271.56 158.575 271.641 158.436 271.721 158.269C272.015 157.547 272.817 157.214 273.512 157.491C274.208 157.797 274.529 158.603 274.261 159.353C274.234 159.409 274.208 159.464 274.181 159.52H274.127Z" fill="#3176FF"/>
<path d="M269.796 163.05C269.822 167.246 269.742 171.525 269.742 171.525C269.555 173.415 257.576 176.527 256.693 174.554C256.479 171.803 256.586 169.108 257.121 166.412L269.796 163.05Z" fill="#00438D"/>
<path d="M254.26 151.183C256.88 148.821 263.726 147.265 267.095 146.848C268.993 146.626 270.651 148.099 270.758 150.072C271.052 155.463 270.036 163.938 270.036 163.938C270.036 166.106 258.084 168.607 257.041 166.328C257.041 160.27 255.757 158.353 253.083 153.907C253.057 152.879 253.485 151.878 254.26 151.183Z" fill="#3176FF"/>
<path d="M263.913 146.348L263.432 149.85C262.175 149.85 260.758 149.21 260.838 148.099L261.453 144.625L263.913 146.348Z" fill="#F3ABC7"/>
<path d="M265.41 146.542C265.277 147.126 264.234 147.793 263.325 147.07L261.48 144.625C261.48 144.625 260.651 140.595 263.405 140.595C264.207 140.595 265.41 141.235 265.838 141.929C266.426 143.43 265.785 145.069 265.41 146.542Z" fill="#F3ABC7"/>
<path d="M260.918 142.402C260.918 140.262 263.19 139.651 264.447 140.179C265.249 140.54 266.479 141.624 267.763 140.846C268.111 141.93 267.335 142.624 266.132 143.013C265.035 143.347 263.859 143.097 263.003 142.319L262.977 142.291L262.388 142.208C262.923 142.819 263.03 143.847 262.843 145.098L264.207 145.82L265.677 145.375L265.517 147.071C265.463 147.46 265.142 147.765 264.768 147.793L264.287 147.821C264.1 147.821 263.886 147.765 263.752 147.626C263.752 147.626 262.148 146.57 262.174 145.987L262.281 144.014C262.148 143.764 261.987 143.764 261.88 143.875C261.773 144.014 261.105 146.626 261.105 146.626C261.105 146.626 260.918 143.263 260.918 142.402Z" fill="#00438D"/>
<path d="M271.534 163.521L267.068 164.633C266.694 164.716 266.426 164.494 266.48 164.133L267.87 156.407C267.951 156.018 268.298 155.657 268.699 155.546L273.165 154.434C273.539 154.351 273.806 154.573 273.753 154.935L272.363 162.66C272.282 163.049 271.935 163.438 271.534 163.521Z" fill="#00438D"/>
<path d="M274.181 158.409C274.261 159.326 273.485 159.854 272.844 160.02L272.951 158.548C272.763 158.242 272.683 157.853 272.737 157.492L272.897 156.102L273.619 156.464C274.341 156.88 274.475 157.464 274.181 158.409Z" fill="#F3ABC7"/>
<path d="M267.175 162.855L265.865 163.605C265.41 163.827 264.982 164.077 264.528 164.3C263.645 164.772 262.71 165.189 261.72 165.55C260.758 165.911 259.715 166.189 258.592 166.328C258.324 166.356 258.03 166.356 257.736 166.384C257.602 166.384 257.442 166.384 257.281 166.356C257.121 166.356 256.987 166.328 256.827 166.328C256.506 166.273 256.212 166.245 255.891 166.106C255.731 166.05 255.57 166.023 255.436 165.939C255.276 165.856 255.142 165.8 254.982 165.717C254.394 165.383 253.832 164.911 253.404 164.355C253.003 163.8 252.682 163.188 252.468 162.577C252.415 162.41 252.361 162.271 252.335 162.132C252.308 161.993 252.254 161.827 252.228 161.688L252.147 161.243C252.121 161.104 252.094 160.937 252.094 160.798C252.067 160.493 252.041 160.215 252.014 159.909L251.987 159.464V159.048C252.014 157.908 252.174 156.797 252.388 155.741C252.602 154.657 252.869 153.629 253.19 152.601C253.538 151.489 254.661 150.878 255.731 151.211C256.8 151.572 257.388 152.74 257.068 153.851C257.041 153.935 257.014 154.046 256.961 154.129V154.157C256.185 155.824 255.597 157.575 255.41 159.27C255.329 160.104 255.303 160.937 255.49 161.604C255.57 161.938 255.704 162.216 255.838 162.466C255.998 162.716 256.185 162.883 256.399 163.049C256.453 163.077 256.533 163.133 256.586 163.16C256.64 163.188 256.72 163.216 256.8 163.244C256.934 163.327 257.094 163.327 257.255 163.383C257.415 163.41 257.602 163.438 257.79 163.438C257.977 163.438 258.164 163.466 258.351 163.438C259.153 163.41 259.982 163.216 260.811 162.91C262.496 162.327 264.154 161.437 265.704 160.409H265.731C266.373 159.992 267.202 160.187 267.603 160.854C268.004 161.521 267.817 162.382 267.175 162.799C267.229 162.827 267.202 162.855 267.175 162.855Z" fill="#3176FF"/>
<path d="M267.122 158.381C267.175 158.242 267.336 158.186 267.469 158.242C267.603 158.298 267.683 158.464 267.63 158.603L267.362 159.492L267.87 158.909L268.86 158.242C268.993 158.159 269.154 158.186 269.207 158.325C269.288 158.436 269.261 158.603 269.154 158.687L268.352 159.326L268.245 159.492L268.806 159.242L269.047 161.049L268.726 161.41C268.726 161.41 268.138 162.049 267.63 162.521C267.336 162.799 266.881 162.772 266.614 162.466L265.838 161.604C265.624 161.354 265.597 160.993 265.758 160.687L267.122 158.381Z" fill="#F3ABC7"/>
<path d="M191.737 255.492C198.672 251.928 206.827 251.928 213.762 255.492C213.8 255.492 213.838 255.531 213.876 255.531C215.705 256.482 217.381 257.472 218.906 258.541C220.811 259.848 220.811 262.778 218.906 264.085C217.381 265.114 215.705 266.144 213.876 267.094C213.838 267.094 213.8 267.134 213.762 267.134C206.827 270.698 198.672 270.698 191.737 267.134C191.699 267.134 191.661 267.094 191.623 267.094C189.794 266.144 188.117 265.154 186.593 264.085C184.688 262.778 184.688 259.848 186.593 258.541C188.117 257.511 189.794 256.482 191.623 255.531C191.661 255.531 191.699 255.492 191.737 255.492Z" fill="#0165D3"/>
<path d="M205.417 265.074C203.931 266.223 200.844 268.163 199.358 268.678C197.834 269.193 197.072 267.925 197.987 266.777L203.397 260.322L205.303 262.461C205.988 263.213 206.369 264.322 205.417 265.074Z" fill="#1584FF"/>
<path d="M208.694 260.639C207.055 260.084 204.426 258.342 203.321 257.312C202.178 256.204 202.978 254.976 204.426 255.214L210.713 256.045V259.213C210.713 260.203 209.837 261.035 208.694 260.639Z" fill="#1584FF"/>
<path d="M215.057 209.041L215.514 212.209C215.553 212.407 215.705 212.565 215.934 212.565C216.162 212.565 216.315 212.407 216.315 212.169L216.429 209.635L215.057 209.041Z" fill="#F3ABC7"/>
<path d="M216.619 211.061L216.429 213.199C216.391 213.476 216.505 213.714 216.657 213.912L217.53 214.902L216.998 211.417L216.619 211.061Z" fill="#F3ABC7"/>
<path d="M217.153 212.328L217.534 214.902C217.572 215.1 217.762 215.258 217.953 215.219C218.105 215.179 218.22 215.06 218.258 214.902L218.715 212.13L218.22 208.764C218.105 207.932 217.343 207.378 216.581 207.497L216.276 207.536C215.552 207.655 215.019 208.289 215.057 209.081L217.153 212.328Z" fill="#F3ABC7"/>
<path d="M212.733 184.371C214.219 185.915 215.476 187.657 216.505 189.519C217.496 191.38 218.22 193.36 218.677 195.379C219.134 197.399 219.325 199.458 219.325 201.478C219.325 203.497 219.134 205.517 218.753 207.497C218.563 208.685 217.458 209.437 216.353 209.239C215.21 209.041 214.486 207.893 214.676 206.744C214.676 206.705 214.714 206.626 214.714 206.586C215.133 204.962 215.286 203.26 215.21 201.557C215.133 199.894 214.829 198.23 214.295 196.686C213.762 195.142 213 193.716 212.085 192.449C211.133 191.182 210.027 190.152 208.77 189.321C207.322 188.37 206.865 186.39 207.779 184.846C208.694 183.341 210.599 182.866 212.085 183.816C212.276 183.935 212.466 184.093 212.619 184.252L212.733 184.371Z" fill="#3176FF"/>
<path d="M204.883 211.219C203.435 215.021 202.33 218.901 201.606 222.901C200.882 226.9 200.539 231.019 200.616 235.137C200.73 243.453 202.292 251.848 204.464 260.164C204.807 261.55 204.045 262.936 202.75 263.332C201.53 263.688 200.235 262.976 199.777 261.788C198.253 257.63 196.882 253.393 195.738 249.076C194.595 244.72 193.719 240.246 193.223 235.652C192.728 231.058 192.652 226.386 193.033 221.713C193.414 217.04 194.29 212.407 195.51 207.932C196.272 205.2 199.015 203.616 201.645 204.408C204.274 205.2 205.798 208.051 205.036 210.783C204.998 210.902 204.96 211.061 204.883 211.219Z" fill="#0052AC"/>
<path d="M213.343 205.199L210.866 255.214C210.79 256.639 209.646 257.708 208.275 257.629C207.017 257.55 205.988 256.481 205.95 255.214L203.474 205.199C203.321 202.348 205.417 199.933 208.16 199.814C210.904 199.655 213.228 201.833 213.343 204.685C213.343 204.843 213.343 205.041 213.343 205.199Z" fill="#0052AC"/>
<path d="M207.703 211.734L201.111 213.635C197.948 214.545 195.395 212.645 195.395 209.358C195.395 206.071 197.948 202.666 201.111 201.755L207.703 199.854C210.866 198.943 213.419 200.844 213.419 204.131C213.419 207.417 210.866 210.823 207.703 211.734Z" fill="#0052AC"/>
<path d="M200.959 180.291C201.149 182.826 204.464 180.687 204.807 180.371C205.874 179.341 207.741 175.935 205.265 174.51C204.426 174.035 202.597 173.955 201.873 174.629C200.844 175.579 200.844 178.747 200.959 180.291Z" fill="#F3ABC7"/>
<path d="M201.873 181.519L206.484 176.886L206.712 186.231L202.559 186.033L203.169 181.717L201.873 181.519Z" fill="#F3ABC7"/>
<path d="M212.581 201.24C210.294 196.923 213.19 188.449 212.657 184.964C212.542 184.212 212.009 183.657 211.285 183.539C207.97 182.984 200.844 185.123 198.329 189.003C197.072 193.32 197.377 200.844 195.929 206.783C203.054 209.159 212.581 203.893 212.581 201.24Z" fill="#3176FF"/>
<path d="M182.707 170.51C182.478 170.55 182.326 170.748 182.364 170.985L182.516 172.332L181.945 171.342L180.687 170.114C180.535 169.956 180.306 169.956 180.154 170.154C180.001 170.312 180.001 170.55 180.154 170.708L181.144 171.857L181.259 172.134L180.039 171.698C179.849 171.579 179.582 171.659 179.468 171.857L178.896 172.926C178.82 173.084 178.858 173.282 178.972 173.401L179.544 174.035L180.039 174.866L181.106 176.45C181.411 176.925 182.059 177.044 182.516 176.688L183.431 176.015L183.659 175.817C184.269 175.341 184.459 174.787 184.117 173.797L183.164 170.708C183.088 170.589 182.897 170.471 182.707 170.51Z" fill="#F3ABC7"/>
<path d="M199.701 192.765C197.796 192.211 195.891 191.617 194.024 190.825C192.156 190.033 190.289 189.122 188.536 187.855C186.822 186.627 185.221 185.043 184.002 183.182C182.783 181.361 181.944 179.341 181.297 177.361C180.916 176.213 181.525 175.025 182.592 174.629C183.659 174.233 184.84 174.866 185.221 175.975C185.221 176.015 185.26 176.094 185.26 176.134C185.679 177.836 186.365 179.42 187.317 180.727C187.546 181.044 187.813 181.361 188.079 181.677C188.384 181.955 188.651 182.232 188.956 182.509C189.565 183.024 190.213 183.499 190.937 183.895C192.347 184.687 193.947 185.281 195.586 185.677C197.262 186.073 198.977 186.311 200.73 186.429H200.768C202.483 186.548 203.778 188.093 203.664 189.875C203.55 191.657 202.064 193.003 200.349 192.884C200.12 192.884 199.892 192.845 199.701 192.765Z" fill="#3176FF"/>
<path d="M219.934 183.459C219.134 182.746 218.029 182.548 217 182.509C215.934 182.469 214.905 182.588 213.876 182.39C212.847 182.192 211.78 181.638 211.399 180.608C211.018 179.737 211.209 178.668 210.904 177.757C210.523 176.609 209.418 175.856 208.275 175.619C208.16 175.579 208.046 175.579 207.932 175.539C207.855 174.906 207.589 174.272 207.17 173.757C205.607 171.936 203.626 171.421 201.53 171.342C198.444 171.223 196.234 173.401 201.759 175.737L202.978 175.975C201.492 179.024 205.95 178.272 206.026 180.054C206.103 181.994 198.558 184.528 200.12 189.36C201.644 194.191 211.018 194.626 213.8 193.914C216.581 193.201 219.211 191.458 220.506 188.805C220.925 187.934 221.23 186.984 221.192 185.994C221.039 185.083 220.658 184.093 219.934 183.459Z" fill="#00438D"/>
<path d="M258.256 341.329L247.124 335.544C246.29 335.111 245.546 335.08 245.01 335.358L241.706 337.091C241.646 337.122 241.617 337.122 241.557 337.153C241.051 337.462 240.753 338.019 240.753 338.854V350.424C240.753 352.125 242.093 354.198 243.73 355.064L254.863 360.849C255.696 361.282 256.441 361.313 256.976 361.034L260.281 359.302C260.34 359.271 260.37 359.271 260.4 359.24C260.906 358.931 261.203 358.374 261.203 357.539V345.969C261.203 344.237 259.894 342.164 258.256 341.329Z" fill="url(#paint13_linear_1861_42445)"/>
<path d="M254.863 360.818L243.73 355.033C242.093 354.167 240.753 352.094 240.753 350.393V338.823C240.753 337.122 242.093 336.41 243.73 337.276L254.863 343.061C256.5 343.927 257.84 346 257.84 347.701V359.271C257.84 360.973 256.5 361.684 254.863 360.818Z" fill="url(#paint14_linear_1861_42445)"/>
<path d="M232.925 328.151L221.792 322.366C220.959 321.933 220.214 321.902 219.679 322.18L216.374 323.913C216.315 323.944 216.285 323.944 216.226 323.974C215.72 324.284 215.422 324.841 215.422 325.676V337.246C215.422 338.947 216.761 341.02 218.399 341.886L229.531 347.671C230.365 348.104 231.109 348.135 231.645 347.856L234.949 346.124C235.008 346.093 235.038 346.093 235.068 346.062C235.574 345.753 235.872 345.196 235.872 344.361V332.791C235.901 331.09 234.592 329.017 232.925 328.151Z" fill="url(#paint15_linear_1861_42445)"/>
<path d="M229.561 347.67L218.428 341.885C216.791 341.019 215.451 338.946 215.451 337.245V325.675C215.451 323.974 216.791 323.262 218.428 324.129L229.561 329.913C231.198 330.78 232.538 332.852 232.538 334.554V346.123C232.538 347.825 231.198 348.505 229.561 347.67Z" fill="url(#paint16_linear_1861_42445)"/>
<g style="mix-blend-mode:color">
<rect x="0.841919" width="321.128" height="380" fill="#017AFF"/>
</g>
</g>
</g>
<defs>
<linearGradient id="paint0_linear_1861_42445" x1="314.813" y1="289.714" x2="149.589" y2="289.714" gradientUnits="userSpaceOnUse">
<stop stop-color="#E1E3F8"/>
<stop offset="0.5" stop-color="#D3D7F2"/>
<stop offset="1" stop-color="#F2F3FF"/>
</linearGradient>
<linearGradient id="paint1_linear_1861_42445" x1="316.467" y1="150.484" x2="150.959" y2="150.484" gradientUnits="userSpaceOnUse">
<stop stop-color="#E8EAFB"/>
<stop offset="1" stop-color="white"/>
</linearGradient>
<linearGradient id="paint2_linear_1861_42445" x1="314.813" y1="289.714" x2="149.589" y2="289.714" gradientUnits="userSpaceOnUse">
<stop stop-color="#E1E3F8"/>
<stop offset="0.5" stop-color="#D3D7F2"/>
<stop offset="1" stop-color="#F2F3FF"/>
</linearGradient>
<linearGradient id="paint3_linear_1861_42445" x1="316.467" y1="150.484" x2="150.959" y2="150.484" gradientUnits="userSpaceOnUse">
<stop stop-color="#E8EAFB"/>
<stop offset="1" stop-color="white"/>
</linearGradient>
<linearGradient id="paint4_linear_1861_42445" x1="264.582" y1="158.154" x2="194.475" y2="24.6435" gradientUnits="userSpaceOnUse">
<stop stop-color="#697BE0"/>
<stop offset="0.5769" stop-color="#7B94F8"/>
<stop offset="0.7279" stop-color="#B0C0FF"/>
<stop offset="1" stop-color="#BBC9FF"/>
</linearGradient>
<linearGradient id="paint5_linear_1861_42445" x1="231.087" y1="58.4428" x2="186.117" y2="143.37" gradientUnits="userSpaceOnUse">
<stop stop-color="#C5D0F9"/>
<stop offset="1" stop-color="#E3E5F9"/>
</linearGradient>
<linearGradient id="paint6_linear_1861_42445" x1="227.551" y1="169.018" x2="164.4" y2="48.7542" gradientUnits="userSpaceOnUse">
<stop stop-color="#90A4F2"/>
<stop offset="0.2721" stop-color="#AAB9F3"/>
<stop offset="0.4231" stop-color="#697DCF"/>
<stop offset="1" stop-color="#7D91E4"/>
</linearGradient>
<linearGradient id="paint7_linear_1861_42445" x1="275.784" y1="79.2556" x2="243.862" y2="79.2556" gradientUnits="userSpaceOnUse">
<stop stop-color="#1487FB"/>
<stop offset="1" stop-color="#22D2FD"/>
</linearGradient>
<linearGradient id="paint8_linear_1861_42445" x1="275.784" y1="79.2556" x2="243.862" y2="79.2556" gradientUnits="userSpaceOnUse">
<stop stop-color="#1487FB"/>
<stop offset="1" stop-color="#22D2FD"/>
</linearGradient>
<linearGradient id="paint9_linear_1861_42445" x1="274.452" y1="61.4312" x2="253.965" y2="100.122" gradientUnits="userSpaceOnUse">
<stop stop-color="#C5D0F9"/>
<stop offset="1" stop-color="#E3E5F9"/>
</linearGradient>
<linearGradient id="paint10_linear_1861_42445" x1="269.415" y1="124.492" x2="250.826" y2="159.597" gradientUnits="userSpaceOnUse">
<stop stop-color="#C5D0F9"/>
<stop offset="1" stop-color="#E3E5F9"/>
</linearGradient>
<linearGradient id="paint11_linear_1861_42445" x1="285.045" y1="303.637" x2="311.323" y2="325.948" gradientUnits="userSpaceOnUse">
<stop stop-color="#0064D3"/>
<stop offset="1" stop-color="#017AFF" stop-opacity="0"/>
</linearGradient>
<linearGradient id="paint12_linear_1861_42445" x1="268.176" y1="233.267" x2="268.176" y2="293.811" gradientUnits="userSpaceOnUse">
<stop stop-color="#4B58DA"/>
<stop offset="0.527895" stop-color="#3640B3"/>
<stop offset="1" stop-color="#4C59DA"/>
</linearGradient>
<linearGradient id="paint13_linear_1861_42445" x1="259.345" y1="358.835" x2="241.899" y2="338.232" gradientUnits="userSpaceOnUse">
<stop stop-color="#2962D4"/>
<stop offset="1" stop-color="#3176FF"/>
</linearGradient>
<linearGradient id="paint14_linear_1861_42445" x1="249.297" y1="358.093" x2="249.297" y2="339.501" gradientUnits="userSpaceOnUse">
<stop stop-color="#3176FF"/>
<stop offset="1" stop-color="#66B3FF"/>
</linearGradient>
<linearGradient id="paint15_linear_1861_42445" x1="220.19" y1="324.533" x2="232.272" y2="345.908" gradientUnits="userSpaceOnUse">
<stop stop-color="#E1E3F8"/>
<stop offset="1" stop-color="#D3D7F2"/>
</linearGradient>
<linearGradient id="paint16_linear_1861_42445" x1="223.988" y1="347.865" x2="223.988" y2="326.571" gradientUnits="userSpaceOnUse">
<stop stop-color="#E8EAFB"/>
<stop offset="1" stop-color="white"/>
</linearGradient>
</defs>
</svg>
