<svg width="96" height="96" viewBox="0 0 96 96" fill="none" xmlns="http://www.w3.org/2000/svg">
<path d="M41.8397 91.7621L5.28098 70.4167C4.03393 69.6886 4.02869 67.8884 5.27147 67.153L44.752 43.7918C48.266 41.7126 52.6482 41.7749 56.1015 43.9534L90.8879 65.8973C92.0832 66.6514 92.0606 68.4019 90.8461 69.1248L52.8946 91.7154C49.4924 93.7405 45.2589 93.7584 41.8397 91.7621Z" stroke="#00193F"/>
<path d="M41.9531 86.8769L13.4084 70.2214C12.1607 69.4934 12.1555 67.6925 13.3989 66.9572L44.3127 48.6769C47.8254 46.5998 52.2048 46.6621 55.6569 48.8384L82.7608 65.925C83.9568 66.6789 83.9341 68.4302 82.7191 69.153L53.0026 86.8302C49.6018 88.8532 45.3709 88.8711 41.9531 86.8769Z" fill="#00193F"/>
<path fill-rule="evenodd" clip-rule="evenodd" d="M20.3386 69.1995L42.1114 81.7052C45.4964 83.6494 49.6634 83.632 53.0321 81.6594L75.7908 68.3326C76.3937 67.9795 76.7065 67.3744 76.7262 66.7605L76.7282 66.7605V62.7318L72.1292 62.7927L55.2194 52.2991C51.7983 50.1761 47.4847 50.1151 44.005 52.1406L24.6254 63.4214L19.3844 63.4908V67.5865L19.3887 67.5864C19.398 68.2158 19.7149 68.8412 20.3386 69.1995Z" fill="#9CBDEE"/>
<path d="M42.1114 77.7052L20.3386 65.1996C19.076 64.4744 19.0708 62.6548 20.3291 61.9223L44.005 48.1407C47.4847 46.1152 51.7983 46.1762 55.2194 48.2992L75.8324 61.0909C77.0436 61.8425 77.0208 63.6124 75.7908 64.3327L53.0321 77.6595C49.6634 79.632 45.4964 79.6495 42.1114 77.7052Z" fill="#ECF4FF"/>
<ellipse opacity="0.4" cx="46.5781" cy="58.4464" rx="13.6721" ry="9.62213" transform="rotate(30 46.5781 58.4464)" fill="url(#paint0_radial_1780_24621)"/>
<path opacity="0.2" d="M20.2823 65.2093L42.0551 77.715C45.4402 79.6593 49.6072 79.6418 52.9758 77.6693L75.7346 64.3424C76.3374 63.9894 76.6503 63.3842 76.67 62.7704L76.6719 62.7704V58.7417V12.3512L19.3324 12.351L19.3281 59.5006V63.5963L19.3324 63.5963C19.3417 64.2257 19.6586 64.8511 20.2823 65.2093Z" fill="url(#paint1_linear_1780_24621)"/>
<circle cx="66.1958" cy="61.1987" r="1" fill="#017AFF"/>
<circle cx="30.1958" cy="60.1987" r="1" fill="#017AFF"/>
<circle cx="30.1958" cy="42.1987" r="1" fill="#017AFF"/>
<circle cx="37.1958" cy="31.1987" r="1" fill="#017AFF"/>
<circle cx="31.1958" cy="30.1987" r="1" fill="#017AFF"/>
<circle cx="41.1958" cy="20.1987" r="1" fill="#017AFF"/>
<circle cx="59.1958" cy="21.1987" r="1" fill="#017AFF"/>
<circle cx="72.1958" cy="45.1987" r="1" fill="#017AFF"/>
<circle cx="70.6958" cy="54.6987" r="0.5" fill="#017AFF"/>
<circle cx="36.6958" cy="39.6987" r="0.5" fill="#017AFF"/>
<circle cx="49.6958" cy="13.6987" r="0.5" fill="#017AFF"/>
<circle cx="34.6958" cy="16.6987" r="0.5" fill="#017AFF"/>
<circle cx="63.6958" cy="22.6987" r="0.5" fill="#017AFF"/>
<circle cx="70.6958" cy="37.6987" r="0.5" fill="#017AFF"/>
<circle cx="25.6958" cy="47.6987" r="0.5" fill="#017AFF"/>
<circle cx="34.6958" cy="64.6987" r="0.5" fill="#017AFF"/>
<path fill-rule="evenodd" clip-rule="evenodd" d="M33.5123 50.8461L46.2171 58.9981C47.0314 59.4764 48.0389 59.4841 48.8604 59.0183L62.2564 50.8924C62.4703 50.7711 62.5819 50.5601 62.5907 50.3452L62.6229 50.3274V45.446L58.7491 43.2969L49.2402 35.5392C48.4194 35.0627 47.4062 35.0628 46.5855 35.5393L35.256 42.1176L33.1412 45.0055V50.3274L33.1908 50.3557C33.2138 50.549 33.3209 50.7337 33.5123 50.8461Z" fill="url(#paint2_linear_1780_24621)"/>
<path d="M46.3873 54.108L26.944 42.6864C26.5652 42.4639 26.5666 41.9157 26.9465 41.6952L46.7611 30.1902C47.4738 29.7764 48.3537 29.7764 49.0664 30.1901L68.8694 41.6851C69.2527 41.9076 69.2499 42.4621 68.8644 42.6808L48.6827 54.1255C47.9693 54.53 47.0944 54.5234 46.3873 54.108Z" fill="url(#paint3_linear_1780_24621)"/>
<path d="M58.4769 51.4725L58.4769 48.572L47.6831 41.1882" stroke="#EBF4FF" stroke-linecap="round"/>
<circle cx="58.4768" cy="52.7868" r="1.3141" fill="#EBF4FF"/>
<path d="M56.9212 58.6181L58.0064 53.771H59.0916L60.0321 58.6181H56.9212Z" fill="#EBF4FF"/>
<defs>
<radialGradient id="paint0_radial_1780_24621" cx="0" cy="0" r="1" gradientUnits="userSpaceOnUse" gradientTransform="translate(46.5781 58.4464) rotate(90) scale(9.62213 13.6721)">
<stop stop-color="#5DABFF"/>
<stop offset="1" stop-color="#60ACFF" stop-opacity="0"/>
</radialGradient>
<linearGradient id="paint1_linear_1780_24621" x1="48" y1="12.3511" x2="48" y2="79.161" gradientUnits="userSpaceOnUse">
<stop stop-color="#017AFF" stop-opacity="0"/>
<stop offset="1" stop-color="#017AFF"/>
</linearGradient>
<linearGradient id="paint2_linear_1780_24621" x1="30.9352" y1="48.6062" x2="68.5945" y2="50.8757" gradientUnits="userSpaceOnUse">
<stop stop-color="#3C99FF"/>
<stop offset="0.424133" stop-color="#8EC4FF"/>
<stop offset="1" stop-color="#64AEFF"/>
</linearGradient>
<linearGradient id="paint3_linear_1780_24621" x1="35.6899" y1="37.2026" x2="66.7431" y2="42.8" gradientUnits="userSpaceOnUse">
<stop stop-color="#57A7FF"/>
<stop offset="1" stop-color="#ACD4FF"/>
</linearGradient>
</defs>
</svg>
