<svg width="97" height="96" viewBox="0 0 97 96" fill="none" xmlns="http://www.w3.org/2000/svg">
<path d="M42.2226 92.3089L5.66383 70.9635C4.41678 70.2354 4.41153 68.4352 5.65431 67.6999L45.1349 44.3387C48.6489 42.2594 53.031 42.3218 56.4844 44.5003L91.2707 66.4442C92.466 67.1983 92.4434 68.9488 91.229 69.6717L53.2774 92.2623C49.8753 94.2874 45.6417 94.3053 42.2226 92.3089Z" stroke="#017AFF"/>
<path d="M42.3358 87.4237L13.7911 70.7683C12.5434 70.0403 12.5382 68.2393 13.7816 67.5041L44.6955 49.2238C48.2081 47.1467 52.5875 47.209 56.0396 49.3852L83.1435 66.4719C84.3395 67.2258 84.3169 68.9771 83.1018 69.6999L53.3853 87.3771C49.9845 89.4001 45.7536 89.418 42.3358 87.4237Z" fill="#017AFF"/>
<path fill-rule="evenodd" clip-rule="evenodd" d="M20.7218 69.7463L42.4946 82.252C45.8796 84.1963 50.0467 84.1788 53.4153 82.2063L76.174 68.8794C76.7769 68.5264 77.0897 67.9212 77.1094 67.3074L77.1114 67.3074V63.2787L72.5124 63.3396L55.6026 52.8459C52.1815 50.723 47.8679 50.662 44.3883 52.6875L25.0086 63.9683L19.7676 64.0376V68.1333L19.7719 68.1333C19.7812 68.7627 20.0981 69.3881 20.7218 69.7463Z" fill="#5FABFF"/>
<path d="M42.4943 78.2521L20.7215 65.7464C19.4589 65.0212 19.4536 63.2016 20.712 62.4692L44.3879 48.6876C47.8676 46.6621 52.1812 46.7231 55.6022 48.846L76.2153 61.6378C77.4264 62.3893 77.4037 64.1593 76.1737 64.8795L53.4149 78.2064C50.0463 80.1789 45.8793 80.1964 42.4943 78.2521Z" fill="white"/>
<ellipse opacity="0.56" cx="47.5252" cy="64.8578" rx="16.6475" ry="5.53796" transform="rotate(30 47.5252 64.8578)" fill="url(#paint0_radial_3401_55679)"/>
<path opacity="0.2" d="M20.6652 65.725L42.438 78.2306C45.823 80.1749 49.99 80.1574 53.3586 78.1849L76.1174 64.8581C76.7203 64.505 77.0331 63.8999 77.0528 63.286L77.0547 63.286V59.2573V12.8668L19.7153 12.8666L19.7109 60.0163V64.112L19.7153 64.1119C19.7246 64.7413 20.0414 65.3667 20.6652 65.725Z" fill="url(#paint1_linear_3401_55679)"/>
<g>
<circle cx="66.8828" cy="62.0664" r="1" fill="#017AFF"/>
<circle cx="30.8828" cy="61.0664" r="1" fill="#017AFF"/>
<circle cx="30.8828" cy="43.0664" r="1" fill="#017AFF"/>
<circle cx="37.8828" cy="32.0664" r="1" fill="#017AFF"/>
<circle cx="31.8828" cy="31.0664" r="1" fill="#017AFF"/>
<circle cx="41.8828" cy="21.0664" r="1" fill="#017AFF"/>
<circle cx="59.8828" cy="22.0664" r="1" fill="#017AFF"/>
<circle cx="72.8828" cy="46.0664" r="1" fill="#017AFF"/>
<circle cx="71.3828" cy="55.5664" r="0.5" fill="#017AFF"/>
<circle cx="37.3828" cy="40.5664" r="0.5" fill="#017AFF"/>
<circle cx="50.3828" cy="14.5664" r="0.5" fill="#017AFF"/>
<circle cx="35.3828" cy="17.5664" r="0.5" fill="#017AFF"/>
<circle cx="64.3828" cy="23.5664" r="0.5" fill="#017AFF"/>
<circle cx="71.3828" cy="38.5664" r="0.5" fill="#017AFF"/>
<circle cx="26.3828" cy="48.5664" r="0.5" fill="#017AFF"/>
<circle cx="35.3828" cy="65.5664" r="0.5" fill="#017AFF"/>
</g>
<g>
<path fill-rule="evenodd" clip-rule="evenodd" d="M34.8041 17.8632L34.863 17.8314L34.8735 17.8504C35.396 17.7839 36.1757 18.3374 36.7125 19.2813L40.3393 25.6582L42.2269 25.2076C42.23 24.9331 42.2681 24.6101 42.3803 24.3209L41.7634 23.0306L43.943 21.7346L43.9625 21.7383C44.1895 21.6237 44.4956 21.6466 44.8405 21.8458L44.9963 21.9357C44.9972 21.9362 44.9981 21.9367 44.9989 21.9372L45.401 22.0144L44.9003 20.7331L46.86 19.6133C46.9472 19.5333 47.0483 19.4719 47.1606 19.4306C47.3927 19.3453 47.714 19.4499 48.0178 19.6124L48.7484 19.1873L48.7558 19.1989L49.8155 19.8107V20.7375C49.9939 20.8089 50.4185 20.9907 50.6902 21.1476C51.0298 21.3436 52.1308 22.6209 52.0485 23.6666C51.9947 24.3504 51.7604 24.7115 51.576 24.9958C51.4783 25.1462 51.3947 25.2752 51.3591 25.4191C51.2562 25.835 51.4002 26.4529 51.6163 26.8984C51.7892 27.2549 52.2234 27.7361 52.419 27.9322C52.2029 26.9519 52.7585 26.4172 53.5303 26.8628L53.6815 26.9501C54.5055 27.4259 55.1118 28.6673 54.9163 29.4788L54.7651 30.1067C54.9778 30.277 55.506 30.841 55.9176 31.7345C56.3069 32.5795 56.3342 33.3919 56.2954 33.7456L56.3139 33.7667L56.2913 33.7796C56.2903 33.7873 56.2892 33.7948 56.2881 33.802L56.2701 33.7916L53.9281 35.1216L52.7011 33.8091C52.6727 34.6599 53.037 35.6564 53.2525 36.1012C53.448 36.1983 53.8987 36.4981 54.1374 36.9211C54.3762 37.3441 54.4427 37.8578 54.4461 38.0618L61.8945 33.7616C62.6848 33.3053 64.0476 34.4684 64.2425 35.8518C64.3824 36.8451 64.095 38.3569 63.9338 38.9887L65.076 39.0072C66.0185 39.0226 67.0523 40.2288 66.8396 41.2907C66.7553 41.7116 66.6202 42.155 66.4137 42.5949C65.7222 44.0683 64.2665 44.3852 63.6251 44.3594L65.537 45.3474C66.3633 45.7745 67.0356 46.8584 66.6354 47.4638C66.3882 47.8378 65.9833 48.202 65.3435 48.4647C63.8041 49.0968 62.0198 48.1617 61.32 47.6151L62.3238 48.6544C63.1561 49.5163 63.5094 50.7853 62.7705 50.9191L60.5754 52.1696L58.5028 51.1087C58.4299 51.5809 58.0869 51.805 57.5229 51.5065C56.5351 50.9837 55.7324 50.1916 55.4546 49.8609C55.5884 50.0807 55.8621 50.6712 55.8868 51.2748C55.9115 51.8784 55.657 52.3224 55.5266 52.469L57.8708 55.3479L58.425 55.0466L58.6751 54.9019L58.799 54.1983L61.072 52.9394C61.1019 52.9122 61.1369 52.8929 61.176 52.8819L61.1983 52.8695C61.2019 52.8712 61.2054 52.873 61.2089 52.8747C61.2917 52.862 61.3898 52.8835 61.495 52.9443C61.7905 53.1149 62.0301 53.5298 62.0301 53.8711V54.3406C62.0842 54.5511 62.1276 54.7603 62.1626 54.9511C62.8904 55.6874 64.1114 57.3228 64.0572 58.9269C63.9996 60.6332 62.9082 60.8182 62.3696 60.6974L62.2976 60.9291L61.7934 61.8618C61.7683 61.8871 61.7352 61.9124 61.695 61.9342L61.6943 61.9366L59.3709 63.2007L59.09 62.1672L54.2966 56.7073L54.0375 56.8533C53.9658 56.9159 53.8826 56.9612 53.7912 56.9921L51.6184 58.216L50.8331 57.8674C50.7192 57.8596 50.6038 57.8485 50.4941 57.8379C50.2234 57.8118 49.9867 57.7889 49.8876 57.8278C49.7825 57.8691 49.6929 57.943 49.6117 58.01C49.4941 58.1071 49.3942 58.1895 49.2907 58.1368C49.1653 58.0729 49.0822 57.9784 48.9087 57.6411L48.6596 58.2862L47.5396 55.7557C47.3223 55.5306 47.1179 55.3034 46.9651 55.0593C46.6705 54.5885 46.6168 54.033 46.6308 53.7023L46.51 53.4294C46.4274 53.3685 46.3385 53.3052 46.2453 53.2388C45.4965 52.7054 44.4722 51.9758 44.2485 50.7342C44.1274 50.0618 44.3339 49.4075 44.5484 48.9972L44.3919 48.6435L40.1689 48.0828C40.1832 48.1528 40.1959 48.235 40.2044 48.328C40.2291 48.599 40.0158 48.833 39.906 48.9162L41.0141 51.4753C41.1574 51.8062 41.1172 52.1095 40.9322 52.1963L38.5102 53.5185C38.1224 52.6327 37.3389 50.84 37.3071 50.7554C37.2754 50.6708 37.1176 49.0894 37.0427 48.3093L38.0652 48.5649C37.973 48.44 37.8882 48.2876 37.8171 48.1023C37.7689 47.9768 37.7336 47.8616 37.709 47.7561L36.226 47.5592L33.7417 42.0744L31.1284 36.88L33.5077 35.5385L34.4206 35.3711L36.0114 34.8994C35.9756 34.524 36.0503 34.1901 36.2277 33.9616L35.3868 32.371C34.9426 31.9913 34.4672 31.5483 34.0132 31.0596C33.5508 30.5619 33.101 29.8298 32.6993 29.0444C32.2624 28.1901 32.301 27.4946 32.6274 27.1505L29.7646 21.7346L31.9325 20.6048C31.9887 20.5367 32.0561 20.4842 32.1328 20.4474L32.3418 19.1944L34.5652 17.9924C34.6338 17.928 34.7144 17.8854 34.8041 17.8632Z" fill="#3D8AFF"/>
<path fill-rule="evenodd" clip-rule="evenodd" d="M41.7101 33.5066L34.3625 20.5874C33.5217 19.109 32.0849 18.5885 31.9743 19.9076C31.9612 20.0642 31.954 20.2242 31.954 20.3862C31.954 21.6659 32.1505 22.9161 32.2487 23.3813L31.5372 22.5554C30.4475 21.2905 29.1574 21.4029 29.4359 22.9363C29.5572 23.6045 29.7456 24.2833 30.0295 24.8844C30.8315 26.5822 31.9231 28.2642 32.3687 28.8931L31.618 28.4596C30.3598 27.7333 29.5412 28.7705 30.3493 30.3506C30.7511 31.136 31.2008 31.8681 31.6632 32.3658C32.8662 33.6606 34.2189 34.6345 34.7449 34.9596L34.6033 34.954C33.4104 34.9066 33.2884 36.6892 34.5329 37.9012C35.0661 38.4204 35.6134 38.8752 36.1187 39.1612C37.6336 40.0187 38.6064 40.2187 38.9034 40.2116L38.6039 40.4261C37.7509 41.0367 38.3416 43.2518 39.6089 43.7701C40.3218 44.0616 40.6361 44.0416 40.7042 43.9952C40.5185 44.181 40.1732 44.7262 40.2772 45.4207C40.3812 46.1153 40.6052 46.5318 40.7042 46.6533L36.7314 46.5676C36.6529 46.3857 36.4344 45.9912 36.1874 45.8676C35.9405 45.744 35.7003 45.721 35.6112 45.725L34.1191 42.2732C34.2426 42.0839 34.4154 41.4543 34.1191 40.4505C33.8227 39.4467 32.9666 38.9819 32.5755 38.8749L31.9522 37.4313C31.7905 37.0568 31.4623 36.7902 31.2182 36.8349C30.9774 36.8791 30.9074 37.2104 31.0606 37.581L31.6597 39.0306C31.5088 39.3094 31.3201 40.0917 31.7729 40.99C32.2257 41.8883 32.8877 42.3109 33.1621 42.4099L34.6645 45.8082C34.5067 45.9032 34.257 46.274 34.5204 46.9964C34.7838 47.7188 35.3573 48.0183 35.6112 48.0777C35.4225 48.1549 35.1296 48.5292 35.4671 49.4085C35.8046 50.2878 36.4506 50.4278 36.7314 50.3879L37.8045 52.9351C37.9573 53.2979 38.2736 53.5609 38.5122 53.5236C38.7554 53.4856 38.824 53.1507 38.6642 52.7815L37.556 50.2224C37.6658 50.1392 37.8791 49.9052 37.8544 49.6342C37.8297 49.3633 37.7687 49.1847 37.7412 49.1292L42.3924 49.9966C42.1455 50.3056 41.7395 51.1574 41.8985 52.0404C42.1222 53.282 43.1465 54.0116 43.8953 54.545C44.0422 54.6496 44.1786 54.7467 44.2961 54.8386C44.255 55.1119 44.2612 55.7999 44.6151 56.3655C44.8111 56.6785 45.0917 56.9636 45.3758 57.2521C45.7333 57.6153 46.0963 57.9841 46.3027 58.4211C46.6732 59.2053 46.7658 59.3538 46.9407 59.443C47.0442 59.4957 47.1441 59.4133 47.2617 59.3162C47.3429 59.2492 47.4325 59.1753 47.5376 59.134C47.6367 59.0951 47.8735 59.118 48.1441 59.1441C48.5756 59.1857 49.0932 59.2357 49.2766 59.0568C49.5154 58.8239 49.5202 58.1478 49.4927 57.8389C50.0861 58.1854 51.382 58.7039 51.8183 58.0052C52.2546 57.3066 51.7051 55.7456 51.3758 55.0525L56.2329 60.0905C56.25 60.2866 56.3893 60.7773 56.8091 61.1718C57.2289 61.5663 57.6632 61.4827 57.8278 61.3916C57.7867 61.6451 57.834 62.2983 58.3526 62.8829C58.8713 63.4675 59.2959 63.3166 59.4434 63.168L59.9476 62.2353L60.0197 62.0036C60.5582 62.1244 61.6496 61.9394 61.7073 60.2331C61.7649 58.5269 60.3798 56.7853 59.6801 56.1278L59.6801 55.1773C59.6801 54.836 59.4405 54.4211 59.145 54.2505C58.8495 54.0798 58.6099 54.2182 58.6099 54.5594L58.6099 55.51C58.2292 55.409 57.3751 55.3626 57.0046 55.9853C56.6342 56.6079 56.6719 57.6864 56.7371 58.1478L53.1766 53.7752C53.307 53.6286 53.5615 53.1846 53.5368 52.581C53.5121 51.9774 53.2384 51.3869 53.1046 51.167C53.3824 51.4978 54.1851 52.2899 55.173 52.8127C56.1916 53.3518 56.4896 52.1859 55.7764 50.9328L54.9157 49.4204C55.3993 50.0323 56.8359 51.4083 58.7128 52.0166C59.4338 52.2503 59.9865 52.291 60.4015 52.2284C61.1654 52.1131 60.8132 50.8298 59.9738 49.9606L58.9701 48.9213C59.6698 49.4679 61.4541 50.403 62.9936 49.7709C63.6334 49.5082 64.0382 49.144 64.2854 48.77C64.6856 48.1646 64.0134 47.0806 63.187 46.6536L61.2751 45.6656C61.9165 45.6913 63.3722 45.3745 64.0637 43.9011C64.2702 43.4612 64.4053 43.0178 64.4896 42.5969C64.7023 41.535 63.6685 40.3288 62.7261 40.3134L61.5838 40.2949C61.745 39.6631 62.0324 38.1513 61.8925 37.158C61.6976 35.7746 60.3348 34.6114 59.5445 35.0677L52.0962 39.368C52.0927 39.164 52.0262 38.6503 51.7875 38.2273C51.5487 37.8043 51.098 37.5044 50.9025 37.4074C50.6521 36.8905 50.2007 35.6287 50.3983 34.7161C50.5958 33.8035 51.4822 33.8131 51.9007 33.9319L53.9381 35.1082C53.9861 34.7914 53.9793 33.9343 53.5677 33.0407C53.1561 32.1472 52.6278 31.5832 52.4152 31.4129L52.5664 30.785C52.7618 29.9735 52.1556 28.7321 51.3316 28.2563L51.1803 28.169C50.4085 27.7234 49.8529 28.2581 50.069 29.2384C49.8735 29.0423 49.4392 28.5611 49.2663 28.2046C49.0502 27.759 48.9062 27.1412 49.0091 26.7253C49.0447 26.5814 49.1284 26.4524 49.226 26.302C49.4104 26.0176 49.6447 25.6566 49.6985 24.9728C49.7809 23.9271 48.6798 22.6498 48.3402 22.4537C48.0686 22.2969 47.6439 22.115 47.4655 22.0437L47.4655 21.1169L46.3954 20.499L46.3954 21.4259C46.0558 21.1268 45.2634 20.5704 44.8107 20.7368C44.2447 20.9447 43.9669 21.6636 44.2859 22.6914C44.3697 22.9615 44.4514 23.1902 44.5248 23.3956C44.7307 23.9719 44.8713 24.3656 44.8107 24.9787C44.7448 25.6441 44.0903 25.6718 43.7713 25.6024C43.979 24.8626 43.4192 23.6882 42.6463 23.2419L42.4905 23.152C41.6328 22.6568 41.0154 23.2513 41.2559 24.3408L41.415 25.0619C41.1274 24.9472 40.4714 24.8511 40.1485 25.3846C39.8256 25.9182 39.8562 26.6906 39.9119 27.0102L41.9439 28.1833C42.3475 28.471 43.2048 29.3727 43.4053 30.6787C43.6057 31.9846 43.1547 32.6301 42.9042 32.7896C42.7347 32.6487 42.3185 32.428 42.0102 32.6728C41.7019 32.9175 41.6817 33.3306 41.7101 33.5066ZM45.896 24.9633L47.8902 26.1147C47.8763 26.4563 47.9382 27.3433 48.2974 28.1583C48.6566 28.9733 49.2406 29.6874 49.4876 29.9426C49.1327 29.9426 48.3162 30.0113 47.8902 30.2862C47.4642 30.561 47.0654 32.0363 46.9192 32.7396C46.8914 32.0765 46.6477 30.4272 45.896 29.1348C45.1443 27.8424 44.5178 27.1375 44.2986 26.9466C44.6396 26.9667 45.3886 26.8839 45.6559 26.3921C45.9232 25.9002 45.9273 25.2346 45.896 24.9633Z" fill="url(#paint2_linear_3401_55679)"/>
</g>
<defs>
<radialGradient id="paint0_radial_3401_55679" cx="0" cy="0" r="1" gradientUnits="userSpaceOnUse" gradientTransform="translate(47.5252 64.8578) rotate(90) scale(5.53796 16.6475)">
<stop stop-color="#479FFF" stop-opacity="0.36"/>
<stop offset="1" stop-color="#479FFF" stop-opacity="0"/>
</radialGradient>
<linearGradient id="paint1_linear_3401_55679" x1="48.3828" y1="12.8667" x2="48.3828" y2="79.6767" gradientUnits="userSpaceOnUse">
<stop stop-color="#017AFF" stop-opacity="0"/>
<stop offset="1" stop-color="#017AFF"/>
</linearGradient>
<linearGradient id="paint2_linear_3401_55679" x1="29.3975" y1="20.0007" x2="37.2012" y2="67.3142" gradientUnits="userSpaceOnUse">
<stop stop-color="#3D9AFF"/>
<stop offset="1" stop-color="#88C0FF"/>
</linearGradient>
</defs>
</svg>
