<svg width="96" height="96" viewBox="0 0 96 96" fill="none" xmlns="http://www.w3.org/2000/svg">
<path d="M41.3407 92.4105L4.78199 71.0651C3.53494 70.337 3.52969 68.5368 4.77247 67.8014L44.253 44.4403C47.767 42.361 52.1492 42.4234 55.6026 44.6018L90.3889 66.5458C91.5842 67.2998 91.5616 69.0503 90.3472 69.7732L52.3956 92.3638C48.9934 94.389 44.7599 94.4068 41.3407 92.4105Z" stroke="#017AFF"/>
<path d="M41.454 87.5253L12.9093 70.8698C11.6616 70.1418 11.6563 68.3409 12.8997 67.6056L43.8136 49.3254C47.3263 47.2482 51.7057 47.3106 55.1578 49.4868L82.2617 66.5734C83.4577 67.3274 83.435 69.0787 82.22 69.8015L52.5035 87.4787C49.1027 89.5017 44.8718 89.5195 41.454 87.5253Z" fill="#017AFF"/>
<path fill-rule="evenodd" clip-rule="evenodd" d="M19.84 69.8479L41.6128 82.3536C44.9978 84.2978 49.1648 84.2804 52.5334 82.3078L75.2922 68.981C75.8951 68.628 76.2079 68.0228 76.2276 67.409L76.2295 67.4089V63.3803L71.6306 63.4411L54.7207 52.9475C51.2997 50.8245 46.9861 50.7636 43.5064 52.7891L24.1267 64.0698L18.8857 64.1392V68.2349L18.8901 68.2348C18.8994 68.8643 19.2162 69.4896 19.84 69.8479Z" fill="#3796FF"/>
<path d="M41.6124 78.3537L19.8396 65.848C18.577 65.1228 18.5718 63.3032 19.8301 62.5707L43.5061 48.7892C46.9857 46.7637 51.2993 46.8246 54.7204 48.9476L75.3334 61.7393C76.5446 62.4909 76.5219 64.2608 75.2918 64.9811L52.5331 78.3079C49.1645 80.2805 44.9974 80.2979 41.6124 78.3537Z" fill="white"/>
<path opacity="0.2" d="M19.84 65.8583L41.6128 78.3639C44.9978 80.3082 49.1648 80.2907 52.5334 78.3182L75.2922 64.9914C75.8951 64.6383 76.2079 64.0332 76.2276 63.4193L76.2295 63.4193V59.3906V13.0001L18.8901 12.9999L18.8857 60.1496V64.2453L18.8901 64.2452C18.8994 64.8746 19.2162 65.5 19.84 65.8583Z" fill="url(#paint0_linear_3401_55758)"/>
<g class="icon_animate_snow_10">
<circle cx="66.001" cy="62.0664" r="1" fill="#017AFF"/>
<circle cx="30.001" cy="61.0664" r="1" fill="#017AFF"/>
<circle cx="30.001" cy="43.0664" r="1" fill="#017AFF"/>
<circle cx="37.001" cy="32.0664" r="1" fill="#017AFF"/>
<circle cx="31.001" cy="31.0664" r="1" fill="#017AFF"/>
<circle cx="41.001" cy="21.0664" r="1" fill="#017AFF"/>
<circle cx="59.001" cy="22.0664" r="1" fill="#017AFF"/>
<circle cx="72.001" cy="46.0664" r="1" fill="#017AFF"/>
<circle cx="70.501" cy="55.5664" r="0.5" fill="#017AFF"/>
<circle cx="36.501" cy="40.5664" r="0.5" fill="#017AFF"/>
<circle cx="49.501" cy="14.5664" r="0.5" fill="#017AFF"/>
<circle cx="34.501" cy="17.5664" r="0.5" fill="#017AFF"/>
<circle cx="63.501" cy="23.5664" r="0.5" fill="#017AFF"/>
<circle cx="70.501" cy="38.5664" r="0.5" fill="#017AFF"/>
<circle cx="25.501" cy="48.5664" r="0.5" fill="#017AFF"/>
<circle cx="34.501" cy="65.5664" r="0.5" fill="#017AFF"/>
</g>
<g class="icon_animate_10">
<g filter="url(#filter0_d_3401_55758)">
<path d="M27.6041 54.5594L45.8399 65.0271C46.6093 65.479 47.5612 65.4863 48.3373 65.0462L65.5947 55.2185C65.8441 55.0771 65.9463 54.8064 65.9005 54.5594V51.0132L56.1675 50.9522L46.2924 45.22C45.5169 44.7699 44.5596 44.7699 43.7842 45.2202L34.2608 50.7497L27.2969 50.6853V53.9846C27.2843 54.2052 27.3866 54.4316 27.6041 54.5594Z" fill="url(#paint1_linear_3401_55758)"/>
</g>
<path d="M46.1159 62.0017L27.5446 51.338C27.1615 51.118 27.1602 50.5658 27.5422 50.3439L43.8982 40.8471C44.6045 40.4371 45.4753 40.4331 46.1853 40.8365L65.0552 51.5601C65.4425 51.7802 65.4423 52.3386 65.0547 52.5584L48.3916 62.0078C47.6853 62.4083 46.82 62.406 46.1159 62.0017Z" fill="url(#paint2_linear_3401_55758)"/>
<path d="M67.1983 30.277L47.6047 19.2014C47.5146 19.1351 47.4081 19.0947 47.2967 19.0845C47.1853 19.0742 47.0732 19.0945 46.9725 19.1431L44.8467 20.2999L44.8467 39.344C44.8599 39.6577 44.9484 39.9636 45.1047 40.2358C45.2611 40.508 45.4808 40.7386 45.7451 40.9079L65.4445 52.0444L67.8721 50.7489C67.9593 50.6826 68.0281 50.595 68.0717 50.4945C68.1154 50.394 68.1326 50.284 68.1216 50.1749V31.8741C68.1089 31.5529 68.0182 31.2397 67.8574 30.9614C67.6965 30.6831 67.4703 30.4482 67.1983 30.277Z" fill="#85BFFF"/>
<path d="M65.0073 31.511L45.4457 20.3744C44.955 20.0916 44.5557 20.3245 44.5557 20.8902V39.191C44.5719 39.5007 44.6609 39.8023 44.8156 40.0711C44.9702 40.34 45.1861 40.5685 45.4457 40.7382L65.0073 51.8749C65.4981 52.1577 65.8974 51.9331 65.8974 51.3591V33.0583C65.8799 32.7489 65.7903 32.4478 65.6357 32.1792C65.4812 31.9105 65.266 31.6817 65.0073 31.511Z" fill="#6AB1FF"/>
<path d="M45.7285 39.5653V21.8967L64.5952 32.7869V50.4555L45.7285 39.5653Z" fill="#3796FF"/>
<path d="M35.875 47.4438L44.603 42.2083L61.7789 52.1281L53.0509 57.3569L35.875 47.4438Z" fill="#57A7FF"/>
<path d="M42.3681 57.6232L35.5303 53.674L39.8989 51.1573L46.7366 55.0986L42.3681 57.6232Z" fill="#57A7FF"/>
</g>
<defs>
<filter id="filter0_d_3401_55758" x="21.5564" y="44.8824" width="50.0943" height="36.5594" filterUnits="userSpaceOnUse" color-interpolation-filters="sRGB">
<feFlood flood-opacity="0" result="BackgroundImageFix"/>
<feColorMatrix in="SourceAlpha" type="matrix" values="0 0 0 0 0 0 0 0 0 0 0 0 0 0 0 0 0 0 127 0" result="hardAlpha"/>
<feOffset dy="10.3311"/>
<feGaussianBlur stdDeviation="2.86976"/>
<feComposite in2="hardAlpha" operator="out"/>
<feColorMatrix type="matrix" values="0 0 0 0 0.231526 0 0 0 0 0.59554 0 0 0 0 1 0 0 0 0.23 0"/>
<feBlend mode="normal" in2="BackgroundImageFix" result="effect1_dropShadow_3401_55758"/>
<feBlend mode="normal" in="SourceGraphic" in2="effect1_dropShadow_3401_55758" result="shape"/>
</filter>
<linearGradient id="paint0_linear_3401_55758" x1="47.5576" y1="13" x2="47.5576" y2="79.81" gradientUnits="userSpaceOnUse">
<stop stop-color="#017AFF" stop-opacity="0"/>
<stop offset="1" stop-color="#017AFF"/>
</linearGradient>
<linearGradient id="paint1_linear_3401_55758" x1="30.8067" y1="56.2377" x2="62.3706" y2="58.1404" gradientUnits="userSpaceOnUse">
<stop stop-color="#3C99FF"/>
<stop offset="0.424133" stop-color="#8EC4FF"/>
<stop offset="1" stop-color="#64AEFF"/>
</linearGradient>
<linearGradient id="paint2_linear_3401_55758" x1="35.3116" y1="47.0183" x2="63.2238" y2="52.1055" gradientUnits="userSpaceOnUse">
<stop stop-color="#57A7FF"/>
<stop offset="1" stop-color="#ACD4FF"/>
</linearGradient>
</defs>
</svg>
