<svg width="303" height="380" viewBox="0 0 303 380" fill="none" xmlns="http://www.w3.org/2000/svg">
<g opacity="0.2">
<mask id="mask0_1861_42714" style="mask-type:alpha" maskUnits="userSpaceOnUse" x="0" y="0" width="303" height="380">
<rect x="0.5" y="0.5" width="301.144" height="379" fill="white" stroke="white"/>
</mask>
<g mask="url(#mask0_1861_42714)">
<path opacity="0.3" d="M244.586 106H215.542L301.227 158.211C305.069 160.579 305.069 166.474 301.227 168.789L215.542 221H244.586C247.431 221 250.175 220.211 252.621 218.737L332.117 170.316C337.057 167.316 337.057 159.737 332.117 156.737L252.621 108.316C250.175 106.789 247.431 106 244.586 106Z" fill="url(#paint0_linear_1861_42714)"/>
<path d="M308.902 167.29C308.757 165.036 307.118 162.731 304.081 160.878L230.035 116.49C224.154 112.983 215.284 112.582 210.222 115.638L133.331 161.829C130.921 163.282 129.812 165.236 129.908 167.29C130.053 169.545 131.692 171.849 134.729 173.703L208.776 218.091C214.657 221.597 223.527 221.998 228.589 218.942L305.479 172.751C307.938 171.348 309.047 169.344 308.902 167.29Z" fill="#BCC0E5"/>
<path d="M308.902 166.294L308.902 153.272L278.869 168.452L230.035 139.144C224.154 135.638 215.283 135.237 210.222 138.293L160.038 168.452L129.956 153.272L129.956 165.743C129.956 165.943 129.956 166.144 129.956 166.294C130.101 168.548 131.74 170.853 134.777 172.707L208.824 217.094C211.861 218.898 215.717 219.9 219.429 220C222.852 220.1 226.178 219.399 228.637 217.946L305.527 171.755C307.938 170.302 309.047 168.348 308.902 166.294Z" fill="url(#paint1_linear_1861_42714)"/>
<path d="M308.902 153.273C308.757 151.018 307.118 148.714 304.081 146.86L230.035 102.472C224.154 98.9654 215.284 98.5646 210.222 101.621L133.331 147.812C130.921 149.265 129.812 151.219 129.908 153.273C130.053 155.527 131.692 157.832 134.729 159.685L208.776 204.073C214.657 207.58 223.527 207.981 228.589 204.925L305.479 158.733C307.938 157.281 309.047 155.327 308.902 153.273Z" fill="white"/>
<path d="M308.902 152.37C308.757 150.116 307.118 147.811 304.081 145.958L230.035 101.57C224.154 98.063 215.284 97.6622 210.222 100.718L133.331 146.91C130.921 148.362 129.812 150.316 129.908 152.37C130.053 154.625 131.692 156.929 134.729 158.783L208.776 203.171C214.657 206.678 223.527 207.078 228.589 204.022L305.479 157.831C307.938 156.378 309.047 154.374 308.902 152.37Z" fill="url(#paint2_linear_1861_42714)"/>
<g opacity="0.2">
<path opacity="0.2" d="M163.943 151.619C164.425 151.92 164.425 152.371 163.943 152.672C163.461 152.972 162.69 152.972 162.208 152.672C161.725 152.371 161.725 151.92 162.208 151.619C162.69 151.319 163.461 151.319 163.943 151.619Z" fill="white"/>
<path opacity="0.2" d="M173.247 146.059C173.729 146.359 173.729 146.81 173.247 147.111C172.765 147.411 171.993 147.411 171.511 147.111C171.029 146.81 171.029 146.359 171.511 146.059C171.993 145.758 172.765 145.758 173.247 146.059Z" fill="white"/>
<path opacity="0.2" d="M182.551 140.448C183.033 140.748 183.033 141.199 182.551 141.5C182.069 141.8 181.297 141.8 180.815 141.5C180.333 141.199 180.333 140.748 180.815 140.448C181.297 140.147 182.069 140.147 182.551 140.448Z" fill="white"/>
<path opacity="0.2" d="M191.903 134.887C192.385 135.187 192.385 135.638 191.903 135.939C191.421 136.239 190.65 136.239 190.168 135.939C189.686 135.638 189.686 135.187 190.168 134.887C190.601 134.586 191.421 134.586 191.903 134.887Z" fill="white"/>
<path opacity="0.2" d="M173.247 157.231C173.729 157.531 173.729 157.982 173.247 158.283C172.765 158.583 171.993 158.583 171.511 158.283C171.029 157.982 171.029 157.531 171.511 157.231C171.993 156.93 172.765 156.93 173.247 157.231Z" fill="white"/>
<path opacity="0.2" d="M182.551 151.619C183.033 151.92 183.033 152.371 182.551 152.672C182.069 152.972 181.297 152.972 180.815 152.672C180.333 152.371 180.333 151.92 180.815 151.619C181.297 151.319 182.069 151.319 182.551 151.619Z" fill="white"/>
<path opacity="0.2" d="M191.903 146.059C192.385 146.359 192.385 146.81 191.903 147.111C191.421 147.411 190.65 147.411 190.168 147.111C189.686 146.81 189.686 146.359 190.168 146.059C190.601 145.758 191.421 145.758 191.903 146.059Z" fill="white"/>
<path opacity="0.2" d="M201.207 140.448C201.689 140.748 201.689 141.199 201.207 141.5C200.725 141.8 199.954 141.8 199.472 141.5C198.989 141.199 198.989 140.748 199.472 140.448C199.954 140.147 200.725 140.147 201.207 140.448Z" fill="white"/>
<path opacity="0.2" d="M182.551 162.792C183.033 163.092 183.033 163.543 182.551 163.844C182.069 164.145 181.297 164.145 180.815 163.844C180.333 163.543 180.333 163.092 180.815 162.792C181.297 162.541 182.069 162.541 182.551 162.792Z" fill="white"/>
<path opacity="0.2" d="M191.903 157.231C192.385 157.531 192.385 157.982 191.903 158.283C191.421 158.583 190.65 158.583 190.168 158.283C189.686 157.982 189.686 157.531 190.168 157.231C190.65 156.93 191.421 156.93 191.903 157.231Z" fill="white"/>
<path opacity="0.2" d="M201.207 151.619C201.689 151.92 201.689 152.371 201.207 152.672C200.725 152.972 199.954 152.972 199.472 152.672C198.989 152.371 198.989 151.92 199.472 151.619C199.954 151.319 200.725 151.319 201.207 151.619Z" fill="white"/>
<path opacity="0.2" d="M210.511 146.059C210.993 146.359 210.993 146.81 210.511 147.111C210.029 147.411 209.257 147.411 208.775 147.111C208.293 146.81 208.293 146.359 208.775 146.059C209.257 145.758 210.029 145.758 210.511 146.059Z" fill="white"/>
<path opacity="0.2" d="M191.035 169.655C191.727 169.655 192.289 169.319 192.289 168.904C192.289 168.489 191.727 168.152 191.035 168.152C190.343 168.152 189.782 168.489 189.782 168.904C189.782 169.319 190.343 169.655 191.035 169.655Z" fill="white"/>
<path opacity="0.2" d="M200.339 164.094C201.031 164.094 201.593 163.757 201.593 163.342C201.593 162.927 201.031 162.591 200.339 162.591C199.647 162.591 199.086 162.927 199.086 163.342C199.086 163.757 199.647 164.094 200.339 164.094Z" fill="white"/>
<path opacity="0.2" d="M210.511 157.231C210.993 157.531 210.993 157.982 210.511 158.283C210.029 158.583 209.257 158.583 208.775 158.283C208.293 157.982 208.293 157.531 208.775 157.231C209.257 156.93 210.029 156.93 210.511 157.231Z" fill="white"/>
<path opacity="0.2" d="M219.815 151.619C220.297 151.92 220.297 152.371 219.815 152.672C219.333 152.972 218.562 152.972 218.08 152.672C217.597 152.371 217.597 151.92 218.08 151.619C218.562 151.319 219.333 151.319 219.815 151.619Z" fill="white"/>
<path opacity="0.2" d="M201.207 173.964C201.689 174.264 201.689 174.715 201.207 175.016C200.725 175.316 199.954 175.316 199.472 175.016C198.989 174.715 198.989 174.264 199.472 173.964C199.954 173.713 200.725 173.713 201.207 173.964Z" fill="white"/>
<path opacity="0.2" d="M210.511 168.402C210.993 168.703 210.993 169.154 210.511 169.455C210.029 169.755 209.257 169.755 208.775 169.455C208.293 169.154 208.293 168.703 208.775 168.402C209.257 168.102 210.029 168.102 210.511 168.402Z" fill="white"/>
<path opacity="0.2" d="M219.815 162.792C220.297 163.092 220.297 163.543 219.815 163.844C219.333 164.145 218.562 164.145 218.08 163.844C217.597 163.543 217.597 163.092 218.08 162.792C218.562 162.541 219.333 162.541 219.815 162.792Z" fill="white"/>
<path opacity="0.2" d="M229.119 157.231C229.601 157.531 229.601 157.982 229.119 158.283C228.637 158.583 227.866 158.583 227.384 158.283C226.902 157.982 226.902 157.531 227.384 157.231C227.866 156.93 228.637 156.93 229.119 157.231Z" fill="white"/>
<path opacity="0.2" d="M229.119 157.231C229.601 157.531 229.601 157.982 229.119 158.283C228.637 158.583 227.866 158.583 227.384 158.283C226.902 157.982 226.902 157.531 227.384 157.231C227.866 156.93 228.637 156.93 229.119 157.231Z" fill="white"/>
<path opacity="0.2" d="M201.207 129.275C201.689 129.576 201.689 130.027 201.207 130.328C200.725 130.628 199.954 130.628 199.472 130.328C198.989 130.027 198.989 129.576 199.472 129.275C199.954 128.975 200.725 128.975 201.207 129.275Z" fill="white"/>
<path opacity="0.2" d="M210.511 123.664C210.993 123.965 210.993 124.416 210.511 124.717C210.029 125.017 209.257 125.017 208.775 124.717C208.293 124.416 208.293 123.965 208.775 123.664C209.257 123.414 210.029 123.414 210.511 123.664Z" fill="white"/>
<path opacity="0.2" d="M218.947 119.356C219.64 119.356 220.201 119.019 220.201 118.604C220.201 118.189 219.64 117.853 218.947 117.853C218.255 117.853 217.694 118.189 217.694 118.604C217.694 119.019 218.255 119.356 218.947 119.356Z" fill="white"/>
<path opacity="0.2" d="M210.511 134.887C210.993 135.187 210.993 135.638 210.511 135.939C210.029 136.239 209.257 136.239 208.775 135.939C208.293 135.638 208.293 135.187 208.775 134.887C209.257 134.586 210.029 134.586 210.511 134.887Z" fill="white"/>
<path opacity="0.2" d="M219.815 129.275C220.297 129.576 220.297 130.027 219.815 130.328C219.333 130.628 218.562 130.628 218.08 130.328C217.597 130.027 217.597 129.576 218.08 129.275C218.562 128.975 219.333 128.975 219.815 129.275Z" fill="white"/>
<path opacity="0.2" d="M229.119 123.664C229.601 123.965 229.601 124.416 229.119 124.717C228.637 125.017 227.866 125.017 227.384 124.717C226.902 124.416 226.902 123.965 227.384 123.664C227.866 123.414 228.637 123.414 229.119 123.664Z" fill="white"/>
<path opacity="0.2" d="M219.815 140.448C220.297 140.748 220.297 141.199 219.815 141.5C219.333 141.8 218.562 141.8 218.08 141.5C217.597 141.199 217.597 140.748 218.08 140.448C218.562 140.147 219.333 140.147 219.815 140.448Z" fill="white"/>
<path opacity="0.2" d="M229.119 134.887C229.601 135.187 229.601 135.638 229.119 135.939C228.637 136.239 227.866 136.239 227.384 135.939C226.902 135.638 226.902 135.187 227.384 134.887C227.866 134.586 228.637 134.586 229.119 134.887Z" fill="white"/>
<path opacity="0.2" d="M238.472 129.275C238.954 129.576 238.954 130.027 238.472 130.328C237.989 130.628 237.218 130.628 236.736 130.328C236.254 130.027 236.254 129.576 236.736 129.275C237.218 128.975 237.989 128.975 238.472 129.275Z" fill="white"/>
<path opacity="0.2" d="M228.252 147.311C228.944 147.311 229.505 146.974 229.505 146.559C229.505 146.144 228.944 145.808 228.252 145.808C227.559 145.808 226.998 146.144 226.998 146.559C226.998 146.974 227.559 147.311 228.252 147.311Z" fill="white"/>
<path opacity="0.2" d="M238.472 140.448C238.954 140.748 238.954 141.199 238.472 141.5C237.989 141.8 237.218 141.8 236.736 141.5C236.254 141.199 236.254 140.748 236.736 140.448C237.218 140.147 237.989 140.147 238.472 140.448Z" fill="white"/>
<path opacity="0.2" d="M247.775 134.887C248.257 135.187 248.257 135.638 247.775 135.939C247.293 136.239 246.522 136.239 246.04 135.939C245.558 135.638 245.558 135.187 246.04 134.887C246.522 134.586 247.293 134.586 247.775 134.887Z" fill="white"/>
<path opacity="0.2" d="M238.472 151.619C238.954 151.92 238.954 152.371 238.472 152.672C237.989 152.972 237.218 152.972 236.736 152.672C236.254 152.371 236.254 151.92 236.736 151.619C237.218 151.319 237.989 151.319 238.472 151.619Z" fill="white"/>
<path opacity="0.2" d="M247.775 146.059C248.257 146.359 248.257 146.81 247.775 147.111C247.293 147.411 246.522 147.411 246.04 147.111C245.558 146.81 245.558 146.359 246.04 146.059C246.522 145.758 247.293 145.758 247.775 146.059Z" fill="white"/>
<path opacity="0.2" d="M257.079 140.448C257.561 140.748 257.561 141.199 257.079 141.5C256.597 141.8 255.826 141.8 255.344 141.5C254.862 141.199 254.862 140.748 255.344 140.448C255.826 140.147 256.597 140.147 257.079 140.448Z" fill="white"/>
<path opacity="0.2" d="M210.511 179.574C210.993 179.875 210.993 180.326 210.511 180.626C210.029 180.927 209.257 180.927 208.775 180.626C208.293 180.326 208.293 179.875 208.775 179.574C209.257 179.273 210.029 179.273 210.511 179.574Z" fill="white"/>
<path opacity="0.2" d="M219.815 173.964C220.297 174.264 220.297 174.715 219.815 175.016C219.333 175.316 218.562 175.316 218.08 175.016C217.597 174.715 217.597 174.264 218.08 173.964C218.562 173.713 219.333 173.713 219.815 173.964Z" fill="white"/>
<path opacity="0.2" d="M229.119 168.402C229.601 168.703 229.601 169.154 229.119 169.455C228.637 169.755 227.866 169.755 227.384 169.455C226.902 169.154 226.902 168.703 227.384 168.402C227.866 168.102 228.637 168.102 229.119 168.402Z" fill="white"/>
<path opacity="0.2" d="M238.472 162.792C238.954 163.092 238.954 163.543 238.472 163.844C237.989 164.144 237.218 164.144 236.736 163.844C236.254 163.543 236.254 163.092 236.736 162.792C237.218 162.491 237.989 162.541 238.472 162.792Z" fill="white"/>
<path opacity="0.2" d="M219.815 185.136C220.297 185.436 220.297 185.887 219.815 186.188C219.333 186.489 218.562 186.489 218.08 186.188C217.597 185.887 217.597 185.436 218.08 185.136C218.562 184.885 219.333 184.885 219.815 185.136Z" fill="white"/>
<path opacity="0.2" d="M229.119 179.574C229.601 179.875 229.601 180.326 229.119 180.626C228.637 180.927 227.866 180.927 227.384 180.626C226.901 180.326 226.901 179.875 227.384 179.574C227.866 179.273 228.637 179.273 229.119 179.574Z" fill="white"/>
<path opacity="0.2" d="M237.604 175.266C238.296 175.266 238.857 174.929 238.857 174.514C238.857 174.099 238.296 173.763 237.604 173.763C236.911 173.763 236.35 174.099 236.35 174.514C236.35 174.929 236.911 175.266 237.604 175.266Z" fill="white"/>
<path opacity="0.2" d="M247.775 168.402C248.257 168.703 248.257 169.154 247.775 169.455C247.293 169.755 246.522 169.755 246.04 169.455C245.558 169.154 245.558 168.703 246.04 168.402C246.522 168.102 247.293 168.102 247.775 168.402Z" fill="white"/>
<path opacity="0.2" d="M247.775 157.231C248.257 157.531 248.257 157.982 247.775 158.283C247.293 158.583 246.522 158.583 246.04 158.283C245.558 157.982 245.558 157.531 246.04 157.231C246.522 156.93 247.293 156.93 247.775 157.231Z" fill="white"/>
<path opacity="0.2" d="M257.079 151.619C257.561 151.92 257.561 152.371 257.079 152.672C256.597 152.972 255.826 152.972 255.344 152.672C254.862 152.371 254.862 151.92 255.344 151.619C255.826 151.319 256.597 151.319 257.079 151.619Z" fill="white"/>
<path opacity="0.2" d="M266.383 146.059C266.865 146.359 266.865 146.81 266.383 147.111C265.901 147.411 265.13 147.411 264.648 147.111C264.166 146.81 264.166 146.359 264.648 146.059C265.13 145.758 265.901 145.758 266.383 146.059Z" fill="white"/>
<path opacity="0.2" d="M257.079 162.792C257.561 163.092 257.561 163.543 257.079 163.844C256.597 164.145 255.826 164.145 255.344 163.844C254.862 163.543 254.862 163.092 255.344 162.792C255.826 162.541 256.597 162.541 257.079 162.792Z" fill="white"/>
<path opacity="0.2" d="M266.383 157.231C266.865 157.531 266.865 157.982 266.383 158.283C265.901 158.583 265.13 158.583 264.648 158.283C264.166 157.982 264.166 157.531 264.648 157.231C265.13 156.93 265.901 156.93 266.383 157.231Z" fill="white"/>
<path opacity="0.2" d="M275.687 151.619C276.169 151.92 276.169 152.371 275.687 152.672C275.205 152.972 274.434 152.972 273.952 152.672C273.47 152.371 273.47 151.92 273.952 151.619C274.434 151.319 275.205 151.319 275.687 151.619Z" fill="white"/>
</g>
<path d="M227.263 112.196H213.464L254.14 136.594C255.971 137.682 255.971 140.468 254.14 141.556L188.94 180.634H202.739C204.112 180.634 205.42 180.294 206.532 179.547L268.789 142.235C271.143 140.808 271.143 137.274 268.789 135.847L231.055 113.215C229.944 112.536 228.636 112.196 227.263 112.196Z" fill="url(#paint3_linear_1861_42714)"/>
<path d="M257.476 139.585C257.41 138.498 256.625 137.342 255.121 136.459L218.696 114.643C215.818 112.944 211.437 112.74 208.952 114.235L146.694 151.614C145.517 152.362 144.929 153.313 144.994 154.333C145.06 155.42 145.844 156.576 147.348 157.459L183.774 179.275C186.652 180.974 191.033 181.178 193.518 179.683L255.775 142.304C256.952 141.556 257.541 140.604 257.476 139.585Z" fill="#9295B2"/>
<path d="M257.476 138.022V97.3123L144.994 111.992V152.43C144.994 152.498 144.994 152.634 144.994 152.702C145.06 153.789 145.844 154.944 147.349 155.828L183.774 177.644C185.278 178.527 187.175 179.003 189.006 179.071C190.706 179.139 192.341 178.799 193.518 178.051L255.775 140.672C256.952 139.993 257.541 139.041 257.476 138.022Z" fill="url(#paint4_linear_1861_42714)"/>
<path d="M257.476 97.3128C257.41 96.2254 256.625 95.0701 255.121 94.1866L218.696 72.3707C215.818 70.6716 211.437 70.4677 208.952 71.9629L146.694 109.342C145.517 110.09 144.929 111.041 144.994 112.061C145.06 113.148 145.844 114.303 147.348 115.187L183.774 137.003C186.652 138.702 191.033 138.906 193.518 137.411L255.775 100.031C256.952 99.2837 257.541 98.3323 257.476 97.3128Z" fill="white"/>
<path d="M257.476 95.9535C257.41 94.8661 256.625 93.7107 255.121 92.8272L218.696 71.0113C215.818 69.3123 211.437 69.1084 208.952 70.6035L146.694 107.983C145.517 108.73 144.929 109.682 144.994 110.701C145.06 111.789 145.844 112.944 147.348 113.828L183.774 135.643C186.652 137.342 191.033 137.546 193.518 136.051L255.775 98.672C256.952 97.9244 257.541 96.9729 257.476 95.9535Z" fill="url(#paint5_linear_1861_42714)"/>
<path d="M203.655 124.089C202.478 124.089 201.366 123.749 200.319 123.137L194.107 119.399C193.257 118.856 192.734 117.972 192.734 116.953C192.734 115.933 193.257 114.982 194.107 114.506L221.835 97.8552C223.927 96.6319 226.478 96.6319 228.505 97.8552L234.718 101.593C235.568 102.137 236.091 103.02 236.091 104.04C236.091 105.059 235.568 106.011 234.718 106.486L206.99 123.137C205.944 123.817 204.766 124.089 203.655 124.089ZM225.17 97.7873C224.124 97.7873 223.143 98.0591 222.227 98.6028L194.499 115.254C193.911 115.593 193.518 116.273 193.518 117.021C193.518 117.768 193.911 118.38 194.499 118.788L200.712 122.526C202.543 123.613 204.766 123.613 206.598 122.526L234.325 105.875C234.914 105.535 235.306 104.855 235.306 104.108C235.306 103.36 234.914 102.749 234.325 102.341L228.113 98.6028C227.197 98.0591 226.216 97.7873 225.17 97.7873Z" fill="#BCC0E5"/>
<mask id="mask1_1861_42714" style="mask-type:alpha" maskUnits="userSpaceOnUse" x="163" y="18" width="53" height="93">
<path d="M215.753 78.8262L163.763 110.633V49.6025L215.753 18V78.8262Z" fill="url(#paint6_linear_1861_42714)"/>
</mask>
<g mask="url(#mask1_1861_42714)">
<path d="M215.753 78.8263L163.763 110.633V49.6025L215.753 18V78.8263Z" fill="url(#paint7_linear_1861_42714)"/>
<path opacity="0.8" d="M168.406 28.1944L211.044 2.64056C213.595 1.07743 215.687 2.0289 215.687 4.67943V57.3502C215.687 60.0007 213.595 63.4668 211.044 64.962L168.406 90.5158C165.856 92.0789 163.763 91.1275 163.763 88.4769V35.8741C163.763 33.1556 165.856 29.7575 168.406 28.1944Z" fill="#C0BCFF"/>
<path d="M199.665 64.3501L207.513 59.6607V38.5244L199.665 43.2138V64.3501Z" fill="#02CEFF"/>
<path d="M190.379 69.9906L198.161 65.3012V36.2134L190.379 40.9028V69.9906Z" fill="#017AFF"/>
<path d="M181.027 75.5635L188.875 70.8741V36.2134L181.027 40.9028V75.5635Z" fill="#02CEFF"/>
<path d="M171.741 81.1368L179.523 76.4474V30.0972L171.741 34.7866V81.1368Z" fill="#017AFF"/>
<path d="M199.665 51.3018L207.513 46.6124V43.2822L199.665 48.0396V51.3018Z" fill="white"/>
<path d="M190.379 61.6309L198.161 56.9415V53.6113L190.379 58.3687V61.6309Z" fill="white"/>
<path d="M181.027 51.7773L188.875 47.0879V43.8257L181.027 48.5151V51.7773Z" fill="white"/>
<path d="M171.741 41.7865L179.523 37.0971V33.835L171.741 38.5244V41.7865Z" fill="white"/>
<path d="M163.763 111.312C163.567 111.312 163.305 111.176 163.174 110.972C162.978 110.632 163.109 110.225 163.436 110.021L215.36 78.2823C215.687 78.0784 216.08 78.2144 216.276 78.5542C216.472 78.894 216.341 79.3017 216.014 79.5056L164.09 111.244C164.024 111.312 163.894 111.312 163.763 111.312Z" fill="#017AFF"/>
</g>
<path d="M278.337 142.098C271.928 142.098 266.762 144.885 266.762 148.351C266.762 151.817 271.928 154.604 278.337 154.604H337.259V142.031H278.337V142.098Z" fill="url(#paint8_linear_1861_42714)"/>
<path d="M279.318 141.691C280.103 142.506 279.907 144.205 279.449 144.885C278.73 146.108 277.749 145.429 277.095 145.836C275.329 146.992 271.667 148.079 270.882 147.535C270.097 146.992 269.509 145.293 273.629 143.662C275.46 142.914 276.375 141.895 276.375 141.895L279.318 141.691Z" fill="#636BE4"/>
<path d="M279.253 140.264C279.384 141.351 279.449 142.031 279.514 142.371C279.58 142.642 279.449 142.914 279.318 143.05C278.795 143.526 277.618 144.274 276.375 143.662C276.375 143.662 275.591 143.322 275.983 142.303C276.31 141.283 276.506 139.992 276.506 139.992L279.253 140.264Z" fill="white"/>
<path d="M286.642 147.807C287.427 148.623 287.296 150.39 286.773 151.001C286.25 151.613 285.4 151.137 285.007 151.817C283.569 154.467 280.888 154.128 279.972 154.06C278.599 153.924 278.533 152.7 280.822 150.526C283.046 148.351 283.438 147.807 283.438 147.807H286.642Z" fill="#636BE4"/>
<path d="M285.662 82.7676C288.277 89.4279 285.465 90.9231 283.504 99.2824C281.738 106.758 282.85 121.914 279.514 141.555C279.318 142.778 275.721 143.05 275.787 140.807C275.787 136.934 273.759 122.933 273.563 114.574C273.432 108.933 273.563 91.3308 273.563 91.3308L285.662 82.7676Z" fill="url(#paint9_linear_1861_42714)"/>
<path d="M286.642 146.38C286.773 147.468 286.839 148.147 286.904 148.487C286.969 148.759 286.839 149.031 286.708 149.167C286.185 149.642 285.008 150.39 283.765 149.778C283.765 149.778 282.98 149.439 283.373 148.419C283.7 147.4 283.896 146.108 283.896 146.108L286.642 146.38Z" fill="white"/>
<path d="M272.059 78.7573C268.789 81.3398 267.481 82.3593 267.481 82.3593L264.277 80.5243L268.855 73.728L270.359 72.4368L272.451 75.4951L272.059 78.7573Z" fill="#F5D5D5"/>
<path d="M293.509 87.457C296.125 94.1173 294.163 102.613 292.332 110.972C289.127 125.312 287.819 137.273 287.1 147.128C287.035 148.351 283.307 149.371 283.046 147.128C282.719 144.409 281.476 126.943 280.953 120.962C280.103 111.108 281.411 96.0882 281.411 96.0882L293.509 87.457Z" fill="url(#paint10_linear_1861_42714)"/>
<path d="M275.002 66.7969L274.806 79.9136C274.806 79.9136 272.844 78.2825 271.994 78.7582C271.994 78.7582 272.386 74.2048 268.789 73.797C268.855 73.797 273.89 67.4765 275.002 66.7969Z" fill="#8EB4FF"/>
<path d="M295.471 92.0106C294.49 97.8554 287.558 101.118 278.729 96.0204C269.901 90.9232 274.086 88.9523 274.217 84.059C274.348 79.1657 277.094 76.5832 275.132 69.3792C273.105 62.1752 283.438 66.9325 288.539 71.418C293.64 75.7676 296.386 86.5736 295.471 92.0106Z" fill="#8EB4FF"/>
<path d="M290.174 71.4858C294.294 76.9228 295.34 93.9134 294.425 99.2824C293.64 103.904 289.651 103.768 283.438 102.273C283.569 101.389 284.157 95.9522 284.157 94.0493C284.354 86.0977 282.457 79.3015 283.569 69.6508C283.569 69.6508 287.689 68.9032 283.7 67.0003C279.711 65.0974 277.945 65.0974 277.422 66.6605C276.898 68.2236 277.225 80.7287 276.964 89.224C276.833 92.3502 275.656 96.6319 275.591 98.127C270.228 94.1852 273.367 88.3405 273.498 83.9909C273.629 79.0976 274.675 76.7189 274.544 69.2431C274.413 61.5633 286.054 65.9809 290.174 71.4858Z" fill="url(#paint11_linear_1861_42714)"/>
<path d="M281.803 61.7671C283.569 65.6409 282.98 66.3206 284.484 67.7478C285.073 68.2915 283.046 69.3789 281.607 69.4468L278.86 72.9129L278.991 68.0876C278.991 68.0876 278.076 67.6798 278.272 66.8643C278.468 66.0487 279.122 65.4371 278.468 64.3497C278.272 63.8739 281.803 61.7671 281.803 61.7671Z" fill="#F5D5D5"/>
<path d="M282.653 61.7671C281.869 64.4176 279.514 64.9613 277.683 64.8934C275.852 64.8254 273.432 58.0971 274.61 55.7185C275.852 53.3398 280.234 51.9805 281.869 54.4272C283.503 56.8738 282.653 61.7671 282.653 61.7671Z" fill="#F5D5D5"/>
<path d="M273.04 84.2625H273.105L276.048 83.447C276.244 83.379 276.31 83.2431 276.244 83.0392C276.179 82.8353 276.048 82.7673 275.852 82.8353L272.909 83.6509C272.713 83.7188 272.648 83.8547 272.713 84.0586C272.778 84.1945 272.909 84.2625 273.04 84.2625Z" fill="white"/>
<path d="M288.539 71.3496C291.678 72.2331 292.136 77.738 293.051 82.3595C293.967 86.9809 289.585 85.8255 288.016 84.1944C286.512 82.4954 284.223 70.1263 288.539 71.3496Z" fill="#8EB4FF"/>
<path d="M272.844 83.2438C273.956 82.9719 274.086 83.5836 275.067 85.0108C277.291 85.8943 282.522 88.0011 284.811 88.9526C284.811 88.9526 286.381 76.0398 287.035 74.0688L291.678 82.3602C290.043 89.7002 288.277 92.6905 286.839 94.1177C285.727 95.2731 276.833 89.6322 273.367 87.3895C273.367 87.3895 272.255 87.5933 270.424 86.0982C268.659 84.535 271.601 83.5836 272.844 83.2438Z" fill="#F5D5D5"/>
<path d="M283.046 61.9711C282.261 63.6701 284.288 63.1944 284.419 64.3498C284.55 65.5051 281.803 65.0294 281.084 63.4662C280.691 62.5827 280.103 62.7187 281.018 61.8351C281.934 60.9516 280.626 60.0681 279.841 60.6118C279.057 61.1555 278.533 60.2041 278.403 59.5244C278.272 58.8448 275.983 59.6604 274.479 59.5244C272.975 59.3885 271.144 58.3011 271.928 56.6021C272.713 54.835 273.236 56.0584 273.694 55.4467C274.152 54.835 272.648 54.4273 273.76 53.6797C274.871 52.9321 275.591 54.3593 276.114 53.6797C276.572 52.9321 277.945 53.2039 278.664 52.5243C279.384 51.8447 280.168 53.2719 280.561 53.068C280.953 52.8641 282.588 53.3399 282.85 55.8545C283.111 58.437 283.307 57.4176 283.634 58.7089C283.961 59.9322 283.046 61.9711 283.046 61.9711Z" fill="#8EB4FF"/>
<path d="M272.386 85.0785L263.558 77.5347L268.659 87.1853L277.422 95.2049L272.386 85.0785Z" fill="#FF5A6F"/>
<path d="M264.8 79.845C262.511 83.0392 263.558 84.5344 264.212 85.4858C264.866 86.3694 271.405 90.583 272.321 92.2821C273.236 93.9811 275.46 93.5734 276.245 93.0976C277.029 92.6898 277.487 91.1267 276.964 89.9714C276.375 88.5441 274.217 89.9034 274.217 89.9034L266.5 83.1751L264.8 79.845Z" fill="#F5D5D5"/>
<path d="M285.923 81.0679C287.362 79.8446 291.089 81.8155 291.416 83.9903L292.332 82.835L289.847 75.4271L287.427 73.1843L286.185 74.1358L285.923 81.0679Z" fill="#8EB4FF"/>
<path d="M241.715 156.304C235.306 156.304 230.14 159.09 230.14 162.556C230.14 166.022 235.306 168.809 241.715 168.809H300.637V156.236H241.715V156.304Z" fill="url(#paint12_linear_1861_42714)"/>
<path d="M221.966 62.4473C220.592 60.5443 219.677 60.2725 218.957 59.457C218.238 58.6414 218.696 58.4375 219.219 58.7773C219.742 59.1171 220.069 59.389 220.004 59.1171C220.004 58.9812 220.069 58.4375 218.499 57.554C216.93 56.6705 216.407 55.3792 217.322 55.787C218.238 56.1268 218.696 56.9424 219.677 56.8064C220.658 56.6705 221.246 55.9909 221.966 57.3501C222.685 58.7094 223.339 60.8842 223.339 60.8842L221.966 62.4473Z" fill="#F5D5D5"/>
<path d="M212.941 106.079C211.371 107.438 211.044 107.302 209.933 108.05C208.821 108.797 207.382 108.729 207.447 109.137C207.513 109.545 209.279 109.069 209.671 109.069C209.933 109.069 210.194 110.36 211.044 110.496C212.483 110.7 212.548 109.069 213.333 108.389C214.183 107.778 212.941 106.079 212.941 106.079Z" fill="#F5D5D5"/>
<path d="M233.867 81.1376C236.614 78.8269 244.004 81.3415 245.9 86.3707C245.9 86.3707 243.219 80.1181 241.257 77.0598C239.23 74.0015 230.859 69.584 230.271 68.7684C229.747 67.9529 225.693 62.0402 223.731 60.2052C222.423 58.9819 220.854 61.7683 221.311 62.5159C223.796 66.8655 227.393 72.6423 227.393 72.6423L233.867 81.1376Z" fill="#8EB4FF"/>
<path d="M231.252 163.439C230.598 164.594 234.325 166.294 236.026 166.701C237.072 166.973 238.38 168.4 239.426 168.129C241.977 167.381 240.865 165.342 240.472 164.459C239.819 163.099 238.707 163.167 238.707 163.167C238.707 163.167 235.96 163.303 235.11 163.099C234.325 162.895 232.167 161.876 231.252 163.439Z" fill="#8992F5"/>
<path d="M240.93 157.187C240.276 158.343 244.004 160.042 245.704 160.449C246.75 160.721 248.058 162.148 249.105 161.877C251.655 161.129 250.543 159.09 250.151 158.207C249.497 156.847 248.385 156.915 248.385 156.915C248.385 156.915 245.639 157.051 244.788 156.847C243.938 156.643 241.78 155.624 240.93 157.187Z" fill="#8992F5"/>
<path d="M249.366 107.099C251.459 118.584 248.32 133.4 248.32 136.391C248.255 141.284 248.908 152.43 249.366 157.051C249.432 157.799 246.881 158.682 246.62 158.003C244.004 150.391 240.211 137.002 240.407 134.895C240.799 131.293 238.51 106.623 238.51 106.623L241.977 101.526C242.042 101.526 247.666 97.9918 249.366 107.099Z" fill="url(#paint13_linear_1861_42714)"/>
<path d="M231.905 103.769C228.897 114.371 232.952 129.73 233.671 141.556C233.867 144.41 235.241 157.867 236.745 163.712C237.006 164.595 240.603 165.954 240.472 163.644C240.211 158.546 240.865 146.245 241.126 142.303C242.238 129.051 245.769 107.235 245.769 107.235L231.905 103.769Z" fill="url(#paint14_linear_1861_42714)"/>
<path d="M249.759 104.176C245.05 96.9041 248.843 95.0011 245.704 85.0107C242.892 76.0397 239.034 76.9911 234.587 78.4863C233.737 78.8941 226.347 82.0203 228.44 87.1175C229.813 90.3797 229.551 94.1176 228.897 99.7585C227.851 109.069 228.767 114.37 230.859 115.458C237.53 118.924 254.271 111.176 249.759 104.176Z" fill="url(#paint15_linear_1861_42714)"/>
<path d="M231.252 81.1362C234.325 80.3887 231.448 106.35 229.421 94.4568C229.421 94.4568 227.72 99.4181 224.516 102.205C221.377 104.923 218.434 105.807 214.053 108.185C212.875 108.865 212.025 106.622 212.679 106.01C215.164 103.7 217.715 100.845 221.246 97.719C222.358 96.6996 228.374 81.8159 231.252 81.1362Z" fill="#8EB4FF"/>
<path d="M237.66 66.8652C231.905 69.4478 231.252 71.2148 231.448 72.5061C231.644 73.7974 232.886 73.8654 233.344 75.2926C233.802 76.7198 233.737 77.3994 233.213 78.8266C232.886 79.846 234.979 79.7101 236.287 78.7586C237.595 77.8072 238.053 77.6712 237.53 75.3605C236.941 73.0498 239.23 72.642 239.491 69.9235C239.688 67.1371 237.66 66.8652 237.66 66.8652Z" fill="#F5D5D5"/>
<path d="M237.072 66.5248C235.633 66.9326 236.614 71.3501 236.353 71.4861C236.353 71.4861 237.661 71.4861 237.007 72.4375C236.353 73.389 235.699 72.7094 235.699 72.7094C235.699 72.7094 235.568 73.9327 236.353 74.4084C237.203 74.8842 237.399 74.7483 237.399 74.7483C237.399 74.7483 239.492 74.9521 240.996 73.2531C242.761 71.2822 240.211 65.6413 237.072 66.5248Z" fill="#323CD8"/>
<path d="M240.865 71.1469C240.276 71.3508 240.472 72.5062 240.669 72.7101C240.93 72.914 242.827 73.9334 242.827 76.0402C242.827 78.215 241.323 77.9432 241.192 81.4092C241.061 84.8753 249.955 87.322 248.974 90.1764C247.993 93.0308 244.527 91.1278 244.004 93.9143C243.808 95.1376 244.2 96.6328 249.366 95.4774C254.467 94.3221 254.99 89.2929 251.459 84.5355C247.928 79.7782 249.824 77.1956 248.974 74.8169C248.124 72.4382 243.808 70.3314 240.865 71.1469Z" fill="#323CD8"/>
<path d="M244.947 189.805C243.49 191.319 242.519 193.373 242.519 195.139V199.535C242.519 202.058 244.496 203.067 246.923 201.805L251.154 199.607C251.847 199.247 252.541 198.706 253.13 198.094C254.587 196.58 255.558 194.526 255.558 192.76V188.4C255.558 185.877 253.581 184.868 251.154 186.129L246.923 188.327C246.23 188.652 245.536 189.192 244.947 189.805Z" fill="white"/>
<path d="M251.119 218.707L246.888 220.905C244.461 222.167 242.484 221.158 242.484 218.635V214.238C242.484 211.716 244.461 208.653 246.888 207.391L251.119 205.193C253.546 203.932 255.523 204.941 255.523 207.463V211.824C255.523 214.346 253.546 217.446 251.119 218.707Z" fill="#4066FF"/>
<path d="M251.119 237.771L246.888 239.969C244.461 241.231 242.484 240.221 242.484 237.699V233.302C242.484 230.78 244.461 227.716 246.888 226.455L251.119 224.257C253.546 222.996 255.523 224.005 255.523 226.527V230.924C255.523 233.446 253.546 236.51 251.119 237.771Z" fill="#F4F5FC"/>
<path d="M263.325 180.255C261.869 181.768 260.898 183.823 260.898 185.588V189.985C260.898 192.508 262.875 193.517 265.302 192.255L269.533 190.057C270.226 189.697 270.92 189.156 271.509 188.544C272.966 187.03 273.937 184.976 273.937 183.21V178.813C273.937 176.291 271.96 175.282 269.533 176.543L265.302 178.741C264.574 179.102 263.915 179.642 263.325 180.255Z" fill="#42DDFF"/>
<path d="M269.498 209.157L265.267 211.355C262.84 212.617 260.864 211.607 260.864 209.085V204.688C260.864 202.166 262.84 199.102 265.267 197.841L269.498 195.643C271.925 194.382 273.902 195.391 273.902 197.913V202.31C273.867 204.832 271.925 207.896 269.498 209.157Z" fill="#F4F5FC"/>
<path d="M269.498 228.221L265.267 230.419C262.84 231.68 260.864 230.671 260.864 228.149V223.752C260.864 221.229 262.84 218.166 265.267 216.905L269.498 214.707C271.925 213.445 273.902 214.454 273.902 216.977V221.374C273.867 223.896 271.925 226.959 269.498 228.221Z" fill="#582FEC"/>
<path d="M270.365 201.481C270.33 201.517 270.261 201.553 270.226 201.553C270.33 201.229 270.365 200.941 270.365 200.616C270.365 199.139 269.22 198.562 267.833 199.283C266.412 200.004 265.302 201.805 265.302 203.247C265.302 203.319 265.302 203.391 265.302 203.463C265.129 203.499 264.99 203.571 264.817 203.643C263.742 204.184 262.875 205.553 262.875 206.634C262.875 207.752 263.742 208.184 264.817 207.643L266.932 206.526V204.508L265.683 205.157L267.66 202.094L269.637 203.103L268.388 203.751V205.77L270.365 204.724C270.365 204.724 270.365 204.724 270.4 204.724C271.266 204.256 271.995 203.175 271.995 202.238C271.995 201.301 271.232 201.049 270.365 201.481Z" fill="#42DDFF"/>
<path d="M253.234 229.915C253.234 232.329 251.362 235.284 249.004 236.51C248.172 236.942 247.374 237.086 246.715 237.014L248.761 233.843C248.9 233.591 249.143 233.41 249.351 233.338C249.975 233.122 250.599 232.618 251.085 231.861C251.57 231.104 251.743 230.311 251.605 229.734L250.183 231.933L249.143 231.969L248.657 231.14L250.079 228.942C249.455 229.122 248.761 229.662 248.276 230.419C247.86 231.104 247.652 231.789 247.721 232.365C247.756 232.581 247.686 232.798 247.513 233.014L245.398 236.293C245.016 235.825 244.773 235.176 244.773 234.311C244.773 231.897 246.646 228.942 249.004 227.716C251.362 226.527 253.234 227.5 253.234 229.915Z" fill="#42DDFF"/>
<path d="M252.576 193.553C252.472 193.445 250.807 193.769 250.356 193.661C250.356 193.661 250.356 193.661 250.322 193.661C251.05 192.652 251.535 191.319 251.535 190.382C251.535 188.94 250.391 188.363 249.004 189.084C247.617 189.805 246.473 191.571 246.473 193.012C246.473 193.949 246.958 194.778 247.686 195.03C247.686 195.03 247.686 195.03 247.652 195.066C247.201 195.643 245.536 197.048 245.432 197.265C245.155 197.913 244.947 198.526 244.808 199.175L253.2 194.814C253.061 194.31 252.853 193.877 252.576 193.553Z" fill="#4066FF"/>
<g opacity="0.3">
<path opacity="0.0909091" d="M278.965 297.953C285.137 294.782 292.419 294.782 298.557 297.953C298.592 297.953 298.626 297.989 298.661 297.989C300.291 298.854 301.782 299.719 303.134 300.656C304.833 301.845 304.833 304.404 303.134 305.593C301.782 306.53 300.291 307.431 298.661 308.26C298.626 308.26 298.592 308.296 298.557 308.296C292.385 311.467 285.102 311.467 278.965 308.296C278.93 308.296 278.895 308.26 278.861 308.26C277.231 307.395 275.74 306.53 274.387 305.593C272.688 304.404 272.688 301.845 274.387 300.656C275.74 299.719 277.231 298.818 278.861 297.989C278.93 297.989 278.965 297.953 278.965 297.953Z" fill="#A7B1F2"/>
<path opacity="0.1818" d="M278.236 297.557C284.409 294.385 291.691 294.385 297.829 297.557C297.864 297.557 297.898 297.593 297.933 297.593C299.563 298.458 301.054 299.323 302.406 300.26C304.105 301.449 304.105 304.007 302.406 305.197C301.054 306.134 299.563 307.035 297.933 307.863C297.898 307.863 297.864 307.899 297.829 307.899C291.656 311.071 284.374 311.071 278.236 307.899C278.202 307.899 278.167 307.863 278.132 307.863C276.503 306.999 275.012 306.134 273.659 305.197C271.96 304.007 271.96 301.449 273.659 300.26C275.012 299.323 276.503 298.422 278.132 297.593C278.167 297.593 278.202 297.557 278.236 297.557Z" fill="#A7B1F2"/>
<path opacity="0.2727" d="M277.473 297.16C283.646 293.989 290.928 293.989 297.066 297.16C297.1 297.16 297.135 297.196 297.17 297.196C298.8 298.061 300.291 298.926 301.643 299.863C303.342 301.053 303.342 303.611 301.643 304.8C300.291 305.737 298.8 306.638 297.17 307.467C297.135 307.467 297.1 307.503 297.066 307.503C290.893 310.674 283.611 310.674 277.473 307.503C277.439 307.503 277.404 307.467 277.369 307.467C275.74 306.602 274.248 305.737 272.896 304.8C271.197 303.611 271.197 301.053 272.896 299.863C274.248 298.926 275.74 298.025 277.369 297.196C277.404 297.196 277.439 297.16 277.473 297.16Z" fill="#A7B1F2"/>
<path opacity="0.3636" d="M276.711 296.764C282.883 293.593 290.165 293.593 296.303 296.764C296.338 296.764 296.372 296.8 296.407 296.8C298.037 297.665 299.528 298.53 300.88 299.467C302.58 300.656 302.58 303.215 300.88 304.404C299.528 305.341 298.037 306.242 296.407 307.071C296.372 307.071 296.338 307.107 296.303 307.107C290.131 310.278 282.848 310.278 276.711 307.107C276.676 307.107 276.641 307.071 276.607 307.071C274.977 306.206 273.486 305.341 272.133 304.404C270.434 303.215 270.434 300.656 272.133 299.467C273.486 298.53 274.977 297.629 276.607 296.8C276.641 296.8 276.676 296.8 276.711 296.764Z" fill="#A7B1F2"/>
<path opacity="0.4545" d="M275.948 296.367C282.12 293.196 289.402 293.196 295.54 296.367C295.575 296.367 295.609 296.404 295.644 296.404C297.274 297.268 298.765 298.133 300.117 299.07C301.816 300.26 301.816 302.818 300.117 304.007C298.765 304.944 297.274 305.845 295.644 306.674C295.609 306.674 295.575 306.71 295.54 306.71C289.367 309.882 282.085 309.882 275.948 306.71C275.913 306.71 275.878 306.674 275.843 306.674C274.214 305.809 272.723 304.944 271.37 304.007C269.671 302.818 269.671 300.26 271.37 299.07C272.723 298.133 274.214 297.232 275.843 296.404C275.878 296.404 275.913 296.404 275.948 296.367Z" fill="#A7B1F2"/>
<path opacity="0.5455" d="M275.185 295.971C281.357 292.8 288.639 292.8 294.777 295.971C294.812 295.971 294.847 296.007 294.881 296.007C296.511 296.872 298.002 297.737 299.355 298.674C301.054 299.863 301.054 302.422 299.355 303.611C298.002 304.548 296.511 305.449 294.881 306.278C294.847 306.278 294.812 306.314 294.777 306.314C288.605 309.485 281.323 309.485 275.185 306.314C275.15 306.314 275.115 306.278 275.081 306.278C273.451 305.413 271.96 304.548 270.607 303.611C268.908 302.422 268.908 299.863 270.607 298.674C271.96 297.737 273.451 296.836 275.081 296.007C275.15 296.007 275.15 296.007 275.185 295.971Z" fill="#A7B1F2"/>
<path opacity="0.6364" d="M274.457 295.575C280.629 292.403 287.911 292.403 294.049 295.575C294.084 295.575 294.118 295.611 294.153 295.611C295.783 296.475 297.274 297.34 298.626 298.277C300.325 299.467 300.325 302.025 298.626 303.214C297.274 304.151 295.783 305.052 294.153 305.881C294.118 305.881 294.084 305.917 294.049 305.917C287.876 309.089 280.594 309.089 274.457 305.917C274.422 305.917 274.387 305.881 274.353 305.881C272.723 305.016 271.232 304.151 269.879 303.214C268.18 302.025 268.18 299.467 269.879 298.277C271.232 297.34 272.723 296.439 274.353 295.611C274.387 295.611 274.422 295.611 274.457 295.575Z" fill="#A7B1F2"/>
<path opacity="0.7273" d="M273.694 295.178C279.866 292.007 287.148 292.007 293.286 295.178C293.321 295.178 293.355 295.214 293.39 295.214C295.02 296.079 296.511 296.944 297.863 297.881C299.563 299.07 299.563 301.629 297.863 302.818C296.511 303.755 295.02 304.656 293.39 305.485C293.355 305.485 293.321 305.521 293.286 305.521C287.114 308.692 279.832 308.692 273.694 305.521C273.659 305.521 273.624 305.485 273.59 305.485C271.96 304.62 270.469 303.755 269.116 302.818C267.417 301.629 267.417 299.07 269.116 297.881C270.469 296.944 271.96 296.043 273.59 295.214C273.624 295.214 273.659 295.214 273.694 295.178Z" fill="#A7B1F2"/>
<path opacity="0.8182" d="M272.931 294.818C279.103 291.647 286.385 291.647 292.523 294.818C292.558 294.818 292.592 294.854 292.627 294.854C294.257 295.719 295.748 296.584 297.1 297.521C298.8 298.71 298.8 301.269 297.1 302.458C295.748 303.395 294.257 304.296 292.627 305.125C292.592 305.125 292.558 305.161 292.523 305.161C286.351 308.332 279.068 308.332 272.931 305.161C272.896 305.161 272.861 305.125 272.827 305.125C271.197 304.26 269.706 303.395 268.353 302.458C266.654 301.269 266.654 298.71 268.353 297.521C269.706 296.584 271.197 295.683 272.827 294.854C272.861 294.818 272.896 294.818 272.931 294.818Z" fill="#A7B1F2"/>
<path opacity="0.9091" d="M272.168 294.422C278.34 291.25 285.623 291.25 291.76 294.422C291.795 294.422 291.83 294.458 291.864 294.458C293.494 295.323 294.985 296.188 296.338 297.124C298.037 298.314 298.037 300.872 296.338 302.062C294.985 302.999 293.494 303.9 291.864 304.728C291.83 304.728 291.795 304.764 291.76 304.764C285.588 307.936 278.306 307.936 272.168 304.764C272.133 304.764 272.099 304.728 272.064 304.728C270.434 303.864 268.943 302.999 267.591 302.062C265.891 300.872 265.891 298.314 267.591 297.124C268.943 296.188 270.434 295.287 272.064 294.458C272.099 294.422 272.133 294.422 272.168 294.422Z" fill="#A7B1F2"/>
<path opacity="0.3" d="M271.405 294.025C277.578 290.854 284.86 290.854 290.998 294.025C291.032 294.025 291.067 294.061 291.102 294.061C292.731 294.926 294.222 295.791 295.575 296.728C297.274 297.917 297.274 300.476 295.575 301.665C294.222 302.602 292.731 303.503 291.102 304.332C291.067 304.332 291.032 304.368 290.998 304.368C284.825 307.539 277.543 307.539 271.405 304.368C271.37 304.368 271.336 304.332 271.301 304.332C269.671 303.467 268.18 302.602 266.828 301.665C265.129 300.476 265.129 297.917 266.828 296.728C268.18 295.791 269.671 294.89 271.301 294.061C271.37 294.061 271.37 294.025 271.405 294.025Z" fill="#A7B1F2"/>
</g>
<path d="M291.032 297.125C288.431 296.224 284.166 293.449 282.363 291.755C280.491 289.989 281.808 287.971 284.166 288.368L294.292 289.701V294.782C294.292 296.404 292.87 297.737 291.032 297.125Z" fill="#1E4ABF"/>
<path d="M290.547 294.134C292.697 294.134 294.396 292.332 294.396 290.133V248.114C294.396 245.879 292.662 244.114 290.547 244.114C288.397 244.114 286.698 245.915 286.698 248.114V290.133C286.663 292.332 288.397 294.134 290.547 294.134Z" fill="#3176FF"/>
<path d="M284.305 299.503L283.854 295.214L270.989 298.494C269.116 298.998 269.151 302.458 271.44 302.458H282.12C283.646 302.458 284.409 300.692 284.305 299.503Z" fill="#1E4ABF"/>
<path d="M280.525 299.575C280.907 299.575 281.323 299.503 281.704 299.395C283.75 298.71 284.86 296.476 284.201 294.35L278.93 277.124C277.959 273.952 277.924 270.601 278.791 267.466C280.941 259.79 283.091 253.591 285.207 249.051C286.143 247.068 285.311 244.654 283.403 243.681C281.496 242.708 279.173 243.573 278.237 245.555C275.983 250.492 273.659 257.087 271.371 265.195C270.053 269.88 270.122 274.853 271.544 279.538L276.815 296.764C277.37 298.494 278.895 299.575 280.525 299.575Z" fill="#3176FF"/>
<path d="M285.068 221.302L284.582 225.482L289.125 225.23V220.149L285.068 221.302Z" fill="#F3ABC7"/>
<path d="M283.438 220.365C283.438 221.014 284.305 222.023 285.484 221.518C285.9 221.374 288.466 220.149 288.466 220.149C288.466 220.149 288.396 215.68 287.876 215.284C287.183 214.743 285.414 214.599 284.721 215.14C283.715 215.932 283.472 218.887 283.438 220.365Z" fill="#F3ABC7"/>
<path d="M284.825 216.545C285.449 216.941 285.102 218.238 285.033 218.707C284.929 219.608 287.252 221.518 289.125 221.482C289.125 219.572 291.968 215.968 289.576 215.968C288.709 213.157 284.79 214.707 283.889 214.238C283.334 214.779 283.646 215.788 284.825 216.545Z" fill="#1E4ABF"/>
<path d="M285.345 217.554L284.79 218.995C284.652 219.284 284.374 219.428 284.062 219.356L283.785 219.284C283.507 219.211 283.195 219.356 283.091 219.608L282.363 221.049C282.224 221.338 282.294 221.698 282.571 221.878L282.675 221.95C282.779 222.022 282.918 222.058 283.056 222.058L284.756 221.986C285.033 221.986 285.241 221.806 285.31 221.554L286.143 218.959L285.345 217.554Z" fill="#1E4ABF"/>
<path d="M275.74 251.861L275.324 257.231C276.225 259.97 293.356 255.717 293.911 253.123C293.911 253.123 294.361 249.951 294.847 245.987L275.74 251.861Z" fill="#3176FF"/>
<path d="M278.722 228.185C282.398 225.194 288.744 223.212 293.113 222.707C295.54 222.419 297.413 224.293 297.274 226.779C296.823 233.626 294.985 246.78 294.985 246.78C294.396 249.519 276.295 254.024 275.324 251.141L276.849 231.68C276.953 230.347 277.647 229.05 278.722 228.185Z" fill="#83A4FF"/>
<path d="M266.724 224.004C267.071 223.68 267.591 223.716 267.903 224.077L267.868 223.788L267.383 222.563C267.313 222.383 267.383 222.203 267.521 222.131C267.695 222.058 267.868 222.094 267.972 222.275L268.666 223.644L268.874 224.617L269.082 223.464C269.117 223.284 269.29 223.14 269.463 223.176C269.637 223.212 269.775 223.356 269.775 223.536L269.741 226.311C269.741 227.176 269.463 227.608 268.839 227.788L268.596 227.86L267.695 228.113C267.244 228.257 266.759 227.969 266.62 227.5L266.169 225.878L265.926 224.761L266.724 224.004Z" fill="#F3ABC7"/>
<path d="M269.429 242.564C272.515 242.564 275.774 238.636 280.456 232.437C281.115 231.572 280.976 230.311 280.144 229.626C279.311 228.942 278.098 229.086 277.439 229.951C275.532 232.473 273.832 234.672 272.272 236.293C270.573 238.095 269.775 238.42 269.498 238.492C269.359 238.239 269.082 237.447 269.22 235.284C269.324 233.41 269.706 231.356 269.949 229.987L270.053 229.374C270.261 228.293 269.567 227.248 268.492 227.032C267.452 226.815 266.446 227.536 266.238 228.653L266.134 229.23C265.337 233.663 263.984 241.086 268.354 242.384C268.735 242.528 269.082 242.564 269.429 242.564Z" fill="#83A4FF"/>
<path d="M183.893 265.914V248.968C183.893 248.809 184.02 248.623 184.25 248.518L188.734 246.187C189.218 245.923 190.033 245.923 190.517 246.187L195.002 248.518C195.256 248.65 195.358 248.809 195.358 248.968V265.914H183.893Z" fill="url(#paint16_linear_1861_42714)"/>
<path d="M189.625 258.394C188.759 258.394 187.893 258.209 187.23 257.864L176.3 252.198C175.281 251.668 175.128 250.98 175.128 250.609C175.128 250.239 175.281 249.55 176.3 249.021L187.23 243.328C188.581 242.639 190.67 242.639 192.021 243.328L202.951 249.021C203.97 249.55 204.123 250.239 204.123 250.609C204.123 250.98 203.97 251.668 202.951 252.198L192.021 257.891C191.358 258.235 190.492 258.394 189.625 258.394ZM189.625 243.857C188.912 243.857 188.224 243.99 187.689 244.254L176.759 249.947C176.376 250.133 176.147 250.397 176.147 250.609C176.147 250.821 176.376 251.059 176.759 251.271L187.689 256.964C188.734 257.52 190.517 257.52 191.562 256.964L202.492 251.271C202.875 251.086 203.104 250.821 203.104 250.609C203.104 250.397 202.875 250.159 202.492 249.947L191.562 244.254C191.052 243.99 190.339 243.857 189.625 243.857Z" fill="#02CEFF"/>
<path d="M200.25 236.046L191.383 231.439C190.415 230.936 188.836 230.936 187.867 231.439L179.001 236.046C178.517 236.311 178.262 236.629 178.262 236.946V248.624C178.262 248.941 178.517 249.286 179.001 249.524L187.867 254.158C188.836 254.661 190.415 254.661 191.383 254.158L200.25 249.55C200.734 249.286 200.989 248.968 200.989 248.65V236.973C200.963 236.629 200.734 236.311 200.25 236.046Z" fill="url(#paint17_linear_1861_42714)"/>
<path d="M200.25 237.873L191.383 242.48C190.415 242.984 188.835 242.984 187.867 242.48L179.001 237.873C178.032 237.37 178.032 236.549 179.001 236.046L187.867 231.439C188.835 230.936 190.415 230.936 191.383 231.439L200.25 236.046C201.218 236.549 201.218 237.37 200.25 237.873Z" fill="url(#paint18_linear_1861_42714)"/>
<path d="M195.002 237.423L190.517 239.753C190.033 240.018 189.218 240.018 188.734 239.753L184.249 237.423C183.765 237.158 183.765 236.761 184.249 236.496L188.734 234.166C189.218 233.901 190.033 233.901 190.517 234.166L195.002 236.496C195.511 236.761 195.511 237.158 195.002 237.423Z" fill="#D3DAF3"/>
<path d="M183.893 220V236.946C183.893 237.105 184.02 237.291 184.25 237.397L188.734 239.727C189.218 239.991 190.033 239.991 190.517 239.727L195.002 237.397C195.256 237.264 195.358 237.105 195.358 236.946V220H183.893Z" fill="url(#paint19_linear_1861_42714)"/>
<g style="mix-blend-mode:color">
<rect width="302.144" height="380" fill="#346DFF"/>
</g>
</g>
</g>
<defs>
<linearGradient id="paint0_linear_1861_42714" x1="215.585" y1="163.425" x2="335.831" y2="163.425" gradientUnits="userSpaceOnUse">
<stop stop-color="#CED4FF"/>
<stop offset="1" stop-color="#CED4FF" stop-opacity="0"/>
</linearGradient>
<linearGradient id="paint1_linear_1861_42714" x1="147.65" y1="173.79" x2="297.394" y2="200.989" gradientUnits="userSpaceOnUse">
<stop offset="0.4252" stop-color="#F3F4FF"/>
<stop offset="0.489581" stop-color="#E5E8FE"/>
</linearGradient>
<linearGradient id="paint2_linear_1861_42714" x1="129.936" y1="152.349" x2="308.936" y2="152.349" gradientUnits="userSpaceOnUse">
<stop stop-color="#F7F8FF"/>
<stop offset="1" stop-color="#F2F3FA"/>
</linearGradient>
<linearGradient id="paint3_linear_1861_42714" x1="188.97" y1="146.37" x2="270.561" y2="146.37" gradientUnits="userSpaceOnUse">
<stop stop-color="#CED4FF"/>
<stop offset="1" stop-color="#CED4FF" stop-opacity="0"/>
</linearGradient>
<linearGradient id="paint4_linear_1861_42714" x1="156.116" y1="136.497" x2="252.194" y2="147.01" gradientUnits="userSpaceOnUse">
<stop offset="0.4252" stop-color="#F3F4FF"/>
<stop offset="0.489581" stop-color="#E5E8FE"/>
</linearGradient>
<linearGradient id="paint5_linear_1861_42714" x1="145.006" y1="103.32" x2="257.472" y2="103.32" gradientUnits="userSpaceOnUse">
<stop stop-color="#F7F8FF"/>
<stop offset="1" stop-color="#F2F3FA"/>
</linearGradient>
<linearGradient id="paint6_linear_1861_42714" x1="208.474" y1="94.3672" x2="185.997" y2="60.9765" gradientUnits="userSpaceOnUse">
<stop stop-color="white"/>
<stop offset="1"/>
</linearGradient>
<linearGradient id="paint7_linear_1861_42714" x1="206.857" y1="96.8638" x2="193.653" y2="72.7235" gradientUnits="userSpaceOnUse">
<stop stop-color="#017AFF"/>
<stop offset="1" stop-color="#017AFF" stop-opacity="0"/>
</linearGradient>
<linearGradient id="paint8_linear_1861_42714" x1="266.787" y1="148.309" x2="337.264" y2="148.309" gradientUnits="userSpaceOnUse">
<stop stop-color="#CED4FF"/>
<stop offset="0.44929" stop-color="#CED4FF" stop-opacity="0"/>
</linearGradient>
<linearGradient id="paint9_linear_1861_42714" x1="277.959" y1="111.16" x2="270.033" y2="139.731" gradientUnits="userSpaceOnUse">
<stop stop-color="#BCC0E5"/>
<stop offset="1" stop-color="#C4CAFF"/>
</linearGradient>
<linearGradient id="paint10_linear_1861_42714" x1="286.887" y1="104.957" x2="283.879" y2="123.684" gradientUnits="userSpaceOnUse">
<stop stop-color="#BCC0E5"/>
<stop offset="1" stop-color="#CCD1FF"/>
</linearGradient>
<linearGradient id="paint11_linear_1861_42714" x1="286.916" y1="120.91" x2="292.856" y2="169.836" gradientUnits="userSpaceOnUse">
<stop stop-color="#2A4DAE"/>
<stop offset="1" stop-color="#5B68F5"/>
</linearGradient>
<linearGradient id="paint12_linear_1861_42714" x1="230.165" y1="162.514" x2="300.642" y2="162.514" gradientUnits="userSpaceOnUse">
<stop stop-color="#CED4FF"/>
<stop offset="1" stop-color="#CED4FF" stop-opacity="0"/>
</linearGradient>
<linearGradient id="paint13_linear_1861_42714" x1="247.64" y1="132.997" x2="258.567" y2="175.053" gradientUnits="userSpaceOnUse">
<stop stop-color="#8EB4FF"/>
<stop offset="1" stop-color="#4D7DFF"/>
</linearGradient>
<linearGradient id="paint14_linear_1861_42714" x1="242.608" y1="138.019" x2="252.404" y2="183.755" gradientUnits="userSpaceOnUse">
<stop stop-color="#8EB4FF"/>
<stop offset="1" stop-color="#4D7DFF"/>
</linearGradient>
<linearGradient id="paint15_linear_1861_42714" x1="234.389" y1="84.9923" x2="241.023" y2="112.803" gradientUnits="userSpaceOnUse">
<stop stop-color="#BCC0E5"/>
<stop offset="1" stop-color="white"/>
</linearGradient>
<linearGradient id="paint16_linear_1861_42714" x1="189.631" y1="266.068" x2="189.631" y2="246.042" gradientUnits="userSpaceOnUse">
<stop stop-color="white" stop-opacity="0"/>
<stop offset="1" stop-color="#02CEFF"/>
</linearGradient>
<linearGradient id="paint17_linear_1861_42714" x1="178.406" y1="242.803" x2="200.855" y2="242.803" gradientUnits="userSpaceOnUse">
<stop stop-color="#D3D7F2"/>
<stop offset="0.45" stop-color="#BBC9F8"/>
<stop offset="0.55" stop-color="#D3D7F2"/>
<stop offset="1" stop-color="#F2F3FF"/>
</linearGradient>
<linearGradient id="paint18_linear_1861_42714" x1="183.446" y1="240.173" x2="188.707" y2="230.05" gradientUnits="userSpaceOnUse">
<stop stop-color="#E8EAFB"/>
<stop offset="1" stop-color="white"/>
</linearGradient>
<linearGradient id="paint19_linear_1861_42714" x1="189.631" y1="219.858" x2="189.631" y2="239.885" gradientUnits="userSpaceOnUse">
<stop stop-color="white" stop-opacity="0"/>
<stop offset="1" stop-color="#02CEFF"/>
</linearGradient>
</defs>
</svg>
