<svg width="97" height="96" viewBox="0 0 97 96" fill="none" xmlns="http://www.w3.org/2000/svg">
<path d="M42.2226 92.4906L5.66383 71.1452C4.41678 70.4171 4.41153 68.6169 5.65431 67.8815L45.1349 44.5203C48.6489 42.4411 53.031 42.5035 56.4844 44.6819L91.2707 66.6259C92.466 67.3799 92.4434 69.1304 91.229 69.8533L53.2774 92.4439C49.8753 94.469 45.6417 94.4869 42.2226 92.4906Z" stroke="white"/>
<path d="M42.3358 87.6054L13.7911 70.9499C12.5434 70.2219 12.5382 68.421 13.7816 67.6857L44.6955 49.4054C48.2081 47.3283 52.5875 47.3906 56.0396 49.5669L83.1435 66.6535C84.3395 67.4075 84.3169 69.1587 83.1018 69.8815L53.3853 87.5587C49.9845 89.5818 45.7536 89.5996 42.3358 87.6054Z" fill="white"/>
<path fill-rule="evenodd" clip-rule="evenodd" d="M20.7218 69.928L42.4946 82.4337C45.8796 84.3779 50.0467 84.3605 53.4153 82.3879L76.174 69.0611C76.7769 68.7081 77.0897 68.1029 77.1094 67.489L77.1114 67.489V63.4604L72.5124 63.5212L55.6026 53.0276C52.1815 50.9046 47.8679 50.8437 44.3883 52.8691L25.0086 64.1499L19.7676 64.2193V68.315L19.7719 68.3149C19.7812 68.9443 20.0981 69.5697 20.7218 69.928Z" fill="#3796FF"/>
<path d="M42.4943 78.4338L20.7215 65.9281C19.4589 65.2029 19.4536 63.3833 20.712 62.6508L44.3879 48.8692C47.8676 46.8438 52.1812 46.9047 55.6022 49.0277L76.2153 61.8194C77.4264 62.571 77.4037 64.3409 76.1737 65.0612L53.4149 78.388C50.0463 80.3606 45.8793 80.378 42.4943 78.4338Z" fill="white"/>
<path opacity="0.7" d="M20.7218 65.8583L42.4946 78.3639C45.8796 80.3082 50.0467 80.2907 53.4153 78.3182L76.174 64.9914C76.7769 64.6383 77.0897 64.0332 77.1094 63.4193L77.1114 63.4193V59.3906V13.0001L19.7719 12.9999L19.7676 60.1496V64.2453L19.7719 64.2452C19.7812 64.8746 20.0981 65.5 20.7218 65.8583Z" fill="url(#paint0_linear_3401_56560)"/>
<g>
<g filter="url(#filter0_d_3401_56560)">
<path fill-rule="evenodd" clip-rule="evenodd" d="M30.2832 54.0891L46.9054 63.8535C47.6125 64.2689 48.4874 64.2755 49.2007 63.871L66.4598 54.0837C66.7991 53.8913 66.8419 53.4387 66.586 53.1812V49.3535L59.925 49.2919L49.534 43.2602C48.8212 42.8465 47.9414 42.8465 47.2287 43.2604L37.2026 49.0818L30.1528 49.0166V53.2033C29.9124 53.4603 29.9555 53.8966 30.2832 54.0891Z" fill="url(#paint1_linear_3401_56560)"/>
</g>
<path d="M31.1455 51.8621L41.4247 57.9047V59.006L31.1455 52.9634V51.8621Z" fill="#1A88FF"/>
<path d="M42.084 58.3068L43.5512 59.2463V60.3476L42.084 59.4081V58.3068Z" fill="#1A88FF"/>
<path d="M44.3193 59.7722L45.7865 60.7118V61.8131L44.3193 60.8735V59.7722Z" fill="#1A88FF"/>
<path d="M46.9051 59.4083L30.2829 49.6439C29.9041 49.4214 29.9055 48.8732 30.2854 48.6527L47.2283 38.8151C47.941 38.4013 48.8209 38.4012 49.5337 38.815L66.4644 48.6428C66.8477 48.8653 66.845 49.4198 66.4594 49.6384L49.2004 59.4258C48.4871 59.8303 47.6122 59.8236 46.9051 59.4083Z" fill="url(#paint2_linear_3401_56560)"/>
<path fill-rule="evenodd" clip-rule="evenodd" d="M30.2832 46.8903L46.9054 56.6547C47.6125 57.07 48.4874 57.0767 49.2007 56.6722L66.4598 46.8848C66.7991 46.6924 66.8419 46.2398 66.586 45.9824V42.1546L59.925 42.093L49.534 36.0614C48.8212 35.6476 47.9414 35.6477 47.2287 36.0615L37.2026 41.8829L30.1528 41.8177V46.0045C29.9124 46.2614 29.9555 46.6978 30.2832 46.8903Z" fill="url(#paint3_linear_3401_56560)"/>
<path d="M31.1455 44.6632L41.4247 50.7058V51.8071L31.1455 45.7645V44.6632Z" fill="#1A88FF"/>
<path d="M42.084 51.1078L43.5512 52.0474V53.1487L42.084 52.2091V51.1078Z" fill="#1A88FF"/>
<path d="M44.3193 52.5726L45.7865 53.5122V54.6135L44.3193 53.6739V52.5726Z" fill="#1A88FF"/>
<path d="M46.9051 52.2092L30.2829 42.4448C29.9041 42.2223 29.9055 41.6741 30.2854 41.4536L47.2283 31.616C47.941 31.2022 48.8209 31.2021 49.5337 31.6159L66.4644 41.4437C66.8477 41.6662 66.845 42.2207 66.4594 42.4394L49.2004 52.2267C48.4871 52.6312 47.6122 52.6245 46.9051 52.2092Z" fill="url(#paint4_linear_3401_56560)"/>
<path fill-rule="evenodd" clip-rule="evenodd" d="M30.2832 40.2041L46.9054 49.9685C47.6125 50.3839 48.4874 50.3905 49.2007 49.986L66.4598 40.1987C66.7991 40.0063 66.8419 39.5537 66.586 39.2962V35.4685L59.925 35.4069L49.534 29.3752C48.8212 28.9615 47.9414 28.9615 47.2287 29.3753L37.2026 35.1968L30.1528 35.1316V39.3183C29.9124 39.5753 29.9555 40.0116 30.2832 40.2041Z" fill="url(#paint5_linear_3401_56560)"/>
<path d="M31.1455 37.9771L41.4247 44.0197V45.121L31.1455 39.0783V37.9771Z" fill="#1A88FF"/>
<path d="M42.084 44.4218L43.5512 45.3613V46.4626L42.084 45.5231V44.4218Z" fill="#1A88FF"/>
<path d="M44.3193 45.8866L45.7865 46.8262V47.9275L44.3193 46.9879V45.8866Z" fill="#1A88FF"/>
<path d="M46.9051 45.5227L30.2829 35.7583C29.9041 35.5358 29.9055 34.9876 30.2854 34.767L47.2283 24.9295C47.941 24.5157 48.8209 24.5156 49.5337 24.9294L66.4644 34.7572C66.8477 34.9797 66.845 35.5342 66.4594 35.7528L49.2004 45.5402C48.4871 45.9447 47.6122 45.938 46.9051 45.5227Z" fill="url(#paint6_linear_3401_56560)"/>
</g>
<g>
<circle cx="63.8828" cy="62.1333" r="1" fill="#017AFF"/>
<circle cx="27.8828" cy="61.1333" r="1" fill="#017AFF"/>
<circle cx="25.8828" cy="43.1333" r="1" fill="#017AFF"/>
<circle cx="32.8828" cy="24.1333" r="1" fill="#017AFF"/>
<circle cx="28.8828" cy="31.1333" r="1" fill="#017AFF"/>
<circle cx="70.8828" cy="20.1333" r="1" fill="#017AFF"/>
<circle cx="56.8828" cy="22.1333" r="1" fill="#017AFF"/>
<circle cx="69.8828" cy="46.1333" r="1" fill="#017AFF"/>
<circle cx="68.3828" cy="55.6333" r="0.5" fill="#017AFF"/>
<circle cx="37.3828" cy="21.6333" r="0.5" fill="#017AFF"/>
<circle cx="68.3828" cy="28.6333" r="0.5" fill="#017AFF"/>
<circle cx="62.3828" cy="35.6333" r="0.5" fill="#017AFF"/>
<circle cx="25.3828" cy="28.6333" r="0.5" fill="#017AFF"/>
<circle cx="47.3828" cy="14.6333" r="0.5" fill="#017AFF"/>
<circle cx="32.3828" cy="17.6333" r="0.5" fill="#017AFF"/>
<circle cx="61.3828" cy="23.6333" r="0.5" fill="#017AFF"/>
<circle cx="68.3828" cy="38.6333" r="0.5" fill="#017AFF"/>
<circle cx="23.3828" cy="48.6333" r="0.5" fill="#017AFF"/>
<circle cx="32.3828" cy="65.6333" r="0.5" fill="#017AFF"/>
</g>
<defs>
<filter id="filter0_d_3401_56560" x="24.2605" y="42.95" width="48.23" height="37.2905" filterUnits="userSpaceOnUse" color-interpolation-filters="sRGB">
<feFlood flood-opacity="0" result="BackgroundImageFix"/>
<feColorMatrix in="SourceAlpha" type="matrix" values="0 0 0 0 0 0 0 0 0 0 0 0 0 0 0 0 0 0 127 0" result="hardAlpha"/>
<feOffset dy="10.3311"/>
<feGaussianBlur stdDeviation="2.86976"/>
<feComposite in2="hardAlpha" operator="out"/>
<feColorMatrix type="matrix" values="0 0 0 0 0.231526 0 0 0 0 0.59554 0 0 0 0 1 0 0 0 0.27 0"/>
<feBlend mode="normal" in2="BackgroundImageFix" result="effect1_dropShadow_3401_56560"/>
<feBlend mode="normal" in="SourceGraphic" in2="effect1_dropShadow_3401_56560" result="shape"/>
</filter>
<linearGradient id="paint0_linear_3401_56560" x1="48.4395" y1="13" x2="48.4395" y2="79.8099" gradientUnits="userSpaceOnUse">
<stop stop-color="white" stop-opacity="0"/>
<stop offset="1" stop-color="white" stop-opacity="0.67"/>
</linearGradient>
<linearGradient id="paint1_linear_3401_56560" x1="33.6375" y1="54.7184" x2="66.3398" y2="56.6891" gradientUnits="userSpaceOnUse">
<stop stop-color="#3C99FF"/>
<stop offset="0.424133" stop-color="#8EC4FF"/>
<stop offset="1" stop-color="#64AEFF"/>
</linearGradient>
<linearGradient id="paint2_linear_3401_56560" x1="37.7661" y1="44.8164" x2="64.7319" y2="49.677" gradientUnits="userSpaceOnUse">
<stop stop-color="#3A97FF"/>
<stop offset="1" stop-color="#5DABFF"/>
</linearGradient>
<linearGradient id="paint3_linear_3401_56560" x1="33.6375" y1="47.5195" x2="66.3398" y2="49.4903" gradientUnits="userSpaceOnUse">
<stop stop-color="#3C99FF"/>
<stop offset="0.424133" stop-color="#8EC4FF"/>
<stop offset="1" stop-color="#64AEFF"/>
</linearGradient>
<linearGradient id="paint4_linear_3401_56560" x1="37.7661" y1="37.6173" x2="64.7319" y2="42.4779" gradientUnits="userSpaceOnUse">
<stop stop-color="#3A97FF"/>
<stop offset="1" stop-color="#5DABFF"/>
</linearGradient>
<linearGradient id="paint5_linear_3401_56560" x1="33.6375" y1="40.8334" x2="66.3398" y2="42.8041" gradientUnits="userSpaceOnUse">
<stop stop-color="#3C99FF"/>
<stop offset="0.424133" stop-color="#8EC4FF"/>
<stop offset="1" stop-color="#64AEFF"/>
</linearGradient>
<linearGradient id="paint6_linear_3401_56560" x1="37.7661" y1="30.9308" x2="64.7319" y2="35.7914" gradientUnits="userSpaceOnUse">
<stop stop-color="#57A7FF"/>
<stop offset="1" stop-color="#ACD4FF"/>
</linearGradient>
</defs>
</svg>
