<svg width="302" height="380" viewBox="0 0 302 380" fill="none" xmlns="http://www.w3.org/2000/svg">
<g clip-path="url(#clip0_2929_69982)">
<g opacity="0.42">
<mask id="mask0_2929_69982" style="mask-type:alpha" maskUnits="userSpaceOnUse" x="-96" y="5" width="398" height="482">
<rect x="-96" y="5" width="398" height="481.656" fill="#017AFF"/>
</mask>
<g mask="url(#mask0_2929_69982)">
<g opacity="0.4">
<mask id="mask1_2929_69982" style="mask-type:alpha" maskUnits="userSpaceOnUse" x="-100" y="5" width="402" height="481">
<rect x="-100" y="5" width="401.988" height="480.81" fill="#017AFF"/>
</mask>
<g mask="url(#mask1_2929_69982)">
<path d="M78.8029 233.412L109.552 215.658L85.86 201.939C85.7088 201.888 85.5576 201.787 85.4568 201.686L85.356 201.636C81.2729 198.963 84.4486 193.717 94.9334 187.665C110.056 178.939 134.554 171.877 149.676 171.877C154.919 171.877 158.346 172.735 159.959 174.198H160.01L184.458 188.32C188.188 190.086 187.734 193.465 183.097 197.55L213.745 215.254C218.18 214.498 222.314 214.094 225.943 214.094C231.186 214.094 234.613 214.952 236.226 216.414H236.277L260.725 230.537C265.967 233.008 263.043 238.557 251.903 244.962C236.781 253.688 212.283 260.749 197.16 260.749C192.12 260.749 188.742 259.942 187.079 258.581L165.101 245.87L132.79 264.532L78.8029 233.412Z" fill="url(#paint0_linear_2929_69982)"/>
<path d="M204.172 154.93C204.172 170.717 193.082 189.934 179.422 197.852C165.761 205.771 154.671 199.366 154.671 183.528C154.671 167.741 165.761 148.524 179.422 140.605C193.082 132.686 204.172 139.092 204.172 154.93ZM200.442 157.048C200.442 143.631 191.015 138.184 179.422 144.892C167.777 151.601 158.402 167.943 158.402 181.359C158.402 194.776 167.828 200.223 179.422 193.515C191.015 186.806 200.442 170.515 200.442 157.048Z" fill="#CED3F8"/>
<path d="M179.421 193.567C191.066 186.859 200.441 170.517 200.441 157.1C200.441 143.684 191.015 138.236 179.421 144.945C178.968 145.197 178.514 145.499 178.06 145.802C177.355 158.361 168.987 172.837 158.452 179.697C158.401 180.251 158.401 180.857 158.401 181.411C158.351 194.828 167.777 200.275 179.421 193.567Z" fill="url(#paint1_linear_2929_69982)"/>
<path d="M206.791 153.419C206.791 170.87 194.542 192.105 179.42 200.831C164.297 209.556 152.048 202.495 152.048 185.043C152.048 167.592 164.297 146.357 179.42 137.632C194.542 128.906 206.791 135.967 206.791 153.419ZM204.17 154.932C204.17 139.145 193.08 132.739 179.42 140.607C165.759 148.526 154.669 167.743 154.669 183.53C154.669 199.317 165.759 205.723 179.42 197.855C193.08 189.936 204.17 170.719 204.17 154.932Z" fill="#C4C9EF"/>
<path d="M160.317 202.9C160.264 202.9 160.264 202.847 160.317 202.9V202.9Z" fill="#362B6E"/>
<path d="M177.052 123.206C172.062 119.877 164.904 120.129 156.99 124.669C141.867 133.395 129.618 154.629 129.618 172.081C129.618 180.958 132.794 187.111 137.885 189.936L159.863 202.646C155.024 199.721 152.05 193.668 152.05 185.043C152.05 167.592 164.299 146.357 179.421 137.631C187.335 133.042 194.493 132.84 199.483 136.169L177.052 123.206Z" fill="url(#paint2_linear_2929_69982)"/>
<path d="M250.695 143.128C254.979 140.656 254.979 136.571 250.695 134.099L214.199 113.016C209.915 110.545 202.858 110.545 198.573 113.016L162.985 133.595C158.701 136.066 158.701 140.152 162.985 142.623L199.48 163.707C203.765 166.178 210.822 166.178 215.107 163.707L250.695 143.128Z" fill="#C2C7E3"/>
<path d="M250.695 143.128C254.979 140.656 254.979 136.571 250.695 134.099L214.199 113.016C209.915 110.545 202.858 110.545 198.573 113.016L162.985 133.595C158.701 136.066 158.701 140.152 162.985 142.623L199.48 163.707C203.765 166.178 210.822 166.178 215.107 163.707L250.695 143.128Z" fill="#F6F6FB"/>
<path d="M253.869 138.893C253.768 140.457 252.709 141.97 250.693 143.13L215.105 163.709C210.82 166.18 203.814 166.18 199.529 163.709L163.034 142.626C160.917 141.415 159.808 139.751 159.808 138.137V174.755C159.808 179.849 164.092 191.147 171.402 194.98L211.728 218.283C211.829 218.333 211.879 218.384 211.98 218.434L212.131 218.535C214.954 219.998 218.734 219.746 222.918 217.325L242.93 205.774C254.322 199.167 253.919 186.86 253.919 181.362V138.893H253.869Z" fill="url(#paint3_linear_2929_69982)"/>
<path d="M253.869 138.893C253.768 140.457 252.709 141.97 250.693 143.13L215.105 163.709C210.82 166.18 203.814 166.18 199.529 163.709L163.034 142.626C160.917 141.415 159.808 139.751 159.808 138.137V174.755C159.808 179.849 164.092 191.147 171.402 194.98L211.728 218.283C211.829 218.333 211.879 218.384 211.98 218.434L212.131 218.535C214.954 219.998 218.734 219.746 222.918 217.325L242.93 205.774C254.322 199.167 253.919 186.86 253.919 181.362V138.893H253.869Z" fill="url(#paint4_linear_2929_69982)"/>
<path d="M278.622 198.008C278.622 213.795 267.532 233.012 253.872 240.931C240.211 248.85 229.122 242.444 229.122 226.607C229.122 210.819 240.211 191.603 253.872 183.684C267.532 175.815 278.622 182.221 278.622 198.008ZM274.892 200.127C274.892 186.71 265.466 181.263 253.872 187.971C242.228 194.679 232.852 211.021 232.852 224.438C232.852 237.854 242.278 243.302 253.872 236.593C265.466 229.885 274.892 213.594 274.892 200.127Z" fill="#CED3F8"/>
<path d="M253.872 236.644C265.516 229.935 274.892 213.594 274.892 200.177C274.892 186.76 265.465 181.313 253.872 188.021C253.418 188.274 252.964 188.576 252.511 188.879C251.805 201.387 243.437 215.914 232.902 222.773C232.852 223.328 232.852 223.933 232.852 224.488C232.801 237.905 242.227 243.352 253.872 236.644Z" fill="url(#paint5_linear_2929_69982)"/>
<path d="M281.241 196.495C281.241 213.947 268.992 235.181 253.87 243.907C238.747 252.633 226.498 245.572 226.498 228.12C226.498 210.669 238.747 189.434 253.87 180.708C268.992 171.982 281.241 179.044 281.241 196.495ZM278.62 198.009C278.62 182.221 267.53 175.816 253.87 183.684C240.209 191.603 229.12 210.82 229.12 226.607C229.12 242.394 240.209 248.8 253.87 240.931C267.53 233.013 278.62 213.796 278.62 198.009Z" fill="#BCC0E6"/>
<path d="M251.502 166.283C246.511 162.954 239.353 163.206 231.439 167.745C216.317 176.471 204.068 197.706 204.068 215.157C204.068 224.034 207.243 230.188 212.335 233.012L234.363 245.723C229.524 242.797 226.55 236.745 226.55 228.12C226.55 210.668 238.799 189.434 253.921 180.708C261.835 176.118 268.993 175.916 273.983 179.245L251.502 166.283Z" fill="url(#paint6_linear_2929_69982)"/>
<path d="M263.649 74.9838C263.598 76.5978 262.54 78.1614 260.423 79.3719L224.835 99.9507C220.55 102.422 213.493 102.422 209.208 99.9507L153.256 67.6199C151.088 66.3589 150.03 64.7449 150.03 63.1309V128.499C150.03 130.113 151.088 131.777 153.256 132.988L209.208 165.319C213.493 167.79 220.55 167.79 224.835 165.319L260.423 144.74C262.691 143.428 263.75 141.713 263.649 139.999V74.9838Z" fill="url(#paint7_linear_2929_69982)"/>
<path d="M260.423 79.4228C264.708 76.9513 264.708 72.8659 260.423 70.3944L204.471 38.0636C200.186 35.5921 193.129 35.5921 188.844 38.0636L153.256 58.6423C148.972 61.1138 148.972 65.1993 153.256 67.6707L209.209 100.002C213.494 102.473 220.551 102.473 224.835 100.002L260.423 79.4228Z" fill="white"/>
<path d="M153.257 58.6424L171.707 48C172.11 48 172.513 48 172.916 48H186.274C192.575 48 200.288 49.4627 203.463 51.3289L237.892 71.2016C241.068 73.0173 238.497 74.5305 232.145 74.5305L207.899 88.2496C211.075 90.0654 208.504 91.5786 202.153 91.5786H194.541L153.257 67.7213C148.973 65.1994 148.973 61.1139 153.257 58.6424Z" fill="url(#paint8_linear_2929_69982)"/>
<path d="M187.936 39.2256C175.284 31.912 165 37.8637 165 52.4908V60.2078C165 63.8394 167.571 68.2779 170.696 70.1441L205.175 90.0168C208.351 91.8325 210.922 90.3698 210.922 86.6879V78.9708C210.871 64.3438 200.588 46.5391 187.936 39.2256Z" fill="#BBC0E6"/>
<path d="M170.797 60.1578V52.4408C170.797 46.8926 172.51 42.8071 175.333 40.4365C170.797 42.101 167.923 46.8926 167.923 54.1557V61.8727C167.923 63.6885 169.183 65.9078 170.797 66.8156L205.175 86.6883C206.737 87.5961 208.048 86.8396 208.048 85.0238V84.9734L173.67 65.1008C172.057 64.2433 170.797 62.024 170.797 60.1578Z" fill="url(#paint9_linear_2929_69982)"/>
<path d="M187.938 42.5543C183.149 39.7802 178.713 39.1749 175.285 40.4359C172.462 42.8065 170.749 46.892 170.749 52.4402V60.1572C170.749 61.973 172.009 64.1923 173.622 65.1001L208 84.9728V77.3062C208 64.5453 199.027 48.9599 187.938 42.5543Z" fill="url(#paint10_linear_2929_69982)"/>
<path d="M204.119 77.0543C204.119 64.243 195.096 48.6576 184.056 42.252C181.939 41.0414 179.873 40.2344 177.957 39.8309C180.881 39.5787 184.308 40.4362 187.938 42.5041C199.027 48.9098 208 64.4952 208 77.3065V84.9731L204.119 82.7034V77.0543Z" fill="url(#paint11_linear_2929_69982)"/>
<path d="M217.677 22.0764C211.326 18.3944 205.579 18.0918 201.446 20.5128L171.806 37.6618C175.94 35.2912 181.686 35.6442 187.987 39.2758C200.639 46.5893 210.923 64.394 210.923 79.021V86.7381C210.923 88.5538 210.318 89.8148 209.309 90.42L238.848 73.3215C239.957 72.7667 240.663 71.4553 240.663 69.5387V61.8216C240.613 47.1946 230.329 29.3899 217.677 22.0764Z" fill="url(#paint12_linear_2929_69982)"/>
<path d="M153.356 68.6841C145.896 70.4494 139.192 76.7542 134.453 86.4383C129.16 97.2825 126.136 113.372 131.378 124.923L143.779 119.274C140.956 113.07 142.216 101.519 146.652 92.39C149.475 86.5896 153.155 82.7059 156.481 81.8989L153.356 68.6841Z" fill="url(#paint13_linear_2929_69982)"/>
<path d="M186.877 160.732C185.819 160.732 184.76 160.682 183.752 160.48C181.887 160.127 180.677 158.362 181.03 156.546C181.383 154.68 183.147 153.469 184.962 153.822C187.281 154.226 191.263 153.671 193.128 153.066C194.943 152.511 196.808 153.52 197.362 155.285C197.917 157.101 196.909 158.967 195.144 159.522C193.38 160.076 190.053 160.732 186.877 160.732Z" fill="#002CC6"/>
<path d="M157.338 100.964L117.011 124.267L164.899 151.957L205.275 128.655L157.338 100.964Z" fill="#6B8BFF"/>
<path d="M156.733 108.279L129.664 123.915L146.248 133.498L173.317 117.863L156.733 108.279Z" fill="#012AFF"/>
<path d="M205.275 128.655L164.899 151.958V168.854L205.275 145.552V128.655Z" fill="#012AFF"/>
<path d="M164.899 151.956L117.012 124.265V141.162L164.899 168.852V151.956Z" fill="#0020C8"/>
<path d="M148.012 124.973L159.404 118.365L155.725 116.247L144.332 122.854L148.012 124.973Z" fill="white"/>
<path d="M224.534 118.664L241.471 100.204L250.394 108.576L233.457 127.037L224.534 118.664Z" fill="url(#paint14_linear_2929_69982)"/>
<path d="M195.6 155.485C194.138 155.485 192.828 154.578 192.374 153.115C191.668 150.845 189.299 147.617 187.888 146.205C186.577 144.893 186.577 142.725 187.888 141.413C189.198 140.102 191.366 140.102 192.676 141.413C194.441 143.179 197.667 147.365 198.826 151.047C199.381 152.812 198.372 154.729 196.608 155.284C196.255 155.435 195.902 155.485 195.6 155.485Z" fill="#002CC6"/>
<path d="M237.993 109.132C237.993 104.643 241.119 99.1958 245 96.9765C248.882 94.7572 252.007 96.573 252.007 101.012C252.007 105.501 248.882 110.948 245 113.167C241.169 115.437 237.993 113.621 237.993 109.132Z" fill="#CED3F8"/>
<path d="M251.049 101.163C251.049 101.163 247.974 97.4311 246.512 96.271C246.008 96.4223 245.554 96.6241 245 96.9267C241.774 98.7929 239.052 102.878 238.245 106.762C238.85 108.124 239.556 109.183 239.959 109.587C245.655 115.942 242.026 126.08 237.237 132.788C229.474 143.683 215.259 151.955 199.431 146.255C191.366 147.113 188.946 154.981 194.189 158.764C215.965 167.944 237.489 155.788 248.276 140.657C258.408 126.483 258.963 110.192 251.049 101.163Z" fill="url(#paint15_linear_2929_69982)"/>
<path d="M201.395 67.6218C201.395 66.2095 200.386 64.4946 199.177 63.7885C197.967 63.0824 196.959 63.6372 196.959 65.0495C196.959 66.4617 197.967 68.1766 199.177 68.8828C200.437 69.6393 201.395 69.0341 201.395 67.6218Z" fill="#002FA8"/>
<path d="M184.914 58.0906C184.914 56.6783 183.906 54.9634 182.696 54.2573C181.486 53.5511 180.478 54.1059 180.478 55.5182C180.478 56.9305 181.486 58.6454 182.696 59.3515C183.906 60.0577 184.914 59.5028 184.914 58.0906Z" fill="#002FA8"/>
</g>
<path d="M279.104 82.3986C279.104 75.8315 284.418 67.8317 290.985 64.6079C291.343 64.4288 291.761 64.2497 292.119 64.0706C291.462 62.4587 291.104 60.608 291.104 58.4588C291.104 47.9516 299.582 35.1758 310.089 29.9819C314.745 27.6536 319.044 27.176 322.327 28.37H322.387C322.984 28.6088 323.581 28.8476 324.059 29.1461L342.327 37.6235C342.506 37.6832 342.745 37.8026 342.924 37.922H342.984C343.043 37.922 343.043 37.9817 343.103 37.9817L352.655 42.7577C355.282 44.0711 356.894 46.8173 356.894 50.8172C356.894 58.7573 350.446 68.4287 342.506 72.3689L300.835 93.2042C300.776 93.2042 300.776 93.2639 300.716 93.2639C297.492 94.8758 294.567 95.055 292.418 94.0401H292.358C292.298 94.0401 292.298 93.9803 292.239 93.9803L282.269 89.0252C280.358 87.8312 279.104 85.5627 279.104 82.3986Z" fill="url(#paint16_linear_2929_69982)"/>
<path d="M300.895 93.2038C300.836 93.2038 300.836 93.2634 300.776 93.2634C294.209 96.5469 288.896 93.8605 288.896 87.3532C288.896 80.7862 294.209 72.7864 300.776 69.5625C301.134 69.3834 301.552 69.2043 301.91 69.0252C301.253 67.4133 300.895 65.5626 300.895 63.4134C300.895 52.9062 309.373 40.1304 319.88 34.9365C330.387 29.6829 338.864 33.9216 338.864 44.4288C338.864 44.9661 338.864 45.5034 338.805 46.0407C339.999 45.1452 341.252 44.3094 342.566 43.6527C350.506 39.7125 356.954 42.8766 356.954 50.8167C356.954 58.7568 350.506 68.4282 342.566 72.3684L300.895 93.2038Z" fill="url(#paint17_linear_2929_69982)"/>
</g>
</g>
</g>
</g>
<defs>
<linearGradient id="paint0_linear_2929_69982" x1="189.062" y1="189.113" x2="142.279" y2="270.094" gradientUnits="userSpaceOnUse">
<stop stop-color="#0014C8"/>
<stop offset="0.989" stop-color="#005FC8" stop-opacity="0"/>
</linearGradient>
<linearGradient id="paint1_linear_2929_69982" x1="166.363" y1="196.08" x2="196.15" y2="144.519" gradientUnits="userSpaceOnUse">
<stop stop-color="#F6F6FB"/>
<stop offset="1" stop-color="#BBC0E6"/>
</linearGradient>
<linearGradient id="paint2_linear_2929_69982" x1="139.538" y1="190.899" x2="178.261" y2="123.868" gradientUnits="userSpaceOnUse">
<stop stop-color="#E9EFFE"/>
<stop offset="1" stop-color="#F4F8FF"/>
</linearGradient>
<linearGradient id="paint3_linear_2929_69982" x1="159.754" y1="178.761" x2="253.891" y2="178.761" gradientUnits="userSpaceOnUse">
<stop offset="0.4106" stop-color="#A3A9D0"/>
<stop offset="0.4558" stop-color="#A8ADD4"/>
<stop offset="0.6761" stop-color="#BBC0E6"/>
</linearGradient>
<linearGradient id="paint4_linear_2929_69982" x1="185.087" y1="202.914" x2="230.039" y2="125.102" gradientUnits="userSpaceOnUse">
<stop stop-color="#A7AED5"/>
<stop offset="0.0108876" stop-color="#AEB5D8"/>
<stop offset="0.0698896" stop-color="#D1D5E9"/>
<stop offset="0.1255" stop-color="#EAECF5"/>
<stop offset="0.176" stop-color="#FAFAFC"/>
<stop offset="0.2168" stop-color="white"/>
</linearGradient>
<linearGradient id="paint5_linear_2929_69982" x1="240.814" y1="239.158" x2="270.601" y2="187.596" gradientUnits="userSpaceOnUse">
<stop stop-color="#F6F6FB"/>
<stop offset="1" stop-color="#BBC0E6"/>
</linearGradient>
<linearGradient id="paint6_linear_2929_69982" x1="213.987" y1="233.976" x2="252.711" y2="166.946" gradientUnits="userSpaceOnUse">
<stop stop-color="#CFD4F9"/>
<stop offset="1" stop-color="#FEFEFF"/>
</linearGradient>
<linearGradient id="paint7_linear_2929_69982" x1="150.035" y1="115.183" x2="263.625" y2="115.183" gradientUnits="userSpaceOnUse">
<stop offset="0.5143" stop-color="#BBC0E6"/>
<stop offset="0.6822" stop-color="#CED3F8"/>
</linearGradient>
<linearGradient id="paint8_linear_2929_69982" x1="239.173" y1="69.7313" x2="150.037" y2="69.7313" gradientUnits="userSpaceOnUse">
<stop stop-color="#D1D7F3"/>
<stop offset="0.2865" stop-color="#D9DEF5"/>
<stop offset="0.7248" stop-color="#EEF0FB"/>
<stop offset="1" stop-color="white"/>
</linearGradient>
<linearGradient id="paint9_linear_2929_69982" x1="170.139" y1="43.25" x2="198.313" y2="92.0186" gradientUnits="userSpaceOnUse">
<stop offset="0.1966" stop-color="#CED3F8"/>
<stop offset="0.3042" stop-color="#E1E4F9"/>
<stop offset="0.4" stop-color="#F6F6FB"/>
</linearGradient>
<linearGradient id="paint10_linear_2929_69982" x1="207.663" y1="82.8562" x2="169.181" y2="39.8721" gradientUnits="userSpaceOnUse">
<stop stop-color="#FEFEFF"/>
<stop offset="1" stop-color="#CFD4F9"/>
</linearGradient>
<linearGradient id="paint11_linear_2929_69982" x1="188.296" y1="67.6898" x2="202.144" y2="52.2214" gradientUnits="userSpaceOnUse">
<stop stop-color="#C4CAE9"/>
<stop offset="0.4975" stop-color="#DBDEF1"/>
<stop offset="1" stop-color="#F6F6FB"/>
</linearGradient>
<linearGradient id="paint12_linear_2929_69982" x1="194.704" y1="24.3653" x2="226.934" y2="80.1565" gradientUnits="userSpaceOnUse">
<stop stop-color="white"/>
<stop offset="0.3885" stop-color="#E9EBFC"/>
<stop offset="0.7836" stop-color="#CED3F8"/>
</linearGradient>
<linearGradient id="paint13_linear_2929_69982" x1="149.63" y1="99.4258" x2="129.081" y2="91.8895" gradientUnits="userSpaceOnUse">
<stop stop-color="white"/>
<stop offset="1" stop-color="#CED3F8"/>
</linearGradient>
<linearGradient id="paint14_linear_2929_69982" x1="246.023" y1="104.452" x2="228.898" y2="122.762" gradientUnits="userSpaceOnUse">
<stop stop-color="#7183DB"/>
<stop offset="0.8927" stop-color="#CED3F8" stop-opacity="0"/>
</linearGradient>
<linearGradient id="paint15_linear_2929_69982" x1="256.384" y1="104.161" x2="201.774" y2="166.798" gradientUnits="userSpaceOnUse">
<stop stop-color="#FDFDFD"/>
<stop offset="1" stop-color="#CFD4F9"/>
</linearGradient>
<linearGradient id="paint16_linear_2929_69982" x1="333.225" y1="33.1418" x2="303.584" y2="99.0103" gradientUnits="userSpaceOnUse">
<stop stop-color="#E3E4F8"/>
<stop offset="0.1112" stop-color="#F2F3FF"/>
<stop offset="0.6019" stop-color="#D3D7F2"/>
<stop offset="0.6461" stop-color="#E1E3F8"/>
<stop offset="0.7358" stop-color="#F2F3FF"/>
<stop offset="0.9196" stop-color="#E1E3F8"/>
<stop offset="1" stop-color="#E2E7FB"/>
</linearGradient>
<linearGradient id="paint17_linear_2929_69982" x1="356.942" y1="63.6189" x2="288.891" y2="63.6189" gradientUnits="userSpaceOnUse">
<stop stop-color="#E8EAFB"/>
<stop offset="1" stop-color="white"/>
</linearGradient>
<clipPath id="clip0_2929_69982">
<rect width="302" height="380" fill="white"/>
</clipPath>
</defs>
</svg>
