<svg width="96" height="96" viewBox="0 0 96 96" fill="none" xmlns="http://www.w3.org/2000/svg">
<g clip-path="url(#clip0_3401_55645)">
<path d="M41.3407 93.2513L4.78199 71.9059C3.53494 71.1778 3.52969 69.3776 4.77247 68.6423L44.253 45.2811C47.767 43.2018 52.1492 43.2642 55.6026 45.4427L90.3889 67.3866C91.5842 68.1406 91.5616 69.8912 90.3472 70.614L52.3956 93.2046C48.9934 95.2298 44.7599 95.2477 41.3407 93.2513Z" stroke="#017AFF"/>
<path d="M41.454 88.3661L12.9093 71.7107C11.6616 70.9827 11.6563 69.1817 12.8997 68.4465L43.8136 50.1662C47.3263 48.0891 51.7057 48.1514 55.1578 50.3276L82.2617 67.4143C83.4577 68.1682 83.435 69.9195 82.22 70.6423L52.5035 88.3195C49.1027 90.3425 44.8718 90.3604 41.454 88.3661Z" fill="#017AFF"/>
<path fill-rule="evenodd" clip-rule="evenodd" d="M19.84 70.6887L41.6128 83.1944C44.9978 85.1387 49.1648 85.1212 52.5334 83.1487L75.2922 69.8218C75.8951 69.4688 76.2079 68.8636 76.2276 68.2498L76.2295 68.2497V64.2211L71.6306 64.282L54.7207 53.7883C51.2997 51.6653 46.9861 51.6044 43.5064 53.6299L24.1267 64.9107L18.8857 64.98V69.0757L18.8901 69.0757C18.8994 69.7051 19.2162 70.3305 19.84 70.6887Z" fill="#3796FF"/>
<path d="M41.6124 79.1945L19.8396 66.6888C18.577 65.9636 18.5718 64.144 19.8301 63.4115L43.5061 49.63C46.9857 47.6045 51.2993 47.6654 54.7204 49.7884L75.3334 62.5801C76.5446 63.3317 76.5219 65.1017 75.2918 65.8219L52.5331 79.1488C49.1645 81.1213 44.9974 81.1388 41.6124 79.1945Z" fill="#ECF4FF"/>
<ellipse opacity="0.67" cx="47.019" cy="64.0972" rx="11.7318" ry="5.53796" transform="rotate(30 47.019 64.0972)" fill="url(#paint0_radial_3401_55645)"/>
<path opacity="0.2" d="M19.84 66.725L41.6128 79.2306C44.9978 81.1749 49.1648 81.1574 52.5334 79.1849L75.2922 65.8581C75.8951 65.505 76.2079 64.8999 76.2276 64.286L76.2295 64.286V60.2573V13.8668L18.8901 13.8666L18.8857 61.0163V65.112L18.8901 65.1119C18.8994 65.7413 19.2162 66.3667 19.84 66.725Z" fill="url(#paint1_linear_3401_55645)"/>
<g class="icon_animate_snow_12">
<circle cx="66.002" cy="63.0664" r="1" fill="#017AFF"/>
<circle cx="30.002" cy="62.0664" r="1" fill="#017AFF"/>
<circle cx="30.002" cy="44.0664" r="1" fill="#017AFF"/>
<circle cx="37.002" cy="33.0664" r="1" fill="#017AFF"/>
<circle cx="31.002" cy="32.0664" r="1" fill="#017AFF"/>
<circle cx="41.002" cy="22.0664" r="1" fill="#017AFF"/>
<circle cx="59.002" cy="23.0664" r="1" fill="#017AFF"/>
<circle cx="72.002" cy="47.0664" r="1" fill="#017AFF"/>
<circle cx="70.502" cy="56.5664" r="0.5" fill="#017AFF"/>
<circle cx="36.502" cy="41.5664" r="0.5" fill="#017AFF"/>
<circle cx="49.502" cy="15.5664" r="0.5" fill="#017AFF"/>
<circle cx="34.502" cy="18.5664" r="0.5" fill="#017AFF"/>
<circle cx="63.502" cy="24.5664" r="0.5" fill="#017AFF"/>
<circle cx="70.502" cy="39.5664" r="0.5" fill="#017AFF"/>
<circle cx="25.502" cy="49.5664" r="0.5" fill="#017AFF"/>
<circle cx="34.502" cy="66.5664" r="0.5" fill="#017AFF"/>
</g>
<g class="icon_animate_12">
<path fill-rule="evenodd" clip-rule="evenodd" d="M36.1104 27.1406L38.4035 25.6932L38.4392 25.7048L48.5021 27.6844L58.8957 37.5813V53.2752C58.8871 53.3175 58.8784 53.3611 58.8695 53.4058C58.5897 54.8074 58.0776 57.3723 54.8376 58.12C52.2537 58.7163 50.0869 58.5769 48.792 58.12C47.0528 56.8364 44.8202 54.6269 41.7839 50.0865C39.357 46.4574 38.7599 43.8067 38.4917 42.6166C38.4559 42.4576 38.426 42.3248 38.3983 42.2191V28.7868L36.1104 27.1406Z" fill="#3D8AFF"/>
<path d="M46.2102 29.1297L36.1064 27.1421V43.6644C36.3411 44.5616 36.7411 47.4181 39.492 51.5318C42.5284 56.0723 44.7609 58.2817 46.5001 59.5654C47.795 60.0222 49.9618 60.1616 52.5457 59.5654C55.8892 58.7938 56.3277 56.087 56.6038 54.7205V39.0266L46.2102 29.1297Z" fill="url(#paint2_linear_3401_55645)"/>
</g>
</g>
<defs>
<radialGradient id="paint0_radial_3401_55645" cx="0" cy="0" r="1" gradientUnits="userSpaceOnUse" gradientTransform="translate(47.019 64.0972) rotate(90) scale(5.53796 11.7318)">
<stop stop-color="#479FFF" stop-opacity="0.36"/>
<stop offset="1" stop-color="#479FFF" stop-opacity="0"/>
</radialGradient>
<linearGradient id="paint1_linear_3401_55645" x1="47.5576" y1="13.8667" x2="47.5576" y2="80.6767" gradientUnits="userSpaceOnUse">
<stop stop-color="#017AFF" stop-opacity="0"/>
<stop offset="1" stop-color="#017AFF"/>
</linearGradient>
<linearGradient id="paint2_linear_3401_55645" x1="36.1064" y1="35.0564" x2="56.6902" y2="54.1057" gradientUnits="userSpaceOnUse">
<stop stop-color="#3D9AFF"/>
<stop offset="1" stop-color="#88C0FF"/>
</linearGradient>
<clipPath id="clip0_3401_55645">
<rect width="96" height="96" fill="white" transform="translate(0.000976562)"/>
</clipPath>
</defs>
</svg>
