<svg width="97" height="96" viewBox="0 0 97 96" fill="none" xmlns="http://www.w3.org/2000/svg">
<path d="M42.7226 91.7621L6.16383 70.4167C4.91678 69.6886 4.91153 67.8884 6.15431 67.153L45.6349 43.7918C49.1489 41.7126 53.531 41.7749 56.9844 43.9534L91.7707 65.8973C92.966 66.6514 92.9434 68.4019 91.729 69.1248L53.7774 91.7154C50.3753 93.7405 46.1417 93.7584 42.7226 91.7621Z" stroke="#017AFF"/>
<path d="M42.8358 86.8769L14.2911 70.2214C13.0434 69.4934 13.0382 67.6925 14.2816 66.9572L45.1955 48.6769C48.7081 46.5998 53.0875 46.6621 56.5396 48.8384L83.6435 65.925C84.8395 66.6789 84.8169 68.4302 83.6018 69.153L53.8853 86.8302C50.4845 88.8532 46.2536 88.8711 42.8358 86.8769Z" fill="#017AFF"/>
<path fill-rule="evenodd" clip-rule="evenodd" d="M21.2218 69.1995L42.9946 81.7052C46.3796 83.6494 50.5467 83.632 53.9153 81.6594L76.674 68.3326C77.2769 67.9795 77.5897 67.3744 77.6094 66.7605L77.6114 66.7605V62.7318L73.0124 62.7927L56.1026 52.2991C52.6815 50.1761 48.3679 50.1151 44.8883 52.1406L25.5086 63.4214L20.2676 63.4908V67.5865L20.2719 67.5864C20.2812 68.2158 20.5981 68.8412 21.2218 69.1995Z" fill="#5FABFF"/>
<path d="M42.9943 77.7052L21.2215 65.1996C19.9589 64.4744 19.9536 62.6548 21.212 61.9223L44.8879 48.1407C48.3676 46.1152 52.6812 46.1762 56.1022 48.2992L76.7153 61.0909C77.9264 61.8425 77.9037 63.6124 76.6737 64.3327L53.9149 77.6595C50.5463 79.632 46.3793 79.6495 42.9943 77.7052Z" fill="white"/>
<ellipse opacity="0.56" cx="48.0252" cy="64.3107" rx="16.6475" ry="5.53796" transform="rotate(30 48.0252 64.3107)" fill="url(#paint0_radial_3401_56171)"/>
<path opacity="0.2" d="M21.1652 65.1781L42.938 77.6838C46.323 79.628 50.49 79.6106 53.8586 77.638L76.6174 64.3112C77.2203 63.9582 77.5331 63.353 77.5528 62.7391L77.5547 62.7391V58.7105V12.3199L20.2153 12.3197L20.2109 59.4694V63.5651L20.2153 63.565C20.2246 64.1945 20.5414 64.8198 21.1652 65.1781Z" fill="url(#paint1_linear_3401_56171)"/>
<g class="icon_animate_snow_5">
<circle cx="67.2578" cy="61.1987" r="1" fill="#017AFF"/>
<circle cx="31.2578" cy="60.1987" r="1" fill="#017AFF"/>
<circle cx="31.2578" cy="42.1987" r="1" fill="#017AFF"/>
<circle cx="38.2578" cy="31.1987" r="1" fill="#017AFF"/>
<circle cx="32.2578" cy="30.1987" r="1" fill="#017AFF"/>
<circle cx="42.2578" cy="20.1987" r="1" fill="#017AFF"/>
<circle cx="60.2578" cy="21.1987" r="1" fill="#017AFF"/>
<circle cx="73.2578" cy="45.1987" r="1" fill="#017AFF"/>
<circle cx="71.7578" cy="54.6987" r="0.5" fill="#017AFF"/>
<circle cx="37.7578" cy="39.6987" r="0.5" fill="#017AFF"/>
<circle cx="50.7578" cy="13.6987" r="0.5" fill="#017AFF"/>
<circle cx="35.7578" cy="16.6987" r="0.5" fill="#017AFF"/>
<circle cx="64.7578" cy="22.6987" r="0.5" fill="#017AFF"/>
<circle cx="71.7578" cy="37.6987" r="0.5" fill="#017AFF"/>
<circle cx="26.7578" cy="47.6987" r="0.5" fill="#017AFF"/>
<circle cx="35.7578" cy="64.6987" r="0.5" fill="#017AFF"/>
</g>
<g class="icon_animate_5">
<path d="M36.4379 20.5264L34.1396 21.7766C34.5432 22.1873 35.3712 23.0296 35.4551 23.1135C35.539 23.1974 49.2674 33.7612 56.1212 39.0326L59.621 65.9127L61.915 64.6706V35.2177L36.4379 20.5264Z" fill="#3D8AFF"/>
<rect width="29.4299" height="29.4299" transform="matrix(0.866025 0.5 -2.20305e-08 1 34.1367 21.7717)" fill="#82BDFF"/>
<path fill-rule="evenodd" clip-rule="evenodd" d="M43.6577 27.2686L50.1311 31.006L50.1311 33.4788L50.1309 33.4787L50.1309 39.5294L47.9893 38.2929L47.9893 32.2423L43.6577 29.7415L43.6577 27.2686ZM39.4052 24.8134L41.5468 26.0498L41.5468 26.0499L41.5468 26.0499L41.5468 28.5228L41.5468 28.5228L41.5468 32.1005L41.5468 32.1005L41.5468 34.5734L34.1367 30.2952L34.1367 27.8223L34.1368 27.8223L34.1368 24.2446L34.1367 24.2446L34.1367 21.7717L34.1368 21.7718L34.1368 21.7716L36.2784 23.0081L36.2784 23.0082L39.4052 24.8135L39.4052 24.8134ZM36.2784 25.4811L36.2784 29.0588L39.4052 30.864L39.4052 27.2864L36.2784 25.4811ZM36.2784 43.9145L36.2784 43.9148L39.4052 45.7201L39.4052 45.7198L41.5468 46.9563L41.5468 46.9566L41.5468 49.4294L41.5468 53.0069L41.5468 55.4798L34.1367 51.2016L34.1367 48.7287L34.1368 48.7288L34.1368 45.1513L34.1367 45.1513L34.1367 42.6784L34.1368 42.6784L34.1368 42.6781L36.2784 43.9145ZM36.2784 49.9652L36.2784 46.3877L39.4052 48.193L39.4052 51.7705L36.2784 49.9652ZM54.3552 33.445L54.3552 33.4448L52.2136 32.2084L52.2136 32.2086L52.2136 34.6815L52.2136 38.2591L52.2136 38.259L52.2136 40.7319L59.6236 45.0101L59.6236 42.5372L59.6236 38.9596L59.6237 38.9597L59.6237 36.4868L59.6236 36.4867L59.6236 36.4866L57.482 35.2501L57.482 35.2503L54.3552 33.445ZM54.3552 35.9179L54.3552 39.4955L57.482 41.3008L57.482 37.7232L54.3552 35.9179ZM45.854 39.4372L45.854 33.4449L43.7124 32.2084L43.7124 38.2008L34.1367 32.6723L34.1367 35.1452L34.1368 35.1452L34.1368 40.224L36.2784 41.4604L36.2784 36.3816L45.854 41.9101L45.854 40.9196L45.854 39.4372ZM45.854 46.9698L45.854 49.3469L50.131 51.8163L50.131 54.2892L50.1309 54.2891L50.1309 60.4358L47.9893 59.1994L47.9893 53.0526L43.7896 50.6279L43.7896 50.6278L43.7124 50.5833L43.7124 43.2605L45.854 44.4969L45.854 44.497L47.9893 45.7298L47.9893 40.6701L47.9894 40.6702L47.9894 40.6701L54.3419 44.3377L54.3419 46.8106L54.3418 46.8105L54.3418 49.3974L52.2002 48.161L52.2002 45.5741L50.1309 44.3794L50.1309 46.9662L50.131 46.9663L50.131 49.4392L45.854 46.9698ZM59.6238 47.3872L59.6238 57.3927L58.7152 56.8681L58.7152 56.8682L52.2419 53.1308L52.2419 50.6579L57.4822 53.6834L57.4822 46.1508L59.6238 47.3872ZM59.6238 65.9165L59.6238 60.5188L59.6237 60.5187L59.6237 59.7698L52.2419 55.5079L52.2419 57.9808L52.2419 57.9808L52.2419 61.6546L54.3835 62.891L54.3835 59.2172L57.4822 61.0063L57.4822 64.68L59.6238 65.9165ZM45.854 54.2926L45.854 57.9665L43.7124 56.73L43.7124 53.0562L45.854 54.2926ZM38.348 40.1633L41.5187 41.9939L41.5187 44.4668L38.348 42.6362L38.348 40.1633Z" fill="url(#paint2_linear_3401_56171)"/>
</g>
<defs>
<radialGradient id="paint0_radial_3401_56171" cx="0" cy="0" r="1" gradientUnits="userSpaceOnUse" gradientTransform="translate(48.0252 64.3107) rotate(90) scale(5.53796 16.6475)">
<stop stop-color="#479FFF" stop-opacity="0.36"/>
<stop offset="1" stop-color="#479FFF" stop-opacity="0"/>
</radialGradient>
<linearGradient id="paint1_linear_3401_56171" x1="48.8828" y1="12.3198" x2="48.8828" y2="79.1298" gradientUnits="userSpaceOnUse">
<stop stop-color="#017AFF" stop-opacity="0"/>
<stop offset="1" stop-color="#017AFF"/>
</linearGradient>
<linearGradient id="paint2_linear_3401_56171" x1="35.6347" y1="24.424" x2="29.1125" y2="60.2127" gradientUnits="userSpaceOnUse">
<stop stop-color="#3D9AFF"/>
<stop offset="0.91199" stop-color="#3D9AFF"/>
</linearGradient>
</defs>
</svg>
