<svg width="302" height="380" viewBox="0 0 302 380" fill="none" xmlns="http://www.w3.org/2000/svg">
<g clip-path="url(#clip0_2929_72656)">
<g opacity="0.2">
<mask id="mask0_2929_72656" style="mask-type:alpha" maskUnits="userSpaceOnUse" x="-22" y="29" width="353" height="255">
<rect x="-20.8931" y="30.1069" width="350.083" height="252.786" fill="white" stroke="white" stroke-width="2.21379"/>
</mask>
<g mask="url(#mask0_2929_72656)">
<path d="M192.82 191.33H146.81L145.5 194.486H109.925C106.188 194.486 102.499 193.912 99.2472 192.793L60.7114 179.651C56.4404 178.187 56.4404 174.543 60.7114 173.08L93.229 161.975L166.175 166.795L192.82 191.33Z" fill="url(#paint0_linear_2929_72656)"/>
<path d="M210.488 187.283L203.499 189.665C200.442 190.698 196.559 191.272 192.822 191.329C189.376 191.387 186.027 190.985 183.552 190.153L172.292 186.308L157.587 191.329L150.84 193.625C147.443 194.773 143.269 194.773 139.872 193.625L95.2691 178.388C92.6483 177.498 91.0467 175.834 91.0467 174.055V161.314C90.9982 160.626 91.3379 159.937 92.1144 159.334L102.743 150.898L140.308 115.431L182.193 101.14C188.114 99.1318 197.044 98.9023 202.141 100.653L279.503 127.11C281.93 127.942 283.046 129.061 282.949 130.237C282.949 130.352 282.901 130.438 282.901 130.553C282.949 130.783 282.949 131.012 282.949 131.242V160.253C282.949 160.367 282.949 160.482 282.949 160.568C282.852 161.486 281.979 162.405 280.377 163.265L210.488 187.283Z" fill="#BCC0E5"/>
<path d="M102.741 159.708V130.353L132.978 139.047L182.143 122.261C188.064 120.252 196.994 120.022 202.09 121.773L252.662 139.076L282.947 130.353V159.363C282.947 159.478 282.947 159.593 282.947 159.679C282.802 160.97 281.152 162.29 278.094 163.352L203.546 188.776C200.488 189.809 196.606 190.383 192.869 190.44C189.423 190.498 186.074 190.096 183.599 189.264L106.187 162.807C103.761 162.003 102.596 160.884 102.741 159.708Z" fill="url(#paint1_linear_2929_72656)"/>
<path d="M102.743 130.352C102.889 129.061 104.539 127.741 107.597 126.679L182.145 101.255C188.066 99.2466 196.996 99.017 202.092 100.767L279.503 127.224C281.93 128.057 283.046 129.176 282.949 130.352C282.804 131.643 281.154 132.963 278.096 134.025L203.548 159.449C197.627 161.458 188.697 161.687 183.601 159.937L106.189 133.48C103.763 132.676 102.598 131.529 102.743 130.352Z" fill="white"/>
<path d="M102.743 129.779C102.889 128.488 104.539 127.168 107.597 126.106L182.145 100.682C188.066 98.6733 196.996 98.4438 202.092 100.194L279.503 126.622C281.93 127.455 283.046 128.574 282.949 129.75C282.804 131.041 281.154 132.361 278.096 133.423L203.548 158.847C197.627 160.856 188.697 161.085 183.601 159.335L106.189 132.878C103.763 132.074 102.598 130.955 102.743 129.779Z" fill="url(#paint2_linear_2929_72656)"/>
<path d="M144.095 175.234L172.293 160.513V185.421L150.841 192.738C147.444 193.886 143.27 193.886 139.872 192.738L95.2699 177.501C92.649 176.611 91.0474 174.947 91.0474 173.168V160.427L144.095 175.234Z" fill="url(#paint3_linear_2929_72656)"/>
<path d="M151.812 176.783L172.293 160.513L171.953 159.652L116.236 140.627L92.2122 159.537C90.3194 161.029 90.9989 163.038 93.7653 163.956L136.669 178.619C141.765 180.398 148.269 179.595 151.812 176.783Z" fill="white"/>
<path d="M151.181 176.468L172.293 159.71L115.411 140.283L92.0666 158.792C90.1253 160.312 90.9018 162.493 93.6683 163.44L136.863 178.19C141.765 179.825 147.88 179.079 151.181 176.468Z" fill="white"/>
<mask id="mask1_2929_72656" style="mask-type:alpha" maskUnits="userSpaceOnUse" x="157" y="160" width="16" height="31">
<path d="M157.585 190.469V172.19L172.291 160.511V185.447L157.585 190.469Z" fill="url(#paint4_linear_2929_72656)"/>
</mask>
<g mask="url(#mask1_2929_72656)">
<path d="M157.585 190.469V172.19L172.291 160.511V185.447L157.585 190.469Z" fill="#DBE1FF"/>
</g>
<path d="M134.774 130.349C134.871 129.517 135.939 128.656 137.929 127.996L185.977 111.611C189.763 110.32 195.538 110.177 198.839 111.296L248.683 128.341C250.09 128.829 250.818 129.46 250.915 130.12C250.964 130.349 250.915 130.579 250.77 130.808C250.721 130.866 250.721 130.923 250.673 130.952V130.981C250.624 131.038 250.624 131.067 250.576 131.124C250.576 131.124 250.576 131.153 250.527 131.153C250.479 131.21 250.43 131.239 250.382 131.296C250.382 131.296 250.382 131.325 250.333 131.325C250.284 131.382 250.236 131.411 250.187 131.468C250.187 131.468 250.187 131.468 250.187 131.497C250.042 131.612 249.896 131.727 249.751 131.813L249.702 131.841C249.654 131.87 249.556 131.928 249.508 131.956C249.459 131.985 249.459 131.985 249.411 132.014C249.362 132.042 249.265 132.071 249.217 132.128C249.168 132.157 249.168 132.157 249.12 132.186C249.071 132.215 248.974 132.243 248.926 132.272C248.877 132.301 248.828 132.301 248.828 132.329C248.78 132.358 248.683 132.387 248.634 132.415C248.586 132.444 248.537 132.444 248.489 132.473C248.392 132.501 248.343 132.53 248.246 132.559C248.198 132.588 248.149 132.588 248.149 132.616C248.052 132.674 247.906 132.702 247.761 132.76L199.712 149.145C197.577 149.862 194.81 150.235 192.238 150.206C191.704 150.206 191.17 150.178 190.636 150.149C190.588 150.149 190.491 150.149 190.442 150.12C189.132 150.006 187.87 149.776 186.899 149.432L155.304 138.642L137.055 132.387C136.958 132.358 136.861 132.329 136.764 132.272C136.715 132.272 136.715 132.243 136.667 132.243C136.618 132.215 136.57 132.186 136.473 132.186C136.424 132.157 136.376 132.157 136.376 132.128C136.327 132.1 136.279 132.1 136.23 132.071C136.182 132.042 136.133 132.042 136.133 132.014C136.084 131.985 136.036 131.985 136.036 131.956C135.987 131.928 135.939 131.899 135.939 131.899C135.89 131.87 135.89 131.87 135.842 131.841C135.793 131.813 135.745 131.784 135.745 131.755C135.696 131.727 135.696 131.727 135.648 131.698C135.599 131.669 135.599 131.641 135.551 131.612C135.551 131.583 135.502 131.583 135.502 131.555C135.454 131.526 135.454 131.497 135.405 131.468C135.405 131.44 135.356 131.44 135.356 131.411C135.308 131.382 135.308 131.354 135.259 131.325L135.211 131.296C135.162 131.268 135.162 131.239 135.114 131.21C135.114 131.21 135.114 131.182 135.065 131.182C135.017 131.153 135.017 131.124 135.017 131.067V131.038C135.017 131.009 134.968 130.952 134.968 130.923V130.895C134.968 130.866 134.92 130.808 134.92 130.78C134.92 130.78 134.92 130.78 134.92 130.751C134.92 130.722 134.92 130.665 134.871 130.636C134.871 130.608 134.871 130.55 134.871 130.493C134.774 130.464 134.774 130.407 134.774 130.349Z" fill="#3455FF"/>
<path d="M250.768 130.81C250.72 130.868 250.72 130.925 250.671 130.954V130.982C250.623 131.04 250.623 131.069 250.574 131.126C250.574 131.126 250.574 131.155 250.526 131.155C250.477 131.212 250.429 131.241 250.38 131.298C250.38 131.298 250.38 131.327 250.332 131.327C250.283 131.384 250.235 131.413 250.186 131.47C250.186 131.47 250.186 131.47 250.186 131.499C250.138 131.556 250.04 131.614 249.992 131.671C249.652 131.47 249.215 131.269 248.682 131.069L198.789 114.024C195.488 112.905 189.762 113.048 185.927 114.339L137.879 130.724C136.908 131.04 136.18 131.413 135.646 131.786C135.646 131.757 135.598 131.757 135.598 131.729C135.549 131.7 135.549 131.7 135.501 131.671C135.452 131.642 135.452 131.614 135.404 131.585C135.404 131.556 135.355 131.556 135.355 131.528C135.307 131.499 135.307 131.47 135.258 131.442C135.258 131.413 135.21 131.413 135.21 131.384C135.161 131.356 135.161 131.327 135.112 131.298L135.064 131.269C135.015 131.241 135.015 131.212 134.967 131.183C134.967 131.183 134.967 131.155 134.918 131.155C134.87 131.126 134.87 131.097 134.87 131.04V131.011C134.87 130.982 134.821 130.925 134.821 130.896V130.868C134.821 130.839 134.773 130.782 134.773 130.753C134.773 130.753 134.773 130.753 134.773 130.724C134.773 130.696 134.773 130.638 134.724 130.609C134.724 130.581 134.724 130.523 134.724 130.466C134.724 130.409 134.724 130.38 134.724 130.322C134.821 129.49 135.889 128.629 137.879 127.969L185.927 111.585C189.713 110.293 195.488 110.15 198.789 111.269L248.682 128.343C250.089 128.83 250.817 129.462 250.914 130.122C250.914 130.351 250.866 130.581 250.768 130.81Z" fill="url(#paint5_linear_2929_72656)"/>
<path opacity="0.5" d="M184.669 100.536L224.758 86.9631L154.724 62.9453L184.669 100.536ZM222.816 86.9631L185.106 99.7038L156.956 64.3514L222.816 86.9631Z" fill="#BCC0E5"/>
<path opacity="0.5" d="M154.916 64.0965L205.537 56.5497L182.532 31.4414L154.916 64.0965ZM204.081 56.1479L156.712 63.2069L182.532 32.6753L204.081 56.1479Z" fill="#BCC0E5"/>
<path d="M228.252 85.4453V88.487L223.787 90.0078V86.9662L228.252 85.4453Z" fill="#424DC8"/>
<path d="M219.324 85.4453V88.487L223.789 90.0078V86.9662L219.324 85.4453Z" fill="#808BFF"/>
<path d="M228.252 85.4437L223.787 83.9229L219.322 85.4437L223.787 86.9645L228.252 85.4437Z" fill="#002E85"/>
<path d="M160.303 62.1426V65.1843L155.838 66.7051V63.6634L160.303 62.1426Z" fill="#424DC8"/>
<path d="M151.375 62.1426V65.1843L155.84 66.7051V63.6634L151.375 62.1426Z" fill="#808BFF"/>
<path d="M160.303 62.1434L155.838 60.6226L151.373 62.1434L155.838 63.6642L160.303 62.1434Z" fill="#002E85"/>
<path d="M186.998 30.5225V33.5641L182.533 35.085V32.0433L186.998 30.5225Z" fill="#424DC8"/>
<path d="M178.07 30.522V33.5637L182.535 35.0845V32.0428L178.07 30.522Z" fill="#808BFF"/>
<path d="M186.998 30.5208L182.533 29L178.068 30.5208L182.533 32.0417L186.998 30.5208Z" fill="#002E85"/>
<path d="M189.33 98.5859V101.628L184.865 103.148V100.135L189.33 98.5859Z" fill="#424DC8"/>
<path d="M180.402 98.5859V101.628L184.867 103.148V100.135L180.402 98.5859Z" fill="#808BFF"/>
<path d="M189.33 98.5868L184.865 97.0659L180.4 98.5868L184.865 100.136L189.33 98.5868Z" fill="#002E85"/>
<path d="M211.264 54.1362V58.5266L204.809 60.7361V56.3458L211.264 54.1362Z" fill="#424DC8"/>
<path d="M198.354 54.1362V58.5266L204.809 60.7361V56.3458L198.354 54.1362Z" fill="#808BFF"/>
<path d="M211.264 54.1334L204.809 51.9238L198.354 54.1334L204.809 56.3429L211.264 54.1334Z" fill="#002E85"/>
<mask id="mask2_2929_72656" style="mask-type:alpha" maskUnits="userSpaceOnUse" x="129" y="50" width="126" height="102">
<path d="M129.581 50.9492H254.41V151.382H129.581V50.9492Z" fill="url(#paint6_linear_2929_72656)"/>
</mask>
<g mask="url(#mask2_2929_72656)">
<path d="M134.776 130.353V54.3398C134.776 53.7659 135.552 53.3354 136.474 53.3354H249.17C250.141 53.3354 250.869 53.7946 250.869 54.3398V130.124C250.917 130.353 250.869 130.583 250.723 130.812C250.674 130.87 250.674 130.927 250.626 130.956V130.985C250.577 131.042 250.577 131.071 250.529 131.128C250.529 131.128 250.529 131.157 250.48 131.157C250.432 131.214 250.383 131.243 250.335 131.3C250.335 131.3 250.335 131.329 250.286 131.329C250.238 131.386 250.189 131.415 250.141 131.472C250.141 131.472 250.141 131.472 250.141 131.501C249.995 131.616 249.849 131.731 249.704 131.817L249.655 131.845C249.607 131.874 249.51 131.931 249.461 131.96C249.413 131.989 249.413 131.989 249.364 132.018C249.315 132.046 249.218 132.075 249.17 132.132C249.121 132.161 249.121 132.161 249.073 132.19C249.024 132.218 248.927 132.247 248.879 132.276C248.83 132.305 248.782 132.305 248.782 132.333C248.733 132.362 248.636 132.391 248.587 132.419C248.539 132.448 248.49 132.448 248.442 132.477C248.345 132.505 248.296 132.534 248.199 132.563C248.151 132.591 248.102 132.591 248.102 132.62C248.005 132.678 247.859 132.706 247.714 132.764L199.665 149.149C197.53 149.866 194.763 150.239 192.191 150.21C191.657 150.21 191.123 150.182 190.59 150.153C190.541 150.153 190.444 150.153 190.395 150.124C189.085 150.009 187.823 149.78 186.852 149.436L155.257 138.646L137.008 132.391C136.911 132.362 136.814 132.333 136.717 132.276C136.669 132.276 136.669 132.247 136.62 132.247C136.571 132.218 136.523 132.19 136.426 132.19C136.377 132.161 136.329 132.161 136.329 132.132C136.28 132.104 136.232 132.104 136.183 132.075C136.135 132.046 136.086 132.046 136.086 132.018C136.038 131.989 135.989 131.989 135.989 131.96C135.941 131.931 135.892 131.903 135.892 131.903C135.843 131.874 135.843 131.874 135.795 131.845C135.746 131.817 135.698 131.788 135.698 131.759C135.649 131.731 135.649 131.731 135.601 131.702C135.552 131.673 135.552 131.645 135.504 131.616C135.504 131.587 135.455 131.587 135.455 131.558C135.407 131.53 135.407 131.501 135.358 131.472C135.358 131.444 135.31 131.444 135.31 131.415C135.261 131.386 135.261 131.358 135.213 131.329L135.164 131.3C135.115 131.271 135.115 131.243 135.067 131.214C135.067 131.214 135.067 131.185 135.018 131.185C134.97 131.157 134.97 131.128 134.97 131.071V131.042C134.97 131.013 134.921 130.956 134.921 130.927V130.898C134.921 130.87 134.873 130.812 134.873 130.784C134.873 130.784 134.873 130.784 134.873 130.755C134.873 130.726 134.873 130.669 134.824 130.64C134.824 130.612 134.824 130.554 134.824 130.497C134.776 130.468 134.776 130.411 134.776 130.353Z" fill="url(#paint7_linear_2929_72656)"/>
<g opacity="0.3">
<mask id="mask3_2929_72656" style="mask-type:alpha" maskUnits="userSpaceOnUse" x="232" y="84" width="3" height="34">
<g opacity="0.3">
<g opacity="0.3">
<path opacity="0.3" d="M233.497 117.869C233.885 117.869 234.225 117.668 234.225 117.438V84.8118C234.225 84.5822 233.885 84.3813 233.497 84.3813C233.108 84.3813 232.769 84.5822 232.769 84.8118V117.438C232.769 117.696 233.108 117.869 233.497 117.869Z" fill="url(#paint8_linear_2929_72656)"/>
</g>
</g>
</mask>
<g mask="url(#mask3_2929_72656)">
<path opacity="0.3" d="M233.493 117.865C233.881 117.865 234.221 117.664 234.221 117.435V84.8084C234.221 84.5788 233.881 84.3779 233.493 84.3779C233.104 84.3779 232.765 84.5788 232.765 84.8084V117.435C232.765 117.693 233.104 117.865 233.493 117.865Z" fill="url(#paint9_linear_2929_72656)"/>
</g>
<mask id="mask4_2929_72656" style="mask-type:alpha" maskUnits="userSpaceOnUse" x="244" y="61" width="3" height="34">
<g opacity="0.3">
<g opacity="0.3">
<path opacity="0.3" d="M245.379 94.7372C245.768 94.7372 246.107 94.5364 246.107 94.3068V61.6804C246.107 61.4509 245.768 61.25 245.379 61.25C244.991 61.25 244.651 61.4509 244.651 61.6804V94.3068C244.651 94.5364 244.991 94.7372 245.379 94.7372Z" fill="url(#paint10_linear_2929_72656)"/>
</g>
</g>
</mask>
<g mask="url(#mask4_2929_72656)">
<path opacity="0.3" d="M245.383 94.7392C245.772 94.7392 246.111 94.5383 246.111 94.3088V61.6824C246.111 61.4528 245.772 61.252 245.383 61.252C244.995 61.252 244.655 61.4528 244.655 61.6824V94.3088C244.655 94.5383 244.995 94.7392 245.383 94.7392Z" fill="url(#paint11_linear_2929_72656)"/>
</g>
<mask id="mask5_2929_72656" style="mask-type:alpha" maskUnits="userSpaceOnUse" x="152" y="66" width="2" height="34">
<g opacity="0.3">
<g opacity="0.3">
<path opacity="0.3" d="M152.877 99.5585C153.266 99.5585 153.605 99.3577 153.605 99.1281V66.5017C153.605 66.2722 153.266 66.0713 152.877 66.0713C152.489 66.0713 152.149 66.2722 152.149 66.5017V99.1281C152.149 99.3577 152.441 99.5585 152.877 99.5585Z" fill="url(#paint12_linear_2929_72656)"/>
</g>
</g>
</mask>
<g mask="url(#mask5_2929_72656)">
<path opacity="0.3" d="M152.876 99.5624C153.264 99.5624 153.604 99.3616 153.604 99.132V66.5056C153.604 66.2761 153.264 66.0752 152.876 66.0752C152.487 66.0752 152.148 66.2761 152.148 66.5056V99.132C152.148 99.3616 152.439 99.5624 152.876 99.5624Z" fill="url(#paint13_linear_2929_72656)"/>
</g>
<mask id="mask6_2929_72656" style="mask-type:alpha" maskUnits="userSpaceOnUse" x="141" y="78" width="3" height="35">
<g opacity="0.3">
<g opacity="0.3">
<path opacity="0.3" d="M142.54 112.073C142.928 112.073 143.268 111.872 143.268 111.642V79.0159C143.268 78.7863 142.928 78.5854 142.54 78.5854C142.151 78.5854 141.812 78.7863 141.812 79.0159V111.642C141.812 111.901 142.151 112.073 142.54 112.073Z" fill="url(#paint14_linear_2929_72656)"/>
</g>
</g>
</mask>
<g mask="url(#mask6_2929_72656)">
<path opacity="0.3" d="M142.538 112.073C142.926 112.073 143.266 111.872 143.266 111.642V79.0159C143.266 78.7863 142.926 78.5854 142.538 78.5854C142.149 78.5854 141.81 78.7863 141.81 79.0159V111.642C141.81 111.901 142.149 112.073 142.538 112.073Z" fill="url(#paint15_linear_2929_72656)"/>
</g>
<mask id="mask7_2929_72656" style="mask-type:alpha" maskUnits="userSpaceOnUse" x="194" y="70" width="2" height="33">
<g opacity="0.3">
<g opacity="0.3">
<path opacity="0.3" d="M194.907 102.314C195.295 102.314 195.635 102.113 195.635 101.884V70.4338C195.635 70.2043 195.295 70.0034 194.907 70.0034C194.518 70.0034 194.179 70.2043 194.179 70.4338V101.884C194.179 102.113 194.518 102.314 194.907 102.314Z" fill="url(#paint16_linear_2929_72656)"/>
</g>
</g>
</mask>
<g mask="url(#mask7_2929_72656)">
<path opacity="0.3" d="M194.909 102.316C195.297 102.316 195.637 102.115 195.637 101.886V70.4358C195.637 70.2062 195.297 70.0054 194.909 70.0054C194.52 70.0054 194.181 70.2062 194.181 70.4358V101.886C194.181 102.115 194.52 102.316 194.909 102.316Z" fill="url(#paint17_linear_2929_72656)"/>
</g>
<mask id="mask8_2929_72656" style="mask-type:alpha" maskUnits="userSpaceOnUse" x="242" y="99" width="2" height="33">
<g opacity="0.3">
<g opacity="0.3">
<path opacity="0.3" d="M242.858 131.869C243.246 131.869 243.586 131.668 243.586 131.439V99.989C243.586 99.7595 243.246 99.5586 242.858 99.5586C242.47 99.5586 242.13 99.7595 242.13 99.989V131.439C242.13 131.668 242.421 131.869 242.858 131.869Z" fill="url(#paint18_linear_2929_72656)"/>
</g>
</g>
</mask>
<g mask="url(#mask8_2929_72656)">
<path opacity="0.3" d="M242.858 131.872C243.246 131.872 243.586 131.671 243.586 131.441V99.9915C243.586 99.7619 243.246 99.561 242.858 99.561C242.47 99.561 242.13 99.7619 242.13 99.9915V131.441C242.13 131.671 242.421 131.872 242.858 131.872Z" fill="url(#paint19_linear_2929_72656)"/>
</g>
<mask id="mask9_2929_72656" style="mask-type:alpha" maskUnits="userSpaceOnUse" x="137" y="98" width="2" height="33">
<g opacity="0.3">
<g opacity="0.3">
<path opacity="0.3" d="M137.979 130.435C138.367 130.435 138.707 130.234 138.707 130.004V98.5256C138.707 98.2961 138.367 98.0952 137.979 98.0952C137.591 98.0952 137.251 98.2961 137.251 98.5256V130.004C137.251 130.234 137.591 130.435 137.979 130.435Z" fill="url(#paint20_linear_2929_72656)"/>
</g>
</g>
</mask>
<g mask="url(#mask9_2929_72656)">
<path opacity="0.3" d="M137.975 130.437C138.363 130.437 138.703 130.236 138.703 130.007V98.5281C138.703 98.2985 138.363 98.0977 137.975 98.0977C137.587 98.0977 137.247 98.2985 137.247 98.5281V130.007C137.247 130.236 137.587 130.437 137.975 130.437Z" fill="url(#paint21_linear_2929_72656)"/>
</g>
<mask id="mask10_2929_72656" style="mask-type:alpha" maskUnits="userSpaceOnUse" x="175" y="38" width="3" height="33">
<g opacity="0.3">
<g opacity="0.3">
<path opacity="0.3" d="M176.606 70.6061C176.994 70.6061 177.334 70.4053 177.334 70.1757V38.7258C177.334 38.4963 176.994 38.2954 176.606 38.2954C176.218 38.2954 175.878 38.4963 175.878 38.7258V70.1757C175.878 70.434 176.218 70.6061 176.606 70.6061Z" fill="url(#paint22_linear_2929_72656)"/>
</g>
</g>
</mask>
<g mask="url(#mask10_2929_72656)">
<path opacity="0.3" d="M176.612 70.6061C177 70.6061 177.34 70.4053 177.34 70.1757V38.7258C177.34 38.4963 177 38.2954 176.612 38.2954C176.224 38.2954 175.884 38.4963 175.884 38.7258V70.1757C175.884 70.434 176.224 70.6061 176.612 70.6061Z" fill="url(#paint23_linear_2929_72656)"/>
</g>
<mask id="mask11_2929_72656" style="mask-type:alpha" maskUnits="userSpaceOnUse" x="176" y="100" width="3" height="33">
<g opacity="0.3">
<g opacity="0.3">
<path opacity="0.3" d="M177.334 132.558C177.723 132.558 178.062 132.357 178.062 132.128V100.678C178.062 100.448 177.723 100.248 177.334 100.248C176.946 100.248 176.606 100.448 176.606 100.678V132.128C176.606 132.357 176.946 132.558 177.334 132.558Z" fill="url(#paint24_linear_2929_72656)"/>
</g>
</g>
</mask>
<g mask="url(#mask11_2929_72656)">
<path opacity="0.3" d="M177.338 132.56C177.727 132.56 178.066 132.359 178.066 132.13V100.68C178.066 100.45 177.727 100.25 177.338 100.25C176.95 100.25 176.61 100.45 176.61 100.68V132.13C176.61 132.359 176.95 132.56 177.338 132.56Z" fill="url(#paint25_linear_2929_72656)"/>
</g>
<mask id="mask12_2929_72656" style="mask-type:alpha" maskUnits="userSpaceOnUse" x="137" y="59" width="2" height="33">
<g opacity="0.3">
<g opacity="0.3">
<path opacity="0.3" d="M137.979 91.6436C138.367 91.6436 138.707 91.4428 138.707 91.2132V59.7346C138.707 59.5051 138.367 59.3042 137.979 59.3042C137.591 59.3042 137.251 59.5051 137.251 59.7346V91.1845C137.251 91.4428 137.591 91.6436 137.979 91.6436Z" fill="url(#paint26_linear_2929_72656)"/>
</g>
</g>
</mask>
<g mask="url(#mask12_2929_72656)">
<path opacity="0.3" d="M137.975 91.6397C138.363 91.6397 138.703 91.4389 138.703 91.2093V59.7307C138.703 59.5012 138.363 59.3003 137.975 59.3003C137.587 59.3003 137.247 59.5012 137.247 59.7307V91.1806C137.247 91.4389 137.587 91.6397 137.975 91.6397Z" fill="url(#paint27_linear_2929_72656)"/>
</g>
<mask id="mask13_2929_72656" style="mask-type:alpha" maskUnits="userSpaceOnUse" x="247" y="99" width="2" height="33">
<g opacity="0.3">
<g opacity="0.3">
<path opacity="0.3" d="M248.196 131.869C248.584 131.869 248.924 131.668 248.924 131.439V99.989C248.924 99.7595 248.584 99.5586 248.196 99.5586C247.808 99.5586 247.468 99.7595 247.468 99.989V131.439C247.468 131.668 247.808 131.869 248.196 131.869Z" fill="url(#paint28_linear_2929_72656)"/>
</g>
</g>
</mask>
<g mask="url(#mask13_2929_72656)">
<path opacity="0.3" d="M248.196 131.872C248.584 131.872 248.924 131.671 248.924 131.441V99.9915C248.924 99.7619 248.584 99.561 248.196 99.561C247.808 99.561 247.468 99.7619 247.468 99.9915V131.441C247.468 131.671 247.808 131.872 248.196 131.872Z" fill="url(#paint29_linear_2929_72656)"/>
</g>
<mask id="mask14_2929_72656" style="mask-type:alpha" maskUnits="userSpaceOnUse" x="247" y="77" width="2" height="34">
<g opacity="0.3">
<g opacity="0.3">
<path opacity="0.3" d="M248.196 110.148C248.584 110.148 248.924 109.947 248.924 109.717V78.2673C248.924 78.0378 248.584 77.8369 248.196 77.8369C247.808 77.8369 247.468 78.0378 247.468 78.2673V109.717C247.468 109.947 247.808 110.148 248.196 110.148Z" fill="url(#paint30_linear_2929_72656)"/>
</g>
</g>
</mask>
<g mask="url(#mask14_2929_72656)">
<path opacity="0.3" d="M248.196 110.148C248.584 110.148 248.924 109.947 248.924 109.717V78.2673C248.924 78.0378 248.584 77.8369 248.196 77.8369C247.808 77.8369 247.468 78.0378 247.468 78.2673V109.717C247.468 109.947 247.808 110.148 248.196 110.148Z" fill="url(#paint31_linear_2929_72656)"/>
</g>
</g>
</g>
<mask id="mask15_2929_72656" style="mask-type:alpha" maskUnits="userSpaceOnUse" x="134" y="108" width="117" height="40">
<path d="M192.823 147.795C195.007 147.795 197.239 147.451 199.181 146.791L249.122 129.746C250.19 129.373 250.869 128.713 250.869 127.967C250.869 127.221 250.238 126.561 249.122 126.188L199.181 109.143C195.249 107.794 190.348 107.794 186.416 109.143L136.475 126.188C135.407 126.561 134.728 127.221 134.728 127.967C134.728 128.713 135.359 129.373 136.475 129.746L186.416 146.791C188.406 147.451 190.59 147.795 192.823 147.795ZM192.823 108.626C194.91 108.626 197.045 108.942 198.889 109.573L248.248 126.417C249.17 126.733 249.753 127.307 249.753 127.938C249.753 128.569 249.17 129.143 248.248 129.459L198.889 146.303C195.152 147.594 190.493 147.594 186.707 146.303L137.349 129.488C136.427 129.172 135.844 128.598 135.844 127.967C135.844 127.336 136.427 126.762 137.349 126.446L186.707 109.602C188.6 108.942 190.687 108.626 192.823 108.626Z" fill="url(#paint32_linear_2929_72656)"/>
</mask>
<g mask="url(#mask15_2929_72656)">
<path d="M192.821 147.799C195.005 147.799 197.237 147.455 199.179 146.795L249.12 129.75C250.188 129.377 250.867 128.717 250.867 127.971C250.867 127.225 250.236 126.565 249.12 126.192L199.179 109.147C195.247 107.798 190.346 107.798 186.414 109.147L136.473 126.192C135.405 126.565 134.726 127.225 134.726 127.971C134.726 128.717 135.357 129.377 136.473 129.75L186.414 146.795C188.404 147.455 190.588 147.799 192.821 147.799ZM192.821 108.63C194.908 108.63 197.043 108.946 198.888 109.577L248.246 126.421C249.169 126.737 249.751 127.311 249.751 127.942C249.751 128.573 249.169 129.147 248.246 129.463L198.888 146.307C195.15 147.598 190.491 147.598 186.706 146.307L137.347 129.492C136.425 129.176 135.842 128.602 135.842 127.971C135.842 127.339 136.425 126.766 137.347 126.45L186.706 109.606C188.598 108.946 190.685 108.63 192.821 108.63Z" fill="url(#paint33_linear_2929_72656)"/>
</g>
<mask id="mask16_2929_72656" style="mask-type:alpha" maskUnits="userSpaceOnUse" x="134" y="100" width="117" height="41">
<path d="M192.823 140.251C195.007 140.251 197.239 139.906 199.181 139.246L249.122 122.202C250.19 121.828 250.869 121.169 250.869 120.422C250.869 119.676 250.238 119.016 249.122 118.643L199.181 101.598C195.249 100.25 190.348 100.25 186.416 101.598L136.475 118.643C135.407 119.016 134.728 119.676 134.728 120.422C134.728 121.169 135.359 121.828 136.475 122.202L186.416 139.246C188.406 139.935 190.59 140.251 192.823 140.251ZM192.823 101.082C194.91 101.082 197.045 101.398 198.889 102.029L248.248 118.902C249.17 119.217 249.753 119.791 249.753 120.422C249.753 121.054 249.17 121.628 248.248 121.943L198.889 138.787C195.152 140.079 190.493 140.079 186.707 138.787L137.349 121.972C136.427 121.656 135.844 121.082 135.844 120.451C135.844 119.82 136.427 119.246 137.349 118.93L186.707 102.086C188.6 101.398 190.687 101.082 192.823 101.082Z" fill="url(#paint34_linear_2929_72656)"/>
</mask>
<g mask="url(#mask16_2929_72656)">
<path d="M192.821 140.251C195.005 140.251 197.237 139.907 199.179 139.247L249.12 122.202C250.188 121.829 250.867 121.169 250.867 120.423C250.867 119.677 250.236 119.017 249.12 118.644L199.179 101.599C195.247 100.25 190.346 100.25 186.414 101.599L136.473 118.644C135.405 119.017 134.726 119.677 134.726 120.423C134.726 121.169 135.357 121.829 136.473 122.202L186.414 139.247C188.404 139.936 190.588 140.251 192.821 140.251ZM192.821 101.082C194.908 101.082 197.043 101.398 198.888 102.029L248.246 118.902C249.169 119.218 249.751 119.792 249.751 120.423C249.751 121.054 249.169 121.628 248.246 121.944L198.888 138.788C195.15 140.079 190.491 140.079 186.706 138.788L137.347 121.972C136.425 121.657 135.842 121.083 135.842 120.452C135.842 119.82 136.425 119.246 137.347 118.931L186.706 102.087C188.598 101.398 190.685 101.082 192.821 101.082Z" fill="url(#paint35_linear_2929_72656)"/>
</g>
<mask id="mask17_2929_72656" style="mask-type:alpha" maskUnits="userSpaceOnUse" x="134" y="81" width="117" height="41">
<path d="M192.823 121.029C195.007 121.029 197.239 120.684 199.181 120.024L249.122 102.979C250.19 102.606 250.869 101.946 250.869 101.2C250.869 100.454 250.238 99.7942 249.122 99.4212L199.181 82.3763C195.249 81.0276 190.348 81.0276 186.416 82.3763L136.475 99.4212C135.407 99.7942 134.728 100.454 134.728 101.2C134.728 101.946 135.359 102.606 136.475 102.979L186.416 120.024C188.406 120.713 190.59 121.029 192.823 121.029ZM192.823 81.8597C194.91 81.8597 197.045 82.1754 198.889 82.8067L248.248 99.6794C249.17 99.9951 249.753 100.569 249.753 101.2C249.753 101.832 249.17 102.405 248.248 102.721L198.889 119.565C195.152 120.856 190.493 120.856 186.707 119.565L137.349 102.75C136.427 102.434 135.844 101.86 135.844 101.229C135.844 100.598 136.427 100.024 137.349 99.7081L186.707 82.8641C188.6 82.1754 190.687 81.8597 192.823 81.8597Z" fill="url(#paint36_linear_2929_72656)"/>
</mask>
<g mask="url(#mask17_2929_72656)">
<path d="M192.821 121.025C195.005 121.025 197.237 120.68 199.179 120.02L249.12 102.975C250.188 102.602 250.867 101.942 250.867 101.196C250.867 100.45 250.236 99.7903 249.12 99.4173L199.179 82.3723C195.247 81.0237 190.346 81.0237 186.414 82.3723L136.473 99.4173C135.405 99.7903 134.726 100.45 134.726 101.196C134.726 101.942 135.357 102.602 136.473 102.975L186.414 120.02C188.404 120.709 190.588 121.025 192.821 121.025ZM192.821 81.8558C194.908 81.8558 197.043 82.1715 198.888 82.8028L248.246 99.6755C249.169 99.9912 249.751 100.565 249.751 101.196C249.751 101.828 249.169 102.402 248.246 102.717L198.888 119.561C195.15 120.853 190.491 120.853 186.706 119.561L137.347 102.746C136.425 102.43 135.842 101.856 135.842 101.225C135.842 100.594 136.425 100.02 137.347 99.7042L186.706 82.8602C188.598 82.1715 190.685 81.8558 192.821 81.8558Z" fill="url(#paint37_linear_2929_72656)"/>
</g>
<path d="M117.983 146.42L159.674 160.767V150.666L117.983 136.319V146.42Z" fill="url(#paint38_linear_2929_72656)"/>
<path d="M117.979 146.42L159.67 160.768V150.667L117.979 136.319V146.42Z" fill="url(#paint39_linear_2929_72656)"/>
<path d="M164.912 131.813V157.696C164.912 158.471 163.505 158.959 162.388 158.557L116.718 142.976C114.971 142.373 113.903 141.282 113.903 140.077V114.194C113.903 113.419 115.311 112.932 116.427 113.333L162.097 128.915C163.796 129.517 164.912 130.637 164.912 131.813Z" fill="url(#paint40_linear_2929_72656)"/>
<path d="M155.059 141.284L143.022 137.181V138.242L155.059 142.346V141.284Z" fill="white"/>
<path d="M155.059 143.809L143.022 139.706V140.767L155.059 144.871V143.809Z" fill="white"/>
<path d="M155.059 146.336L143.022 142.233V143.295L155.059 147.398V146.336Z" fill="white"/>
<path d="M134.771 141.711C134.771 144.523 131.423 145.671 127.346 144.265C123.22 142.859 119.92 139.444 119.92 136.632C119.92 133.82 123.269 132.672 127.346 134.078C131.471 135.484 134.771 138.899 134.771 141.711ZM133.073 141.137C133.073 138.985 130.501 136.374 127.346 135.283C124.191 134.222 121.619 135.082 121.619 137.235C121.619 139.387 124.191 141.998 127.346 143.088C130.501 144.15 133.073 143.289 133.073 141.137Z" fill="#5A7EFF"/>
<path d="M132.056 138.584L133.512 138.412C132.153 136.604 129.92 134.968 127.348 134.107V135.284C129.289 135.944 131.036 137.206 132.056 138.584Z" fill="white"/>
<path d="M134.771 130.005C134.771 132.817 131.423 133.964 127.346 132.558C123.22 131.152 119.92 127.738 119.92 124.925C119.92 122.113 123.269 120.966 127.346 122.372C131.471 123.778 134.771 127.192 134.771 130.005ZM133.073 129.402C133.073 127.25 130.501 124.639 127.346 123.548C124.191 122.486 121.619 123.347 121.619 125.499C121.619 127.652 124.191 130.263 127.346 131.353C130.501 132.444 133.073 131.554 133.073 129.402Z" fill="#5A7EFF"/>
<path d="M133.073 129.402C133.073 130.291 132.636 130.98 131.859 131.382L133.218 132.587C134.189 132.071 134.771 131.181 134.771 130.004C134.771 127.192 131.423 123.778 127.346 122.372V123.548C130.501 124.639 133.073 127.25 133.073 129.402Z" fill="white"/>
<path d="M159.669 161.14C159.863 161.14 160.057 161.083 160.203 160.968C160.349 160.796 160.252 160.595 160.009 160.48L118.27 146.133C117.979 146.047 117.639 146.104 117.445 146.248C117.299 146.42 117.396 146.621 117.639 146.735L159.378 161.083C159.475 161.112 159.572 161.14 159.669 161.14Z" fill="white"/>
<path fill-rule="evenodd" clip-rule="evenodd" d="M213.927 258.963L212.781 258.624C209.946 257.786 209.946 256.438 212.781 255.6L248.589 245.014C251.424 244.176 255.984 244.176 258.819 245.014L273.968 249.495C274.035 249.514 274.101 249.532 274.166 249.552L275.458 249.934C275.542 249.956 275.625 249.98 275.706 250.004L326.829 265.126C329.664 265.964 329.664 267.312 326.829 268.15L291.021 278.736C288.186 279.574 283.626 279.574 280.791 278.736L279.499 278.354C279.415 278.331 279.332 278.307 279.25 278.283L278.301 278.003C278.097 277.954 277.899 277.902 277.71 277.846L276.323 277.436C276.271 277.421 276.219 277.406 276.168 277.391L225.045 262.269C224.931 262.235 224.822 262.2 224.717 262.164L214.293 259.081C214.165 259.042 214.043 259.003 213.927 258.963Z" fill="url(#paint41_linear_2929_72656)"/>
<path d="M214.818 246.488L249.116 236.34C251.828 235.538 256.203 235.538 258.915 236.34L307.912 250.824C309.267 251.225 309.945 251.754 309.945 252.282V261.009C309.945 261.537 309.267 262.066 307.912 262.466L273.614 272.615C270.902 273.416 266.527 273.416 263.815 272.615L214.818 258.13C213.493 257.729 212.816 257.219 212.785 256.691V247.964C212.754 247.436 213.432 246.889 214.818 246.488Z" fill="url(#paint42_linear_2929_72656)"/>
<path d="M212.781 242.68L248.589 232.095C251.424 231.257 255.985 231.257 258.82 232.095L309.942 247.217C311.36 247.636 312.068 248.182 312.068 248.729V257.839C312.068 258.385 311.36 258.932 309.942 259.351L274.135 269.936C271.3 270.774 266.739 270.774 263.904 269.936L212.781 254.814C211.395 254.395 210.686 253.867 210.655 253.32V244.211C210.624 243.664 211.333 243.099 212.781 242.68Z" fill="url(#paint43_linear_2929_72656)"/>
<path d="M212.781 245.705L263.904 260.827C266.739 261.665 271.3 261.665 274.135 260.827L309.942 250.241C312.777 249.403 312.777 248.055 309.942 247.217L258.82 232.095C255.985 231.257 251.424 231.257 248.589 232.095L212.781 242.68C209.946 243.518 209.946 244.867 212.781 245.705Z" fill="url(#paint44_linear_2929_72656)"/>
<path d="M214.818 232.261L249.116 222.113C251.828 221.311 256.203 221.311 258.915 222.113L307.912 236.597C309.267 236.998 309.945 237.526 309.945 238.055V246.782C309.945 247.31 309.267 247.839 307.912 248.239L273.614 258.388C270.902 259.189 266.527 259.189 263.815 258.388L214.818 243.903C213.493 243.502 212.816 242.992 212.785 242.464V233.737C212.754 233.19 213.432 232.662 214.818 232.261Z" fill="url(#paint45_linear_2929_72656)"/>
<path d="M212.781 228.453L248.589 217.868C251.424 217.03 255.985 217.03 258.82 217.868L309.942 232.99C311.36 233.409 312.068 233.955 312.068 234.502V243.612C312.068 244.158 311.36 244.705 309.942 245.124L274.135 255.709C271.3 256.547 266.739 256.547 263.904 255.709L212.781 240.587C211.395 240.168 210.686 239.64 210.655 239.093V229.984C210.624 229.419 211.333 228.872 212.781 228.453Z" fill="url(#paint46_linear_2929_72656)"/>
<path d="M212.781 231.478L263.904 246.6C266.739 247.438 271.3 247.438 274.135 246.6L309.942 236.014C312.777 235.176 312.777 233.828 309.942 232.99L258.82 217.868C255.985 217.03 251.424 217.03 248.589 217.868L212.781 228.453C209.946 229.291 209.946 230.64 212.781 231.478Z" fill="url(#paint47_linear_2929_72656)"/>
<path d="M214.818 218.033L249.116 207.885C251.828 207.083 256.203 207.083 258.915 207.885L307.912 222.369C309.267 222.77 309.945 223.298 309.945 223.827V232.536C309.945 233.064 309.267 233.592 307.912 233.993L273.614 244.141C270.902 244.943 266.527 244.943 263.815 244.141L214.818 229.657C213.493 229.256 212.816 228.746 212.785 228.218V219.491C212.754 218.962 213.432 218.434 214.818 218.033Z" fill="url(#paint48_linear_2929_72656)"/>
<path d="M212.781 214.225L248.589 203.64C251.424 202.802 255.985 202.802 258.82 203.64L309.942 218.762C311.36 219.181 312.068 219.727 312.068 220.274V229.384C312.068 229.93 311.36 230.477 309.942 230.896L274.135 241.481C271.3 242.319 266.739 242.319 263.904 241.481L212.781 226.359C211.395 225.94 210.686 225.412 210.655 224.865V215.756C210.624 215.191 211.333 214.644 212.781 214.225Z" fill="url(#paint49_linear_2929_72656)"/>
<path d="M212.781 217.25L263.904 232.372C266.739 233.21 271.3 233.21 274.135 232.372L309.942 221.786C312.777 220.948 312.777 219.6 309.942 218.762L258.82 203.64C255.985 202.802 251.424 202.802 248.589 203.64L212.781 214.225C209.946 215.045 209.946 216.411 212.781 217.25Z" fill="url(#paint50_linear_2929_72656)"/>
<path d="M234.968 214.498L273.179 225.794C274.412 226.159 276.446 226.159 277.678 225.794L287.724 222.825C288.957 222.46 288.957 221.859 287.724 221.495L249.513 210.199C248.28 209.834 246.247 209.834 245.014 210.199L234.968 213.168C233.736 213.533 233.736 214.134 234.968 214.498Z" fill="#D3DAF3"/>
<path d="M287.724 222.825L286.892 223.08L249.513 212.021C248.281 211.656 246.247 211.656 245.014 212.021L235.801 214.753L234.969 214.498C233.736 214.134 233.736 213.533 234.969 213.168L245.014 210.199C246.247 209.834 248.281 209.834 249.513 210.199L287.724 221.495C288.988 221.859 288.988 222.46 287.724 222.825Z" fill="#B4C1F3"/>
<path d="M278.477 222.533C279.463 222.824 279.463 223.298 278.477 223.608C277.491 223.918 275.858 223.899 274.872 223.608C273.886 223.316 273.886 222.843 274.872 222.533C275.858 222.241 277.46 222.241 278.477 222.533ZM270.804 220.274C271.79 220.565 271.79 221.039 270.804 221.349C269.818 221.64 268.185 221.64 267.199 221.349C266.213 221.057 266.213 220.583 267.199 220.274C268.216 219.982 269.818 219.982 270.804 220.274ZM263.162 218.014C264.148 218.306 264.148 218.78 263.162 219.089C262.176 219.381 260.543 219.381 259.557 219.089C258.571 218.798 258.571 218.324 259.557 218.014C260.543 217.723 262.145 217.723 263.162 218.014ZM255.489 215.755C256.475 216.047 256.475 216.521 255.489 216.83C254.503 217.122 252.87 217.122 251.884 216.83C250.898 216.539 250.898 216.065 251.884 215.755C252.87 215.446 254.503 215.446 255.489 215.755ZM247.816 213.478C248.802 213.769 248.802 214.243 247.816 214.553C246.83 214.844 245.197 214.844 244.211 214.553C243.225 214.261 243.225 213.788 244.211 213.478C245.228 213.186 246.83 213.186 247.816 213.478Z" fill="#B4C1F3"/>
<path d="M278.477 221.986C279.463 222.278 279.463 222.752 278.477 223.061C277.491 223.371 275.858 223.353 274.872 223.061C273.886 222.77 273.886 222.296 274.872 221.986C275.858 221.695 277.46 221.695 278.477 221.986ZM270.804 219.727C271.79 220.019 271.79 220.493 270.804 220.802C269.818 221.094 268.185 221.094 267.199 220.802C266.213 220.511 266.213 220.037 267.199 219.727C268.216 219.436 269.818 219.436 270.804 219.727ZM263.162 217.468C264.148 217.76 264.148 218.233 263.162 218.543C262.176 218.835 260.543 218.835 259.557 218.543C258.571 218.252 258.571 217.778 259.557 217.468C260.543 217.177 262.145 217.177 263.162 217.468ZM255.489 215.209C256.475 215.5 256.475 215.974 255.489 216.284C254.503 216.575 252.87 216.575 251.884 216.284C250.898 215.992 250.898 215.519 251.884 215.209C252.87 214.899 254.503 214.899 255.489 215.209ZM247.816 212.932C248.802 213.223 248.802 213.697 247.816 214.006C246.83 214.298 245.197 214.298 244.211 214.006C243.225 213.715 243.225 213.241 244.211 212.932C245.228 212.64 246.83 212.64 247.816 212.932Z" fill="white"/>
<path d="M257.646 251.537V247.183L215.491 234.721V239.075L257.646 251.537Z" fill="#BCC9F8"/>
<path d="M252.407 248.732L255.52 249.643V247.821L252.407 246.91V248.732Z" fill="#5288FF"/>
<path d="M233.178 242.134C233.178 242.645 233.856 243.264 234.719 243.501C235.582 243.756 236.26 243.556 236.26 243.045C236.26 242.535 235.582 241.916 234.719 241.679C233.887 241.424 233.178 241.624 233.178 242.134Z" fill="#7E3EFF"/>
<path d="M228.001 240.606C228.001 241.116 228.678 241.735 229.541 241.972C230.404 242.227 231.082 242.027 231.082 241.517C231.082 241.006 230.404 240.387 229.541 240.15C228.678 239.895 228.001 240.095 228.001 240.606Z" fill="#5288FF"/>
<path d="M222.827 239.057C222.827 239.568 223.505 240.187 224.367 240.424C225.23 240.679 225.908 240.479 225.908 239.968C225.908 239.458 225.23 238.839 224.367 238.602C223.505 238.347 222.827 238.565 222.827 239.057Z" fill="#75A4FF"/>
<path d="M217.618 237.527C217.618 238.037 218.296 238.657 219.158 238.894C220.021 239.149 220.699 238.948 220.699 238.438C220.699 237.928 220.021 237.309 219.158 237.072C218.326 236.817 217.618 237.035 217.618 237.527Z" fill="#7E3EFF"/>
<path d="M257.646 265.928V261.556L215.491 249.094V253.448L257.646 265.928Z" fill="#BCC9F8"/>
<path d="M252.407 263.105L255.52 264.034V262.194L252.407 261.283V263.105Z" fill="#7E3EFF"/>
<path d="M233.178 256.507C233.178 257.018 233.856 257.637 234.719 257.874C235.582 258.129 236.26 257.929 236.26 257.418C236.26 256.908 235.582 256.289 234.719 256.052C233.887 255.797 233.178 255.997 233.178 256.507Z" fill="#5288FF"/>
<path d="M228.001 254.979C228.001 255.489 228.678 256.108 229.541 256.345C230.404 256.6 231.082 256.4 231.082 255.89C231.082 255.379 230.404 254.76 229.541 254.523C228.678 254.268 228.001 254.469 228.001 254.979Z" fill="#7E3EFF"/>
<path d="M222.827 253.448C222.827 253.959 223.505 254.578 224.367 254.815C225.23 255.07 225.908 254.869 225.908 254.359C225.908 253.849 225.23 253.23 224.367 252.993C223.505 252.738 222.827 252.938 222.827 253.448Z" fill="#75A4FF"/>
<path d="M217.618 251.918C217.618 252.428 218.296 253.048 219.158 253.285C220.021 253.54 220.699 253.339 220.699 252.829C220.699 252.319 220.021 251.699 219.158 251.463C218.326 251.208 217.618 251.408 217.618 251.918Z" fill="#75A4FF"/>
<path d="M257.646 237.18V232.825L215.491 220.363V224.718L257.646 237.18Z" fill="#BCC9F8"/>
<path d="M252.407 234.372L255.52 235.283V233.443L252.407 232.532V234.372Z" fill="#7E3EFF"/>
<path d="M233.178 227.759C233.178 228.269 233.856 228.889 234.719 229.126C235.582 229.381 236.26 229.18 236.26 228.67C236.26 228.16 235.582 227.54 234.719 227.304C233.887 227.049 233.178 227.267 233.178 227.759Z" fill="#7E3EFF"/>
<path d="M228.001 226.23C228.001 226.74 228.678 227.359 229.541 227.596C230.404 227.851 231.082 227.651 231.082 227.141C231.082 226.63 230.404 226.011 229.541 225.774C228.678 225.519 228.001 225.719 228.001 226.23Z" fill="#75A4FF"/>
<path d="M222.827 224.699C222.827 225.209 223.505 225.828 224.367 226.065C225.23 226.32 225.908 226.12 225.908 225.61C225.908 225.1 225.23 224.48 224.367 224.243C223.505 223.988 222.827 224.189 222.827 224.699Z" fill="#5288FF"/>
<path d="M217.618 223.171C217.618 223.681 218.296 224.301 219.158 224.537C220.021 224.793 220.699 224.592 220.699 224.082C220.699 223.572 220.021 222.952 219.158 222.716C218.326 222.46 217.618 222.661 217.618 223.171Z" fill="#7E3EFF"/>
</g>
</g>
</g>
<defs>
<linearGradient id="paint0_linear_2929_72656" x1="192.772" y1="178.209" x2="57.498" y2="178.209" gradientUnits="userSpaceOnUse">
<stop stop-color="#CED4FF"/>
<stop offset="1" stop-color="#CED4FF" stop-opacity="0"/>
</linearGradient>
<linearGradient id="paint1_linear_2929_72656" x1="265.129" y1="154.068" x2="115.651" y2="184.744" gradientUnits="userSpaceOnUse">
<stop offset="0.4252" stop-color="#F3F4FF"/>
<stop offset="0.57835" stop-color="#E5E8FE"/>
</linearGradient>
<linearGradient id="paint2_linear_2929_72656" x1="282.949" y1="129.77" x2="102.737" y2="129.77" gradientUnits="userSpaceOnUse">
<stop stop-color="#F7F8FF"/>
<stop offset="1" stop-color="#F2F3FA"/>
</linearGradient>
<linearGradient id="paint3_linear_2929_72656" x1="164.26" y1="176.324" x2="96.6026" y2="189.504" gradientUnits="userSpaceOnUse">
<stop offset="0.4252" stop-color="#F3F4FF"/>
<stop offset="0.57835" stop-color="#E5E8FE"/>
</linearGradient>
<linearGradient id="paint4_linear_2929_72656" x1="196.91" y1="175.492" x2="107.354" y2="175.492" gradientUnits="userSpaceOnUse">
<stop stop-color="white"/>
<stop offset="1"/>
</linearGradient>
<linearGradient id="paint5_linear_2929_72656" x1="250.917" y1="121.167" x2="134.764" y2="121.167" gradientUnits="userSpaceOnUse">
<stop offset="0.3962" stop-color="#BCC0E5"/>
<stop offset="0.6076" stop-color="#D0D3F5"/>
</linearGradient>
<linearGradient id="paint6_linear_2929_72656" x1="191.977" y1="53.3196" x2="191.977" y2="147.2" gradientUnits="userSpaceOnUse">
<stop/>
<stop offset="0.0939495" stop-color="#060606"/>
<stop offset="0.2187" stop-color="#171717"/>
<stop offset="0.3609" stop-color="#323232"/>
<stop offset="0.516" stop-color="#595959"/>
<stop offset="0.6816" stop-color="#8B8B8B"/>
<stop offset="0.8532" stop-color="#C6C6C6"/>
<stop offset="1" stop-color="white"/>
</linearGradient>
<linearGradient id="paint7_linear_2929_72656" x1="193.232" y1="148.601" x2="193.232" y2="53.1146" gradientUnits="userSpaceOnUse">
<stop stop-color="#7E83FF"/>
<stop offset="0.776595" stop-color="#012AFF" stop-opacity="0"/>
</linearGradient>
<linearGradient id="paint8_linear_2929_72656" x1="233.488" y1="84.4724" x2="233.488" y2="117.335" gradientUnits="userSpaceOnUse">
<stop stop-color="white"/>
<stop offset="0.0424351" stop-color="#E7E7E7"/>
<stop offset="0.1485" stop-color="#B2B2B2"/>
<stop offset="0.2586" stop-color="#828282"/>
<stop offset="0.3705" stop-color="#5A5A5A"/>
<stop offset="0.4847" stop-color="#393939"/>
<stop offset="0.6019" stop-color="#202020"/>
<stop offset="0.7232" stop-color="#0E0E0E"/>
<stop offset="0.8513" stop-color="#030303"/>
<stop offset="0.9977"/>
</linearGradient>
<linearGradient id="paint9_linear_2929_72656" x1="233.484" y1="84.469" x2="233.484" y2="117.332" gradientUnits="userSpaceOnUse">
<stop stop-color="#FFAD6F"/>
<stop offset="0.0622611" stop-color="#FFAD6F"/>
<stop offset="0.9977" stop-color="#FFAD6F"/>
</linearGradient>
<linearGradient id="paint10_linear_2929_72656" x1="245.403" y1="61.3349" x2="245.403" y2="94.1976" gradientUnits="userSpaceOnUse">
<stop stop-color="white"/>
<stop offset="0.0424351" stop-color="#E7E7E7"/>
<stop offset="0.1485" stop-color="#B2B2B2"/>
<stop offset="0.2586" stop-color="#828282"/>
<stop offset="0.3705" stop-color="#5A5A5A"/>
<stop offset="0.4847" stop-color="#393939"/>
<stop offset="0.6019" stop-color="#202020"/>
<stop offset="0.7232" stop-color="#0E0E0E"/>
<stop offset="0.8513" stop-color="#030303"/>
<stop offset="0.9977"/>
</linearGradient>
<linearGradient id="paint11_linear_2929_72656" x1="245.407" y1="61.3368" x2="245.407" y2="94.1995" gradientUnits="userSpaceOnUse">
<stop stop-color="#FFAD6F"/>
<stop offset="0.0622611" stop-color="#FFAD6F"/>
<stop offset="0.9977" stop-color="#FFAD6F"/>
</linearGradient>
<linearGradient id="paint12_linear_2929_72656" x1="152.867" y1="66.1542" x2="152.867" y2="99.0169" gradientUnits="userSpaceOnUse">
<stop stop-color="white"/>
<stop offset="0.0424351" stop-color="#E7E7E7"/>
<stop offset="0.1485" stop-color="#B2B2B2"/>
<stop offset="0.2586" stop-color="#828282"/>
<stop offset="0.3705" stop-color="#5A5A5A"/>
<stop offset="0.4847" stop-color="#393939"/>
<stop offset="0.6019" stop-color="#202020"/>
<stop offset="0.7232" stop-color="#0E0E0E"/>
<stop offset="0.8513" stop-color="#030303"/>
<stop offset="0.9977"/>
</linearGradient>
<linearGradient id="paint13_linear_2929_72656" x1="152.865" y1="66.1581" x2="152.865" y2="99.0208" gradientUnits="userSpaceOnUse">
<stop stop-color="#FFAD6F"/>
<stop offset="0.0622611" stop-color="#FFAD6F"/>
<stop offset="0.9977" stop-color="#FFAD6F"/>
</linearGradient>
<linearGradient id="paint14_linear_2929_72656" x1="142.54" y1="78.6777" x2="142.54" y2="111.54" gradientUnits="userSpaceOnUse">
<stop stop-color="white"/>
<stop offset="0.0424351" stop-color="#E7E7E7"/>
<stop offset="0.1485" stop-color="#B2B2B2"/>
<stop offset="0.2586" stop-color="#828282"/>
<stop offset="0.3705" stop-color="#5A5A5A"/>
<stop offset="0.4847" stop-color="#393939"/>
<stop offset="0.6019" stop-color="#202020"/>
<stop offset="0.7232" stop-color="#0E0E0E"/>
<stop offset="0.8513" stop-color="#030303"/>
<stop offset="0.9977"/>
</linearGradient>
<linearGradient id="paint15_linear_2929_72656" x1="142.538" y1="78.6777" x2="142.538" y2="111.54" gradientUnits="userSpaceOnUse">
<stop stop-color="#FFAD6F"/>
<stop offset="0.0622611" stop-color="#FFAD6F"/>
<stop offset="0.9977" stop-color="#FFAD6F"/>
</linearGradient>
<linearGradient id="paint16_linear_2929_72656" x1="194.899" y1="70.0852" x2="194.899" y2="101.784" gradientUnits="userSpaceOnUse">
<stop stop-color="white"/>
<stop offset="0.0424351" stop-color="#E7E7E7"/>
<stop offset="0.1485" stop-color="#B2B2B2"/>
<stop offset="0.2586" stop-color="#828282"/>
<stop offset="0.3705" stop-color="#5A5A5A"/>
<stop offset="0.4847" stop-color="#393939"/>
<stop offset="0.6019" stop-color="#202020"/>
<stop offset="0.7232" stop-color="#0E0E0E"/>
<stop offset="0.8513" stop-color="#030303"/>
<stop offset="0.9977"/>
</linearGradient>
<linearGradient id="paint17_linear_2929_72656" x1="194.901" y1="70.0872" x2="194.901" y2="101.786" gradientUnits="userSpaceOnUse">
<stop stop-color="#FFAD6F"/>
<stop offset="0.0622611" stop-color="#FFAD6F"/>
<stop offset="0.9977" stop-color="#FFAD6F"/>
</linearGradient>
<linearGradient id="paint18_linear_2929_72656" x1="242.845" y1="99.6349" x2="242.845" y2="131.334" gradientUnits="userSpaceOnUse">
<stop stop-color="white"/>
<stop offset="0.0424351" stop-color="#E7E7E7"/>
<stop offset="0.1485" stop-color="#B2B2B2"/>
<stop offset="0.2586" stop-color="#828282"/>
<stop offset="0.3705" stop-color="#5A5A5A"/>
<stop offset="0.4847" stop-color="#393939"/>
<stop offset="0.6019" stop-color="#202020"/>
<stop offset="0.7232" stop-color="#0E0E0E"/>
<stop offset="0.8513" stop-color="#030303"/>
<stop offset="0.9977"/>
</linearGradient>
<linearGradient id="paint19_linear_2929_72656" x1="242.845" y1="99.6374" x2="242.845" y2="131.337" gradientUnits="userSpaceOnUse">
<stop stop-color="#FFAD6F"/>
<stop offset="0.0622611" stop-color="#FFAD6F"/>
<stop offset="0.9977" stop-color="#FFAD6F"/>
</linearGradient>
<linearGradient id="paint20_linear_2929_72656" x1="137.983" y1="98.2001" x2="137.983" y2="129.899" gradientUnits="userSpaceOnUse">
<stop stop-color="white"/>
<stop offset="0.0424351" stop-color="#E7E7E7"/>
<stop offset="0.1485" stop-color="#B2B2B2"/>
<stop offset="0.2586" stop-color="#828282"/>
<stop offset="0.3705" stop-color="#5A5A5A"/>
<stop offset="0.4847" stop-color="#393939"/>
<stop offset="0.6019" stop-color="#202020"/>
<stop offset="0.7232" stop-color="#0E0E0E"/>
<stop offset="0.8513" stop-color="#030303"/>
<stop offset="0.9977"/>
</linearGradient>
<linearGradient id="paint21_linear_2929_72656" x1="137.979" y1="98.2026" x2="137.979" y2="129.902" gradientUnits="userSpaceOnUse">
<stop stop-color="#FFAD6F"/>
<stop offset="0.0622611" stop-color="#FFAD6F"/>
<stop offset="0.9977" stop-color="#FFAD6F"/>
</linearGradient>
<linearGradient id="paint22_linear_2929_72656" x1="176.611" y1="38.3894" x2="176.611" y2="70.0886" gradientUnits="userSpaceOnUse">
<stop stop-color="white"/>
<stop offset="0.0424351" stop-color="#E7E7E7"/>
<stop offset="0.1485" stop-color="#B2B2B2"/>
<stop offset="0.2586" stop-color="#828282"/>
<stop offset="0.3705" stop-color="#5A5A5A"/>
<stop offset="0.4847" stop-color="#393939"/>
<stop offset="0.6019" stop-color="#202020"/>
<stop offset="0.7232" stop-color="#0E0E0E"/>
<stop offset="0.8513" stop-color="#030303"/>
<stop offset="0.9977"/>
</linearGradient>
<linearGradient id="paint23_linear_2929_72656" x1="176.617" y1="38.3894" x2="176.617" y2="70.0886" gradientUnits="userSpaceOnUse">
<stop stop-color="#FFAD6F"/>
<stop offset="0.0622611" stop-color="#FFAD6F"/>
<stop offset="0.9977" stop-color="#FFAD6F"/>
</linearGradient>
<linearGradient id="paint24_linear_2929_72656" x1="177.34" y1="100.336" x2="177.34" y2="132.035" gradientUnits="userSpaceOnUse">
<stop stop-color="white"/>
<stop offset="0.0424351" stop-color="#E7E7E7"/>
<stop offset="0.1485" stop-color="#B2B2B2"/>
<stop offset="0.2586" stop-color="#828282"/>
<stop offset="0.3705" stop-color="#5A5A5A"/>
<stop offset="0.4847" stop-color="#393939"/>
<stop offset="0.6019" stop-color="#202020"/>
<stop offset="0.7232" stop-color="#0E0E0E"/>
<stop offset="0.8513" stop-color="#030303"/>
<stop offset="0.9977"/>
</linearGradient>
<linearGradient id="paint25_linear_2929_72656" x1="177.344" y1="100.338" x2="177.344" y2="132.037" gradientUnits="userSpaceOnUse">
<stop stop-color="#FFAD6F"/>
<stop offset="0.0622611" stop-color="#FFAD6F"/>
<stop offset="0.9977" stop-color="#FFAD6F"/>
</linearGradient>
<linearGradient id="paint26_linear_2929_72656" x1="137.983" y1="59.4064" x2="137.983" y2="91.1055" gradientUnits="userSpaceOnUse">
<stop stop-color="white"/>
<stop offset="0.0424351" stop-color="#E7E7E7"/>
<stop offset="0.1485" stop-color="#B2B2B2"/>
<stop offset="0.2586" stop-color="#828282"/>
<stop offset="0.3705" stop-color="#5A5A5A"/>
<stop offset="0.4847" stop-color="#393939"/>
<stop offset="0.6019" stop-color="#202020"/>
<stop offset="0.7232" stop-color="#0E0E0E"/>
<stop offset="0.8513" stop-color="#030303"/>
<stop offset="0.9977"/>
</linearGradient>
<linearGradient id="paint27_linear_2929_72656" x1="137.979" y1="59.4024" x2="137.979" y2="91.1016" gradientUnits="userSpaceOnUse">
<stop stop-color="#FFAD6F"/>
<stop offset="0.0622611" stop-color="#FFAD6F"/>
<stop offset="0.9977" stop-color="#FFAD6F"/>
</linearGradient>
<linearGradient id="paint28_linear_2929_72656" x1="248.204" y1="99.6349" x2="248.204" y2="131.334" gradientUnits="userSpaceOnUse">
<stop stop-color="white"/>
<stop offset="0.0424351" stop-color="#E7E7E7"/>
<stop offset="0.1485" stop-color="#B2B2B2"/>
<stop offset="0.2586" stop-color="#828282"/>
<stop offset="0.3705" stop-color="#5A5A5A"/>
<stop offset="0.4847" stop-color="#393939"/>
<stop offset="0.6019" stop-color="#202020"/>
<stop offset="0.7232" stop-color="#0E0E0E"/>
<stop offset="0.8513" stop-color="#030303"/>
<stop offset="0.9977"/>
</linearGradient>
<linearGradient id="paint29_linear_2929_72656" x1="248.204" y1="99.6374" x2="248.204" y2="131.337" gradientUnits="userSpaceOnUse">
<stop stop-color="#FFAD6F"/>
<stop offset="0.0622611" stop-color="#FFAD6F"/>
<stop offset="0.9977" stop-color="#FFAD6F"/>
</linearGradient>
<linearGradient id="paint30_linear_2929_72656" x1="248.204" y1="77.9149" x2="248.204" y2="109.614" gradientUnits="userSpaceOnUse">
<stop stop-color="white"/>
<stop offset="0.0424351" stop-color="#E7E7E7"/>
<stop offset="0.1485" stop-color="#B2B2B2"/>
<stop offset="0.2586" stop-color="#828282"/>
<stop offset="0.3705" stop-color="#5A5A5A"/>
<stop offset="0.4847" stop-color="#393939"/>
<stop offset="0.6019" stop-color="#202020"/>
<stop offset="0.7232" stop-color="#0E0E0E"/>
<stop offset="0.8513" stop-color="#030303"/>
<stop offset="0.9977"/>
</linearGradient>
<linearGradient id="paint31_linear_2929_72656" x1="248.204" y1="77.9149" x2="248.204" y2="109.614" gradientUnits="userSpaceOnUse">
<stop stop-color="#FF6FF1"/>
<stop offset="0.759559" stop-color="#6FCBFF"/>
<stop offset="0.9977" stop-color="#6FCBFF"/>
</linearGradient>
<linearGradient id="paint32_linear_2929_72656" x1="192.811" y1="131.374" x2="192.811" y2="123.814" gradientUnits="userSpaceOnUse">
<stop offset="0.00231799" stop-color="#CCCCCC"/>
<stop offset="0.9988" stop-color="#4D4D4D"/>
</linearGradient>
<linearGradient id="paint33_linear_2929_72656" x1="192.809" y1="131.378" x2="192.809" y2="123.818" gradientUnits="userSpaceOnUse">
<stop offset="0.00231799" stop-color="white"/>
<stop offset="0.9988" stop-color="white"/>
</linearGradient>
<linearGradient id="paint34_linear_2929_72656" x1="192.811" y1="123.844" x2="192.811" y2="116.285" gradientUnits="userSpaceOnUse">
<stop offset="0.00231799" stop-color="#CCCCCC"/>
<stop offset="0.9988" stop-color="#4D4D4D"/>
</linearGradient>
<linearGradient id="paint35_linear_2929_72656" x1="192.809" y1="123.845" x2="192.809" y2="116.285" gradientUnits="userSpaceOnUse">
<stop offset="0.00231799" stop-color="white"/>
<stop offset="0.9988" stop-color="white"/>
</linearGradient>
<linearGradient id="paint36_linear_2929_72656" x1="192.811" y1="104.623" x2="192.811" y2="97.0637" gradientUnits="userSpaceOnUse">
<stop offset="0.00231799" stop-color="#CCCCCC"/>
<stop offset="0.9988" stop-color="#4D4D4D"/>
</linearGradient>
<linearGradient id="paint37_linear_2929_72656" x1="192.809" y1="104.62" x2="192.809" y2="97.0598" gradientUnits="userSpaceOnUse">
<stop offset="0.00231799" stop-color="white"/>
<stop offset="0.9988" stop-color="white"/>
</linearGradient>
<linearGradient id="paint38_linear_2929_72656" x1="132.792" y1="154.056" x2="135.759" y2="146.308" gradientUnits="userSpaceOnUse">
<stop stop-color="white"/>
<stop offset="1"/>
</linearGradient>
<linearGradient id="paint39_linear_2929_72656" x1="132.788" y1="154.056" x2="135.755" y2="146.309" gradientUnits="userSpaceOnUse">
<stop stop-color="#1129FF"/>
<stop offset="1" stop-color="#7190FF"/>
</linearGradient>
<linearGradient id="paint40_linear_2929_72656" x1="116.968" y1="119.864" x2="143.296" y2="173.762" gradientUnits="userSpaceOnUse">
<stop stop-color="#84AEFF"/>
<stop offset="1" stop-color="#717FFF"/>
</linearGradient>
<linearGradient id="paint41_linear_2929_72656" x1="285.18" y1="261.951" x2="298.855" y2="282.36" gradientUnits="userSpaceOnUse">
<stop stop-color="#BEDDFF"/>
<stop offset="1" stop-color="#BEDDFF" stop-opacity="0"/>
</linearGradient>
<linearGradient id="paint42_linear_2929_72656" x1="212.774" y1="254.472" x2="310.19" y2="254.472" gradientUnits="userSpaceOnUse">
<stop stop-color="#C6D9FF"/>
<stop offset="1" stop-color="#8582FF"/>
</linearGradient>
<linearGradient id="paint43_linear_2929_72656" x1="311.526" y1="251.011" x2="211.171" y2="251.011" gradientUnits="userSpaceOnUse">
<stop stop-color="#D3D7F2"/>
<stop offset="0.3771" stop-color="#BBC9F8"/>
<stop offset="0.4912" stop-color="#D3D7F2"/>
<stop offset="1" stop-color="#F2F3FF"/>
</linearGradient>
<linearGradient id="paint44_linear_2929_72656" x1="292.031" y1="255.532" x2="282.164" y2="222.162" gradientUnits="userSpaceOnUse">
<stop stop-color="#E8EAFB"/>
<stop offset="1" stop-color="white"/>
</linearGradient>
<linearGradient id="paint45_linear_2929_72656" x1="212.774" y1="240.242" x2="310.19" y2="240.242" gradientUnits="userSpaceOnUse">
<stop stop-color="#C6D9FF"/>
<stop offset="1" stop-color="#9382FF"/>
</linearGradient>
<linearGradient id="paint46_linear_2929_72656" x1="311.526" y1="236.78" x2="211.171" y2="236.78" gradientUnits="userSpaceOnUse">
<stop stop-color="#D3D7F2"/>
<stop offset="0.3771" stop-color="#BBC9F8"/>
<stop offset="0.4912" stop-color="#D3D7F2"/>
<stop offset="1" stop-color="#F2F3FF"/>
</linearGradient>
<linearGradient id="paint47_linear_2929_72656" x1="292.031" y1="241.302" x2="282.164" y2="207.932" gradientUnits="userSpaceOnUse">
<stop stop-color="#E8EAFB"/>
<stop offset="1" stop-color="white"/>
</linearGradient>
<linearGradient id="paint48_linear_2929_72656" x1="212.774" y1="226.01" x2="310.19" y2="226.01" gradientUnits="userSpaceOnUse">
<stop stop-color="#C6D9FF"/>
<stop offset="1" stop-color="#8287FF"/>
</linearGradient>
<linearGradient id="paint49_linear_2929_72656" x1="311.526" y1="222.549" x2="211.171" y2="222.549" gradientUnits="userSpaceOnUse">
<stop stop-color="#D3D7F2"/>
<stop offset="0.3771" stop-color="#BBC9F8"/>
<stop offset="0.4912" stop-color="#D3D7F2"/>
<stop offset="1" stop-color="#F2F3FF"/>
</linearGradient>
<linearGradient id="paint50_linear_2929_72656" x1="292.031" y1="227.07" x2="282.164" y2="193.7" gradientUnits="userSpaceOnUse">
<stop stop-color="#E8EAFB"/>
<stop offset="1" stop-color="white"/>
</linearGradient>
<clipPath id="clip0_2929_72656">
<rect width="302" height="380" fill="white"/>
</clipPath>
</defs>
</svg>
