<svg width="302" height="380" viewBox="0 0 302 380" fill="none" xmlns="http://www.w3.org/2000/svg">
<g opacity="0.2">
<mask id="mask0_1785_29170" style="mask-type:alpha" maskUnits="userSpaceOnUse" x="0" y="0" width="302" height="380">
<rect width="302" height="380" fill="#017AFF"/>
</mask>
<g mask="url(#mask0_1785_29170)">
<g style="mix-blend-mode:multiply" opacity="0.7">
<g style="mix-blend-mode:multiply" opacity="0.06">
<path d="M208.379 87.7751L241.43 106.354C244.132 107.922 253.386 107.22 256.089 105.663L290.427 87.7751C291.748 87.009 292.845 85.9092 293.607 84.5859C294.37 83.2625 294.771 81.762 294.771 80.2348C294.771 78.7075 294.37 77.207 293.607 75.8837C292.845 74.5603 291.748 73.4605 290.427 72.6945L254.907 52.0333C253.58 51.2628 252.072 50.8569 250.537 50.8569C249.003 50.8569 247.495 51.2628 246.168 52.0333L208.379 72.7296C207.066 73.498 205.976 74.5966 205.22 75.9164C204.463 77.2361 204.064 78.731 204.064 80.2523C204.064 81.7737 204.463 83.2685 205.22 84.5883C205.976 85.908 207.066 87.0067 208.379 87.7751Z" fill="#FAFBFE"/>
</g>
<g style="mix-blend-mode:multiply" opacity="0.13">
<path d="M207.922 87.4361L241.219 106.155C243.757 107.629 252.427 106.974 254.977 105.512L289.49 87.3775C290.742 86.6608 291.783 85.626 292.507 84.3779C293.23 83.1299 293.611 81.7128 293.611 80.2701C293.611 78.8275 293.23 77.4103 292.507 76.1623C291.783 74.9142 290.742 73.8795 289.49 73.1627L253.924 52.5132C252.679 51.7944 251.267 51.416 249.829 51.416C248.392 51.416 246.98 51.7944 245.735 52.5132L208.004 73.2446C206.753 73.9558 205.712 74.9838 204.985 76.2253C204.258 77.4668 203.871 78.8779 203.862 80.3166C203.854 81.7553 204.225 83.1709 204.938 84.4207C205.65 85.6705 206.68 86.7105 207.922 87.4361Z" fill="#F6F7FC"/>
</g>
<g style="mix-blend-mode:multiply" opacity="0.19">
<path d="M207.454 87.1074L240.996 106.061C243.336 107.453 251.526 106.844 253.866 105.464L288.566 87.1074C289.735 86.4296 290.704 85.4569 291.378 84.2865C292.052 83.1162 292.407 81.7893 292.407 80.4387C292.407 79.0882 292.052 77.7613 291.378 76.591C290.704 75.4207 289.735 74.4479 288.566 73.7701L252.871 53.0153C251.699 52.3341 250.367 51.9753 249.011 51.9753C247.654 51.9753 246.322 52.3341 245.15 53.0153L207.478 73.735C206.297 74.4059 205.315 75.3772 204.631 76.5503C203.947 77.7234 203.585 79.0565 203.583 80.4144C203.581 81.7723 203.937 83.1067 204.617 84.2822C205.297 85.4576 206.276 86.4324 207.454 87.1074Z" fill="#F1F3FB"/>
</g>
<g style="mix-blend-mode:multiply" opacity="0.25">
<path d="M206.997 86.78L240.786 105.92C243.02 107.219 250.508 106.657 252.742 105.37L287.607 86.78C288.7 86.1483 289.608 85.2401 290.239 84.1465C290.87 83.053 291.202 81.8126 291.202 80.55C291.202 79.2874 290.87 78.047 290.239 76.9535C289.608 75.8599 288.7 74.9517 287.607 74.32L251.841 53.5184C250.745 52.8837 249.5 52.5496 248.232 52.5496C246.965 52.5496 245.72 52.8837 244.623 53.5184L206.986 74.3435C205.899 74.9777 204.997 75.886 204.371 76.9778C203.744 78.0695 203.415 79.3064 203.417 80.5651C203.418 81.8237 203.749 83.06 204.377 84.1505C205.006 85.2411 205.909 86.1478 206.997 86.78Z" fill="#EDEFFA"/>
</g>
<g style="mix-blend-mode:multiply" opacity="0.31">
<path d="M206.53 86.4536L240.575 105.781C242.646 106.951 249.548 106.471 251.619 105.278L286.718 86.4536C287.733 85.8657 288.576 85.0212 289.162 84.0048C289.748 82.9883 290.056 81.8356 290.056 80.6624C290.056 79.4891 289.748 78.3365 289.162 77.3201C288.576 76.3036 287.733 75.4591 286.718 74.8711L250.859 54.0228C249.841 53.431 248.684 53.1191 247.507 53.1191C246.329 53.1191 245.173 53.431 244.155 54.0228L206.553 74.9063C205.545 75.4944 204.708 76.3362 204.125 77.3478C203.543 78.3595 203.235 79.5059 203.233 80.6732C203.23 81.8406 203.533 82.9882 204.112 84.0023C204.69 85.0163 205.524 85.8613 206.53 86.4536Z" fill="#E8EBF9"/>
</g>
<g style="mix-blend-mode:multiply" opacity="0.38">
<path d="M206.074 86.1262L240.353 105.641C242.271 106.811 248.542 106.284 250.508 105.173L285.735 86.1262C286.672 85.582 287.45 84.8012 287.991 83.8618C288.532 82.9225 288.817 81.8576 288.817 80.7737C288.817 79.6898 288.532 78.6248 287.991 77.6855C287.45 76.7462 286.672 75.9653 285.735 75.4212L249.794 54.5143C248.851 53.9712 247.782 53.6853 246.694 53.6853C245.606 53.6853 244.536 53.9712 243.593 54.5143L206.062 75.4329C205.125 75.9765 204.347 76.757 203.807 77.696C203.267 78.635 202.983 79.6996 202.984 80.7829C202.985 81.8662 203.271 82.9301 203.814 83.868C204.356 84.8058 205.135 85.5846 206.074 86.1262Z" fill="#E4E7F7"/>
</g>
<g style="mix-blend-mode:multiply" opacity="0.44">
<path d="M205.606 85.7975L240.142 105.488C241.897 106.517 247.63 106.096 249.385 105.078L284.799 85.7975C285.661 85.2978 286.377 84.5803 286.875 83.7169C287.372 82.8534 287.634 81.8744 287.634 80.8779C287.634 79.8813 287.372 78.9023 286.875 78.0388C286.377 77.1754 285.661 76.4579 284.799 75.9583L248.8 55.0163C247.934 54.5162 246.951 54.2529 245.951 54.2529C244.951 54.2529 243.968 54.5162 243.102 55.0163L205.664 75.9816C204.801 76.4753 204.083 77.187 203.582 78.0454C203.081 78.9038 202.814 79.8787 202.808 80.8727C202.802 81.8667 203.057 82.8448 203.548 83.7091C204.039 84.5734 204.749 85.2936 205.606 85.7975Z" fill="#DFE3F6"/>
</g>
<g style="mix-blend-mode:multiply" opacity="0.5">
<path d="M205.149 85.4349L239.885 105.324C241.488 106.26 246.635 105.886 248.238 104.961L283.863 85.4349C284.648 84.979 285.299 84.3252 285.751 83.5389C286.203 82.7526 286.441 81.8612 286.441 80.954C286.441 80.0468 286.203 79.1555 285.751 78.3692C285.299 77.5829 284.648 76.9291 283.863 76.4732L247.759 55.4844C246.972 55.0272 246.077 54.7864 245.167 54.7864C244.257 54.7864 243.363 55.0272 242.576 55.4844L205.138 76.5434C204.37 77.0047 203.735 77.6569 203.295 78.4367C202.854 79.2164 202.624 80.0969 202.625 80.9924C202.626 81.8879 202.859 82.7679 203.301 83.5465C203.744 84.325 204.381 84.9756 205.149 85.4349Z" fill="#DBDFF5"/>
</g>
<g style="mix-blend-mode:multiply" opacity="0.56">
<path d="M204.681 85.1428L239.709 105.207C241.16 106.05 245.711 105.722 247.15 104.892L282.915 85.1428C283.622 84.7307 284.208 84.1406 284.615 83.4314C285.022 82.7222 285.237 81.9186 285.237 81.1007C285.237 80.2828 285.022 79.4792 284.615 78.77C284.208 78.0608 283.622 77.4707 282.915 77.0586L246.741 55.9996C246.029 55.5889 245.222 55.3726 244.401 55.3726C243.579 55.3726 242.772 55.5889 242.061 55.9996L204.681 77.0586C203.974 77.4707 203.388 78.0608 202.981 78.77C202.574 79.4792 202.359 80.2828 202.359 81.1007C202.359 81.9186 202.574 82.7222 202.981 83.4314C203.388 84.1406 203.974 84.7307 204.681 85.1428Z" fill="#D6DCF4"/>
</g>
<g style="mix-blend-mode:multiply" opacity="0.63">
<path d="M204.225 84.8155L239.487 105.067C240.786 105.816 244.741 105.535 246.039 104.786L282.003 84.8155C282.635 84.4494 283.159 83.9239 283.523 83.2915C283.888 82.6591 284.08 81.942 284.08 81.2121C284.08 80.4822 283.888 79.7651 283.523 79.1326C283.159 78.5002 282.635 77.9747 282.003 77.6087L245.735 56.5497C245.101 56.1796 244.381 55.9846 243.647 55.9846C242.913 55.9846 242.192 56.1796 241.558 56.5497L204.237 77.6087C203.608 77.976 203.086 78.5015 202.723 79.1331C202.36 79.7646 202.168 80.4802 202.166 81.2087C202.165 81.9373 202.355 82.6534 202.716 83.2861C203.077 83.9188 203.598 84.4461 204.225 84.8155Z" fill="#D2D8F2"/>
</g>
<g style="mix-blend-mode:multiply" opacity="0.69">
<path d="M203.757 84.4753L239.276 104.926C240.446 105.581 243.78 105.347 244.915 104.692L281.043 84.487C281.597 84.1647 282.056 83.7029 282.375 83.1476C282.694 82.5922 282.863 81.9629 282.863 81.3223C282.863 80.6817 282.694 80.0524 282.375 79.497C282.056 78.9417 281.597 78.4799 281.043 78.1577L244.693 57.0168C244.136 56.6954 243.505 56.5261 242.862 56.5261C242.219 56.5261 241.588 56.6954 241.031 57.0168L203.757 78.1459C203.203 78.4682 202.744 78.9301 202.424 79.4854C202.105 80.0407 201.937 80.67 201.937 81.3106C201.937 81.9512 202.105 82.5805 202.424 83.1358C202.744 83.6912 203.203 84.153 203.757 84.4753Z" fill="#CDD4F1"/>
</g>
<g style="mix-blend-mode:multiply" opacity="0.75">
<path d="M203.3 84.1479L239.066 104.774C240.597 105.27 242.255 105.207 243.745 104.599L280.014 84.1596C280.492 83.8834 280.89 83.4861 281.166 83.0076C281.443 82.5291 281.588 81.9862 281.588 81.4336C281.588 80.881 281.443 80.3382 281.166 79.8597C280.89 79.3811 280.492 78.9838 280.014 78.7077L243.593 57.52C243.113 57.2416 242.569 57.095 242.014 57.095C241.459 57.095 240.914 57.2416 240.434 57.52L203.218 78.6959C202.744 78.9792 202.352 79.3825 202.083 79.8652C201.814 80.3479 201.677 80.8929 201.685 81.4456C201.693 81.9982 201.847 82.5389 202.131 83.0133C202.414 83.4877 202.818 83.879 203.3 84.1479Z" fill="#C9D0F0"/>
</g>
<g style="mix-blend-mode:multiply" opacity="0.81">
<path d="M202.833 83.8198L238.844 104.633C240.096 105.066 241.464 105.016 242.681 104.493L279.16 83.8315C279.561 83.5975 279.893 83.2627 280.124 82.8604C280.355 82.4581 280.476 82.0023 280.476 81.5384C280.476 81.0745 280.355 80.6188 280.124 80.2165C279.893 79.8142 279.561 79.4794 279.16 79.2454L242.658 58.0226C242.254 57.7895 241.796 57.6667 241.33 57.6667C240.864 57.6667 240.406 57.7895 240.002 58.0226L202.833 79.2454C202.435 79.4801 202.105 79.8145 201.876 80.2157C201.647 80.6168 201.527 81.0706 201.527 81.5326C201.527 81.9945 201.647 82.4484 201.876 82.8495C202.105 83.2506 202.435 83.5851 202.833 83.8198Z" fill="#C4CCEF"/>
</g>
<g style="mix-blend-mode:multiply" opacity="0.88">
<path d="M202.376 83.4914L238.644 104.492C239.598 104.848 240.652 104.814 241.581 104.398L278.235 83.5031C278.561 83.3152 278.831 83.045 279.019 82.7194C279.207 82.3939 279.306 82.0246 279.306 81.6488C279.306 81.2729 279.207 80.9036 279.019 80.5781C278.831 80.2526 278.561 79.9823 278.235 79.7944L241.64 58.5248C241.314 58.338 240.945 58.2397 240.569 58.2397C240.193 58.2397 239.824 58.338 239.498 58.5248L202.376 79.7944C202.053 79.983 201.786 80.253 201.6 80.5773C201.413 80.9016 201.315 81.269 201.315 81.6429C201.315 82.0168 201.413 82.3842 201.6 82.7085C201.786 83.0328 202.053 83.3028 202.376 83.4914Z" fill="#C0C8ED"/>
</g>
<g style="mix-blend-mode:multiply" opacity="0.94">
<path d="M201.908 83.164L238.41 104.352C238.73 104.496 239.077 104.571 239.428 104.571C239.78 104.571 240.126 104.496 240.446 104.352L277.323 83.1757C277.57 83.0315 277.776 82.825 277.919 82.5766C278.062 82.3282 278.137 82.0466 278.137 81.76C278.137 81.4735 278.062 81.1919 277.919 80.9435C277.776 80.6951 277.57 80.4886 277.323 80.3444L240.657 59.0163C240.408 58.8726 240.125 58.7969 239.838 58.7969C239.55 58.7969 239.268 58.8726 239.019 59.0163L201.955 80.3327C201.705 80.4727 201.496 80.6758 201.349 80.9219C201.202 81.168 201.122 81.4483 201.117 81.7349C201.113 82.0215 201.183 82.3043 201.322 82.5551C201.461 82.8058 201.663 83.0158 201.908 83.164Z" fill="#BBC4EC"/>
</g>
<g style="mix-blend-mode:multiply" opacity="0.7">
<path d="M201.452 82.8369L238.2 104.153C238.378 104.256 238.58 104.31 238.785 104.31C238.991 104.31 239.192 104.256 239.37 104.153L276.387 82.7901C276.549 82.6835 276.682 82.5385 276.774 82.368C276.865 82.1975 276.913 82.0069 276.913 81.8132C276.913 81.6196 276.865 81.4289 276.774 81.2584C276.682 81.0879 276.549 80.9429 276.387 80.8363L239.639 59.4614C239.461 59.3587 239.26 59.3047 239.054 59.3047C238.849 59.3047 238.647 59.3587 238.469 59.4614L201.452 80.8129C201.275 80.9157 201.128 81.0634 201.025 81.241C200.923 81.4186 200.87 81.6199 200.87 81.8249C200.87 82.0299 200.923 82.2313 201.025 82.4089C201.128 82.5865 201.275 82.7341 201.452 82.8369Z" fill="#B7C0EB"/>
</g>
</g>
<path d="M276.831 42.5449L276.784 82.6155L238.948 104.61L238.995 64.5516L276.831 42.5449Z" fill="#B7C0EB"/>
<path d="M238.996 64.5528L238.949 104.612L200.855 82.6401L200.902 42.5696L238.996 64.5528Z" fill="#B7C0EB"/>
<path d="M276.831 41.9716L238.995 63.9782L200.902 41.9949L238.738 20L276.831 41.9716Z" fill="white"/>
<path d="M201.487 41.9954L238.738 20.3398L276.246 41.9721L238.995 63.6394L201.487 41.9954Z" fill="url(#paint0_linear_1785_29170)"/>
<path d="M276.831 41.9729L276.784 82.0435L238.948 104.05L238.995 63.9795L276.831 41.9729Z" fill="#E4E7FB"/>
<path d="M238.996 63.9786L238.949 104.049L200.855 82.0659L200.902 41.9954L238.996 63.9786Z" fill="#F1F4FE"/>
<path d="M218.627 32.051L221.926 30.1323L259.703 51.9284L256.404 53.847L218.627 32.051Z" fill="#D2D7F6"/>
<path d="M256.416 53.8481L259.715 51.9177L259.54 92.6317L256.24 94.5622L256.416 53.8481Z" fill="#B7C0EB"/>
<path fill-rule="evenodd" clip-rule="evenodd" d="M165.991 112.905L198.75 131.297C201.604 132.958 211.443 132.221 214.31 130.572L248.46 112.894C249.86 112.084 251.021 110.92 251.829 109.52C252.636 108.119 253.061 106.531 253.061 104.915C253.061 103.298 252.636 101.71 251.829 100.309C251.021 98.9089 249.86 97.7455 248.46 96.9357L213.011 76.3213C211.607 75.5078 210.013 75.0793 208.39 75.0793C206.767 75.0793 205.173 75.5078 203.768 76.3213L165.933 96.959C164.687 97.688 163.633 98.6979 162.851 99.9052C162.631 100.169 162.428 100.447 162.242 100.737C162.213 100.778 162.184 100.818 162.156 100.859C162.019 101.028 161.891 101.204 161.77 101.385C161.479 101.7 161.221 102.045 161 102.416C160.834 102.607 160.682 102.81 160.545 103.024C160.294 103.268 160.073 103.545 159.89 103.847C159.626 104.082 159.402 104.36 159.229 104.671C159.211 104.705 159.193 104.739 159.175 104.773C159.117 104.852 159.063 104.935 159.014 105.02C158.982 105.077 158.952 105.134 158.924 105.192C158.905 105.217 158.887 105.242 158.87 105.268C158.708 105.396 158.571 105.553 158.467 105.732C158.453 105.756 158.44 105.779 158.428 105.803C158.326 105.895 158.241 106.006 158.176 106.129C158.086 106.302 158.04 106.495 158.044 106.691C158.047 106.886 158.1 107.078 158.196 107.248C158.293 107.418 158.431 107.561 158.597 107.664L158.794 107.779C158.874 107.849 158.961 107.913 159.053 107.967L159.192 108.048C159.291 108.138 159.398 108.22 159.513 108.291C159.648 108.416 159.796 108.527 159.955 108.622C160.103 108.746 160.262 108.857 160.431 108.953C160.553 109.056 160.682 109.15 160.817 109.236C160.862 109.274 160.909 109.31 160.956 109.345C161.218 109.597 161.51 109.818 161.826 110.003L162.133 110.179C162.253 110.273 162.378 110.363 162.506 110.448C162.65 110.56 162.798 110.665 162.952 110.765C163.055 110.845 163.161 110.923 163.27 110.998C163.428 111.123 163.591 111.243 163.759 111.355C163.889 111.456 164.023 111.553 164.16 111.646C164.312 111.763 164.469 111.875 164.63 111.981C164.755 112.076 164.882 112.167 165.012 112.256C165.324 112.492 165.65 112.709 165.991 112.905Z" fill="url(#paint1_linear_1785_29170)"/>
<path d="M233.977 67.3596L233.93 107.418L196.094 129.425L196.141 89.3545L233.977 67.3596Z" fill="#B7C0EB"/>
<path d="M196.14 89.3559L196.093 129.426L158 107.443L158.047 67.3843L196.14 89.3559Z" fill="#B7C0EB"/>
<path d="M233.976 66.7872L196.141 88.7822L158.047 66.8106L195.883 44.804L233.976 66.7872Z" fill="white"/>
<path d="M158.632 66.8104L195.883 45.1431L233.391 66.787L196.14 88.4427L158.632 66.8104Z" fill="url(#paint2_linear_1785_29170)"/>
<path d="M233.977 66.7878L233.93 106.858L196.094 128.853L196.141 88.7828L233.977 66.7878Z" fill="#E4E7FB"/>
<path d="M196.14 88.7814L196.093 128.852L158 106.869L158.047 66.8098L196.14 88.7814Z" fill="#F1F4FE"/>
<path d="M175.771 56.854L179.071 54.9353L216.848 76.7314L213.549 78.6618L175.771 56.854Z" fill="#D2D7F6"/>
<path d="M213.56 78.6511L216.871 76.7324L216.684 117.447L213.385 119.365L213.56 78.6511Z" fill="#B7C0EB"/>
<path fill-rule="evenodd" clip-rule="evenodd" d="M252.929 113.514L285.688 131.906C288.543 133.567 298.382 132.818 301.248 131.169L335.41 113.503C336.807 112.69 337.965 111.526 338.771 110.126C339.576 108.726 340 107.139 340 105.524C340 103.908 339.576 102.321 338.771 100.921C337.965 99.5211 336.807 98.3567 335.41 97.5445L299.961 76.9301C298.557 76.1166 296.963 75.6882 295.34 75.6882C293.717 75.6882 292.123 76.1166 290.719 76.9301L252.883 97.5796C251.717 98.2628 250.719 99.1922 249.955 100.299C249.61 100.685 249.301 101.105 249.033 101.553C249.018 101.572 249.003 101.591 248.989 101.61C248.792 101.829 248.609 102.061 248.442 102.306C248.305 102.476 248.176 102.653 248.057 102.838C247.951 102.977 247.851 103.122 247.758 103.271C247.57 103.465 247.399 103.676 247.247 103.9C247.129 104.037 247.019 104.181 246.919 104.332C246.764 104.51 246.626 104.703 246.508 104.909C246.496 104.93 246.485 104.95 246.473 104.971C246.263 105.159 246.083 105.381 245.941 105.628C245.928 105.651 245.915 105.674 245.903 105.697C245.824 105.791 245.754 105.892 245.692 105.998C245.659 106.055 245.629 106.113 245.602 106.173C245.568 106.215 245.536 106.259 245.506 106.304C245.352 106.408 245.226 106.547 245.136 106.709C245.041 106.882 244.991 107.076 244.991 107.273C244.991 107.471 245.041 107.665 245.136 107.838C245.231 108.011 245.369 108.157 245.535 108.262L245.735 108.378C245.816 108.457 245.906 108.528 246.003 108.589L246.09 108.639C246.2 108.742 246.322 108.833 246.453 108.91C246.591 109.036 246.742 109.148 246.905 109.243L246.981 109.287C247.089 109.377 247.202 109.459 247.321 109.533C247.445 109.638 247.576 109.734 247.713 109.822C247.858 109.944 248.011 110.056 248.172 110.157C248.357 110.307 248.554 110.443 248.761 110.564C248.903 110.673 249.051 110.775 249.204 110.869C249.399 111.038 249.605 111.195 249.821 111.339C249.985 111.468 250.155 111.59 250.331 111.704C250.481 111.818 250.636 111.927 250.795 112.029C251.052 112.245 251.322 112.445 251.605 112.628C251.772 112.754 251.943 112.874 252.119 112.987C252.379 113.177 252.65 113.352 252.929 113.514Z" fill="url(#paint3_linear_1785_29170)"/>
<path d="M320.915 67.9685L320.868 108.039L283.044 130.046L283.079 89.9751L320.915 67.9685Z" fill="#B7C0EB"/>
<path d="M283.078 89.9756L283.043 130.046L244.938 108.063L244.985 67.9924L283.078 89.9756Z" fill="#B7C0EB"/>
<path d="M320.914 67.4073L283.079 89.4022L244.985 67.419L282.821 45.4241L320.914 67.4073Z" fill="white"/>
<path d="M245.57 67.4188L282.821 45.7632L320.329 67.4071L283.078 89.0628L245.57 67.4188Z" fill="url(#paint4_linear_1785_29170)"/>
<path d="M320.915 67.4077L320.868 107.467L283.044 129.473L283.079 89.4026L320.915 67.4077Z" fill="#E4E7FB"/>
<path d="M283.078 89.4026L283.043 129.473L244.938 107.49L244.985 67.4194L283.078 89.4026Z" fill="#F1F4FE"/>
<path d="M262.71 57.4739L266.009 55.5552L303.798 77.3512L300.487 79.27L262.71 57.4739Z" fill="#D2D7F6"/>
<path d="M300.499 79.2705L303.81 77.3401L303.623 118.054L300.324 119.985L300.499 79.2705Z" fill="#B7C0EB"/>
<path d="M210.074 138.33L242.833 156.733C245.688 158.383 255.539 157.646 258.393 155.996L279.827 143.716C281.226 142.906 282.387 141.743 283.195 140.342C284.003 138.942 284.428 137.354 284.428 135.737C284.428 134.12 284.003 132.532 283.195 131.132C282.387 129.731 281.226 128.568 279.827 127.758L244.377 107.144C242.973 106.33 241.379 105.902 239.756 105.902C238.133 105.902 236.539 106.33 235.135 107.144L210.028 122.384C208.952 123.012 208.019 123.85 207.281 124.843C206.963 125.222 206.676 125.628 206.425 126.059L206.378 126.141L206.355 126.173C205.991 126.538 205.67 126.945 205.398 127.387C205.311 127.508 205.229 127.631 205.151 127.757L205.097 127.832C204.94 128.009 204.795 128.197 204.663 128.394C204.361 128.678 204.102 129.007 203.896 129.37L203.876 129.406L203.851 129.441C203.67 129.625 203.513 129.831 203.382 130.055C203.291 130.163 203.208 130.278 203.135 130.4C203.046 130.493 202.966 130.594 202.895 130.702C202.74 130.829 202.61 130.983 202.51 131.158C202.498 131.179 202.487 131.2 202.476 131.221C202.394 131.3 202.324 131.39 202.268 131.49C202.169 131.665 202.117 131.863 202.117 132.064C202.117 132.265 202.169 132.463 202.268 132.638C202.366 132.813 202.508 132.96 202.68 133.065L202.763 133.113C202.876 133.228 203.006 133.327 203.149 133.405L203.274 133.478C203.378 133.568 203.49 133.648 203.609 133.717C203.742 133.839 203.887 133.948 204.042 134.042C204.19 134.17 204.351 134.284 204.521 134.383C204.625 134.469 204.734 134.549 204.848 134.622C205.019 134.765 205.202 134.895 205.395 135.009C205.691 135.291 206.021 135.539 206.378 135.745L206.525 135.829L206.586 135.87L206.624 135.895C206.693 135.948 206.762 136 206.833 136.05C207.051 136.23 207.28 136.397 207.52 136.548C207.637 136.637 207.757 136.722 207.88 136.804C208.013 136.907 208.15 137.005 208.29 137.1C208.395 137.18 208.503 137.258 208.612 137.334C208.783 137.467 208.959 137.593 209.14 137.713C209.438 137.937 209.75 138.143 210.074 138.33Z" fill="url(#paint5_linear_1785_29170)"/>
<path d="M278.06 92.7832L278.025 132.842L240.189 154.849L240.224 114.778L278.06 92.7832Z" fill="#B7C0EB"/>
<path d="M240.224 114.778L240.188 154.848L202.095 132.865L202.13 92.8064L240.224 114.778Z" fill="#B7C0EB"/>
<path d="M278.06 92.2108L240.223 114.206L202.13 92.2342L239.966 70.2275L278.06 92.2108Z" fill="white"/>
<path d="M202.716 92.2335L239.967 70.5662L277.475 92.2101L240.224 113.866L202.716 92.2335Z" fill="url(#paint6_linear_1785_29170)"/>
<path d="M278.06 92.21L278.025 132.281L240.189 154.275L240.224 114.205L278.06 92.21Z" fill="#E4E7FB"/>
<path d="M240.224 114.205L240.188 154.276L202.095 132.292L202.13 92.2334L240.224 114.205Z" fill="#F1F4FE"/>
<path d="M219.855 82.2774L223.155 80.3586L260.944 102.155L257.633 104.085L219.855 82.2774Z" fill="#D2D7F6"/>
<path d="M257.644 104.073L260.955 102.155L260.779 142.869L257.468 144.788L257.644 104.073Z" fill="#B7C0EB"/>
<path d="M257.528 349.201C253.176 351.708 248.296 353.139 243.294 353.387L238.01 356.835C236.397 357.948 234.612 358.787 232.726 359.318L232.717 359.313L232.684 359.322L232.654 359.305L232.651 359.306L232.642 359.3L232.618 359.306L232.599 359.294L232.56 359.302L218.553 351.168L198.244 339.436L198.216 339.404L198.112 339.344L198.009 339.233L200.905 335.26C200.968 335.171 201.062 335.109 201.168 335.085C201.235 335.07 201.305 335.071 201.371 335.088L201.969 334.305C201.995 334.264 202.099 334.267 202.248 334.299L203.015 333.316C203.037 333.289 203.14 333.306 203.298 333.355L204.1 332.347C204.113 332.327 204.197 332.344 204.335 332.391L205.163 331.362C205.174 331.347 205.251 331.367 205.381 331.415L206.218 330.386C206.228 330.372 206.306 330.395 206.44 330.448L207.294 329.405C207.302 329.394 207.379 329.419 207.513 329.475L208.362 328.445C208.368 328.434 208.439 328.458 208.565 328.51L209.442 327.452C209.446 327.444 209.512 327.468 209.63 327.52L210.46 326.523C209.599 320.837 218.853 318.267 221.077 312.915C223.752 306.478 219.926 297.837 225.968 294.362L312.078 244.802C315.679 242.73 319.654 241.387 323.774 240.851C327.894 240.315 332.08 240.595 336.091 241.676C340.103 242.758 343.863 244.618 347.156 247.153C350.448 249.687 353.209 252.845 355.282 256.446C355.702 257.176 356.092 257.921 356.451 258.68C357.883 261.67 358.833 264.874 359.261 268.172C359.796 272.293 359.505 276.479 358.406 280.487C358.282 280.963 358.141 281.431 357.992 281.894C356.024 288.061 352.213 293.436 347.122 297.325C346.015 298.174 344.852 298.951 343.638 299.65L257.528 349.201Z" fill="url(#paint7_linear_1785_29170)"/>
<path d="M271.278 326.141L348.09 280.748L354.388 264.734L263.9 322.896L271.278 326.141Z" fill="#413AA5"/>
<path d="M224.342 307.963L224.325 313.814L258.972 333.816L258.988 327.965L224.342 307.963Z" fill="#413AA5"/>
<path fill-rule="evenodd" clip-rule="evenodd" d="M303.169 307.793C302.506 307.19 302.031 306.408 301.8 305.542C301.65 305.033 304.706 303.62 307.738 302.219C309.732 301.297 311.715 300.38 312.769 299.728C314.106 298.905 319.319 298.359 323.358 299.07C327.397 299.782 330.198 301.752 326.668 305.968C325.861 306.932 322.915 308.679 319.535 309.994C316.154 311.31 312.339 312.196 309.794 311.443C309.576 311.378 309.248 311.313 308.863 311.237C307.771 311.022 306.232 310.718 305.528 310.081C305.528 310.081 303.434 308.012 303.293 307.901C303.25 307.867 303.209 307.831 303.169 307.793Z" fill="url(#paint8_linear_1785_29170)"/>
<path fill-rule="evenodd" clip-rule="evenodd" d="M269.011 327.146C268.349 326.542 267.874 325.761 267.641 324.895C267.541 324.556 268.866 323.815 270.658 322.943C271.127 322.715 271.628 322.477 272.146 322.237C272.613 322.018 273.093 321.796 273.572 321.575L273.572 321.575L273.572 321.575C275.567 320.652 277.553 319.734 278.607 319.082C279.943 318.262 285.161 317.712 289.2 318.424C292.674 319.036 295.232 320.579 293.633 323.682C293.373 324.192 293.001 324.744 292.501 325.341C291.694 326.305 288.756 328.047 285.384 329.359C282.012 330.671 278.201 331.56 275.66 330.811C275.482 330.758 275.23 330.704 274.936 330.646L274.799 330.617C274.535 330.565 274.244 330.505 273.943 330.435C272.984 330.227 271.92 329.933 271.369 329.434C271.369 329.434 269.276 327.366 269.135 327.254L269.011 327.146Z" fill="url(#paint9_linear_1785_29170)"/>
<path d="M274.878 323.922C275.086 324.716 275.517 325.434 276.12 325.991L276.231 326.091C276.362 326.195 276.5 326.289 276.645 326.372L281.387 329.128L281.313 329.082C282.595 329.873 284.4 329.79 286.394 328.64C290.284 326.393 293.428 320.956 293.408 316.491C293.408 314.265 292.613 312.701 291.339 311.968L290.768 311.633C289.468 310.88 288.168 310.124 286.866 309.365C284.681 308.087 282.194 309.08 280.344 310.512C278.625 311.921 277.23 313.685 276.256 315.684C275.268 317.492 274.692 319.495 274.568 321.551C274.548 322.353 274.653 323.153 274.878 323.922Z" fill="#413AA5"/>
<path d="M274.878 323.819C275.086 324.613 275.517 325.331 276.12 325.888L276.231 325.983C276.362 326.088 276.5 326.184 276.645 326.269L281.387 329.025L281.313 328.979C282.595 329.769 284.4 329.687 286.394 328.536C290.284 326.289 293.428 320.852 293.408 316.383C293.408 314.157 292.613 312.593 291.339 311.865L290.768 311.534C289.469 310.776 288.165 310.027 286.866 309.266C284.681 307.988 282.194 308.981 280.344 310.412C278.627 311.814 277.232 313.57 276.256 315.56C275.268 317.368 274.692 319.371 274.568 321.427C274.546 322.236 274.651 323.043 274.878 323.819Z" fill="url(#paint10_linear_1785_29170)"/>
<path d="M286.361 312.854C282.715 314.96 279.769 320.062 279.782 324.249C279.794 328.437 282.761 330.129 286.402 328.023C290.044 325.917 292.994 320.819 292.982 316.627C292.969 312.436 290.011 310.747 286.361 312.854Z" fill="url(#paint11_linear_1785_29170)"/>
<path d="M289.813 322.41C291.727 319.116 291.733 315.548 289.826 314.44C287.919 313.332 284.822 315.104 282.908 318.398C280.994 321.692 280.988 325.26 282.895 326.368C284.801 327.476 287.899 325.704 289.813 322.41Z" fill="url(#paint12_linear_1785_29170)"/>
<path d="M286.303 318.096C285.73 318.468 285.254 318.97 284.912 319.561C284.57 320.152 284.374 320.816 284.337 321.498C284.337 322.739 285.227 323.256 286.315 322.627C286.888 322.255 287.365 321.752 287.707 321.161C288.048 320.569 288.245 319.904 288.281 319.222C288.277 317.972 287.391 317.467 286.303 318.096Z" fill="url(#paint13_linear_1785_29170)"/>
<path d="M286.307 319.657C286.129 319.773 285.98 319.929 285.874 320.113C285.767 320.297 285.706 320.504 285.694 320.716C285.694 321.105 285.972 321.262 286.311 321.064C286.489 320.949 286.637 320.793 286.743 320.61C286.849 320.426 286.909 320.22 286.919 320.008C286.919 319.62 286.646 319.462 286.307 319.657Z" fill="url(#paint14_linear_1785_29170)"/>
<path d="M284.412 326.165C284.002 326.171 283.598 326.068 283.241 325.867C282.413 325.383 281.929 324.365 281.929 322.996C281.929 320.182 283.907 316.739 286.357 315.324C287.552 314.633 288.678 314.521 289.526 315.014C290.375 315.506 290.838 316.516 290.842 317.881C290.842 320.695 288.864 324.138 286.41 325.553C285.81 325.929 285.12 326.14 284.412 326.165ZM288.359 314.765C287.659 314.791 286.977 315 286.381 315.37C283.948 316.776 281.971 320.198 281.979 322.996C281.979 324.34 282.442 325.346 283.266 325.822C284.089 326.298 285.206 326.19 286.386 325.507C288.823 324.1 290.797 320.683 290.788 317.881C290.788 316.536 290.329 315.531 289.501 315.059C289.154 314.86 288.76 314.759 288.359 314.765Z" fill="url(#paint15_linear_1785_29170)"/>
<path fill-rule="evenodd" clip-rule="evenodd" d="M266.198 328.302C263.807 328.402 261.731 328.779 260.958 329.253C259.904 329.902 257.93 330.813 255.943 331.731C255.451 331.958 254.959 332.185 254.479 332.409C253.983 332.64 253.501 332.868 253.049 333.088C251.226 333.972 249.871 334.726 249.972 335.071C250.205 335.935 250.68 336.715 251.342 337.318L251.466 337.425C251.611 337.541 253.7 339.61 253.7 339.61C254.408 340.247 255.959 340.552 257.052 340.767C257.429 340.841 257.752 340.905 257.967 340.967C260.515 341.72 264.331 340.835 267.707 339.519C271.084 338.203 274.034 336.457 274.841 335.493C278.37 331.276 275.569 329.286 271.551 328.595C270.525 328.418 269.419 328.322 268.318 328.289C267.612 328.264 266.905 328.268 266.198 328.302Z" fill="url(#paint16_linear_1785_29170)"/>
<path d="M257.222 334.093C257.429 334.888 257.86 335.606 258.463 336.162L258.575 336.262C258.706 336.365 258.844 336.459 258.989 336.543L263.731 339.303L263.656 339.253C264.943 340.048 266.743 339.961 268.738 338.811C272.627 336.568 275.772 331.126 275.772 326.662C275.772 324.435 274.978 322.871 273.703 322.139L273.128 321.804C271.829 321.051 270.525 320.298 269.23 319.54C267.045 318.258 264.554 319.251 262.705 320.687C260.982 322.088 259.583 323.845 258.604 325.838C257.615 327.645 257.038 329.649 256.916 331.706C256.893 332.513 256.996 333.318 257.222 334.093Z" fill="#413AA5"/>
<path d="M257.222 333.99C257.429 334.784 257.86 335.503 258.463 336.059L258.575 336.158C258.706 336.262 258.844 336.356 258.989 336.439L263.731 339.195L263.656 339.15C264.943 339.94 266.743 339.857 268.738 338.707C272.627 336.464 275.772 331.023 275.772 326.558C275.772 324.332 274.978 322.768 273.703 322.035L273.128 321.7C271.829 320.947 270.525 320.194 269.23 319.433C267.045 318.154 264.554 319.147 262.705 320.579C260.983 321.981 259.584 323.738 258.604 325.731C257.616 327.538 257.039 329.542 256.916 331.598C256.893 332.406 256.996 333.213 257.222 333.99Z" fill="url(#paint17_linear_1785_29170)"/>
<path d="M268.696 323.025C265.051 325.131 262.105 330.233 262.117 334.425C262.129 338.617 265.092 340.301 268.738 338.199C272.383 336.097 275.329 330.99 275.317 326.799C275.304 322.607 272.342 320.923 268.696 323.025Z" fill="url(#paint18_linear_1785_29170)"/>
<path d="M268.7 324.991C265.998 326.551 263.813 330.333 263.822 333.436C263.83 336.539 266.031 337.793 268.733 336.233C271.435 334.673 273.616 330.891 273.608 327.788C273.6 324.684 271.402 323.431 268.7 324.991Z" fill="url(#paint19_linear_1785_29170)"/>
<path d="M268.634 328.268C268.061 328.64 267.584 329.143 267.243 329.735C266.901 330.326 266.705 330.991 266.669 331.673C266.669 332.914 267.558 333.428 268.647 332.799C269.22 332.426 269.696 331.924 270.038 331.332C270.38 330.74 270.576 330.076 270.612 329.393C270.608 328.143 269.722 327.639 268.634 328.268Z" fill="url(#paint20_linear_1785_29170)"/>
<path d="M268.638 329.828C268.46 329.943 268.312 330.1 268.206 330.284C268.1 330.468 268.04 330.675 268.03 330.887C268.03 331.276 268.303 331.433 268.642 331.239C268.82 331.122 268.968 330.966 269.074 330.782C269.181 330.598 269.243 330.391 269.255 330.179C269.25 329.79 268.977 329.633 268.638 329.828Z" fill="url(#paint21_linear_1785_29170)"/>
<path d="M266.739 336.341C266.329 336.347 265.924 336.242 265.568 336.039C264.74 335.555 264.26 334.537 264.256 333.171C264.256 330.353 266.234 326.911 268.684 325.5C269.879 324.809 271.005 324.672 271.857 325.185C272.71 325.698 273.165 326.687 273.169 328.053C273.169 330.871 271.191 334.313 268.737 335.724C268.137 336.101 267.448 336.314 266.739 336.341ZM270.686 324.937C269.987 324.963 269.307 325.171 268.713 325.541C266.275 326.948 264.298 330.37 264.306 333.171C264.306 334.516 264.769 335.517 265.593 335.993C266.416 336.469 267.533 336.362 268.713 335.683C271.15 334.272 273.124 330.854 273.115 328.053C273.115 326.708 272.656 325.706 271.828 325.231C271.482 325.034 271.089 324.933 270.691 324.937H270.686Z" fill="url(#paint22_linear_1785_29170)"/>
<path d="M300.914 229.86C300.885 228.753 300.952 227.645 301.112 226.55C301.22 225.366 301.431 224.117 302.147 223.132C303.148 221.754 304.526 221.477 306.074 221.108C307.198 220.831 308.336 220.613 309.483 220.455C313.021 219.962 316.518 220.248 320.056 220.455H320.097L321.016 220.955L339.868 231.908L350.709 238.214C350.018 237.594 349.008 237.544 348.082 237.523C344.357 237.453 340.53 237.42 336.843 238.07C335.666 238.237 334.526 238.606 333.475 239.162C330.889 240.643 330.814 243.3 330.669 245.985C330.628 246.813 330.529 247.616 330.938 248.365L330.988 248.46C331.021 248.509 331.054 248.559 331.091 248.605L331.141 248.675C331.196 248.742 331.255 248.806 331.319 248.865L331.973 249.449L302.275 232.19C301.708 231.672 301.187 231.25 301.005 230.464C300.962 230.265 300.932 230.063 300.914 229.86Z" fill="url(#paint23_linear_1785_29170)"/>
<path d="M217.349 272.803L217.237 312.614L251.888 332.617L252 292.806L217.349 272.803Z" fill="#B7C0EB"/>
<path d="M251.888 332.616L333.405 285.246L333.516 245.435L252 292.806L251.888 332.616Z" fill="#B7C0EB"/>
<path d="M250.944 293.269L218.396 274.475L218.292 311.861L250.841 330.655L250.944 293.269Z" fill="url(#paint24_linear_1785_29170)"/>
<path d="M250.944 293.269L218.292 311.861L250.841 330.655L250.944 293.269Z" fill="url(#paint25_linear_1785_29170)"/>
<path d="M253.299 293.807L253.282 308.091L239.793 315.936L239.809 301.652L253.299 293.807Z" fill="#B7C0EB"/>
<path d="M239.81 301.653L239.793 315.937L226.212 308.099L226.229 293.815L239.81 301.653Z" fill="#B7C0EB"/>
<path d="M253.299 293.605L239.81 301.446L226.229 293.613L239.719 285.767L253.299 293.605Z" fill="white"/>
<path d="M226.436 293.613L239.718 285.887L253.088 293.605L239.809 301.326L226.436 293.613Z" fill="url(#paint26_linear_1785_29170)"/>
<path d="M253.299 293.604L253.282 307.889L239.793 315.734L239.809 301.446L253.299 293.604Z" fill="#E4E7FB"/>
<path d="M239.81 301.445L239.793 315.734L226.212 307.896L226.229 293.612L239.81 301.445Z" fill="#F1F4FE"/>
<path d="M247.907 300.486H247.949C248.329 300.368 248.717 300.283 249.111 300.229C249.253 300.2 249.4 300.213 249.535 300.265C249.67 300.317 249.787 300.406 249.873 300.523C250.13 300.874 250.363 301.244 250.568 301.628C250.597 301.69 250.568 301.719 250.527 301.801L249.558 303.043C249.537 303.074 249.512 303.102 249.484 303.126C249.459 303.126 249.442 303.126 249.413 303.093C249.256 302.923 249.095 302.753 248.942 302.579L248.896 302.534C248.876 302.617 248.855 302.683 248.838 302.745C248.776 303.077 248.743 303.413 248.739 303.75C248.726 304.718 248.778 305.686 248.892 306.647C248.913 306.846 248.917 306.841 248.743 307.019C248.283 307.472 247.775 307.875 247.229 308.219C247.121 308.291 247.014 308.357 246.906 308.418C246.615 308.585 246.314 308.733 246.004 308.861C245.686 309.004 245.348 309.101 245.003 309.146C244.916 309.146 244.907 309.146 244.916 309.026C244.949 308.641 244.982 308.257 245.007 307.876C245.064 307.168 245.081 306.458 245.056 305.749C245.05 305.489 245.014 305.231 244.949 304.979C244.934 304.931 244.916 304.884 244.895 304.839C244.874 304.88 244.866 304.905 244.854 304.93C244.696 305.286 244.535 305.646 244.378 306.006C244.364 306.044 244.342 306.078 244.312 306.105C244.294 306.109 244.275 306.109 244.258 306.105L243.26 305.985C243.203 305.985 243.194 305.956 243.223 305.869C243.438 305.207 243.674 304.545 243.939 303.887C244.082 303.532 244.288 303.205 244.547 302.923C244.936 302.498 245.351 302.097 245.789 301.723C245.808 301.705 245.831 301.689 245.855 301.677C245.905 301.644 245.925 301.677 245.938 301.752C246.016 302.294 246.298 302.468 246.765 302.24L246.885 302.178C247.173 302.005 247.406 301.754 247.556 301.454C247.682 301.211 247.761 300.945 247.787 300.672C247.786 300.637 247.793 300.603 247.808 300.572C247.823 300.541 247.846 300.514 247.874 300.494" fill="#B7C0EB"/>
<path d="M267.637 302.12L267.62 316.404L254.13 324.249L254.147 309.961L267.637 302.12Z" fill="#B7C0EB"/>
<path d="M254.147 309.961L254.131 324.249L240.55 316.412L240.563 302.124L254.147 309.961Z" fill="#B7C0EB"/>
<path d="M267.637 301.913L254.147 309.759L240.563 301.922L254.052 294.08L267.637 301.913Z" fill="white"/>
<path d="M240.774 301.922L254.056 294.2L267.426 301.913L254.147 309.639L240.774 301.922Z" fill="url(#paint27_linear_1785_29170)"/>
<path d="M267.637 301.913L267.62 316.201L254.13 324.042L254.147 309.758L267.637 301.913Z" fill="#E4E7FB"/>
<path d="M254.147 309.759L254.131 324.043L240.55 316.206L240.563 301.922L254.147 309.759Z" fill="#F1F4FE"/>
<path d="M262.245 308.799H262.286C262.666 308.679 263.055 308.594 263.449 308.542C263.591 308.513 263.738 308.524 263.873 308.577C264.008 308.629 264.126 308.719 264.21 308.836C264.467 309.187 264.698 309.556 264.902 309.941C264.935 309.999 264.926 310.032 264.864 310.111L263.896 311.352C263.875 311.382 263.85 311.409 263.822 311.431C263.797 311.431 263.78 311.431 263.751 311.402L263.275 310.885L263.234 310.843C263.21 310.912 263.191 310.983 263.176 311.054C263.109 311.385 263.076 311.722 263.077 312.06C263.06 313.028 263.111 313.996 263.23 314.956C263.251 315.155 263.255 315.155 263.081 315.329C262.621 315.783 262.113 316.187 261.566 316.533C261.459 316.602 261.351 316.668 261.244 316.731C260.952 316.898 260.649 317.044 260.337 317.17C260.02 317.314 259.685 317.411 259.34 317.46C259.253 317.46 259.245 317.46 259.253 317.336C259.286 316.955 259.319 316.57 259.344 316.189C259.402 315.481 259.418 314.769 259.394 314.058C259.388 313.799 259.351 313.54 259.286 313.289C259.286 313.243 259.253 313.202 259.233 313.148C259.212 313.193 259.2 313.214 259.191 313.239L258.715 314.319C258.702 314.356 258.68 314.389 258.649 314.414C258.632 314.42 258.613 314.42 258.595 314.414L257.598 314.294C257.54 314.294 257.532 314.269 257.561 314.178C257.772 313.516 258.012 312.858 258.277 312.196C258.42 311.841 258.626 311.514 258.885 311.232C259.274 310.809 259.689 310.409 260.126 310.036L260.188 309.987C260.242 309.958 260.263 309.987 260.275 310.061C260.354 310.607 260.635 310.781 261.103 310.554L261.227 310.491C261.515 310.32 261.746 310.068 261.893 309.767C262.023 309.525 262.103 309.259 262.129 308.985C262.129 308.894 262.162 308.836 262.216 308.807" fill="#B7C0EB"/>
<path d="M266.226 285.651L266.209 299.935L252.72 307.781L252.736 293.493L266.226 285.651Z" fill="#B7C0EB"/>
<path d="M252.736 293.493L252.72 307.781L239.139 299.944L239.156 285.66L252.736 293.493Z" fill="#B7C0EB"/>
<path d="M266.226 285.444L252.736 293.289L239.156 285.452L252.645 277.607L266.226 285.444Z" fill="white"/>
<path d="M239.362 285.453L252.645 277.731L266.015 285.444L252.736 293.17L239.362 285.453Z" fill="url(#paint28_linear_1785_29170)"/>
<path d="M266.226 285.444L266.209 299.733L252.72 307.574L252.736 293.29L266.226 285.444Z" fill="#E4E7FB"/>
<path d="M252.736 293.29L252.72 307.574L239.139 299.737L239.156 285.453L252.736 293.29Z" fill="#F1F4FE"/>
<path d="M260.834 292.33H260.875C261.255 292.211 261.644 292.125 262.038 292.073C262.18 292.044 262.327 292.055 262.462 292.108C262.598 292.16 262.715 292.25 262.8 292.367C263.058 292.718 263.29 293.087 263.495 293.472C263.524 293.53 263.515 293.563 263.453 293.642L262.485 294.883C262.465 294.913 262.439 294.94 262.411 294.962C262.386 294.962 262.369 294.962 262.34 294.933C262.183 294.759 262.022 294.589 261.869 294.416L261.823 294.374C261.798 294.453 261.782 294.519 261.765 294.585C261.703 294.917 261.669 295.253 261.666 295.591C261.653 296.559 261.704 297.526 261.819 298.487C261.819 298.686 261.844 298.686 261.67 298.864C261.209 299.317 260.702 299.719 260.156 300.064L259.833 300.262C259.542 300.428 259.24 300.574 258.931 300.701C258.612 300.844 258.275 300.942 257.929 300.991C257.842 300.991 257.834 300.991 257.842 300.867C257.875 300.486 257.909 300.101 257.933 299.72C257.991 299.012 258.007 298.3 257.983 297.589C257.977 297.33 257.941 297.071 257.876 296.82C257.876 296.774 257.842 296.733 257.822 296.679L257.78 296.77L257.304 297.85C257.291 297.887 257.269 297.92 257.238 297.945C257.221 297.951 257.202 297.951 257.184 297.945L256.187 297.825C256.129 297.825 256.121 297.8 256.15 297.709C256.365 297.047 256.601 296.389 256.866 295.727C257.009 295.372 257.215 295.045 257.474 294.763C257.863 294.34 258.278 293.94 258.716 293.567L258.782 293.518C258.831 293.489 258.852 293.518 258.864 293.592C258.943 294.138 259.224 294.312 259.692 294.085L259.812 294.022C260.1 293.85 260.332 293.599 260.482 293.298C260.609 293.055 260.688 292.789 260.714 292.516C260.714 292.425 260.747 292.367 260.801 292.338" fill="#B7C0EB"/>
<path d="M217.349 272.65L217.237 312.461L251.884 332.463L251.996 292.652L217.349 272.65ZM250.837 330.647L218.288 311.852L218.396 274.466L250.945 293.261L250.837 330.647Z" fill="#E4E7FB"/>
<path d="M251.888 332.472L333.405 285.101L333.516 245.291L252 292.661L251.888 332.472Z" fill="#F1F4FE"/>
<path d="M252 292.661L333.516 245.29L298.865 225.283L217.349 272.654L252 292.661Z" fill="white"/>
<path d="M333.165 245.291L298.866 225.487L217.701 272.654L252 292.458L333.165 245.291Z" fill="url(#paint29_linear_1785_29170)"/>
<path d="M217.291 312.498L198 339.274L232.593 359.244L251.884 332.471L217.291 312.498Z" fill="url(#paint30_linear_1785_29170)"/>
<path d="M250.568 334.392L215.93 314.393L215.975 314.319L250.609 334.313L250.568 334.392Z" fill="url(#paint31_linear_1785_29170)"/>
<path d="M249.066 336.465L214.436 316.47L214.477 316.396L249.111 336.39L249.066 336.465Z" fill="url(#paint32_linear_1785_29170)"/>
<path d="M247.568 338.542L212.938 318.548L212.983 318.473L247.609 338.468L247.568 338.542Z" fill="url(#paint33_linear_1785_29170)"/>
<path d="M246.066 340.615L211.44 320.625L211.486 320.55L246.112 340.54L246.066 340.615Z" fill="url(#paint34_linear_1785_29170)"/>
<path d="M244.568 342.693L209.942 322.702L209.987 322.628L244.609 342.618L244.568 342.693Z" fill="url(#paint35_linear_1785_29170)"/>
<path d="M243.066 344.769L208.448 324.779L208.489 324.705L243.111 344.691L243.066 344.769Z" fill="url(#paint36_linear_1785_29170)"/>
<path d="M241.564 346.843L206.95 326.856L206.996 326.782L241.609 346.768L241.564 346.843Z" fill="url(#paint37_linear_1785_29170)"/>
<path d="M240.066 348.916L205.453 328.934L205.498 328.86L240.112 348.842L240.066 348.916Z" fill="url(#paint38_linear_1785_29170)"/>
<path d="M238.564 350.993L203.959 331.011L204 330.937L238.609 350.919L238.564 350.993Z" fill="url(#paint39_linear_1785_29170)"/>
<path d="M237.066 353.07L202.461 333.088L202.506 333.014L237.111 352.991L237.066 353.07Z" fill="url(#paint40_linear_1785_29170)"/>
<path d="M235.564 355.143L200.963 335.166L201.008 335.091L235.609 355.069L235.564 355.143Z" fill="url(#paint41_linear_1785_29170)"/>
<path d="M234.066 357.22L199.465 337.243L199.51 337.168L234.111 357.146L234.066 357.22Z" fill="url(#paint42_linear_1785_29170)"/>
<path d="M198 339.274L198.103 339.386L232.68 359.339L232.593 359.244L198 339.274Z" fill="#B7C0EB"/>
<path d="M232.593 359.244L232.68 359.339L251.975 332.567L251.884 332.472L232.593 359.244Z" fill="#B7C0EB"/>
<path d="M226.337 230.054L214.907 224.339C214.052 223.911 213.288 223.881 212.737 224.156L209.345 225.867C209.284 225.898 209.253 225.898 209.192 225.929C208.673 226.234 208.367 226.784 208.367 227.609V239.039C208.367 240.72 209.742 242.768 211.423 243.624L222.853 249.338C223.709 249.766 224.473 249.797 225.023 249.522L228.415 247.81C228.477 247.78 228.507 247.78 228.538 247.749C229.057 247.444 229.363 246.894 229.363 246.068V234.638C229.363 232.927 228.018 230.879 226.337 230.054Z" fill="url(#paint43_linear_1785_29170)"/>
<path d="M222.853 249.308L211.423 243.593C209.742 242.737 208.367 240.689 208.367 239.009V227.579C208.367 225.898 209.742 225.195 211.423 226.051L222.853 231.766C224.534 232.621 225.909 234.669 225.909 236.35V247.78C225.909 249.461 224.534 250.163 222.853 249.308Z" fill="url(#paint44_linear_1785_29170)"/>
<path d="M203.97 195.076L192.54 189.361C191.684 188.934 190.92 188.903 190.37 189.178L186.978 190.889C186.917 190.92 186.886 190.92 186.825 190.951C186.306 191.256 186 191.806 186 192.631V204.061C186 205.742 187.375 207.79 189.056 208.646L200.486 214.361C201.342 214.788 202.106 214.819 202.656 214.544L206.048 212.833C206.109 212.802 206.14 212.802 206.17 212.771C206.69 212.466 206.996 211.916 206.996 211.091V199.661C207.026 197.98 205.681 195.932 203.97 195.076Z" fill="url(#paint45_linear_1785_29170)"/>
<path d="M200.516 214.36L189.087 208.645C187.406 207.789 186.03 205.742 186.03 204.061V192.631C186.03 190.95 187.406 190.247 189.087 191.103L200.516 196.818C202.197 197.674 203.573 199.721 203.573 201.402V212.832C203.573 214.513 202.197 215.185 200.516 214.36Z" fill="url(#paint46_linear_1785_29170)"/>
<ellipse cx="245.5" cy="218.628" rx="40.5" ry="10.3643" fill="url(#paint47_radial_1785_29170)"/>
<path fill-rule="evenodd" clip-rule="evenodd" d="M247.934 113.626C232.741 110.306 220.453 124.664 220.453 145.738C220.453 166.164 235.642 196.057 244.315 211.459C243.937 213.315 243.583 215.039 243.286 216.478L246.559 215.38C248.782 219.201 250.204 221.454 250.204 221.454C250.204 221.454 262.479 202.27 267.961 179.183L268.147 178.816C268.108 178.842 268.068 178.868 268.029 178.894C269.566 172.345 270.551 165.487 270.551 158.669C270.551 137.596 263.128 116.946 247.934 113.626ZM243.757 167.58C238.34 166.272 233.943 158.656 233.943 150.58C233.943 142.505 238.34 137.012 243.757 138.321C249.175 139.629 253.572 147.245 253.572 155.321C253.572 163.396 249.175 168.888 243.757 167.58Z" fill="#3D8AFF"/>
<path fill-rule="evenodd" clip-rule="evenodd" d="M215.804 147.839C215.804 126.858 228.092 112.558 243.286 115.858C258.479 119.158 264.96 139.18 264.96 160.16C264.96 188.622 243.286 224.285 243.286 224.285C243.286 224.285 213.254 180.341 215.804 147.839ZM229.294 152.905C229.294 160.981 233.691 168.596 239.109 169.905C244.527 171.213 248.924 165.721 248.924 157.645C248.924 149.57 244.527 141.954 239.109 140.646C233.691 139.337 229.294 144.829 229.294 152.905Z" fill="url(#paint48_linear_1785_29170)"/>
<path d="M165.508 286V263.855C165.508 263.647 165.335 263.405 165.024 263.266L158.934 260.221C158.277 259.875 157.169 259.875 156.512 260.221L150.422 263.266C150.076 263.439 149.937 263.647 149.937 263.855V286H165.508Z" fill="url(#paint49_linear_1785_29170)"/>
<path d="M157.688 276.173C158.865 276.173 160.041 275.931 160.941 275.481L175.785 268.042C177.169 267.35 177.377 266.45 177.377 265.965C177.377 265.481 177.169 264.581 175.785 263.889L160.941 256.45C159.107 255.55 156.27 255.55 154.436 256.45L139.591 263.889C138.207 264.581 138 265.481 138 265.965C138 266.45 138.207 267.35 139.591 268.042L154.436 275.481C155.37 275.931 156.546 276.173 157.688 276.173ZM157.688 257.177C158.657 257.177 159.591 257.35 160.318 257.696L175.162 265.135C175.681 265.377 175.993 265.723 175.993 266C175.993 266.277 175.681 266.588 175.162 266.865L160.318 274.305C158.899 275.031 156.477 275.031 155.059 274.305L140.214 266.865C139.695 266.623 139.384 266.277 139.384 266C139.384 265.723 139.695 265.412 140.214 265.135L155.059 257.696C155.785 257.35 156.754 257.177 157.688 257.177Z" fill="#8CD9FF"/>
<path d="M143.294 246.934L155.335 240.913C156.65 240.256 158.796 240.256 160.11 240.913L172.152 246.934C172.809 247.28 173.155 247.695 173.155 248.11V263.37C173.155 263.785 172.809 264.235 172.152 264.547L160.11 270.567C158.796 271.225 156.65 271.225 155.335 270.567L143.294 264.547C142.636 264.201 142.29 263.785 142.29 263.37V248.11C142.29 247.695 142.636 247.28 143.294 246.934Z" fill="url(#paint50_linear_1785_29170)"/>
<path d="M143.294 249.322L155.335 255.342C156.65 256 158.796 256 160.111 255.342L172.152 249.322C173.467 248.664 173.467 247.591 172.152 246.934L160.111 240.913C158.796 240.256 156.65 240.256 155.335 240.913L143.294 246.934C141.979 247.591 141.979 248.664 143.294 249.322Z" fill="url(#paint51_linear_1785_29170)"/>
<path d="M150.387 248.734L156.477 251.779C157.135 252.125 158.242 252.125 158.899 251.779L164.989 248.734C165.647 248.388 165.647 247.869 164.989 247.523L158.899 244.478C158.242 244.132 157.135 244.132 156.477 244.478L150.387 247.523C149.73 247.869 149.73 248.422 150.387 248.734Z" fill="#D3DAF3"/>
<path d="M165.508 226V248.145C165.508 248.353 165.335 248.595 165.024 248.734L158.934 251.779C158.277 252.125 157.169 252.125 156.512 251.779L150.422 248.734C150.076 248.561 149.937 248.353 149.937 248.145V226H165.508Z" fill="url(#paint52_linear_1785_29170)"/>
<path d="M168.878 351.885C164.212 351.885 160.451 353.837 160.451 356.265C160.451 358.693 164.212 360.645 168.878 360.645H211.778V351.837H168.878V351.885Z" fill="url(#paint53_linear_1785_29170)"/>
<path d="M169.593 351.599C170.164 352.17 170.021 353.36 169.688 353.836C169.164 354.694 168.45 354.217 167.974 354.503C166.688 355.313 164.022 356.074 163.451 355.693C162.879 355.313 162.451 354.122 165.45 352.979C166.784 352.456 167.45 351.741 167.45 351.741L169.593 351.599Z" fill="#080078"/>
<path d="M169.545 350.599C169.64 351.361 169.688 351.837 169.736 352.075C169.783 352.265 169.688 352.456 169.593 352.551C169.212 352.884 168.355 353.408 167.45 352.98C167.45 352.98 166.879 352.742 167.164 352.027C167.402 351.313 167.545 350.408 167.545 350.408L169.545 350.599Z" fill="white"/>
<path d="M174.925 355.884C175.497 356.455 175.402 357.693 175.021 358.122C174.64 358.55 174.021 358.217 173.735 358.693C172.687 360.55 170.735 360.312 170.069 360.264C169.069 360.169 169.021 359.312 170.688 357.788C172.307 356.265 172.592 355.884 172.592 355.884H174.925Z" fill="#080078"/>
<path d="M174.211 310.318C176.116 314.984 174.068 316.032 172.64 321.888C171.354 327.126 172.164 337.743 169.736 351.504C169.593 352.361 166.974 352.551 167.022 350.98C167.022 348.266 165.546 338.458 165.403 332.601C165.307 328.649 165.403 316.317 165.403 316.317L174.211 310.318Z" fill="url(#paint54_linear_1785_29170)"/>
<path d="M174.925 354.884C175.021 355.646 175.068 356.122 175.116 356.36C175.163 356.551 175.068 356.741 174.973 356.836C174.592 357.17 173.735 357.694 172.83 357.265C172.83 357.265 172.259 357.027 172.545 356.313C172.783 355.599 172.926 354.694 172.926 354.694L174.925 354.884Z" fill="white"/>
<path d="M164.308 307.508C161.927 309.317 160.975 310.032 160.975 310.032L158.641 308.746L161.974 303.985L163.07 303.08L164.593 305.223L164.308 307.508Z" fill="#F5D5D5"/>
<path d="M179.925 313.604C181.829 318.27 180.401 324.222 179.068 330.078C176.735 340.125 175.782 348.505 175.259 355.409C175.211 356.266 172.497 356.98 172.307 355.409C172.069 353.504 171.164 341.267 170.783 337.077C170.164 330.173 171.116 319.651 171.116 319.651L179.925 313.604Z" fill="url(#paint55_linear_1785_29170)"/>
<path d="M166.45 299.129L166.307 308.318C166.307 308.318 164.879 307.175 164.26 307.509C164.26 307.509 164.546 304.319 161.927 304.033C161.974 304.033 165.641 299.605 166.45 299.129Z" fill="#2C35B0"/>
<path d="M181.353 316.793C180.639 320.888 175.592 323.174 169.164 319.603C162.736 316.032 165.784 314.651 165.879 311.223C165.974 307.794 167.974 305.985 166.545 300.938C165.069 295.891 172.592 299.224 176.306 302.366C180.02 305.414 182.02 312.984 181.353 316.793Z" fill="#2C35B0"/>
<path d="M177.497 302.414C180.496 306.223 181.258 318.127 180.591 321.888C180.02 325.126 177.116 325.031 172.592 323.983C172.688 323.364 173.116 319.555 173.116 318.222C173.259 312.651 171.878 307.89 172.688 301.128C172.688 301.128 175.687 300.605 172.783 299.272C169.878 297.938 168.593 297.938 168.212 299.033C167.831 300.129 168.069 308.89 167.879 314.841C167.783 317.031 166.926 320.031 166.879 321.079C162.974 318.317 165.26 314.222 165.355 311.175C165.45 307.747 166.212 306.08 166.117 300.843C166.022 295.462 174.497 298.557 177.497 302.414Z" fill="url(#paint56_linear_1785_29170)"/>
<path d="M171.402 295.605C172.688 298.319 172.259 298.795 173.354 299.795C173.783 300.176 172.307 300.938 171.259 300.985L169.259 303.414L169.355 300.033C169.355 300.033 168.688 299.747 168.831 299.176C168.974 298.605 169.45 298.176 168.974 297.414C168.831 297.081 171.402 295.605 171.402 295.605Z" fill="#F5D5D5"/>
<path d="M172.021 295.605C171.45 297.462 169.736 297.843 168.402 297.795C167.069 297.748 165.307 293.034 166.165 291.367C167.069 289.701 170.259 288.749 171.45 290.463C172.64 292.177 172.021 295.605 172.021 295.605Z" fill="#F5D5D5"/>
<path d="M165.022 311.365H165.069L167.212 310.794C167.355 310.746 167.403 310.651 167.355 310.508C167.307 310.365 167.212 310.317 167.069 310.365L164.927 310.936C164.784 310.984 164.736 311.079 164.784 311.222C164.831 311.317 164.927 311.365 165.022 311.365Z" fill="white"/>
<path d="M176.306 302.319C178.592 302.938 178.925 306.794 179.592 310.032C180.258 313.27 177.068 312.461 175.925 311.318C174.83 310.127 173.164 301.462 176.306 302.319Z" fill="#2C35B0"/>
<path d="M164.879 310.651C165.688 310.461 165.784 310.889 166.498 311.889C168.117 312.508 171.926 313.984 173.592 314.651C173.592 314.651 174.735 305.604 175.211 304.223L178.592 310.032C177.401 315.174 176.116 317.269 175.068 318.269C174.259 319.079 167.783 315.127 165.26 313.555C165.26 313.555 164.45 313.698 163.117 312.651C161.832 311.556 163.974 310.889 164.879 310.651Z" fill="#F5D5D5"/>
<path d="M172.307 295.748C171.735 296.938 173.211 296.605 173.307 297.414C173.402 298.224 171.402 297.891 170.878 296.795C170.593 296.176 170.164 296.272 170.831 295.653C171.497 295.034 170.545 294.415 169.974 294.796C169.402 295.177 169.021 294.51 168.926 294.034C168.831 293.558 167.164 294.129 166.069 294.034C164.974 293.939 163.641 293.177 164.212 291.986C164.784 290.748 165.165 291.605 165.498 291.177C165.831 290.748 164.736 290.463 165.546 289.939C166.355 289.415 166.879 290.415 167.26 289.939C167.593 289.415 168.593 289.606 169.117 289.13C169.64 288.653 170.212 289.653 170.497 289.51C170.783 289.368 171.973 289.701 172.164 291.463C172.354 293.272 172.497 292.558 172.735 293.462C172.973 294.319 172.307 295.748 172.307 295.748Z" fill="#001370"/>
<path d="M164.546 311.937L158.118 306.652L161.832 313.413L168.212 319.031L164.546 311.937Z" fill="#FF5A6F"/>
<path d="M159.022 308.27C157.356 310.508 158.118 311.555 158.594 312.222C159.07 312.841 163.831 315.793 164.498 316.983C165.165 318.174 166.784 317.888 167.355 317.555C167.926 317.269 168.26 316.174 167.879 315.364C167.45 314.365 165.879 315.317 165.879 315.317L160.26 310.603L159.022 308.27Z" fill="#F5D5D5"/>
<path d="M174.402 309.127C175.449 308.27 178.163 309.651 178.401 311.175L179.068 310.365L177.258 305.176L175.497 303.604L174.592 304.271L174.402 309.127Z" fill="#2C35B0"/>
<path d="M166.791 297.34C166.654 297.494 166.159 297.506 166.193 297.078C166.13 296.959 166.101 296.733 166.484 296.788C166.963 296.856 167.504 296.828 168.291 296.656C169.078 296.485 169.679 295.316 170.004 295.025C170.329 294.734 170.662 295.208 170.628 295.516C170.594 295.824 169.176 297.124 168.462 297.215C167.39 297.352 166.927 297.186 166.791 297.34Z" fill="#001370"/>
<g style="mix-blend-mode:color">
<rect width="302" height="380" fill="#017AFF"/>
</g>
</g>
</g>
<defs>
<linearGradient id="paint0_linear_1785_29170" x1="212825" y1="37766.7" x2="208048" y2="37766.7" gradientUnits="userSpaceOnUse">
<stop stop-color="#F1F4FE"/>
<stop offset="0.58" stop-color="#F7F9FE"/>
<stop offset="1" stop-color="white"/>
</linearGradient>
<linearGradient id="paint1_linear_1785_29170" x1="165.548" y1="102.156" x2="253.068" y2="102.156" gradientUnits="userSpaceOnUse">
<stop stop-color="#CED4FF"/>
<stop offset="1" stop-color="#CED4FF" stop-opacity="0"/>
</linearGradient>
<linearGradient id="paint2_linear_1785_29170" x1="210043" y1="38709.5" x2="205267" y2="38709.5" gradientUnits="userSpaceOnUse">
<stop stop-color="#F1F4FE"/>
<stop offset="0.58" stop-color="#F7F9FE"/>
<stop offset="1" stop-color="white"/>
</linearGradient>
<linearGradient id="paint3_linear_1785_29170" x1="252.495" y1="102.763" x2="340.006" y2="102.763" gradientUnits="userSpaceOnUse">
<stop stop-color="#CED4FF"/>
<stop offset="1" stop-color="#CED4FF" stop-opacity="0"/>
</linearGradient>
<linearGradient id="paint4_linear_1785_29170" x1="215686" y1="38734" x2="210909" y2="38734" gradientUnits="userSpaceOnUse">
<stop stop-color="#F1F4FE"/>
<stop offset="0.58" stop-color="#F7F9FE"/>
<stop offset="1" stop-color="white"/>
</linearGradient>
<linearGradient id="paint5_linear_1785_29170" x1="209.624" y1="127.581" x2="297.163" y2="127.581" gradientUnits="userSpaceOnUse">
<stop stop-color="#CED4FF"/>
<stop offset="1" stop-color="#CED4FF" stop-opacity="0"/>
</linearGradient>
<linearGradient id="paint6_linear_1785_29170" x1="212904" y1="39676.3" x2="208127" y2="39676.3" gradientUnits="userSpaceOnUse">
<stop stop-color="#F1F4FE"/>
<stop offset="0.58" stop-color="#F7F9FE"/>
<stop offset="1" stop-color="white"/>
</linearGradient>
<linearGradient id="paint7_linear_1785_29170" x1="210.765" y1="296.836" x2="359.533" y2="296.836" gradientUnits="userSpaceOnUse">
<stop stop-color="#CED4FF"/>
<stop offset="1" stop-color="#CED4FF" stop-opacity="0"/>
</linearGradient>
<linearGradient id="paint8_linear_1785_29170" x1="303.886" y1="304.89" x2="328.281" y2="304.89" gradientUnits="userSpaceOnUse">
<stop stop-color="#CED4FF"/>
<stop offset="1" stop-color="#CED4FF" stop-opacity="0"/>
</linearGradient>
<linearGradient id="paint9_linear_1785_29170" x1="269.728" y1="324.249" x2="294.122" y2="324.249" gradientUnits="userSpaceOnUse">
<stop stop-color="#CED4FF"/>
<stop offset="1" stop-color="#CED4FF" stop-opacity="0"/>
</linearGradient>
<linearGradient id="paint10_linear_1785_29170" x1="-33913.8" y1="19330.8" x2="-33051.8" y2="19781.1" gradientUnits="userSpaceOnUse">
<stop stop-color="#4C58DA"/>
<stop offset="1" stop-color="#20298B"/>
</linearGradient>
<linearGradient id="paint11_linear_1785_29170" x1="-23676.4" y1="15860.6" x2="-23153.7" y2="16201.5" gradientUnits="userSpaceOnUse">
<stop stop-color="#4C58D9"/>
<stop offset="1" stop-color="#1F288A"/>
</linearGradient>
<linearGradient id="paint12_linear_1785_29170" x1="23352.4" y1="7693.19" x2="23027.8" y2="7693.26" gradientUnits="userSpaceOnUse">
<stop stop-color="#B7C0EB"/>
<stop offset="0.64" stop-color="#D7DCF6"/>
<stop offset="1" stop-color="#E4E7FB"/>
</linearGradient>
<linearGradient id="paint13_linear_1785_29170" x1="-6825.23" y1="5029.32" x2="-6787.64" y2="5029.32" gradientUnits="userSpaceOnUse">
<stop stop-color="#B7C0EB"/>
<stop offset="0.64" stop-color="#D7DCF6"/>
<stop offset="1" stop-color="#E4E7FB"/>
</linearGradient>
<linearGradient id="paint14_linear_1785_29170" x1="-1918.47" y1="1784.46" x2="-1914.84" y2="1784.46" gradientUnits="userSpaceOnUse">
<stop stop-color="#B7C0EB"/>
<stop offset="0.64" stop-color="#D7DCF6"/>
<stop offset="1" stop-color="#E4E7FB"/>
</linearGradient>
<linearGradient id="paint15_linear_1785_29170" x1="-15842.5" y1="10961.6" x2="-15650.5" y2="10961.6" gradientUnits="userSpaceOnUse">
<stop stop-color="#4C58DA"/>
<stop offset="1" stop-color="#20298B"/>
</linearGradient>
<linearGradient id="paint16_linear_1785_29170" x1="252.059" y1="334.418" x2="276.454" y2="334.418" gradientUnits="userSpaceOnUse">
<stop stop-color="#CED4FF"/>
<stop offset="1" stop-color="#CED4FF" stop-opacity="0"/>
</linearGradient>
<linearGradient id="paint17_linear_1785_29170" x1="-33156.7" y1="19856.7" x2="-32294.3" y2="20307.5" gradientUnits="userSpaceOnUse">
<stop stop-color="#4C58DA"/>
<stop offset="1" stop-color="#20288A"/>
</linearGradient>
<linearGradient id="paint18_linear_1785_29170" x1="-23130.4" y1="16289.4" x2="-22607.7" y2="16630.2" gradientUnits="userSpaceOnUse">
<stop stop-color="#4C58DA"/>
<stop offset="1" stop-color="#1F288A"/>
</linearGradient>
<linearGradient id="paint19_linear_1785_29170" x1="-17032.8" y1="12330.7" x2="-16801.3" y2="12330.7" gradientUnits="userSpaceOnUse">
<stop stop-color="#B7C0EB"/>
<stop offset="0.64" stop-color="#D7DCF6"/>
<stop offset="1" stop-color="#E4E7FB"/>
</linearGradient>
<linearGradient id="paint20_linear_1785_29170" x1="-6674.51" y1="5164.97" x2="-6636.93" y2="5164.97" gradientUnits="userSpaceOnUse">
<stop stop-color="#B7C0EB"/>
<stop offset="0.64" stop-color="#D7DCF6"/>
<stop offset="1" stop-color="#E4E7FB"/>
</linearGradient>
<linearGradient id="paint21_linear_1785_29170" x1="-1883.83" y1="1834.8" x2="-1880.21" y2="1834.8" gradientUnits="userSpaceOnUse">
<stop stop-color="#B7C0EB"/>
<stop offset="0.64" stop-color="#D7DCF6"/>
<stop offset="1" stop-color="#E4E7FB"/>
</linearGradient>
<linearGradient id="paint22_linear_1785_29170" x1="-15479.6" y1="11264.3" x2="-15287.6" y2="11264.3" gradientUnits="userSpaceOnUse">
<stop stop-color="#4955D4"/>
<stop offset="1" stop-color="#20298B"/>
</linearGradient>
<linearGradient id="paint23_linear_1785_29170" x1="319.671" y1="242.369" x2="329.271" y2="225.743" gradientUnits="userSpaceOnUse">
<stop stop-color="#4753D1"/>
<stop offset="1" stop-color="#20298A"/>
</linearGradient>
<linearGradient id="paint24_linear_1785_29170" x1="227.487" y1="322.156" x2="241.746" y2="282.974" gradientUnits="userSpaceOnUse">
<stop stop-color="#D2D7F6"/>
<stop offset="0.44" stop-color="#C9D0F2"/>
<stop offset="1" stop-color="#B7C0EB"/>
</linearGradient>
<linearGradient id="paint25_linear_1785_29170" x1="233.449" y1="327.589" x2="239.847" y2="291.312" gradientUnits="userSpaceOnUse">
<stop stop-color="#D2D7F6"/>
<stop offset="0.04" stop-color="#D0D5F5"/>
<stop offset="0.6" stop-color="#BEC6EE"/>
<stop offset="1" stop-color="#B7C0EB"/>
</linearGradient>
<linearGradient id="paint26_linear_1785_29170" x1="80397.4" y1="13649.3" x2="78680.8" y2="13649.3" gradientUnits="userSpaceOnUse">
<stop stop-color="#F1F4FE"/>
<stop offset="0.58" stop-color="#F7F9FE"/>
<stop offset="1" stop-color="white"/>
</linearGradient>
<linearGradient id="paint27_linear_1785_29170" x1="81335" y1="13967.8" x2="79618.3" y2="13967.8" gradientUnits="userSpaceOnUse">
<stop stop-color="#F1F4FE"/>
<stop offset="0.58" stop-color="#F7F9FE"/>
<stop offset="1" stop-color="white"/>
</linearGradient>
<linearGradient id="paint28_linear_1785_29170" x1="81243.1" y1="13336.8" x2="79526.4" y2="13336.8" gradientUnits="userSpaceOnUse">
<stop stop-color="#F1F4FE"/>
<stop offset="0.58" stop-color="#F7F9FE"/>
<stop offset="1" stop-color="white"/>
</linearGradient>
<linearGradient id="paint29_linear_1785_29170" x1="219697" y1="52454.4" x2="187478" y2="52454.4" gradientUnits="userSpaceOnUse">
<stop stop-color="#F1F4FE"/>
<stop offset="0.72" stop-color="#FAFBFF"/>
<stop offset="1" stop-color="white"/>
</linearGradient>
<linearGradient id="paint30_linear_1785_29170" x1="212.135" y1="351.133" x2="237.749" y2="320.612" gradientUnits="userSpaceOnUse">
<stop stop-color="#F1F4FE"/>
<stop offset="0.54" stop-color="#F4F7FE"/>
<stop offset="0.98" stop-color="#FEFFFF"/>
<stop offset="1" stop-color="white"/>
</linearGradient>
<linearGradient id="paint31_linear_1785_29170" x1="55216.7" y1="20263.6" x2="55391.5" y2="19903.7" gradientUnits="userSpaceOnUse">
<stop stop-color="#E4E7FB"/>
<stop offset="1" stop-color="#D2D7F6"/>
</linearGradient>
<linearGradient id="paint32_linear_1785_29170" x1="55223.6" y1="20267.3" x2="55398.3" y2="19907.4" gradientUnits="userSpaceOnUse">
<stop stop-color="#E4E7FB"/>
<stop offset="1" stop-color="#D2D7F6"/>
</linearGradient>
<linearGradient id="paint33_linear_1785_29170" x1="55230.5" y1="20275.2" x2="55405.2" y2="19915.3" gradientUnits="userSpaceOnUse">
<stop stop-color="#E4E7FB"/>
<stop offset="1" stop-color="#D2D7F6"/>
</linearGradient>
<linearGradient id="paint34_linear_1785_29170" x1="55244.2" y1="20278.8" x2="55418.9" y2="19919.1" gradientUnits="userSpaceOnUse">
<stop stop-color="#E4E7FB"/>
<stop offset="1" stop-color="#D2D7F6"/>
</linearGradient>
<linearGradient id="paint35_linear_1785_29170" x1="55251.1" y1="20286.7" x2="55425.8" y2="19927" gradientUnits="userSpaceOnUse">
<stop stop-color="#E4E7FB"/>
<stop offset="1" stop-color="#D2D7F6"/>
</linearGradient>
<linearGradient id="paint36_linear_1785_29170" x1="55257.6" y1="20294.6" x2="55432.6" y2="19934.8" gradientUnits="userSpaceOnUse">
<stop stop-color="#E4E7FB"/>
<stop offset="1" stop-color="#D2D7F6"/>
</linearGradient>
<linearGradient id="paint37_linear_1785_29170" x1="55264.6" y1="20298.4" x2="55439.2" y2="19938.6" gradientUnits="userSpaceOnUse">
<stop stop-color="#E4E7FB"/>
<stop offset="1" stop-color="#D2D7F6"/>
</linearGradient>
<linearGradient id="paint38_linear_1785_29170" x1="55278.2" y1="20302.1" x2="55452.9" y2="19942.5" gradientUnits="userSpaceOnUse">
<stop stop-color="#E4E7FB"/>
<stop offset="1" stop-color="#D2D7F6"/>
</linearGradient>
<linearGradient id="paint39_linear_1785_29170" x1="55278.1" y1="20310" x2="55452.7" y2="19950.4" gradientUnits="userSpaceOnUse">
<stop stop-color="#E4E7FB"/>
<stop offset="1" stop-color="#D2D7F6"/>
</linearGradient>
<linearGradient id="paint40_linear_1785_29170" x1="55291.4" y1="20317.9" x2="55466" y2="19958.4" gradientUnits="userSpaceOnUse">
<stop stop-color="#E4E7FB"/>
<stop offset="1" stop-color="#D2D7F6"/>
</linearGradient>
<linearGradient id="paint41_linear_1785_29170" x1="55298.2" y1="20321.9" x2="55472.8" y2="19962.2" gradientUnits="userSpaceOnUse">
<stop stop-color="#E4E7FB"/>
<stop offset="1" stop-color="#D2D7F6"/>
</linearGradient>
<linearGradient id="paint42_linear_1785_29170" x1="55311.5" y1="20329.7" x2="55486.1" y2="19970.2" gradientUnits="userSpaceOnUse">
<stop stop-color="#E4E7FB"/>
<stop offset="1" stop-color="#D2D7F6"/>
</linearGradient>
<linearGradient id="paint43_linear_1785_29170" x1="227.455" y1="247.349" x2="210.341" y2="226.345" gradientUnits="userSpaceOnUse">
<stop stop-color="#2962D4"/>
<stop offset="1" stop-color="#3176FF"/>
</linearGradient>
<linearGradient id="paint44_linear_1785_29170" x1="217.138" y1="246.616" x2="217.138" y2="228.248" gradientUnits="userSpaceOnUse">
<stop stop-color="#3176FF"/>
<stop offset="1" stop-color="#66B3FF"/>
</linearGradient>
<linearGradient id="paint45_linear_1785_29170" x1="190.895" y1="191.502" x2="202.591" y2="213.005" gradientUnits="userSpaceOnUse">
<stop stop-color="#E1E3F8"/>
<stop offset="1" stop-color="#D3D7F2"/>
</linearGradient>
<linearGradient id="paint46_linear_1785_29170" x1="194.795" y1="214.553" x2="194.795" y2="193.516" gradientUnits="userSpaceOnUse">
<stop stop-color="#E8EAFB"/>
<stop offset="1" stop-color="white"/>
</linearGradient>
<radialGradient id="paint47_radial_1785_29170" cx="0" cy="0" r="1" gradientUnits="userSpaceOnUse" gradientTransform="translate(245.5 218.628) rotate(90) scale(10.3643 40.5)">
<stop stop-color="#429DFF" stop-opacity="0.57"/>
<stop offset="1" stop-color="#449EFF" stop-opacity="0"/>
</radialGradient>
<linearGradient id="paint48_linear_1785_29170" x1="215.65" y1="138.305" x2="280.897" y2="186.526" gradientUnits="userSpaceOnUse">
<stop stop-color="#3D9AFF"/>
<stop offset="1" stop-color="#88C0FF"/>
</linearGradient>
<linearGradient id="paint49_linear_1785_29170" x1="157.702" y1="286.179" x2="157.702" y2="260.009" gradientUnits="userSpaceOnUse">
<stop stop-color="white" stop-opacity="0"/>
<stop offset="1" stop-color="#22D2FD"/>
</linearGradient>
<linearGradient id="paint50_linear_1785_29170" x1="172.944" y1="255.777" x2="142.458" y2="255.777" gradientUnits="userSpaceOnUse">
<stop stop-color="#D3D7F2"/>
<stop offset="0.45" stop-color="#BBC9F8"/>
<stop offset="0.55" stop-color="#D3D7F2"/>
<stop offset="1" stop-color="#F2F3FF"/>
</linearGradient>
<linearGradient id="paint51_linear_1785_29170" x1="166.1" y1="252.339" x2="159.379" y2="238.9" gradientUnits="userSpaceOnUse">
<stop stop-color="#E8EAFB"/>
<stop offset="1" stop-color="white"/>
</linearGradient>
<linearGradient id="paint52_linear_1785_29170" x1="157.702" y1="225.793" x2="157.702" y2="251.963" gradientUnits="userSpaceOnUse">
<stop stop-color="white" stop-opacity="0"/>
<stop offset="1" stop-color="#22D2FD"/>
</linearGradient>
<linearGradient id="paint53_linear_1785_29170" x1="159.281" y1="356.266" x2="208.11" y2="356.266" gradientUnits="userSpaceOnUse">
<stop stop-color="#CED4FF"/>
<stop offset="1" stop-color="#CED4FF" stop-opacity="0"/>
</linearGradient>
<linearGradient id="paint54_linear_1785_29170" x1="168.603" y1="330.21" x2="163.231" y2="350.333" gradientUnits="userSpaceOnUse">
<stop stop-color="#BCC0E5"/>
<stop offset="1" stop-color="white"/>
</linearGradient>
<linearGradient id="paint55_linear_1785_29170" x1="175.103" y1="325.864" x2="173.072" y2="339.009" gradientUnits="userSpaceOnUse">
<stop stop-color="#BCC0E5"/>
<stop offset="1" stop-color="white"/>
</linearGradient>
<linearGradient id="paint56_linear_1785_29170" x1="175.124" y1="337.04" x2="179.133" y2="371.354" gradientUnits="userSpaceOnUse">
<stop stop-color="#080078"/>
<stop offset="1" stop-color="#5B68F5"/>
</linearGradient>
</defs>
</svg>
