<svg width="96" height="96" viewBox="0 0 96 96" fill="none" xmlns="http://www.w3.org/2000/svg">
<path d="M41.8399 91.7621L5.28114 70.4167C4.03409 69.6886 4.02884 67.8884 5.27162 67.153L44.7522 43.7918C48.2662 41.7126 52.6483 41.7749 56.1017 43.9534L90.888 65.8973C92.0834 66.6514 92.0607 68.4019 90.8463 69.1248L52.8947 91.7154C49.4926 93.7405 45.259 93.7584 41.8399 91.7621Z" stroke="#017AFF"/>
<path d="M41.9532 86.8769L13.4085 70.2214C12.1609 69.4934 12.1556 67.6925 13.399 66.9572L44.3129 48.6769C47.8255 46.5998 52.2049 46.6621 55.657 48.8384L82.761 65.925C83.9569 66.6789 83.9343 68.4302 82.7193 69.153L53.0028 86.8302C49.6019 88.8532 45.371 88.8711 41.9532 86.8769Z" fill="#017AFF"/>
<path fill-rule="evenodd" clip-rule="evenodd" d="M20.3388 69.1995L42.1116 81.7052C45.4966 83.6494 49.6636 83.632 53.0322 81.6594L75.791 68.3326C76.3939 67.9795 76.7067 67.3744 76.7264 66.7605L76.7283 66.7605V62.7318L72.1294 62.7927L55.2195 52.2991C51.7985 50.1761 47.4849 50.1151 44.0052 52.1406L24.6255 63.4214L19.3845 63.4908V67.5865L19.3889 67.5864C19.3981 68.2158 19.715 68.8412 20.3388 69.1995Z" fill="#5FABFF"/>
<path d="M42.1116 77.7052L20.3388 65.1996C19.0762 64.4744 19.0709 62.6548 20.3293 61.9223L44.0052 48.1407C47.4849 46.1152 51.7985 46.1762 55.2195 48.2992L75.8326 61.0909C77.0437 61.8425 77.021 63.6124 75.791 64.3327L53.0322 77.6595C49.6636 79.632 45.4966 79.6495 42.1116 77.7052Z" fill="white"/>
<ellipse opacity="0.56" cx="47.143" cy="64.3107" rx="16.6475" ry="5.53796" transform="rotate(30 47.143 64.3107)" fill="url(#paint0_radial_1871_35059)"/>
<path opacity="0.2" d="M20.2825 65.1781L42.0553 77.6838C45.4403 79.628 49.6073 79.6106 52.9759 77.638L75.7347 64.3112C76.3376 63.9582 76.6504 63.353 76.6701 62.7391L76.6721 62.7391V58.7105V12.3199L19.3326 12.3197L19.3282 59.4694V63.5651L19.3326 63.565C19.3419 64.1945 19.6587 64.8198 20.2825 65.1781Z" fill="url(#paint1_linear_1871_35059)"/>
<circle cx="66.3751" cy="61.1987" r="1" fill="#017AFF"/>
<circle cx="30.3751" cy="60.1987" r="1" fill="#017AFF"/>
<circle cx="30.3751" cy="42.1987" r="1" fill="#017AFF"/>
<circle cx="37.3751" cy="31.1987" r="1" fill="#017AFF"/>
<circle cx="31.3751" cy="30.1987" r="1" fill="#017AFF"/>
<circle cx="41.3751" cy="20.1987" r="1" fill="#017AFF"/>
<circle cx="59.3751" cy="21.1987" r="1" fill="#017AFF"/>
<circle cx="72.3751" cy="45.1987" r="1" fill="#017AFF"/>
<circle cx="70.8751" cy="54.6987" r="0.5" fill="#017AFF"/>
<circle cx="36.8751" cy="39.6987" r="0.5" fill="#017AFF"/>
<circle cx="49.8751" cy="13.6987" r="0.5" fill="#017AFF"/>
<circle cx="34.8751" cy="16.6987" r="0.5" fill="#017AFF"/>
<circle cx="63.8751" cy="22.6987" r="0.5" fill="#017AFF"/>
<circle cx="70.8751" cy="37.6987" r="0.5" fill="#017AFF"/>
<circle cx="25.8751" cy="47.6987" r="0.5" fill="#017AFF"/>
<circle cx="34.8751" cy="64.6987" r="0.5" fill="#017AFF"/>
<path d="M35.5552 20.5264L33.2569 21.7766C33.6604 22.1873 34.4885 23.0296 34.5724 23.1135C34.6563 23.1974 48.3847 33.7612 55.2385 39.0326L58.7383 65.9127L61.0323 64.6706V35.2177L35.5552 20.5264Z" fill="#3D8AFF"/>
<rect width="29.4299" height="29.4299" transform="matrix(0.866025 0.5 -2.20305e-08 1 33.254 21.7715)" fill="#82BDFF"/>
<path fill-rule="evenodd" clip-rule="evenodd" d="M42.7751 27.2684L49.2484 31.0058L49.2484 33.4787L49.2482 33.4786L49.2482 39.5293L47.1066 38.2928L47.1066 32.2422L42.7751 29.7413L42.7751 27.2684ZM38.5225 24.8133L40.6641 26.0497L40.6641 26.0498L40.6641 26.0498L40.6641 28.5227L40.6641 28.5227L40.6641 32.1004L40.6641 32.1004L40.6641 34.5733L33.254 30.2951L33.254 27.8222L33.2541 27.8222L33.2541 24.2445L33.254 24.2445L33.254 21.7716L33.2541 21.7716L33.2541 21.7715L35.3957 23.008L35.3957 23.0081L38.5225 24.8133L38.5225 24.8133ZM35.3957 25.481L35.3957 29.0586L38.5225 30.8639L38.5225 27.2862L35.3957 25.481ZM35.3957 43.9144L35.3957 43.9147L38.5225 45.72L38.5225 45.7197L40.6641 46.9561L40.6641 46.9564L40.6641 49.4293L40.6641 53.0068L40.6641 55.4797L33.254 51.2015L33.254 48.7286L33.2541 48.7286L33.2541 45.1512L33.254 45.1511L33.254 42.6782L33.2541 42.6783L33.2541 42.678L35.3957 43.9144ZM35.3957 49.9651L35.3957 46.3876L38.5225 48.1929L38.5225 51.7704L35.3957 49.9651ZM53.4725 33.4449L53.4725 33.4447L51.3309 32.2083L51.3309 32.2085L51.3309 34.6814L51.3309 38.2589L51.3309 38.2589L51.3309 40.7318L58.7409 45.01L58.7409 42.5371L58.7409 38.9595L58.741 38.9596L58.741 36.4867L58.7409 36.4866L58.7409 36.4864L56.5993 35.25L56.5993 35.2502L53.4725 33.4449ZM53.4725 35.9178L53.4725 39.4954L56.5993 41.3007L56.5993 37.7231L53.4725 35.9178ZM44.9713 39.4371L44.9713 33.4447L42.8297 32.2083L42.8297 38.2007L33.254 32.6721L33.254 35.145L33.2541 35.1451L33.2541 40.2239L35.3957 41.4603L35.3957 36.3815L44.9713 41.91L44.9713 40.9195L44.9713 39.4371ZM44.9713 46.9697L44.9713 49.3468L49.2483 51.8162L49.2483 54.289L49.2482 54.289L49.2482 60.4357L47.1066 59.1993L47.1066 53.0525L42.9069 50.6278L42.9069 50.6277L42.8297 50.5832L42.8297 43.2604L44.9713 44.4968L44.9713 44.4968L47.1066 45.7297L47.1066 40.67L47.1067 40.67L47.1067 40.67L53.4592 44.3376L53.4592 46.8105L53.4591 46.8104L53.4591 49.3973L51.3175 48.1609L51.3175 45.574L49.2482 44.3793L49.2482 46.9661L49.2483 46.9662L49.2483 49.4391L44.9713 46.9697ZM58.7411 47.3871L58.7411 57.3926L57.8325 56.868L57.8325 56.868L51.3592 53.1307L51.3592 50.6578L56.5995 53.6833L56.5995 46.1506L58.7411 47.3871ZM58.7411 65.9164L58.7411 60.5186L58.741 60.5186L58.741 59.7696L51.3592 55.5077L51.3592 57.9806L51.3593 57.9807L51.3593 61.6544L53.5008 62.8909L53.5008 59.2171L56.5995 61.0061L56.5995 64.6799L58.7411 65.9164ZM44.9713 54.2925L44.9713 57.9663L42.8297 56.7299L42.8297 53.0561L44.9713 54.2925ZM37.4653 40.1632L40.636 41.9938L40.636 44.4667L37.4653 42.6361L37.4653 40.1632Z" fill="url(#paint2_linear_1871_35059)"/>
<defs>
<radialGradient id="paint0_radial_1871_35059" cx="0" cy="0" r="1" gradientUnits="userSpaceOnUse" gradientTransform="translate(47.143 64.3107) rotate(90) scale(5.53796 16.6475)">
<stop stop-color="#479FFF" stop-opacity="0.36"/>
<stop offset="1" stop-color="#479FFF" stop-opacity="0"/>
</radialGradient>
<linearGradient id="paint1_linear_1871_35059" x1="48.0002" y1="12.3198" x2="48.0002" y2="79.1298" gradientUnits="userSpaceOnUse">
<stop stop-color="#017AFF" stop-opacity="0"/>
<stop offset="1" stop-color="#017AFF"/>
</linearGradient>
<linearGradient id="paint2_linear_1871_35059" x1="34.752" y1="24.4239" x2="28.2298" y2="60.2125" gradientUnits="userSpaceOnUse">
<stop stop-color="#3D9AFF"/>
<stop offset="0.91199" stop-color="#3D9AFF"/>
</linearGradient>
</defs>
</svg>
