<svg width="96" height="96" viewBox="0 0 96 96" fill="none" xmlns="http://www.w3.org/2000/svg">
<path d="M41.8398 91.7621L5.28101 70.4167C4.03397 69.6886 4.02872 67.8884 5.2715 67.153L44.7521 43.7918C48.2661 41.7126 52.6482 41.7749 56.1016 43.9534L90.8879 65.8973C92.0832 66.6514 92.0606 68.4019 90.8462 69.1248L52.8946 91.7154C49.4925 93.7405 45.2589 93.7584 41.8398 91.7621Z" stroke="white"/>
<path opacity="0.7" d="M41.9531 86.8769L13.4084 70.2214C12.1607 69.4934 12.1555 67.6925 13.3989 66.9572L44.3128 48.6769C47.8254 46.5998 52.2048 46.6621 55.6569 48.8384L82.7608 65.925C83.9568 66.6789 83.9342 68.4302 82.7191 69.153L53.0026 86.8302C49.6018 88.8532 45.3709 88.8711 41.9531 86.8769Z" fill="white"/>
<path fill-rule="evenodd" clip-rule="evenodd" d="M20.3386 69.1995L42.1115 81.7052C45.4965 83.6494 49.6635 83.632 53.0321 81.6594L75.7909 68.3326C76.3937 67.9795 76.7066 67.3744 76.7263 66.7605L76.7282 66.7605V62.7318L72.1292 62.7927L55.2194 52.2991C51.7983 50.1761 47.4847 50.1151 44.0051 52.1406L24.6254 63.4214L19.3844 63.4908V67.5865L19.3888 67.5864C19.398 68.2158 19.7149 68.8412 20.3386 69.1995Z" fill="#3796FF"/>
<path d="M42.1115 77.7052L20.3386 65.1996C19.0761 64.4744 19.0708 62.6548 20.3292 61.9223L44.0051 48.1407C47.4847 46.1152 51.7983 46.1762 55.2194 48.2992L75.8325 61.0909C77.0436 61.8425 77.0209 63.6124 75.7909 64.3327L53.0321 77.6595C49.6635 79.632 45.4965 79.6495 42.1115 77.7052Z" fill="white"/>
<path opacity="0.7" d="M20.3385 65.1298L42.1113 77.6354C45.4963 79.5797 49.6634 79.5622 53.032 77.5897L75.7907 64.2628C76.3936 63.9098 76.7064 63.3046 76.7261 62.6908L76.7281 62.6908V58.6621V12.2716L19.3886 12.2714L19.3843 59.421V63.5168L19.3886 63.5167C19.3979 64.1461 19.7148 64.7715 20.3385 65.1298Z" fill="url(#paint0_linear_1780_24583)"/>
<path fill-rule="evenodd" clip-rule="evenodd" d="M65.9126 54.1334C65.9924 54.3783 65.9047 54.6688 65.6503 54.813L48.5294 64.522C47.816 64.9266 46.9411 64.9199 46.234 64.5045L29.7452 54.8184C29.5093 54.6799 29.4208 54.4151 29.4794 54.1817V36.5708L65.9126 36.9077V54.1334Z" fill="url(#paint1_linear_1780_24583)"/>
<path d="M46.234 46.8948L29.7255 37.1972C29.3468 36.9747 29.3482 36.4265 29.7281 36.2059L46.5552 26.4356C47.2679 26.0218 48.1478 26.0217 48.8605 26.4355L65.6756 36.1961C66.0589 36.4186 66.0561 36.9731 65.6706 37.1917L48.5293 46.9123C47.816 47.3168 46.9411 47.3101 46.234 46.8948Z" fill="url(#paint2_linear_1780_24583)"/>
<path d="M63.6702 49.5854V53.8754" stroke="#A9D2FF" stroke-linecap="round"/>
<path d="M62.072 50.6262V54.9161" stroke="#A9D2FF" stroke-linecap="round"/>
<path d="M35.4978 45.5542V40.595L40.097 43.2331V48.2951L35.4978 45.5542Z" fill="#A9D2FF"/>
<path d="M54.0854 29.5046L35.4983 40.6134L40.0853 43.2873L58.3897 31.9829L54.0854 29.5046Z" fill="#A9D2FF"/>
<circle cx="62.9065" cy="61.4944" r="1" fill="white"/>
<circle cx="26.9065" cy="60.4944" r="1" fill="white"/>
<circle cx="26.9065" cy="42.4944" r="1" fill="white"/>
<circle cx="33.9065" cy="31.4944" r="1" fill="white"/>
<circle cx="27.9065" cy="30.4944" r="1" fill="white"/>
<circle cx="37.9065" cy="20.4944" r="1" fill="white"/>
<circle cx="55.9065" cy="21.4944" r="1" fill="white"/>
<circle cx="68.9065" cy="45.4944" r="1" fill="white"/>
<circle cx="67.4065" cy="54.9944" r="0.5" fill="white"/>
<circle cx="33.4065" cy="39.9944" r="0.5" fill="white"/>
<circle cx="46.4065" cy="13.9944" r="0.5" fill="white"/>
<circle cx="31.4065" cy="16.9944" r="0.5" fill="white"/>
<circle cx="60.4065" cy="22.9944" r="0.5" fill="white"/>
<circle cx="67.4065" cy="37.9944" r="0.5" fill="white"/>
<circle cx="22.4065" cy="47.9944" r="0.5" fill="white"/>
<circle cx="31.4065" cy="64.9944" r="0.5" fill="white"/>
<defs>
<linearGradient id="paint0_linear_1780_24583" x1="48.0562" y1="12.2715" x2="48.0562" y2="79.0814" gradientUnits="userSpaceOnUse">
<stop stop-color="white" stop-opacity="0"/>
<stop offset="1" stop-color="white" stop-opacity="0.67"/>
</linearGradient>
<linearGradient id="paint1_linear_1780_24583" x1="32.9639" y1="42.2726" x2="65.6662" y2="44.2433" gradientUnits="userSpaceOnUse">
<stop stop-color="#3C99FF"/>
<stop offset="0.424133" stop-color="#8EC4FF"/>
<stop offset="1" stop-color="#64AEFF"/>
</linearGradient>
<linearGradient id="paint2_linear_1780_24583" x1="37.1578" y1="32.3961" x2="63.9589" y2="37.227" gradientUnits="userSpaceOnUse">
<stop stop-color="#57A7FF"/>
<stop offset="1" stop-color="#ACD4FF"/>
</linearGradient>
</defs>
</svg>
