<svg width="94" height="96" viewBox="0 0 94 96" fill="none" xmlns="http://www.w3.org/2000/svg">
<g clip-path="url(#clip0_1861_44602)">
<path d="M41.9876 92.3089L5.42884 70.9635C4.18179 70.2354 4.17654 68.4352 5.41932 67.6999L44.8999 44.3387C48.4139 42.2594 52.796 42.3218 56.2494 44.5003L91.0357 66.4442C92.2311 67.1983 92.2084 68.9488 90.994 69.6717L53.0424 92.2623C49.6403 94.2874 45.4067 94.3053 41.9876 92.3089Z" stroke="#017AFF"/>
<path d="M42.1009 87.4237L13.5562 70.7683C12.3086 70.0403 12.3033 68.2393 13.5467 67.5041L44.4606 49.2238C47.9732 47.1467 52.3526 47.209 55.8047 49.3852L82.9087 66.4719C84.1046 67.2258 84.082 68.9771 82.867 69.6999L53.1505 87.3771C49.7496 89.4001 45.5187 89.418 42.1009 87.4237Z" fill="#017AFF"/>
<path fill-rule="evenodd" clip-rule="evenodd" d="M20.4865 69.7463L42.2593 82.252C45.6443 84.1963 49.8113 84.1788 53.1799 82.2063L75.9387 68.8794C76.5416 68.5264 76.8544 67.9212 76.8741 67.3074L76.876 67.3074V63.2787L72.2771 63.3396L55.3672 52.8459C51.9462 50.723 47.6326 50.662 44.1529 52.6875L24.7732 63.9683L19.5322 64.0376V68.1333L19.5366 68.1333C19.5458 68.7627 19.8627 69.3881 20.4865 69.7463Z" fill="#5FABFF"/>
<path d="M42.2593 78.2521L20.4865 65.7464C19.2239 65.0212 19.2186 63.2016 20.477 62.4692L44.1529 48.6876C47.6326 46.6621 51.9462 46.7231 55.3672 48.846L75.9803 61.6378C77.1914 62.3893 77.1687 64.1593 75.9387 64.8795L53.1799 78.2064C49.8113 80.1789 45.6443 80.1964 42.2593 78.2521Z" fill="white"/>
<ellipse opacity="0.56" cx="47.2905" cy="64.8578" rx="16.6475" ry="5.53796" transform="rotate(30 47.2905 64.8578)" fill="url(#paint0_radial_1861_44602)"/>
<path opacity="0.2" d="M20.4302 65.725L42.203 78.2306C45.588 80.1749 49.755 80.1574 53.1236 78.1849L75.8824 64.8581C76.4853 64.505 76.7981 63.8999 76.8178 63.286L76.8198 63.286V59.2573V12.8668L19.4803 12.8666L19.476 60.0163V64.112L19.4803 64.1119C19.4896 64.7413 19.8065 65.3667 20.4302 65.725Z" fill="url(#paint1_linear_1861_44602)"/>
<circle cx="66.6478" cy="62.0664" r="1" fill="#017AFF"/>
<circle cx="30.6478" cy="61.0664" r="1" fill="#017AFF"/>
<circle cx="30.6478" cy="43.0664" r="1" fill="#017AFF"/>
<circle cx="37.6478" cy="32.0664" r="1" fill="#017AFF"/>
<circle cx="31.6478" cy="31.0664" r="1" fill="#017AFF"/>
<circle cx="41.6478" cy="21.0664" r="1" fill="#017AFF"/>
<circle cx="59.6478" cy="22.0664" r="1" fill="#017AFF"/>
<circle cx="72.6478" cy="46.0664" r="1" fill="#017AFF"/>
<circle cx="71.1478" cy="55.5664" r="0.5" fill="#017AFF"/>
<circle cx="37.1478" cy="40.5664" r="0.5" fill="#017AFF"/>
<circle cx="50.1478" cy="14.5664" r="0.5" fill="#017AFF"/>
<circle cx="35.1478" cy="17.5664" r="0.5" fill="#017AFF"/>
<circle cx="64.1478" cy="23.5664" r="0.5" fill="#017AFF"/>
<circle cx="71.1478" cy="38.5664" r="0.5" fill="#017AFF"/>
<circle cx="26.1478" cy="48.5664" r="0.5" fill="#017AFF"/>
<circle cx="35.1478" cy="65.5664" r="0.5" fill="#017AFF"/>
<path fill-rule="evenodd" clip-rule="evenodd" d="M34.5687 17.8632L34.6277 17.8313L34.6382 17.8503C35.1606 17.7839 35.9403 18.3373 36.4772 19.2812L40.1039 25.6581L41.9916 25.2075C41.9946 24.9331 42.0327 24.61 42.145 24.3208L41.528 23.0305L43.7077 21.7345L43.7271 21.7383C43.9542 21.6237 44.2602 21.6466 44.6051 21.8457L44.7609 21.9357C44.7618 21.9362 44.7627 21.9367 44.7636 21.9372L45.1656 22.0144L44.6649 20.7331L46.6246 19.6132C46.7119 19.5332 46.8129 19.4718 46.9253 19.4305C47.1573 19.3453 47.4786 19.4499 47.7824 19.6124L48.513 19.1873L48.5205 19.1989L49.5802 19.8107V20.7375C49.7585 20.8088 50.1832 20.9906 50.4548 21.1475C50.7944 21.3435 51.8955 22.6209 51.8132 23.6665C51.7593 24.3503 51.5251 24.7114 51.3406 24.9957C51.243 25.1462 51.1593 25.2751 51.1237 25.419C51.0208 25.8349 51.1649 26.4528 51.381 26.8984C51.5538 27.2548 51.9881 27.7361 52.1836 27.9321C51.9675 26.9519 52.5232 26.4172 53.2949 26.8628L53.4462 26.9501C54.2702 27.4258 54.8764 28.6673 54.681 29.4788L54.5298 30.1066C54.7425 30.2769 55.2707 30.8409 55.6823 31.7345C56.0715 32.5794 56.0988 33.3918 56.06 33.7456L56.0785 33.7667L56.0559 33.7795C56.0549 33.7873 56.0538 33.7948 56.0527 33.802L56.0347 33.7916L53.6927 35.1216L52.4658 33.8091C52.4373 34.6599 52.8016 35.6564 53.0171 36.1012C53.2126 36.1982 53.6633 36.498 53.9021 36.921C54.1408 37.344 54.2074 37.8577 54.2108 38.0617L61.6591 33.7615C62.4494 33.3052 63.8122 34.4684 64.0071 35.8517C64.1471 36.8451 63.8596 38.3569 63.6984 38.9886L64.8407 39.0072C65.7831 39.0225 66.8169 40.2287 66.6042 41.2907C66.52 41.7115 66.3848 42.155 66.1784 42.5948C65.4869 44.0682 64.0311 44.3851 63.3897 44.3594L65.3016 45.3474C66.128 45.7744 66.8002 46.8584 66.4001 47.4637C66.1528 47.8377 65.748 48.2019 65.1082 48.4646C63.5687 49.0968 61.7844 48.1616 61.0847 47.6151L62.0884 48.6543C62.9208 49.5162 63.274 50.7853 62.5352 50.919L60.34 52.1695L58.2675 51.1087C58.1946 51.5808 57.8515 51.8049 57.2876 51.5065C56.2997 50.9837 55.4971 50.1915 55.2192 49.8608C55.353 50.0806 55.6267 50.6712 55.6514 51.2748C55.6761 51.8784 55.4216 52.3224 55.2913 52.4689L57.6355 55.3479L58.1897 55.0465L58.4397 54.9018L58.5637 54.1982L60.8367 52.9394C60.8665 52.9122 60.9015 52.8928 60.9406 52.8818L60.963 52.8694C60.9665 52.8711 60.9701 52.8729 60.9736 52.8747C61.0563 52.8619 61.1544 52.8835 61.2596 52.9442C61.5551 53.1148 61.7947 53.5298 61.7947 53.871V54.3405C61.8488 54.551 61.8923 54.7602 61.9272 54.951C62.655 55.6874 63.8761 57.3227 63.8219 58.9269C63.7643 60.6332 62.6728 60.8181 62.1343 60.6973L62.0623 60.929L61.558 61.8618C61.5329 61.887 61.4998 61.9124 61.4596 61.9341L61.459 61.9365L59.1356 63.2006L58.8546 62.1671L54.0613 56.7073L53.8022 56.8532C53.7304 56.9158 53.6473 56.9611 53.5558 56.992L51.3831 58.2159L50.5978 57.8673C50.4838 57.8596 50.3685 57.8484 50.2587 57.8378C49.9881 57.8117 49.7514 57.7889 49.6522 57.8278C49.5471 57.869 49.4575 57.943 49.3763 58.01C49.2587 58.107 49.1589 58.1894 49.0554 58.1367C48.9299 58.0728 48.8468 57.9784 48.6733 57.641L48.4242 58.2861L47.3042 55.7556C47.0869 55.5305 46.8826 55.3034 46.7298 55.0592C46.4351 54.5885 46.3815 54.0329 46.3955 53.7023L46.2747 53.4294C46.1921 53.3684 46.1032 53.3051 46.01 53.2387C45.2611 52.7054 44.2368 51.9758 44.0131 50.7341C43.892 50.0617 44.0986 49.4074 44.313 48.9971L44.1565 48.6434L39.9336 48.0827C39.9478 48.1527 39.9606 48.2349 39.9691 48.328C39.9938 48.5989 39.7804 48.833 39.6706 48.9162L40.7788 51.4753C40.922 51.8061 40.8818 52.1094 40.6969 52.1962L38.2749 53.5185C37.8871 52.6327 37.1035 50.8399 37.0718 50.7553C37.0401 50.6707 36.8823 49.0893 36.8074 48.3092L37.8299 48.5648C37.7377 48.44 37.6528 48.2875 37.5817 48.1022C37.5336 47.9768 37.4982 47.8616 37.4736 47.7561L35.9906 47.5591L33.5063 42.0743L30.893 36.8799L33.2723 35.5384L34.1853 35.3711L35.776 34.8993C35.7403 34.5239 35.815 34.19 35.9923 33.9616L35.1515 32.3709C34.7073 31.9912 34.2319 31.5482 33.7778 31.0595C33.3154 30.5619 32.8657 29.8298 32.4639 29.0443C32.027 28.1901 32.0656 27.4945 32.3921 27.1505L29.5293 21.7345L31.6972 20.6048C31.7533 20.5366 31.8208 20.4841 31.8974 20.4473L32.1065 19.1944L34.3298 17.9923C34.3984 17.928 34.479 17.8854 34.5687 17.8632Z" fill="#3D8AFF"/>
<path fill-rule="evenodd" clip-rule="evenodd" d="M41.475 33.5066L34.1274 20.5874C33.2866 19.109 31.8498 18.5885 31.7392 19.9076C31.7261 20.0642 31.7189 20.2242 31.7189 20.3862C31.7189 21.6659 31.9154 22.9161 32.0136 23.3813L31.3021 22.5554C30.2123 21.2905 28.9223 21.4029 29.2008 22.9363C29.3221 23.6045 29.5105 24.2833 29.7944 24.8844C30.5964 26.5822 31.688 28.2642 32.1335 28.8931L31.3829 28.4596C30.1247 27.7333 29.3061 28.7705 30.1142 30.3506C30.5159 31.136 30.9657 31.8681 31.4281 32.3658C32.6311 33.6606 33.9838 34.6345 34.5098 34.9596L34.3682 34.954C33.1753 34.9066 33.0533 36.6892 34.2978 37.9012C34.831 38.4204 35.3783 38.8752 35.8836 39.1612C37.3985 40.0187 38.3713 40.2187 38.6683 40.2116L38.3688 40.4261C37.5158 41.0367 38.1064 43.2518 39.3738 43.7701C40.0867 44.0616 40.401 44.0416 40.4691 43.9952C40.2834 44.181 39.9381 44.7262 40.0421 45.4207C40.1461 46.1153 40.3701 46.5318 40.4691 46.6533L36.4962 46.5676C36.4178 46.3857 36.1993 45.9912 35.9523 45.8676C35.7053 45.744 35.4652 45.721 35.3761 45.725L33.884 42.2732C34.0075 42.0839 34.1803 41.4543 33.884 40.4505C33.5876 39.4467 32.7315 38.9819 32.3404 38.8749L31.7171 37.4313C31.5554 37.0568 31.2272 36.7902 30.9831 36.8349C30.7423 36.8791 30.6723 37.2104 30.8255 37.581L31.4246 39.0306C31.2737 39.3094 31.085 40.0917 31.5378 40.99C31.9906 41.8883 32.6526 42.3109 32.927 42.4099L34.4294 45.8082C34.2716 45.9032 34.0219 46.274 34.2853 46.9964C34.5487 47.7188 35.1222 48.0183 35.3761 48.0777C35.1874 48.1549 34.8945 48.5292 35.232 49.4085C35.5695 50.2878 36.2155 50.4278 36.4962 50.3879L37.5694 52.9351C37.7222 53.2979 38.0385 53.5609 38.2771 53.5236C38.5203 53.4856 38.5889 53.1507 38.4291 52.7815L37.3209 50.2224C37.4307 50.1392 37.644 49.9052 37.6193 49.6342C37.5946 49.3633 37.5336 49.1847 37.5061 49.1292L42.1573 49.9966C41.9104 50.3056 41.5044 51.1574 41.6634 52.0404C41.8871 53.282 42.9114 54.0116 43.6602 54.545C43.8071 54.6496 43.9435 54.7467 44.061 54.8386C44.0199 55.1119 44.0261 55.7999 44.38 56.3655C44.5759 56.6785 44.8566 56.9636 45.1407 57.2521C45.4982 57.6153 45.8612 57.9841 46.0676 58.4211C46.4381 59.2053 46.5307 59.3538 46.7056 59.443C46.8091 59.4957 46.909 59.4133 47.0266 59.3162C47.1078 59.2492 47.1974 59.1753 47.3025 59.134C47.4016 59.0951 47.6384 59.118 47.909 59.1441C48.3405 59.1857 48.8581 59.2357 49.0415 59.0568C49.2803 58.8239 49.2851 58.1478 49.2576 57.8389C49.851 58.1854 51.1469 58.7039 51.5832 58.0052C52.0195 57.3066 51.47 55.7456 51.1407 55.0525L55.9977 60.0905C56.0149 60.2866 56.1542 60.7773 56.574 61.1718C56.9938 61.5663 57.4281 61.4827 57.5927 61.3916C57.5516 61.6451 57.5989 62.2983 58.1175 62.8829C58.6362 63.4675 59.0608 63.3166 59.2083 63.168L59.7125 62.2353L59.7846 62.0036C60.3231 62.1244 61.4145 61.9394 61.4722 60.2331C61.5298 58.5269 60.1447 56.7853 59.445 56.1278L59.445 55.1773C59.445 54.836 59.2054 54.4211 58.9099 54.2505C58.6144 54.0798 58.3748 54.2182 58.3748 54.5594L58.3748 55.51C57.9941 55.409 57.14 55.3626 56.7695 55.9853C56.3991 56.6079 56.4368 57.6864 56.502 58.1478L52.9415 53.7752C53.0719 53.6286 53.3264 53.1846 53.3017 52.581C53.277 51.9774 53.0033 51.3869 52.8695 51.167C53.1473 51.4978 53.95 52.2899 54.9378 52.8127C55.9565 53.3518 56.2545 52.1859 55.5413 50.9328L54.6806 49.4204C55.1642 50.0323 56.6008 51.4083 58.4777 52.0166C59.1987 52.2503 59.7514 52.291 60.1664 52.2284C60.9302 52.1131 60.5781 50.8298 59.7387 49.9606L58.735 48.9213C59.4347 49.4679 61.219 50.403 62.7584 49.7709C63.3983 49.5082 63.8031 49.144 64.0503 48.77C64.4505 48.1646 63.7782 47.0806 62.9519 46.6536L61.04 45.6656C61.6814 45.6913 63.1371 45.3745 63.8286 43.9011C64.0351 43.4612 64.1702 43.0178 64.2545 42.5969C64.4672 41.535 63.4334 40.3288 62.491 40.3134L61.3487 40.2949C61.5099 39.6631 61.7973 38.1513 61.6574 37.158C61.4625 35.7746 60.0997 34.6114 59.3094 35.0677L51.8611 39.368C51.8576 39.164 51.7911 38.6503 51.5524 38.2273C51.3136 37.8043 50.8629 37.5044 50.6674 37.4074C50.417 36.8905 49.9656 35.6287 50.1632 34.7161C50.3607 33.8035 51.2471 33.8131 51.6655 33.9319L53.703 35.1082C53.751 34.7914 53.7442 33.9343 53.3326 33.0407C52.921 32.1472 52.3927 31.5832 52.1801 31.4129L52.3312 30.785C52.5267 29.9735 51.9205 28.7321 51.0965 28.2563L50.9452 28.169C50.1734 27.7234 49.6178 28.2581 49.8339 29.2384C49.6384 29.0423 49.2041 28.5611 49.0312 28.2046C48.8151 27.759 48.6711 27.1412 48.774 26.7253C48.8096 26.5814 48.8933 26.4524 48.9909 26.302C49.1753 26.0176 49.4096 25.6566 49.4634 24.9728C49.5458 23.9271 48.4447 22.6498 48.1051 22.4537C47.8335 22.2969 47.4088 22.115 47.2304 22.0437L47.2304 21.1169L46.1603 20.499L46.1603 21.4259C45.8207 21.1268 45.0283 20.5704 44.5756 20.7368C44.0096 20.9447 43.7318 21.6636 44.0508 22.6914C44.1346 22.9615 44.2163 23.1902 44.2897 23.3956C44.4956 23.9719 44.6362 24.3656 44.5756 24.9787C44.5097 25.6441 43.8552 25.6718 43.5362 25.6024C43.7439 24.8626 43.1841 23.6882 42.4112 23.2419L42.2554 23.152C41.3977 22.6568 40.7803 23.2513 41.0207 24.3408L41.1799 25.0619C40.8923 24.9472 40.2363 24.8511 39.9134 25.3846C39.5905 25.9182 39.6211 26.6906 39.6768 27.0102L41.7088 28.1833C42.1124 28.471 42.9697 29.3727 43.1701 30.6787C43.3706 31.9846 42.9196 32.6301 42.6691 32.7896C42.4996 32.6487 42.0834 32.428 41.7751 32.6728C41.4668 32.9175 41.4466 33.3306 41.475 33.5066ZM45.6609 24.9633L47.6551 26.1147C47.6412 26.4563 47.7031 27.3433 48.0623 28.1583C48.4215 28.9733 49.0054 29.6874 49.2525 29.9426C48.8976 29.9426 48.0811 30.0113 47.6551 30.2862C47.2291 30.561 46.8303 32.0363 46.6841 32.7396C46.6563 32.0765 46.4126 30.4272 45.6609 29.1348C44.9092 27.8424 44.2827 27.1375 44.0634 26.9466C44.4045 26.9667 45.1535 26.8839 45.4208 26.3921C45.688 25.9002 45.6922 25.2346 45.6609 24.9633Z" fill="url(#paint2_linear_1861_44602)"/>
</g>
<defs>
<radialGradient id="paint0_radial_1861_44602" cx="0" cy="0" r="1" gradientUnits="userSpaceOnUse" gradientTransform="translate(47.2905 64.8578) rotate(90) scale(5.53796 16.6475)">
<stop stop-color="#479FFF" stop-opacity="0.36"/>
<stop offset="1" stop-color="#479FFF" stop-opacity="0"/>
</radialGradient>
<linearGradient id="paint1_linear_1861_44602" x1="48.1479" y1="12.8667" x2="48.1479" y2="79.6767" gradientUnits="userSpaceOnUse">
<stop stop-color="#017AFF" stop-opacity="0"/>
<stop offset="1" stop-color="#017AFF"/>
</linearGradient>
<linearGradient id="paint2_linear_1861_44602" x1="29.1624" y1="20.0007" x2="36.9661" y2="67.3142" gradientUnits="userSpaceOnUse">
<stop stop-color="#3D9AFF"/>
<stop offset="1" stop-color="#88C0FF"/>
</linearGradient>
<clipPath id="clip0_1861_44602">
<rect width="92.3752" height="96" fill="white" transform="translate(0.647827)"/>
</clipPath>
</defs>
</svg>
