<svg width="94" height="96" viewBox="0 0 94 96" fill="none" xmlns="http://www.w3.org/2000/svg">
<g clip-path="url(#clip0_1861_42896)">
<path d="M42.1316 92.4105L5.57288 71.0651C4.32584 70.337 4.32059 68.5368 5.56337 67.8014L45.0439 44.4403C48.5579 42.361 52.9401 42.4234 56.3934 44.6018L91.1798 66.5458C92.3751 67.2998 92.3525 69.0503 91.138 69.7732L53.1865 92.3638C49.7843 94.389 45.5508 94.4068 42.1316 92.4105Z" stroke="#00193F"/>
<path d="M42.245 87.5253L13.7003 70.8698C12.4526 70.1418 12.4474 68.3409 13.6908 67.6056L44.6046 49.3254C48.1173 47.2482 52.4967 47.3106 55.9488 49.4868L83.0527 66.5734C84.2487 67.3274 84.226 69.0787 83.011 69.8015L53.2945 87.4787C49.8937 89.5017 45.6628 89.5195 42.245 87.5253Z" fill="#00193F"/>
<path fill-rule="evenodd" clip-rule="evenodd" d="M20.6305 69.8479L42.4033 82.3536C45.7883 84.2978 49.9553 84.2804 53.324 82.3078L76.0827 68.981C76.6856 68.628 76.9984 68.0228 77.0181 67.409L77.0201 67.4089V63.3803L72.4211 63.4411L55.5113 52.9475C52.0902 50.8245 47.7766 50.7636 44.2969 52.7891L24.9173 64.0698L19.6763 64.1392V68.2349L19.6806 68.2348C19.6899 68.8643 20.0068 69.4896 20.6305 69.8479Z" fill="#9CBDEE"/>
<path d="M42.4033 78.3537L20.6305 65.848C19.3679 65.1228 19.3627 63.3032 20.621 62.5707L44.2969 48.7892C47.7766 46.7637 52.0902 46.8246 55.5113 48.9476L76.1243 61.7393C77.3355 62.4909 77.3127 64.2608 76.0827 64.9811L53.324 78.3079C49.9553 80.2805 45.7883 80.2979 42.4033 78.3537Z" fill="white"/>
<path opacity="0.2" d="M20.6305 65.8583L42.4033 78.3639C45.7883 80.3082 49.9553 80.2907 53.324 78.3182L76.0827 64.9914C76.6856 64.6383 76.9984 64.0332 77.0181 63.4193L77.0201 63.4193V59.3906V13.0001L19.6806 12.9999L19.6763 60.1496V64.2453L19.6806 64.2452C19.6899 64.8746 20.0068 65.5 20.6305 65.8583Z" fill="url(#paint0_linear_1861_42896)"/>
<circle cx="66.7919" cy="62.0664" r="1" fill="#017AFF"/>
<circle cx="30.7919" cy="61.0664" r="1" fill="#017AFF"/>
<circle cx="30.7919" cy="43.0664" r="1" fill="#017AFF"/>
<circle cx="37.7919" cy="32.0664" r="1" fill="#017AFF"/>
<circle cx="31.7919" cy="31.0664" r="1" fill="#017AFF"/>
<circle cx="41.7919" cy="21.0664" r="1" fill="#017AFF"/>
<circle cx="59.7919" cy="22.0664" r="1" fill="#017AFF"/>
<circle cx="72.7919" cy="46.0664" r="1" fill="#017AFF"/>
<circle cx="71.2919" cy="55.5664" r="0.5" fill="#017AFF"/>
<circle cx="37.2919" cy="40.5664" r="0.5" fill="#017AFF"/>
<circle cx="50.2919" cy="14.5664" r="0.5" fill="#017AFF"/>
<circle cx="35.2919" cy="17.5664" r="0.5" fill="#017AFF"/>
<circle cx="64.2919" cy="23.5664" r="0.5" fill="#017AFF"/>
<circle cx="71.2919" cy="38.5664" r="0.5" fill="#017AFF"/>
<circle cx="26.2919" cy="48.5664" r="0.5" fill="#017AFF"/>
<circle cx="35.2919" cy="65.5664" r="0.5" fill="#017AFF"/>
<g filter="url(#filter0_d_1861_42896)">
<path d="M28.3952 54.5592L46.6311 65.027C47.4004 65.4789 48.3523 65.4862 49.1285 65.046L66.3858 55.2184C66.6352 55.077 66.7374 54.8063 66.6916 54.5592V51.0131L56.9587 50.9521L47.0836 45.2199C46.308 44.7697 45.3507 44.7698 44.5753 45.2201L35.052 50.7496L28.0881 50.6852V53.9845C28.0755 54.2051 28.1778 54.4315 28.3952 54.5592Z" fill="url(#paint1_linear_1861_42896)"/>
</g>
<path d="M46.9067 62.0015L28.3354 51.3379C27.9523 51.1179 27.9509 50.5656 28.333 50.3438L44.689 40.847C45.3952 40.437 46.2661 40.4329 46.9761 40.8364L65.8459 51.56C66.2333 51.7801 66.2331 52.3385 65.8455 52.5582L49.1824 62.0076C48.4761 62.4082 47.6108 62.4058 46.9067 62.0015Z" fill="url(#paint2_linear_1861_42896)"/>
<path d="M67.9887 30.277L48.3951 19.2014C48.305 19.1351 48.1985 19.0947 48.0871 19.0845C47.9757 19.0742 47.8637 19.0945 47.7629 19.1431L45.6371 20.2999L45.6371 39.344C45.6503 39.6577 45.7388 39.9636 45.8952 40.2358C46.0515 40.508 46.2712 40.7386 46.5355 40.9079L66.2349 52.0444L68.6625 50.7489C68.7497 50.6826 68.8185 50.595 68.8622 50.4945C68.9058 50.394 68.923 50.284 68.912 50.1749V31.8741C68.8994 31.5529 68.8086 31.2397 68.6478 30.9614C68.4869 30.6831 68.2607 30.4482 67.9887 30.277Z" fill="#85BFFF"/>
<path d="M65.7978 31.5112L46.2363 20.3746C45.7455 20.0917 45.3462 20.3246 45.3462 20.8903V39.1911C45.3624 39.5009 45.4514 39.8024 45.6061 40.0713C45.7607 40.3401 45.9767 40.5687 46.2363 40.7384L65.7978 51.875C66.2886 52.1578 66.6879 51.9332 66.6879 51.3592V33.0584C66.6704 32.749 66.5808 32.4479 66.4263 32.1793C66.2717 31.9106 66.0565 31.6818 65.7978 31.5112Z" fill="#6AB1FF"/>
<path d="M46.519 39.5653V21.8967L65.3857 32.7869V50.4555L46.519 39.5653Z" fill="#8AC2FF"/>
<path d="M36.6656 47.4438L45.3936 42.2083L62.5696 52.1281L53.8416 57.3569L36.6656 47.4438Z" fill="#57A7FF"/>
<path d="M43.1592 57.6233L36.3214 53.6742L40.69 51.1575L47.5278 55.0987L43.1592 57.6233Z" fill="#57A7FF"/>
</g>
<defs>
<filter id="filter0_d_1861_42896" x="22.3475" y="44.8823" width="50.0943" height="36.5594" filterUnits="userSpaceOnUse" color-interpolation-filters="sRGB">
<feFlood flood-opacity="0" result="BackgroundImageFix"/>
<feColorMatrix in="SourceAlpha" type="matrix" values="0 0 0 0 0 0 0 0 0 0 0 0 0 0 0 0 0 0 127 0" result="hardAlpha"/>
<feOffset dy="10.3311"/>
<feGaussianBlur stdDeviation="2.86976"/>
<feComposite in2="hardAlpha" operator="out"/>
<feColorMatrix type="matrix" values="0 0 0 0 0.231526 0 0 0 0 0.59554 0 0 0 0 1 0 0 0 0.23 0"/>
<feBlend mode="normal" in2="BackgroundImageFix" result="effect1_dropShadow_1861_42896"/>
<feBlend mode="normal" in="SourceGraphic" in2="effect1_dropShadow_1861_42896" result="shape"/>
</filter>
<linearGradient id="paint0_linear_1861_42896" x1="48.3482" y1="13" x2="48.3482" y2="79.81" gradientUnits="userSpaceOnUse">
<stop stop-color="#017AFF" stop-opacity="0"/>
<stop offset="1" stop-color="#017AFF"/>
</linearGradient>
<linearGradient id="paint1_linear_1861_42896" x1="31.5979" y1="56.2376" x2="63.1617" y2="58.1403" gradientUnits="userSpaceOnUse">
<stop stop-color="#3C99FF"/>
<stop offset="0.424133" stop-color="#8EC4FF"/>
<stop offset="1" stop-color="#64AEFF"/>
</linearGradient>
<linearGradient id="paint2_linear_1861_42896" x1="36.1024" y1="47.0182" x2="64.0146" y2="52.1054" gradientUnits="userSpaceOnUse">
<stop stop-color="#57A7FF"/>
<stop offset="1" stop-color="#ACD4FF"/>
</linearGradient>
<clipPath id="clip0_1861_42896">
<rect width="92.3752" height="96" fill="white" transform="translate(0.79187)"/>
</clipPath>
</defs>
</svg>
