<svg width="97" height="96" viewBox="0 0 97 96" fill="none" xmlns="http://www.w3.org/2000/svg">
<path d="M42.7226 91.7621L6.16383 70.4167C4.91678 69.6886 4.91153 67.8884 6.15431 67.153L45.6349 43.7918C49.1489 41.7126 53.531 41.7749 56.9844 43.9534L91.7707 65.8973C92.966 66.6514 92.9434 68.4019 91.729 69.1248L53.7774 91.7154C50.3753 93.7405 46.1417 93.7584 42.7226 91.7621Z" stroke="#017AFF"/>
<path d="M42.8358 86.8769L14.2911 70.2214C13.0434 69.4934 13.0382 67.6925 14.2816 66.9572L45.1955 48.6769C48.7081 46.5998 53.0875 46.6621 56.5396 48.8384L83.6435 65.925C84.8395 66.6789 84.8169 68.4302 83.6018 69.153L53.8853 86.8302C50.4845 88.8532 46.2536 88.8711 42.8358 86.8769Z" fill="#017AFF"/>
<path fill-rule="evenodd" clip-rule="evenodd" d="M21.2218 69.1995L42.9946 81.7052C46.3796 83.6494 50.5467 83.632 53.9153 81.6594L76.674 68.3326C77.2769 67.9795 77.5897 67.3744 77.6094 66.7605L77.6114 66.7605V62.7318L73.0124 62.7927L56.1026 52.2991C52.6815 50.1761 48.3679 50.1151 44.8883 52.1406L25.5086 63.4214L20.2676 63.4908V67.5865L20.2719 67.5864C20.2812 68.2158 20.5981 68.8412 21.2218 69.1995Z" fill="#3796FF"/>
<path d="M42.9943 77.7052L21.2215 65.1996C19.9589 64.4744 19.9536 62.6548 21.212 61.9223L44.8879 48.1407C48.3676 46.1152 52.6812 46.1762 56.1022 48.2992L76.7153 61.0909C77.9264 61.8425 77.9037 63.6124 76.6737 64.3327L53.9149 77.6595C50.5463 79.632 46.3793 79.6495 42.9943 77.7052Z" fill="white"/>
<path opacity="0.2" d="M21.2218 65.1298L42.9946 77.6354C46.3796 79.5797 50.5467 79.5622 53.9153 77.5897L76.674 64.2628C77.2769 63.9098 77.5897 63.3046 77.6094 62.6908L77.6114 62.6908V58.6621V12.2716L20.2719 12.2714L20.2676 59.421V63.5168L20.2719 63.5167C20.2812 64.1461 20.5981 64.7715 21.2218 65.1298Z" fill="url(#paint0_linear_3401_56090)"/>
<g class="icon_animate_snow_2">
<circle cx="63.7891" cy="61.4944" r="1" fill="#017AFF"/>
<circle cx="27.7891" cy="60.4944" r="1" fill="#017AFF"/>
<circle cx="27.7891" cy="42.4944" r="1" fill="#017AFF"/>
<circle cx="34.7891" cy="31.4944" r="1" fill="#017AFF"/>
<circle cx="28.7891" cy="30.4944" r="1" fill="#017AFF"/>
<circle cx="38.7891" cy="20.4944" r="1" fill="#017AFF"/>
<circle cx="56.7891" cy="21.4944" r="1" fill="#017AFF"/>
<circle cx="69.7891" cy="45.4944" r="1" fill="#017AFF"/>
<circle cx="68.2891" cy="54.9944" r="0.5" fill="#017AFF"/>
<circle cx="34.2891" cy="39.9944" r="0.5" fill="#017AFF"/>
<circle cx="47.2891" cy="13.9944" r="0.5" fill="#017AFF"/>
<circle cx="32.2891" cy="16.9944" r="0.5" fill="#017AFF"/>
<circle cx="61.2891" cy="22.9944" r="0.5" fill="#017AFF"/>
<circle cx="68.2891" cy="37.9944" r="0.5" fill="#017AFF"/>
<circle cx="23.2891" cy="47.9944" r="0.5" fill="#017AFF"/>
<circle cx="32.2891" cy="64.9944" r="0.5" fill="#017AFF"/>
</g>
<g class="icon_animate_2">
<path fill-rule="evenodd" clip-rule="evenodd" d="M66.7954 54.1333C66.8752 54.3782 66.7875 54.6686 66.5331 54.8129L49.4122 64.5219C48.6989 64.9264 47.8239 64.9198 47.1168 64.5044L30.628 54.8183C30.3921 54.6798 30.3037 54.4149 30.3622 54.1816V36.5707L66.7954 36.9076V54.1333Z" fill="url(#paint1_linear_3401_56090)"/>
<path d="M47.1166 46.8948L30.6081 37.1972C30.2293 36.9747 30.2307 36.4265 30.6106 36.2059L47.4378 26.4356C48.1505 26.0218 49.0304 26.0217 49.7431 26.4355L66.5581 36.1961C66.9415 36.4186 66.9387 36.9731 66.5531 37.1917L49.4119 46.9123C48.6986 47.3168 47.8237 47.3101 47.1166 46.8948Z" fill="url(#paint2_linear_3401_56090)"/>
<path d="M64.5527 49.5854V53.8754" stroke="#A9D2FF" stroke-linecap="round"/>
<path d="M62.9551 50.6262V54.9161" stroke="#A9D2FF" stroke-linecap="round"/>
<path d="M36.3809 45.5542V40.595L40.98 43.2331V48.2951L36.3809 45.5542Z" fill="#A9D2FF"/>
<path d="M54.968 29.5046L36.3809 40.6134L40.9679 43.2873L59.2723 31.9829L54.968 29.5046Z" fill="#A9D2FF"/>
</g>
<defs>
<linearGradient id="paint0_linear_3401_56090" x1="48.9395" y1="12.2715" x2="48.9395" y2="79.0815" gradientUnits="userSpaceOnUse">
<stop stop-color="#017AFF" stop-opacity="0"/>
<stop offset="1" stop-color="#017AFF"/>
</linearGradient>
<linearGradient id="paint1_linear_3401_56090" x1="33.8467" y1="42.2725" x2="66.549" y2="44.2432" gradientUnits="userSpaceOnUse">
<stop stop-color="#3C99FF"/>
<stop offset="0.424133" stop-color="#8EC4FF"/>
<stop offset="1" stop-color="#64AEFF"/>
</linearGradient>
<linearGradient id="paint2_linear_3401_56090" x1="38.0404" y1="32.3961" x2="64.8415" y2="37.227" gradientUnits="userSpaceOnUse">
<stop stop-color="#57A7FF"/>
<stop offset="1" stop-color="#ACD4FF"/>
</linearGradient>
</defs>
</svg>
