<svg width="53" height="53" viewBox="0 0 53 53" fill="none" xmlns="http://www.w3.org/2000/svg">
<path d="M20.6157 49.2112L4.15992 39.6032C2.91287 38.8751 2.90762 37.0749 4.1504 36.3396L22.1416 25.6939C25.6556 23.6147 30.0378 23.677 33.4911 25.8555L49.0064 35.6428C50.2017 36.3969 50.1791 38.1474 48.9647 38.8703L31.6706 49.1645C28.2684 51.1897 24.0349 51.2076 20.6157 49.2112Z" stroke="#017AFF" stroke-width="0.552083"/>
<path d="M23.1609 47.9632L7.40184 38.768C6.71302 38.3661 6.71012 37.3718 7.39658 36.9659L24.4636 26.8737C26.4029 25.7269 28.8207 25.7613 30.7265 26.9628L45.6902 36.3961C46.3504 36.8123 46.3379 37.7792 45.6671 38.1782L29.2612 47.9375C27.3836 49.0544 25.0478 49.0642 23.1609 47.9632Z" fill="#017AFF"/>
<path fill-rule="evenodd" clip-rule="evenodd" d="M11.2278 38.2041L23.2482 45.1083C25.117 46.1817 27.4175 46.172 29.2773 45.083L41.842 37.7255C42.1749 37.5306 42.3476 37.1965 42.3585 36.8576L42.3597 36.8576V34.6334L39.8205 34.667L30.4849 28.8737C28.5962 27.7016 26.2147 27.6679 24.2936 28.7862L13.5944 35.0141L10.7012 35.0524V37.3136L10.7034 37.3135C10.7085 37.661 10.8834 38.0063 11.2278 38.2041Z" fill="#5FABFF"/>
<path d="M23.2477 42.8998L11.2273 35.9956C10.5303 35.5953 10.5274 34.5907 11.2221 34.1863L24.2932 26.5777C26.2142 25.4595 28.5957 25.4931 30.4844 26.6652L41.8645 33.7273C42.5332 34.1422 42.5206 35.1194 41.8416 35.517L29.2768 42.8746C27.4171 43.9636 25.1165 43.9732 23.2477 42.8998Z" fill="white"/>
<ellipse opacity="0.56" cx="26.0265" cy="35.5049" rx="9.19083" ry="3.05742" transform="rotate(30 26.0265 35.5049)" fill="url(#paint0_radial_2476_66894)"/>
<path opacity="0.2" d="M11.1967 35.9839L23.2171 42.8881C25.086 43.9615 27.3865 43.9519 29.2462 42.8628L41.811 35.5053C42.1438 35.3104 42.3165 34.9763 42.3274 34.6374L42.3285 34.6374V32.4133V6.80181L10.6723 6.80171L10.6699 32.8322V35.0934L10.6723 35.0934C10.6774 35.4409 10.8524 35.7861 11.1967 35.9839Z" fill="url(#paint1_linear_2476_66894)"/>
<circle cx="36.6439" cy="33.7869" r="0.552083" fill="#017AFF"/>
<circle cx="16.7689" cy="33.2347" r="0.552083" fill="#017AFF"/>
<circle cx="16.7689" cy="23.2972" r="0.552083" fill="#017AFF"/>
<circle cx="20.6322" cy="17.2244" r="0.552083" fill="#017AFF"/>
<circle cx="17.3197" cy="16.6722" r="0.552083" fill="#017AFF"/>
<circle cx="22.8411" cy="11.1514" r="0.552083" fill="#017AFF"/>
<circle cx="32.7786" cy="11.7035" r="0.552083" fill="#017AFF"/>
<circle cx="39.9564" cy="24.9535" r="0.552083" fill="#017AFF"/>
<circle cx="39.1276" cy="30.1984" r="0.276042" fill="#017AFF"/>
<circle cx="20.3561" cy="21.9172" r="0.276042" fill="#017AFF"/>
<circle cx="27.5339" cy="7.56291" r="0.276042" fill="#017AFF"/>
<circle cx="19.2526" cy="9.21916" r="0.276042" fill="#017AFF"/>
<circle cx="35.2624" cy="12.5317" r="0.276042" fill="#017AFF"/>
<circle cx="39.1276" cy="20.8129" r="0.276042" fill="#017AFF"/>
<circle cx="14.2839" cy="26.3337" r="0.276042" fill="#017AFF"/>
<circle cx="19.2526" cy="35.7192" r="0.276042" fill="#017AFF"/>
<path d="M19.6282 11.3323L18.3594 12.0225C18.5821 12.2492 19.0393 12.7142 19.0856 12.7606C19.1319 12.8069 26.7112 18.639 30.495 21.5493L32.4272 36.3893L33.6937 35.7035V19.4431L19.6282 11.3323Z" fill="#3D8AFF"/>
<rect width="16.2478" height="16.2478" transform="matrix(0.866025 0.5 -2.20305e-08 1 18.3574 12.0198)" fill="#82BDFF"/>
<path fill-rule="evenodd" clip-rule="evenodd" d="M32.429 20.1433L32.429 24.849L32.429 24.8489L32.429 24.849L29.5198 23.1694L29.5198 23.1697L28.3375 22.487L28.3375 17.7814L28.338 17.7817L28.338 17.7816L31.2467 19.4609L31.2467 19.4607L32.429 20.1433ZM29.5198 19.8291L31.2467 20.8261L31.2467 22.8012L29.5198 21.8042L29.5198 19.8291ZM18.358 15.3603L18.358 13.385L18.3574 13.3847L18.3574 12.0195L18.358 12.0198L18.358 12.0195L19.5403 12.7022L19.5403 12.7024L22.4484 14.3814L22.4484 14.3814L22.4484 14.3815L22.4484 19.0871L22.4484 19.0871L22.4484 19.0872L18.3574 16.7252L18.3574 15.36L18.358 15.3603ZM21.2661 15.064L21.2661 17.0393L19.5403 16.0429L19.5403 14.0677L21.2661 15.064ZM23.6145 15.0544L27.1883 17.1178L27.1883 18.483L27.188 18.4828L27.188 21.8233L26.0056 21.1407L26.0056 17.8002L23.6145 16.4197L23.6145 15.0544ZM19.5403 24.2443L19.5403 24.2448L21.2661 25.2412L21.2661 25.241L22.4484 25.9236L22.4484 30.6292L22.4484 30.6292L22.4484 30.6293L18.3574 28.2674L18.3574 26.9021L18.358 26.9024L18.358 24.9274L18.3574 24.9271L18.3574 23.5619L18.358 23.5622L18.358 23.5617L19.5403 24.2443ZM19.5403 27.5851L19.5403 25.61L21.2661 26.6064L21.2661 28.5815L19.5403 27.5851ZM24.8265 21.7723L24.8265 18.4642L23.6442 17.7816L23.6442 21.0897L18.3579 18.0376L18.3579 19.4029L18.3584 19.4032L18.3584 22.2068L19.5408 22.8895L19.5408 20.0858L24.8268 23.1377L24.8268 21.7725L24.8265 21.7723ZM24.8265 25.9311L24.8265 27.2435L27.1878 28.6068L27.1878 29.2996L27.188 29.2997L27.188 33.3655L26.0056 32.6829L26.0056 29.2895L23.6868 27.9507L23.6868 27.9506L23.6442 27.926L23.6442 23.8832L24.8265 24.5659L24.8265 24.5659L26.0056 25.2466L26.0056 22.4532L26.0062 22.4535L26.0062 22.4531L29.5132 24.4779L29.5132 25.8431L29.5128 25.8429L29.5128 27.2714L28.3304 26.5887L28.3304 25.1602L27.188 24.5006L27.188 27.1786L27.1878 27.1785L27.1878 27.2944L24.8265 25.9311ZM32.4284 26.1616L32.4284 31.6854L31.2461 31.0028L31.2461 31.0024L28.3536 29.3324L28.3536 27.9672L31.2461 29.6372L31.2461 25.479L32.4284 26.1616ZM31.2461 33.6801L29.5354 32.6924L29.5354 34.7209L28.3531 34.0383L28.3531 31.0583L28.3536 31.0586L28.3536 30.6448L32.429 32.9978L32.429 34.363L32.4284 34.3627L32.4284 36.3912L31.2461 35.7086L31.2461 33.6801ZM24.8265 29.9739L24.8265 32.0021L23.6442 31.3195L23.6442 29.2913L24.8265 29.9739ZM20.6827 22.1733L22.4332 23.1839L22.4332 24.5492L20.6827 23.5385L20.6827 22.1733Z" fill="url(#paint2_linear_2476_66894)"/>
<defs>
<radialGradient id="paint0_radial_2476_66894" cx="0" cy="0" r="1" gradientUnits="userSpaceOnUse" gradientTransform="translate(26.0265 35.5049) rotate(90) scale(3.05742 9.19083)">
<stop stop-color="#479FFF" stop-opacity="0.36"/>
<stop offset="1" stop-color="#479FFF" stop-opacity="0"/>
</radialGradient>
<linearGradient id="paint1_linear_2476_66894" x1="26.4992" y1="6.80176" x2="26.4992" y2="43.6864" gradientUnits="userSpaceOnUse">
<stop stop-color="#017AFF" stop-opacity="0"/>
<stop offset="1" stop-color="#017AFF"/>
</linearGradient>
<linearGradient id="paint2_linear_2476_66894" x1="19.1845" y1="13.4834" x2="15.5835" y2="33.2423" gradientUnits="userSpaceOnUse">
<stop stop-color="#3D9AFF"/>
<stop offset="0.91199" stop-color="#3D9AFF"/>
</linearGradient>
</defs>
</svg>
