<svg width="54" height="53" viewBox="0 0 54 53" fill="none" xmlns="http://www.w3.org/2000/svg">
<path d="M20.6157 49.2112L4.15992 39.6032C2.91287 38.8751 2.90762 37.0749 4.1504 36.3396L22.1416 25.6939C25.6556 23.6147 30.0378 23.677 33.4911 25.8555L49.0064 35.6428C50.2017 36.3969 50.1791 38.1474 48.9647 38.8703L31.6706 49.1645C28.2684 51.1897 24.0349 51.2076 20.6157 49.2112Z" stroke="#017AFF" stroke-width="0.552083"/>
<path d="M23.1609 47.9632L7.40184 38.768C6.71302 38.3661 6.71012 37.3718 7.39658 36.9659L24.4636 26.8737C26.4029 25.7269 28.8207 25.7613 30.7265 26.9628L45.6902 36.3961C46.3504 36.8123 46.3379 37.7792 45.6671 38.1782L29.2612 47.9375C27.3836 49.0544 25.0478 49.0642 23.1609 47.9632Z" fill="#017AFF"/>
<path fill-rule="evenodd" clip-rule="evenodd" d="M11.2278 38.2041L23.2482 45.1083C25.117 46.1817 27.4175 46.172 29.2773 45.083L41.842 37.7255C42.1749 37.5306 42.3476 37.1965 42.3585 36.8576L42.3597 36.8576V34.6334L39.8205 34.667L30.4849 28.8737C28.5962 27.7016 26.2147 27.6679 24.2936 28.7862L13.5944 35.0141L10.7012 35.0524V37.3136L10.7034 37.3135C10.7085 37.661 10.8834 38.0063 11.2278 38.2041Z" fill="#9CBDEE"/>
<path d="M23.2477 42.8998L11.2273 35.9956C10.5303 35.5953 10.5274 34.5907 11.2221 34.1863L24.2932 26.5777C26.2142 25.4595 28.5957 25.4931 30.4844 26.6652L41.8645 33.7273C42.5332 34.1422 42.5206 35.1194 41.8416 35.517L29.2768 42.8746C27.4171 43.9636 25.1165 43.9732 23.2477 42.8998Z" fill="#ECF4FF"/>
<ellipse opacity="0.4" cx="25.7148" cy="32.2674" rx="7.54816" ry="5.31222" transform="rotate(30 25.7148 32.2674)" fill="url(#paint0_radial_2476_66946)"/>
<path opacity="0.2" d="M11.1987 36.001L23.2191 42.9052C25.0879 43.9786 27.3884 43.9689 29.2482 42.8799L41.8129 35.5224C42.1458 35.3275 42.3185 34.9934 42.3294 34.6545L42.3304 34.6545V32.4303V6.8189L10.6743 6.8188L10.6719 32.8493V35.1105L10.6743 35.1105C10.6794 35.458 10.8543 35.8032 11.1987 36.001Z" fill="url(#paint1_linear_2476_66946)"/>
<circle cx="36.5462" cy="33.7869" r="0.552083" fill="#017AFF"/>
<circle cx="16.6712" cy="33.2347" r="0.552083" fill="#017AFF"/>
<circle cx="16.6712" cy="23.2972" r="0.552083" fill="#017AFF"/>
<circle cx="20.5345" cy="17.2244" r="0.552083" fill="#017AFF"/>
<circle cx="17.222" cy="16.6722" r="0.552083" fill="#017AFF"/>
<circle cx="22.7435" cy="11.1514" r="0.552083" fill="#017AFF"/>
<circle cx="32.681" cy="11.7035" r="0.552083" fill="#017AFF"/>
<circle cx="39.8587" cy="24.9535" r="0.552083" fill="#017AFF"/>
<circle cx="39.0299" cy="30.1984" r="0.276042" fill="#017AFF"/>
<circle cx="20.2585" cy="21.9172" r="0.276042" fill="#017AFF"/>
<circle cx="27.4362" cy="7.56291" r="0.276042" fill="#017AFF"/>
<circle cx="19.1549" cy="9.21916" r="0.276042" fill="#017AFF"/>
<circle cx="35.1647" cy="12.5317" r="0.276042" fill="#017AFF"/>
<circle cx="39.0299" cy="20.8129" r="0.276042" fill="#017AFF"/>
<circle cx="14.1862" cy="26.3337" r="0.276042" fill="#017AFF"/>
<circle cx="19.1549" cy="35.7192" r="0.276042" fill="#017AFF"/>
<path fill-rule="evenodd" clip-rule="evenodd" d="M18.4998 28.0713L25.514 32.5719C25.9635 32.8359 26.5198 32.8402 26.9733 32.583L34.369 28.0969C34.4871 28.0299 34.5487 27.9134 34.5536 27.7948L34.5713 27.7849V25.09L32.4327 23.9035L27.183 19.6206C26.7298 19.3576 26.1704 19.3576 25.7173 19.6207L19.4625 23.2524L18.295 24.8468V27.7849L18.3224 27.8006C18.335 27.9073 18.3942 28.0092 18.4998 28.0713Z" fill="url(#paint2_linear_2476_66946)"/>
<path d="M25.6084 29.8722L14.8741 23.5665C14.665 23.4436 14.6657 23.141 14.8755 23.0192L25.8147 16.6676C26.2082 16.4391 26.694 16.4391 27.0875 16.6675L38.0204 23.0137C38.232 23.1365 38.2304 23.4427 38.0176 23.5634L26.8756 29.8818C26.4818 30.1052 25.9988 30.1015 25.6084 29.8722Z" fill="url(#paint3_linear_2476_66946)"/>
<path d="M32.2813 28.4173L32.2813 26.8159L26.3223 22.7395" stroke="#EBF4FF" stroke-width="0.552083" stroke-linecap="round"/>
<circle cx="32.2821" cy="29.143" r="0.72549" fill="#EBF4FF"/>
<path d="M31.4219 32.3623L32.021 29.6863H32.6201L33.1394 32.3623H31.4219Z" fill="#EBF4FF"/>
<defs>
<radialGradient id="paint0_radial_2476_66946" cx="0" cy="0" r="1" gradientUnits="userSpaceOnUse" gradientTransform="translate(25.7148 32.2674) rotate(90) scale(5.31222 7.54816)">
<stop stop-color="#5DABFF"/>
<stop offset="1" stop-color="#60ACFF" stop-opacity="0"/>
</radialGradient>
<linearGradient id="paint1_linear_2476_66946" x1="26.5012" y1="6.81885" x2="26.5012" y2="43.7035" gradientUnits="userSpaceOnUse">
<stop stop-color="#017AFF" stop-opacity="0"/>
<stop offset="1" stop-color="#017AFF"/>
</linearGradient>
<linearGradient id="paint2_linear_2476_66946" x1="17.0771" y1="26.8347" x2="37.8682" y2="28.0876" gradientUnits="userSpaceOnUse">
<stop stop-color="#3C99FF"/>
<stop offset="0.424133" stop-color="#8EC4FF"/>
<stop offset="1" stop-color="#64AEFF"/>
</linearGradient>
<linearGradient id="paint3_linear_2476_66946" x1="19.7025" y1="20.539" x2="36.8465" y2="23.6292" gradientUnits="userSpaceOnUse">
<stop stop-color="#57A7FF"/>
<stop offset="1" stop-color="#ACD4FF"/>
</linearGradient>
</defs>
</svg>
