<svg width="96" height="96" viewBox="0 0 96 96" fill="none" xmlns="http://www.w3.org/2000/svg">
<path d="M41.8407 91.7618L5.28199 70.4164C4.03494 69.6883 4.02969 67.8881 5.27247 67.1528L44.753 43.7916C48.267 41.7123 52.6492 41.7747 56.1026 43.9532L90.8889 65.8971C92.0842 66.6511 92.0616 68.4017 90.8472 69.1245L52.8956 91.7151C49.4934 93.7403 45.2599 93.7581 41.8407 91.7618Z" stroke="#017AFF"/>
<path d="M41.954 86.8766L13.4093 70.2212C12.1616 69.4932 12.1563 67.6922 13.3997 66.957L44.3136 48.6767C47.8263 46.5995 52.2057 46.6619 55.6578 48.8381L82.7617 65.9247C83.9577 66.6787 83.935 68.43 82.72 69.1528L53.0035 86.83C49.6027 88.853 45.3718 88.8709 41.954 86.8766Z" fill="#017AFF"/>
<path fill-rule="evenodd" clip-rule="evenodd" d="M20.34 69.1992L42.1128 81.7049C45.4978 83.6492 49.6648 83.6317 53.0334 81.6592L75.7922 68.3323C76.3951 67.9793 76.7079 67.3741 76.7276 66.7603L76.7295 66.7602V62.7316L72.1306 62.7925L55.2207 52.2988C51.7997 50.1758 47.4861 50.1149 44.0064 52.1404L24.6267 63.4212L19.3857 63.4905V67.5862L19.3901 67.5862C19.3994 68.2156 19.7162 68.841 20.34 69.1992Z" fill="#3796FF"/>
<path d="M42.1124 77.705L20.3396 65.1993C19.077 64.4741 19.0718 62.6545 20.3301 61.922L44.0061 48.1405C47.4857 46.115 51.7993 46.1759 55.2204 48.2989L75.8334 61.0906C77.0446 61.8422 77.0219 63.6122 75.7918 64.3324L53.0331 77.6593C49.6645 79.6318 45.4974 79.6493 42.1124 77.705Z" fill="white"/>
<path opacity="0.2" d="M20.339 65.1295L42.1118 77.6352C45.4968 79.5794 49.6638 79.562 53.0324 77.5894L75.7912 64.2626C76.3941 63.9096 76.7069 63.3044 76.7266 62.6906L76.7286 62.6905V58.6619V12.2713L19.3891 12.2712L19.3848 59.4208V63.5165L19.3891 63.5164C19.3984 64.1459 19.7153 64.7712 20.339 65.1295Z" fill="url(#paint0_linear_3401_56246)"/>
<g class="icon_animate_snow_6">
<circle cx="64.5557" cy="61.1985" r="1" fill="#017AFF"/>
<circle cx="28.5557" cy="60.1985" r="1" fill="#017AFF"/>
<circle cx="28.5557" cy="42.1985" r="1" fill="#017AFF"/>
<circle cx="35.5557" cy="31.1985" r="1" fill="#017AFF"/>
<circle cx="29.5557" cy="30.1985" r="1" fill="#017AFF"/>
<circle cx="39.5557" cy="20.1985" r="1" fill="#017AFF"/>
<circle cx="57.5557" cy="21.1985" r="1" fill="#017AFF"/>
<circle cx="70.5557" cy="45.1985" r="1" fill="#017AFF"/>
<circle cx="69.0557" cy="54.6985" r="0.5" fill="#017AFF"/>
<circle cx="35.0557" cy="39.6985" r="0.5" fill="#017AFF"/>
<circle cx="48.0557" cy="13.6985" r="0.5" fill="#017AFF"/>
<circle cx="33.0557" cy="16.6985" r="0.5" fill="#017AFF"/>
<circle cx="62.0557" cy="22.6985" r="0.5" fill="#017AFF"/>
<circle cx="69.0557" cy="37.6985" r="0.5" fill="#017AFF"/>
<circle cx="24.0557" cy="47.6985" r="0.5" fill="#017AFF"/>
<circle cx="33.0557" cy="64.6985" r="0.5" fill="#017AFF"/>
</g>
<g class="icon_animate_6">
<path fill-rule="evenodd" clip-rule="evenodd" d="M49.2814 10.0616L49.2738 10.0662C49.218 10.076 49.1706 10.1045 49.1354 10.1496L47.2636 11.277L47.7016 16.8829V16.9733L47.1753 15.915L45.7246 16.587L46.1305 17.9692C42.8048 17.8193 40.3667 20.7092 40.0091 25.6549L39.0535 25.1032V25.1032L38.1433 24.5777V24.5824L38.1371 24.574L36.176 25.7797C36.6401 27.1849 37.3882 29.2841 37.8826 30.6713L37.8826 30.6715C38.1776 31.4993 38.3822 32.0735 38.3822 32.0953L38.3831 32.1374C38.3908 32.487 38.4442 34.9055 38.2797 36.7446L35.4123 35.0891V35.1054L33.4365 36.2965L33.8284 36.7422L36.3225 44.3723V49.2797L36.5672 49.421L36.6192 51.7986L38.598 50.5948L38.5979 50.5934L38.5985 50.5938L38.5985 43.2375L40.8743 44.5515V51.9077L42.8924 53.0728L42.9928 55.4633L44.9732 54.2777L44.973 54.274L49.1879 56.7076L49.3565 59.1507L51.3415 57.9509L55.7 60.4673L55.7263 62.8251L57.7046 61.6246L60.5636 63.2753L60.7388 65.7144L62.7194 64.527L62.7189 64.5197L62.7218 64.5213V54.9957L63.6252 54.5313L63.6323 54.5354V51.3819L59.9909 49.2796V41.3189L60.8994 40.8694L60.9013 40.8705V40.8685L60.9102 40.8641L60.9013 40.8301V37.717L59.9909 37.1914V37.1914L59.0351 36.6395C58.6233 30.4679 55.4516 23.8365 51.3428 20.3532V17.4824L49.9773 16.694L49.9773 10.9129C49.9773 10.6226 49.7735 10.2697 49.5221 10.1245C49.4339 10.0736 49.3514 10.055 49.2817 10.065L49.2814 10.0616ZM47.2465 55.5865L44.9729 54.2738L44.9707 54.2344L44.9707 47.4987L46.9867 48.0784L47.2465 48.2284L47.2465 55.5865ZM51.3431 57.9515V57.95L51.3434 57.9498L51.3431 57.9439V51.3389L53.1493 51.6363L53.6189 51.9074V59.2655L51.3431 57.9515ZM57.7153 61.6306V54.2725L59.9911 55.5865V62.9445L57.7153 61.6306ZM43.1497 33.2503L40.8739 31.9363V38.2432L43.1497 39.5572V33.2503ZM48.1567 36.1402L50.4325 37.4542V43.7611L48.1567 42.4471V36.1402ZM57.7151 41.6588L55.4393 40.3449V46.6518L57.7151 47.9657V41.6588Z" fill="#3D8AFF"/>
<path fill-rule="evenodd" clip-rule="evenodd" d="M48.0103 12.1211C48.0103 11.8308 47.8065 11.4778 47.5551 11.3327C47.3038 11.1876 47.1 11.3052 47.1 11.5955L47.1 17.3768L45.7346 16.5885L45.7346 19.4591C41.6258 18.198 38.4541 21.1672 38.0423 26.8634L37.0866 26.3116L37.0866 26.3116L36.1763 25.7861L36.1763 28.9395L37.0866 29.465L37.0865 38.3998L33.4453 36.2975L33.4453 39.451L34.3555 39.9764L34.3555 50.4881L60.7548 65.7297L60.7548 55.2181L61.6653 55.7438L61.6653 52.5903L58.0239 50.488L58.0239 41.5533L58.9343 42.0789L58.9343 38.9254L58.0239 38.3998L58.0239 38.3998L57.0683 37.8481C56.6565 31.6763 53.4847 25.0446 49.3758 21.5614L49.3758 18.6908L48.0103 17.9024L48.0103 12.1211ZM48.4656 44.9695L48.4656 38.6626L46.1898 37.3487L46.1898 43.6555L46.1898 43.6556L48.4656 44.9695L48.4656 44.9695ZM38.9073 33.144L41.1831 34.458L41.1831 40.7649L38.9073 39.4509L38.9073 33.144ZM53.4724 41.5532L55.7482 42.8672L55.7482 49.174L53.4724 47.8601L53.4724 41.5532Z" fill="url(#paint1_linear_3401_56246)"/>
<ellipse opacity="0.4" cx="46.6359" cy="60.9187" rx="18.2846" ry="4.39427" transform="rotate(30 46.6359 60.9187)" fill="url(#paint2_radial_3401_56246)"/>
</g>
<defs>
<linearGradient id="paint0_linear_3401_56246" x1="48.0567" y1="12.2712" x2="48.0567" y2="79.0812" gradientUnits="userSpaceOnUse">
<stop stop-color="#017AFF" stop-opacity="0"/>
<stop offset="1" stop-color="#017AFF"/>
</linearGradient>
<linearGradient id="paint1_linear_3401_56246" x1="33.4453" y1="16.0845" x2="63.38" y2="52.6287" gradientUnits="userSpaceOnUse">
<stop stop-color="#3C99FF"/>
<stop offset="1" stop-color="#87C0FF"/>
</linearGradient>
<radialGradient id="paint2_radial_3401_56246" cx="0" cy="0" r="1" gradientUnits="userSpaceOnUse" gradientTransform="translate(46.6359 60.9187) rotate(90) scale(4.39427 18.2846)">
<stop stop-color="#5DABFF"/>
<stop offset="1" stop-color="#60ACFF" stop-opacity="0"/>
</radialGradient>
</defs>
</svg>
