<svg width="50" height="53" viewBox="0 0 50 53" fill="none" xmlns="http://www.w3.org/2000/svg">
<g clip-path="url(#clip0_2476_66855)">
<path d="M21.7188 50.6601L1.53535 38.8757C0.846877 38.4737 0.843977 37.4799 1.5301 37.0739L23.3267 24.1766C25.2667 23.0286 27.686 23.0631 29.5925 24.2658L48.7975 36.3807C49.4574 36.7969 49.4449 37.7634 48.7744 38.1625L27.822 50.6344C25.9437 51.7524 23.6065 51.7623 21.7188 50.6601Z" stroke="#017AFF" stroke-width="0.552083"/>
<g opacity="0.7">
<path d="M9.84713 36.0474L21.8675 42.9516C23.7363 44.025 26.0369 44.0153 27.8966 42.9263L40.4614 35.5688C40.7942 35.3739 40.9669 35.0398 40.9778 34.7009L40.9789 34.7009V32.4767V6.86528L9.32272 6.86519L9.32031 32.8957V35.1569L9.32272 35.1569C9.32783 35.5044 9.50277 35.8496 9.84713 36.0474Z" fill="url(#paint0_linear_2476_66855)"/>
<path d="M9.84713 36.0474L21.8675 42.9516C23.7363 44.025 26.0369 44.0153 27.8966 42.9263L40.4614 35.5688C40.7942 35.3739 40.9669 35.0398 40.9778 34.7009L40.9789 34.7009V32.4767V6.86528L9.32272 6.86519L9.32031 32.8957V35.1569L9.32272 35.1569C9.32783 35.5044 9.50277 35.8496 9.84713 36.0474Z" fill="url(#paint1_linear_2476_66855)"/>
</g>
<path opacity="0.7" d="M21.8777 48.1312L6.11863 38.936C5.42982 38.5341 5.42692 37.5398 6.11338 37.1339L23.1804 27.0416C25.1197 25.8949 27.5375 25.9293 29.4433 27.1308L44.407 36.564C45.0672 36.9803 45.0547 37.9471 44.3839 38.3462L27.978 48.1054C26.1004 49.2223 23.7646 49.2322 21.8777 48.1312Z" fill="#017AFF"/>
<path fill-rule="evenodd" clip-rule="evenodd" d="M9.84646 38.2019L21.8669 45.1061C23.7357 46.1795 26.0362 46.1698 27.896 45.0808L40.4607 37.7233C40.7937 37.5283 40.9664 37.194 40.9771 36.855L40.9789 36.855V34.6308L38.4386 34.6644L29.1035 28.8715C27.2148 27.6994 24.8334 27.6658 22.9123 28.784L12.2138 35.0115L9.32031 35.0498V37.311L9.32204 37.3109C9.32703 37.6586 9.50197 38.004 9.84646 38.2019Z" fill="#5FABFF"/>
<path d="M21.8688 42.8991L9.84842 35.9949C9.15137 35.5945 9.14847 34.59 9.84318 34.1856L22.9143 26.577C24.8353 25.4588 27.2168 25.4924 29.1055 26.6645L40.4856 33.7266C41.1543 34.1415 41.1417 35.1187 40.4627 35.5163L27.8979 42.8738C26.0382 43.9628 23.7376 43.9725 21.8688 42.8991Z" fill="#C2DEFF"/>
<circle cx="33.4837" cy="33.9486" r="0.552083" fill="#017AFF"/>
<circle cx="13.6087" cy="33.3978" r="0.552083" fill="#017AFF"/>
<circle cx="13.6087" cy="23.4603" r="0.552083" fill="#017AFF"/>
<circle cx="17.472" cy="17.3861" r="0.552083" fill="#017AFF"/>
<circle cx="14.1595" cy="16.8353" r="0.552083" fill="#017AFF"/>
<circle cx="19.681" cy="11.3138" r="0.552083" fill="#017AFF"/>
<circle cx="29.6185" cy="11.8665" r="0.552083" fill="#017AFF"/>
<circle cx="36.7962" cy="25.1165" r="0.552083" fill="#017AFF"/>
<circle cx="35.9674" cy="30.36" r="0.276042" fill="#017AFF"/>
<circle cx="17.196" cy="22.0788" r="0.276042" fill="#017AFF"/>
<circle cx="24.3737" cy="7.72526" r="0.276042" fill="#017AFF"/>
<circle cx="16.0924" cy="9.38151" r="0.276042" fill="#017AFF"/>
<circle cx="32.1022" cy="12.694" r="0.276042" fill="#017AFF"/>
<circle cx="35.9674" cy="20.9753" r="0.276042" fill="#017AFF"/>
<circle cx="11.1237" cy="26.4967" r="0.276042" fill="#017AFF"/>
<circle cx="16.0924" cy="35.8815" r="0.276042" fill="#017AFF"/>
<path d="M22.5504 24.3304C22.5504 24.1375 22.8196 23.9805 23.156 23.9805C23.4925 23.9805 23.7617 24.1375 23.7617 24.3304V24.7252C23.7617 24.9226 23.488 25.0752 23.156 25.0752C22.824 25.0752 22.5504 24.9226 22.5504 24.7252V24.3304Z" fill="url(#paint2_linear_2476_66855)"/>
<path d="M23.7617 24.3304C23.7617 24.5233 23.488 24.6804 23.156 24.6804C22.824 24.6804 22.5504 24.5233 22.5504 24.3304C22.5504 24.1375 22.8196 23.9805 23.156 23.9805C23.4925 23.9805 23.7617 24.124 23.7617 24.3304Z" fill="white"/>
<path d="M28.082 26.5848L23.0168 23.6641L22.0253 24.2383L27.086 27.1635L28.082 26.5848Z" fill="#B3B3B3"/>
<g filter="url(#filter0_d_2476_66855)">
<path d="M28.0731 29.6829C28.0528 30.306 27.872 30.9133 27.5481 31.4461C27.2479 31.9951 26.8124 32.4584 26.283 32.792L23.5911 34.3443L18.5304 31.4236V30.2751L21.2222 28.7228C21.4556 28.5733 21.6483 28.3683 21.783 28.1261C21.9275 27.8874 22.0079 27.6154 22.0163 27.3365V24.2363L27.086 27.1615L28.082 26.5738L28.0731 29.6829Z" fill="url(#paint3_linear_2476_66855)"/>
</g>
<path d="M27.5493 31.4473C27.8732 30.9146 28.054 30.3072 28.0742 29.6841V26.584L27.0782 27.1627V30.2584C27.0678 30.5356 26.9876 30.8056 26.8449 31.0435C26.7114 31.2854 26.5184 31.4892 26.2841 31.6357L23.5922 33.188V34.3366L26.2841 32.7843C26.8125 32.4532 27.2478 31.9931 27.5493 31.4473Z" fill="#3D8AFF"/>
<path d="M23.6094 33.1883L18.5442 30.2676V31.4161L23.6049 34.3368L23.6094 33.1883Z" fill="#609EFF"/>
<path d="M15.676 7.30975L34.5192 18.1849C34.6966 18.3003 34.8443 18.4559 34.9503 18.6391C35.0564 18.8223 35.1177 19.0279 35.1293 19.2392V31.7251C35.1355 31.7992 35.1231 31.8736 35.0934 31.9417C35.0636 32.0099 35.0174 32.0695 34.9588 32.1154L33.9494 32.6986L15.676 21.1909C15.4994 21.075 15.3526 20.9191 15.2474 20.736C15.1421 20.5528 15.0815 20.3475 15.0704 20.1365L14.2493 7.83467L15.2453 7.28283C15.3136 7.25075 15.3889 7.2364 15.4641 7.24111C15.5394 7.24581 15.6123 7.26942 15.676 7.30975Z" fill="#3D8AFF"/>
<path d="M14.6756 7.88914L33.5187 18.7643C33.6962 18.8797 33.8439 19.0353 33.9499 19.2185C34.0559 19.4017 34.1173 19.6073 34.1289 19.8186V32.3044C34.1289 32.6948 33.8597 32.8518 33.5232 32.6544L14.6801 21.7792C14.5042 21.6661 14.357 21.5135 14.2503 21.3336C14.1436 21.1538 14.0803 20.9515 14.0655 20.7428V8.23909C14.0655 7.85325 14.3391 7.69623 14.6756 7.88914Z" fill="url(#paint4_linear_2476_66855)"/>
<path d="M33.3164 31.6177V19.5805L14.8681 8.92969V20.9669L33.3164 31.6177Z" fill="#88C0FF"/>
</g>
<defs>
<filter id="filter0_d_2476_66855" x="11.3542" y="20.9238" width="23.9049" height="24.4621" filterUnits="userSpaceOnUse" color-interpolation-filters="sRGB">
<feFlood flood-opacity="0" result="BackgroundImageFix"/>
<feColorMatrix in="SourceAlpha" type="matrix" values="0 0 0 0 0 0 0 0 0 0 0 0 0 0 0 0 0 0 127 0" result="hardAlpha"/>
<feOffset dy="3.86458"/>
<feGaussianBlur stdDeviation="3.58854"/>
<feComposite in2="hardAlpha" operator="out"/>
<feColorMatrix type="matrix" values="0 0 0 0 0.00392157 0 0 0 0 0.478431 0 0 0 0 1 0 0 0 0.42 0"/>
<feBlend mode="normal" in2="BackgroundImageFix" result="effect1_dropShadow_2476_66855"/>
<feBlend mode="normal" in="SourceGraphic" in2="effect1_dropShadow_2476_66855" result="shape"/>
</filter>
<linearGradient id="paint0_linear_2476_66855" x1="25.1496" y1="6.86523" x2="25.1496" y2="43.7499" gradientUnits="userSpaceOnUse">
<stop stop-color="white" stop-opacity="0"/>
<stop offset="1" stop-color="white" stop-opacity="0.67"/>
</linearGradient>
<linearGradient id="paint1_linear_2476_66855" x1="25.1496" y1="6.86523" x2="25.1496" y2="43.7499" gradientUnits="userSpaceOnUse">
<stop stop-color="#017AFF" stop-opacity="0"/>
<stop offset="1" stop-color="#017AFF"/>
</linearGradient>
<linearGradient id="paint2_linear_2476_66855" x1="-42.2081" y1="286.259" x2="-42.2081" y2="288.831" gradientUnits="userSpaceOnUse">
<stop stop-color="#BECEFA"/>
<stop offset="0.5" stop-color="#D3E2FD"/>
<stop offset="1" stop-color="#E4F1FF"/>
</linearGradient>
<linearGradient id="paint3_linear_2476_66855" x1="28.082" y1="26.6738" x2="22.0676" y2="35.0956" gradientUnits="userSpaceOnUse">
<stop stop-color="#3D9AFF"/>
<stop offset="1" stop-color="#88C0FF"/>
</linearGradient>
<linearGradient id="paint4_linear_2476_66855" x1="34.1289" y1="13.8191" x2="18.6844" y2="32.2352" gradientUnits="userSpaceOnUse">
<stop stop-color="#3D9AFF"/>
<stop offset="1" stop-color="#88C0FF"/>
</linearGradient>
<clipPath id="clip0_2476_66855">
<rect width="50" height="53" fill="white"/>
</clipPath>
</defs>
</svg>
