<svg width="52" height="53" viewBox="0 0 52 53" fill="none" xmlns="http://www.w3.org/2000/svg">
<g opacity="0.7">
<path d="M11.228 35.9576L23.2484 42.8617C25.1172 43.9351 27.4177 43.9255 29.2775 42.8365L41.8422 35.479C42.1751 35.2841 42.3478 34.95 42.3587 34.6111L42.3597 34.611V32.3869V6.77544L10.7036 6.77534L10.7012 32.8059V35.067L10.7036 35.067C10.7087 35.4145 10.8836 35.7598 11.228 35.9576Z" fill="url(#paint0_linear_2476_66900)"/>
<path d="M11.228 35.9576L23.2484 42.8617C25.1172 43.9351 27.4177 43.9255 29.2775 42.8365L41.8422 35.479C42.1751 35.2841 42.3478 34.95 42.3587 34.6111L42.3597 34.611V32.3869V6.77544L10.7036 6.77534L10.7012 32.8059V35.067L10.7036 35.067C10.7087 35.4145 10.8836 35.7598 11.228 35.9576Z" fill="url(#paint1_linear_2476_66900)"/>
</g>
<path d="M23.0977 50.6601L2.91426 38.8757C2.22578 38.4737 2.22288 37.4799 2.909 37.0739L24.7056 24.1766C26.6456 23.0286 29.0649 23.0631 30.9714 24.2658L50.1764 36.3807C50.8363 36.7969 50.8238 37.7634 50.1534 38.1625L29.2009 50.6344C27.3227 51.7524 24.9854 51.7623 23.0977 50.6601Z" stroke="#017AFF" stroke-width="0.552083"/>
<path opacity="0.7" d="M23.1609 47.9632L7.40184 38.768C6.71302 38.3661 6.71012 37.3718 7.39658 36.9659L24.4636 26.8737C26.4029 25.7269 28.8207 25.7613 30.7265 26.9628L45.6902 36.3961C46.3504 36.8123 46.3379 37.7792 45.6671 38.1782L29.2612 47.9375C27.3836 49.0544 25.0478 49.0642 23.1609 47.9632Z" fill="#017AFF"/>
<path fill-rule="evenodd" clip-rule="evenodd" d="M11.2273 38.2019L23.2477 45.1061C25.1165 46.1795 27.4171 46.1698 29.2768 45.0808L41.8416 37.7233C42.1745 37.5283 42.3472 37.194 42.358 36.855L42.3597 36.855V34.6308L39.8194 34.6644L30.4844 28.8715C28.5957 27.6994 26.2142 27.6658 24.2932 28.784L13.5947 35.0115L10.7012 35.0498V37.311L10.7029 37.3109C10.7079 37.6586 10.8828 38.004 11.2273 38.2019Z" fill="#3796FF"/>
<path d="M23.2477 42.8991L11.2273 35.9949C10.5303 35.5945 10.5274 34.59 11.2221 34.1856L24.2932 26.577C26.2142 25.4588 28.5957 25.4924 30.4844 26.6645L41.8645 33.7266C42.5332 34.1415 42.5206 35.1187 41.8416 35.5163L29.2768 42.8738C27.4171 43.9628 25.1165 43.9725 23.2477 42.8991Z" fill="#C2DEFF"/>
<path fill-rule="evenodd" clip-rule="evenodd" d="M36.3887 29.8908C36.4307 30.0252 36.3818 30.1834 36.2427 30.2623L26.7905 35.6225C26.3967 35.8458 25.9136 35.8422 25.5233 35.6128L16.42 30.2653C16.2883 30.1879 16.2399 30.0392 16.2745 29.9093V20.1914L36.3887 20.3774V29.8908Z" fill="url(#paint2_linear_2476_66900)"/>
<path d="M25.5252 25.8912L16.4112 20.5373C16.2021 20.4145 16.2028 20.1119 16.4126 19.9901L25.7026 14.596C26.096 14.3676 26.5818 14.3675 26.9753 14.596L36.2586 19.9846C36.4702 20.1075 36.4687 20.4136 36.2558 20.5343L26.7924 25.9009C26.3986 26.1242 25.9156 26.1205 25.5252 25.8912Z" fill="url(#paint3_linear_2476_66900)"/>
<path d="M35.1523 27.377V29.7453" stroke="#A9D2FF" stroke-width="0.552083" stroke-linecap="round"/>
<path d="M34.2695 27.9512V30.3196" stroke="#A9D2FF" stroke-width="0.552083" stroke-linecap="round"/>
<path d="M19.5977 25.152V22.4141L22.1368 23.8705V26.6652L19.5977 25.152Z" fill="#A9D2FF"/>
<path d="M29.8593 16.291L19.5977 22.424L22.1301 23.9002L32.2356 17.6592L29.8593 16.291Z" fill="#A9D2FF"/>
<circle cx="34.7298" cy="33.9505" r="0.552083" fill="#017AFF"/>
<circle cx="14.8548" cy="33.3997" r="0.552083" fill="#017AFF"/>
<circle cx="14.8548" cy="23.4622" r="0.552083" fill="#017AFF"/>
<circle cx="18.7181" cy="17.388" r="0.552083" fill="#017AFF"/>
<circle cx="15.4056" cy="16.8372" r="0.552083" fill="#017AFF"/>
<circle cx="20.9271" cy="11.3158" r="0.552083" fill="#017AFF"/>
<circle cx="30.8646" cy="11.8685" r="0.552083" fill="#017AFF"/>
<circle cx="38.0423" cy="25.1185" r="0.552083" fill="#017AFF"/>
<circle cx="37.2135" cy="30.362" r="0.276042" fill="#017AFF"/>
<circle cx="18.4421" cy="22.0807" r="0.276042" fill="#017AFF"/>
<circle cx="25.6198" cy="7.72721" r="0.276042" fill="#017AFF"/>
<circle cx="17.3385" cy="9.38346" r="0.276042" fill="#017AFF"/>
<circle cx="33.3483" cy="12.696" r="0.276042" fill="#017AFF"/>
<circle cx="37.2135" cy="20.9772" r="0.276042" fill="#017AFF"/>
<circle cx="12.3698" cy="26.4987" r="0.276042" fill="#017AFF"/>
<circle cx="17.3385" cy="35.8835" r="0.276042" fill="#017AFF"/>
<defs>
<linearGradient id="paint0_linear_2476_66900" x1="26.5305" y1="6.77539" x2="26.5305" y2="43.66" gradientUnits="userSpaceOnUse">
<stop stop-color="white" stop-opacity="0"/>
<stop offset="1" stop-color="white" stop-opacity="0.67"/>
</linearGradient>
<linearGradient id="paint1_linear_2476_66900" x1="26.5305" y1="6.77539" x2="26.5305" y2="43.6601" gradientUnits="userSpaceOnUse">
<stop stop-color="#017AFF" stop-opacity="0"/>
<stop offset="1" stop-color="#017AFF"/>
</linearGradient>
<linearGradient id="paint2_linear_2476_66900" x1="18.197" y1="23.3392" x2="36.2515" y2="24.4272" gradientUnits="userSpaceOnUse">
<stop stop-color="#3C99FF"/>
<stop offset="0.424133" stop-color="#8EC4FF"/>
<stop offset="1" stop-color="#64AEFF"/>
</linearGradient>
<linearGradient id="paint3_linear_2476_66900" x1="20.5144" y1="17.8867" x2="35.3109" y2="20.5538" gradientUnits="userSpaceOnUse">
<stop stop-color="#57A7FF"/>
<stop offset="1" stop-color="#ACD4FF"/>
</linearGradient>
</defs>
</svg>
