<svg width="53" height="53" viewBox="0 0 53 53" fill="none" xmlns="http://www.w3.org/2000/svg">
<path d="M20.6157 49.211L4.15992 39.603C2.91287 38.8749 2.90762 37.0747 4.1504 36.3393L22.1416 25.6937C25.6556 23.6144 30.0378 23.6768 33.4911 25.8553L49.0064 35.6426C50.2017 36.3966 50.1791 38.1472 48.9647 38.87L31.6706 49.1643C28.2684 51.1894 24.0349 51.2073 20.6157 49.211Z" stroke="#017AFF" stroke-width="0.552083"/>
<path d="M23.1609 47.963L7.40184 38.7678C6.71302 38.3659 6.71012 37.3716 7.39658 36.9657L24.4636 26.8734C26.4029 25.7267 28.8207 25.7611 30.7265 26.9626L45.6902 36.3958C46.3504 36.812 46.3379 37.7789 45.6671 38.1779L29.2612 47.9372C27.3836 49.0541 25.0478 49.064 23.1609 47.963Z" fill="#017AFF"/>
<path fill-rule="evenodd" clip-rule="evenodd" d="M11.2278 38.2038L23.2482 45.108C25.117 46.1814 27.4175 46.1718 29.2773 45.0828L41.842 37.7252C42.1749 37.5303 42.3476 37.1962 42.3585 36.8573L42.3597 36.8573V34.6332L39.8205 34.6668L30.4849 28.8734C28.5962 27.7014 26.2147 27.6677 24.2936 28.7859L13.5944 35.0139L10.7012 35.0522V37.3133L10.7034 37.3133C10.7085 37.6608 10.8834 38.006 11.2278 38.2038Z" fill="#9CBDEE"/>
<path d="M23.2477 42.8996L11.2273 35.9954C10.5303 35.595 10.5274 34.5905 11.2221 34.1861L24.2932 26.5775C26.2142 25.4593 28.5957 25.4929 30.4844 26.665L41.8645 33.7271C42.5332 34.142 42.5206 35.1191 41.8416 35.5168L29.2768 42.8743C27.4171 43.9633 25.1165 43.973 23.2477 42.8996Z" fill="#ECF4FF"/>
<ellipse opacity="0.67" cx="27.6227" cy="32.9573" rx="10.0737" ry="2.17923" transform="rotate(30 27.6227 32.9573)" fill="url(#paint0_radial_2476_66940)"/>
<path opacity="0.2" d="M11.2299 36.0154L23.2504 42.9196C25.1192 43.993 27.4197 43.9833 29.2794 42.8943L41.8442 35.5368C42.177 35.3419 42.3497 35.0078 42.3606 34.6689L42.3617 34.6689V32.4447V6.8333L10.7055 6.8332L10.7031 32.8637V35.1249L10.7055 35.1249C10.7106 35.4724 10.8856 35.8176 11.2299 36.0154Z" fill="url(#paint1_linear_2476_66940)"/>
<circle cx="36.5423" cy="33.7867" r="0.552083" fill="#017AFF"/>
<circle cx="16.6673" cy="33.2345" r="0.552083" fill="#017AFF"/>
<circle cx="16.6673" cy="23.297" r="0.552083" fill="#017AFF"/>
<circle cx="20.5306" cy="17.2242" r="0.552083" fill="#017AFF"/>
<circle cx="17.2181" cy="16.672" r="0.552083" fill="#017AFF"/>
<circle cx="22.7396" cy="11.1512" r="0.552083" fill="#017AFF"/>
<circle cx="32.6771" cy="11.7032" r="0.552083" fill="#017AFF"/>
<circle cx="39.8548" cy="24.9532" r="0.552083" fill="#017AFF"/>
<circle cx="39.026" cy="30.1982" r="0.276042" fill="#017AFF"/>
<circle cx="20.2546" cy="21.9169" r="0.276042" fill="#017AFF"/>
<circle cx="27.4323" cy="7.56266" r="0.276042" fill="#017AFF"/>
<circle cx="19.151" cy="9.21891" r="0.276042" fill="#017AFF"/>
<circle cx="35.1608" cy="12.5314" r="0.276042" fill="#017AFF"/>
<circle cx="39.026" cy="20.8127" r="0.276042" fill="#017AFF"/>
<circle cx="14.1823" cy="26.3334" r="0.276042" fill="#017AFF"/>
<circle cx="19.151" cy="35.7189" r="0.276042" fill="#017AFF"/>
<path d="M20.1062 13.0613L23.8242 15.2385L22.3514 15.9147L18.6334 13.8381L20.1062 13.0613Z" fill="url(#paint2_linear_2476_66940)"/>
<path d="M18.6295 13.8359L22.3495 15.9219L22.3496 27.4355L18.6296 25.0911L18.6295 13.8359Z" fill="url(#paint3_linear_2476_66940)"/>
<path d="M23.8306 15.2274L22.3496 15.9192V27.4355L23.8306 26.5366V15.2274Z" fill="#3D8AFF"/>
<path d="M26.2507 20.5273L29.9688 22.7046L28.5249 23.3905L24.807 21.314L26.2507 20.5273Z" fill="url(#paint4_linear_2476_66940)"/>
<path d="M24.8213 21.3159L28.5234 23.3896L28.5234 31.0597L24.8214 28.7275L24.8213 21.3159Z" fill="url(#paint5_linear_2476_66940)"/>
<path d="M29.9693 22.6993L28.5234 23.3896V31.0591L29.9693 30.1005V22.6993Z" fill="#3D8AFF"/>
<path d="M32.4441 27.2817L36.1621 29.459L34.7039 30.1421L30.9859 28.0655L32.4441 27.2817Z" fill="url(#paint6_linear_2476_66940)"/>
<path d="M30.9991 28.0701L34.7012 30.1439V34.5309L30.9991 32.1987L30.9991 28.0701Z" fill="url(#paint7_linear_2476_66940)"/>
<path d="M36.1612 29.4541L34.7012 30.1439V34.531L36.1612 33.5827V29.4541Z" fill="#3D8AFF"/>
<defs>
<radialGradient id="paint0_radial_2476_66940" cx="0" cy="0" r="1" gradientUnits="userSpaceOnUse" gradientTransform="translate(27.6227 32.9573) rotate(90) scale(2.17923 10.0737)">
<stop stop-color="#479FFF" stop-opacity="0.36"/>
<stop offset="1" stop-color="#479FFF" stop-opacity="0"/>
</radialGradient>
<linearGradient id="paint1_linear_2476_66940" x1="26.5324" y1="6.83325" x2="26.5324" y2="43.7179" gradientUnits="userSpaceOnUse">
<stop stop-color="#017AFF" stop-opacity="0"/>
<stop offset="1" stop-color="#017AFF"/>
</linearGradient>
<linearGradient id="paint2_linear_2476_66940" x1="24.4348" y1="12.9545" x2="19.1472" y2="13.9188" gradientUnits="userSpaceOnUse">
<stop stop-color="#57A7FF"/>
<stop offset="1" stop-color="#ACD4FF"/>
</linearGradient>
<linearGradient id="paint3_linear_2476_66940" x1="22.3496" y1="17.1154" x2="16.3929" y2="19.5299" gradientUnits="userSpaceOnUse">
<stop stop-color="#3D9AFF"/>
<stop offset="1" stop-color="#88C0FF"/>
</linearGradient>
<linearGradient id="paint4_linear_2476_66940" x1="30.6081" y1="20.4303" x2="25.3205" y2="21.3947" gradientUnits="userSpaceOnUse">
<stop stop-color="#57A7FF"/>
<stop offset="1" stop-color="#ACD4FF"/>
</linearGradient>
<linearGradient id="paint5_linear_2476_66940" x1="28.5234" y1="23.6656" x2="23.2828" y2="26.6161" gradientUnits="userSpaceOnUse">
<stop stop-color="#3D9AFF"/>
<stop offset="1" stop-color="#88C0FF"/>
</linearGradient>
<linearGradient id="paint6_linear_2476_66940" x1="36.7872" y1="27.1822" x2="31.4996" y2="28.1465" gradientUnits="userSpaceOnUse">
<stop stop-color="#57A7FF"/>
<stop offset="1" stop-color="#ACD4FF"/>
</linearGradient>
<linearGradient id="paint7_linear_2476_66940" x1="34.7012" y1="29.6281" x2="30.6907" y2="33.0332" gradientUnits="userSpaceOnUse">
<stop stop-color="#3D9AFF"/>
<stop offset="1" stop-color="#88C0FF"/>
</linearGradient>
</defs>
</svg>
