<svg width="53" height="53" viewBox="0 0 53 53" fill="none" xmlns="http://www.w3.org/2000/svg">
<path d="M20.6157 49.2112L4.15992 39.6032C2.91287 38.8751 2.90762 37.0749 4.1504 36.3396L22.1416 25.6939C25.6556 23.6147 30.0378 23.677 33.4911 25.8555L49.0064 35.6428C50.2017 36.3969 50.1791 38.1474 48.9647 38.8703L31.6706 49.1645C28.2684 51.1897 24.0349 51.2076 20.6157 49.2112Z" stroke="#017AFF" stroke-width="0.552083"/>
<path d="M23.1609 47.9632L7.40184 38.768C6.71302 38.3661 6.71012 37.3718 7.39658 36.9659L24.4636 26.8737C26.4029 25.7269 28.8207 25.7613 30.7265 26.9628L45.6902 36.3961C46.3504 36.8123 46.3379 37.7792 45.6671 38.1782L29.2612 47.9375C27.3836 49.0544 25.0478 49.0642 23.1609 47.9632Z" fill="#017AFF"/>
<path fill-rule="evenodd" clip-rule="evenodd" d="M11.2278 38.2038L23.2482 45.108C25.117 46.1814 27.4175 46.1718 29.2773 45.0828L41.842 37.7252C42.1749 37.5303 42.3476 37.1962 42.3585 36.8573L42.3597 36.8573V34.6332L39.8205 34.6668L30.4849 28.8734C28.5962 27.7014 26.2147 27.6677 24.2936 28.7859L13.5944 35.0139L10.7012 35.0522V37.3133L10.7034 37.3133C10.7085 37.6608 10.8834 38.006 11.2278 38.2038Z" fill="#3796FF"/>
<path d="M23.2477 42.8998L11.2273 35.9956C10.5303 35.5953 10.5274 34.5907 11.2221 34.1863L24.2932 26.5777C26.2142 25.4595 28.5957 25.4931 30.4844 26.6652L41.8645 33.7273C42.5332 34.1422 42.5206 35.1194 41.8416 35.517L29.2768 42.8746C27.4171 43.9636 25.1165 43.9732 23.2477 42.8998Z" fill="white"/>
<path opacity="0.2" d="M11.228 35.9571L23.2484 42.8612C25.1172 43.9346 27.4177 43.925 29.2775 42.836L41.8422 35.4785C42.1751 35.2836 42.3478 34.9495 42.3587 34.6106L42.3597 34.6106V32.3864V6.77495L10.7036 6.77485L10.7012 32.8054V35.0666L10.7036 35.0665C10.7087 35.414 10.8836 35.7593 11.228 35.9571Z" fill="url(#paint0_linear_2476_66897)"/>
<circle cx="35.64" cy="33.7869" r="0.552083" fill="#017AFF"/>
<circle cx="15.765" cy="33.2347" r="0.552083" fill="#017AFF"/>
<circle cx="15.765" cy="23.2972" r="0.552083" fill="#017AFF"/>
<circle cx="19.6283" cy="17.2244" r="0.552083" fill="#017AFF"/>
<circle cx="16.3158" cy="16.6722" r="0.552083" fill="#017AFF"/>
<circle cx="21.8372" cy="11.1514" r="0.552083" fill="#017AFF"/>
<circle cx="31.7747" cy="11.7035" r="0.552083" fill="#017AFF"/>
<circle cx="38.9525" cy="24.9535" r="0.552083" fill="#017AFF"/>
<circle cx="38.1237" cy="30.1984" r="0.276042" fill="#017AFF"/>
<circle cx="19.3522" cy="21.9172" r="0.276042" fill="#017AFF"/>
<circle cx="26.5299" cy="7.56291" r="0.276042" fill="#017AFF"/>
<circle cx="18.2487" cy="9.21916" r="0.276042" fill="#017AFF"/>
<circle cx="34.2585" cy="12.5317" r="0.276042" fill="#017AFF"/>
<circle cx="38.1237" cy="20.8129" r="0.276042" fill="#017AFF"/>
<circle cx="13.2799" cy="26.3337" r="0.276042" fill="#017AFF"/>
<circle cx="18.2487" cy="35.7192" r="0.276042" fill="#017AFF"/>
<path fill-rule="evenodd" clip-rule="evenodd" d="M27.2028 5.55493L27.1986 5.55742C27.1683 5.56291 27.1426 5.5784 27.1233 5.6028L26.0888 6.22589L26.3324 9.34497V9.37456L26.0401 8.78647L25.2391 9.15746L25.4631 9.92022C23.628 9.83855 22.2827 11.4339 22.0853 14.1634L21.0553 13.5688V13.574L21.0502 13.5669L19.9675 14.2326C20.2237 15.0084 20.6367 16.1673 20.9097 16.9332L20.9097 16.9332C21.0725 17.3903 21.1855 17.7073 21.1855 17.7194L21.186 17.7426C21.1903 17.9355 21.2197 19.2697 21.129 20.2848L19.5479 19.372V19.38L18.4551 20.0388L18.6714 20.2848L20.0503 24.5033V27.2063L20.1835 27.2832L20.2122 28.5972L21.3047 27.9326L21.3045 27.9304L21.3055 27.931L21.3055 23.8705L22.5619 24.5959V28.6564L23.6754 29.2993L23.7309 30.6204L24.8243 29.9659L24.8239 29.96V26.2236L25.9394 26.5444L26.0804 26.6258L26.0804 30.6878L27.1511 31.306L27.2442 32.6562L28.3412 31.9932L28.3412 31.9931L28.3413 31.9931V28.3435L29.3394 28.5078L29.5977 28.657V32.7185L30.7464 33.3817L30.7609 34.6848L31.8542 34.0213L31.8598 34.0245V29.9627L33.1162 30.6881V34.7499L33.4314 34.9319L33.5282 36.2799L34.6217 35.6243L34.6213 35.6189L34.625 35.621V30.3612L35.1223 30.1056L35.122 30.1047L35.1276 30.1079V28.367L33.117 27.2061V22.8107L33.618 22.5628L33.6196 22.5637V22.562L33.6228 22.5604L33.6196 22.5482V20.8228L32.5893 20.2279C32.3619 16.8208 30.611 13.1598 28.3427 11.2367V9.65161L27.5877 9.21568V6.02475C27.5877 5.8645 27.4752 5.66963 27.3364 5.58951C27.2874 5.56119 27.2416 5.55099 27.2029 5.55672L27.2028 5.55493ZM23.8183 18.3571L22.5618 17.6317V21.1137L23.8183 21.8391L23.8183 18.3571ZM26.5828 19.9526L27.8392 20.678V24.1599L26.5828 23.4345V19.9526ZM31.859 22.9994L30.6026 22.274V25.756L31.859 26.4814V22.9994Z" fill="#3D8AFF"/>
<path fill-rule="evenodd" clip-rule="evenodd" d="M26.5045 6.69185C26.5045 6.5316 26.392 6.33673 26.2532 6.25661C26.1144 6.17648 26.0019 6.24144 26.0019 6.40169L26.0019 9.59255L25.2494 9.15811L25.2494 10.743C22.9809 10.0465 21.2297 11.6857 21.0023 14.8306L19.9723 14.2359L19.9723 15.9769L20.4748 16.267L20.4748 21.1995L18.4648 20.0391L18.4648 21.7801L18.9673 22.0702L18.9673 27.8735L33.5419 36.2881L33.5419 30.4848L34.0446 30.7751L34.0446 29.0341L32.034 27.8732L32.034 22.9407L32.5366 23.2309L32.5366 21.4899L31.5062 20.895C31.2789 17.4879 29.528 13.8269 27.2597 11.9038L27.2597 10.3188L26.5045 9.88271L26.5045 6.69185ZM21.4812 18.2981L22.7376 19.0235L22.7376 22.5054L21.4812 21.78L21.4812 18.2981ZM26.7585 21.3448L25.5021 20.6194L25.5021 24.1013L26.7585 24.8267L26.7585 21.3448ZM29.522 22.9406L30.7784 23.666L30.7784 27.148L29.522 26.4226L29.522 22.9406Z" fill="url(#paint1_linear_2476_66897)"/>
<ellipse opacity="0.4" cx="25.7441" cy="33.6322" rx="10.0946" ry="2.426" transform="rotate(30 25.7441 33.6322)" fill="url(#paint2_radial_2476_66897)"/>
<defs>
<linearGradient id="paint0_linear_2476_66897" x1="26.5305" y1="6.7749" x2="26.5305" y2="43.6596" gradientUnits="userSpaceOnUse">
<stop stop-color="#017AFF" stop-opacity="0"/>
<stop offset="1" stop-color="#017AFF"/>
</linearGradient>
<linearGradient id="paint1_linear_2476_66897" x1="18.4648" y1="8.88057" x2="34.9904" y2="29.0563" gradientUnits="userSpaceOnUse">
<stop stop-color="#3C99FF"/>
<stop offset="1" stop-color="#87C0FF"/>
</linearGradient>
<radialGradient id="paint2_radial_2476_66897" cx="0" cy="0" r="1" gradientUnits="userSpaceOnUse" gradientTransform="translate(25.7441 33.6322) rotate(90) scale(2.426 10.0946)">
<stop stop-color="#5DABFF"/>
<stop offset="1" stop-color="#60ACFF" stop-opacity="0"/>
</radialGradient>
</defs>
</svg>
