<svg width="96" height="96" viewBox="0 0 96 96" fill="none" xmlns="http://www.w3.org/2000/svg">
<path d="M41.8398 91.7621L5.28101 70.4167C4.03397 69.6886 4.02872 67.8884 5.2715 67.153L44.7521 43.7918C48.2661 41.7126 52.6482 41.7749 56.1016 43.9534L90.8879 65.8973C92.0832 66.6514 92.0606 68.4019 90.8462 69.1248L52.8946 91.7154C49.4925 93.7405 45.2589 93.7584 41.8398 91.7621Z" stroke="#017AFF"/>
<path d="M41.953 86.8769L13.4083 70.2214C12.1606 69.4934 12.1554 67.6925 13.3988 66.9572L44.3126 48.6769C47.8253 46.5998 52.2047 46.6621 55.6568 48.8384L82.7607 65.925C83.9567 66.6789 83.9341 68.4302 82.719 69.153L53.0025 86.8302C49.6017 88.8532 45.3708 88.8711 41.953 86.8769Z" fill="#017AFF"/>
<path fill-rule="evenodd" clip-rule="evenodd" d="M20.339 69.1995L42.1118 81.7052C45.4968 83.6494 49.6638 83.632 53.0324 81.6594L75.7912 68.3326C76.3941 67.9795 76.7069 67.3744 76.7266 66.7605L76.7286 66.7605V62.7318L72.1296 62.7927L55.2198 52.2991C51.7987 50.1761 47.4851 50.1151 44.0054 52.1406L24.6257 63.4214L19.3848 63.4908V67.5865L19.3891 67.5864C19.3984 68.2158 19.7153 68.8412 20.339 69.1995Z" fill="#3796FF"/>
<path d="M42.1115 77.7052L20.3386 65.1996C19.0761 64.4744 19.0708 62.6548 20.3292 61.9223L44.0051 48.1407C47.4847 46.1152 51.7983 46.1762 55.2194 48.2992L75.8325 61.0909C77.0436 61.8425 77.0209 63.6124 75.7909 64.3327L53.0321 77.6595C49.6635 79.632 45.4965 79.6495 42.1115 77.7052Z" fill="#ECF4FF"/>
<ellipse opacity="0.67" cx="50.0306" cy="59.6963" rx="18.2466" ry="3.94729" transform="rotate(30 50.0306 59.6963)" fill="url(#paint0_radial_3401_56128)"/>
<path opacity="0.2" d="M20.339 65.2357L42.1118 77.7414C45.4968 79.6856 49.6638 79.6682 53.0324 77.6956L75.7912 64.3688C76.3941 64.0158 76.7069 63.4106 76.7266 62.7968L76.7286 62.7967V58.7681V12.3775L19.3891 12.3774L19.3848 59.527V63.6227L19.3891 63.6226C19.3984 64.2521 19.7153 64.8774 20.339 65.2357Z" fill="url(#paint1_linear_3401_56128)"/>
<g class="icon_animate_snow_4">
<circle cx="66.1875" cy="61.1987" r="1" fill="#017AFF"/>
<circle cx="30.1875" cy="60.1987" r="1" fill="#017AFF"/>
<circle cx="30.1875" cy="42.1987" r="1" fill="#017AFF"/>
<circle cx="37.1875" cy="31.1987" r="1" fill="#017AFF"/>
<circle cx="31.1875" cy="30.1987" r="1" fill="#017AFF"/>
<circle cx="41.1875" cy="20.1987" r="1" fill="#017AFF"/>
<circle cx="59.1875" cy="21.1987" r="1" fill="#017AFF"/>
<circle cx="72.1875" cy="45.1987" r="1" fill="#017AFF"/>
<circle cx="70.6875" cy="54.6987" r="0.5" fill="#017AFF"/>
<circle cx="36.6875" cy="39.6987" r="0.5" fill="#017AFF"/>
<circle cx="49.6875" cy="13.6987" r="0.5" fill="#017AFF"/>
<circle cx="34.6875" cy="16.6987" r="0.5" fill="#017AFF"/>
<circle cx="63.6875" cy="22.6987" r="0.5" fill="#017AFF"/>
<circle cx="70.6875" cy="37.6987" r="0.5" fill="#017AFF"/>
<circle cx="25.6875" cy="47.6987" r="0.5" fill="#017AFF"/>
<circle cx="34.6875" cy="64.6987" r="0.5" fill="#017AFF"/>
</g>
<g class="icon_animate_4">
<path d="M36.4207 23.6584L43.1553 27.6021L40.4876 28.8269L33.7531 25.0656L36.4207 23.6584Z" fill="url(#paint2_linear_3401_56128)"/>
<path d="M33.7451 25.0616L40.4833 28.84L40.4834 49.6949L33.7452 45.4484L33.7451 25.0616Z" fill="url(#paint3_linear_3401_56128)"/>
<path d="M43.1659 27.582L40.4834 28.8351V49.6948L43.1659 48.0667V27.582Z" fill="#3D8AFF"/>
<path d="M47.5506 37.1819L54.2852 41.1256L51.6699 42.368L44.9355 38.6067L47.5506 37.1819Z" fill="url(#paint4_linear_3401_56128)"/>
<path d="M44.9603 38.6103L51.6659 42.3665L51.666 56.2594L44.9605 52.035L44.9603 38.6103Z" fill="url(#paint5_linear_3401_56128)"/>
<path d="M54.285 41.1161L51.666 42.3665V56.2583L54.285 54.5221V41.1161Z" fill="#3D8AFF"/>
<path d="M58.7703 49.416L65.5049 53.3597L62.8636 54.5971L56.1291 50.8357L58.7703 49.416Z" fill="url(#paint6_linear_3401_56128)"/>
<path d="M56.1538 50.844L62.8594 54.6003V62.5467L56.1538 58.3223L56.1538 50.844Z" fill="url(#paint7_linear_3401_56128)"/>
<path d="M65.5039 53.3511L62.8594 54.6005V62.5469L65.5039 60.8294V53.3511Z" fill="#3D8AFF"/>
</g>
<defs>
<radialGradient id="paint0_radial_3401_56128" cx="0" cy="0" r="1" gradientUnits="userSpaceOnUse" gradientTransform="translate(50.0306 59.6963) rotate(90) scale(3.94729 18.2466)">
<stop stop-color="#479FFF" stop-opacity="0.36"/>
<stop offset="1" stop-color="#479FFF" stop-opacity="0"/>
</radialGradient>
<linearGradient id="paint1_linear_3401_56128" x1="48.0567" y1="12.3774" x2="48.0567" y2="79.1874" gradientUnits="userSpaceOnUse">
<stop stop-color="#017AFF" stop-opacity="0"/>
<stop offset="1" stop-color="#017AFF"/>
</linearGradient>
<linearGradient id="paint2_linear_3401_56128" x1="44.2612" y1="23.465" x2="34.6836" y2="25.2118" gradientUnits="userSpaceOnUse">
<stop stop-color="#57A7FF"/>
<stop offset="1" stop-color="#ACD4FF"/>
</linearGradient>
<linearGradient id="paint3_linear_3401_56128" x1="40.4834" y1="31.0018" x2="29.694" y2="35.3753" gradientUnits="userSpaceOnUse">
<stop stop-color="#3D9AFF"/>
<stop offset="1" stop-color="#88C0FF"/>
</linearGradient>
<linearGradient id="paint4_linear_3401_56128" x1="55.4433" y1="37.0061" x2="45.8657" y2="38.7529" gradientUnits="userSpaceOnUse">
<stop stop-color="#57A7FF"/>
<stop offset="1" stop-color="#ACD4FF"/>
</linearGradient>
<linearGradient id="paint5_linear_3401_56128" x1="51.666" y1="42.8663" x2="42.1736" y2="48.2106" gradientUnits="userSpaceOnUse">
<stop stop-color="#3D9AFF"/>
<stop offset="1" stop-color="#88C0FF"/>
</linearGradient>
<linearGradient id="paint6_linear_3401_56128" x1="66.6372" y1="49.2357" x2="57.0596" y2="50.9825" gradientUnits="userSpaceOnUse">
<stop stop-color="#57A7FF"/>
<stop offset="1" stop-color="#ACD4FF"/>
</linearGradient>
<linearGradient id="paint7_linear_3401_56128" x1="62.8594" y1="53.666" x2="55.5952" y2="59.8338" gradientUnits="userSpaceOnUse">
<stop stop-color="#3D9AFF"/>
<stop offset="1" stop-color="#88C0FF"/>
</linearGradient>
</defs>
</svg>
