<svg width="97" height="96" viewBox="0 0 97 96" fill="none" xmlns="http://www.w3.org/2000/svg">
<path d="M42.7226 91.7618L6.16383 70.4164C4.91678 69.6883 4.91153 67.8881 6.15431 67.1528L45.6349 43.7916C49.1489 41.7123 53.531 41.7747 56.9844 43.9532L91.7707 65.8971C92.966 66.6511 92.9434 68.4017 91.729 69.1245L53.7774 91.7151C50.3753 93.7403 46.1417 93.7581 42.7226 91.7618Z" stroke="#017AFF"/>
<path d="M42.8358 86.8766L14.2911 70.2212C13.0434 69.4932 13.0382 67.6922 14.2816 66.957L45.1955 48.6767C48.7081 46.5995 53.0875 46.6619 56.5396 48.8381L83.6435 65.9247C84.8395 66.6787 84.8169 68.43 83.6018 69.1528L53.8853 86.83C50.4845 88.853 46.2536 88.8709 42.8358 86.8766Z" fill="#017AFF"/>
<path fill-rule="evenodd" clip-rule="evenodd" d="M21.2218 69.1992L42.9946 81.7049C46.3796 83.6492 50.5467 83.6317 53.9153 81.6592L76.674 68.3323C77.2769 67.9793 77.5897 67.3741 77.6094 66.7603L77.6114 66.7602V62.7316L73.0124 62.7925L56.1026 52.2988C52.6815 50.1758 48.3679 50.1149 44.8883 52.1404L25.5086 63.4212L20.2676 63.4905V67.5862L20.2719 67.5862C20.2812 68.2156 20.5981 68.841 21.2218 69.1992Z" fill="#3796FF"/>
<path d="M42.9943 77.705L21.2215 65.1993C19.9589 64.4741 19.9536 62.6545 21.212 61.922L44.8879 48.1405C48.3676 46.115 52.6812 46.1759 56.1022 48.2989L76.7153 61.0906C77.9264 61.8422 77.9037 63.6122 76.6737 64.3324L53.9149 77.6593C50.5463 79.6318 46.3793 79.6493 42.9943 77.705Z" fill="white"/>
<path opacity="0.2" d="M21.2218 65.2948L42.9946 77.8005C46.3796 79.7447 50.5467 79.7273 53.9153 77.7547L76.674 64.4279C77.2769 64.0749 77.5897 63.4697 77.6094 62.8558L77.6114 62.8558V58.8272V12.4366L20.2719 12.4364L20.2676 59.5861V63.6818L20.2719 63.6817C20.2812 64.3112 20.5981 64.9365 21.2218 65.2948Z" fill="url(#paint0_linear_3401_56052)"/>
<g class="icon_animate_snow_1">
<circle cx="64.0312" cy="61.4941" r="1" fill="#017AFF"/>
<circle cx="28.0312" cy="60.4941" r="1" fill="#017AFF"/>
<circle cx="28.0312" cy="42.4941" r="1" fill="#017AFF"/>
<circle cx="35.0312" cy="31.4941" r="1" fill="#017AFF"/>
<circle cx="29.0312" cy="30.4941" r="1" fill="#017AFF"/>
<circle cx="39.0312" cy="20.4941" r="1" fill="#017AFF"/>
<circle cx="57.0312" cy="21.4941" r="1" fill="#017AFF"/>
<circle cx="70.0312" cy="45.4941" r="1" fill="#017AFF"/>
<circle cx="68.5312" cy="54.9941" r="0.5" fill="#017AFF"/>
<circle cx="34.5312" cy="39.9941" r="0.5" fill="#017AFF"/>
<circle cx="47.5312" cy="13.9941" r="0.5" fill="#017AFF"/>
<circle cx="32.5312" cy="16.9941" r="0.5" fill="#017AFF"/>
<circle cx="61.5312" cy="22.9941" r="0.5" fill="#017AFF"/>
<circle cx="68.5312" cy="37.9941" r="0.5" fill="#017AFF"/>
<circle cx="23.5312" cy="47.9941" r="0.5" fill="#017AFF"/>
<circle cx="32.5312" cy="64.9941" r="0.5" fill="#017AFF"/>
</g>
<g class="icon_animate_1">
<path d="M57.3877 50.0373L48.213 44.7469L46.417 45.7871L55.5836 51.0856L57.3877 50.0373Z" fill="#B3B3B3"/>
<g filter="url(#filter0_d_3401_56052)">
<path d="M57.3714 55.6525C57.3348 56.7811 57.0073 57.8812 56.4207 58.8461C55.8768 59.8407 55.088 60.6798 54.129 61.2841L49.2532 64.0958L40.0866 58.8055V56.7251L44.9624 53.9134C45.3851 53.6426 45.7341 53.2712 45.9782 52.8326C46.2399 52.4002 46.3855 51.9075 46.4008 51.4023V45.787L55.5836 51.0854L57.3877 50.0209L57.3714 55.6525Z" fill="url(#paint1_linear_3401_56052)"/>
</g>
<path d="M56.4203 58.8461C57.0069 57.8812 57.3344 56.7811 57.3711 55.6525V50.0371L55.567 51.0854V56.6926C55.5482 57.1947 55.4029 57.6839 55.1445 58.1148C54.9026 58.5529 54.553 58.9221 54.1287 59.1875L49.2528 61.9992V64.0795L54.1287 61.2678C55.0856 60.6681 55.8743 59.8347 56.4203 58.8461Z" fill="#3D8AFF"/>
<path d="M49.2852 61.9992L40.1104 56.7089V58.7892L49.277 64.0795L49.2852 61.9992Z" fill="#609EFF"/>
<path d="M34.9183 15.1259L69.0493 34.8244C69.3706 35.0334 69.6382 35.3152 69.8303 35.647C70.0223 35.9788 70.1334 36.3513 70.1544 36.7341V59.3499C70.1656 59.4841 70.1432 59.619 70.0893 59.7424C70.0354 59.8658 69.9517 59.9739 69.8456 60.0569L68.0172 61.1133L34.9183 40.2691C34.5984 40.0591 34.3324 39.7769 34.1418 39.4451C33.9512 39.1134 33.8414 38.7414 33.8212 38.3593L32.3341 16.0767L34.1382 15.0772C34.2618 15.0191 34.3981 14.9931 34.5345 15.0016C34.6708 15.0101 34.8028 15.0529 34.9183 15.1259Z" fill="#3D8AFF"/>
<path d="M33.1057 16.1743L67.2366 35.8728C67.558 36.0818 67.8256 36.3636 68.0176 36.6954C68.2096 37.0273 68.3207 37.3997 68.3418 37.7825V60.3983C68.3418 61.1053 67.8542 61.3897 67.2447 61.0321L33.1138 41.3337C32.7951 41.1288 32.5286 40.8525 32.3353 40.5267C32.1421 40.2008 32.0274 39.8344 32.0005 39.4565V16.8082C32.0005 16.1093 32.4962 15.8249 33.1057 16.1743Z" fill="url(#paint2_linear_3401_56052)"/>
<path d="M66.8711 59.1549V37.3517L33.4553 18.0596V39.8627L66.8711 59.1549Z" fill="#88C0FF"/>
</g>
<defs>
<filter id="filter0_d_3401_56052" x="27.0869" y="39.787" width="43.3008" height="44.3088" filterUnits="userSpaceOnUse" color-interpolation-filters="sRGB">
<feFlood flood-opacity="0" result="BackgroundImageFix"/>
<feColorMatrix in="SourceAlpha" type="matrix" values="0 0 0 0 0 0 0 0 0 0 0 0 0 0 0 0 0 0 127 0" result="hardAlpha"/>
<feOffset dy="7"/>
<feGaussianBlur stdDeviation="6.5"/>
<feComposite in2="hardAlpha" operator="out"/>
<feColorMatrix type="matrix" values="0 0 0 0 0.00392157 0 0 0 0 0.478431 0 0 0 0 1 0 0 0 0.42 0"/>
<feBlend mode="normal" in2="BackgroundImageFix" result="effect1_dropShadow_3401_56052"/>
<feBlend mode="normal" in="SourceGraphic" in2="effect1_dropShadow_3401_56052" result="shape"/>
</filter>
<linearGradient id="paint0_linear_3401_56052" x1="48.9395" y1="12.4365" x2="48.9395" y2="79.2465" gradientUnits="userSpaceOnUse">
<stop stop-color="#017AFF" stop-opacity="0"/>
<stop offset="1" stop-color="#017AFF"/>
</linearGradient>
<linearGradient id="paint1_linear_3401_56052" x1="57.3877" y1="50.202" x2="46.4937" y2="65.4565" gradientUnits="userSpaceOnUse">
<stop stop-color="#3D9AFF"/>
<stop offset="1" stop-color="#88C0FF"/>
</linearGradient>
<linearGradient id="paint2_linear_3401_56052" x1="68.3418" y1="26.9154" x2="40.3669" y2="60.2729" gradientUnits="userSpaceOnUse">
<stop stop-color="#3D9AFF"/>
<stop offset="1" stop-color="#88C0FF"/>
</linearGradient>
</defs>
</svg>
