<svg width="35" height="53" viewBox="0 0 35 53" fill="none" xmlns="http://www.w3.org/2000/svg">
<g clip-path="url(#clip0_1795_29449)">
<path d="M20.6157 49.2112L4.15992 39.6032C2.91287 38.8751 2.90762 37.0749 4.1504 36.3396L22.1416 25.6939C25.6556 23.6147 30.0378 23.677 33.4911 25.8555L49.0064 35.6428C50.2017 36.3969 50.1791 38.1474 48.9647 38.8703L31.6706 49.1645C28.2684 51.1897 24.0349 51.2076 20.6157 49.2112Z" stroke="#00193F" stroke-width="0.552083"/>
<path d="M23.1609 47.9632L7.40184 38.768C6.71302 38.3661 6.71012 37.3718 7.39658 36.9659L24.4636 26.8737C26.4029 25.7269 28.8207 25.7613 30.7265 26.9628L45.6902 36.3961C46.3504 36.8123 46.3379 37.7792 45.6671 38.1782L29.2612 47.9375C27.3836 49.0544 25.0478 49.0642 23.1609 47.9632Z" fill="#00193F"/>
<path fill-rule="evenodd" clip-rule="evenodd" d="M11.2278 38.2043L23.2482 45.1085C25.117 46.1819 27.4175 46.1723 29.2773 45.0833L41.842 37.7257C42.1749 37.5308 42.3476 37.1967 42.3585 36.8578L42.3597 36.8578V34.6337L39.8205 34.6673L30.4849 28.8739C28.5962 27.7018 26.2147 27.6682 24.2936 28.7864L13.5944 35.0144L10.7012 35.0526V37.3138L10.7034 37.3138C10.7085 37.6613 10.8834 38.0065 11.2278 38.2043Z" fill="#9CBDEE"/>
<path d="M23.2477 42.9001L11.2273 35.9959C10.5303 35.5955 10.5274 34.5909 11.2221 34.1866L24.2932 26.578C26.2142 25.4597 28.5957 25.4934 30.4844 26.6655L41.8645 33.7276C42.5332 34.1425 42.5206 35.1196 41.8416 35.5173L29.2768 42.8748C27.4171 43.9638 25.1165 43.9735 23.2477 42.9001Z" fill="#ECF4FF"/>
<ellipse opacity="0.67" cx="27.6227" cy="32.9573" rx="10.0737" ry="2.17923" transform="rotate(30 27.6227 32.9573)" fill="url(#paint0_radial_1795_29449)"/>
<path opacity="0.2" d="M11.2299 36.0154L23.2504 42.9196C25.1192 43.993 27.4197 43.9833 29.2794 42.8943L41.8442 35.5368C42.177 35.3419 42.3497 35.0078 42.3606 34.6689L42.3617 34.6689V32.4447V6.8333L10.7055 6.8332L10.7031 32.8637V35.1249L10.7055 35.1249C10.7106 35.4724 10.8856 35.8176 11.2299 36.0154Z" fill="url(#paint1_linear_1795_29449)"/>
<circle cx="16.6673" cy="33.2347" r="0.552083" fill="#017AFF"/>
<circle cx="16.6673" cy="23.2972" r="0.552083" fill="#017AFF"/>
<circle cx="20.5306" cy="17.2244" r="0.552083" fill="#017AFF"/>
<circle cx="17.2181" cy="16.6722" r="0.552083" fill="#017AFF"/>
<circle cx="22.7396" cy="11.1514" r="0.552083" fill="#017AFF"/>
<circle cx="32.6771" cy="11.7035" r="0.552083" fill="#017AFF"/>
<circle cx="20.2546" cy="21.9172" r="0.276042" fill="#017AFF"/>
<circle cx="27.4323" cy="7.56291" r="0.276042" fill="#017AFF"/>
<circle cx="19.151" cy="9.21916" r="0.276042" fill="#017AFF"/>
<circle cx="35.1608" cy="12.5317" r="0.276042" fill="#017AFF"/>
<circle cx="14.1823" cy="26.3337" r="0.276042" fill="#017AFF"/>
<circle cx="19.151" cy="35.7192" r="0.276042" fill="#017AFF"/>
<path d="M20.1062 13.0608L23.8242 15.238L22.3514 15.9142L18.6334 13.8376L20.1062 13.0608Z" fill="url(#paint2_linear_1795_29449)"/>
<path d="M18.6295 13.8354L22.3495 15.9214L22.3496 27.4351L18.6296 25.0906L18.6295 13.8354Z" fill="url(#paint3_linear_1795_29449)"/>
<path d="M23.8306 15.2269L22.3496 15.9187V27.435L23.8306 26.5361V15.2269Z" fill="#3D8AFF"/>
<path d="M26.2507 20.5271L29.9688 22.7043L28.5249 23.3903L24.807 21.3137L26.2507 20.5271Z" fill="url(#paint4_linear_1795_29449)"/>
<path d="M24.8213 21.3159L28.5234 23.3896L28.5234 31.0597L24.8214 28.7275L24.8213 21.3159Z" fill="url(#paint5_linear_1795_29449)"/>
<path d="M29.9693 22.699L28.5234 23.3894V31.0588L29.9693 30.1003V22.699Z" fill="#3D8AFF"/>
<path d="M32.4441 27.2812L36.1621 29.4585L34.7039 30.1416L30.9859 28.065L32.4441 27.2812Z" fill="url(#paint6_linear_1795_29449)"/>
<path d="M30.9991 28.0696L34.7012 30.1434V34.5304L30.9991 32.1982L30.9991 28.0696Z" fill="url(#paint7_linear_1795_29449)"/>
<path d="M36.1612 29.4536L34.7012 30.1434V34.5305L36.1612 33.5822V29.4536Z" fill="#3D8AFF"/>
</g>
<defs>
<radialGradient id="paint0_radial_1795_29449" cx="0" cy="0" r="1" gradientUnits="userSpaceOnUse" gradientTransform="translate(27.6227 32.9573) rotate(90) scale(2.17923 10.0737)">
<stop stop-color="#479FFF" stop-opacity="0.36"/>
<stop offset="1" stop-color="#479FFF" stop-opacity="0"/>
</radialGradient>
<linearGradient id="paint1_linear_1795_29449" x1="26.5324" y1="6.83325" x2="26.5324" y2="43.7179" gradientUnits="userSpaceOnUse">
<stop stop-color="#017AFF" stop-opacity="0"/>
<stop offset="1" stop-color="#017AFF"/>
</linearGradient>
<linearGradient id="paint2_linear_1795_29449" x1="24.4348" y1="12.954" x2="19.1472" y2="13.9184" gradientUnits="userSpaceOnUse">
<stop stop-color="#57A7FF"/>
<stop offset="1" stop-color="#ACD4FF"/>
</linearGradient>
<linearGradient id="paint3_linear_1795_29449" x1="22.3496" y1="17.1149" x2="16.3929" y2="19.5294" gradientUnits="userSpaceOnUse">
<stop stop-color="#3D9AFF"/>
<stop offset="1" stop-color="#88C0FF"/>
</linearGradient>
<linearGradient id="paint4_linear_1795_29449" x1="30.6081" y1="20.4301" x2="25.3205" y2="21.3944" gradientUnits="userSpaceOnUse">
<stop stop-color="#57A7FF"/>
<stop offset="1" stop-color="#ACD4FF"/>
</linearGradient>
<linearGradient id="paint5_linear_1795_29449" x1="28.5234" y1="23.6656" x2="23.2828" y2="26.6161" gradientUnits="userSpaceOnUse">
<stop stop-color="#3D9AFF"/>
<stop offset="1" stop-color="#88C0FF"/>
</linearGradient>
<linearGradient id="paint6_linear_1795_29449" x1="36.7872" y1="27.1817" x2="31.4996" y2="28.1461" gradientUnits="userSpaceOnUse">
<stop stop-color="#57A7FF"/>
<stop offset="1" stop-color="#ACD4FF"/>
</linearGradient>
<linearGradient id="paint7_linear_1795_29449" x1="34.7012" y1="29.6276" x2="30.6907" y2="33.0327" gradientUnits="userSpaceOnUse">
<stop stop-color="#3D9AFF"/>
<stop offset="1" stop-color="#88C0FF"/>
</linearGradient>
<clipPath id="clip0_1795_29449">
<rect width="35" height="53" fill="white"/>
</clipPath>
</defs>
</svg>
