<svg width="35" height="53" viewBox="0 0 35 53" fill="none" xmlns="http://www.w3.org/2000/svg">
<g clip-path="url(#clip0_1795_29450)">
<path d="M20.6157 49.2112L4.15992 39.6032C2.91287 38.8751 2.90762 37.0749 4.1504 36.3396L22.1416 25.6939C25.6556 23.6147 30.0378 23.677 33.4911 25.8555L49.0064 35.6428C50.2017 36.3969 50.1791 38.1474 48.9647 38.8703L31.6706 49.1645C28.2684 51.1897 24.0349 51.2076 20.6157 49.2112Z" stroke="#017AFF" stroke-width="0.552083"/>
<path d="M23.1609 47.9632L7.40184 38.768C6.71302 38.3661 6.71012 37.3718 7.39658 36.9659L24.4636 26.8737C26.4029 25.7269 28.8207 25.7613 30.7265 26.9628L45.6902 36.3961C46.3504 36.8123 46.3379 37.7792 45.6671 38.1782L29.2612 47.9375C27.3836 49.0544 25.0478 49.0642 23.1609 47.9632Z" fill="#017AFF"/>
<path fill-rule="evenodd" clip-rule="evenodd" d="M11.2278 38.2043L23.2482 45.1085C25.117 46.1819 27.4175 46.1723 29.2773 45.0833L41.842 37.7257C42.1749 37.5308 42.3476 37.1967 42.3585 36.8578L42.3597 36.8578V34.6337L39.8205 34.6673L30.4849 28.8739C28.5962 27.7018 26.2147 27.6682 24.2936 28.7864L13.5944 35.0144L10.7012 35.0526V37.3138L10.7034 37.3138C10.7085 37.6613 10.8834 38.0065 11.2278 38.2043Z" fill="#3796FF"/>
<path d="M23.2477 42.9001L11.2273 35.9959C10.5303 35.5955 10.5274 34.5909 11.2221 34.1866L24.2932 26.578C26.2142 25.4597 28.5957 25.4934 30.4844 26.6655L41.8645 33.7276C42.5332 34.1425 42.5206 35.1196 41.8416 35.5173L29.2768 42.8748C27.4171 43.9638 25.1165 43.9735 23.2477 42.9001Z" fill="white"/>
<path opacity="0.2" d="M11.228 35.9571L23.2484 42.8612C25.1172 43.9346 27.4177 43.925 29.2775 42.836L41.8422 35.4785C42.1751 35.2836 42.3478 34.9495 42.3587 34.6106L42.3597 34.6106V32.3864V6.77495L10.7036 6.77485L10.7012 32.8054V35.0666L10.7036 35.0665C10.7087 35.414 10.8836 35.7593 11.228 35.9571Z" fill="url(#paint0_linear_1795_29450)"/>
<circle cx="15.765" cy="33.2349" r="0.552083" fill="#017AFF"/>
<circle cx="15.765" cy="23.2974" r="0.552083" fill="#017AFF"/>
<circle cx="19.6283" cy="17.2247" r="0.552083" fill="#017AFF"/>
<circle cx="16.3158" cy="16.6724" r="0.552083" fill="#017AFF"/>
<circle cx="21.8372" cy="11.1517" r="0.552083" fill="#017AFF"/>
<circle cx="31.7747" cy="11.7037" r="0.552083" fill="#017AFF"/>
<circle cx="19.3522" cy="21.9174" r="0.276042" fill="#017AFF"/>
<circle cx="26.5299" cy="7.56315" r="0.276042" fill="#017AFF"/>
<circle cx="18.2487" cy="9.2194" r="0.276042" fill="#017AFF"/>
<circle cx="34.2585" cy="12.5319" r="0.276042" fill="#017AFF"/>
<circle cx="13.2799" cy="26.3339" r="0.276042" fill="#017AFF"/>
<circle cx="18.2487" cy="35.7194" r="0.276042" fill="#017AFF"/>
<path fill-rule="evenodd" clip-rule="evenodd" d="M27.2028 5.55469L27.1986 5.55718C27.1683 5.56266 27.1426 5.57816 27.1233 5.60256L26.0888 6.22565L26.3324 9.34473V9.37432L26.0401 8.78623L25.2391 9.15722L25.4631 9.92003C23.628 9.83835 22.2827 11.4337 22.0853 14.1632L21.5578 13.8586V13.8587L21.0553 13.5686V13.5737L21.0502 13.5667L19.9675 14.2324C20.2237 15.0082 20.6367 16.1671 20.9097 16.9329L20.9097 16.933C21.0725 17.39 21.1855 17.7071 21.1855 17.7191L21.186 17.7424C21.1903 17.9353 21.2197 19.2694 21.129 20.2845L19.5479 19.3716V19.3797L18.4551 20.0385L18.6714 20.2846L20.0503 24.5031V27.2062L20.1835 27.283L20.2122 28.597L21.3047 27.9324L21.3045 27.9302L21.3055 27.9308L21.3055 23.8705L22.5619 24.5959V28.6562L23.6754 29.2991L23.7309 30.6202L24.8243 29.9656L24.8239 29.9597V26.2234L25.9379 26.5437L26.0804 26.6259L26.0804 30.6876L27.1511 31.3058L27.2442 32.656L28.3412 31.9929L28.3412 31.9929L28.3413 31.9929V28.3432L29.3383 28.5074L29.5977 28.6572V32.7183L30.7464 33.3815L30.7609 34.6845L31.8542 34.0211L31.8598 34.0243V29.9629L33.1162 30.6883V34.7497L33.4314 34.9317L33.5282 36.2796L34.6217 35.6241L34.6213 35.6187L34.625 35.6208V30.361L35.1223 30.1054L35.122 30.1043L35.1276 30.1076V28.3666L33.117 27.2058V22.8105L33.618 22.5626L33.6196 22.5636V22.5618L33.6228 22.5602L33.6196 22.548V20.8226L33.117 20.5324V20.5323L32.5893 20.2276C32.3619 16.8206 30.611 13.1596 28.3427 11.2365V9.65128L27.5877 9.21535V6.0245C27.5877 5.86425 27.4752 5.66939 27.3364 5.58926C27.2874 5.56094 27.2416 5.55075 27.2029 5.55648L27.2028 5.55469ZM23.8183 18.357L22.5618 17.6316V21.1136L23.8183 21.839L23.8183 18.357ZM26.5828 19.9524L27.8392 20.6778V24.1597L26.5828 23.4343V19.9524ZM31.859 22.9991L30.6026 22.2736V25.7556L31.859 26.481V22.9991Z" fill="#3D8AFF"/>
<path fill-rule="evenodd" clip-rule="evenodd" d="M26.5045 6.6916C26.5045 6.53135 26.392 6.33649 26.2532 6.25636C26.1144 6.17624 26.0019 6.24119 26.0019 6.40144L26.0019 9.59203L25.2494 9.1576L25.2494 10.7426C22.9809 10.0461 21.2297 11.6853 21.0023 14.8302L20.4748 14.5256L20.4748 14.5256L19.9723 14.2355L19.9723 15.9765L20.4748 16.2666L20.4748 21.199L18.4648 20.0386L18.4648 21.7796L18.9673 22.0697L18.9673 27.8731L33.5419 36.2878L33.5419 30.4843L34.0446 30.7745L34.0446 29.0336L32.034 27.8727L32.034 22.9403L32.5366 23.2305L32.5366 21.4895L32.034 21.1993L32.034 21.1993L31.5062 20.8946C31.2789 17.4875 29.528 13.8266 27.2597 11.9035L27.2597 10.3182L26.5045 9.88219L26.5045 6.6916ZM21.4812 18.2978L22.7376 19.0232L22.7376 22.5052L21.4812 21.7798L21.4812 18.2978ZM26.7585 21.3445L25.5021 20.6191L25.5021 24.101L26.7585 24.8264L26.7585 21.3445ZM29.522 22.9404L30.7784 23.6658L30.7784 27.1477L29.522 26.4223L29.522 22.9404Z" fill="url(#paint1_linear_1795_29450)"/>
<ellipse opacity="0.4" cx="25.7441" cy="33.6322" rx="10.0946" ry="2.426" transform="rotate(30 25.7441 33.6322)" fill="url(#paint2_radial_1795_29450)"/>
</g>
<defs>
<linearGradient id="paint0_linear_1795_29450" x1="26.5305" y1="6.7749" x2="26.5305" y2="43.6596" gradientUnits="userSpaceOnUse">
<stop stop-color="#017AFF" stop-opacity="0"/>
<stop offset="1" stop-color="#017AFF"/>
</linearGradient>
<linearGradient id="paint1_linear_1795_29450" x1="18.4648" y1="8.88028" x2="34.9903" y2="29.0561" gradientUnits="userSpaceOnUse">
<stop stop-color="#3C99FF"/>
<stop offset="1" stop-color="#87C0FF"/>
</linearGradient>
<radialGradient id="paint2_radial_1795_29450" cx="0" cy="0" r="1" gradientUnits="userSpaceOnUse" gradientTransform="translate(25.7441 33.6322) rotate(90) scale(2.426 10.0946)">
<stop stop-color="#5DABFF"/>
<stop offset="1" stop-color="#60ACFF" stop-opacity="0"/>
</radialGradient>
<clipPath id="clip0_1795_29450">
<rect width="35" height="53" fill="white"/>
</clipPath>
</defs>
</svg>
