<svg width="35" height="53" viewBox="0 0 35 53" fill="none" xmlns="http://www.w3.org/2000/svg">
<g clip-path="url(#clip0_1795_29451)">
<path d="M20.6157 49.2112L4.15992 39.6032C2.91287 38.8751 2.90762 37.0749 4.1504 36.3396L22.1416 25.6939C25.6556 23.6147 30.0378 23.677 33.4911 25.8555L49.0064 35.6428C50.2017 36.3969 50.1791 38.1474 48.9647 38.8703L31.6706 49.1645C28.2684 51.1897 24.0349 51.2076 20.6157 49.2112Z" stroke="#00193F" stroke-width="0.552083"/>
<path d="M23.1609 47.9635L7.40184 38.7683C6.71302 38.3664 6.71012 37.3721 7.39658 36.9662L24.4636 26.8739C26.4029 25.7272 28.8207 25.7616 30.7265 26.9631L45.6902 36.3963C46.3504 36.8125 46.3379 37.7794 45.6671 38.1784L29.2612 47.9377C27.3836 49.0546 25.0478 49.0645 23.1609 47.9635Z" fill="#00193F"/>
<path fill-rule="evenodd" clip-rule="evenodd" d="M11.2278 38.2043L23.2482 45.1085C25.117 46.1819 27.4175 46.1723 29.2773 45.0833L41.842 37.7257C42.1749 37.5308 42.3476 37.1967 42.3585 36.8578L42.3597 36.8578V34.6337L39.8205 34.6673L30.4849 28.8739C28.5962 27.7018 26.2147 27.6682 24.2936 28.7864L13.5944 35.0144L10.7012 35.0526V37.3138L10.7034 37.3138C10.7085 37.6613 10.8834 38.0065 11.2278 38.2043Z" fill="#9CBDEE"/>
<path d="M23.2477 42.9001L11.2273 35.9959C10.5303 35.5955 10.5274 34.5909 11.2221 34.1866L24.2932 26.578C26.2142 25.4597 28.5957 25.4934 30.4844 26.6655L41.8645 33.7276C42.5332 34.1425 42.5206 35.1196 41.8416 35.5173L29.2768 42.8748C27.4171 43.9638 25.1165 43.9735 23.2477 42.9001Z" fill="#ECF4FF"/>
<ellipse opacity="0.67" cx="27.6227" cy="32.9573" rx="10.0737" ry="2.17923" transform="rotate(30 27.6227 32.9573)" fill="url(#paint0_radial_1795_29451)"/>
<path opacity="0.2" d="M11.2299 36.0154L23.2504 42.9196C25.1192 43.993 27.4197 43.9833 29.2794 42.8943L41.8442 35.5368C42.177 35.3419 42.3497 35.0078 42.3606 34.6689L42.3617 34.6689V32.4447V6.8333L10.7055 6.8332L10.7031 32.8637V35.1249L10.7055 35.1249C10.7106 35.4724 10.8856 35.8176 11.2299 36.0154Z" fill="url(#paint1_linear_1795_29451)"/>
<circle cx="16.6673" cy="33.4417" r="0.552083" fill="#017AFF"/>
<circle cx="16.6673" cy="23.5042" r="0.552083" fill="#017AFF"/>
<circle cx="20.5306" cy="17.4315" r="0.552083" fill="#017AFF"/>
<circle cx="17.2181" cy="16.8792" r="0.552083" fill="#017AFF"/>
<circle cx="22.7396" cy="11.3585" r="0.552083" fill="#017AFF"/>
<circle cx="32.6771" cy="11.9105" r="0.552083" fill="#017AFF"/>
<circle cx="20.2546" cy="22.1242" r="0.276042" fill="#017AFF"/>
<circle cx="27.4323" cy="7.76994" r="0.276042" fill="#017AFF"/>
<circle cx="19.151" cy="9.42619" r="0.276042" fill="#017AFF"/>
<circle cx="35.1608" cy="12.7387" r="0.276042" fill="#017AFF"/>
<circle cx="14.1823" cy="26.5407" r="0.276042" fill="#017AFF"/>
<circle cx="19.151" cy="35.9262" r="0.276042" fill="#017AFF"/>
<path d="M19.9131 19.7205L26.5059 23.5842L25.0684 24.2513L18.4869 20.4728L19.9131 19.7205Z" fill="url(#paint2_linear_1795_29451)"/>
<path d="M18.4808 20.4707L25.0739 24.2456L25.0742 30.2884L18.481 26.5092L18.4808 20.4707Z" fill="url(#paint3_linear_1795_29451)"/>
<path d="M26.5104 23.573L25.0762 24.243V30.2763L26.5104 29.4058V23.573Z" fill="#3D8AFF"/>
<path d="M27.2237 24.0349L33.8164 27.8986L32.3901 28.5535L25.7974 24.7873L27.2237 24.0349Z" fill="url(#paint4_linear_1795_29451)"/>
<path d="M25.7914 24.7852L32.3845 28.5601L32.3847 34.6029L25.7915 30.8236L25.7914 24.7852Z" fill="url(#paint5_linear_1795_29451)"/>
<path d="M33.821 27.8875L32.3867 28.5574V34.5908L33.821 33.7203V27.8875Z" fill="#3D8AFF"/>
<path d="M23.2139 14.4971L29.8067 18.3608L28.3803 19.0157L21.7876 15.2494L23.2139 14.4971Z" fill="url(#paint6_linear_1795_29451)"/>
<path d="M21.7816 15.2473L28.3747 19.0223L28.3749 25.065L21.7818 21.2858L21.7816 15.2473Z" fill="url(#paint7_linear_1795_29451)"/>
<path d="M29.8112 18.3496L28.377 19.0196V25.0529L29.8112 24.1824V18.3496Z" fill="#3D8AFF"/>
</g>
<defs>
<radialGradient id="paint0_radial_1795_29451" cx="0" cy="0" r="1" gradientUnits="userSpaceOnUse" gradientTransform="translate(27.6227 32.9573) rotate(90) scale(2.17923 10.0737)">
<stop stop-color="#479FFF" stop-opacity="0.36"/>
<stop offset="1" stop-color="#479FFF" stop-opacity="0"/>
</radialGradient>
<linearGradient id="paint1_linear_1795_29451" x1="26.5324" y1="6.83325" x2="26.5324" y2="43.7179" gradientUnits="userSpaceOnUse">
<stop stop-color="#017AFF" stop-opacity="0"/>
<stop offset="1" stop-color="#017AFF"/>
</linearGradient>
<linearGradient id="paint2_linear_1795_29451" x1="27.4491" y1="19.5513" x2="19.2678" y2="21.007" gradientUnits="userSpaceOnUse">
<stop stop-color="#57A7FF"/>
<stop offset="1" stop-color="#ACD4FF"/>
</linearGradient>
<linearGradient id="paint3_linear_1795_29451" x1="25.0742" y1="22.8382" x2="18.8984" y2="28.9841" gradientUnits="userSpaceOnUse">
<stop stop-color="#3D9AFF"/>
<stop offset="1" stop-color="#88C0FF"/>
</linearGradient>
<linearGradient id="paint4_linear_1795_29451" x1="34.7596" y1="23.8658" x2="26.5783" y2="25.3214" gradientUnits="userSpaceOnUse">
<stop stop-color="#57A7FF"/>
<stop offset="1" stop-color="#ACD4FF"/>
</linearGradient>
<linearGradient id="paint5_linear_1795_29451" x1="32.3848" y1="27.1526" x2="26.209" y2="33.2986" gradientUnits="userSpaceOnUse">
<stop stop-color="#3D9AFF"/>
<stop offset="1" stop-color="#88C0FF"/>
</linearGradient>
<linearGradient id="paint6_linear_1795_29451" x1="30.7499" y1="14.3279" x2="22.5686" y2="15.7836" gradientUnits="userSpaceOnUse">
<stop stop-color="#57A7FF"/>
<stop offset="1" stop-color="#ACD4FF"/>
</linearGradient>
<linearGradient id="paint7_linear_1795_29451" x1="28.375" y1="17.6148" x2="22.1992" y2="23.7607" gradientUnits="userSpaceOnUse">
<stop stop-color="#3D9AFF"/>
<stop offset="1" stop-color="#88C0FF"/>
</linearGradient>
<clipPath id="clip0_1795_29451">
<rect width="35" height="53" fill="white"/>
</clipPath>
</defs>
</svg>
