<svg width="35" height="53" viewBox="0 0 35 53" fill="none" xmlns="http://www.w3.org/2000/svg">
<g clip-path="url(#clip0_1795_29452)">
<path d="M20.6157 49.2115L4.15992 39.6035C2.91287 38.8754 2.90762 37.0752 4.1504 36.3398L22.1416 25.6942C25.6556 23.6149 30.0378 23.6773 33.4911 25.8557L49.0064 35.6431C50.2017 36.3971 50.1791 38.1476 48.9647 38.8705L31.6706 49.1648C28.2684 51.1899 24.0349 51.2078 20.6157 49.2115Z" stroke="#00193F" stroke-width="0.552083"/>
<path d="M23.1609 47.9637L7.40184 38.7685C6.71302 38.3666 6.71012 37.3723 7.39658 36.9664L24.4636 26.8742C26.4029 25.7274 28.8207 25.7618 30.7265 26.9633L45.6902 36.3965C46.3504 36.8128 46.3379 37.7796 45.6671 38.1787L29.2612 47.938C27.3836 49.0548 25.0478 49.0647 23.1609 47.9637Z" fill="#00193F"/>
<path fill-rule="evenodd" clip-rule="evenodd" d="M11.2278 38.2046L23.2482 45.1088C25.117 46.1821 27.4175 46.1725 29.2773 45.0835L41.842 37.726C42.1749 37.5311 42.3476 37.197 42.3585 36.8581L42.3597 36.8581V34.6339L39.8205 34.6675L30.4849 28.8741C28.5962 27.7021 26.2147 27.6684 24.2936 28.7867L13.5944 35.0146L10.7012 35.0529V37.3141L10.7034 37.314C10.7085 37.6615 10.8834 38.0068 11.2278 38.2046Z" fill="#9CBDEE"/>
<path d="M23.2477 42.9003L11.2273 35.9961C10.5303 35.5958 10.5274 34.5912 11.2221 34.1868L24.2932 26.5782C26.2142 25.46 28.5957 25.4936 30.4844 26.6657L41.8645 33.7278C42.5332 34.1427 42.5206 35.1199 41.8416 35.5175L29.2768 42.875C27.4171 43.9641 25.1165 43.9737 23.2477 42.9003Z" fill="#ECF4FF"/>
<ellipse opacity="0.4" cx="25.7148" cy="32.2674" rx="7.54816" ry="5.31222" transform="rotate(30 25.7148 32.2674)" fill="url(#paint0_radial_1795_29452)"/>
<path opacity="0.2" d="M11.1987 36.001L23.2191 42.9052C25.0879 43.9786 27.3884 43.9689 29.2482 42.8799L41.8129 35.5224C42.1458 35.3275 42.3185 34.9934 42.3294 34.6545L42.3304 34.6545V32.4303V6.8189L10.6743 6.8188L10.6719 32.8493V35.1105L10.6743 35.1105C10.6794 35.458 10.8543 35.8032 11.1987 36.001Z" fill="url(#paint1_linear_1795_29452)"/>
<circle cx="16.6712" cy="33.2349" r="0.552083" fill="#017AFF"/>
<circle cx="16.6712" cy="23.2974" r="0.552083" fill="#017AFF"/>
<circle cx="20.5345" cy="17.2247" r="0.552083" fill="#017AFF"/>
<circle cx="17.222" cy="16.6724" r="0.552083" fill="#017AFF"/>
<circle cx="22.7435" cy="11.1517" r="0.552083" fill="#017AFF"/>
<circle cx="32.681" cy="11.7037" r="0.552083" fill="#017AFF"/>
<circle cx="20.2585" cy="21.9174" r="0.276042" fill="#017AFF"/>
<circle cx="27.4362" cy="7.56315" r="0.276042" fill="#017AFF"/>
<circle cx="19.1549" cy="9.2194" r="0.276042" fill="#017AFF"/>
<circle cx="35.1647" cy="12.5319" r="0.276042" fill="#017AFF"/>
<circle cx="14.1862" cy="26.3339" r="0.276042" fill="#017AFF"/>
<circle cx="19.1549" cy="35.7194" r="0.276042" fill="#017AFF"/>
<path fill-rule="evenodd" clip-rule="evenodd" d="M18.5018 28.0718L25.5159 32.5724C25.9655 32.8364 26.5217 32.8407 26.9752 32.5835L34.3709 28.0974C34.489 28.0304 34.5506 27.9139 34.5555 27.7952L34.5733 27.7854V25.0905L32.4346 23.904L27.1849 19.6211C26.7318 19.358 26.1724 19.3581 25.7193 19.6212L19.4644 23.2529L18.2969 24.8473V27.7854L18.3243 27.8011C18.337 27.9078 18.3961 28.0097 18.5018 28.0718Z" fill="url(#paint2_linear_1795_29452)"/>
<path d="M25.6104 29.8724L14.876 23.5667C14.6669 23.4439 14.6677 23.1413 14.8774 23.0195L25.8167 16.6678C26.2102 16.4394 26.6959 16.4393 27.0894 16.6677L38.0223 23.014C38.2339 23.1368 38.2324 23.4429 38.0195 23.5636L26.8776 29.8821C26.4838 30.1054 26.0007 30.1017 25.6104 29.8724Z" fill="url(#paint3_linear_1795_29452)"/>
<path d="M32.2833 28.4178L32.2833 26.8164L26.3242 22.74" stroke="#EBF4FF" stroke-width="0.552083" stroke-linecap="round"/>
<circle cx="32.2841" cy="29.1435" r="0.72549" fill="#EBF4FF"/>
<path d="M31.4238 32.3628L32.023 29.6868H32.6221L33.1413 32.3628H31.4238Z" fill="#EBF4FF"/>
</g>
<defs>
<radialGradient id="paint0_radial_1795_29452" cx="0" cy="0" r="1" gradientUnits="userSpaceOnUse" gradientTransform="translate(25.7148 32.2674) rotate(90) scale(5.31222 7.54816)">
<stop stop-color="#5DABFF"/>
<stop offset="1" stop-color="#60ACFF" stop-opacity="0"/>
</radialGradient>
<linearGradient id="paint1_linear_1795_29452" x1="26.5012" y1="6.81885" x2="26.5012" y2="43.7035" gradientUnits="userSpaceOnUse">
<stop stop-color="#017AFF" stop-opacity="0"/>
<stop offset="1" stop-color="#017AFF"/>
</linearGradient>
<linearGradient id="paint2_linear_1795_29452" x1="17.0791" y1="26.8352" x2="37.8701" y2="28.0881" gradientUnits="userSpaceOnUse">
<stop stop-color="#3C99FF"/>
<stop offset="0.424133" stop-color="#8EC4FF"/>
<stop offset="1" stop-color="#64AEFF"/>
</linearGradient>
<linearGradient id="paint3_linear_1795_29452" x1="19.7045" y1="20.5392" x2="36.8484" y2="23.6294" gradientUnits="userSpaceOnUse">
<stop stop-color="#57A7FF"/>
<stop offset="1" stop-color="#ACD4FF"/>
</linearGradient>
<clipPath id="clip0_1795_29452">
<rect width="35" height="53" fill="white"/>
</clipPath>
</defs>
</svg>
