<svg width="97" height="96" viewBox="0 0 97 96" fill="none" xmlns="http://www.w3.org/2000/svg">
<path d="M42.1982 91.7621L5.63941 70.4167C4.39236 69.6886 4.38712 67.8884 5.62989 67.153L45.1105 43.7918C48.6245 41.7126 53.0066 41.7749 56.46 43.9534L91.2463 65.8973C92.4416 66.6514 92.419 68.4019 91.2046 69.1248L53.253 91.7154C49.8508 93.7405 45.6173 93.7584 42.1982 91.7621Z" stroke="#017AFF"/>
<path d="M42.3114 86.8769L13.7667 70.2214C12.519 69.4934 12.5138 67.6925 13.7572 66.9572L44.671 48.6769C48.1837 46.5998 52.5631 46.6621 56.0152 48.8384L83.1191 65.925C84.3151 66.6789 84.2924 68.4302 83.0774 69.153L53.3609 86.8302C49.9601 88.8532 45.7292 88.8711 42.3114 86.8769Z" fill="#017AFF"/>
<path fill-rule="evenodd" clip-rule="evenodd" d="M20.6974 69.1995L42.4702 81.7052C45.8552 83.6494 50.0222 83.632 53.3908 81.6594L76.1496 68.3326C76.7525 67.9795 77.0653 67.3744 77.085 66.7605L77.087 66.7605V62.7318L72.488 62.7927L55.5782 52.2991C52.1571 50.1761 47.8435 50.1151 44.3638 52.1406L24.9841 63.4214L19.7432 63.4908V67.5865L19.7475 67.5864C19.7568 68.2158 20.0737 68.8412 20.6974 69.1995Z" fill="#3796FF"/>
<path d="M42.4699 77.7052L20.697 65.1996C19.4345 64.4744 19.4292 62.6548 20.6876 61.9223L44.3635 48.1407C47.8431 46.1152 52.1567 46.1762 55.5778 48.2992L76.1909 61.0909C77.402 61.8425 77.3793 63.6124 76.1493 64.3327L53.3905 77.6595C50.0219 79.632 45.8549 79.6495 42.4699 77.7052Z" fill="#ECF4FF"/>
<ellipse opacity="0.4" cx="46.9366" cy="58.4464" rx="13.6721" ry="9.62213" transform="rotate(30 46.9366 58.4464)" fill="url(#paint0_radial_3401_55720)"/>
<path opacity="0.2" d="M20.6408 65.2093L42.4136 77.715C45.7986 79.6593 49.9656 79.6418 53.3342 77.6693L76.093 64.3424C76.6959 63.9894 77.0087 63.3842 77.0284 62.7704L77.0303 62.7704V58.7417V12.3512L19.6909 12.351L19.6865 59.5006V63.5963L19.6909 63.5963C19.7001 64.2257 20.017 64.8511 20.6408 65.2093Z" fill="url(#paint1_linear_3401_55720)"/>
<g class="icon_animate_snow_3">
<circle cx="66.5547" cy="61.1987" r="1" fill="#017AFF"/>
<circle cx="30.5547" cy="60.1987" r="1" fill="#017AFF"/>
<circle cx="30.5547" cy="42.1987" r="1" fill="#017AFF"/>
<circle cx="37.5547" cy="31.1987" r="1" fill="#017AFF"/>
<circle cx="31.5547" cy="30.1987" r="1" fill="#017AFF"/>
<circle cx="41.5547" cy="20.1987" r="1" fill="#017AFF"/>
<circle cx="59.5547" cy="21.1987" r="1" fill="#017AFF"/>
<circle cx="72.5547" cy="45.1987" r="1" fill="#017AFF"/>
<circle cx="71.0547" cy="54.6987" r="0.5" fill="#017AFF"/>
<circle cx="37.0547" cy="39.6987" r="0.5" fill="#017AFF"/>
<circle cx="50.0547" cy="13.6987" r="0.5" fill="#017AFF"/>
<circle cx="35.0547" cy="16.6987" r="0.5" fill="#017AFF"/>
<circle cx="64.0547" cy="22.6987" r="0.5" fill="#017AFF"/>
<circle cx="71.0547" cy="37.6987" r="0.5" fill="#017AFF"/>
<circle cx="26.0547" cy="47.6987" r="0.5" fill="#017AFF"/>
<circle cx="35.0547" cy="64.6987" r="0.5" fill="#017AFF"/>
</g>
<g class="icon_animate_3">
<path fill-rule="evenodd" clip-rule="evenodd" d="M33.8712 50.8461L46.576 58.9981C47.3903 59.4764 48.3978 59.4841 49.2193 59.0183L62.6153 50.8924C62.8292 50.7711 62.9408 50.5601 62.9496 50.3452L62.9818 50.3274V45.446L59.108 43.2969L49.5991 35.5392C48.7783 35.0627 47.7651 35.0628 46.9444 35.5393L35.6148 42.1176L33.5001 45.0055V50.3274L33.5497 50.3557C33.5727 50.549 33.6798 50.7337 33.8712 50.8461Z" fill="url(#paint2_linear_3401_55720)"/>
<path d="M46.7458 54.108L27.3024 42.6864C26.9237 42.4639 26.9251 41.9157 27.305 41.6952L47.1195 30.1902C47.8322 29.7764 48.7121 29.7764 49.4249 30.1901L69.2278 41.6851C69.6111 41.9076 69.6083 42.4621 69.2228 42.6808L49.0411 54.1255C48.3278 54.53 47.4528 54.5234 46.7458 54.108Z" fill="url(#paint3_linear_3401_55720)"/>
<path d="M58.8348 51.4726L58.8348 48.5721L48.041 41.1884" stroke="#EBF4FF" stroke-linecap="round"/>
<circle cx="58.8356" cy="52.7868" r="1.3141" fill="#EBF4FF"/>
<path d="M57.2793 58.6182L58.3646 53.7711H59.4497L60.3902 58.6182H57.2793Z" fill="#EBF4FF"/>
</g>
<defs>
<radialGradient id="paint0_radial_3401_55720" cx="0" cy="0" r="1" gradientUnits="userSpaceOnUse" gradientTransform="translate(46.9366 58.4464) rotate(90) scale(9.62213 13.6721)">
<stop stop-color="#5DABFF"/>
<stop offset="1" stop-color="#60ACFF" stop-opacity="0"/>
</radialGradient>
<linearGradient id="paint1_linear_3401_55720" x1="48.3584" y1="12.3511" x2="48.3584" y2="79.161" gradientUnits="userSpaceOnUse">
<stop stop-color="#017AFF" stop-opacity="0"/>
<stop offset="1" stop-color="#017AFF"/>
</linearGradient>
<linearGradient id="paint2_linear_3401_55720" x1="31.2941" y1="48.6062" x2="68.9534" y2="50.8757" gradientUnits="userSpaceOnUse">
<stop stop-color="#3C99FF"/>
<stop offset="0.424133" stop-color="#8EC4FF"/>
<stop offset="1" stop-color="#64AEFF"/>
</linearGradient>
<linearGradient id="paint3_linear_3401_55720" x1="36.0484" y1="37.2026" x2="67.1015" y2="42.8" gradientUnits="userSpaceOnUse">
<stop stop-color="#57A7FF"/>
<stop offset="1" stop-color="#ACD4FF"/>
</linearGradient>
</defs>
</svg>
