<svg width="96" height="96" viewBox="0 0 96 96" fill="none" xmlns="http://www.w3.org/2000/svg">
<path d="M41.8398 91.7621L5.28101 70.4167C4.03397 69.6886 4.02872 67.8884 5.2715 67.153L44.7521 43.7918C48.2661 41.7126 52.6482 41.7749 56.1016 43.9534L90.8879 65.8973C92.0832 66.6514 92.0606 68.4019 90.8462 69.1248L52.8946 91.7154C49.4925 93.7405 45.2589 93.7584 41.8398 91.7621Z" stroke="#017AFF"/>
<path d="M41.953 86.8769L13.4083 70.2214C12.1606 69.4934 12.1554 67.6925 13.3988 66.9572L44.3126 48.6769C47.8253 46.5998 52.2047 46.6621 55.6568 48.8384L82.7607 65.925C83.9567 66.6789 83.9341 68.4302 82.719 69.153L53.0025 86.8302C49.6017 88.8532 45.3708 88.8711 41.953 86.8769Z" fill="#017AFF"/>
<path fill-rule="evenodd" clip-rule="evenodd" d="M20.339 69.1995L42.1118 81.7052C45.4968 83.6494 49.6638 83.632 53.0324 81.6594L75.7912 68.3326C76.3941 67.9795 76.7069 67.3744 76.7266 66.7605L76.7286 66.7605V62.7318L72.1296 62.7927L55.2198 52.2991C51.7987 50.1761 47.4851 50.1151 44.0054 52.1406L24.6257 63.4214L19.3848 63.4908V67.5865L19.3891 67.5864C19.3984 68.2158 19.7153 68.8412 20.339 69.1995Z" fill="#3796FF"/>
<path d="M42.1115 77.7052L20.3386 65.1996C19.0761 64.4744 19.0708 62.6548 20.3292 61.9223L44.0051 48.1407C47.4847 46.1152 51.7983 46.1762 55.2194 48.2992L75.8325 61.0909C77.0436 61.8425 77.0209 63.6124 75.7909 64.3327L53.0321 77.6595C49.6635 79.632 45.4965 79.6495 42.1115 77.7052Z" fill="#ECF4FF"/>
<ellipse opacity="0.67" cx="50.0306" cy="59.6963" rx="18.2466" ry="3.94729" transform="rotate(30 50.0306 59.6963)" fill="url(#paint0_radial_3401_56009)"/>
<path opacity="0.2" d="M20.339 65.2357L42.1118 77.7414C45.4968 79.6856 49.6638 79.6682 53.0324 77.6956L75.7912 64.3688C76.3941 64.0158 76.7069 63.4106 76.7266 62.7968L76.7286 62.7967V58.7681V12.3775L19.3891 12.3774L19.3848 59.527V63.6227L19.3891 63.6226C19.3984 64.2521 19.7153 64.8774 20.339 65.2357Z" fill="url(#paint1_linear_3401_56009)"/>
<g class="icon_animate_snow_7">
<circle cx="66.1875" cy="61.5742" r="1" fill="#017AFF"/>
<circle cx="30.1875" cy="60.5742" r="1" fill="#017AFF"/>
<circle cx="30.1875" cy="42.5742" r="1" fill="#017AFF"/>
<circle cx="37.1875" cy="31.5742" r="1" fill="#017AFF"/>
<circle cx="31.1875" cy="30.5742" r="1" fill="#017AFF"/>
<circle cx="41.1875" cy="20.5742" r="1" fill="#017AFF"/>
<circle cx="59.1875" cy="21.5742" r="1" fill="#017AFF"/>
<circle cx="72.1875" cy="45.5742" r="1" fill="#017AFF"/>
<circle cx="70.6875" cy="55.0742" r="0.5" fill="#017AFF"/>
<circle cx="36.6875" cy="40.0742" r="0.5" fill="#017AFF"/>
<circle cx="49.6875" cy="14.0742" r="0.5" fill="#017AFF"/>
<circle cx="34.6875" cy="17.0742" r="0.5" fill="#017AFF"/>
<circle cx="63.6875" cy="23.0742" r="0.5" fill="#017AFF"/>
<circle cx="70.6875" cy="38.0742" r="0.5" fill="#017AFF"/>
<circle cx="25.6875" cy="48.0742" r="0.5" fill="#017AFF"/>
<circle cx="34.6875" cy="65.0742" r="0.5" fill="#017AFF"/>
</g>
<g class="icon_animate_7">
<path d="M36.0672 35.7201L48.0088 42.7185L45.4051 43.9269L33.4838 37.0829L36.0672 35.7201Z" fill="url(#paint2_linear_3401_56009)"/>
<path d="M33.4752 37.079L45.4175 43.9166L45.4179 54.862L33.4755 48.0166L33.4752 37.079Z" fill="url(#paint3_linear_3401_56009)"/>
<path d="M48.0168 42.6982L45.4189 43.9118V54.8401L48.0168 53.2634V42.6982Z" fill="#3D8AFF"/>
<path d="M49.3095 43.5352L61.251 50.5336L58.6674 51.7198L46.726 44.8979L49.3095 43.5352Z" fill="url(#paint4_linear_3401_56009)"/>
<path d="M46.7174 44.8939L58.6596 51.7316L58.6601 62.677L46.7177 55.8316L46.7174 44.8939Z" fill="url(#paint5_linear_3401_56009)"/>
<path d="M61.26 50.5132L58.6621 51.7268V62.6551L61.26 61.0783V50.5132Z" fill="#3D8AFF"/>
<path d="M42.0468 26.2588L53.9883 33.2572L51.4047 34.4434L39.4633 27.6216L42.0468 26.2588Z" fill="url(#paint6_linear_3401_56009)"/>
<path d="M39.4547 27.6178L51.3969 34.4554L51.3974 45.4009L39.455 38.5554L39.4547 27.6178Z" fill="url(#paint7_linear_3401_56009)"/>
<path d="M53.9963 33.2369L51.3984 34.4505V45.3788L53.9963 43.8021V33.2369Z" fill="#3D8AFF"/>
</g>
<defs>
<radialGradient id="paint0_radial_3401_56009" cx="0" cy="0" r="1" gradientUnits="userSpaceOnUse" gradientTransform="translate(50.0306 59.6963) rotate(90) scale(3.94729 18.2466)">
<stop stop-color="#479FFF" stop-opacity="0.36"/>
<stop offset="1" stop-color="#479FFF" stop-opacity="0"/>
</radialGradient>
<linearGradient id="paint1_linear_3401_56009" x1="48.0567" y1="12.3774" x2="48.0567" y2="79.1874" gradientUnits="userSpaceOnUse">
<stop stop-color="#017AFF" stop-opacity="0"/>
<stop offset="1" stop-color="#017AFF"/>
</linearGradient>
<linearGradient id="paint2_linear_3401_56009" x1="49.7172" y1="35.4138" x2="34.8983" y2="38.0504" gradientUnits="userSpaceOnUse">
<stop stop-color="#57A7FF"/>
<stop offset="1" stop-color="#ACD4FF"/>
</linearGradient>
<linearGradient id="paint3_linear_3401_56009" x1="45.418" y1="41.3673" x2="34.2316" y2="52.4995" gradientUnits="userSpaceOnUse">
<stop stop-color="#3D9AFF"/>
<stop offset="1" stop-color="#88C0FF"/>
</linearGradient>
<linearGradient id="paint4_linear_3401_56009" x1="62.9594" y1="43.2288" x2="48.1405" y2="45.8655" gradientUnits="userSpaceOnUse">
<stop stop-color="#57A7FF"/>
<stop offset="1" stop-color="#ACD4FF"/>
</linearGradient>
<linearGradient id="paint5_linear_3401_56009" x1="58.6602" y1="49.1822" x2="47.4738" y2="60.3144" gradientUnits="userSpaceOnUse">
<stop stop-color="#3D9AFF"/>
<stop offset="1" stop-color="#88C0FF"/>
</linearGradient>
<linearGradient id="paint6_linear_3401_56009" x1="55.6967" y1="25.9525" x2="40.8778" y2="28.5891" gradientUnits="userSpaceOnUse">
<stop stop-color="#57A7FF"/>
<stop offset="1" stop-color="#ACD4FF"/>
</linearGradient>
<linearGradient id="paint7_linear_3401_56009" x1="51.3975" y1="31.9061" x2="40.2111" y2="43.0383" gradientUnits="userSpaceOnUse">
<stop stop-color="#3D9AFF"/>
<stop offset="1" stop-color="#88C0FF"/>
</linearGradient>
</defs>
</svg>
