<svg width="35" height="53" viewBox="0 0 35 53" fill="none" xmlns="http://www.w3.org/2000/svg">
<g clip-path="url(#clip0_1795_29411)">
<path d="M20.6157 49.2112L4.15992 39.6032C2.91287 38.8751 2.90762 37.0749 4.1504 36.3396L22.1416 25.6939C25.6556 23.6147 30.0378 23.677 33.4911 25.8555L49.0064 35.6428C50.2017 36.3969 50.1791 38.1474 48.9647 38.8703L31.6706 49.1645C28.2684 51.1897 24.0349 51.2076 20.6157 49.2112Z" stroke="#017AFF" stroke-width="0.552083"/>
<path d="M23.1609 47.9632L7.40184 38.768C6.71302 38.3661 6.71012 37.3718 7.39658 36.9659L24.4636 26.8737C26.4029 25.7269 28.8207 25.7613 30.7265 26.9628L45.6902 36.3961C46.3504 36.8123 46.3379 37.7792 45.6671 38.1782L29.2612 47.9375C27.3836 49.0544 25.0478 49.0642 23.1609 47.9632Z" fill="#017AFF"/>
<path fill-rule="evenodd" clip-rule="evenodd" d="M11.2278 38.2043L23.2482 45.1085C25.117 46.1819 27.4175 46.1723 29.2773 45.0833L41.842 37.7257C42.1749 37.5308 42.3476 37.1967 42.3585 36.8578L42.3597 36.8578V34.6337L39.8205 34.6673L30.4849 28.8739C28.5962 27.7018 26.2147 27.6682 24.2936 28.7864L13.5944 35.0144L10.7012 35.0526V37.3138L10.7034 37.3138C10.7085 37.6613 10.8834 38.0065 11.2278 38.2043Z" fill="#5FABFF"/>
<path d="M23.2477 42.9001L11.2273 35.9959C10.5303 35.5955 10.5274 34.5909 11.2221 34.1866L24.2932 26.578C26.2142 25.4597 28.5957 25.4934 30.4844 26.6655L41.8645 33.7276C42.5332 34.1425 42.5206 35.1196 41.8416 35.5173L29.2768 42.8748C27.4171 43.9638 25.1165 43.9735 23.2477 42.9001Z" fill="white"/>
<ellipse opacity="0.56" cx="26.0265" cy="35.5047" rx="9.19083" ry="3.05742" transform="rotate(30 26.0265 35.5047)" fill="url(#paint0_radial_1795_29411)"/>
<path opacity="0.2" d="M11.1987 35.9834L23.2191 42.8876C25.0879 43.961 27.3884 43.9514 29.2482 42.8624L41.8129 35.5048C42.1458 35.3099 42.3185 34.9758 42.3294 34.6369L42.3304 34.6369V32.4128V6.80132L10.6743 6.80122L10.6719 32.8318V35.0929L10.6743 35.0929C10.6794 35.4404 10.8543 35.7856 11.1987 35.9834Z" fill="url(#paint1_linear_1795_29411)"/>
<circle cx="16.7708" cy="33.2345" r="0.552083" fill="#017AFF"/>
<circle cx="16.7708" cy="23.297" r="0.552083" fill="#017AFF"/>
<circle cx="20.6341" cy="17.2242" r="0.552083" fill="#017AFF"/>
<circle cx="17.3216" cy="16.672" r="0.552083" fill="#017AFF"/>
<circle cx="22.8431" cy="11.1512" r="0.552083" fill="#017AFF"/>
<circle cx="32.7806" cy="11.7032" r="0.552083" fill="#017AFF"/>
<circle cx="20.3581" cy="21.9169" r="0.276042" fill="#017AFF"/>
<circle cx="27.5358" cy="7.56266" r="0.276042" fill="#017AFF"/>
<circle cx="19.2546" cy="9.21891" r="0.276042" fill="#017AFF"/>
<circle cx="35.2643" cy="12.5314" r="0.276042" fill="#017AFF"/>
<circle cx="14.2858" cy="26.3334" r="0.276042" fill="#017AFF"/>
<circle cx="19.2546" cy="35.7189" r="0.276042" fill="#017AFF"/>
<path d="M19.6282 11.3323L18.3594 12.0225C18.5821 12.2492 19.0393 12.7142 19.0856 12.7606C19.1319 12.8069 26.7112 18.639 30.495 21.5493L32.4272 36.3893L33.6937 35.7035V19.4431L19.6282 11.3323Z" fill="#3D8AFF"/>
<rect width="16.2478" height="16.2478" transform="matrix(0.866025 0.5 -2.20305e-08 1 18.3574 12.0198)" fill="#82BDFF"/>
<path fill-rule="evenodd" clip-rule="evenodd" d="M32.429 20.1435L28.338 17.7816L28.338 17.7818L28.3375 17.7815L28.3375 22.4872L29.5198 23.1698L29.5198 23.1697L32.429 24.8493L32.429 24.8492L32.429 24.8492L32.429 20.1436L32.429 20.1435L32.429 20.1435ZM29.5198 21.8044L31.2467 22.8015L31.2467 20.8262L29.5198 19.8291L29.5198 21.8044ZM23.6145 15.0548L27.1883 17.1182L27.1883 18.4834L27.188 18.4832L27.188 21.8239L26.0056 21.1412L26.0056 17.8006L23.6145 16.4201L23.6145 15.0548ZM18.358 15.361L18.358 13.3857L18.3574 13.3854L18.3574 12.0201L18.358 12.0204L18.358 12.0201L19.5403 12.7027L19.5403 12.7031L22.4484 14.3821L22.4484 14.3821L22.4484 14.3821L22.4484 19.0878L22.4484 19.0877L22.4484 19.0878L18.3574 16.7259L18.3574 15.3607L18.358 15.361ZM21.2661 15.0647L21.2661 17.04L19.5403 16.0436L19.5403 14.0683L21.2661 15.0647ZM19.5403 24.2447L19.5403 24.2451L21.2661 25.2415L21.2661 25.2414L22.4484 25.924L22.4484 30.6296L22.4484 30.6296L22.4484 30.6297L18.3574 28.2678L18.3574 26.9025L18.358 26.9028L18.358 24.9277L18.3574 24.9274L18.3574 23.5621L18.358 23.5624L18.358 23.5621L19.5403 24.2447ZM19.5403 27.5855L19.5403 25.6103L21.2661 26.6067L21.2661 28.5819L19.5403 27.5855ZM24.8265 21.7729L24.8265 18.4646L23.6442 17.782L23.6442 21.0902L18.3579 18.0382L18.3579 19.4034L18.3584 19.4037L18.3584 22.2071L19.5408 22.8898L19.5408 20.0864L24.8268 23.1383L24.8268 21.773L24.8265 21.7729ZM24.8265 25.9317L24.8265 27.2439L27.1878 28.6072L27.1878 29.3L27.188 29.3001L27.188 33.3659L26.0056 32.6833L26.0056 29.2899L23.6868 27.9511L23.6868 27.951L23.6442 27.9264L23.6442 23.8836L24.8265 24.5663L24.8265 24.5664L26.0056 25.2472L26.0056 22.4534L26.0062 22.4537L26.0062 22.4535L29.5132 24.4783L29.5132 25.8435L29.5128 25.8433L29.5128 27.2718L28.3304 26.5892L28.3304 25.1607L27.188 24.5011L27.188 27.1789L27.1878 27.1787L27.1878 27.2949L24.8265 25.9317ZM32.4284 26.162L32.4284 31.6858L31.2461 31.0032L31.2461 31.0028L28.3536 29.3328L28.3536 27.9676L31.2461 29.6376L31.2461 25.4794L32.4284 26.162ZM31.2461 33.6805L29.5354 32.6928L29.5354 34.7213L28.3531 34.0387L28.3531 31.0587L28.3536 31.059L28.3536 30.6453L32.429 32.9982L32.429 34.3634L32.4284 34.3631L32.4284 36.3916L31.2461 35.709L31.2461 33.6805ZM24.8265 29.9743L24.8265 32.0026L23.6442 31.3199L23.6442 29.2917L24.8265 29.9743ZM20.6827 22.1737L22.4332 23.1843L22.4332 24.5496L20.6827 23.5389L20.6827 22.1737Z" fill="url(#paint2_linear_1795_29411)"/>
</g>
<defs>
<radialGradient id="paint0_radial_1795_29411" cx="0" cy="0" r="1" gradientUnits="userSpaceOnUse" gradientTransform="translate(26.0265 35.5047) rotate(90) scale(3.05742 9.19083)">
<stop stop-color="#479FFF" stop-opacity="0.36"/>
<stop offset="1" stop-color="#479FFF" stop-opacity="0"/>
</radialGradient>
<linearGradient id="paint1_linear_1795_29411" x1="26.5012" y1="6.80127" x2="26.5012" y2="43.6859" gradientUnits="userSpaceOnUse">
<stop stop-color="#017AFF" stop-opacity="0"/>
<stop offset="1" stop-color="#017AFF"/>
</linearGradient>
<linearGradient id="paint2_linear_1795_29411" x1="19.1845" y1="13.4837" x2="15.5835" y2="33.2428" gradientUnits="userSpaceOnUse">
<stop stop-color="#3D9AFF"/>
<stop offset="0.91199" stop-color="#3D9AFF"/>
</linearGradient>
<clipPath id="clip0_1795_29411">
<rect width="35" height="53" fill="white"/>
</clipPath>
</defs>
</svg>
