<svg width="20" height="20" viewBox="0 0 20 20" fill="none" xmlns="http://www.w3.org/2000/svg">
<path fill-rule="evenodd" clip-rule="evenodd" d="M1 2C1 1.44772 1.44772 1 2 1H18C18.5523 1 19 1.44772 19 2V18C19 18.5523 18.5523 19 18 19H2C1.44772 19 1 18.5523 1 18V2ZM15 10C15 12.7614 12.7614 15 10 15C7.23858 15 5 12.7614 5 10C5 7.23858 7.23858 5 10 5C12.7614 5 15 7.23858 15 10ZM15.5 6C16.3284 6 17 5.32843 17 4.5C17 3.67157 16.3284 3 15.5 3C14.6716 3 14 3.67157 14 4.5C14 5.32843 14.6716 6 15.5 6Z" fill="#017AFF"/>
</svg>
