<svg width="20" height="20" viewBox="0 0 20 20" fill="none" xmlns="http://www.w3.org/2000/svg">
<path d="M17.65 1H2.35C1.63 1 1 1.54268 1 2.2663V17.7337C1 18.4573 1.63 19 2.35 19H17.65C18.37 19 19 18.4573 19 17.7337V2.2663C19 1.63313 18.37 1 17.65 1ZM6.31 16.4673H3.61V7.87435H6.31V16.4673ZM4.96 6.608C4.06 6.608 3.43 5.88442 3.43 5.07035C3.43 4.25628 4.15 3.53265 4.96 3.53265C5.77 3.53265 6.49 4.25628 6.49 5.07035C6.58 5.97487 5.86 6.608 4.96 6.608ZM16.3 16.4673H13.6V12.3065C13.6 11.3116 13.6 10.0452 12.25 10.0452C10.9 10.0452 10.63 11.1307 10.63 12.3065V16.5577H7.93V7.96478H10.45V9.1407C10.81 8.41709 11.71 7.78392 12.97 7.78392C15.67 7.78392 16.21 9.59296 16.21 11.8543V16.4673H16.3Z" fill="#017AFF"/>
</svg>
