<svg width="95" height="24" viewBox="0 0 95 24" fill="none" xmlns="http://www.w3.org/2000/svg">
<path fill-rule="evenodd" clip-rule="evenodd" d="M62.6639 21.3908C66.737 24.6782 74.9609 23.8016 74.9609 17.1876V6.16772H71.1131V6.53673C70.2636 6.17908 69.2977 6 68.2153 6C66.2204 6 64.6194 6.61781 63.4122 7.85345C62.2051 9.07233 61.6016 10.5667 61.6016 12.3364C61.6016 14.1063 62.2051 15.609 63.4122 16.8445C64.6194 18.0802 66.2204 18.6979 68.2153 18.6979C69.2343 18.6979 70.1495 18.5395 70.9622 18.2226C70.2242 20.4201 66.9469 20.4422 65.0295 19.1996L62.6639 21.3908ZM71.1131 11.3781V13.3164C70.6756 14.4417 69.5208 15.2917 68.2153 15.2917C66.5284 15.2917 65.181 13.9124 65.181 12.3364C65.181 10.7847 66.5595 9.40632 68.2153 9.40632C69.4996 9.40632 70.6709 10.2605 71.1131 11.3781Z" fill="#B7B7B7"/>
<path fill-rule="evenodd" clip-rule="evenodd" d="M48.5831 8.50152C47.3662 9.6534 46.7578 11.0656 46.7578 12.7381C46.7578 14.4108 47.3662 15.8309 48.5831 16.9984C49.7999 18.1662 51.4138 18.75 53.4248 18.75C55.453 18.75 57.0754 18.1662 58.2922 16.9984C59.509 15.8309 60.1172 14.4108 60.1172 12.7381C60.1172 11.0656 59.509 9.6534 58.2922 8.50152C57.0754 7.33385 55.453 6.75 53.4248 6.75C51.4138 6.75 49.7999 7.33385 48.5831 8.50152ZM50.3658 12.7381C50.3658 11.2717 51.7554 9.96906 53.4248 9.96906C55.0714 9.96906 56.5346 11.275 56.5346 12.7381C56.5346 14.2247 55.103 15.5311 53.4248 15.5311C51.7241 15.5311 50.3658 14.2276 50.3658 12.7381Z" fill="#B7B7B7"/>
<path fill-rule="evenodd" clip-rule="evenodd" d="M80.8984 6.75H76.4453V18.75H80.8984V6.75Z" fill="#B7B7B7"/>
<path fill-rule="evenodd" clip-rule="evenodd" d="M84.3219 17.0878C86.8822 19.2883 92.1829 19.4658 94.2578 16.6388L91.6903 14.4167C90.1091 16.4901 86.4529 15.6088 86.4529 12.7382C86.4529 9.85192 90.2158 9.04552 91.6903 11.06L94.2578 8.86148C92.1782 6.02805 86.8767 6.20906 84.3219 8.43606C81.7232 10.6691 81.7498 14.846 84.3219 17.0878Z" fill="#B7B7B7"/>
<path fill-rule="evenodd" clip-rule="evenodd" d="M22.4489 13.8C20.8092 12.018 20.7857 8.999 22.4489 7.22392C24.384 5.16054 27.9061 5.51349 29.0124 8.20442L31.9141 5.48077C30.4792 3.32687 28.3824 2.25 25.6239 2.25C20.7693 2.25 17.0703 5.47884 17.0703 10.5001C17.0703 15.4888 20.8013 18.75 25.6239 18.75C27.3614 18.75 28.7912 18.3434 29.9127 17.5304C30.7081 16.9507 31.3721 16.2773 31.9048 15.5103L29.0124 12.7956C28.7437 13.4492 28.2936 13.9992 27.6617 14.4456C26.0681 15.5999 23.7732 15.1868 22.4489 13.8Z" fill="#017AFF"/>
<path fill-rule="evenodd" clip-rule="evenodd" d="M4.18214 15.0393V5.96072H6.83254C8.25897 5.96072 9.36128 6.3813 10.1394 7.22227C10.9174 8.0634 11.3065 9.1519 11.3065 10.4876C11.3065 11.7574 10.9012 12.8378 10.0907 13.7283C9.28024 14.6024 8.18604 15.0393 6.80816 15.0393H4.18214ZM13.1301 16.5235C14.7672 15.0228 15.5859 13.0109 15.5859 10.4876C15.5859 7.96446 14.7672 5.96072 13.1301 4.47645C11.5091 2.9922 9.40171 2.25 6.80816 2.25H0V18.75H6.83254C9.40985 18.75 11.5091 18.0078 13.1301 16.5235Z" fill="#017AFF"/>
<path fill-rule="evenodd" clip-rule="evenodd" d="M34.8828 2.25V18.75H45.2734V15.0393H38.9446V2.25H34.8828Z" fill="#B7B7B7"/>
<path fill-rule="evenodd" clip-rule="evenodd" d="M76.4453 2.98725C76.4453 3.61441 76.6562 4.14836 77.0778 4.58907C77.5162 5.02962 78.0476 5.25 78.6716 5.25C79.2959 5.25 79.8186 5.02962 80.2404 4.58907C80.6791 4.14836 80.8984 3.61441 80.8984 2.98725C80.8984 2.36032 80.6791 1.83484 80.2404 1.41111C79.8186 0.970386 79.2959 0.75 78.6716 0.75C78.0476 0.75 77.5162 0.970386 77.0778 1.41111C76.6562 1.83484 76.4453 2.36032 76.4453 2.98725Z" fill="#B7B7B7"/>
</svg>
