<svg width="53" height="82" viewBox="0 0 53 82" fill="none" xmlns="http://www.w3.org/2000/svg">
<ellipse cx="26.3779" cy="73.0001" rx="26.292" ry="6.72836" fill="url(#paint0_radial_1703_23585)"/>
<path fill-rule="evenodd" clip-rule="evenodd" d="M27.9579 12.2869C18.0945 6.01157 10.1172 9.84353 10.1172 20.8568C10.1172 32.1139 21.0821 53.9191 26.4886 63.9865C25.9418 66.7223 25.3557 69.5921 24.94 71.6049L29.435 70.0973L30.1404 68.7074C32.8822 66.2451 42.6399 56.5041 42.6399 42.5856C42.6399 31.5723 37.8213 18.5623 27.9579 12.2869ZM25.2462 37.4091C21.7291 35.2063 18.8746 30.2621 18.8746 26.373C18.8746 22.4839 21.7291 21.1153 25.2462 23.3181C28.7634 25.5209 31.6179 30.465 31.6179 34.3541C31.6179 38.2433 28.7634 39.6119 25.2462 37.4091Z" fill="#3D8AFF"/>
<path fill-rule="evenodd" clip-rule="evenodd" d="M7.0998 22.385C7.0998 11.3645 15.0772 7.53194 24.9405 13.8138C34.8039 20.0956 39.011 32.5529 39.011 43.5734C39.011 58.5237 24.9405 70.7672 24.9405 70.7672C24.9405 70.7672 5.444 38.6936 7.0998 22.385ZM15.8574 27.8823C15.8574 31.7714 18.7119 36.7156 22.2291 38.9184C25.7463 41.1212 28.6008 39.7526 28.6008 35.8634C28.6008 31.9743 25.7463 27.0301 22.2291 24.8273C18.7119 22.6245 15.8574 23.9931 15.8574 27.8823Z" fill="url(#paint1_linear_1703_23585)"/>
<defs>
<radialGradient id="paint0_radial_1703_23585" cx="0" cy="0" r="1" gradientUnits="userSpaceOnUse" gradientTransform="translate(26.3779 73.0001) rotate(90) scale(6.72836 26.292)">
<stop stop-color="#429DFF" stop-opacity="0.57"/>
<stop offset="1" stop-color="#449EFF" stop-opacity="0"/>
</radialGradient>
<linearGradient id="paint1_linear_1703_23585" x1="7" y1="14.3128" x2="34.5159" y2="73.1942" gradientUnits="userSpaceOnUse">
<stop stop-color="#3D9AFF"/>
<stop offset="1" stop-color="#88C0FF"/>
</linearGradient>
</defs>
</svg>
