<svg width="381" height="383" viewBox="0 0 381 383" fill="none" xmlns="http://www.w3.org/2000/svg">
<g opacity="0.9">
<path d="M380.961 209.102H136.05V235.361L258.505 297.924L380.961 235.361V209.102Z" fill="url(#paint0_linear_1832_49524)"/>
<path d="M142.91 217.561L241.948 268.23C251.095 272.91 265.96 272.91 275.107 268.23L374.1 217.561C383.248 212.881 383.248 205.277 374.1 200.597L275.063 149.928C265.916 145.248 251.051 145.248 241.904 149.928L142.91 200.597C133.719 205.277 133.719 212.881 142.91 217.561Z" fill="url(#paint1_linear_1832_49524)"/>
<path d="M380.961 209.102H136.05V232.838L258.505 297.924L380.961 232.838V209.102Z" fill="url(#paint2_linear_1832_49524)"/>
<path d="M142.91 235.561L241.948 286.23C251.095 290.91 265.96 290.91 275.107 286.23L374.1 235.561C378.674 233.221 380.961 230.161 380.961 227.102V231.601C380.961 234.661 378.674 237.721 374.1 240.061L275.063 290.73C265.916 295.41 251.051 295.41 241.904 290.73L142.91 240.061C138.337 237.721 136.05 234.661 136.05 231.601V227.102C136.05 230.161 138.337 233.221 142.91 235.561Z" fill="#8CD9FF"/>
<path d="M142.91 240.061L241.948 290.73C251.095 295.41 265.96 295.41 275.107 290.73L374.1 240.061C378.674 237.721 380.961 234.661 380.961 231.602V236.101C380.961 239.161 378.674 242.221 374.1 244.561L275.063 295.23C265.916 299.91 251.051 299.91 241.904 295.23L142.91 244.561C138.337 242.221 136.05 239.161 136.05 236.101V231.602C136.05 234.661 138.337 237.721 142.91 240.061Z" fill="white"/>
<path d="M142.91 217.561L241.948 268.23C251.095 272.91 265.96 272.91 275.107 268.23L374.1 217.561C383.248 212.881 383.248 205.277 374.1 200.597L275.063 149.928C265.916 145.248 251.051 145.248 241.904 149.928L142.91 200.597C133.719 205.277 133.719 212.881 142.91 217.561Z" fill="url(#paint3_linear_1832_49524)"/>
<path d="M258.483 266.61C264.068 266.61 269.653 265.53 273.875 263.37L363.061 217.741C367.459 215.491 369.834 212.431 369.834 209.101C369.834 205.771 367.415 202.711 363.061 200.461L273.919 154.832C265.431 150.467 251.578 150.467 243.091 154.832L153.948 200.461C149.55 202.711 147.176 205.771 147.176 209.101C147.176 212.431 149.594 215.491 153.948 217.741L243.091 263.325C247.356 265.485 252.942 266.61 258.483 266.61ZM258.483 153.797C263.716 153.797 268.949 154.832 272.907 156.857L362.05 202.441C365.656 204.286 367.635 206.626 367.635 209.056C367.635 211.486 365.656 213.826 362.05 215.671L272.907 261.3C264.948 265.35 252.018 265.35 244.058 261.3L154.916 215.671C151.31 213.826 149.331 211.486 149.331 209.056C149.331 206.626 151.31 204.286 154.916 202.441L244.058 156.857C248.06 154.787 253.293 153.797 258.483 153.797Z" fill="#D3DAF3"/>
<path opacity="0.0909091" d="M202.877 220.279L259.618 249.337C265.823 252.54 275.885 252.54 282.091 249.337L338.776 220.336C344.981 217.133 344.981 211.985 338.776 208.839L282.091 179.838C275.885 176.635 265.823 176.635 259.618 179.838L202.877 208.782C196.671 211.985 196.671 217.133 202.877 220.279Z" fill="#BEDDFF"/>
<path opacity="0.1818" d="M201.422 219.535L258.107 248.536C264.312 251.74 274.374 251.74 280.58 248.536L337.321 219.535C343.526 216.332 343.526 211.184 337.321 208.038L280.635 179.037C274.43 175.834 264.368 175.834 258.163 179.037L201.477 208.038C195.216 211.241 195.216 216.389 201.422 219.535Z" fill="#BEDDFF"/>
<path opacity="0.2727" d="M199.968 218.793L256.653 247.794C262.858 250.997 272.921 250.997 279.126 247.794L335.811 218.793C342.016 215.59 342.016 210.442 335.811 207.296L279.182 178.295C272.976 175.092 262.914 175.092 256.709 178.295L200.024 207.296C193.762 210.499 193.762 215.647 199.968 218.793Z" fill="#BEDDFF"/>
<path opacity="0.3636" d="M198.515 218.049L255.2 247.107C261.405 250.31 271.467 250.31 277.673 247.107L334.358 218.106C340.563 214.903 340.563 209.754 334.358 206.608L277.673 177.608C271.467 174.404 261.405 174.404 255.2 177.608L198.515 206.608C192.309 209.754 192.309 214.903 198.515 218.049Z" fill="#BEDDFF"/>
<path opacity="0.4545" d="M197.059 217.305L253.745 246.306C259.95 249.509 270.012 249.509 276.218 246.306L332.903 217.305C339.108 214.102 339.108 208.954 332.903 205.808L276.218 176.807C270.012 173.603 259.95 173.603 253.745 176.807L197.059 205.808C190.854 209.011 190.854 214.159 197.059 217.305Z" fill="#BEDDFF"/>
<path opacity="0.5455" d="M195.604 216.561L252.29 245.562C258.495 248.765 268.557 248.765 274.762 245.562L331.448 216.561C337.653 213.358 337.653 208.21 331.448 205.063L274.762 176.063C268.557 172.859 258.495 172.859 252.29 176.063L195.604 205.063C189.399 208.267 189.399 213.415 195.604 216.561Z" fill="#BEDDFF"/>
<path opacity="0.6364" d="M194.154 215.819L250.839 244.82C257.044 248.023 267.107 248.023 273.312 244.82L330.053 215.819C336.258 212.615 336.258 207.467 330.053 204.321L273.368 175.32C267.163 172.117 257.1 172.117 250.895 175.32L194.21 204.321C187.949 207.525 187.949 212.673 194.154 215.819Z" fill="#BEDDFF"/>
<path opacity="0.7273" d="M192.698 215.075L249.383 244.075C255.589 247.279 265.651 247.279 271.856 244.075L328.541 215.075C334.747 211.871 334.747 206.723 328.541 203.577L271.856 174.576C265.651 171.373 255.589 171.373 249.383 174.576L192.698 203.577C186.493 206.723 186.493 211.928 192.698 215.075Z" fill="#BEDDFF"/>
<path opacity="0.8182" d="M191.192 214.33L247.878 243.331C254.083 246.535 264.145 246.535 270.35 243.331L327.036 214.33C333.241 211.127 333.241 205.979 327.036 202.833L270.35 173.832C264.145 170.629 254.083 170.629 247.878 173.832L191.192 202.833C184.987 205.979 184.987 211.127 191.192 214.33Z" fill="#BEDDFF"/>
<path opacity="0.9091" d="M189.737 213.588L246.422 242.589C252.628 245.792 262.69 245.792 268.895 242.589L325.58 213.588C331.786 210.385 331.786 205.237 325.58 202.091L268.895 173.09C262.69 169.887 252.628 169.887 246.422 173.09L189.737 202.091C183.532 205.237 183.532 210.385 189.737 213.588Z" fill="#BEDDFF"/>
<path d="M188.286 212.844L244.971 241.845C251.176 245.048 261.239 245.048 267.444 241.845L324.129 212.844C330.334 209.641 330.334 204.493 324.129 201.347L267.444 172.346C261.239 169.143 251.176 169.143 244.971 172.346L188.286 201.347C182.081 204.493 182.081 209.641 188.286 212.844Z" fill="#BEDDFF"/>
<path d="M315.292 30.6012L259.054 1.8291C254.862 -0.344537 251.06 -0.51614 248.321 0.971084L185.039 33.3468C184.816 33.4612 184.592 33.5756 184.368 33.69C181.853 35.1772 180.288 38.0945 180.288 42.0986V188.876C180.288 197.399 186.996 207.695 195.325 211.928L251.563 240.7C255.756 242.874 259.557 243.045 262.297 241.615L325.578 209.24C325.802 209.125 326.026 209.011 326.249 208.896C328.765 207.409 330.33 204.549 330.33 200.488V53.6531C330.33 45.1874 323.566 34.834 315.292 30.6012Z" fill="url(#paint4_linear_1832_49524)"/>
<path d="M251.564 240.701L195.326 211.929C186.996 207.696 180.288 197.343 180.288 188.877V42.0992C180.288 33.5763 186.996 30.1442 195.326 34.4343L251.564 63.2064C259.893 67.4392 266.602 77.7926 266.602 86.2583V233.036C266.602 241.502 259.837 244.934 251.564 240.701Z" fill="#E3E5F9"/>
<path d="M251.562 232.12C255.252 234.008 258.215 232.464 258.215 228.746V81.9679C258.215 78.1926 255.252 73.6166 251.562 71.7861L195.324 43.0141C191.635 41.1264 188.672 42.6709 188.672 46.3889V193.167C188.672 196.942 191.635 201.518 195.324 203.348L251.562 232.12Z" fill="url(#paint5_linear_1832_49524)"/>
<path d="M194.319 42.5568C194.263 42.8428 194.263 43.186 194.263 43.5292V190.307C194.263 194.082 197.226 198.658 200.916 200.489L257.154 229.261C257.489 229.432 257.825 229.547 258.16 229.661C257.713 232.693 254.918 233.837 251.564 232.121L195.326 203.349C191.636 201.461 188.673 196.885 188.673 193.167V46.3893C188.673 42.9572 191.133 41.4128 194.319 42.5568Z" fill="url(#paint6_linear_1832_49524)"/>
<path d="M314.343 135.794C314.343 133.449 316.188 130.589 318.536 129.387C320.828 128.186 322.729 129.158 322.729 131.504C322.729 133.849 320.884 136.709 318.536 137.91C316.188 139.111 314.343 138.196 314.343 135.794Z" fill="#5B78E6"/>
<path d="M301.767 142.2C301.767 139.855 303.612 136.995 305.96 135.794C308.252 134.592 310.152 135.565 310.152 137.91C310.152 140.255 308.308 143.115 305.96 144.316C303.668 145.518 301.767 144.603 301.767 142.2Z" fill="#03CDFF"/>
<path d="M290.148 150.82C288.736 149.692 289.071 146.84 290.895 144.45C292.719 142.06 295.342 141.036 296.753 142.163C298.164 143.291 297.83 146.143 296.006 148.533C294.182 150.924 291.559 151.947 290.148 150.82Z" fill="#03CDFF"/>
<path d="M277.628 157.238C276.217 156.11 276.551 153.258 278.375 150.868C280.199 148.477 282.822 147.454 284.233 148.581C285.645 149.709 285.31 152.561 283.486 154.951C281.662 157.342 279.04 158.365 277.628 157.238Z" fill="#03CDFF"/>
<path d="M314.343 123.952C314.343 121.607 316.188 118.747 318.536 117.546C320.828 116.344 322.729 117.317 322.729 119.662C322.729 122.007 320.884 124.867 318.536 126.068C316.188 127.27 314.343 126.297 314.343 123.952Z" fill="#03CDFF"/>
<path d="M302.661 132.56C301.25 131.433 301.584 128.581 303.408 126.19C305.232 123.8 307.855 122.776 309.267 123.904C310.678 125.031 310.344 127.883 308.52 130.274C306.696 132.664 304.073 133.688 302.661 132.56Z" fill="white"/>
<path d="M290.142 138.974C288.73 137.847 289.065 134.995 290.889 132.604C292.713 130.214 295.336 129.19 296.747 130.318C298.159 131.445 297.824 134.297 296 136.688C294.176 139.078 291.553 140.102 290.142 138.974Z" fill="white"/>
<path d="M276.722 143.229C276.722 140.884 278.567 138.024 280.915 136.823C283.207 135.622 285.107 136.594 285.107 138.939C285.107 141.285 283.263 144.145 280.915 145.346C278.567 146.547 276.722 145.575 276.722 143.229Z" fill="#5B78E6"/>
<path d="M280.072 130.245L319.372 110.167C321.216 109.252 322.67 106.964 322.67 105.076V82.0243C322.67 80.1366 321.161 79.393 319.372 80.3082L280.072 100.386C278.227 101.301 276.774 103.589 276.774 105.477V128.529C276.774 130.473 278.227 131.217 280.072 130.245Z" fill="url(#paint7_linear_1832_49524)"/>
<path d="M280.072 130.245L319.372 110.167C321.216 109.252 322.67 106.964 322.67 105.076V82.0243C322.67 80.1366 321.161 79.393 319.372 80.3082L280.072 100.386C278.227 101.301 276.774 103.589 276.774 105.477V128.529C276.774 130.473 278.227 131.217 280.072 130.245Z" fill="url(#paint8_linear_1832_49524)"/>
<path d="M277.277 128.817L316.577 108.739C318.421 107.824 319.875 105.536 319.875 103.648V80.5964C319.875 80.4248 319.875 80.2532 319.819 80.1388C321.44 79.5668 322.67 80.3676 322.67 82.0264V105.078C322.67 106.966 321.161 109.254 319.372 110.169L280.072 130.247C278.395 131.105 276.998 130.533 276.774 129.046C276.942 128.988 277.109 128.931 277.277 128.817Z" fill="url(#paint9_linear_1832_49524)"/>
<path d="M277.001 116.802L282.647 113.884C283.709 113.312 284.604 112.168 284.939 110.967C286.001 106.506 287.063 104.561 287.734 104.275C287.846 104.217 287.958 104.217 288.07 104.275C288.964 104.675 289.97 107.421 290.418 109.194C290.585 109.88 291.48 113.312 292.933 113.999C293.324 114.17 293.716 114.17 294.107 113.999C294.498 113.827 295.616 113.255 296.902 107.936C297.126 107.078 297.797 106.162 298.579 105.762C299.641 105.247 300.536 104.046 300.871 102.845C301.71 99.527 302.493 98.1542 302.94 97.8682C302.996 97.811 303.052 97.811 303.107 97.8682C303.778 98.1542 304.561 100.328 304.896 101.701C305.12 102.501 306.182 106.62 307.859 107.421C308.306 107.65 308.754 107.592 309.145 107.421C310.319 106.792 311.493 104.275 312.555 99.8702C312.779 99.0122 313.449 98.097 314.232 97.6966L320.27 94.6077L319.766 93.5781L313.729 96.667C312.667 97.239 311.772 98.383 311.437 99.5842C310.375 104.103 309.257 106.048 308.642 106.391C308.53 106.448 308.418 106.448 308.306 106.391C307.412 105.991 306.406 103.245 305.958 101.415C305.791 100.785 304.952 97.4678 303.555 96.7814C303.163 96.6098 302.772 96.6098 302.437 96.7814C302.101 96.953 301.039 97.525 299.753 102.501C299.53 103.359 298.859 104.275 298.076 104.675C297.014 105.19 296.12 106.391 295.784 107.592C294.89 111.139 294.051 112.626 293.548 112.912C293.492 112.969 293.436 112.969 293.324 112.912C292.598 112.569 291.759 110.338 291.424 108.851C291.2 108.05 290.138 103.989 288.461 103.188C288.014 102.959 287.567 103.016 287.175 103.188C286.001 103.817 284.883 106.334 283.821 110.681C283.597 111.539 282.927 112.454 282.144 112.855L276.498 115.772L277.001 116.802Z" fill="white"/>
<path d="M307.467 181.84C308.585 181.268 309.48 181.726 309.48 182.87V199.973C309.48 201.117 308.585 202.49 307.467 203.062C306.349 203.634 305.455 203.176 305.455 202.032V184.929C305.511 183.785 306.405 182.412 307.467 181.84ZM301.486 184.929C302.604 184.357 303.498 184.814 303.498 185.958V203.062C303.498 204.206 302.604 205.578 301.486 206.15C300.368 206.722 299.473 206.265 299.473 205.121V188.018C299.473 186.874 300.368 185.501 301.486 184.929ZM313.505 178.751C314.623 178.179 315.517 178.637 315.517 179.781V196.884C315.517 198.028 314.623 199.401 313.505 199.973C312.387 200.545 311.492 200.087 311.492 198.943V181.84C311.492 180.696 312.387 179.323 313.505 178.751ZM295.448 188.018C296.566 187.446 297.461 187.903 297.461 189.047V206.15C297.461 207.294 296.566 208.667 295.448 209.239C294.33 209.811 293.436 209.354 293.436 208.21V191.107C293.436 189.963 294.33 188.59 295.448 188.018ZM289.411 191.107C290.529 190.535 291.423 190.992 291.423 192.136V209.239C291.423 210.383 290.529 211.756 289.411 212.328C288.293 212.9 287.398 212.442 287.398 211.298V194.195C287.398 193.051 288.293 191.679 289.411 191.107ZM283.373 194.195C284.491 193.623 285.386 194.081 285.386 195.225V212.328C285.386 213.472 284.491 214.845 283.373 215.417C282.255 215.989 281.361 215.531 281.361 214.387V197.284C281.361 196.14 282.255 194.767 283.373 194.195ZM277.336 197.284C278.454 196.712 279.348 197.17 279.348 198.314V215.417C279.348 216.561 278.454 217.934 277.336 218.506C276.218 219.078 275.323 218.62 275.323 217.476V200.373C275.379 199.229 276.274 197.856 277.336 197.284ZM319.542 175.662C320.66 175.09 321.555 175.548 321.555 176.692V193.795C321.555 194.939 320.66 196.312 319.542 196.884C318.424 197.456 317.53 196.998 317.53 195.854V178.751C317.53 177.607 318.424 176.234 319.542 175.662Z" fill="url(#paint10_linear_1832_49524)"/>
<path d="M203.538 69.0974C206.278 70.4702 208.514 69.3834 208.514 66.5805C208.514 63.7777 206.278 60.3456 203.538 58.9728C200.799 57.6 198.563 58.6868 198.563 61.4897C198.563 64.2925 200.799 67.6674 203.538 69.0974Z" fill="#03CDFF"/>
<path d="M217.515 76.2478C220.254 77.6206 222.49 76.5338 222.49 73.7309C222.49 70.9281 220.254 67.496 217.515 66.1232C214.776 64.7504 212.54 65.8372 212.54 68.64C212.54 71.4429 214.776 74.8177 217.515 76.2478Z" fill="#B2C0F6"/>
<path d="M253.852 130.933L244.628 126.242V116.861L253.852 121.552V130.933Z" fill="white"/>
<path d="M252.003 129.845C252.115 129.845 252.227 129.845 252.339 129.787C252.451 129.787 252.562 129.73 252.674 129.673C252.786 129.616 252.898 129.559 252.954 129.501C253.065 129.444 253.121 129.387 253.233 129.273C253.569 128.987 253.736 128.529 253.736 128.071C253.736 127.614 253.569 127.156 253.233 126.87C253.177 126.813 253.065 126.699 252.954 126.641C252.842 126.584 252.786 126.527 252.674 126.47C252.562 126.413 252.451 126.413 252.339 126.355C252.115 126.298 251.892 126.298 251.668 126.355C251.556 126.355 251.444 126.413 251.333 126.47C251.221 126.527 251.109 126.584 251.053 126.641C250.941 126.699 250.885 126.756 250.773 126.87C250.438 127.213 250.27 127.614 250.27 128.071C250.27 128.529 250.438 128.987 250.773 129.273C250.829 129.33 250.941 129.444 251.053 129.501C251.165 129.559 251.221 129.616 251.333 129.673C251.444 129.73 251.556 129.73 251.668 129.787C251.78 129.845 251.892 129.845 252.003 129.845Z" fill="#9EB4FB"/>
<path d="M246.469 127.042C246.581 127.042 246.693 127.042 246.805 126.985C246.917 126.985 247.028 126.928 247.14 126.87C247.252 126.813 247.308 126.756 247.42 126.699C247.532 126.642 247.587 126.584 247.643 126.47C247.979 126.127 248.146 125.726 248.146 125.269C248.146 124.811 247.979 124.353 247.643 124.067C247.587 124.01 247.476 123.896 247.42 123.839C247.308 123.781 247.252 123.724 247.14 123.667C247.028 123.61 246.917 123.61 246.805 123.553C246.581 123.495 246.358 123.495 246.134 123.553C246.022 123.553 245.91 123.61 245.799 123.667C245.687 123.724 245.575 123.781 245.519 123.839C245.407 123.896 245.351 123.953 245.24 124.067C244.904 124.411 244.736 124.811 244.736 125.269C244.736 125.726 244.904 126.184 245.24 126.47C245.295 126.527 245.407 126.642 245.519 126.699C245.631 126.756 245.687 126.813 245.799 126.87C245.91 126.928 246.022 126.928 246.134 126.985C246.246 126.985 246.358 127.042 246.469 127.042Z" fill="#9EB4FB"/>
<path d="M246.47 121.378C246.582 121.378 246.694 121.378 246.806 121.321C246.917 121.321 247.029 121.264 247.141 121.207C247.253 121.15 247.309 121.092 247.421 121.035C247.532 120.978 247.588 120.921 247.644 120.806C247.7 120.749 247.812 120.635 247.868 120.52C247.924 120.406 247.98 120.349 248.035 120.234C248.091 120.12 248.091 120.006 248.147 119.891C248.147 119.777 248.203 119.662 248.203 119.548C248.203 119.09 248.035 118.633 247.7 118.347C247.644 118.29 247.532 118.175 247.476 118.118C247.365 118.061 247.309 118.004 247.197 117.946C247.085 117.889 246.973 117.889 246.861 117.832C246.638 117.775 246.414 117.775 246.191 117.832C246.079 117.832 245.967 117.889 245.855 117.946C245.743 118.004 245.632 118.061 245.576 118.118C245.464 118.175 245.408 118.232 245.296 118.347C244.961 118.69 244.793 119.09 244.793 119.548C244.793 119.662 244.793 119.777 244.849 119.891C244.849 120.006 244.905 120.12 244.961 120.234C245.017 120.349 245.073 120.463 245.128 120.52C245.184 120.635 245.24 120.692 245.352 120.806C245.632 121.207 246.023 121.378 246.47 121.378Z" fill="#9EB4FB"/>
<path d="M252.003 124.183C252.115 124.183 252.227 124.183 252.339 124.125C252.451 124.125 252.562 124.068 252.674 124.011C252.786 123.954 252.898 123.897 252.954 123.839C253.065 123.782 253.121 123.725 253.233 123.611C253.569 123.325 253.736 122.867 253.736 122.409C253.736 121.952 253.569 121.494 253.233 121.208C253.177 121.151 253.065 121.036 252.954 120.979C252.842 120.922 252.786 120.865 252.674 120.808C252.562 120.75 252.451 120.75 252.339 120.693C252.115 120.636 251.892 120.636 251.668 120.693C251.556 120.693 251.444 120.75 251.333 120.808C251.221 120.865 251.109 120.922 251.053 120.979C250.941 121.036 250.885 121.094 250.773 121.208C250.438 121.551 250.27 121.952 250.27 122.409C250.27 122.867 250.438 123.325 250.773 123.611C250.829 123.668 250.941 123.782 251.053 123.839C251.165 123.897 251.221 123.954 251.333 124.011C251.444 124.068 251.556 124.068 251.668 124.125C251.78 124.183 251.892 124.183 252.003 124.183Z" fill="#9EB4FB"/>
<path d="M253.852 117.661L244.628 112.971V103.59L253.852 108.28V117.661Z" fill="#03CDFF"/>
<path d="M252.008 116.517C252.12 116.517 252.232 116.517 252.343 116.46C252.455 116.46 252.567 116.403 252.679 116.345C252.791 116.288 252.902 116.231 252.958 116.174C253.07 116.117 253.126 116.059 253.238 115.945C253.294 115.888 253.406 115.773 253.461 115.716C253.517 115.602 253.573 115.545 253.629 115.43C253.685 115.316 253.685 115.201 253.741 115.087C253.741 114.973 253.797 114.858 253.797 114.744C253.797 114.629 253.797 114.515 253.741 114.401C253.741 114.286 253.685 114.172 253.629 114.057C253.573 113.943 253.517 113.886 253.461 113.771C253.406 113.657 253.35 113.6 253.238 113.485C253.182 113.428 253.07 113.314 252.958 113.257C252.847 113.199 252.791 113.142 252.679 113.085C252.567 113.028 252.455 113.028 252.343 112.971C252.12 112.913 251.896 112.913 251.673 112.971C251.561 112.971 251.449 113.028 251.337 113.085C251.225 113.142 251.114 113.199 251.058 113.257C250.946 113.314 250.89 113.371 250.778 113.485C250.722 113.543 250.61 113.657 250.555 113.771C250.499 113.886 250.443 113.943 250.387 114.057C250.331 114.172 250.331 114.286 250.275 114.401C250.275 114.515 250.219 114.629 250.219 114.744C250.219 114.858 250.219 114.973 250.275 115.087C250.275 115.201 250.331 115.316 250.387 115.43C250.443 115.545 250.499 115.659 250.555 115.716C250.61 115.831 250.666 115.888 250.778 115.945C250.834 116.002 250.946 116.117 251.058 116.174C251.169 116.231 251.225 116.288 251.337 116.345C251.449 116.403 251.561 116.403 251.673 116.46C251.784 116.517 251.896 116.517 252.008 116.517Z" fill="#5577DA"/>
<path d="M246.471 113.714C246.583 113.714 246.695 113.714 246.807 113.657C246.919 113.657 247.03 113.6 247.142 113.543C247.254 113.486 247.31 113.428 247.422 113.371C247.534 113.314 247.589 113.257 247.645 113.142C247.981 112.799 248.148 112.399 248.148 111.941C248.148 111.827 248.148 111.712 248.093 111.598C248.093 111.484 248.037 111.369 247.981 111.255C247.925 111.14 247.869 111.026 247.813 110.969C247.757 110.854 247.701 110.797 247.589 110.683C247.534 110.626 247.422 110.511 247.366 110.454C247.254 110.397 247.198 110.34 247.086 110.282C246.974 110.225 246.863 110.225 246.751 110.168C246.527 110.111 246.304 110.111 246.08 110.168C245.968 110.168 245.856 110.225 245.745 110.282C245.633 110.34 245.521 110.397 245.465 110.454C245.353 110.511 245.297 110.568 245.186 110.683C245.13 110.74 245.018 110.854 244.962 110.969C244.906 111.083 244.85 111.14 244.794 111.255C244.738 111.369 244.738 111.484 244.682 111.598C244.682 111.712 244.627 111.827 244.627 111.941C244.627 112.399 244.794 112.856 245.13 113.142C245.186 113.2 245.297 113.314 245.409 113.371C245.521 113.428 245.577 113.486 245.689 113.543C245.801 113.6 245.912 113.6 246.024 113.657C246.248 113.714 246.36 113.714 246.471 113.714Z" fill="#5577DA"/>
<path d="M246.472 108.109C246.584 108.109 246.696 108.109 246.808 108.052C246.919 108.052 247.031 107.994 247.143 107.937C247.255 107.88 247.311 107.823 247.422 107.766C247.534 107.708 247.59 107.651 247.646 107.537C247.702 107.48 247.814 107.365 247.87 107.251C247.926 107.136 247.981 107.079 248.037 106.965C248.093 106.85 248.093 106.736 248.149 106.622C248.149 106.507 248.205 106.393 248.205 106.278C248.205 105.821 248.037 105.363 247.702 105.077C247.646 105.02 247.534 104.906 247.478 104.848C247.367 104.791 247.311 104.734 247.199 104.677C247.087 104.62 246.975 104.62 246.863 104.562C246.64 104.505 246.416 104.505 246.193 104.562C246.081 104.562 245.969 104.62 245.857 104.677C245.745 104.734 245.634 104.791 245.578 104.848C245.466 104.906 245.41 104.963 245.298 105.077C244.963 105.363 244.795 105.821 244.795 106.278C244.795 106.736 244.963 107.194 245.298 107.48C245.354 107.537 245.466 107.651 245.578 107.708C245.689 107.766 245.745 107.823 245.857 107.88C245.969 107.937 246.081 107.937 246.193 107.994C246.249 108.109 246.36 108.109 246.472 108.109Z" fill="#5577DA"/>
<path d="M252.008 110.912C252.12 110.912 252.232 110.912 252.343 110.855C252.455 110.855 252.567 110.798 252.679 110.741C252.791 110.683 252.902 110.626 252.958 110.569C253.07 110.512 253.126 110.455 253.238 110.34C253.294 110.283 253.406 110.169 253.461 110.054C253.517 109.94 253.573 109.883 253.629 109.768C253.685 109.654 253.685 109.539 253.741 109.425C253.741 109.311 253.797 109.196 253.797 109.082C253.797 108.967 253.797 108.853 253.741 108.739C253.741 108.624 253.685 108.51 253.629 108.395C253.573 108.281 253.517 108.167 253.461 108.109C253.406 107.995 253.35 107.938 253.238 107.823C253.182 107.766 253.07 107.652 252.958 107.595C252.847 107.537 252.791 107.48 252.679 107.423C252.567 107.366 252.455 107.366 252.343 107.309C252.12 107.251 251.896 107.251 251.673 107.309C251.561 107.309 251.449 107.366 251.337 107.423C251.225 107.48 251.114 107.537 251.058 107.595C250.946 107.652 250.89 107.709 250.778 107.823C250.722 107.881 250.61 107.995 250.555 108.109C250.499 108.224 250.443 108.281 250.387 108.395C250.331 108.51 250.331 108.624 250.275 108.739C250.275 108.853 250.219 108.967 250.219 109.082C250.219 109.196 250.219 109.311 250.275 109.425C250.275 109.539 250.331 109.654 250.387 109.768C250.443 109.883 250.499 109.997 250.555 110.054C250.61 110.169 250.666 110.226 250.778 110.34C250.834 110.397 250.946 110.512 251.058 110.569C251.169 110.626 251.225 110.683 251.337 110.741C251.449 110.798 251.561 110.798 251.673 110.855C251.784 110.912 251.896 110.912 252.008 110.912Z" fill="#5577DA"/>
<path d="M253.852 104.333L244.628 99.6427V90.2617L253.852 94.9522V104.333Z" fill="white"/>
<path d="M252.003 103.247C252.115 103.247 252.227 103.247 252.339 103.19C252.451 103.19 252.562 103.133 252.674 103.075C252.786 103.018 252.898 102.961 252.954 102.904C253.065 102.847 253.121 102.789 253.233 102.675C253.569 102.332 253.736 101.931 253.736 101.474C253.736 101.016 253.569 100.559 253.233 100.273C253.177 100.215 253.065 100.101 252.954 100.044C252.842 99.9865 252.786 99.9294 252.674 99.8722C252.562 99.815 252.451 99.8149 252.339 99.7577C252.115 99.7005 251.892 99.7005 251.668 99.7577C251.556 99.7577 251.444 99.815 251.333 99.8722C251.221 99.9294 251.109 99.9865 251.053 100.044C250.941 100.101 250.885 100.158 250.773 100.273C250.438 100.559 250.27 101.016 250.27 101.474C250.27 101.931 250.438 102.389 250.773 102.675C250.829 102.732 250.941 102.847 251.053 102.904C251.165 102.961 251.221 103.018 251.333 103.075C251.444 103.133 251.556 103.133 251.668 103.19C251.78 103.247 251.892 103.247 252.003 103.247Z" fill="#ED637F"/>
<path d="M246.47 100.445C246.582 100.445 246.694 100.445 246.806 100.388C246.917 100.388 247.029 100.33 247.141 100.273C247.253 100.216 247.309 100.159 247.421 100.102C247.532 100.044 247.588 99.9872 247.644 99.8728C247.7 99.8156 247.812 99.7012 247.868 99.5868C247.924 99.4724 247.98 99.4152 248.035 99.3008C248.091 99.1864 248.091 99.072 248.147 98.9576C248.147 98.8432 248.203 98.7288 248.203 98.6144C248.203 98.1568 248.035 97.6992 247.7 97.4132C247.644 97.356 247.532 97.2416 247.476 97.1844C247.365 97.1272 247.309 97.07 247.197 97.0128C247.085 96.9556 246.973 96.9556 246.861 96.8984C246.638 96.8412 246.414 96.8412 246.191 96.8984C246.079 96.8984 245.967 96.9556 245.855 97.0128C245.743 97.07 245.632 97.1272 245.576 97.1844C245.464 97.2416 245.408 97.2988 245.296 97.4132C244.961 97.7564 244.793 98.1568 244.793 98.6144C244.793 99.072 244.961 99.5296 245.296 99.8156C245.352 99.8728 245.464 99.9872 245.576 100.044C245.688 100.102 245.743 100.159 245.855 100.216C245.967 100.273 246.079 100.273 246.191 100.33C246.247 100.445 246.358 100.445 246.47 100.445Z" fill="#ED637F"/>
<path d="M246.47 94.8374C246.582 94.8374 246.694 94.8374 246.806 94.7802C246.917 94.7802 247.029 94.723 247.141 94.6658C247.253 94.6086 247.309 94.5514 247.421 94.4942C247.532 94.437 247.588 94.3798 247.644 94.2654C247.7 94.2082 247.812 94.0938 247.868 93.9794C247.924 93.865 247.98 93.8078 248.035 93.6934C248.091 93.579 248.091 93.4646 248.147 93.3502C248.147 93.2358 248.203 93.1214 248.203 93.007C248.203 92.5494 248.035 92.0918 247.7 91.8058C247.644 91.7486 247.532 91.6342 247.476 91.577C247.365 91.5198 247.309 91.4625 247.197 91.4053C247.085 91.3481 246.973 91.3481 246.861 91.2909C246.638 91.2337 246.414 91.2337 246.191 91.2909C246.079 91.2909 245.967 91.3481 245.855 91.4053C245.743 91.4625 245.632 91.5198 245.576 91.577C245.464 91.6342 245.408 91.6914 245.296 91.8058C244.961 92.149 244.793 92.5494 244.793 93.007C244.793 93.1214 244.793 93.2358 244.849 93.3502C244.849 93.4646 244.905 93.579 244.961 93.6934C245.017 93.8078 245.073 93.9222 245.128 93.9794C245.184 94.0938 245.24 94.151 245.352 94.2654C245.632 94.6086 246.023 94.8374 246.47 94.8374Z" fill="#ED637F"/>
<path d="M252.003 97.6396C252.115 97.6396 252.227 97.6396 252.339 97.5824C252.451 97.5824 252.562 97.5252 252.674 97.468C252.786 97.4108 252.898 97.3536 252.954 97.2964C253.065 97.2392 253.121 97.182 253.233 97.0676C253.569 96.7244 253.736 96.324 253.736 95.8664C253.736 95.4087 253.569 94.9511 253.233 94.6651C253.177 94.6079 253.065 94.4935 252.954 94.4363C252.842 94.3791 252.786 94.3219 252.674 94.2647C252.562 94.2075 252.451 94.2075 252.339 94.1503C252.115 94.0931 251.892 94.0931 251.668 94.1503C251.556 94.1503 251.444 94.2075 251.333 94.2647C251.221 94.3219 251.109 94.3791 251.053 94.4363C250.941 94.4935 250.885 94.5507 250.773 94.6651C250.438 95.0083 250.27 95.4087 250.27 95.8664C250.27 96.324 250.438 96.7816 250.773 97.0676C250.829 97.1248 250.941 97.2392 251.053 97.2964C251.165 97.3536 251.221 97.4108 251.333 97.468C251.444 97.5252 251.556 97.5252 251.668 97.5824C251.78 97.6396 251.892 97.6396 252.003 97.6396Z" fill="#ED637F"/>
<path d="M200.185 97.411C198.843 96.7246 197.725 95.0086 197.725 93.5786C197.725 92.2058 198.843 91.6337 200.185 92.3202C201.526 93.0066 202.645 94.7226 202.645 96.1526C202.645 97.5254 201.526 98.0975 200.185 97.411Z" fill="white"/>
<path d="M200.185 105.249C198.843 104.563 197.725 102.846 197.725 101.416C197.725 100.044 198.843 99.4716 200.185 100.158C201.526 100.844 202.645 102.56 202.645 103.991C202.645 105.421 201.526 105.993 200.185 105.249Z" fill="#B2C0F6"/>
<path d="M198.628 111.861C197.545 110.442 197.358 108.74 198.209 108.059C199.061 107.379 200.63 107.978 201.713 109.397C202.796 110.816 202.983 112.518 202.132 113.199C201.28 113.879 199.711 113.28 198.628 111.861Z" fill="#B2C0F6"/>
<path d="M231.213 115.145V119.378L221.765 114.516V110.34L231.213 115.145Z" fill="#B2C0F6"/>
<path d="M246.081 69.1543H247.199V91.2911H246.081V69.1543Z" fill="white"/>
<path d="M251.278 71.7871H252.396V93.9239H251.278V71.7871Z" fill="white"/>
<path d="M248.651 70.4707H249.77V92.6075H248.651V70.4707Z" fill="white"/>
<path d="M223.384 115.66H224.502V160.677H223.384V115.66Z" fill="white"/>
<path d="M228.528 118.293H229.646V163.31H228.528V118.293Z" fill="white"/>
<path d="M225.958 116.977H227.076V161.994H225.958V116.977Z" fill="white"/>
<path d="M219.808 97.6991L229.424 92.7798L238.815 97.5847L239.318 96.555L229.424 91.4642L219.808 96.3834L202.926 87.7461L202.423 88.7757L219.808 97.6991Z" fill="white"/>
<path d="M238.536 187.219H239.654V198.259H238.536V187.219Z" fill="white"/>
<path d="M243.737 189.85H244.855V200.889H243.737V189.85Z" fill="white"/>
<path d="M241.163 188.533H242.281V199.573H241.163V188.533Z" fill="white"/>
<path d="M238.536 208.211H239.654V220.166H238.536V208.211Z" fill="white"/>
<path d="M243.737 210.842H244.855V222.797H243.737V210.842Z" fill="white"/>
<path d="M241.163 209.525H242.281V221.48H241.163V209.525Z" fill="white"/>
<path d="M252.51 171.887L230.875 160.848V182.984L252.51 194.081V171.887Z" fill="white"/>
<path d="M237.888 180.535C235.171 176.974 234.685 172.717 236.802 171.025C238.919 169.334 242.838 170.849 245.555 174.41C248.272 177.971 248.758 182.229 246.641 183.92C244.524 185.611 240.605 184.096 237.888 180.535Z" fill="#5B78E6"/>
<path d="M217.293 186.874V158.102L220.2 159.589L220.703 158.56L216.175 156.271V185.044L211.703 182.756L211.2 183.785L217.293 186.874Z" fill="white"/>
<path d="M217.007 171.617L220.707 173.51L220.207 174.533L216.507 172.64L217.007 171.617Z" fill="white"/>
<path d="M216.986 164.175L220.686 166.068L220.186 167.092L216.486 165.199L216.986 164.175Z" fill="white"/>
<path d="M225.435 175.974L231.135 178.891L230.635 179.914L224.935 176.997L225.435 175.974Z" fill="white"/>
<path d="M225.439 161.004L231.139 163.92L230.639 164.943L224.939 162.027L225.439 161.004Z" fill="white"/>
<path d="M225.439 168.484L231.139 171.4L230.639 172.424L224.939 169.507L225.439 168.484Z" fill="white"/>
<path d="M246.418 207.696V211.928L236.97 207.123V202.891L246.418 207.696Z" fill="#B2C0F6"/>
<path d="M198.628 88.2379C197.545 86.8186 197.358 85.1165 198.209 84.4361C199.061 83.7557 200.63 84.3547 201.713 85.7739C202.796 87.1932 202.983 88.8953 202.132 89.5757C201.28 90.2561 199.711 89.6572 198.628 88.2379Z" fill="#5B78E6"/>
<path d="M239.039 96.7837L233.896 88.9472L228.417 86.0871L221.429 89.6908L194.261 75.791V70.4141L218.746 82.9411L224.56 79.9666L244.629 90.2628V99.6437L239.039 96.7837Z" fill="#5B78E6"/>
<path d="M244.629 116.861L235.405 121.609V136.195L240.716 138.941V135.452L237.362 130.246V122.524L244.629 126.242V116.861Z" fill="#5B78E6"/>
<path d="M258.102 133.163V123.724L253.853 121.551V130.932L258.102 133.163Z" fill="#5B78E6"/>
<path d="M220.423 159.075C220.423 157.76 221.485 157.188 222.771 157.874C224.057 158.561 225.119 160.162 225.119 161.478C225.119 162.794 224.057 163.366 222.771 162.679C221.485 162.05 220.423 160.391 220.423 159.075Z" fill="#5B78E6"/>
<path d="M220.423 166.568C220.423 165.252 221.485 164.68 222.771 165.366C224.057 166.053 225.119 167.654 225.119 168.97C225.119 170.286 224.057 170.858 222.771 170.171C221.485 169.542 220.423 167.883 220.423 166.568Z" fill="#5B78E6"/>
<path d="M225.176 176.464C225.176 177.78 224.114 178.352 222.828 177.665C221.542 176.979 220.48 175.377 220.48 174.062C220.48 172.746 221.542 172.174 222.828 172.861C224.114 173.49 225.176 175.149 225.176 176.464Z" fill="#03CDFF"/>
<path d="M246.418 201.975V206.208L236.97 201.346V197.113L246.418 201.975Z" fill="#5B78E6"/>
<path d="M206 97.7554L216.566 103.189L230.206 96.2109L244.629 103.59V112.971L231.771 106.393L228.529 101.359L214.33 108.624L218.858 115.488L218.802 144.889L214.553 142.715L210.976 144.546L205.944 141.972L206 97.7554Z" fill="#5B78E6"/>
<path d="M205.046 155.529H206.164V163.652H205.046V155.529Z" fill="white"/>
<path d="M207.959 156.73C207.959 158.045 206.897 158.618 205.611 157.931C204.325 157.245 203.263 155.643 203.263 154.327C203.263 153.012 204.325 152.44 205.611 153.126C206.897 153.813 207.959 155.414 207.959 156.73Z" fill="#03CDFF"/>
<path d="M205.609 163.651C202.981 162.336 200.913 163.422 200.913 166.054V180.697C200.913 183.386 203.037 186.589 205.609 187.904C208.236 189.22 210.305 188.133 210.305 185.502V170.859C210.305 168.227 208.236 164.967 205.609 163.651Z" fill="white"/>
<path fill-rule="evenodd" clip-rule="evenodd" d="M9.76062 216.761L8.37659 215.99C4.99107 214.106 4.99107 211.074 8.37659 209.19L51.1372 185.392C54.5227 183.507 59.969 183.507 63.3545 185.392L81.4311 195.458C81.5148 195.501 81.5973 195.546 81.6787 195.591L142.728 229.589C142.761 229.607 142.793 229.625 142.825 229.643L144.568 230.614C147.954 232.498 147.954 235.529 144.568 237.414L101.808 261.212C98.4222 263.096 92.9759 263.096 89.5904 261.212L86.6271 259.562C86.3797 259.451 86.1404 259.332 85.9107 259.204L84.1239 258.209L84.0689 258.179L23.0192 224.181C22.8852 224.106 22.7565 224.028 22.6333 223.949L22.6325 223.949L13.8571 219.062L12.0192 218.039C11.9966 218.026 11.9741 218.013 11.9518 218L10.1794 217.013C10.0334 216.931 9.89383 216.847 9.76062 216.761Z" fill="url(#paint11_linear_1832_49524)"/>
<path d="M125.518 150.564L59.6073 116.254C59.3337 116.048 59.0106 115.923 58.6726 115.891C58.3346 115.859 57.9944 115.922 57.6888 116.073L53.2207 118.656L56.881 170.014C56.921 170.987 57.1896 171.937 57.6641 172.782C58.1387 173.628 58.8052 174.344 59.6073 174.869L123.069 216.714L127.562 214.131C127.827 213.925 128.036 213.653 128.168 213.341C128.301 213.029 128.353 212.687 128.32 212.348V155.523C128.281 154.526 128.006 153.553 127.518 152.689C127.03 151.825 126.343 151.096 125.518 150.564Z" fill="#D5DAF2"/>
<path d="M121.048 153.199L55.037 118.647C53.5476 117.769 52.3359 118.492 52.3359 120.249V177.074C52.3851 178.036 52.6553 178.972 53.1246 179.807C53.5939 180.642 54.2492 181.351 55.037 181.878L121.048 216.43C122.538 217.308 123.749 216.611 123.749 214.828V158.003C123.696 157.042 123.424 156.108 122.955 155.273C122.486 154.439 121.833 153.729 121.048 153.199Z" fill="#E3E6F9"/>
<path d="M55.8945 178.482V123.559L120.189 156.919V211.781L55.8945 178.482Z" fill="url(#paint12_linear_1832_49524)"/>
<path d="M122.134 218.829L54.9864 183.494C54.1447 183.06 53.2153 182.834 52.2728 182.834C51.3303 182.834 50.4009 183.06 49.5591 183.494L0 207.363V213.389C0.0362559 213.731 0.157356 214.057 0.351769 214.338C0.546181 214.618 0.807446 214.843 1.11071 214.991L67.4314 249.957C68.2688 250.39 69.194 250.616 70.1325 250.616C71.0709 250.616 71.9962 250.39 72.8335 249.957L120.998 225.351C121.309 225.211 121.578 224.989 121.777 224.707C121.977 224.426 122.1 224.095 122.134 223.749V218.829Z" fill="#D8DCF7"/>
<path d="M121 216.482L54.5143 181.523C53.6725 181.089 52.7431 180.863 51.8006 180.863C50.8581 180.863 49.9287 181.089 49.0869 181.523L1.17366 205.956C-0.315699 206.86 -0.315699 208.281 1.17366 209.159L67.4331 244.096C68.2705 244.53 69.1957 244.756 70.1342 244.756C71.0726 244.756 71.9979 244.53 72.8352 244.096L121 219.684C121.32 219.565 121.598 219.347 121.794 219.06C121.989 218.774 122.094 218.433 122.094 218.083C122.094 217.733 121.989 217.392 121.794 217.106C121.598 216.819 121.32 216.601 121 216.482Z" fill="#F5F5FD"/>
<g style="mix-blend-mode:multiply">
<path d="M22.4258 198.471L50.7107 184.057L116.653 218.39L88.4794 232.804L22.4258 198.471Z" fill="#D5D5F9"/>
</g>
<g style="mix-blend-mode:multiply">
<path d="M50.381 231.215L27.2539 219.07L41.1745 211.807L64.7453 223.951L50.381 231.215Z" fill="#D5D5F9"/>
</g>
<path d="M57 178.673V125L121.29 157.601V211.214L57 178.673Z" fill="url(#paint13_linear_1832_49524)"/>
<path d="M109.133 182.834L63.5703 159.479C63.8574 158.481 65.4824 156.519 69.6855 156.66C74.9393 156.836 77.6955 163.005 83.38 166.794C89.0645 170.584 90.5287 165.208 97.7635 166.794C103.551 168.063 107.754 178.016 109.133 182.834Z" fill="#5FDEFF"/>
<path d="M322.939 276.061L325.828 275.98L333.189 282.054C334.297 282.945 333.308 285.213 331.764 284.524L324.602 281.285C322.86 280.516 322.979 277.924 322.939 276.061Z" fill="#8EAAE8"/>
<path d="M312.453 233.098L326.106 245.124L326.699 245.651C327.61 246.461 328.124 247.635 328.124 248.809L328.203 275.373C328.203 277.154 326.818 278.612 325.077 278.612C323.454 278.612 322.148 277.397 321.951 275.818L318.626 249.457L320.645 253.142L304.973 244.112C301.808 242.29 300.699 238.16 302.48 234.92C304.261 231.681 308.298 230.547 311.464 232.369C311.78 232.531 312.136 232.815 312.453 233.098Z" fill="#00438D"/>
<path d="M311.464 283.025L315.184 290.962C315.896 292.42 312.968 293.513 311.741 292.055L307.744 287.277C307.032 286.386 306.834 284.564 306.834 283.025H311.464Z" fill="#8EAAE8"/>
<path d="M305.134 240.994L308.893 250.105L309.368 251.28C309.566 251.725 309.764 252.211 309.922 252.697C310.278 253.628 310.555 254.6 310.832 255.572C311.347 257.515 311.663 259.459 311.782 261.403L311.822 262.132V262.779L311.861 263.994L311.901 266.464L312.02 271.404L312.257 281.285C312.297 283.066 310.911 284.565 309.17 284.605C307.627 284.646 306.321 283.512 306.004 282.014L304.105 272.336L303.155 267.517L302.68 265.088L302.443 263.873L302.324 263.306L302.205 262.82C301.889 261.524 301.453 260.309 300.899 259.135C300.622 258.568 300.345 258.001 299.989 257.434C299.831 257.151 299.673 256.908 299.475 256.625L298.841 255.612L293.578 247.352C291.6 244.234 292.47 240.063 295.517 238.038C298.564 236.014 302.641 236.905 304.619 240.023C304.778 240.265 304.975 240.63 305.134 240.994Z" fill="#00438D"/>
<path d="M318.31 222.246C318.073 222.651 317.836 223.056 317.479 223.502C317.4 223.623 317.282 223.745 317.163 223.866C317.044 223.988 316.925 224.109 316.767 224.23C316.45 224.473 316.015 224.716 315.461 224.838C314.868 224.959 314.234 224.838 313.759 224.635C313.522 224.514 313.364 224.392 313.166 224.271C313.008 224.149 312.889 224.028 312.77 223.907C312.295 223.421 312.058 223.016 311.82 222.611C311.345 221.801 311.068 221.072 310.752 220.303C310.475 219.574 310.198 218.845 310 218.116C309.05 215.241 308.338 212.366 307.507 209.491C307.032 207.831 307.942 206.13 309.525 205.644C311.148 205.158 312.81 206.09 313.285 207.75C313.364 208.033 313.403 208.317 313.403 208.6C313.443 210.017 313.522 211.435 313.641 212.852C313.759 214.269 313.957 215.646 314.195 216.982C314.314 217.671 314.472 218.319 314.63 218.926C314.788 219.533 315.026 220.141 315.224 220.627C315.342 220.829 315.461 221.032 315.501 221.072C315.461 221.032 315.461 221.032 315.382 220.991C315.342 220.991 315.303 220.951 315.263 220.951C315.224 220.951 315.145 220.91 315.105 220.91C314.986 220.91 314.868 220.87 314.749 220.91C314.511 220.951 314.432 221.032 314.393 221.072C314.393 221.032 314.393 221.032 314.432 220.991C314.511 220.87 314.63 220.667 314.749 220.424C315.184 219.371 316.371 218.885 317.4 219.29C318.429 219.736 318.904 220.91 318.508 222.003C318.469 222.084 318.429 222.165 318.39 222.246H318.31Z" fill="#3176FF"/>
<path d="M311.899 227.391C311.939 233.505 311.82 239.741 311.82 239.741C311.543 242.494 293.814 247.03 292.508 244.155C292.192 240.146 292.35 236.218 293.142 232.29L311.899 227.391Z" fill="#00438D"/>
<path d="M288.911 210.099C292.789 206.657 302.92 204.39 307.906 203.782C310.716 203.458 313.17 205.605 313.328 208.48C313.763 216.335 312.259 228.685 312.259 228.685C312.259 231.844 294.57 235.488 293.027 232.168C293.027 223.34 291.127 220.546 287.17 214.068C287.13 212.569 287.763 211.112 288.911 210.099Z" fill="#3176FF"/>
<path d="M303.194 203.054L302.482 208.156C300.622 208.156 298.525 207.224 298.643 205.605L299.554 200.543L303.194 203.054Z" fill="#F3ABC7"/>
<path d="M305.412 203.335C305.215 204.186 303.671 205.158 302.326 204.105L299.595 200.541C299.595 200.541 298.368 194.67 302.444 194.67C303.632 194.67 305.412 195.601 306.046 196.614C306.916 198.8 305.966 201.189 305.412 203.335Z" fill="#F3ABC7"/>
<path d="M298.76 197.303C298.76 194.185 302.124 193.294 303.983 194.063C305.171 194.59 306.991 196.169 308.891 195.035C309.405 196.615 308.257 197.627 306.477 198.194C304.854 198.68 303.113 198.315 301.847 197.181L301.807 197.141L300.936 197.019C301.728 197.91 301.886 199.409 301.609 201.231L303.627 202.284L305.804 201.636L305.566 204.106C305.487 204.673 305.012 205.118 304.458 205.159L303.746 205.199C303.469 205.199 303.152 205.118 302.955 204.916C302.955 204.916 300.58 203.377 300.62 202.526L300.778 199.651C300.58 199.287 300.343 199.287 300.184 199.449C300.026 199.651 299.037 203.458 299.037 203.458C299.037 203.458 298.76 198.558 298.76 197.303Z" fill="#00438D"/>
<path d="M314.474 228.077L307.865 229.697C307.311 229.818 306.915 229.494 306.994 228.968L309.052 217.711C309.171 217.144 309.685 216.618 310.279 216.456L316.888 214.836C317.442 214.715 317.838 215.039 317.759 215.565L315.701 226.822C315.582 227.389 315.068 227.956 314.474 228.077Z" fill="#00438D"/>
<path d="M318.39 220.627C318.508 221.963 317.361 222.732 316.411 222.975L316.569 220.829C316.292 220.384 316.173 219.817 316.253 219.29L316.49 217.266L317.559 217.792C318.627 218.399 318.825 219.25 318.39 220.627Z" fill="#F3ABC7"/>
<path d="M308.023 227.107L306.084 228.2C305.411 228.524 304.778 228.888 304.105 229.212C302.799 229.901 301.414 230.508 299.95 231.035C298.525 231.561 296.982 231.966 295.32 232.168C294.924 232.209 294.489 232.209 294.053 232.249C293.855 232.249 293.618 232.249 293.381 232.209C293.143 232.209 292.945 232.168 292.708 232.168C292.233 232.087 291.798 232.047 291.323 231.844C291.085 231.763 290.848 231.723 290.65 231.601C290.412 231.48 290.215 231.399 289.977 231.277C289.107 230.792 288.276 230.103 287.642 229.293C287.049 228.483 286.574 227.593 286.257 226.702C286.178 226.459 286.099 226.256 286.059 226.054C286.02 225.851 285.941 225.608 285.901 225.406L285.782 224.758C285.743 224.556 285.703 224.313 285.703 224.11C285.664 223.665 285.624 223.26 285.584 222.814L285.545 222.167V221.559C285.584 219.899 285.822 218.279 286.139 216.741C286.455 215.161 286.851 213.663 287.326 212.165C287.84 210.545 289.502 209.654 291.085 210.14C292.668 210.667 293.539 212.367 293.064 213.987C293.024 214.109 292.985 214.271 292.906 214.392V214.432C291.758 216.862 290.887 219.413 290.61 221.883C290.492 223.098 290.452 224.313 290.729 225.285C290.848 225.77 291.046 226.175 291.244 226.54C291.481 226.904 291.758 227.147 292.075 227.39C292.154 227.431 292.272 227.512 292.352 227.552C292.431 227.593 292.549 227.633 292.668 227.674C292.866 227.795 293.104 227.795 293.341 227.876C293.578 227.917 293.855 227.957 294.132 227.957C294.409 227.957 294.686 227.998 294.963 227.957C296.151 227.917 297.377 227.633 298.604 227.188C301.097 226.337 303.551 225.042 305.846 223.543H305.886C306.836 222.936 308.062 223.219 308.656 224.191C309.25 225.163 308.973 226.418 308.023 227.026C308.102 227.066 308.062 227.107 308.023 227.107Z" fill="#3176FF"/>
<path d="M307.942 220.587C308.022 220.385 308.259 220.304 308.457 220.385C308.655 220.466 308.773 220.709 308.694 220.911L308.299 222.207L309.05 221.357L310.515 220.385C310.713 220.263 310.95 220.304 311.029 220.506C311.148 220.668 311.108 220.911 310.95 221.033L309.763 221.964L309.605 222.207L310.436 221.842L310.792 224.475L310.317 225.001C310.317 225.001 309.446 225.932 308.694 226.621C308.259 227.026 307.586 226.985 307.19 226.54L306.043 225.284C305.726 224.92 305.687 224.394 305.924 223.948L307.942 220.587Z" fill="#F3ABC7"/>
<path d="M196.376 362.094C206.64 356.901 218.708 356.901 228.972 362.094C229.028 362.094 229.084 362.152 229.141 362.152C231.848 363.537 234.329 364.979 236.585 366.537C239.404 368.442 239.404 372.712 236.585 374.616C234.329 376.116 231.848 377.616 229.141 379.001C229.084 379.001 229.028 379.059 228.972 379.059C218.708 384.252 206.64 384.252 196.376 379.059C196.32 379.059 196.263 379.001 196.207 379.001C193.5 377.616 191.019 376.174 188.763 374.616C185.944 372.712 185.944 368.442 188.763 366.537C191.019 365.037 193.5 363.537 196.207 362.152C196.263 362.152 196.32 362.094 196.376 362.094Z" fill="#0165D3"/>
<path d="M216.624 376.059C214.425 377.733 209.857 380.56 207.658 381.31C205.402 382.06 204.274 380.214 205.628 378.54L213.636 369.135L216.455 372.251C217.47 373.347 218.034 374.963 216.624 376.059Z" fill="#1584FF"/>
<path d="M221.47 369.595C219.046 368.787 215.154 366.248 213.519 364.748C211.827 363.133 213.011 361.344 215.154 361.69L224.459 362.902V367.518C224.459 368.961 223.162 370.172 221.47 369.595Z" fill="#1584FF"/>
<path d="M230.891 294.408L231.567 299.024C231.624 299.313 231.849 299.544 232.188 299.544C232.526 299.544 232.752 299.313 232.752 298.967L232.921 295.274L230.891 294.408Z" fill="#F3ABC7"/>
<path d="M233.201 297.352L232.919 300.468C232.863 300.871 233.032 301.218 233.258 301.506L234.555 302.949L233.765 297.871L233.201 297.352Z" fill="#F3ABC7"/>
<path d="M233.991 299.198L234.555 302.949C234.612 303.237 234.893 303.468 235.175 303.41C235.401 303.352 235.57 303.179 235.627 302.949L236.303 298.909L235.57 294.005C235.401 292.793 234.273 291.985 233.145 292.158L232.694 292.216C231.623 292.389 230.833 293.312 230.89 294.466L233.991 299.198Z" fill="#F3ABC7"/>
<path d="M227.45 258.461C229.65 260.711 231.511 263.25 233.033 265.962C234.499 268.674 235.571 271.559 236.248 274.502C236.924 277.445 237.206 280.446 237.206 283.389C237.206 286.331 236.924 289.274 236.36 292.159C236.078 293.891 234.443 294.987 232.808 294.698C231.116 294.41 230.044 292.736 230.326 291.063C230.326 291.005 230.383 290.89 230.383 290.832C231.003 288.466 231.229 285.985 231.116 283.504C231.003 281.08 230.552 278.657 229.762 276.406C228.973 274.156 227.845 272.079 226.492 270.232C225.082 268.386 223.446 266.885 221.585 265.674C219.442 264.289 218.766 261.404 220.119 259.153C221.473 256.961 224.292 256.268 226.492 257.653C226.774 257.826 227.055 258.057 227.281 258.288L227.45 258.461Z" fill="#3176FF"/>
<path d="M215.834 297.582C213.691 303.121 212.056 308.776 210.985 314.604C209.913 320.432 209.406 326.433 209.518 332.434C209.688 344.552 212 356.785 215.214 368.903C215.722 370.922 214.594 372.942 212.676 373.519C210.872 374.038 208.954 373 208.278 371.269C206.022 365.21 203.992 359.036 202.3 352.746C200.608 346.399 199.311 339.878 198.578 333.185C197.845 326.491 197.732 319.682 198.296 312.873C198.86 306.064 200.157 299.313 201.962 292.792C203.09 288.811 207.15 286.503 211.041 287.657C214.932 288.811 217.188 292.965 216.06 296.947C216.004 297.12 215.947 297.351 215.834 297.582Z" fill="#0052AC"/>
<path d="M228.352 288.811L224.686 361.69C224.573 363.767 222.882 365.325 220.852 365.21C218.991 365.094 217.468 363.536 217.412 361.69L213.746 288.811C213.52 284.656 216.622 281.136 220.682 280.963C224.743 280.732 228.183 283.906 228.352 288.06C228.352 288.291 228.352 288.58 228.352 288.811Z" fill="#0052AC"/>
<path d="M220.006 298.332L210.25 301.102C205.569 302.429 201.791 299.659 201.791 294.87C201.791 290.081 205.569 285.118 210.25 283.791L220.006 281.021C224.687 279.694 228.465 282.464 228.465 287.253C228.465 292.043 224.687 297.005 220.006 298.332Z" fill="#0052AC"/>
<path d="M210.025 252.517C210.307 256.21 215.213 253.094 215.721 252.632C217.3 251.132 220.063 246.169 216.398 244.092C215.157 243.4 212.45 243.284 211.379 244.265C209.856 245.65 209.856 250.266 210.025 252.517Z" fill="#F3ABC7"/>
<path d="M211.379 254.304L218.202 247.553L218.541 261.171L212.394 260.882L213.296 254.593L211.379 254.304Z" fill="#F3ABC7"/>
<path d="M227.224 283.041C223.84 276.751 228.126 264.403 227.337 259.325C227.168 258.228 226.378 257.42 225.307 257.247C220.4 256.44 209.855 259.556 206.133 265.21C204.272 271.5 204.723 282.464 202.58 291.119C213.126 294.581 227.224 286.907 227.224 283.041Z" fill="#3176FF"/>
<path d="M183.012 238.263C182.674 238.321 182.449 238.609 182.505 238.955L182.73 240.917L181.885 239.475L180.024 237.686C179.798 237.455 179.46 237.455 179.234 237.744C179.009 237.975 179.009 238.321 179.234 238.552L180.7 240.225L180.87 240.629L179.065 239.994C178.783 239.821 178.388 239.936 178.219 240.225L177.373 241.783C177.26 242.014 177.317 242.302 177.486 242.475L178.332 243.399L179.065 244.61L180.644 246.919C181.095 247.611 182.054 247.784 182.73 247.265L184.084 246.284L184.422 245.995C185.325 245.303 185.607 244.495 185.099 243.052L183.689 238.552C183.576 238.378 183.294 238.205 183.012 238.263Z" fill="#F3ABC7"/>
<path d="M208.165 270.693C205.345 269.885 202.525 269.019 199.762 267.865C196.999 266.711 194.235 265.384 191.641 263.537C189.104 261.749 186.735 259.44 184.931 256.728C183.126 254.074 181.885 251.131 180.927 248.246C180.363 246.573 181.265 244.842 182.844 244.264C184.423 243.687 186.171 244.611 186.735 246.226C186.735 246.284 186.792 246.4 186.792 246.457C187.412 248.938 188.427 251.247 189.837 253.151C190.175 253.612 190.57 254.074 190.965 254.536C191.416 254.94 191.81 255.344 192.262 255.747C193.164 256.498 194.123 257.19 195.194 257.767C197.281 258.921 199.649 259.787 202.074 260.364C204.555 260.941 207.093 261.287 209.687 261.46H209.744C212.281 261.633 214.199 263.884 214.029 266.48C213.86 269.077 211.661 271.039 209.123 270.866C208.785 270.866 208.447 270.808 208.165 270.693Z" fill="#3176FF"/>
<path d="M238.109 257.133C236.925 256.094 235.289 255.806 233.767 255.748C232.188 255.69 230.665 255.863 229.142 255.575C227.62 255.286 226.041 254.478 225.477 252.978C224.913 251.709 225.195 250.151 224.744 248.823C224.18 247.15 222.544 246.054 220.853 245.707C220.683 245.65 220.514 245.65 220.345 245.592C220.232 244.669 219.837 243.746 219.217 242.995C216.905 240.341 213.972 239.591 210.871 239.476C206.303 239.302 203.032 242.476 211.209 245.881L213.014 246.227C210.814 250.67 217.412 249.574 217.525 252.17C217.638 254.998 206.472 258.691 208.784 265.73C211.04 272.77 224.913 273.405 229.03 272.366C233.146 271.328 237.037 268.789 238.955 264.923C239.575 263.653 240.026 262.268 239.97 260.826C239.744 259.499 239.18 258.056 238.109 257.133Z" fill="#00438D"/>
<path d="M154.464 275.461L137.988 267.031C136.755 266.4 135.653 266.355 134.86 266.761L129.97 269.285C129.882 269.33 129.838 269.33 129.75 269.375C129.001 269.826 128.561 270.637 128.561 271.854V288.713C128.561 291.193 130.543 294.213 132.966 295.475L149.442 303.904C150.676 304.536 151.777 304.581 152.57 304.175L157.46 301.651C157.548 301.605 157.592 301.606 157.636 301.56C158.385 301.11 158.826 300.298 158.826 299.081V282.222C158.826 279.698 156.887 276.678 154.464 275.461Z" fill="url(#paint14_linear_1832_49524)"/>
<path d="M149.442 303.858L132.966 295.429C130.543 294.167 128.561 291.147 128.561 288.667V271.808C128.561 269.329 130.543 268.292 132.966 269.555L149.442 277.984C151.865 279.246 153.848 282.266 153.848 284.746V301.605C153.848 304.084 151.865 305.121 149.442 303.858Z" fill="url(#paint15_linear_1832_49524)"/>
<path d="M116.97 256.258L100.494 247.828C99.2605 247.197 98.1591 247.152 97.3662 247.558L92.4761 250.082C92.388 250.127 92.344 250.127 92.2558 250.172C91.5069 250.623 91.0664 251.434 91.0664 252.651V269.51C91.0664 271.99 93.0488 275.01 95.4718 276.272L111.948 284.701C113.182 285.332 114.283 285.377 115.076 284.972L119.966 282.447C120.054 282.402 120.098 282.402 120.142 282.357C120.891 281.907 121.332 281.095 121.332 279.878V263.019C121.376 260.54 119.437 257.52 116.97 256.258Z" fill="url(#paint16_linear_1832_49524)"/>
<path d="M111.995 284.7L95.5187 276.271C93.0957 275.009 91.1133 271.988 91.1133 269.509V252.65C91.1133 250.171 93.0957 249.134 95.5187 250.396L111.995 258.826C114.418 260.088 116.4 263.108 116.4 265.587V282.446C116.4 284.926 114.418 285.917 111.995 284.7Z" fill="url(#paint17_linear_1832_49524)"/>
</g>
<defs>
<linearGradient id="paint0_linear_1832_49524" x1="378.527" y1="411.963" x2="134" y2="411.963" gradientUnits="userSpaceOnUse">
<stop stop-color="#E1E3F8"/>
<stop offset="0.5" stop-color="#D3D7F2"/>
<stop offset="1" stop-color="#F2F3FF"/>
</linearGradient>
<linearGradient id="paint1_linear_1832_49524" x1="380.976" y1="209.08" x2="136.028" y2="209.08" gradientUnits="userSpaceOnUse">
<stop stop-color="#E8EAFB"/>
<stop offset="1" stop-color="white"/>
</linearGradient>
<linearGradient id="paint2_linear_1832_49524" x1="378.527" y1="411.963" x2="134" y2="411.963" gradientUnits="userSpaceOnUse">
<stop stop-color="#E1E3F8"/>
<stop offset="0.5" stop-color="#D3D7F2"/>
<stop offset="1" stop-color="#F2F3FF"/>
</linearGradient>
<linearGradient id="paint3_linear_1832_49524" x1="380.976" y1="209.08" x2="136.028" y2="209.08" gradientUnits="userSpaceOnUse">
<stop stop-color="#E8EAFB"/>
<stop offset="1" stop-color="white"/>
</linearGradient>
<linearGradient id="paint4_linear_1832_49524" x1="304.185" y1="220.256" x2="202.932" y2="24.4151" gradientUnits="userSpaceOnUse">
<stop stop-color="#68A1DF"/>
<stop offset="0.5769" stop-color="#7AB6F6"/>
<stop offset="0.7279" stop-color="#AFD5FE"/>
<stop offset="1" stop-color="#BADBFE"/>
</linearGradient>
<linearGradient id="paint5_linear_1832_49524" x1="254.612" y1="74.9611" x2="189.657" y2="199.549" gradientUnits="userSpaceOnUse">
<stop stop-color="#C5D0F9"/>
<stop offset="1" stop-color="#E3E5F9"/>
</linearGradient>
<linearGradient id="paint6_linear_1832_49524" x1="249.38" y1="236.089" x2="158.172" y2="59.678" gradientUnits="userSpaceOnUse">
<stop stop-color="#90A4F2"/>
<stop offset="0.2721" stop-color="#AAB9F3"/>
<stop offset="0.4231" stop-color="#697DCF"/>
<stop offset="1" stop-color="#7D91E4"/>
</linearGradient>
<linearGradient id="paint7_linear_1832_49524" x1="320.765" y1="105.288" x2="273.521" y2="105.288" gradientUnits="userSpaceOnUse">
<stop stop-color="#1487FB"/>
<stop offset="1" stop-color="#22D2FD"/>
</linearGradient>
<linearGradient id="paint8_linear_1832_49524" x1="320.765" y1="105.288" x2="273.521" y2="105.288" gradientUnits="userSpaceOnUse">
<stop stop-color="#1487FB"/>
<stop offset="1" stop-color="#22D2FD"/>
</linearGradient>
<linearGradient id="paint9_linear_1832_49524" x1="318.794" y1="79.3155" x2="289.202" y2="136.075" gradientUnits="userSpaceOnUse">
<stop stop-color="#C5D0F9"/>
<stop offset="1" stop-color="#E3E5F9"/>
</linearGradient>
<linearGradient id="paint10_linear_1832_49524" x1="311.338" y1="171.205" x2="284.488" y2="222.704" gradientUnits="userSpaceOnUse">
<stop stop-color="#C5D0F9"/>
<stop offset="1" stop-color="#E3E5F9"/>
</linearGradient>
<linearGradient id="paint11_linear_1832_49524" x1="94.8328" y1="223.473" x2="127.2" y2="249.13" gradientUnits="userSpaceOnUse">
<stop stop-color="#0064D3"/>
<stop offset="1" stop-color="#017AFF" stop-opacity="0"/>
</linearGradient>
<linearGradient id="paint12_linear_1832_49524" x1="88.042" y1="123.559" x2="88.042" y2="211.781" gradientUnits="userSpaceOnUse">
<stop stop-color="#017AFF"/>
<stop offset="0.527895" stop-color="#3570B0"/>
<stop offset="1" stop-color="#4C59DA"/>
</linearGradient>
<linearGradient id="paint13_linear_1832_49524" x1="89.145" y1="125" x2="89.145" y2="211.214" gradientUnits="userSpaceOnUse">
<stop stop-color="#4B8ED8"/>
<stop offset="0.527895" stop-color="#017AFF"/>
<stop offset="1" stop-color="#4C59DA"/>
</linearGradient>
<linearGradient id="paint14_linear_1832_49524" x1="156.076" y1="300.97" x2="130.721" y2="270.559" gradientUnits="userSpaceOnUse">
<stop stop-color="#2962D4"/>
<stop offset="1" stop-color="#3176FF"/>
</linearGradient>
<linearGradient id="paint15_linear_1832_49524" x1="141.204" y1="299.889" x2="141.204" y2="272.796" gradientUnits="userSpaceOnUse">
<stop stop-color="#3176FF"/>
<stop offset="1" stop-color="#66B3FF"/>
</linearGradient>
<linearGradient id="paint16_linear_1832_49524" x1="98.1227" y1="250.986" x2="115.587" y2="282.365" gradientUnits="userSpaceOnUse">
<stop stop-color="#E1E3F8"/>
<stop offset="1" stop-color="#D3D7F2"/>
</linearGradient>
<linearGradient id="paint17_linear_1832_49524" x1="103.747" y1="284.985" x2="103.747" y2="253.956" gradientUnits="userSpaceOnUse">
<stop stop-color="#E8EAFB"/>
<stop offset="1" stop-color="white"/>
</linearGradient>
</defs>
</svg>
