<svg width="56" height="56" viewBox="0 0 56 56" fill="none" xmlns="http://www.w3.org/2000/svg">
<path d="M28.0193 8.88715e-05C12.6104 -0.0384746 0.0497285 12.4781 0.000146861 27.9201C-0.0494348 43.3951 12.4617 55.9558 27.9697 55.9998C43.4007 56.0439 55.9613 43.5218 55.9999 28.0523C56.0385 12.5856 43.486 -0.00266567 28.0193 8.88715e-05ZM28 52.9726C14.2108 52.9698 3.0081 41.7616 3.02738 27.9889C3.04667 14.1887 14.2301 3.01631 28.0055 3.02733C41.8085 3.03834 52.9782 14.219 52.9672 28.0165C52.9589 41.8029 41.781 52.9753 28 52.9726Z" fill="#4E7DD8"/>
<path d="M40.9559 27.7832C40.9559 25.8248 40.9559 23.8663 40.9531 21.9051C40.9531 21.7783 40.9889 21.748 41.1129 21.748C42.4075 21.7536 43.6994 21.7536 44.994 21.748C45.1262 21.748 45.1593 21.7783 45.1593 21.9106C45.1538 24.6458 45.1565 27.3783 45.1538 30.1136C45.1538 30.2541 45.1868 30.2844 45.3246 30.2844C46.6192 30.2789 47.9111 30.2816 49.2057 30.2788C49.3159 30.2788 49.3517 30.3009 49.3517 30.4193C49.3462 31.5019 49.3462 32.5844 49.3517 33.6669C49.3517 33.7826 49.3187 33.8102 49.2057 33.8102C46.5035 33.8074 43.8013 33.8074 41.0991 33.8102C40.9724 33.8102 40.9531 33.7716 40.9531 33.6559C40.9586 31.7029 40.9559 29.7445 40.9559 27.7832Z" fill="#4E7DD8"/>
<path d="M39.8428 30.4133C39.8428 30.3031 39.8097 30.2783 39.705 30.2811C38.4076 30.2838 37.1075 30.2811 35.8101 30.2866C35.6724 30.2866 35.6476 30.248 35.6476 30.1186C35.6503 27.3806 35.6503 24.6398 35.6531 21.9018C35.6531 21.7833 35.6311 21.7475 35.5044 21.7475C34.2015 21.753 32.8986 21.753 31.5957 21.7475C31.4607 21.7475 31.4414 21.7916 31.4414 21.91C31.4442 23.1992 31.4414 24.4883 31.4469 25.7774C31.4469 25.8903 31.4166 25.9592 31.3257 26.0281C30.7252 26.4936 30.1275 26.9674 29.5298 27.4384C28.2682 28.43 27.0066 29.4217 25.7478 30.4161C25.6679 30.4794 25.6211 30.4684 25.5522 30.4105C25.3897 30.2756 25.2217 30.1489 25.0564 30.0194C24.8884 29.8872 24.7203 29.755 24.544 29.6172C24.5964 29.5759 24.6349 29.5429 24.6735 29.5126C26.5218 28.0582 28.3701 26.6038 30.2211 25.1494C30.3148 25.075 30.3203 25.042 30.2211 24.9676C29.5105 24.4167 28.8026 23.863 28.0974 23.3038C28.012 23.235 27.9624 23.235 27.8798 23.3011C27.0231 23.9787 26.1665 24.6508 25.3071 25.3257C24.3016 26.1162 23.2935 26.9068 22.2881 27.6973C22.2357 27.7386 22.1944 27.7717 22.1256 27.7166C21.7868 27.4439 21.4424 27.1795 21.0871 26.9013C21.1367 26.8599 21.1697 26.8296 21.2055 26.8021C23.0594 25.3449 24.9104 23.8878 26.767 22.4334C26.8441 22.3728 26.8744 22.3425 26.7752 22.2626C26.0535 21.7034 25.3374 21.136 24.6239 20.5686C24.5496 20.5107 24.5082 20.5218 24.4394 20.5741C22.9519 21.7475 21.4645 22.9182 19.9743 24.0889C19.4179 24.5241 18.8614 24.9593 18.3105 25.4C18.2279 25.4661 18.1976 25.4579 18.1645 25.3587C18.1315 25.2651 18.0847 25.1742 18.0378 25.086C16.8671 22.9237 15.0409 21.8081 12.5866 21.7613C10.8292 21.7282 9.07181 21.7558 7.31441 21.7503C7.18495 21.7503 7.16016 21.7861 7.16016 21.9073C7.16291 25.8215 7.16291 29.7329 7.16016 33.6471C7.16016 33.7793 7.20147 33.8014 7.31992 33.8014C9.03049 33.7986 10.7438 33.8014 12.4544 33.7986C12.9089 33.7986 13.3606 33.7711 13.8069 33.6719C15.8094 33.2257 17.2721 32.0936 18.1535 30.2315C18.2059 30.1213 18.2279 30.0883 18.3408 30.1792C20.3599 31.774 22.3817 33.3634 24.4008 34.9583C24.5055 35.0409 24.5688 35.0409 24.6735 34.9583C26.8854 33.2092 29.1028 31.4655 31.3175 29.7219C31.3533 29.6944 31.3836 29.6503 31.4442 29.6475C31.4442 29.7054 31.4442 29.755 31.4442 29.8045C31.4442 31.0937 31.4469 32.3828 31.4414 33.6719C31.4414 33.7876 31.4745 33.8152 31.5846 33.8152C34.2924 33.8124 36.9973 33.8124 39.705 33.8152C39.818 33.8152 39.8372 33.7821 39.8372 33.6774C39.8372 32.5894 39.8372 31.5013 39.8428 30.4133ZM14.4762 29.0746C14.1126 29.7908 13.4928 30.1461 12.7243 30.2838C12.2478 30.3692 11.763 30.3279 11.2837 30.3389C11.179 30.3417 11.2066 30.2728 11.2066 30.2177C11.2066 29.7136 11.2066 29.2096 11.2066 28.7055C11.2066 28.3942 11.2066 28.083 11.2066 27.7689C11.2066 26.9619 11.2093 26.1548 11.2038 25.3477C11.2038 25.2375 11.2369 25.21 11.3415 25.2155C11.8181 25.232 12.2946 25.1907 12.7684 25.2706C13.8619 25.4579 14.625 26.2787 14.7379 27.3888C14.7957 27.9755 14.7462 28.5457 14.4762 29.0746Z" fill="#4E7DD8"/>
</svg>
