<svg width="565" height="515" viewBox="0 0 565 515" fill="none" xmlns="http://www.w3.org/2000/svg">
<path d="M220.074 215.599C223.703 217.694 229.634 214.331 233.233 208.017C238.839 198.103 247.189 189.104 257.928 189.104L275.631 197.956C264.891 197.956 256.542 206.955 250.936 216.868C247.366 223.182 241.406 226.545 237.777 224.451L220.074 215.599Z" fill="url(#paint0_linear_2422_68284)"/>
<path d="M197.18 202.381L220.075 215.599L237.778 224.451L214.882 211.233L197.18 202.381Z" fill="url(#paint1_linear_2422_68284)"/>
<path d="M197.18 202.381C191.397 199.047 182.044 204.447 176.291 214.449L153.1 254.634C149.471 260.918 143.57 264.311 139.941 262.216L157.644 271.067C161.273 273.162 167.174 269.769 170.803 263.485L193.993 223.3C199.776 213.298 209.129 207.899 214.882 211.233L197.18 202.381Z" fill="url(#paint2_linear_2422_68284)"/>
<path d="M134.068 258.823L139.94 262.216L157.642 271.068L151.771 267.704L134.068 258.823Z" fill="url(#paint3_linear_2422_68284)"/>
<path d="M134.07 258.823C130.441 256.728 124.54 260.121 120.911 266.406L112.827 280.391C109.198 286.675 103.297 290.068 99.668 287.973L117.371 296.825C121 298.92 126.9 295.527 130.529 289.242L138.614 275.257C142.243 268.973 148.143 265.58 151.773 267.675L134.07 258.823Z" fill="url(#paint4_linear_2422_68284)"/>
<path d="M99.6968 288.002C96.0678 285.908 90.1669 289.301 86.5379 295.585L66.9766 329.456L84.6791 338.307L104.24 304.436C107.869 298.152 113.77 294.759 117.399 296.854L99.6968 288.002Z" fill="url(#paint5_linear_2422_68284)"/>
<path d="M221.194 168.156C211.576 170.428 202.725 176.329 194.316 184.502C191.248 187.482 188.091 187.216 185.76 185.977L203.462 194.828C205.793 196.067 208.921 196.333 212.019 193.353C220.427 185.18 229.308 179.279 238.897 177.008L221.194 168.156Z" fill="url(#paint6_linear_2422_68284)"/>
<path d="M168.648 163.051C175.582 165.854 178.709 182.288 185.731 185.976L203.434 194.827C196.412 191.11 193.255 174.705 186.351 171.903L168.648 163.051Z" fill="url(#paint7_linear_2422_68284)"/>
<path d="M168.648 163.052C166.671 162.255 164.4 162.55 161.626 164.586C149.323 173.585 145.369 213.593 130.44 224.539C122.533 230.322 113.888 222.916 102.559 231.236C92.6746 238.465 84.974 256.875 73.8214 265.048C70.0449 267.821 67.0944 267.674 64.498 266.317L82.2006 275.168C84.797 276.525 87.7474 276.673 91.524 273.899C102.677 265.727 110.377 247.316 120.261 240.087C131.591 231.797 140.236 239.173 148.143 233.39C163.072 222.444 167.025 182.466 179.329 173.437C182.102 171.431 184.374 171.106 186.351 171.903L168.648 163.052Z" fill="url(#paint8_linear_2422_68284)"/>
<path d="M64.5266 266.257C60.9566 264.398 58.0062 260.238 54.3477 258.261L72.0502 267.113C75.6792 269.089 78.6297 273.249 82.2292 275.108L64.5266 266.257Z" fill="url(#paint9_linear_2422_68284)"/>
<path d="M54.3486 258.262C51.5457 256.728 48.3002 256.492 44.0516 259.59C31.1583 269.031 31.6008 295.467 13.2787 308.862C7.82038 312.874 3.66028 312.402 0.03125 310.514L17.7338 319.365C21.3923 321.253 25.5229 321.726 30.9812 317.713C49.3034 304.318 48.8313 277.882 61.7542 268.441C66.0028 265.343 69.2188 265.579 72.0512 267.113L54.3486 258.262Z" fill="url(#paint10_linear_2422_68284)"/>
<path d="M390.357 80.125L367.167 120.31C363.538 126.594 357.637 129.987 354.008 127.892L371.71 136.744C375.339 138.838 381.24 135.446 384.869 129.161L408.06 88.9763L390.357 80.125Z" fill="url(#paint11_linear_2422_68284)"/>
<path d="M348.135 124.529L354.006 127.892L371.709 136.744L365.837 133.38L348.135 124.529Z" fill="url(#paint12_linear_2422_68284)"/>
<path d="M348.136 124.529C344.507 122.434 338.606 125.827 334.977 132.112L326.893 146.097C323.264 152.381 317.363 155.774 313.734 153.679L331.437 162.531C335.066 164.626 340.967 161.233 344.596 154.948L352.68 140.963C356.309 134.679 362.21 131.286 365.839 133.381L348.136 124.529Z" fill="url(#paint13_linear_2422_68284)"/>
<path d="M313.763 153.709C310.134 151.614 304.233 155.007 300.604 161.292L281.043 195.162L298.746 204.014L318.307 170.143C321.936 163.858 327.837 160.465 331.466 162.56L313.763 153.709Z" fill="url(#paint14_linear_2422_68284)"/>
<path d="M357.518 72.3057C347.634 79.5342 339.933 97.9449 328.78 106.118C325.004 108.891 322.053 108.743 319.457 107.386L337.16 116.238C339.756 117.595 342.706 117.742 346.483 114.969C357.636 106.796 365.336 88.3855 375.22 81.1569L357.518 72.3057Z" fill="url(#paint15_linear_2422_68284)"/>
<path d="M319.456 107.386C315.886 105.527 312.936 101.367 309.277 99.3901L326.98 108.241C330.609 110.218 333.559 114.378 337.159 116.237L319.456 107.386Z" fill="url(#paint16_linear_2422_68284)"/>
<path d="M309.278 99.3605C306.475 97.8262 303.23 97.5902 298.981 100.688C286.058 110.159 286.53 136.565 268.208 149.96C262.75 153.973 258.59 153.501 254.961 151.613L272.663 160.464C276.322 162.352 280.453 162.824 285.911 158.812C304.233 145.417 303.761 118.981 316.684 109.539C320.932 106.441 324.148 106.678 326.981 108.212L309.278 99.3605Z" fill="url(#paint17_linear_2422_68284)"/>
<path d="M336.043 158.493L234.962 209.033C225.626 213.701 210.454 213.701 201.118 209.033L100.082 158.493C90.7461 153.824 90.7461 146.239 100.082 141.571L201.163 91.0303C210.499 86.3623 225.67 86.3623 235.007 91.0303L336.088 141.571C345.424 146.239 345.424 153.824 336.043 158.493Z" fill="url(#paint18_linear_2422_68284)"/>
<path d="M93.0801 150.054H343.09V209.923L218.085 273.86L93.0801 209.923V150.054Z" fill="url(#paint19_linear_2422_68284)"/>
<path d="M336.043 176.447L234.962 226.987C225.626 231.655 210.454 231.655 201.118 226.987L100.082 176.447C95.4141 174.113 93.0801 171.06 93.0801 168.008V172.497C93.0801 175.549 95.4141 178.601 100.082 180.935L201.163 231.476C210.499 236.144 225.67 236.144 235.007 231.476L336.043 180.935C340.711 178.601 343.045 175.549 343.045 172.497V168.008C343.09 171.06 340.711 174.113 336.043 176.447Z" fill="#8CD9FF"/>
<path d="M336.043 180.935L234.962 231.476C225.626 236.144 210.454 236.144 201.118 231.476L100.082 180.935C95.4141 178.601 93.0801 175.549 93.0801 172.497V176.986C93.0801 180.038 95.4141 183.09 100.082 185.424L201.163 235.964C210.499 240.633 225.67 240.633 235.007 235.964L336.043 185.424C340.711 183.09 343.045 180.038 343.045 176.986V172.497C343.09 175.549 340.711 178.601 336.043 180.935Z" fill="white"/>
<path d="M336.043 193.503L234.962 244.043C225.626 248.711 210.454 248.711 201.118 244.043L100.082 193.503C95.4141 191.169 93.0801 188.117 93.0801 185.064V189.553C93.0801 192.605 95.4141 195.657 100.082 197.991L201.163 248.532C210.499 253.2 225.67 253.2 235.007 248.532L336.043 197.991C340.711 195.657 343.045 192.605 343.045 189.553V185.064C343.09 188.117 340.711 191.169 336.043 193.503Z" fill="#8CD9FF"/>
<path d="M336.043 197.992L234.962 248.533C225.626 253.201 210.454 253.201 201.118 248.533L100.082 197.992C95.4141 195.658 93.0801 192.606 93.0801 189.554V194.042C93.0801 197.094 95.4141 200.147 100.082 202.481L201.163 253.021C210.499 257.689 225.67 257.689 235.007 253.021L336.043 202.481C340.711 200.147 343.045 197.094 343.045 194.042V189.554C343.09 192.606 340.711 195.658 336.043 197.992Z" fill="white"/>
<path d="M336.043 210.56L234.962 261.1C225.626 265.769 210.454 265.769 201.118 261.1L100.082 210.56C95.4141 208.226 93.0801 205.174 93.0801 202.122V206.61C93.0801 209.662 95.4141 212.714 100.082 215.048L201.163 265.589C210.499 270.257 225.67 270.257 235.007 265.589L336.043 215.048C340.711 212.714 343.045 209.662 343.045 206.61V202.122C343.09 205.129 340.711 208.226 336.043 210.56Z" fill="#8CD9FF"/>
<path d="M336.043 215.049L234.962 265.589C225.626 270.257 210.454 270.257 201.118 265.589L100.082 215.049C95.4141 212.715 93.0801 209.663 93.0801 206.61V211.099C93.0801 214.151 95.4141 217.203 100.082 219.537L201.163 270.078C210.499 274.746 225.67 274.746 235.007 270.078L336.043 219.537C340.711 217.203 343.045 214.151 343.045 211.099V206.61C343.09 209.618 340.711 212.715 336.043 215.049Z" fill="white"/>
<path d="M336.043 158.493L234.962 209.033C225.626 213.701 210.454 213.701 201.118 209.033L100.082 158.493C90.7461 153.824 90.7461 146.239 100.082 141.571L201.163 91.0303C210.499 86.3623 225.67 86.3623 235.007 91.0303L336.088 141.571C345.424 146.239 345.424 153.824 336.043 158.493Z" fill="url(#paint20_linear_2422_68284)"/>
<path opacity="0.090909" d="M171.854 159.884L199.772 173.843L171.854 187.847L143.891 173.843L171.854 159.884Z" fill="#BEDDFF"/>
<path opacity="0.1818" d="M172.706 159.435L200.669 173.439L172.706 187.398L144.742 173.439L172.706 159.435Z" fill="#BEDDFF"/>
<path opacity="0.2727" d="M173.559 159.032L201.522 172.991L173.559 186.995L145.596 172.991L173.559 159.032Z" fill="#BEDDFF"/>
<path opacity="0.3636" d="M174.413 158.582L202.376 172.586L174.413 186.545L146.494 172.586L174.413 158.582Z" fill="#BEDDFF"/>
<path opacity="0.4545" d="M175.309 158.178L203.228 172.137L175.309 186.141L147.346 172.137L175.309 158.178Z" fill="#BEDDFF"/>
<path opacity="0.5455" d="M176.163 157.729L204.126 171.688L176.163 185.692L148.199 171.688L176.163 157.729Z" fill="#BEDDFF"/>
<path opacity="0.6364" d="M177.014 157.281L204.978 171.285L177.014 185.244L149.051 171.285L177.014 157.281Z" fill="#BEDDFF"/>
<path opacity="0.7273" d="M177.868 156.876L205.831 170.835L177.868 184.839L149.904 170.835L177.868 156.876Z" fill="#BEDDFF"/>
<path opacity="0.8182" d="M178.721 156.427L206.685 170.431L178.721 184.39L150.803 170.431L178.721 156.427Z" fill="#BEDDFF"/>
<path opacity="0.9091" d="M179.618 156.023L207.536 169.983L179.618 183.942L151.654 169.983L179.618 156.023Z" fill="#BEDDFF"/>
<path d="M180.471 155.575L208.435 169.534L180.471 183.538L152.508 169.534L180.471 155.575Z" fill="#BEDDFF"/>
<path opacity="0.090909" d="M211.846 139.865L239.81 153.869L211.846 167.828L183.928 153.869L211.846 139.865Z" fill="#BEDDFF"/>
<path opacity="0.1818" d="M212.743 139.417L240.661 153.421L212.743 167.38L184.779 153.421L212.743 139.417Z" fill="#BEDDFF"/>
<path opacity="0.2727" d="M213.596 139.013L241.56 152.972L213.596 166.976L185.633 152.972L213.596 139.013Z" fill="#BEDDFF"/>
<path opacity="0.3636" d="M214.45 138.563L242.413 152.567L214.45 166.526L186.486 152.567L214.45 138.563Z" fill="#BEDDFF"/>
<path opacity="0.4545" d="M215.301 138.159L243.265 152.118L215.301 166.123L187.383 152.118L215.301 138.159Z" fill="#BEDDFF"/>
<path opacity="0.5455" d="M216.2 137.71L244.118 151.67L216.2 165.674L188.236 151.67L216.2 137.71Z" fill="#BEDDFF"/>
<path opacity="0.6364" d="M217.051 137.262L245.015 151.266L217.051 165.225L189.088 151.266L217.051 137.262Z" fill="#BEDDFF"/>
<path opacity="0.7273" d="M217.905 136.857L245.868 150.817L217.905 164.821L189.941 150.817L217.905 136.857Z" fill="#BEDDFF"/>
<path opacity="0.8182" d="M218.758 136.409L246.722 150.413L218.758 164.372L190.795 150.413L218.758 136.409Z" fill="#BEDDFF"/>
<path opacity="0.9091" d="M219.61 136.005L247.573 149.964L219.61 163.923L191.691 149.964L219.61 136.005Z" fill="#BEDDFF"/>
<path d="M220.508 135.556L248.427 149.515L220.508 163.52L192.545 149.515L220.508 135.556Z" fill="#BEDDFF"/>
<path opacity="0.090909" d="M251.883 119.846L279.847 133.85L251.883 147.81L223.92 133.85L251.883 119.846Z" fill="#BEDDFF"/>
<path opacity="0.1818" d="M252.735 119.397L280.698 133.402L252.735 147.361L224.816 133.402L252.735 119.397Z" fill="#BEDDFF"/>
<path opacity="0.2727" d="M253.633 118.994L281.552 132.953L253.633 146.958L225.67 132.953L253.633 118.994Z" fill="#BEDDFF"/>
<path opacity="0.3636" d="M254.487 118.544L282.45 132.549L254.487 146.508L226.523 132.549L254.487 118.544Z" fill="#BEDDFF"/>
<path opacity="0.4545" d="M255.338 118.141L283.302 132.1L255.338 146.104L227.375 132.1L255.338 118.141Z" fill="#BEDDFF"/>
<path opacity="0.5455" d="M256.192 117.692L284.155 131.651L256.192 145.655L228.273 131.651L256.192 117.692Z" fill="#BEDDFF"/>
<path opacity="0.6364" d="M257.088 117.243L285.007 131.247L257.088 145.207L229.125 131.247L257.088 117.243Z" fill="#BEDDFF"/>
<path opacity="0.7273" d="M257.942 116.839L285.905 130.798L257.942 144.802L229.979 130.798L257.942 116.839Z" fill="#BEDDFF"/>
<path opacity="0.8182" d="M258.795 116.39L286.759 130.394L258.795 144.354L230.832 130.394L258.795 116.39Z" fill="#BEDDFF"/>
<path opacity="0.9091" d="M259.647 115.986L287.61 129.946L259.647 143.905L231.684 129.946L259.647 115.986Z" fill="#BEDDFF"/>
<path d="M260.501 115.538L288.464 129.497L260.501 143.501L232.582 129.497L260.501 115.538Z" fill="#BEDDFF"/>
<path d="M260.502 74.5571L288.466 88.5613L260.502 102.521L232.584 88.5613L260.502 74.5571Z" fill="#CCD6FF"/>
<path d="M260.5 102.521V143.501L288.463 129.497V88.5615L260.5 102.521Z" fill="#AAB9F3"/>
<path d="M232.582 88.5615V129.497L260.501 143.501V102.521L232.582 88.5615Z" fill="#92A6F3"/>
<path d="M220.662 163.56L192.744 149.556V14.0034L220.662 27.9627V163.56Z" fill="url(#paint21_linear_2422_68284)"/>
<path d="M248.625 149.556L220.662 163.56V27.9627L248.625 14.0034V149.556Z" fill="url(#paint22_linear_2422_68284)"/>
<path d="M220.662 0L192.743 14.0041L220.662 27.9634L248.625 14.0041L220.662 0Z" fill="url(#paint23_linear_2422_68284)"/>
<path d="M180.471 183.539L208.434 169.534V89.0107L180.471 102.97V183.539Z" fill="#E3E5F9"/>
<path d="M152.508 169.534L180.471 183.539V102.97L152.508 89.0107V169.534Z" fill="#BCC9F8"/>
<path d="M180.471 75.0059L208.435 89.01L180.471 102.969L152.508 89.01L180.471 75.0059Z" fill="url(#paint24_linear_2422_68284)"/>
<path d="M180.471 93.9913L208.434 80.0321V66.791L180.471 80.7951V93.9913Z" fill="#E3E5F9"/>
<path d="M152.508 80.0321L180.471 93.9913V80.7951L152.508 66.791V80.0321Z" fill="#BCC9F8"/>
<path d="M180.471 52.8325L208.435 66.7918L180.471 80.7959L152.508 66.7918L180.471 52.8325Z" fill="url(#paint25_linear_2422_68284)"/>
<path opacity="0.090909" d="M285.592 315.006L318.852 298.353C323.745 295.884 327.739 289.915 327.739 285.022V251.762C327.739 246.87 323.745 244.85 318.852 247.319L285.592 263.971C280.7 266.44 276.705 272.41 276.705 277.302V310.562C276.705 315.499 280.655 317.474 285.592 315.006Z" fill="#A7B1F2"/>
<path opacity="0.1818" d="M285.592 313.39L318.852 296.737C323.745 294.269 327.739 288.299 327.739 283.407V250.147C327.739 245.254 323.745 243.234 318.852 245.703L285.592 262.356C280.7 264.824 276.705 270.794 276.705 275.686V308.946C276.705 313.839 280.655 315.858 285.592 313.39Z" fill="#A7B1F2"/>
<path opacity="0.2727" d="M285.592 311.775L318.852 295.122C323.745 292.654 327.739 286.684 327.739 281.791V248.532C327.739 243.639 323.745 241.619 318.852 244.088L285.592 260.74C280.7 263.209 276.705 269.179 276.705 274.071V307.331C276.705 312.223 280.655 314.243 285.592 311.775Z" fill="#A7B1F2"/>
<path opacity="0.3636" d="M285.592 310.158L318.852 293.506C323.745 291.037 327.739 285.068 327.739 280.175V246.915C327.739 242.023 323.745 240.003 318.852 242.472L285.592 259.124C280.7 261.593 276.705 267.562 276.705 272.455V305.715C276.705 310.607 280.655 312.627 285.592 310.158Z" fill="#A7B1F2"/>
<path opacity="0.4545" d="M285.592 308.543L318.852 291.89C323.745 289.422 327.739 283.452 327.739 278.559V245.3C327.739 240.407 323.745 238.387 318.852 240.856L285.592 257.508C280.7 259.977 276.705 265.947 276.705 270.839V304.099C276.705 308.991 280.655 311.011 285.592 308.543Z" fill="#A7B1F2"/>
<path opacity="0.5455" d="M285.592 306.926L318.852 290.274C323.745 287.805 327.739 281.836 327.739 276.943V243.683C327.739 238.791 323.745 236.771 318.852 239.24L285.592 255.892C280.7 258.361 276.705 264.33 276.705 269.223V302.483C276.705 307.375 280.655 309.395 285.592 306.926Z" fill="#A7B1F2"/>
<path opacity="0.6364" d="M285.592 305.311L318.852 288.659C323.745 286.19 327.739 280.22 327.739 275.328V242.068C327.739 237.176 323.745 235.156 318.852 237.625L285.592 254.277C280.7 256.746 276.705 262.715 276.705 267.608V300.868C276.705 305.76 280.655 307.735 285.592 305.311Z" fill="#A7B1F2"/>
<path opacity="0.7273" d="M285.592 303.694L318.852 287.042C323.745 284.573 327.739 278.604 327.739 273.711V240.451C327.739 235.559 323.745 233.539 318.852 236.008L285.592 252.66C280.7 255.129 276.705 261.099 276.705 265.991V299.251C276.705 304.143 280.655 306.118 285.592 303.694Z" fill="#A7B1F2"/>
<path opacity="0.8182" d="M285.592 302.079L318.852 285.426C323.745 282.958 327.739 276.988 327.739 272.096V238.836C327.739 233.943 323.745 231.923 318.852 234.392L285.592 251.044C280.7 253.513 276.705 259.483 276.705 264.375V297.635C276.705 302.528 280.655 304.503 285.592 302.079Z" fill="#A7B1F2"/>
<path opacity="0.9091" d="M285.592 300.463L318.852 283.811C323.745 281.342 327.739 275.372 327.739 270.48V237.22C327.739 232.328 323.745 230.308 318.852 232.776L285.592 249.429C280.7 251.897 276.705 257.867 276.705 262.76V296.019C276.705 300.912 280.655 302.887 285.592 300.463Z" fill="#A7B1F2"/>
<path d="M285.592 298.802L318.852 282.15C323.745 279.681 327.739 273.711 327.739 268.819V235.559C327.739 230.666 323.745 228.647 318.852 231.115L285.592 247.768C280.7 250.236 276.705 256.206 276.705 261.098V294.358C276.705 299.296 280.655 301.271 285.592 298.802Z" fill="#A7B1F2"/>
<path d="M285.548 247.768L318.808 231.116C321.276 229.859 323.565 229.769 325.181 230.622L335.056 235.559C335.191 235.604 335.325 235.694 335.46 235.784H335.505C336.986 236.637 337.884 238.297 337.884 240.631V273.891C337.884 278.784 333.889 284.798 328.997 287.222L295.737 303.874C293.268 305.131 291.024 305.221 289.408 304.368L279.533 299.431C279.399 299.386 279.264 299.296 279.129 299.251C277.648 298.398 276.705 296.738 276.705 294.404V261.144C276.661 256.206 280.655 250.237 285.548 247.768Z" fill="url(#paint26_linear_2422_68284)"/>
<path d="M295.692 303.92L328.952 287.267C333.844 284.799 337.839 278.829 337.839 273.936V240.632C337.839 235.739 333.844 233.719 328.952 236.188L295.692 252.84C290.799 255.309 286.805 261.279 286.805 266.171V299.431C286.805 304.368 290.755 306.343 295.692 303.92Z" fill="url(#paint27_linear_2422_68284)"/>
<path d="M322.833 278.294C330.308 268.72 331.648 257.273 325.825 252.727C320.003 248.181 309.223 252.257 301.748 261.831C294.273 271.405 292.933 282.852 298.756 287.398C304.578 291.944 315.358 287.868 322.833 278.294Z" fill="#8CD9FF"/>
<path d="M312.3 270.03L304.041 259.123C306.555 256.475 309.427 254.32 312.3 252.884C312.614 252.704 312.973 252.57 313.287 252.435L312.3 270.03Z" fill="#005ABE"/>
<path d="M312.301 270.03L312.615 250.685C317.642 248.261 322.49 247.902 325.991 249.697C329.537 251.537 331.512 255.353 331.512 260.425L312.301 270.03Z" fill="#017AFF"/>
<path d="M314.902 357.019H564.912V389.663L439.907 451.33L314.902 389.663V357.019Z" fill="url(#paint28_linear_2422_68284)"/>
<path d="M557.91 387.945L456.829 438.485C447.493 443.153 432.322 443.153 422.986 438.485L321.904 387.945C317.236 385.611 314.902 382.559 314.902 379.506V383.995C314.902 387.047 317.236 390.099 321.904 392.433L422.986 442.974C432.322 447.642 447.493 447.642 456.829 442.974L557.91 392.433C562.578 390.099 564.912 387.047 564.912 383.995V379.506C564.912 382.559 562.578 385.611 557.91 387.945Z" fill="#8CD9FF"/>
<path d="M557.91 392.433L456.829 442.973C447.493 447.641 432.322 447.641 422.986 442.973L321.904 392.433C317.236 390.098 314.902 387.046 314.902 383.994V388.483C314.902 391.535 317.236 394.587 321.904 396.921L422.986 447.462C432.322 452.13 447.493 452.13 456.829 447.462L557.91 396.921C562.578 394.587 564.912 391.535 564.912 388.483V383.994C564.912 387.046 562.578 390.098 557.91 392.433Z" fill="white"/>
<path d="M557.91 365.503L456.829 416.043C447.493 420.711 432.322 420.711 422.986 416.043L321.904 365.503C312.568 360.835 312.568 353.249 321.904 348.581L422.986 298.041C432.322 293.373 447.493 293.373 456.829 298.041L557.91 348.581C567.246 353.249 567.246 360.835 557.91 365.503Z" fill="url(#paint29_linear_2422_68284)"/>
<path opacity="0.090909" d="M492.288 367.702L417.823 404.957C413.694 407.021 407.051 407.021 402.921 404.957L350.765 378.879C346.636 376.814 346.636 373.492 350.765 371.428L425.229 334.173C429.359 332.108 436.002 332.108 440.131 334.173L492.288 360.251C496.417 362.316 496.417 365.682 492.288 367.702Z" fill="#BEDDFF"/>
<path opacity="0.1818" d="M494.532 366.626L420.067 403.88C415.938 405.945 409.295 405.945 405.166 403.88L353.009 377.802C348.88 375.737 348.88 372.416 353.009 370.351L427.473 333.096C431.603 331.032 438.246 331.032 442.375 333.096L494.532 359.175C498.616 361.194 498.616 364.561 494.532 366.626Z" fill="#BEDDFF"/>
<path opacity="0.2727" d="M496.776 365.502L422.312 402.757C418.182 404.821 411.539 404.821 407.41 402.757L355.253 376.678C351.124 374.614 351.124 371.292 355.253 369.227L429.718 331.973C433.847 329.908 440.49 329.908 444.619 331.973L496.776 358.051C500.86 360.071 500.86 363.437 496.776 365.502Z" fill="#BEDDFF"/>
<path opacity="0.3636" d="M498.975 364.38L424.511 401.635C420.381 403.7 413.738 403.7 409.609 401.635L357.453 375.557C353.323 373.492 353.323 370.171 357.453 368.106L431.917 330.851C436.046 328.787 442.689 328.787 446.819 330.851L498.975 356.929C503.104 358.994 503.104 362.316 498.975 364.38Z" fill="#BEDDFF"/>
<path opacity="0.4545" d="M501.219 363.258L426.755 400.513C422.625 402.578 415.982 402.578 411.853 400.513L359.697 374.435C355.567 372.37 355.567 369.048 359.697 366.984L434.161 329.729C438.29 327.664 444.933 327.664 449.063 329.729L501.219 355.807C505.349 357.872 505.349 361.194 501.219 363.258Z" fill="#BEDDFF"/>
<path opacity="0.5455" d="M503.463 362.136L428.999 399.39C424.87 401.455 418.227 401.455 414.097 399.39L361.941 373.312C357.811 371.247 357.811 367.926 361.941 365.861L436.405 328.607C440.535 326.542 447.177 326.542 451.307 328.607L503.463 354.685C507.593 356.75 507.593 360.071 503.463 362.136Z" fill="#BEDDFF"/>
<path opacity="0.6364" d="M505.707 361.014L431.243 398.269C427.114 400.333 420.471 400.333 416.341 398.269L364.185 372.191C360.056 370.126 360.056 366.804 364.185 364.74L438.649 327.485C442.779 325.42 449.422 325.42 453.551 327.485L505.707 353.563C509.837 355.628 509.837 358.949 505.707 361.014Z" fill="#BEDDFF"/>
<path opacity="0.7273" d="M507.952 359.892L433.487 397.147C429.358 399.211 422.715 399.211 418.585 397.147L366.429 371.068C362.3 369.004 362.3 365.682 366.429 363.618L440.893 326.363C445.023 324.298 451.666 324.298 455.795 326.363L507.952 352.441C512.036 354.506 512.036 357.827 507.952 359.892Z" fill="#BEDDFF"/>
<path opacity="0.8182" d="M510.198 358.77L435.733 396.024C431.604 398.089 424.961 398.089 420.832 396.024L368.675 369.946C364.546 367.881 364.546 364.56 368.675 362.495L443.139 325.24C447.269 323.176 453.912 323.176 458.041 325.24L510.198 351.319C514.282 353.383 514.282 356.705 510.198 358.77Z" fill="#BEDDFF"/>
<path opacity="0.9091" d="M512.442 357.648L437.978 394.903C433.848 396.967 427.205 396.967 423.076 394.903L370.919 368.824C366.79 366.76 366.79 363.438 370.919 361.373L445.384 324.119C449.513 322.054 456.156 322.054 460.285 324.119L512.442 350.197C516.526 352.262 516.526 355.583 512.442 357.648Z" fill="#BEDDFF"/>
<path d="M514.641 356.526L440.177 393.78C436.047 395.845 429.404 395.845 425.275 393.78L373.119 367.702C368.989 365.638 368.989 362.316 373.119 360.251L447.583 322.997C451.712 320.932 458.355 320.932 462.485 322.997L514.641 349.075C518.77 351.14 518.77 354.461 514.641 356.526Z" fill="#BEDDFF"/>
<path d="M511.677 326.632L461.72 301.631C457.77 299.656 451.397 299.656 447.447 301.631L376.08 337.314C374.105 338.302 373.117 339.603 373.117 340.905V362.405C373.117 363.707 374.105 365.008 376.08 365.996L426.037 390.997C429.986 392.972 436.36 392.972 440.31 390.997L511.677 355.313C513.607 354.326 514.595 353.069 514.64 351.767V330.267C514.685 328.966 513.697 327.619 511.677 326.632Z" fill="url(#paint30_linear_2422_68284)"/>
<path d="M514.639 317.251L462.483 291.173C458.353 289.108 451.71 289.108 447.581 291.173L373.117 328.427C371.052 329.459 370.02 330.806 370.02 332.153V354.595C370.02 355.942 371.052 357.288 373.117 358.321L425.273 384.399C429.402 386.463 436.045 386.463 440.175 384.399L514.639 347.144C516.659 346.112 517.691 344.81 517.736 343.464V321.021C517.781 319.675 516.749 318.283 514.639 317.251Z" fill="url(#paint31_linear_2422_68284)"/>
<path d="M514.639 324.702L440.175 361.956C436.045 364.021 429.402 364.021 425.273 361.956L373.117 335.878C368.987 333.813 368.987 330.492 373.117 328.427L447.581 291.173C451.71 289.108 458.353 289.108 462.483 291.173L514.639 317.251C518.768 319.315 518.768 322.637 514.639 324.702Z" fill="url(#paint32_linear_2422_68284)"/>
<path d="M511.677 291.576L461.72 266.575C457.77 264.601 451.397 264.601 447.447 266.575L376.08 302.259C374.105 303.247 373.117 304.548 373.117 305.85V327.35C373.117 328.651 374.105 329.953 376.08 330.941L426.037 355.942C429.986 357.917 436.36 357.917 440.31 355.942L511.677 320.258C513.607 319.27 514.595 318.014 514.64 316.712V295.212C514.685 293.866 513.697 292.564 511.677 291.576Z" fill="url(#paint33_linear_2422_68284)"/>
<path d="M514.639 282.195L462.483 256.117C458.353 254.052 451.71 254.052 447.581 256.117L373.117 293.371C371.052 294.404 370.02 295.75 370.02 297.097V319.539C370.02 320.886 371.052 322.233 373.117 323.265L425.273 349.343C429.402 351.408 436.045 351.408 440.175 349.343L514.639 312.089C516.659 311.056 517.691 309.755 517.736 308.408V285.965C517.781 284.574 516.749 283.227 514.639 282.195Z" fill="url(#paint34_linear_2422_68284)"/>
<path d="M514.639 289.646L440.175 326.901C436.045 328.965 429.402 328.965 425.273 326.901L373.117 300.822C368.987 298.758 368.987 295.436 373.117 293.371L447.581 256.117C451.71 254.052 458.353 254.052 462.483 256.117L514.639 282.195C518.768 284.26 518.768 287.581 514.639 289.646Z" fill="url(#paint35_linear_2422_68284)"/>
<path d="M511.677 256.521L461.72 231.52C457.77 229.545 451.397 229.545 447.447 231.52L376.08 267.203C374.105 268.191 373.117 269.493 373.117 270.794V292.249C373.117 293.551 374.105 294.853 376.08 295.84L426.037 320.841C429.986 322.816 436.36 322.816 440.31 320.841L511.677 285.157C513.607 284.17 514.595 282.913 514.64 281.611V260.112C514.685 258.81 513.697 257.508 511.677 256.521Z" fill="url(#paint36_linear_2422_68284)"/>
<path d="M514.639 247.14L462.483 221.062C458.353 218.997 451.71 218.997 447.581 221.062L373.117 258.317C371.052 259.349 370.02 260.696 370.02 262.042V284.485C370.02 285.831 371.052 287.178 373.117 288.21L425.273 314.288C429.402 316.353 436.045 316.353 440.175 314.288L514.639 277.034C516.659 276.001 517.691 274.7 517.736 273.353V250.911C517.781 249.519 516.749 248.173 514.639 247.14Z" fill="url(#paint37_linear_2422_68284)"/>
<path d="M514.639 254.591L440.175 291.846C436.045 293.911 429.402 293.911 425.273 291.846L373.117 265.768C368.987 263.703 368.987 260.381 373.117 258.317L447.581 221.062C451.71 218.997 458.353 218.997 462.483 221.062L514.639 247.14C518.768 249.16 518.768 252.527 514.639 254.591Z" fill="url(#paint38_linear_2422_68284)"/>
<path d="M482.323 247.813L426.665 275.642C424.87 276.539 421.907 276.539 420.112 275.642L405.479 268.325C403.684 267.428 403.684 265.947 405.479 265.049L461.137 237.22C462.932 236.322 465.895 236.322 467.69 237.22L482.323 244.536C484.118 245.434 484.118 246.915 482.323 247.813Z" fill="#D3DAF3"/>
<path d="M405.478 268.325L406.69 268.954L461.135 241.709C462.931 240.811 465.893 240.811 467.689 241.709L481.109 248.441L482.321 247.813C484.116 246.915 484.116 245.434 482.321 244.536L467.689 237.22C465.893 236.322 462.931 236.322 461.135 237.22L405.478 265.049C403.638 265.947 403.638 267.428 405.478 268.325Z" fill="#B4C1F3"/>
<path d="M418.944 267.608C417.508 268.326 417.508 269.493 418.944 270.256C420.381 271.019 422.76 270.975 424.196 270.256C425.632 269.538 425.632 268.371 424.196 267.608C422.76 266.89 420.426 266.89 418.944 267.608ZM430.121 262.042C428.684 262.761 428.684 263.928 430.121 264.691C431.557 265.409 433.936 265.409 435.372 264.691C436.809 263.972 436.809 262.805 435.372 262.042C433.891 261.324 431.557 261.324 430.121 262.042ZM441.252 256.477C439.816 257.195 439.816 258.362 441.252 259.125C442.689 259.843 445.068 259.843 446.504 259.125C447.94 258.407 447.94 257.24 446.504 256.477C445.068 255.759 442.733 255.759 441.252 256.477ZM452.429 250.911C450.992 251.629 450.992 252.796 452.429 253.559C453.865 254.277 456.244 254.277 457.68 253.559C459.116 252.841 459.116 251.674 457.68 250.911C456.244 250.148 453.865 250.148 452.429 250.911ZM463.605 245.3C462.169 246.018 462.169 247.185 463.605 247.949C465.041 248.667 467.42 248.667 468.857 247.949C470.293 247.23 470.293 246.063 468.857 245.3C467.375 244.582 465.041 244.582 463.605 245.3Z" fill="#B4C1F3"/>
<path d="M418.944 266.261C417.508 266.979 417.508 268.146 418.944 268.909C420.381 269.672 422.76 269.627 424.196 268.909C425.632 268.191 425.632 267.024 424.196 266.261C422.76 265.542 420.426 265.542 418.944 266.261ZM430.121 260.695C428.684 261.413 428.684 262.58 430.121 263.343C431.557 264.061 433.936 264.061 435.372 263.343C436.809 262.625 436.809 261.458 435.372 260.695C433.891 259.977 431.557 259.977 430.121 260.695ZM441.252 255.129C439.816 255.847 439.816 257.014 441.252 257.777C442.689 258.495 445.068 258.495 446.504 257.777C447.94 257.059 447.94 255.892 446.504 255.129C445.068 254.411 442.733 254.411 441.252 255.129ZM452.429 249.563C450.992 250.281 450.992 251.448 452.429 252.212C453.865 252.93 456.244 252.93 457.68 252.212C459.116 251.493 459.116 250.326 457.68 249.563C456.244 248.8 453.865 248.8 452.429 249.563ZM463.605 243.953C462.169 244.671 462.169 245.838 463.605 246.601C465.041 247.319 467.42 247.319 468.857 246.601C470.293 245.883 470.293 244.716 468.857 243.953C467.375 243.235 465.041 243.235 463.605 243.953Z" fill="white"/>
<path d="M449.287 339.065V328.337L510.69 297.636V308.363L449.287 339.065Z" fill="#BCC9F8"/>
<path d="M456.918 332.153L452.385 334.397V329.909L456.918 327.665V332.153Z" fill="#017AFF"/>
<path d="M484.926 315.904C484.926 317.161 483.939 318.687 482.682 319.271C481.425 319.899 480.438 319.405 480.438 318.149C480.438 316.892 481.425 315.366 482.682 314.782C483.894 314.154 484.926 314.647 484.926 315.904Z" fill="#017AFF"/>
<path d="M492.467 312.135C492.467 313.392 491.48 314.918 490.223 315.502C488.966 316.13 487.979 315.636 487.979 314.379C487.979 313.123 488.966 311.597 490.223 311.013C491.48 310.385 492.467 310.878 492.467 312.135Z" fill="#017AFF"/>
<path d="M500.006 308.32C500.006 309.576 499.019 311.102 497.762 311.686C496.505 312.314 495.518 311.821 495.518 310.564C495.518 309.307 496.505 307.781 497.762 307.197C499.019 306.569 500.006 307.108 500.006 308.32Z" fill="#75A4FF"/>
<path d="M507.592 304.55C507.592 305.806 506.605 307.332 505.348 307.916C504.091 308.544 503.104 308.051 503.104 306.794C503.104 305.537 504.091 304.011 505.348 303.427C506.56 302.799 507.592 303.338 507.592 304.55Z" fill="#017AFF"/>
<path d="M449.287 374.525V363.752L510.69 333.051V343.778L449.287 374.525Z" fill="#BCC9F8"/>
<path d="M456.918 367.568L452.385 369.857V365.324L456.918 363.08V367.568Z" fill="#017AFF"/>
<path d="M484.926 351.319C484.926 352.576 483.939 354.102 482.682 354.685C481.425 355.314 480.438 354.82 480.438 353.563C480.438 352.306 481.425 350.78 482.682 350.197C483.894 349.568 484.926 350.062 484.926 351.319Z" fill="#017AFF"/>
<path d="M492.467 347.549C492.467 348.806 491.48 350.332 490.223 350.916C488.966 351.544 487.979 351.05 487.979 349.794C487.979 348.537 488.966 347.011 490.223 346.427C491.48 345.799 492.467 346.293 492.467 347.549Z" fill="#017AFF"/>
<path d="M500.008 343.778C500.008 345.035 499.021 346.561 497.764 347.145C496.507 347.773 495.52 347.279 495.52 346.023C495.52 344.766 496.507 343.24 497.764 342.656C499.021 342.028 500.008 342.522 500.008 343.778Z" fill="#75A4FF"/>
<path d="M507.592 340.008C507.592 341.265 506.605 342.791 505.348 343.375C504.091 344.003 503.104 343.509 503.104 342.253C503.104 340.996 504.091 339.47 505.348 338.886C506.56 338.258 507.592 338.752 507.592 340.008Z" fill="#75A4FF"/>
<path d="M449.287 303.696V292.968L510.69 262.267V272.995L449.287 303.696Z" fill="#BCC9F8"/>
<path d="M456.918 296.783L452.385 299.028V294.494L456.918 292.25V296.783Z" fill="#017AFF"/>
<path d="M484.926 280.49C484.926 281.747 483.939 283.273 482.682 283.857C481.425 284.485 480.438 283.992 480.438 282.735C480.438 281.478 481.425 279.952 482.682 279.368C483.894 278.74 484.926 279.279 484.926 280.49Z" fill="#017AFF"/>
<path d="M492.467 276.72C492.467 277.977 491.48 279.503 490.223 280.087C488.966 280.715 487.979 280.221 487.979 278.964C487.979 277.708 488.966 276.182 490.223 275.598C491.48 274.97 492.467 275.463 492.467 276.72Z" fill="#75A4FF"/>
<path d="M500.008 272.95C500.008 274.207 499.021 275.733 497.764 276.317C496.507 276.945 495.52 276.451 495.52 275.194C495.52 273.938 496.507 272.412 497.764 271.828C499.021 271.2 500.008 271.693 500.008 272.95Z" fill="#017AFF"/>
<path d="M507.592 269.179C507.592 270.436 506.605 271.962 505.348 272.546C504.091 273.174 503.104 272.68 503.104 271.423C503.104 270.167 504.091 268.641 505.348 268.057C506.56 267.429 507.592 267.922 507.592 269.179Z" fill="#017AFF"/>
<path d="M23.5078 424.929H273.517V449.162L166.031 505.002C155.049 510.707 141.976 510.707 130.994 505.002L23.5078 449.162V424.929Z" fill="url(#paint39_linear_2422_68284)"/>
<path d="M266.515 433.412L165.434 483.953C156.098 488.621 140.927 488.621 131.591 483.953L30.5099 433.412C21.1738 428.744 21.1738 421.159 30.5099 416.491L131.591 365.95C140.927 361.282 156.098 361.282 165.434 365.95L266.515 416.491C275.851 421.159 275.851 428.7 266.515 433.412Z" fill="url(#paint40_linear_2422_68284)"/>
<path opacity="0.047619" d="M194.519 437.183L135.989 466.493C129.57 469.68 119.202 469.68 112.783 466.493L54.2534 437.228C47.8348 434.041 47.8348 428.834 54.2534 425.647L112.783 396.382C119.202 393.195 129.57 393.195 135.989 396.382L194.519 425.647C200.938 428.789 200.938 433.996 194.519 437.183Z" fill="#BEDDFF"/>
<path opacity="0.095238" d="M195.777 436.555L137.247 465.82C130.828 469.007 120.46 469.007 114.041 465.82L55.5112 436.555C49.0926 433.368 49.0926 428.161 55.5112 424.975L114.041 395.709C120.46 392.523 130.828 392.523 137.247 395.709L195.777 424.975C202.195 428.161 202.195 433.368 195.777 436.555Z" fill="#BEDDFF"/>
<path opacity="0.1429" d="M197.078 435.926L138.548 465.191C132.129 468.378 121.761 468.378 115.342 465.191L56.812 435.926C50.3934 432.74 50.3934 427.533 56.812 424.346L115.342 395.036C121.761 391.849 132.129 391.849 138.548 395.036L197.078 424.301C203.496 427.533 203.496 432.695 197.078 435.926Z" fill="#BEDDFF"/>
<path opacity="0.1905" d="M198.38 435.298L139.85 464.563C133.432 467.75 123.063 467.75 116.645 464.563L58.1147 435.298C51.6961 432.111 51.6961 426.905 58.1147 423.718L116.645 394.453C123.063 391.266 133.432 391.266 139.85 394.453L198.38 423.673C204.754 426.86 204.754 432.066 198.38 435.298Z" fill="#BEDDFF"/>
<path opacity="0.2381" d="M199.636 434.624L141.106 463.889C134.688 467.076 124.319 467.076 117.901 463.889L59.3706 434.624C52.952 431.437 52.952 426.231 59.3706 423.044L117.901 393.779C124.319 390.592 134.688 390.592 141.106 393.779L199.636 423.044C206.055 426.231 206.055 431.437 199.636 434.624Z" fill="#BEDDFF"/>
<path opacity="0.2857" d="M200.939 433.996L142.409 463.261C135.99 466.448 125.622 466.448 119.203 463.261L60.6733 433.996C54.2547 430.809 54.2547 425.602 60.6733 422.415L119.203 393.15C125.622 389.964 135.99 389.964 142.409 393.15L200.939 422.415C207.313 425.602 207.313 430.809 200.939 433.996Z" fill="#BEDDFF"/>
<path opacity="0.3333" d="M202.195 433.367L143.665 462.632C137.246 465.819 126.878 465.819 120.459 462.632L61.9292 433.367C55.5106 430.181 55.5106 424.974 61.9292 421.787L120.459 392.522C126.878 389.335 137.246 389.335 143.665 392.522L202.195 421.787C208.613 424.974 208.613 430.136 202.195 433.367Z" fill="#BEDDFF"/>
<path opacity="0.381" d="M203.498 432.695L144.968 462.004C138.549 465.191 128.181 465.191 121.762 462.004L63.2319 432.739C56.8133 429.553 56.8133 424.346 63.2319 421.159L121.762 391.894C128.181 388.707 138.549 388.707 144.968 391.894L203.498 421.159C209.916 424.301 209.916 429.508 203.498 432.695Z" fill="#BEDDFF"/>
<path opacity="0.4286" d="M204.753 432.067L146.223 461.332C139.805 464.518 129.436 464.518 123.018 461.332L64.4877 432.067C58.0692 428.88 58.0692 423.673 64.4877 420.486L123.018 391.221C129.436 388.034 139.805 388.034 146.223 391.221L204.753 420.486C211.172 423.673 211.172 428.88 204.753 432.067Z" fill="#BEDDFF"/>
<path opacity="0.4762" d="M206.056 431.438L147.526 460.703C141.108 463.89 130.739 463.89 124.321 460.703L65.7905 431.438C59.3719 428.251 59.3719 423.044 65.7905 419.857L124.321 390.547C130.739 387.361 141.108 387.361 147.526 390.547L206.056 419.812C212.475 423.044 212.475 428.206 206.056 431.438Z" fill="#BEDDFF"/>
<path opacity="0.5238" d="M207.357 430.809L148.827 460.074C142.408 463.261 132.04 463.261 125.621 460.074L67.0913 430.809C60.6727 427.622 60.6727 422.416 67.0913 419.229L125.621 389.964C132.04 386.777 142.408 386.777 148.827 389.964L207.357 419.184C213.731 422.371 213.731 427.578 207.357 430.809Z" fill="#BEDDFF"/>
<path opacity="0.5714" d="M208.615 430.135L150.085 459.4C143.666 462.587 133.298 462.587 126.879 459.4L68.3491 430.135C61.9305 426.949 61.9305 421.742 68.3491 418.555L126.879 389.29C133.298 386.103 143.666 386.103 150.085 389.29L208.615 418.555C215.033 421.742 215.033 426.949 208.615 430.135Z" fill="#BEDDFF"/>
<path opacity="0.619" d="M209.916 429.508L151.385 458.773C144.967 461.96 134.598 461.96 128.18 458.773L69.6499 429.508C63.2313 426.321 63.2313 421.114 69.6499 417.928L128.18 388.663C134.598 385.476 144.967 385.476 151.385 388.663L209.916 417.928C216.289 421.114 216.289 426.321 209.916 429.508Z" fill="#BEDDFF"/>
<path opacity="0.6667" d="M211.173 428.88L152.643 458.145C146.225 461.331 135.856 461.331 129.438 458.145L70.9077 428.88C64.4891 425.693 64.4891 420.486 70.9077 417.299L129.438 388.034C135.856 384.847 146.225 384.847 152.643 388.034L211.173 417.299C217.592 420.486 217.592 425.648 211.173 428.88Z" fill="#BEDDFF"/>
<path opacity="0.7143" d="M212.474 428.206L153.944 457.516C147.526 460.703 137.157 460.703 130.739 457.516L72.2085 428.251C65.7899 425.064 65.7899 419.858 72.2085 416.671L130.739 387.406C137.157 384.219 147.526 384.219 153.944 387.406L212.474 416.671C218.893 419.813 218.893 425.019 212.474 428.206Z" fill="#BEDDFF"/>
<path opacity="0.7619" d="M213.73 427.577L155.2 456.842C148.781 460.029 138.413 460.029 131.994 456.842L73.4643 427.577C67.0458 424.39 67.0458 419.184 73.4643 415.997L131.994 386.732C138.413 383.545 148.781 383.545 155.2 386.732L213.73 415.997C220.149 419.184 220.149 424.39 213.73 427.577Z" fill="#BEDDFF"/>
<path opacity="0.8095" d="M215.033 426.949L156.503 456.214C150.084 459.401 139.716 459.401 133.297 456.214L74.767 426.949C68.3485 423.762 68.3485 418.555 74.767 415.369L133.297 386.059C139.716 382.872 150.084 382.872 156.503 386.059L215.033 415.324C221.451 418.555 221.451 423.717 215.033 426.949Z" fill="#BEDDFF"/>
<path opacity="0.8571" d="M216.334 426.32L157.803 455.586C151.385 458.772 141.016 458.772 134.598 455.586L76.0678 426.32C69.6493 423.134 69.6493 417.927 76.0678 414.74L134.598 385.475C141.016 382.288 151.385 382.288 157.803 385.475L216.334 414.695C222.707 417.882 222.707 423.089 216.334 426.32Z" fill="#BEDDFF"/>
<path opacity="0.9048" d="M217.591 425.648L159.061 454.913C152.643 458.1 142.274 458.1 135.856 454.913L77.3256 425.648C70.9071 422.461 70.9071 417.255 77.3256 414.068L135.856 384.803C142.274 381.616 152.643 381.616 159.061 384.803L217.591 414.068C224.01 417.255 224.01 422.461 217.591 425.648Z" fill="#BEDDFF"/>
<path opacity="0.9524" d="M218.892 425.019L160.362 454.284C153.943 457.471 143.575 457.471 137.156 454.284L78.6264 425.019C72.2079 421.832 72.2079 416.626 78.6264 413.439L137.156 384.174C143.575 380.987 153.943 380.987 160.362 384.174L218.892 413.439C225.266 416.626 225.266 421.832 218.892 425.019Z" fill="#BEDDFF"/>
<path d="M220.15 424.391L161.62 453.656C155.201 456.843 144.833 456.843 138.414 453.656L79.8842 424.391C73.4657 421.204 73.4657 415.997 79.8842 412.81L138.414 383.545C144.833 380.359 155.201 380.359 161.62 383.545L220.15 412.81C226.569 415.997 226.569 421.159 220.15 424.391Z" fill="#BEDDFF"/>
<path d="M220.15 388.841L161.62 359.576C155.202 356.389 144.833 356.389 138.415 359.576L79.8847 388.841C76.6979 390.457 75.082 392.522 75.082 394.631V418.555C75.082 420.665 76.6979 422.774 79.8847 424.345L138.415 453.61C144.833 456.797 155.202 456.797 161.62 453.61L220.15 424.345C223.337 422.729 224.953 420.665 224.953 418.555V394.631C224.953 392.567 223.382 390.457 220.15 388.841Z" fill="url(#paint41_linear_2422_68284)"/>
<path d="M220.15 400.467L161.62 429.732C155.201 432.919 144.833 432.919 138.414 429.732L79.8842 400.467C73.4657 397.281 73.4657 392.074 79.8842 388.887L138.414 359.577C144.833 356.39 155.201 356.39 161.62 359.577L220.15 388.842C226.569 392.074 226.569 397.236 220.15 400.467Z" fill="url(#paint42_linear_2422_68284)"/>
<path d="M185.588 397.594L155.919 412.451C152.687 414.067 147.391 414.067 144.159 412.451L114.49 397.594C111.258 395.978 111.258 393.33 114.49 391.714L144.159 376.857C147.391 375.242 152.687 375.242 155.919 376.857L185.588 391.714C188.82 393.33 188.82 395.978 185.588 397.594Z" fill="#D3DAF3"/>
<path d="M113.368 396.921C113.683 396.697 114.042 396.427 114.491 396.203L144.16 381.346C147.391 379.73 152.688 379.73 155.919 381.346L185.588 396.203C186.037 396.427 186.396 396.652 186.711 396.921C188.775 395.305 188.416 393.151 185.588 391.714L155.919 376.857C152.688 375.242 147.391 375.242 144.16 376.857L114.491 391.714C111.663 393.106 111.304 395.305 113.368 396.921Z" fill="#B4C1F3"/>
<path d="M145.192 392.252C142.499 393.599 142.499 395.753 145.192 397.1C147.885 398.446 152.194 398.446 154.887 397.1C157.58 395.753 157.58 393.599 154.887 392.252C152.194 390.906 147.885 390.906 145.192 392.252Z" fill="white"/>
<path opacity="0.3" d="M220.285 386.373L161.755 415.638C155.336 418.825 144.968 418.825 138.549 415.638L80.019 386.373C73.6004 383.186 73.6004 377.979 80.019 374.792L138.549 345.527C144.968 342.34 155.336 342.34 161.755 345.527L220.285 374.792C226.658 377.934 226.658 383.141 220.285 386.373Z" fill="#02D0FF"/>
<path d="M220.285 386.372L161.755 415.637C155.337 418.824 144.968 418.824 138.55 415.637L80.0195 386.372C76.8327 384.756 75.2168 382.692 75.2168 380.582V390.053C75.2168 392.163 76.8327 394.272 80.0195 395.843L138.55 425.108C144.968 428.295 155.337 428.295 161.755 425.108L220.285 395.843C223.472 394.227 225.088 392.163 225.088 390.053V380.582C225.088 382.647 223.472 384.756 220.285 386.372ZM75.2168 380.537C75.2168 380.403 75.2168 380.268 75.2168 380.133C75.2168 380.268 75.2168 380.403 75.2168 380.537Z" fill="url(#paint43_linear_2422_68284)"/>
<path d="M251.121 471.386L254.398 471.296L262.746 478.029C264.003 479.016 262.881 481.53 261.13 480.767L253.006 477.176C251.031 476.323 251.166 473.45 251.121 471.386Z" fill="#8EAAE8"/>
<path d="M239.228 423.762L254.713 437.093L255.386 437.676C256.419 438.574 257.002 439.876 257.002 441.178L257.092 470.622C257.092 472.597 255.521 474.213 253.546 474.213C251.706 474.213 250.224 472.866 250 471.116L246.23 441.896L248.519 445.98L230.744 435.971C227.154 433.951 225.897 429.373 227.917 425.782C229.936 422.191 234.515 420.934 238.105 422.954C238.465 423.134 238.869 423.448 239.228 423.762Z" fill="#130F40"/>
<path d="M238.105 479.104L242.324 487.902C243.132 489.518 239.811 490.73 238.419 489.114L233.886 483.817C233.078 482.83 232.854 480.81 232.854 479.104H238.105Z" fill="#8EAAE8"/>
<path d="M230.923 432.515L235.187 442.614L235.725 443.916C235.95 444.409 236.174 444.948 236.354 445.487C236.758 446.519 237.072 447.596 237.386 448.673C237.97 450.828 238.329 452.982 238.463 455.137L238.508 455.945V456.663L238.553 458.009L238.598 460.747L238.733 466.223L239.002 477.175C239.047 479.15 237.476 480.811 235.501 480.856C233.75 480.901 232.269 479.644 231.91 477.983L229.756 467.256L228.678 461.914L228.14 459.221L227.871 457.875L227.736 457.246L227.601 456.708C227.242 455.271 226.748 453.925 226.12 452.623C225.806 451.995 225.492 451.366 225.088 450.738C224.908 450.424 224.729 450.155 224.504 449.84L223.786 448.718L217.816 439.562C215.572 436.106 216.559 431.482 220.016 429.238C223.472 426.994 228.095 427.981 230.339 431.437C230.519 431.707 230.743 432.111 230.923 432.515Z" fill="#130F40"/>
<path d="M245.869 411.733C245.6 412.182 245.33 412.631 244.927 413.124C244.837 413.259 244.702 413.394 244.567 413.528C244.433 413.663 244.298 413.798 244.119 413.932C243.76 414.202 243.266 414.471 242.637 414.606C241.964 414.74 241.246 414.606 240.707 414.381C240.438 414.247 240.259 414.112 240.034 413.977C239.855 413.843 239.72 413.708 239.585 413.573C239.047 413.035 238.777 412.586 238.508 412.137C237.969 411.239 237.655 410.431 237.296 409.578C236.982 408.771 236.668 407.963 236.443 407.155C235.366 403.968 234.558 400.781 233.616 397.594C233.077 395.754 234.109 393.869 235.905 393.33C237.745 392.791 239.63 393.824 240.169 395.664C240.258 395.978 240.303 396.293 240.303 396.607C240.348 398.178 240.438 399.749 240.573 401.32C240.707 402.891 240.932 404.417 241.201 405.898C241.336 406.661 241.515 407.379 241.695 408.052C241.874 408.726 242.144 409.399 242.368 409.938C242.503 410.162 242.637 410.386 242.682 410.431C242.637 410.386 242.637 410.386 242.548 410.342C242.503 410.342 242.458 410.297 242.413 410.297C242.368 410.297 242.278 410.252 242.233 410.252C242.099 410.252 241.964 410.207 241.83 410.252C241.56 410.297 241.47 410.386 241.426 410.431C241.426 410.386 241.426 410.386 241.47 410.342C241.56 410.207 241.695 409.982 241.83 409.713C242.323 408.546 243.67 408.008 244.837 408.456C246.004 408.95 246.542 410.252 246.094 411.464C246.049 411.553 246.004 411.643 245.959 411.733H245.869Z" fill="#3176FF"/>
<path d="M238.599 417.434C238.644 424.212 238.509 431.124 238.509 431.124C238.195 434.176 218.086 439.203 216.605 436.016C216.246 431.573 216.426 427.219 217.323 422.865L238.599 417.434Z" fill="#130F40"/>
<path d="M212.52 398.267C216.919 394.452 228.409 391.939 234.065 391.265C237.252 390.906 240.034 393.285 240.214 396.472C240.708 405.18 239.002 418.87 239.002 418.87C239.002 422.371 218.938 426.41 217.188 422.73C217.188 412.945 215.033 409.848 210.545 402.666C210.5 401.005 211.218 399.39 212.52 398.267Z" fill="#3176FF"/>
<path d="M228.724 390.457L227.916 396.113C225.806 396.113 223.427 395.08 223.562 393.285L224.594 387.674L228.724 390.457Z" fill="#F3ABC7"/>
<path d="M231.238 390.771C231.013 391.714 229.263 392.791 227.737 391.624L224.64 387.674C224.64 387.674 223.248 381.166 227.872 381.166C229.218 381.166 231.238 382.198 231.956 383.32C232.944 385.744 231.866 388.392 231.238 390.771Z" fill="#F3ABC7"/>
<path d="M223.695 384.083C223.695 380.627 227.511 379.64 229.62 380.493C230.967 381.076 233.031 382.827 235.186 381.57C235.769 383.32 234.468 384.443 232.448 385.071C230.608 385.61 228.633 385.206 227.196 383.949L227.151 383.904L226.164 383.769C227.062 384.757 227.241 386.417 226.927 388.437L229.216 389.604L231.685 388.886L231.416 391.624C231.326 392.253 230.787 392.746 230.159 392.791L229.351 392.836C229.037 392.836 228.678 392.746 228.453 392.522C228.453 392.522 225.76 390.816 225.805 389.874L225.984 386.687C225.76 386.283 225.491 386.283 225.311 386.462C225.132 386.687 224.009 390.906 224.009 390.906C224.009 390.906 223.695 385.475 223.695 384.083Z" fill="#130F40"/>
<path d="M241.516 418.196L234.02 419.991C233.392 420.126 232.943 419.767 233.033 419.183L235.367 406.705C235.502 406.077 236.085 405.493 236.758 405.314L244.254 403.519C244.883 403.384 245.331 403.743 245.242 404.326L242.908 416.804C242.773 417.433 242.189 418.061 241.516 418.196Z" fill="#130F40"/>
<path d="M245.959 409.938C246.094 411.419 244.792 412.272 243.715 412.541L243.894 410.162C243.58 409.669 243.445 409.04 243.535 408.457L243.804 406.212L245.016 406.796C246.228 407.469 246.453 408.412 245.959 409.938Z" fill="#F3ABC7"/>
<path d="M234.2 417.119L232 418.331C231.237 418.69 230.519 419.094 229.756 419.453C228.275 420.216 226.704 420.89 225.043 421.473C223.427 422.057 221.677 422.505 219.792 422.73C219.343 422.775 218.849 422.775 218.355 422.82C218.131 422.82 217.862 422.82 217.592 422.775C217.323 422.775 217.099 422.73 216.829 422.73C216.291 422.64 215.797 422.595 215.258 422.371C214.989 422.281 214.72 422.236 214.495 422.101C214.226 421.967 214.002 421.877 213.732 421.742C212.745 421.204 211.802 420.441 211.084 419.543C210.411 418.645 209.872 417.658 209.513 416.67C209.423 416.401 209.333 416.177 209.289 415.952C209.244 415.728 209.154 415.458 209.109 415.234L208.974 414.516C208.929 414.291 208.885 414.022 208.885 413.798C208.84 413.304 208.795 412.855 208.75 412.361L208.705 411.643V410.97C208.75 409.13 209.019 407.334 209.378 405.629C209.737 403.878 210.186 402.217 210.725 400.557C211.308 398.761 213.194 397.774 214.989 398.312C216.784 398.896 217.772 400.781 217.233 402.576C217.188 402.711 217.143 402.891 217.054 403.025V403.07C215.752 405.763 214.765 408.591 214.45 411.329C214.316 412.676 214.271 414.022 214.585 415.099C214.72 415.638 214.944 416.087 215.169 416.491C215.438 416.895 215.752 417.164 216.111 417.433C216.201 417.478 216.336 417.568 216.425 417.613C216.515 417.658 216.65 417.703 216.784 417.748C217.009 417.882 217.278 417.882 217.547 417.972C217.817 418.017 218.131 418.062 218.445 418.062C218.759 418.062 219.074 418.107 219.388 418.062C220.734 418.017 222.126 417.703 223.517 417.209C226.345 416.266 229.128 414.83 231.731 413.169H231.776C232.853 412.496 234.245 412.81 234.918 413.887C235.591 414.965 235.277 416.356 234.2 417.029C234.29 417.074 234.245 417.119 234.2 417.119Z" fill="#3176FF"/>
<path d="M234.111 409.893C234.2 409.669 234.47 409.579 234.694 409.669C234.919 409.758 235.053 410.028 234.964 410.252L234.515 411.688L235.367 410.746L237.028 409.669C237.253 409.534 237.522 409.579 237.612 409.803C237.746 409.983 237.701 410.252 237.522 410.387L236.175 411.419L235.996 411.688L236.938 411.284L237.342 414.202L236.804 414.785C236.804 414.785 235.816 415.818 234.964 416.581C234.47 417.03 233.707 416.985 233.258 416.491L231.956 415.1C231.597 414.696 231.552 414.112 231.822 413.618L234.111 409.893Z" fill="#F3ABC7"/>
<path d="M279.801 150.458C287.97 146.419 297.576 146.419 305.745 150.458C305.79 150.458 305.835 150.503 305.879 150.503C308.034 151.581 310.009 152.703 311.804 153.915C314.049 155.396 314.049 158.717 311.804 160.198C310.009 161.366 308.034 162.533 305.879 163.61C305.835 163.61 305.79 163.655 305.745 163.655C297.576 167.694 287.97 167.694 279.801 163.655C279.756 163.655 279.711 163.61 279.667 163.61C277.512 162.533 275.537 161.41 273.742 160.198C271.498 158.717 271.498 155.396 273.742 153.915C275.537 152.748 277.512 151.581 279.667 150.503C279.711 150.503 279.756 150.458 279.801 150.458Z" fill="#EBF0FF"/>
<path d="M295.915 161.32C294.165 162.622 290.529 164.821 288.779 165.405C286.983 165.988 286.085 164.552 287.163 163.25L293.536 155.934L295.781 158.358C296.589 159.211 297.037 160.467 295.915 161.32Z" fill="#1584FF"/>
<path d="M299.776 156.293C297.845 155.665 294.748 153.69 293.447 152.523C292.1 151.266 293.043 149.874 294.748 150.144L302.154 151.086V154.677C302.154 155.799 301.122 156.742 299.776 156.293Z" fill="#1584FF"/>
<path d="M307.271 97.8081L307.81 101.399C307.855 101.623 308.035 101.803 308.304 101.803C308.573 101.803 308.753 101.623 308.753 101.354L308.887 98.4814L307.271 97.8081Z" fill="#F3ABC7"/>
<path d="M309.112 100.098L308.888 102.521C308.843 102.836 308.977 103.105 309.157 103.329L310.189 104.452L309.561 100.502L309.112 100.098Z" fill="#F3ABC7"/>
<path d="M309.74 101.534L310.189 104.451C310.234 104.676 310.459 104.855 310.683 104.81C310.863 104.765 310.997 104.631 311.042 104.451L311.581 101.309L310.997 97.494C310.863 96.5514 309.965 95.923 309.067 96.0577L308.708 96.1026C307.855 96.2372 307.227 96.9554 307.272 97.8531L309.74 101.534Z" fill="#F3ABC7"/>
<path d="M304.534 69.8451C306.285 71.5956 307.766 73.5705 308.978 75.6801C310.145 77.7897 310.998 80.034 311.536 82.3231C312.075 84.6122 312.299 86.9463 312.299 89.2354C312.299 91.5245 312.075 93.8137 311.626 96.0579C311.402 97.4045 310.1 98.2573 308.798 98.0329C307.452 97.8084 306.599 96.5068 306.823 95.2051C306.823 95.1602 306.868 95.0705 306.868 95.0256C307.362 93.1853 307.541 91.2552 307.452 89.3252C307.362 87.44 307.003 85.5548 306.374 83.8043C305.746 82.0538 304.848 80.4379 303.771 79.0016C302.649 77.5653 301.347 76.3983 299.866 75.4557C298.16 74.3785 297.622 72.1342 298.699 70.3837C299.776 68.6781 302.021 68.1394 303.771 69.2167C303.996 69.3513 304.22 69.5309 304.399 69.7104L304.534 69.8451Z" fill="#3176FF"/>
<path d="M295.286 100.277C293.58 104.586 292.279 108.984 291.426 113.518C290.573 118.051 290.169 122.719 290.259 127.387C290.394 136.813 292.234 146.329 294.792 155.755C295.196 157.326 294.299 158.897 292.773 159.345C291.336 159.749 289.81 158.941 289.271 157.595C287.476 152.882 285.86 148.079 284.514 143.187C283.167 138.249 282.135 133.177 281.551 127.971C280.968 122.764 280.878 117.468 281.327 112.171C281.776 106.875 282.808 101.623 284.244 96.5513C285.142 93.4542 288.374 91.6588 291.471 92.5565C294.568 93.4542 296.363 96.6859 295.466 99.783C295.421 99.9177 295.376 100.097 295.286 100.277Z" fill="#001A37"/>
<path d="M305.252 93.4539L302.334 150.144C302.244 151.76 300.898 152.971 299.282 152.882C297.801 152.792 296.589 151.58 296.544 150.144L293.626 93.4539C293.447 90.2222 295.916 87.4842 299.147 87.3495C302.379 87.17 305.117 89.6387 305.252 92.8704C305.252 93.0499 305.252 93.2744 305.252 93.4539Z" fill="#001A37"/>
<path d="M298.607 100.86L290.842 103.015C287.117 104.047 284.109 101.893 284.109 98.1673C284.109 94.4418 287.117 90.5817 290.842 89.5493L298.607 87.3949C302.333 86.3625 305.34 88.517 305.34 92.2424C305.34 95.9679 302.333 99.828 298.607 100.86Z" fill="#001A37"/>
<path d="M290.664 65.2212C290.889 68.0939 294.794 65.6701 295.198 65.311C296.455 64.144 298.654 60.2839 295.736 58.668C294.749 58.1294 292.594 58.0396 291.742 58.8027C290.53 59.8799 290.53 63.4707 290.664 65.2212Z" fill="#F3ABC7"/>
<path d="M291.74 66.6129L297.171 61.3613L297.441 71.9542L292.548 71.7298L293.266 66.8373L291.74 66.6129Z" fill="#F3ABC7"/>
<path d="M304.353 88.9656C301.66 84.0731 305.071 74.4677 304.443 70.5178C304.308 69.665 303.68 69.0366 302.827 68.902C298.922 68.2736 290.528 70.6974 287.566 75.0961C286.085 79.9886 286.444 88.5167 284.738 95.2495C293.132 97.9426 304.353 91.9729 304.353 88.9656Z" fill="#3176FF"/>
<path d="M269.164 54.1345C268.895 54.1794 268.715 54.4038 268.76 54.6731L268.94 56.1992L268.266 55.0771L266.785 53.6857C266.606 53.5061 266.336 53.5061 266.157 53.7306C265.977 53.9101 265.977 54.1794 266.157 54.3589L267.324 55.6606L267.459 55.9748L266.022 55.4811C265.798 55.3464 265.484 55.4362 265.349 55.6606L264.676 56.8725C264.586 57.052 264.631 57.2765 264.765 57.4111L265.439 58.1293L266.022 59.0719L267.279 60.8673C267.638 61.4059 268.401 61.5405 268.94 61.1366L270.017 60.3735L270.286 60.1491C271.004 59.6105 271.229 58.9821 270.825 57.86L269.703 54.3589C269.613 54.2243 269.389 54.0896 269.164 54.1345Z" fill="#F3ABC7"/>
<path d="M289.183 79.3601C286.939 78.7317 284.694 78.0585 282.495 77.1608C280.296 76.2631 278.096 75.2307 276.032 73.7944C274.012 72.403 272.127 70.6076 270.69 68.498C269.254 66.4332 268.267 64.1441 267.503 61.8999C267.055 60.5982 267.773 59.2516 269.03 58.8028C270.286 58.3539 271.678 59.0721 272.127 60.3289C272.127 60.3738 272.172 60.4635 272.172 60.5084C272.665 62.4385 273.473 64.2339 274.595 65.7151C274.865 66.0742 275.179 66.4332 275.493 66.7923C275.852 67.1065 276.166 67.4207 276.525 67.7349C277.244 68.3184 278.007 68.857 278.859 69.3059C280.52 70.2036 282.405 70.8769 284.335 71.3257C286.31 71.7746 288.33 72.0439 290.395 72.1785H290.44C292.46 72.3132 293.986 74.0637 293.851 76.0835C293.716 78.1034 291.966 79.6294 289.946 79.4948C289.677 79.4948 289.407 79.4499 289.183 79.3601Z" fill="#3176FF"/>
<path d="M313.017 68.8119C312.074 68.0039 310.773 67.7795 309.561 67.7346C308.304 67.6897 307.092 67.8244 305.88 67.6C304.668 67.3755 303.411 66.7472 302.963 65.5801C302.514 64.5927 302.738 63.3808 302.379 62.3484C301.93 61.0468 300.629 60.1939 299.282 59.9246C299.147 59.8797 299.013 59.8797 298.878 59.8349C298.788 59.1167 298.474 58.3985 297.98 57.815C296.14 55.7503 293.806 55.1668 291.337 55.077C287.702 54.9424 285.098 57.4111 291.607 60.0593L293.043 60.3286C291.293 63.7847 296.544 62.9319 296.634 64.9518C296.724 67.1511 287.836 70.0238 289.677 75.4997C291.472 80.9757 302.514 81.4694 305.79 80.6615C309.067 79.8536 312.164 77.8786 313.69 74.8713C314.184 73.8839 314.543 72.8066 314.498 71.6845C314.319 70.6522 313.87 69.53 313.017 68.8119Z" fill="#130F40"/>
<path d="M442.689 188.622V159.895C442.689 159.626 442.914 159.312 443.318 159.132L451.218 155.182C452.07 154.733 453.507 154.733 454.36 155.182L462.259 159.132C462.708 159.357 462.888 159.626 462.888 159.895V188.622H442.689Z" fill="url(#paint44_linear_2422_68284)"/>
<path d="M471.507 137.992L455.887 130.182C454.182 129.329 451.399 129.329 449.693 130.182L434.073 137.992C433.22 138.44 432.771 138.979 432.771 139.518V159.312C432.771 159.851 433.22 160.434 434.073 160.838L449.693 168.648C451.399 169.501 454.182 169.501 455.887 168.648L471.507 160.838C472.36 160.389 472.809 159.851 472.809 159.312V139.518C472.809 138.979 472.36 138.396 471.507 137.992Z" fill="url(#paint45_linear_2422_68284)"/>
<path d="M471.506 141.089L455.886 148.899C454.181 149.751 451.398 149.751 449.692 148.899L434.072 141.089C432.367 140.236 432.367 138.844 434.072 137.992L449.692 130.182C451.398 129.329 454.181 129.329 455.886 130.182L471.506 137.992C473.212 138.844 473.212 140.236 471.506 141.089Z" fill="url(#paint46_linear_2422_68284)"/>
<path d="M452.834 145.532C451.308 145.532 449.782 145.217 448.615 144.634L429.36 134.984C427.564 134.086 427.295 132.919 427.295 132.29C427.295 131.662 427.564 130.495 429.36 129.597L448.615 119.947C450.994 118.78 454.675 118.78 457.054 119.947L476.309 129.597C478.105 130.495 478.374 131.662 478.374 132.29C478.374 132.919 478.105 134.086 476.309 134.984L457.054 144.634C455.842 145.262 454.361 145.532 452.834 145.532ZM452.834 120.89C451.578 120.89 450.366 121.114 449.423 121.563L430.168 131.213C429.494 131.527 429.09 131.976 429.09 132.335C429.09 132.694 429.494 133.098 430.168 133.457L449.423 143.108C451.263 144.05 454.405 144.05 456.246 143.108L475.501 133.457C476.175 133.143 476.579 132.694 476.579 132.335C476.579 131.976 476.175 131.572 475.501 131.213L456.246 121.563C455.303 121.114 454.091 120.89 452.834 120.89Z" fill="#8CD9FF"/>
<path d="M444.89 160.883L438.292 157.561C437.664 157.247 437.17 156.484 437.17 155.856V149.302C437.17 148.674 437.664 148.45 438.292 148.719L444.89 152.04C445.519 152.355 446.012 153.118 446.012 153.746V160.344C446.012 160.973 445.519 161.197 444.89 160.883Z" fill="#A7B1F2"/>
<path d="M460.778 160.883L467.376 157.561C468.005 157.247 468.499 156.484 468.499 155.856V149.302C468.499 148.674 468.005 148.45 467.376 148.719L460.778 152.04C460.15 152.355 459.656 153.118 459.656 153.746V160.344C459.656 160.973 460.15 161.197 460.778 160.883Z" fill="#A7B1F2"/>
<path d="M444.89 152.04L438.291 148.719C437.977 148.539 437.663 148.539 437.484 148.674L410.597 162.139C410.373 162.229 410.283 162.453 410.283 162.768V169.366C410.283 169.994 410.777 170.757 411.405 171.071L418.003 174.393C418.318 174.572 418.632 174.572 418.811 174.438L445.742 160.972C445.967 160.882 446.057 160.658 446.057 160.344V153.746C446.012 153.117 445.518 152.354 444.89 152.04Z" fill="url(#paint47_linear_2422_68284)"/>
<path d="M460.778 152.04L467.376 148.719C467.691 148.539 468.005 148.539 468.184 148.674L495.07 162.139C495.295 162.229 495.385 162.453 495.385 162.768V169.366C495.385 169.994 494.891 170.757 494.263 171.071L487.664 174.393C487.35 174.572 487.036 174.572 486.857 174.438L459.926 160.972C459.701 160.882 459.611 160.658 459.611 160.344V153.746C459.656 153.117 460.15 152.354 460.778 152.04Z" fill="url(#paint48_linear_2422_68284)"/>
<path d="M93.8223 83.3639V54.6375C93.8223 54.3681 94.0467 54.0539 94.4507 53.8744L102.35 49.9245C103.203 49.4757 104.64 49.4757 105.492 49.9245L113.392 53.8744C113.841 54.0988 114.021 54.3681 114.021 54.6375V83.3639H93.8223Z" fill="url(#paint49_linear_2422_68284)"/>
<path d="M103.965 70.617C102.439 70.617 100.913 70.3028 99.7462 69.7193L80.4905 60.069C78.6951 59.1713 78.4258 58.0043 78.4258 57.3759C78.4258 56.7475 78.6951 55.5805 80.4905 54.6828L99.7462 45.0325C102.125 43.8655 105.806 43.8655 108.185 45.0325L127.44 54.6828C129.236 55.5805 129.505 56.7475 129.505 57.3759C129.505 58.0043 129.236 59.1713 127.44 60.069L108.14 69.7193C106.973 70.3476 105.447 70.617 103.965 70.617ZM103.965 45.9751C102.709 45.9751 101.497 46.1995 100.554 46.6483L81.2984 56.2986C80.6251 56.6128 80.2212 57.0617 80.2212 57.4208C80.2212 57.7798 80.6251 58.1838 81.2984 58.5429L100.554 68.1932C102.394 69.1358 105.536 69.1358 107.377 68.1932L126.632 58.5429C127.306 58.2287 127.71 57.7798 127.71 57.4208C127.71 57.0617 127.306 56.6577 126.632 56.2986L107.377 46.6483C106.434 46.1995 105.177 45.9751 103.965 45.9751Z" fill="#8CD9FF"/>
<path d="M122.638 32.7343L107.018 24.9243C105.313 24.0715 102.53 24.0715 100.824 24.9243L85.204 32.7343C84.3512 33.1831 83.9023 33.7217 83.9023 34.2604V54.0547C83.9023 54.5933 84.3512 55.1768 85.204 55.5808L100.824 63.3908C102.53 64.2436 105.313 64.2436 107.018 63.3908L122.638 55.5808C123.491 55.1319 123.94 54.5933 123.94 54.0547V34.2604C123.94 33.7217 123.491 33.1382 122.638 32.7343Z" fill="url(#paint50_linear_2422_68284)"/>
<path d="M122.637 35.8313L107.017 43.6413C105.312 44.4942 102.529 44.4942 100.823 43.6413L85.2031 35.8313C83.4974 34.9785 83.4974 33.5871 85.2031 32.7343L100.823 24.9243C102.529 24.0715 105.312 24.0715 107.017 24.9243L122.637 32.7343C124.343 33.5871 124.343 34.9785 122.637 35.8313Z" fill="url(#paint51_linear_2422_68284)"/>
<path d="M113.437 35.0684L105.537 39.0183C104.684 39.4672 103.248 39.4672 102.395 39.0183L94.4951 35.0684C93.6423 34.6196 93.6423 33.9463 94.4951 33.4975L102.395 29.5476C103.248 29.0987 104.684 29.0987 105.537 29.5476L113.437 33.4975C114.289 33.9014 114.289 34.6196 113.437 35.0684Z" fill="#D3DAF3"/>
<path d="M93.8223 5.53418V34.2606C93.8223 34.5299 94.0467 34.8441 94.4507 35.0236L102.35 38.9735C103.203 39.4224 104.64 39.4224 105.492 38.9735L113.392 35.0236C113.841 34.7992 114.021 34.5299 114.021 34.2606V5.53418H93.8223Z" fill="url(#paint52_linear_2422_68284)"/>
<path d="M341.969 497.103V468.377C341.969 468.107 342.193 467.793 342.597 467.614L350.497 463.664C351.35 463.215 352.786 463.215 353.639 463.664L361.539 467.614C361.987 467.838 362.167 468.107 362.167 468.377V497.103H341.969Z" fill="url(#paint53_linear_2422_68284)"/>
<path d="M352.112 484.402C350.586 484.402 349.06 484.087 347.893 483.504L328.637 473.854C326.842 472.956 326.572 471.789 326.572 471.161C326.572 470.532 326.842 469.365 328.637 468.467L347.893 458.817C350.272 457.65 353.952 457.65 356.331 458.817L375.587 468.467C377.382 469.365 377.651 470.532 377.651 471.161C377.651 471.789 377.382 472.956 375.587 473.854L356.331 483.504C355.119 484.087 353.638 484.402 352.112 484.402ZM352.112 459.715C350.855 459.715 349.643 459.939 348.701 460.388L329.445 470.038C328.772 470.353 328.368 470.801 328.368 471.161C328.368 471.52 328.772 471.924 329.445 472.283L348.701 481.933C350.541 482.876 353.683 482.876 355.523 481.933L374.779 472.283C375.452 471.968 375.856 471.52 375.856 471.161C375.856 470.801 375.452 470.397 374.779 470.038L355.523 460.388C354.581 459.939 353.324 459.715 352.112 459.715Z" fill="#8CD9FF"/>
<path d="M370.785 446.474L355.165 438.664C353.459 437.811 350.676 437.811 348.97 438.664L333.35 446.474C332.498 446.922 332.049 447.461 332.049 448V467.794C332.049 468.333 332.498 468.916 333.35 469.32L348.97 477.13C350.676 477.983 353.459 477.983 355.165 477.13L370.785 469.32C371.637 468.871 372.086 468.333 372.086 467.794V448C372.086 447.461 371.637 446.922 370.785 446.474Z" fill="url(#paint54_linear_2422_68284)"/>
<path d="M370.784 449.571L355.164 457.381C353.458 458.233 350.675 458.233 348.97 457.381L333.35 449.571C331.644 448.718 331.644 447.326 333.35 446.474L348.97 438.664C350.675 437.811 353.458 437.811 355.164 438.664L370.784 446.474C372.489 447.326 372.489 448.718 370.784 449.571Z" fill="url(#paint55_linear_2422_68284)"/>
<path d="M361.583 448.807L353.683 452.757C352.83 453.206 351.394 453.206 350.541 452.757L342.642 448.807C341.789 448.358 341.789 447.685 342.642 447.236L350.541 443.286C351.394 442.837 352.83 442.837 353.683 443.286L361.583 447.236C362.436 447.685 362.436 448.358 361.583 448.807Z" fill="#D3DAF3"/>
<path d="M341.969 419.273V447.999C341.969 448.269 342.193 448.583 342.597 448.762L350.497 452.712C351.35 453.161 352.786 453.161 353.639 452.712L361.539 448.762C361.987 448.538 362.167 448.269 362.167 447.999V419.273H341.969Z" fill="url(#paint56_linear_2422_68284)"/>
<defs>
<linearGradient id="paint0_linear_2422_68284" x1="237.684" y1="225.11" x2="258.016" y2="188.43" gradientUnits="userSpaceOnUse">
<stop stop-color="#F2F3FF"/>
<stop offset="0.5173" stop-color="#D3D7F2"/>
<stop offset="1" stop-color="#D4D7F2"/>
</linearGradient>
<linearGradient id="paint1_linear_2422_68284" x1="217.481" y1="224.452" x2="217.481" y2="202.379" gradientUnits="userSpaceOnUse">
<stop stop-color="#D3DAF3"/>
<stop offset="1" stop-color="#B4C1F3"/>
</linearGradient>
<linearGradient id="paint2_linear_2422_68284" x1="157.992" y1="271.756" x2="196.828" y2="201.695" gradientUnits="userSpaceOnUse">
<stop stop-color="#D3D7F2"/>
<stop offset="0.3838" stop-color="#BBC9F8"/>
<stop offset="0.7897" stop-color="#D3D7F2"/>
<stop offset="1" stop-color="#F2F3FF"/>
</linearGradient>
<linearGradient id="paint3_linear_2422_68284" x1="145.853" y1="271.074" x2="145.853" y2="258.836" gradientUnits="userSpaceOnUse">
<stop stop-color="#D3DAF3"/>
<stop offset="1" stop-color="#B4C1F3"/>
</linearGradient>
<linearGradient id="paint4_linear_2422_68284" x1="115.415" y1="296.471" x2="136.059" y2="259.228" gradientUnits="userSpaceOnUse">
<stop stop-color="#D3D7F2"/>
<stop offset="0.3838" stop-color="#BBC9F8"/>
<stop offset="0.7897" stop-color="#D3D7F2"/>
<stop offset="1" stop-color="#F2F3FF"/>
</linearGradient>
<linearGradient id="paint5_linear_2422_68284" x1="79.4838" y1="336.103" x2="104.903" y2="290.245" gradientUnits="userSpaceOnUse">
<stop stop-color="white"/>
<stop offset="0.7897" stop-color="#D3D7F2"/>
<stop offset="1" stop-color="#F2F3FF"/>
</linearGradient>
<linearGradient id="paint6_linear_2422_68284" x1="204.182" y1="196.19" x2="219.75" y2="168.103" gradientUnits="userSpaceOnUse">
<stop stop-color="#4C58DA"/>
<stop offset="0.3155" stop-color="#343FB0"/>
<stop offset="1" stop-color="#D5D8F3"/>
</linearGradient>
<linearGradient id="paint7_linear_2422_68284" x1="192.969" y1="175.446" x2="178.965" y2="182.519" gradientUnits="userSpaceOnUse">
<stop stop-color="#4C58D9"/>
<stop offset="1" stop-color="#4D59DB"/>
</linearGradient>
<linearGradient id="paint8_linear_2422_68284" x1="91.1122" y1="281.007" x2="158.028" y2="160.287" gradientUnits="userSpaceOnUse">
<stop stop-color="#24488F"/>
<stop offset="0.3155" stop-color="#4979D6"/>
<stop offset="0.6278" stop-color="#1F4388"/>
<stop offset="1" stop-color="#4B7AD6"/>
</linearGradient>
<linearGradient id="paint9_linear_2422_68284" x1="75.4149" y1="263.084" x2="60.9528" y2="270.388" gradientUnits="userSpaceOnUse">
<stop stop-color="#204286"/>
<stop offset="1" stop-color="#4B7AD7"/>
</linearGradient>
<linearGradient id="paint10_linear_2422_68284" x1="18.3765" y1="320.675" x2="52.8094" y2="258.556" gradientUnits="userSpaceOnUse">
<stop stop-color="white"/>
<stop offset="0.366" stop-color="#3A65B9"/>
<stop offset="0.6278" stop-color="#24488F"/>
<stop offset="1" stop-color="#4B7AD8"/>
</linearGradient>
<linearGradient id="paint11_linear_2422_68284" x1="366.581" y1="134.519" x2="395.491" y2="82.3643" gradientUnits="userSpaceOnUse">
<stop offset="0.144" stop-color="#D3D7F2"/>
<stop offset="1" stop-color="white"/>
</linearGradient>
<linearGradient id="paint12_linear_2422_68284" x1="359.929" y1="135.067" x2="359.929" y2="132.555" gradientUnits="userSpaceOnUse">
<stop stop-color="#D3DAF3"/>
<stop offset="1" stop-color="#B4C1F3"/>
</linearGradient>
<linearGradient id="paint13_linear_2422_68284" x1="329.491" y1="162.155" x2="350.135" y2="124.911" gradientUnits="userSpaceOnUse">
<stop stop-color="#D3D7F2"/>
<stop offset="0.3838" stop-color="#BBC9F8"/>
<stop offset="0.7897" stop-color="#D3D7F2"/>
<stop offset="1" stop-color="#F2F3FF"/>
</linearGradient>
<linearGradient id="paint14_linear_2422_68284" x1="293.56" y1="201.787" x2="318.979" y2="155.929" gradientUnits="userSpaceOnUse">
<stop stop-color="#D3D7F2"/>
<stop offset="1" stop-color="#F2F3FF"/>
</linearGradient>
<linearGradient id="paint15_linear_2422_68284" x1="335.226" y1="116.119" x2="358.378" y2="74.353" gradientUnits="userSpaceOnUse">
<stop stop-color="#4C7CD8"/>
<stop offset="1" stop-color="white"/>
</linearGradient>
<linearGradient id="paint16_linear_2422_68284" x1="330.354" y1="104.197" x2="315.892" y2="111.501" gradientUnits="userSpaceOnUse">
<stop stop-color="#184EB8"/>
<stop offset="1" stop-color="#4785FF"/>
</linearGradient>
<linearGradient id="paint17_linear_2422_68284" x1="273.316" y1="161.787" x2="307.749" y2="99.6684" gradientUnits="userSpaceOnUse">
<stop stop-color="white"/>
<stop offset="0.366" stop-color="#355EAE"/>
<stop offset="0.6278" stop-color="#20448A"/>
<stop offset="1" stop-color="#4B7BD8"/>
</linearGradient>
<linearGradient id="paint18_linear_2422_68284" x1="93.0659" y1="150.035" x2="343.068" y2="150.035" gradientUnits="userSpaceOnUse">
<stop stop-color="#E8EAFB"/>
<stop offset="1" stop-color="white"/>
</linearGradient>
<linearGradient id="paint19_linear_2422_68284" x1="95.5649" y1="332.206" x2="345.138" y2="332.206" gradientUnits="userSpaceOnUse">
<stop stop-color="#E1E3F8"/>
<stop offset="0.5" stop-color="#D3D7F2"/>
<stop offset="1" stop-color="#F2F3FF"/>
</linearGradient>
<linearGradient id="paint20_linear_2422_68284" x1="93.0659" y1="150.035" x2="343.068" y2="150.035" gradientUnits="userSpaceOnUse">
<stop stop-color="#E8EAFB"/>
<stop offset="1" stop-color="white"/>
</linearGradient>
<linearGradient id="paint21_linear_2422_68284" x1="169.722" y1="106.05" x2="239.232" y2="73.5691" gradientUnits="userSpaceOnUse">
<stop stop-color="#01328F"/>
<stop offset="1" stop-color="#4A78D0"/>
</linearGradient>
<linearGradient id="paint22_linear_2422_68284" x1="201.715" y1="72.1364" x2="268.489" y2="105.861" gradientUnits="userSpaceOnUse">
<stop stop-color="#154BB3"/>
<stop offset="1" stop-color="#4472CB"/>
</linearGradient>
<linearGradient id="paint23_linear_2422_68284" x1="247.37" y1="13.9908" x2="193.793" y2="13.9908" gradientUnits="userSpaceOnUse">
<stop stop-color="#00308C"/>
<stop offset="1" stop-color="#82ADFF"/>
</linearGradient>
<linearGradient id="paint24_linear_2422_68284" x1="152.513" y1="88.9989" x2="208.421" y2="88.9989" gradientUnits="userSpaceOnUse">
<stop stop-color="#E8EAFB"/>
<stop offset="1" stop-color="white"/>
</linearGradient>
<linearGradient id="paint25_linear_2422_68284" x1="152.513" y1="66.798" x2="208.421" y2="66.798" gradientUnits="userSpaceOnUse">
<stop stop-color="#E8EAFB"/>
<stop offset="1" stop-color="white"/>
</linearGradient>
<linearGradient id="paint26_linear_2422_68284" x1="289.163" y1="303.352" x2="325.611" y2="231.154" gradientUnits="userSpaceOnUse">
<stop stop-color="#E1E3F8"/>
<stop offset="0.4179" stop-color="#B4C1F3"/>
<stop offset="0.5363" stop-color="#D3D7F2"/>
<stop offset="1" stop-color="#D3D7F2"/>
</linearGradient>
<linearGradient id="paint27_linear_2422_68284" x1="337.848" y1="270.049" x2="286.785" y2="270.049" gradientUnits="userSpaceOnUse">
<stop stop-color="#E8EAFB"/>
<stop offset="1" stop-color="white"/>
</linearGradient>
<linearGradient id="paint28_linear_2422_68284" x1="317.416" y1="435.706" x2="566.989" y2="435.706" gradientUnits="userSpaceOnUse">
<stop stop-color="#E1E3F8"/>
<stop offset="0.5" stop-color="#D3D7F2"/>
<stop offset="1" stop-color="#F2F3FF"/>
</linearGradient>
<linearGradient id="paint29_linear_2422_68284" x1="314.917" y1="357.037" x2="564.919" y2="357.037" gradientUnits="userSpaceOnUse">
<stop stop-color="#E8EAFB"/>
<stop offset="1" stop-color="white"/>
</linearGradient>
<linearGradient id="paint30_linear_2422_68284" x1="514.655" y1="346.302" x2="372.761" y2="346.302" gradientUnits="userSpaceOnUse">
<stop stop-color="#017AFF"/>
<stop offset="1" stop-color="#52A5FF"/>
</linearGradient>
<linearGradient id="paint31_linear_2422_68284" x1="370.81" y1="337.774" x2="516.985" y2="337.774" gradientUnits="userSpaceOnUse">
<stop stop-color="#D3D7F2"/>
<stop offset="0.3771" stop-color="#BBC9F8"/>
<stop offset="0.4912" stop-color="#D3D7F2"/>
<stop offset="1" stop-color="#F2F3FF"/>
</linearGradient>
<linearGradient id="paint32_linear_2422_68284" x1="399.205" y1="348.912" x2="434.969" y2="277.4" gradientUnits="userSpaceOnUse">
<stop stop-color="#E8EAFB"/>
<stop offset="1" stop-color="white"/>
</linearGradient>
<linearGradient id="paint33_linear_2422_68284" x1="514.655" y1="311.238" x2="372.761" y2="311.238" gradientUnits="userSpaceOnUse">
<stop stop-color="#017AFF"/>
<stop offset="1" stop-color="#7CBAFF"/>
</linearGradient>
<linearGradient id="paint34_linear_2422_68284" x1="370.81" y1="302.709" x2="516.985" y2="302.709" gradientUnits="userSpaceOnUse">
<stop stop-color="#D3D7F2"/>
<stop offset="0.3771" stop-color="#BBC9F8"/>
<stop offset="0.4912" stop-color="#D3D7F2"/>
<stop offset="1" stop-color="#F2F3FF"/>
</linearGradient>
<linearGradient id="paint35_linear_2422_68284" x1="399.206" y1="313.848" x2="434.969" y2="242.336" gradientUnits="userSpaceOnUse">
<stop stop-color="#E8EAFB"/>
<stop offset="1" stop-color="white"/>
</linearGradient>
<linearGradient id="paint36_linear_2422_68284" x1="514.655" y1="276.174" x2="372.761" y2="276.174" gradientUnits="userSpaceOnUse">
<stop stop-color="#017AFF"/>
<stop offset="1" stop-color="#76B7FF"/>
</linearGradient>
<linearGradient id="paint37_linear_2422_68284" x1="370.81" y1="267.646" x2="516.985" y2="267.646" gradientUnits="userSpaceOnUse">
<stop stop-color="#D3D7F2"/>
<stop offset="0.3771" stop-color="#BBC9F8"/>
<stop offset="0.4912" stop-color="#D3D7F2"/>
<stop offset="1" stop-color="#F2F3FF"/>
</linearGradient>
<linearGradient id="paint38_linear_2422_68284" x1="399.205" y1="278.785" x2="434.969" y2="207.273" gradientUnits="userSpaceOnUse">
<stop stop-color="#E8EAFB"/>
<stop offset="1" stop-color="white"/>
</linearGradient>
<linearGradient id="paint39_linear_2422_68284" x1="26.0182" y1="469.654" x2="275.591" y2="469.654" gradientUnits="userSpaceOnUse">
<stop stop-color="#E1E3F8"/>
<stop offset="0.5" stop-color="#D3D7F2"/>
<stop offset="1" stop-color="#F2F3FF"/>
</linearGradient>
<linearGradient id="paint40_linear_2422_68284" x1="23.5191" y1="424.932" x2="273.521" y2="424.932" gradientUnits="userSpaceOnUse">
<stop stop-color="#E8EAFB"/>
<stop offset="1" stop-color="white"/>
</linearGradient>
<linearGradient id="paint41_linear_2422_68284" x1="75.8725" y1="406.615" x2="224.201" y2="406.615" gradientUnits="userSpaceOnUse">
<stop stop-color="#D3D7F2"/>
<stop offset="0.45" stop-color="#BBC9F8"/>
<stop offset="0.55" stop-color="#D3D7F2"/>
<stop offset="1" stop-color="#F2F3FF"/>
</linearGradient>
<linearGradient id="paint42_linear_2422_68284" x1="109.171" y1="415.093" x2="141.872" y2="349.703" gradientUnits="userSpaceOnUse">
<stop stop-color="#E8EAFB"/>
<stop offset="1" stop-color="white"/>
</linearGradient>
<linearGradient id="paint43_linear_2422_68284" x1="75.9861" y1="403.816" x2="224.315" y2="403.816" gradientUnits="userSpaceOnUse">
<stop stop-color="#D3D7F2"/>
<stop offset="0.45" stop-color="#BBC9F8"/>
<stop offset="0.55" stop-color="#D3D7F2"/>
<stop offset="1" stop-color="#F2F3FF"/>
</linearGradient>
<linearGradient id="paint44_linear_2422_68284" x1="452.824" y1="188.866" x2="452.824" y2="154.919" gradientUnits="userSpaceOnUse">
<stop stop-color="white" stop-opacity="0"/>
<stop offset="1" stop-color="#22D2FD"/>
</linearGradient>
<linearGradient id="paint45_linear_2422_68284" x1="433.053" y1="149.429" x2="472.599" y2="149.429" gradientUnits="userSpaceOnUse">
<stop stop-color="#D3D7F2"/>
<stop offset="0.45" stop-color="#BBC9F8"/>
<stop offset="0.55" stop-color="#D3D7F2"/>
<stop offset="1" stop-color="#F2F3FF"/>
</linearGradient>
<linearGradient id="paint46_linear_2422_68284" x1="441.93" y1="144.971" x2="450.648" y2="127.537" gradientUnits="userSpaceOnUse">
<stop stop-color="#E8EAFB"/>
<stop offset="1" stop-color="white"/>
</linearGradient>
<linearGradient id="paint47_linear_2422_68284" x1="415.927" y1="167.823" x2="442.414" y2="154.183" gradientUnits="userSpaceOnUse">
<stop stop-color="white" stop-opacity="0"/>
<stop offset="1" stop-color="#22D2FD"/>
</linearGradient>
<linearGradient id="paint48_linear_2422_68284" x1="489.722" y1="167.823" x2="463.234" y2="154.183" gradientUnits="userSpaceOnUse">
<stop stop-color="white" stop-opacity="0"/>
<stop offset="1" stop-color="#22D2FD"/>
</linearGradient>
<linearGradient id="paint49_linear_2422_68284" x1="103.945" y1="83.612" x2="103.945" y2="49.6648" gradientUnits="userSpaceOnUse">
<stop stop-color="white" stop-opacity="0"/>
<stop offset="1" stop-color="#22D2FD"/>
</linearGradient>
<linearGradient id="paint50_linear_2422_68284" x1="84.1719" y1="44.1756" x2="123.718" y2="44.1756" gradientUnits="userSpaceOnUse">
<stop stop-color="#D3D7F2"/>
<stop offset="0.45" stop-color="#BBC9F8"/>
<stop offset="0.55" stop-color="#D3D7F2"/>
<stop offset="1" stop-color="#F2F3FF"/>
</linearGradient>
<linearGradient id="paint51_linear_2422_68284" x1="93.0488" y1="39.717" x2="101.767" y2="22.2832" gradientUnits="userSpaceOnUse">
<stop stop-color="#E8EAFB"/>
<stop offset="1" stop-color="white"/>
</linearGradient>
<linearGradient id="paint52_linear_2422_68284" x1="103.945" y1="5.28148" x2="103.945" y2="39.2287" gradientUnits="userSpaceOnUse">
<stop stop-color="white" stop-opacity="0"/>
<stop offset="1" stop-color="#22D2FD"/>
</linearGradient>
<linearGradient id="paint53_linear_2422_68284" x1="352.1" y1="497.37" x2="352.1" y2="463.423" gradientUnits="userSpaceOnUse">
<stop stop-color="white" stop-opacity="0"/>
<stop offset="1" stop-color="#22D2FD"/>
</linearGradient>
<linearGradient id="paint54_linear_2422_68284" x1="332.327" y1="457.934" x2="371.874" y2="457.934" gradientUnits="userSpaceOnUse">
<stop stop-color="#D3D7F2"/>
<stop offset="0.45" stop-color="#BBC9F8"/>
<stop offset="0.55" stop-color="#D3D7F2"/>
<stop offset="1" stop-color="#F2F3FF"/>
</linearGradient>
<linearGradient id="paint55_linear_2422_68284" x1="341.204" y1="453.475" x2="349.923" y2="436.041" gradientUnits="userSpaceOnUse">
<stop stop-color="#E8EAFB"/>
<stop offset="1" stop-color="white"/>
</linearGradient>
<linearGradient id="paint56_linear_2422_68284" x1="352.1" y1="419.039" x2="352.1" y2="452.986" gradientUnits="userSpaceOnUse">
<stop stop-color="white" stop-opacity="0"/>
<stop offset="1" stop-color="#22D2FD"/>
</linearGradient>
</defs>
</svg>
