<svg width="338" height="285" viewBox="0 0 338 285" fill="none" xmlns="http://www.w3.org/2000/svg">
<path d="M110.795 70.8328H252.085V85.6378L181.44 120.912L110.795 85.6378V70.8328Z" fill="url(#paint0_linear_2422_86933)"/>
<path d="M248.127 75.6024L190.992 104.17C185.715 106.808 177.14 106.808 171.862 104.17L114.753 75.6024C109.476 72.9639 109.476 68.6762 114.753 66.0376L171.888 37.4701C177.165 34.8316 185.74 34.8316 191.017 37.4701L248.127 66.0376C253.429 68.6762 253.429 72.9639 248.127 75.6024Z" fill="url(#paint1_linear_2422_86933)"/>
<path d="M110.795 70.8328H252.085V84.2155L181.44 120.912L110.795 84.2155V70.8328Z" fill="url(#paint2_linear_2422_86933)"/>
<path d="M248.127 85.7507L190.992 114.318C185.715 116.957 177.14 116.957 171.862 114.318L114.753 85.7507C112.114 84.4314 110.795 82.7062 110.795 80.981V83.518C110.795 85.2432 112.114 86.9685 114.753 88.2877L171.888 116.855C177.165 119.494 185.74 119.494 191.017 116.855L248.127 88.2877C250.766 86.9685 252.085 85.2432 252.085 83.518V80.981C252.085 82.7062 250.766 84.4314 248.127 85.7507Z" fill="#02CEFF"/>
<path d="M248.127 88.2878L190.992 116.855C185.715 119.494 177.14 119.494 171.862 116.855L114.753 88.2878C112.114 86.9685 110.795 85.2433 110.795 83.5181V86.0551C110.795 87.7804 112.114 89.5056 114.753 90.8248L171.888 119.392C177.165 122.031 185.74 122.031 191.017 119.392L248.127 90.8248C250.766 89.5056 252.085 87.7804 252.085 86.0551V83.5181C252.085 85.2433 250.766 86.9685 248.127 88.2878Z" fill="white"/>
<path d="M248.127 75.6024L190.992 104.17C185.715 106.808 177.14 106.808 171.862 104.17L114.753 75.6024C109.476 72.9639 109.476 68.6762 114.753 66.0376L171.888 37.4701C177.165 34.8316 185.74 34.8316 191.017 37.4701L248.127 66.0376C253.429 68.6762 253.429 72.9639 248.127 75.6024Z" fill="url(#paint3_linear_2422_86933)"/>
<path d="M181.452 103.257C178.23 103.257 175.008 102.648 172.572 101.43L121.12 75.704C118.583 74.4354 117.213 72.7102 117.213 70.8328C117.213 68.9553 118.608 67.2301 121.12 65.9616L172.547 40.2356C177.443 37.7747 185.435 37.7747 190.331 40.2356L241.758 65.9616C244.295 67.2301 245.665 68.9553 245.665 70.8328C245.665 72.7102 244.27 74.4354 241.758 75.704L190.331 101.405C187.871 102.622 184.648 103.257 181.452 103.257ZM181.452 39.6521C178.433 39.6521 175.413 40.2356 173.13 41.3773L121.704 67.0779C119.623 68.1181 118.481 69.4374 118.481 70.8074C118.481 72.1774 119.623 73.4967 121.704 74.5369L173.13 100.263C177.722 102.546 185.181 102.546 189.773 100.263L241.2 74.5369C243.28 73.4967 244.422 72.1774 244.422 70.8074C244.422 69.4374 243.28 68.1181 241.2 67.0779L189.773 41.3773C187.465 40.2102 184.445 39.6521 181.452 39.6521Z" fill="#D3DAF3"/>
<path d="M196.344 192.892H337.659V209.702L267.001 245.792L196.344 209.702V192.892Z" fill="url(#paint4_linear_2422_86933)"/>
<path d="M333.701 210.372L276.566 238.94C271.289 241.578 262.714 241.578 257.437 238.94L200.302 210.372C197.663 209.053 196.344 207.328 196.344 205.602V208.139C196.344 209.865 197.663 211.59 200.302 212.909L257.437 241.477C262.714 244.115 271.289 244.115 276.566 241.477L333.701 212.909C336.34 211.59 337.659 209.865 337.659 208.139V205.602C337.659 207.328 336.34 209.053 333.701 210.372Z" fill="#02CEFF"/>
<path d="M333.701 212.909L276.566 241.477C271.289 244.115 262.714 244.115 257.437 241.477L200.302 212.909C197.663 211.59 196.344 209.865 196.344 208.139V210.676C196.344 212.402 197.663 214.127 200.302 215.446L257.437 244.014C262.714 246.652 271.289 246.652 276.566 244.014L333.701 215.446C336.34 214.127 337.659 212.402 337.659 210.676V208.139C337.659 209.865 336.34 211.59 333.701 212.909Z" fill="white"/>
<path d="M333.701 197.687L276.566 226.254C271.289 228.893 262.714 228.893 257.437 226.254L200.302 197.687C195.024 195.048 195.024 190.76 200.302 188.122L257.437 159.554C262.714 156.916 271.289 156.916 276.566 159.554L333.701 188.122C338.978 190.76 338.978 195.048 333.701 197.687Z" fill="url(#paint5_linear_2422_86933)"/>
<path d="M267.003 225.315C263.78 225.315 260.558 224.707 258.123 223.489L206.696 197.763C204.159 196.494 202.789 194.769 202.789 192.892C202.789 191.014 204.184 189.289 206.696 188.02L258.123 162.294C263.019 159.833 271.011 159.833 275.908 162.294L327.309 188.02C329.846 189.289 331.216 191.014 331.216 192.892C331.216 194.769 329.821 196.494 327.309 197.763L275.882 223.489C273.447 224.707 270.225 225.315 267.003 225.315ZM267.003 161.736C263.983 161.736 260.964 162.32 258.681 163.462L207.254 189.162C205.174 190.202 204.032 191.522 204.032 192.892C204.032 194.262 205.174 195.581 207.254 196.621L258.681 222.347C263.273 224.63 270.732 224.63 275.324 222.347L326.751 196.646C328.831 195.606 329.973 194.287 329.973 192.917C329.973 191.547 328.831 190.228 326.751 189.187L275.324 163.462C273.041 162.294 270.022 161.736 267.003 161.736Z" fill="#D3DAF3"/>
<path d="M148.193 253.807L91.0583 282.4C85.7812 285.038 77.2059 285.038 71.9288 282.4L14.7938 253.807C9.51666 251.168 9.51666 246.881 14.7938 244.242L71.9288 215.674C77.2059 213.036 85.7812 213.036 91.0583 215.674L148.193 244.242C153.47 246.906 153.47 251.168 148.193 253.807Z" fill="url(#paint6_linear_2422_86933)"/>
<g opacity="0.3">
<path opacity="0.047619" d="M220.692 196.981L258.875 216.085C260.524 216.922 263.213 216.922 264.862 216.085L274.25 211.392C275.899 210.554 275.899 209.235 274.25 208.398L236.067 189.294C234.417 188.456 231.728 188.456 230.079 189.294L220.692 193.987C219.043 194.825 219.043 196.169 220.692 196.981Z" fill="#A7B1F2"/>
<path opacity="0.095238" d="M221.987 196.347L260.17 215.451C261.819 216.288 264.508 216.288 266.157 215.451L275.545 210.757C277.194 209.92 277.194 208.601 275.545 207.763L237.362 188.659C235.712 187.822 233.023 187.822 231.374 188.659L221.987 193.353C220.338 194.19 220.338 195.535 221.987 196.347Z" fill="#A7B1F2"/>
<path opacity="0.1429" d="M223.279 195.712L261.462 214.817C263.111 215.654 265.8 215.654 267.45 214.817L276.837 210.123C278.486 209.286 278.486 207.967 276.837 207.129L238.628 188.025C236.979 187.188 234.29 187.188 232.641 188.025L223.254 192.719C221.63 193.556 221.63 194.901 223.279 195.712Z" fill="#A7B1F2"/>
<path opacity="0.1905" d="M224.574 195.078L262.757 214.182C264.406 215.019 267.096 215.019 268.745 214.182L278.132 209.489C279.781 208.651 279.781 207.332 278.132 206.495L239.949 187.391C238.3 186.553 235.611 186.553 233.961 187.391L224.574 192.084C222.9 192.921 222.9 194.241 224.574 195.078Z" fill="#A7B1F2"/>
<path opacity="0.2381" d="M225.844 194.444L264.027 213.548C265.676 214.385 268.366 214.385 270.015 213.548L279.402 208.854C281.051 208.017 281.051 206.698 279.402 205.861L241.219 186.756C239.57 185.919 236.881 185.919 235.231 186.756L225.844 191.45C224.195 192.287 224.195 193.606 225.844 194.444Z" fill="#A7B1F2"/>
<path opacity="0.2857" d="M227.137 193.809L265.32 212.914C266.969 213.751 269.659 213.751 271.308 212.914L280.695 208.22C282.344 207.383 282.344 206.063 280.695 205.226L242.512 186.122C240.863 185.285 238.174 185.285 236.524 186.122L227.137 190.816C225.488 191.653 225.488 192.972 227.137 193.809Z" fill="#A7B1F2"/>
<path opacity="0.3333" d="M228.431 193.175L266.614 212.279C268.264 213.117 270.953 213.117 272.602 212.279L281.989 207.586C283.638 206.748 283.638 205.429 281.989 204.592L243.781 185.488C242.132 184.651 239.442 184.651 237.793 185.488L228.406 190.181C226.782 191.019 226.782 192.338 228.431 193.175Z" fill="#A7B1F2"/>
<path opacity="0.381" d="M229.726 192.541L267.909 211.645C269.558 212.483 272.247 212.483 273.896 211.645L283.284 206.952C284.933 206.114 284.933 204.795 283.284 203.958L245.075 184.854C243.426 184.017 240.737 184.017 239.088 184.854L229.7 189.547C228.051 190.385 228.051 191.704 229.726 192.541Z" fill="#A7B1F2"/>
<path opacity="0.4286" d="M230.993 191.907L269.176 211.011C270.825 211.848 273.514 211.848 275.163 211.011L284.55 206.317C286.2 205.48 286.2 204.161 284.55 203.323L246.367 184.219C244.718 183.382 242.029 183.382 240.38 184.219L230.993 188.913C229.344 189.75 229.344 191.069 230.993 191.907Z" fill="#A7B1F2"/>
<path opacity="0.4762" d="M232.288 191.273L270.471 210.377C272.12 211.214 274.809 211.214 276.458 210.377L285.845 205.683C287.494 204.846 287.494 203.527 285.845 202.689L247.662 183.585C246.013 182.748 243.324 182.748 241.675 183.585L232.288 188.279C230.639 189.116 230.639 190.435 232.288 191.273Z" fill="#A7B1F2"/>
<path opacity="0.5238" d="M233.58 190.638L271.763 209.742C273.412 210.579 276.101 210.579 277.75 209.742L287.138 205.049C288.787 204.211 288.787 202.892 287.138 202.055L248.929 182.951C247.28 182.113 244.591 182.113 242.942 182.951L233.554 187.644C231.931 188.482 231.931 189.801 233.58 190.638Z" fill="#A7B1F2"/>
<path opacity="0.5714" d="M234.874 190.004L273.057 209.108C274.706 209.945 277.395 209.945 279.044 209.108L288.431 204.415C290.08 203.577 290.08 202.258 288.431 201.421L250.248 182.317C248.599 181.479 245.91 181.479 244.261 182.317L234.874 187.01C233.224 187.847 233.224 189.167 234.874 190.004Z" fill="#A7B1F2"/>
<path opacity="0.619" d="M236.143 189.369L274.326 208.474C275.975 209.311 278.665 209.311 280.314 208.474L289.701 203.78C291.35 202.943 291.35 201.624 289.701 200.786L251.518 181.682C249.869 180.845 247.179 180.845 245.53 181.682L236.143 186.376C234.494 187.213 234.494 188.532 236.143 189.369Z" fill="#A7B1F2"/>
<path opacity="0.6667" d="M237.438 188.735L275.621 207.84C277.27 208.677 279.959 208.677 281.609 207.84L290.996 203.146C292.645 202.309 292.645 200.99 290.996 200.152L252.813 181.048C251.164 180.211 248.474 180.211 246.825 181.048L237.438 185.742C235.789 186.579 235.789 187.898 237.438 188.735Z" fill="#A7B1F2"/>
<path opacity="0.7143" d="M238.732 188.101L276.915 207.205C278.564 208.042 281.254 208.042 282.903 207.205L292.29 202.512C293.939 201.674 293.939 200.355 292.29 199.518L254.082 180.414C252.432 179.576 249.743 179.576 248.094 180.414L238.707 185.107C237.083 185.919 237.083 187.264 238.732 188.101Z" fill="#A7B1F2"/>
<path opacity="0.7619" d="M240.026 187.467L278.209 206.571C279.858 207.408 282.547 207.408 284.196 206.571L293.584 201.877C295.233 201.04 295.233 199.721 293.584 198.884L255.401 179.78C253.751 178.942 251.062 178.942 249.413 179.78L240.026 184.473C238.377 185.285 238.377 186.63 240.026 187.467Z" fill="#A7B1F2"/>
<path opacity="0.8095" d="M241.293 186.833L279.476 205.937C281.126 206.774 283.815 206.774 285.464 205.937L294.851 201.243C296.5 200.406 296.5 199.087 294.851 198.249L256.668 179.145C255.019 178.308 252.33 178.308 250.681 179.145L241.293 183.839C239.644 184.651 239.644 185.995 241.293 186.833Z" fill="#A7B1F2"/>
<path opacity="0.8571" d="M242.588 186.198L280.771 205.303C282.421 206.14 285.11 206.14 286.759 205.303L296.146 200.609C297.795 199.772 297.795 198.452 296.146 197.615L257.963 178.511C256.314 177.674 253.625 177.674 251.976 178.511L242.588 183.205C240.939 184.016 240.939 185.361 242.588 186.198Z" fill="#A7B1F2"/>
<path opacity="0.9048" d="M243.881 185.564L282.064 204.668C283.713 205.505 286.402 205.505 288.051 204.668L297.438 199.975C299.087 199.137 299.087 197.818 297.438 196.981L259.23 177.877C257.581 177.039 254.892 177.039 253.242 177.877L243.855 182.57C242.232 183.382 242.232 184.727 243.881 185.564Z" fill="#A7B1F2"/>
<path opacity="0.9524" d="M245.174 184.93L283.357 204.034C285.006 204.871 287.696 204.871 289.345 204.034L298.732 199.34C300.381 198.503 300.381 197.184 298.732 196.346L260.549 177.242C258.9 176.405 256.211 176.405 254.562 177.242L245.174 181.936C243.525 182.748 243.525 184.092 245.174 184.93Z" fill="#A7B1F2"/>
<path d="M246.47 184.295L284.653 203.4C286.302 204.237 288.991 204.237 290.641 203.4L300.028 198.706C301.677 197.869 301.677 196.55 300.028 195.712L261.819 176.608C260.17 175.771 257.481 175.771 255.832 176.608L246.445 181.302C244.796 182.114 244.796 183.458 246.47 184.295Z" fill="#A7B1F2"/>
</g>
<path d="M295.229 112.598L263.008 96.4871C261.765 95.8782 260.674 95.8782 259.939 96.3602L255.27 98.6944C255.144 98.7451 254.991 98.8212 254.89 98.8973H254.864C254.256 99.3033 253.875 100.039 253.875 101.054V174.147C253.875 176.38 255.702 179.12 257.934 180.236L290.155 196.346C291.373 196.955 292.464 196.955 293.2 196.499L297.969 194.114C298.046 194.088 298.122 194.038 298.198 193.987L298.248 193.962C298.883 193.556 299.263 192.82 299.263 191.78V118.687C299.289 116.454 297.462 113.714 295.229 112.598Z" fill="url(#paint7_linear_2422_86933)"/>
<path d="M257.934 180.211L290.155 196.321C292.388 197.438 294.215 196.524 294.215 194.292V121.224C294.215 118.991 292.388 116.251 290.155 115.135L257.934 99.0243C255.702 97.908 253.875 98.8213 253.875 101.054V174.147C253.875 176.38 255.676 179.094 257.934 180.211Z" fill="url(#paint8_linear_2422_86933)"/>
<path d="M285.085 117.672L252.864 101.561C251.621 100.952 250.53 100.952 249.794 101.434L245.126 103.769C244.999 103.819 244.847 103.895 244.745 103.972H244.72C244.111 104.377 243.73 105.113 243.73 106.128V179.221C243.73 181.454 245.557 184.194 247.79 185.31L280.011 201.421C281.228 202.03 282.319 202.03 283.055 201.573L287.825 199.188C287.901 199.163 287.977 199.112 288.053 199.061L288.104 199.036C288.738 198.63 289.119 197.894 289.119 196.854V123.761C289.144 121.528 287.317 118.788 285.085 117.672Z" fill="url(#paint9_linear_2422_86933)"/>
<path d="M247.79 185.285L280.011 201.395C282.243 202.512 284.07 201.598 284.07 199.366V126.298C284.07 124.065 282.243 121.325 280.011 120.209L247.79 104.099C245.557 102.982 243.73 103.896 243.73 106.128V179.221C243.73 181.454 245.532 184.169 247.79 185.285Z" fill="url(#paint10_linear_2422_86933)"/>
<path d="M237.641 190.359L269.862 206.47C272.095 207.586 273.922 206.673 273.922 204.44V131.372C273.922 129.14 272.095 126.399 269.862 125.283L237.641 109.173C235.409 108.056 233.582 108.97 233.582 111.202V184.296C233.582 186.528 235.383 189.243 237.641 190.359Z" fill="url(#paint11_linear_2422_86933)"/>
<path opacity="0.047619" d="M264.68 177.087C268.833 173.845 267.886 165.692 262.566 158.878C257.245 152.064 249.566 149.168 245.413 152.41C241.261 155.652 242.208 163.805 247.528 170.619C252.848 177.433 260.528 180.329 264.68 177.087Z" fill="#A7B1F2"/>
<path opacity="0.095238" d="M264.676 176.505C268.829 173.262 267.882 165.11 262.562 158.296C257.242 151.481 249.562 148.586 245.41 151.828C241.257 155.07 242.204 163.223 247.524 170.037C252.844 176.851 260.524 179.747 264.676 176.505Z" fill="#A7B1F2"/>
<path opacity="0.1429" d="M264.672 175.923C268.825 172.68 267.878 164.528 262.558 157.714C257.238 150.899 249.558 148.004 245.406 151.246C241.253 154.488 242.2 162.641 247.52 169.455C252.84 176.269 260.52 179.165 264.672 175.923Z" fill="#A7B1F2"/>
<path opacity="0.1905" d="M264.668 175.34C268.821 172.098 267.874 163.945 262.554 157.131C257.234 150.317 249.554 147.421 245.402 150.663C241.249 153.905 242.196 162.058 247.516 168.872C252.836 175.686 260.516 178.582 264.668 175.34Z" fill="#A7B1F2"/>
<path opacity="0.2381" d="M264.664 174.758C268.817 171.515 267.87 163.363 262.55 156.549C257.23 149.735 249.55 146.839 245.398 150.081C241.245 153.323 242.192 161.476 247.512 168.29C252.833 175.104 260.512 178 264.664 174.758Z" fill="#A7B1F2"/>
<path opacity="0.2857" d="M264.678 174.195C268.831 170.953 267.884 162.801 262.564 155.987C257.243 149.172 249.564 146.277 245.412 149.519C241.259 152.761 242.206 160.913 247.526 167.728C252.846 174.542 260.526 177.438 264.678 174.195Z" fill="#A7B1F2"/>
<path opacity="0.3333" d="M264.674 173.613C268.827 170.371 267.88 162.219 262.56 155.404C257.24 148.59 249.56 145.694 245.408 148.937C241.255 152.179 242.202 160.331 247.522 167.145C252.842 173.96 260.522 176.855 264.674 173.613Z" fill="#A7B1F2"/>
<path opacity="0.381" d="M264.668 173.031C268.821 169.789 267.874 161.636 262.554 154.822C257.234 148.008 249.554 145.112 245.402 148.354C241.249 151.597 242.196 159.749 247.516 166.563C252.836 173.377 260.516 176.273 264.668 173.031Z" fill="#A7B1F2"/>
<path opacity="0.4286" d="M264.666 172.449C268.819 169.207 267.872 161.054 262.552 154.24C257.232 147.426 249.552 144.53 245.4 147.772C241.247 151.014 242.194 159.167 247.514 165.981C252.835 172.795 260.514 175.691 264.666 172.449Z" fill="#A7B1F2"/>
<path opacity="0.4762" d="M264.678 171.886C268.831 168.644 267.884 160.492 262.564 153.678C257.244 146.863 249.564 143.968 245.412 147.21C241.259 150.452 242.206 158.604 247.526 165.419C252.846 172.233 260.526 175.129 264.678 171.886Z" fill="#A7B1F2"/>
<path opacity="0.5238" d="M264.674 171.304C268.827 168.062 267.88 159.909 262.56 153.095C257.24 146.281 249.56 143.385 245.408 146.627C241.255 149.87 242.202 158.022 247.522 164.836C252.842 171.651 260.522 174.546 264.674 171.304Z" fill="#A7B1F2"/>
<path opacity="0.5714" d="M264.672 170.722C268.825 167.48 267.878 159.327 262.558 152.513C257.238 145.699 249.558 142.803 245.406 146.045C241.253 149.287 242.2 157.44 247.52 164.254C252.84 171.068 260.52 173.964 264.672 170.722Z" fill="#A7B1F2"/>
<path opacity="0.619" d="M264.666 170.14C268.819 166.897 267.872 158.745 262.552 151.931C257.232 145.116 249.552 142.221 245.4 145.463C241.247 148.705 242.194 156.858 247.514 163.672C252.835 170.486 260.514 173.382 264.666 170.14Z" fill="#A7B1F2"/>
<path opacity="0.6667" d="M264.68 169.577C268.833 166.335 267.886 158.183 262.566 151.368C257.245 144.554 249.566 141.658 245.413 144.901C241.261 148.143 242.208 156.295 247.528 163.11C252.848 169.924 260.528 172.82 264.68 169.577Z" fill="#A7B1F2"/>
<path opacity="0.7143" d="M264.676 168.995C268.829 165.753 267.882 157.601 262.562 150.786C257.242 143.972 249.562 141.076 245.41 144.319C241.257 147.561 242.204 155.713 247.524 162.528C252.844 169.342 260.524 172.237 264.676 168.995Z" fill="#A7B1F2"/>
<path opacity="0.7619" d="M264.672 168.413C268.825 165.171 267.878 157.018 262.558 150.204C257.238 143.39 249.558 140.494 245.406 143.736C241.253 146.978 242.2 155.131 247.52 161.945C252.84 168.759 260.52 171.655 264.672 168.413Z" fill="#A7B1F2"/>
<path opacity="0.8095" d="M264.668 167.83C268.821 164.588 267.874 156.436 262.554 149.622C257.234 142.807 249.554 139.912 245.402 143.154C241.249 146.396 242.196 154.548 247.516 161.363C252.836 168.177 260.516 171.073 264.668 167.83Z" fill="#A7B1F2"/>
<path opacity="0.8571" d="M264.665 167.248C268.817 164.006 267.871 155.854 262.55 149.039C257.23 142.225 249.55 139.329 245.398 142.572C241.245 145.814 242.192 153.966 247.512 160.78C252.833 167.595 260.512 170.49 264.665 167.248Z" fill="#A7B1F2"/>
<path opacity="0.9048" d="M264.678 166.686C268.831 163.444 267.884 155.291 262.564 148.477C257.244 141.663 249.564 138.767 245.412 142.009C241.259 145.252 242.206 153.404 247.526 160.218C252.846 167.032 260.526 169.928 264.678 166.686Z" fill="#A7B1F2"/>
<path opacity="0.9524" d="M264.674 166.104C268.827 162.862 267.88 154.709 262.56 147.895C257.24 141.081 249.56 138.185 245.408 141.427C241.255 144.67 242.202 152.822 247.522 159.636C252.842 166.45 260.522 169.346 264.674 166.104Z" fill="#A7B1F2"/>
<path d="M264.668 165.521C268.821 162.279 267.874 154.127 262.554 147.313C257.234 140.498 249.554 137.603 245.402 140.845C241.249 144.087 242.196 152.239 247.516 159.054C252.836 165.868 260.516 168.764 264.668 165.521Z" fill="#A7B1F2"/>
<path d="M264.533 156.109C264.304 154.789 263.848 153.445 263.188 152.151L264.939 150.679L263.163 148.015L260.829 148.599C259.865 147.457 258.748 146.442 257.556 145.605L257.15 142.51L254.638 141.267L250.63 143.271L248.6 140.734L246.824 141.622L243.247 143.423L241.471 144.311L242.993 147.077L238.984 149.081V151.593L241.877 153.445C242.105 154.764 242.562 156.109 243.221 157.402L241.471 158.874L243.247 161.538L245.581 160.954C246.545 162.096 247.661 163.111 248.854 163.948L249.26 167.043L251.771 168.287L255.78 166.282L257.809 168.819L259.585 167.931L264.939 165.267L263.416 162.502L267.425 160.498V157.986L264.533 156.109Z" fill="url(#paint12_linear_2422_86933)"/>
<path d="M241.877 153.47C242.105 154.789 242.562 156.134 243.221 157.428L241.471 158.899L243.247 161.563L245.581 160.98C246.545 162.121 247.661 163.136 248.854 163.973L249.26 167.069L251.771 168.312L252.177 165.623C253.37 166.003 254.486 166.079 255.45 165.902L257.784 168.819L259.56 167.931L257.809 164.709C258.469 164.075 258.926 163.187 259.154 162.121L262.046 163.162V160.65L259.154 158.798C258.926 157.479 258.469 156.134 257.809 154.84L259.56 153.368L257.784 150.705L255.45 151.288C254.486 150.146 253.37 149.132 252.177 148.294L251.771 145.199L249.26 143.956L248.854 146.645C247.661 146.265 246.545 146.189 245.581 146.366L243.247 143.448L241.471 144.336L243.221 147.559C242.562 148.193 242.105 149.081 241.877 150.146L238.984 149.106V151.618L241.877 153.47ZM247.306 154.51C247.306 152.734 248.752 152.024 250.528 152.912C252.304 153.8 253.75 155.956 253.75 157.732C253.75 159.508 252.304 160.219 250.528 159.331C248.752 158.443 247.306 156.286 247.306 154.51Z" fill="url(#paint13_linear_2422_86933)"/>
<path d="M274.937 122.746L242.717 106.636C241.473 106.027 240.382 106.027 239.647 106.509L234.979 108.843C235.689 108.589 236.628 108.665 237.642 109.173L269.863 125.283C272.096 126.399 273.923 129.139 273.923 131.372V204.465C273.923 205.505 273.542 206.241 272.908 206.647L277.678 204.262C277.754 204.237 277.83 204.186 277.906 204.135L277.957 204.11C278.591 203.704 278.971 202.968 278.971 201.928V128.835C278.997 126.602 277.17 123.862 274.937 122.746Z" fill="url(#paint14_linear_2422_86933)"/>
<g opacity="0.4">
<path opacity="0.047619" d="M70.6027 276.285C100.126 276.285 124.059 264.324 124.059 249.57C124.059 234.815 100.126 222.854 70.6027 222.854C41.0797 222.854 17.1465 234.815 17.1465 249.57C17.1465 264.324 41.0797 276.285 70.6027 276.285Z" fill="#BEDDFF"/>
<path opacity="0.095238" d="M71.1613 276.006C100.67 276.006 124.592 264.045 124.592 249.291C124.592 234.536 100.67 222.575 71.1613 222.575C41.6523 222.575 17.7305 234.536 17.7305 249.291C17.7305 264.045 41.6523 276.006 71.1613 276.006Z" fill="#BEDDFF"/>
<path opacity="0.1429" d="M71.7219 275.727C101.245 275.727 125.178 263.766 125.178 249.012C125.178 234.257 101.245 222.296 71.7219 222.296C42.1988 222.296 18.2656 234.257 18.2656 249.012C18.2656 263.766 42.1988 275.727 71.7219 275.727Z" fill="#BEDDFF"/>
<path opacity="0.1905" d="M72.2805 275.448C101.79 275.448 125.711 263.487 125.711 248.733C125.711 233.978 101.79 222.017 72.2805 222.017C42.7714 222.017 18.8496 233.978 18.8496 248.733C18.8496 263.487 42.7714 275.448 72.2805 275.448Z" fill="#BEDDFF"/>
<path opacity="0.2381" d="M72.8371 275.169C102.346 275.169 126.268 263.208 126.268 248.454C126.268 233.699 102.346 221.738 72.8371 221.738C43.3281 221.738 19.4062 233.699 19.4062 248.454C19.4062 263.208 43.3281 275.169 72.8371 275.169Z" fill="#BEDDFF"/>
<path opacity="0.2857" d="M73.3957 274.89C102.905 274.89 126.827 262.929 126.827 248.175C126.827 233.42 102.905 221.459 73.3957 221.459C43.8867 221.459 19.9648 233.42 19.9648 248.175C19.9648 262.929 43.8867 274.89 73.3957 274.89Z" fill="#BEDDFF"/>
<path opacity="0.3333" d="M73.927 274.611C103.436 274.611 127.358 262.65 127.358 247.895C127.358 233.141 103.436 221.18 73.927 221.18C44.4179 221.18 20.4961 233.141 20.4961 247.895C20.4961 262.65 44.4179 274.611 73.927 274.611Z" fill="#BEDDFF"/>
<path opacity="0.381" d="M74.4855 274.332C104.009 274.332 127.942 262.371 127.942 247.616C127.942 232.862 104.009 220.901 74.4855 220.901C44.9625 220.901 21.0293 232.862 21.0293 247.616C21.0293 262.371 44.9625 274.332 74.4855 274.332Z" fill="#BEDDFF"/>
<path opacity="0.4286" d="M75.0422 274.078C104.551 274.078 128.473 262.117 128.473 247.363C128.473 232.608 104.551 220.647 75.0422 220.647C45.5331 220.647 21.6113 232.608 21.6113 247.363C21.6113 262.117 45.5331 274.078 75.0422 274.078Z" fill="#BEDDFF"/>
<path opacity="0.4762" d="M75.6027 273.799C105.126 273.799 129.059 261.838 129.059 247.083C129.059 232.329 105.126 220.368 75.6027 220.368C46.0797 220.368 22.1465 232.329 22.1465 247.083C22.1465 261.838 46.0797 273.799 75.6027 273.799Z" fill="#BEDDFF"/>
<path opacity="0.5238" d="M76.1613 273.52C105.67 273.52 129.592 261.559 129.592 246.804C129.592 232.05 105.67 220.089 76.1613 220.089C46.6523 220.089 22.7305 232.05 22.7305 246.804C22.7305 261.559 46.6523 273.52 76.1613 273.52Z" fill="#BEDDFF"/>
<path opacity="0.5714" d="M76.6926 273.241C106.202 273.241 130.123 261.28 130.123 246.525C130.123 231.771 106.202 219.81 76.6926 219.81C47.1835 219.81 23.2617 231.771 23.2617 246.525C23.2617 261.28 47.1835 273.241 76.6926 273.241Z" fill="#BEDDFF"/>
<path opacity="0.619" d="M77.2512 272.962C106.76 272.962 130.682 261.001 130.682 246.246C130.682 231.492 106.76 219.531 77.2512 219.531C47.7421 219.531 23.8203 231.492 23.8203 246.246C23.8203 261.001 47.7421 272.962 77.2512 272.962Z" fill="#BEDDFF"/>
<path opacity="0.6667" d="M77.8078 272.683C107.317 272.683 131.239 260.722 131.239 245.967C131.239 231.213 107.317 219.252 77.8078 219.252C48.2988 219.252 24.377 231.213 24.377 245.967C24.377 260.722 48.2988 272.683 77.8078 272.683Z" fill="#BEDDFF"/>
<path opacity="0.7143" d="M78.3684 272.404C107.877 272.404 131.799 260.443 131.799 245.688C131.799 230.934 107.877 218.973 78.3684 218.973C48.8593 218.973 24.9375 230.934 24.9375 245.688C24.9375 260.443 48.8593 272.404 78.3684 272.404Z" fill="#BEDDFF"/>
<path opacity="0.7619" d="M78.927 272.124C108.436 272.124 132.358 260.164 132.358 245.409C132.358 230.655 108.436 218.694 78.927 218.694C49.4179 218.694 25.4961 230.655 25.4961 245.409C25.4961 260.164 49.4179 272.124 78.927 272.124Z" fill="#BEDDFF"/>
<path opacity="0.8095" d="M79.4836 271.845C108.993 271.845 132.914 259.885 132.914 245.13C132.914 230.375 108.993 218.415 79.4836 218.415C49.9745 218.415 26.0527 230.375 26.0527 245.13C26.0527 259.885 49.9745 271.845 79.4836 271.845Z" fill="#BEDDFF"/>
<path opacity="0.8571" d="M80.0168 271.566C109.54 271.566 133.473 259.605 133.473 244.851C133.473 230.096 109.54 218.135 80.0168 218.135C50.4937 218.135 26.5605 230.096 26.5605 244.851C26.5605 259.605 50.4937 271.566 80.0168 271.566Z" fill="#BEDDFF"/>
<path opacity="0.9048" d="M80.5754 271.287C110.098 271.287 134.032 259.326 134.032 244.572C134.032 229.817 110.098 217.856 80.5754 217.856C51.0523 217.856 27.1191 229.817 27.1191 244.572C27.1191 259.326 51.0523 271.287 80.5754 271.287Z" fill="#BEDDFF"/>
<path opacity="0.9524" d="M81.134 271.034C110.643 271.034 134.565 259.073 134.565 244.318C134.565 229.564 110.643 217.603 81.134 217.603C51.6249 217.603 27.7031 229.564 27.7031 244.318C27.7031 259.073 51.6249 271.034 81.134 271.034Z" fill="#BEDDFF"/>
<path d="M81.6906 270.754C111.2 270.754 135.121 258.793 135.121 244.039C135.121 229.284 111.2 217.323 81.6906 217.323C52.1816 217.323 28.2598 229.284 28.2598 244.039C28.2598 258.793 52.1816 270.754 81.6906 270.754Z" fill="#BEDDFF"/>
</g>
<path d="M28.2344 235.565V244.318C28.2344 251.168 33.4608 257.993 43.8881 263.219C64.7683 273.647 98.5875 273.647 119.468 263.219C129.895 257.993 135.121 251.168 135.121 244.318V235.565H28.2344Z" fill="url(#paint15_linear_2422_86933)"/>
<path d="M81.6906 262.281C111.2 262.281 135.121 250.32 135.121 235.565C135.121 220.811 111.2 208.85 81.6906 208.85C52.1816 208.85 28.2598 220.811 28.2598 235.565C28.2598 250.32 52.1816 262.281 81.6906 262.281Z" fill="url(#paint16_linear_2422_86933)"/>
<g opacity="0.3">
<path opacity="0.047619" d="M76.3153 255.71C99.1687 255.71 117.695 246.441 117.695 235.007C117.695 223.574 99.1687 214.305 76.3153 214.305C53.4619 214.305 34.9355 223.574 34.9355 235.007C34.9355 246.441 53.4619 255.71 76.3153 255.71Z" fill="#A7B1F2"/>
<path opacity="0.095238" d="M76.5907 255.583C99.4441 255.583 117.97 246.314 117.97 234.88C117.97 223.447 99.4441 214.178 76.5907 214.178C53.7373 214.178 35.2109 223.447 35.2109 234.88C35.2109 246.314 53.7373 255.583 76.5907 255.583Z" fill="#A7B1F2"/>
<path opacity="0.1429" d="M76.8465 255.456C99.6999 255.456 118.226 246.187 118.226 234.753C118.226 223.32 99.6999 214.051 76.8465 214.051C53.9931 214.051 35.4668 223.32 35.4668 234.753C35.4668 246.187 53.9931 255.456 76.8465 255.456Z" fill="#A7B1F2"/>
<path opacity="0.1905" d="M77.1258 255.304C99.9792 255.304 118.506 246.035 118.506 234.601C118.506 223.168 99.9792 213.899 77.1258 213.899C54.2724 213.899 35.7461 223.168 35.7461 234.601C35.7461 246.035 54.2724 255.304 77.1258 255.304Z" fill="#A7B1F2"/>
<path opacity="0.2381" d="M77.3778 255.177C100.231 255.177 118.758 245.908 118.758 234.474C118.758 223.041 100.231 213.772 77.3778 213.772C54.5244 213.772 35.998 223.041 35.998 234.474C35.998 245.908 54.5244 255.177 77.3778 255.177Z" fill="#A7B1F2"/>
<path opacity="0.2857" d="M77.6571 255.05C100.51 255.05 119.037 245.781 119.037 234.348C119.037 222.914 100.51 213.645 77.6571 213.645C54.8037 213.645 36.2773 222.914 36.2773 234.348C36.2773 245.781 54.8037 255.05 77.6571 255.05Z" fill="#A7B1F2"/>
<path opacity="0.3333" d="M77.9129 254.923C100.766 254.923 119.293 245.654 119.293 234.221C119.293 222.787 100.766 213.518 77.9129 213.518C55.0595 213.518 36.5332 222.787 36.5332 234.221C36.5332 245.654 55.0595 254.923 77.9129 254.923Z" fill="#A7B1F2"/>
<path opacity="0.381" d="M78.1903 254.771C101.044 254.771 119.57 245.502 119.57 234.069C119.57 222.635 101.044 213.366 78.1903 213.366C55.3369 213.366 36.8105 222.635 36.8105 234.069C36.8105 245.502 55.3369 254.771 78.1903 254.771Z" fill="#A7B1F2"/>
<path opacity="0.4286" d="M78.4442 254.644C101.298 254.644 119.824 245.376 119.824 233.942C119.824 222.508 101.298 213.239 78.4442 213.239C55.5908 213.239 37.0645 222.508 37.0645 233.942C37.0645 245.376 55.5908 254.644 78.4442 254.644Z" fill="#A7B1F2"/>
<path opacity="0.4762" d="M78.7235 254.517C101.577 254.517 120.103 245.248 120.103 233.815C120.103 222.381 101.577 213.112 78.7235 213.112C55.8701 213.112 37.3438 222.381 37.3438 233.815C37.3438 245.248 55.8701 254.517 78.7235 254.517Z" fill="#A7B1F2"/>
<path opacity="0.5238" d="M78.9754 254.391C101.829 254.391 120.355 245.122 120.355 233.688C120.355 222.254 101.829 212.985 78.9754 212.985C56.122 212.985 37.5957 222.254 37.5957 233.688C37.5957 245.122 56.122 254.391 78.9754 254.391Z" fill="#A7B1F2"/>
<path opacity="0.5714" d="M79.2313 254.238C102.085 254.238 120.611 244.969 120.611 233.536C120.611 222.102 102.085 212.833 79.2313 212.833C56.3779 212.833 37.8516 222.102 37.8516 233.536C37.8516 244.969 56.3779 254.238 79.2313 254.238Z" fill="#A7B1F2"/>
<path opacity="0.619" d="M79.5106 254.112C102.364 254.112 120.89 244.843 120.89 233.409C120.89 221.975 102.364 212.706 79.5106 212.706C56.6572 212.706 38.1309 221.975 38.1309 233.409C38.1309 244.843 56.6572 254.112 79.5106 254.112Z" fill="#A7B1F2"/>
<path opacity="0.6667" d="M79.7626 253.985C102.616 253.985 121.142 244.716 121.142 233.282C121.142 221.848 102.616 212.58 79.7626 212.58C56.9092 212.58 38.3828 221.848 38.3828 233.282C38.3828 244.716 56.9092 253.985 79.7626 253.985Z" fill="#A7B1F2"/>
<path opacity="0.7143" d="M80.0419 253.858C102.895 253.858 121.422 244.589 121.422 233.155C121.422 221.721 102.895 212.453 80.0419 212.453C57.1885 212.453 38.6621 221.721 38.6621 233.155C38.6621 244.589 57.1885 253.858 80.0419 253.858Z" fill="#A7B1F2"/>
<path opacity="0.7619" d="M80.2958 253.731C103.149 253.731 121.675 244.462 121.675 233.028C121.675 221.595 103.149 212.326 80.2958 212.326C57.4424 212.326 38.916 221.595 38.916 233.028C38.916 244.462 57.4424 253.731 80.2958 253.731Z" fill="#A7B1F2"/>
<path opacity="0.8095" d="M80.577 253.579C103.43 253.579 121.957 244.31 121.957 232.876C121.957 221.442 103.43 212.173 80.577 212.173C57.7236 212.173 39.1973 221.442 39.1973 232.876C39.1973 244.31 57.7236 253.579 80.577 253.579Z" fill="#A7B1F2"/>
<path opacity="0.8571" d="M80.829 253.452C103.682 253.452 122.209 244.183 122.209 232.749C122.209 221.316 103.682 212.047 80.829 212.047C57.9756 212.047 39.4492 221.316 39.4492 232.749C39.4492 244.183 57.9756 253.452 80.829 253.452Z" fill="#A7B1F2"/>
<path opacity="0.9048" d="M81.1083 253.325C103.962 253.325 122.488 244.056 122.488 232.622C122.488 221.189 103.962 211.92 81.1083 211.92C58.2549 211.92 39.7285 221.189 39.7285 232.622C39.7285 244.056 58.2549 253.325 81.1083 253.325Z" fill="#A7B1F2"/>
<path opacity="0.9524" d="M81.3622 253.198C104.216 253.198 122.742 243.929 122.742 232.495C122.742 221.062 104.216 211.793 81.3622 211.793C58.5088 211.793 39.9824 221.062 39.9824 232.495C39.9824 243.929 58.5088 253.198 81.3622 253.198Z" fill="#A7B1F2"/>
<path d="M81.6395 253.046C104.493 253.046 123.019 243.777 123.019 232.343C123.019 220.91 104.493 211.641 81.6395 211.641C58.7861 211.641 40.2598 220.91 40.2598 232.343C40.2598 243.777 58.7861 253.046 81.6395 253.046Z" fill="#A7B1F2"/>
</g>
<path d="M81.6942 244.267C104.52 244.267 123.023 235.01 123.023 223.59C123.023 212.171 104.52 202.913 81.6942 202.913C58.8689 202.913 40.3652 212.171 40.3652 223.59C40.3652 235.01 58.8689 244.267 81.6942 244.267Z" fill="url(#paint17_linear_2422_86933)"/>
<path d="M110.921 238.204C94.7856 246.272 68.6029 246.272 52.4671 238.204C44.3992 234.17 40.3652 228.867 40.3652 223.59V232.546C40.3652 237.849 44.3992 243.126 52.4671 247.16C68.6029 255.228 94.7856 255.228 110.921 247.16C118.989 243.126 123.023 237.823 123.023 232.546V223.59C123.023 228.867 118.989 234.17 110.921 238.204Z" fill="url(#paint18_linear_2422_86933)"/>
<path d="M81.6929 240.132C99.9504 240.132 114.751 232.726 114.751 223.59C114.751 214.454 99.9504 207.048 81.6929 207.048C63.4354 207.048 48.6348 214.454 48.6348 223.59C48.6348 232.726 63.4354 240.132 81.6929 240.132Z" fill="url(#paint19_linear_2422_86933)"/>
<path d="M58.3031 217.273C71.2168 210.803 92.1477 210.803 105.061 217.273C110.136 219.81 113.231 222.981 114.296 226.28C115.946 221.205 112.876 215.827 105.061 211.894C92.1477 205.425 71.2168 205.425 58.3031 211.894C50.4889 215.801 47.3936 221.205 49.0681 226.28C50.1591 222.981 53.2289 219.81 58.3031 217.273Z" fill="#B4C1F3"/>
<path opacity="0.032258" d="M130.992 70.9087L180.566 95.696C185.691 98.2584 194.013 98.2584 199.138 95.696C204.262 93.1335 204.262 88.9727 199.138 86.4103L149.563 61.623C144.438 59.0606 136.117 59.0606 130.992 61.623C125.841 64.1855 125.841 68.3463 130.992 70.9087Z" fill="#BEDDFF"/>
<path opacity="0.064516" d="M131.931 70.427L181.506 95.2143C186.63 97.7767 194.952 97.7767 200.077 95.2143C205.202 92.6518 205.202 88.491 200.077 85.9286L150.502 61.1413C145.378 58.5789 137.056 58.5789 131.931 61.1413C126.781 63.7038 126.781 67.8646 131.931 70.427Z" fill="#BEDDFF"/>
<path opacity="0.096774" d="M132.871 69.9702L182.446 94.7575C187.57 97.3199 195.892 97.3199 201.017 94.7575C206.142 92.195 206.142 88.0342 201.017 85.4718L151.442 60.6591C146.318 58.0967 137.996 58.0967 132.871 60.6591C127.746 63.247 127.746 67.4078 132.871 69.9702Z" fill="#BEDDFF"/>
<path opacity="0.129" d="M133.809 69.4883L183.383 94.2756C188.508 96.838 196.83 96.838 201.954 94.2756C207.079 91.7131 207.079 87.5523 201.954 84.9899L152.38 60.2026C147.255 57.6401 138.933 57.6401 133.809 60.2026C128.684 62.765 128.684 66.9259 133.809 69.4883Z" fill="#BEDDFF"/>
<path opacity="0.1613" d="M134.748 69.0313L184.322 93.8185C189.447 96.381 197.769 96.381 202.894 93.8185C208.019 91.2561 208.019 87.0953 202.894 84.5328L153.319 59.7456C148.194 57.1831 139.873 57.1831 134.748 59.7456C129.623 62.2826 129.623 66.4435 134.748 69.0313Z" fill="#BEDDFF"/>
<path opacity="0.1935" d="M135.685 68.5496L185.26 93.3368C190.385 95.8993 198.707 95.8993 203.831 93.3368C208.956 90.7744 208.956 86.6136 203.831 84.0511L154.257 59.2639C149.132 56.7014 140.81 56.7014 135.685 59.2639C130.561 61.8263 130.561 65.9871 135.685 68.5496Z" fill="#BEDDFF"/>
<path opacity="0.2258" d="M136.626 68.0674L186.226 92.8801C191.35 95.4425 199.672 95.4425 204.797 92.8801C209.922 90.3176 209.922 86.1568 204.797 83.5943L155.222 58.8071C150.098 56.2446 141.776 56.2446 136.651 58.8071C131.501 61.3442 131.501 65.505 136.626 68.0674Z" fill="#BEDDFF"/>
<path opacity="0.2581" d="M137.59 67.6106L187.164 92.3979C192.289 94.9603 200.611 94.9603 205.735 92.3979C210.86 89.8354 210.86 85.6746 205.735 83.1122L156.161 58.3249C151.036 55.7625 142.714 55.7625 137.59 58.3249C132.465 60.8874 132.439 65.0482 137.59 67.6106Z" fill="#BEDDFF"/>
<path opacity="0.2903" d="M138.527 67.1287L188.102 91.9159C193.226 94.4784 201.548 94.4784 206.673 91.9159C211.798 89.3535 211.798 85.1927 206.673 82.6302L157.098 57.843C151.974 55.2805 143.652 55.2805 138.527 57.843C133.402 60.4054 133.377 64.5662 138.527 67.1287Z" fill="#BEDDFF"/>
<path opacity="0.3226" d="M139.465 66.6719L189.039 91.4591C194.164 94.0216 202.486 94.0216 207.611 91.4591C212.736 88.8967 212.736 84.7359 207.611 82.1734L158.036 57.3608C152.911 54.7984 144.59 54.7984 139.465 57.3608C134.34 59.9486 134.34 64.1094 139.465 66.6719Z" fill="#BEDDFF"/>
<path opacity="0.3548" d="M140.406 66.19L189.981 90.9772C195.106 93.5397 203.427 93.5397 208.552 90.9772C213.677 88.4148 213.677 84.254 208.552 81.6915L158.978 56.9043C153.853 54.3418 145.531 54.3418 140.406 56.9043C135.281 59.4667 135.281 63.6275 140.406 66.19Z" fill="#BEDDFF"/>
<path opacity="0.3871" d="M141.344 65.7332L190.918 90.5204C196.043 93.0829 204.365 93.0829 209.49 90.5204C214.615 87.958 214.615 83.7972 209.49 81.2347L159.915 56.4475C154.79 53.885 146.469 53.885 141.344 56.4475C136.219 58.9845 136.219 63.1454 141.344 65.7332Z" fill="#BEDDFF"/>
<path opacity="0.4194" d="M142.283 65.251L191.858 90.0382C196.983 92.6007 205.304 92.6007 210.429 90.0382C215.554 87.4758 215.554 83.315 210.429 80.7525L160.855 55.9653C155.73 53.4028 147.408 53.4028 142.283 55.9653C137.158 58.5277 137.158 62.6886 142.283 65.251Z" fill="#BEDDFF"/>
<path opacity="0.4516" d="M143.219 64.7691L192.819 89.5817C197.944 92.1442 206.266 92.1442 211.391 89.5817C216.516 87.0193 216.516 82.8585 211.391 80.296L161.816 55.5088C156.691 52.9463 148.37 52.9463 143.245 55.5088C138.095 58.0458 138.095 62.2066 143.219 64.7691Z" fill="#BEDDFF"/>
<path opacity="0.4839" d="M144.185 64.3123L193.759 89.0995C198.884 91.662 207.206 91.662 212.331 89.0995C217.456 86.5371 217.456 82.3763 212.331 79.8138L162.756 55.0266C157.631 52.4641 149.31 52.4641 144.185 55.0266C139.035 57.589 139.035 61.7498 144.185 64.3123Z" fill="#BEDDFF"/>
<path opacity="0.5161" d="M145.122 63.8306L194.697 88.6178C199.822 91.1803 208.143 91.1803 213.268 88.6178C218.393 86.0554 218.393 81.8946 213.268 79.3321L163.694 54.5449C158.569 51.9824 150.247 51.9824 145.122 54.5449C139.972 57.1073 139.972 61.2681 145.122 63.8306Z" fill="#BEDDFF"/>
<path opacity="0.5484" d="M146.062 63.3738L195.637 88.161C200.762 90.7235 209.083 90.7235 214.208 88.161C219.333 85.5986 219.333 81.4378 214.208 78.8753L164.634 54.0627C159.509 51.5003 151.187 51.5003 146.062 54.0627C140.938 56.6505 140.938 60.8113 146.062 63.3738Z" fill="#BEDDFF"/>
<path opacity="0.5806" d="M147 62.8919L196.574 87.6791C201.699 90.2416 210.021 90.2416 215.146 87.6791C220.271 85.1167 220.271 80.9559 215.146 78.3934L165.571 53.6062C160.446 51.0437 152.125 51.0437 147 53.6062C141.875 56.1686 141.875 60.3294 147 62.8919Z" fill="#BEDDFF"/>
<path opacity="0.6129" d="M147.939 62.4348L197.514 87.2221C202.639 89.7845 210.96 89.7845 216.085 87.2221C221.21 84.6596 221.21 80.4988 216.085 77.9364L166.511 53.1491C161.386 50.5867 153.064 50.5867 147.939 53.1491C142.814 55.6862 142.814 59.847 147.939 62.4348Z" fill="#BEDDFF"/>
<path opacity="0.6452" d="M148.877 61.9531L198.451 86.7404C203.576 89.3028 211.898 89.3028 217.023 86.7404C222.148 84.1779 222.148 80.0171 217.023 77.4547L167.448 52.6674C162.323 50.105 154.002 50.105 148.877 52.6674C143.752 55.2299 143.752 59.3907 148.877 61.9531Z" fill="#BEDDFF"/>
<path opacity="0.6774" d="M149.817 61.471L199.417 86.2836C204.542 88.8461 212.863 88.8461 217.988 86.2836C223.113 83.7212 223.113 79.5604 217.988 76.9979L168.414 52.2107C163.289 49.6482 154.967 49.6482 149.842 52.2107C144.692 54.7477 144.692 58.9085 149.817 61.471Z" fill="#BEDDFF"/>
<path opacity="0.7097" d="M150.781 61.0144L200.355 85.8017C205.48 88.3641 213.802 88.3641 218.927 85.8017C224.051 83.2392 224.051 79.0784 218.927 76.516L169.352 51.7287C164.227 49.1663 155.906 49.1663 150.781 51.7287C145.63 54.2912 145.63 58.452 150.781 61.0144Z" fill="#BEDDFF"/>
<path opacity="0.7419" d="M151.72 60.5323L201.295 85.3195C206.42 87.882 214.741 87.882 219.866 85.3195C224.991 82.7571 224.991 78.5963 219.866 76.0338L170.292 51.2465C165.167 48.6841 156.845 48.6841 151.72 51.2465C146.57 53.809 146.57 57.9698 151.72 60.5323Z" fill="#BEDDFF"/>
<path opacity="0.7742" d="M152.658 60.0757L202.233 84.8629C207.358 87.4254 215.679 87.4254 220.804 84.8629C225.929 82.3005 225.929 78.1397 220.804 75.5772L171.23 50.7646C166.105 48.2022 157.783 48.2022 152.658 50.7646C147.533 53.3524 147.533 57.5132 152.658 60.0757Z" fill="#BEDDFF"/>
<path opacity="0.8065" d="M153.598 59.5935L203.172 84.3808C208.297 86.9432 216.619 86.9432 221.743 84.3808C226.868 81.8183 226.868 77.6575 221.743 75.0951L172.169 50.3078C167.044 47.7454 158.722 47.7454 153.598 50.3078C148.473 52.8703 148.473 57.0311 153.598 59.5935Z" fill="#BEDDFF"/>
<path opacity="0.8387" d="M154.535 59.1367L204.11 83.924C209.234 86.4865 217.556 86.4865 222.681 83.924C227.806 81.3616 227.806 77.2007 222.681 74.6383L173.106 49.851C167.982 47.2886 159.66 47.2886 154.535 49.851C149.41 52.3881 149.41 56.5489 154.535 59.1367Z" fill="#BEDDFF"/>
<path opacity="0.871" d="M155.475 58.6548L205.049 83.4421C210.174 86.0045 218.496 86.0045 223.62 83.4421C228.745 80.8796 228.745 76.7188 223.62 74.1564L174.046 49.3691C168.921 46.8067 160.599 46.8067 155.475 49.3691C150.35 51.9316 150.35 56.0924 155.475 58.6548Z" fill="#BEDDFF"/>
<path opacity="0.9032" d="M156.413 58.1727L206.013 82.9853C211.138 85.5477 219.459 85.5477 224.584 82.9853C229.709 80.4228 229.709 76.262 224.584 73.6996L175.01 48.9123C169.885 46.3499 161.563 46.3499 156.438 48.9123C151.288 51.4494 151.288 55.6102 156.413 58.1727Z" fill="#BEDDFF"/>
<path opacity="0.9355" d="M157.378 57.7158L206.953 82.5031C212.078 85.0655 220.399 85.0655 225.524 82.5031C230.649 79.9407 230.649 75.7798 225.524 73.2174L175.95 48.4301C170.825 45.8677 162.503 45.8677 157.378 48.4301C152.228 50.9926 152.228 55.1534 157.378 57.7158Z" fill="#BEDDFF"/>
<path opacity="0.9677" d="M158.316 57.2342L207.891 82.0214C213.015 84.5839 221.337 84.5839 226.462 82.0214C231.587 79.459 231.587 75.2982 226.462 72.7357L176.888 47.9484C171.763 45.386 163.441 45.386 158.316 47.9484C153.191 50.5109 153.166 54.6717 158.316 57.2342Z" fill="#BEDDFF"/>
<path d="M159.256 56.7773L208.83 81.5646C213.955 84.127 222.277 84.127 227.402 81.5646C232.527 79.0022 232.527 74.8413 227.402 72.2789L177.827 47.4663C172.702 44.9038 164.381 44.9038 159.256 47.4663C154.131 50.0541 154.131 54.1895 159.256 56.7773Z" fill="#BEDDFF"/>
<path d="M216.236 79.1797C216.286 79.2051 216.337 79.2305 216.413 79.2558C224.684 83.3913 231.407 80.0423 231.407 71.7715C231.407 63.5006 224.684 53.403 216.413 49.2676C215.931 49.0139 215.449 48.8109 214.967 48.6079C215.804 46.6036 216.261 44.2188 216.261 41.5041C216.261 28.2606 205.529 12.1501 192.26 5.50298C179.017 -1.11879 168.26 4.23444 168.26 17.5034C168.26 18.1884 168.285 18.8734 168.361 19.5584C166.864 18.3913 165.266 17.3765 163.642 16.5646C153.621 11.5412 145.502 15.6005 145.502 25.6474C145.502 35.6688 153.621 47.8722 163.642 52.8702L216.236 79.1797Z" fill="url(#paint20_linear_2422_86933)"/>
<path d="M155.853 12.9618L150.83 15.4482C154.103 13.8244 158.644 14.0781 163.617 16.5645C165.241 17.3763 166.839 18.4165 168.336 19.5582C168.285 18.8732 168.234 18.1882 168.234 17.5032C168.234 16.463 168.311 15.4735 168.437 14.5348C164.86 12.6574 159.177 11.6172 155.853 12.9618ZM226.866 80.2451L226.917 80.2198C226.917 80.2198 226.892 80.2198 226.866 80.2451ZM221.741 46.6035C221.259 46.3498 220.777 46.1468 220.295 45.9438C221.133 43.9395 221.589 41.5547 221.589 38.84C221.589 25.5965 210.857 9.48603 197.588 2.83888C191.677 -0.104128 186.273 -0.687656 182.112 0.758478L182.036 0.783849C181.275 1.06293 175.465 3.9552 175.465 3.9552C179.804 1.87479 185.715 2.22998 192.261 5.50281C205.504 12.1246 216.261 28.235 216.261 41.5039C216.261 44.2186 215.805 46.5781 214.967 48.6078C215.449 48.8107 215.932 49.0137 216.414 49.2674C224.684 53.4028 231.408 63.475 231.408 71.7713C231.408 75.8814 229.759 78.7736 227.095 80.1436L232.625 77.3782C235.188 75.9575 236.761 73.1159 236.761 69.1074C236.736 60.8111 230.012 50.7389 221.741 46.6035Z" fill="url(#paint21_linear_2422_86933)"/>
<path d="M205.277 84.66C205.327 84.6853 205.378 84.7107 205.454 84.7361C213.725 88.8715 220.448 85.5226 220.448 77.2517C220.448 68.9808 213.725 58.8832 205.454 54.7478C204.972 54.4941 204.49 54.2911 204.008 54.0882C204.845 52.0839 205.302 49.699 205.302 46.9843C205.302 33.7408 194.57 17.6303 181.301 10.9832C168.058 4.36143 157.301 9.71467 157.301 22.9836C157.301 23.6686 157.326 24.3536 157.402 25.0386C155.905 23.8716 154.307 22.8567 152.683 22.0449C142.662 17.0215 134.543 21.0808 134.543 31.1276C134.543 41.1491 142.662 53.3524 152.683 58.3504L205.277 84.66Z" fill="url(#paint22_linear_2422_86933)"/>
<path d="M144.895 18.4167L139.871 20.903C143.144 19.2793 147.685 19.533 152.658 22.0193C154.282 22.8312 155.88 23.8714 157.377 25.0131C157.326 24.3281 157.275 23.6431 157.275 22.958C157.275 21.9178 157.352 20.9284 157.478 19.9897C153.901 18.1122 148.218 17.0974 144.895 18.4167ZM215.933 85.7L215.983 85.6746C215.958 85.7 215.933 85.7 215.933 85.7ZM210.782 52.0837C210.3 51.83 209.818 51.627 209.336 51.4241C210.174 49.4198 210.63 47.0349 210.63 44.3202C210.63 31.0767 199.898 14.9663 186.629 8.31911C180.718 5.3761 175.314 4.79257 171.153 6.2387L171.077 6.26407C170.316 6.54315 164.506 9.43542 164.506 9.43542C168.845 7.35502 174.756 7.71021 181.302 10.983C194.545 17.6048 205.302 33.7153 205.302 46.9842C205.302 49.6989 204.846 52.0583 204.008 54.088C204.49 54.291 204.973 54.4939 205.455 54.7476C213.725 58.8831 220.449 68.9553 220.449 77.2515C220.449 81.3616 218.8 84.2538 216.136 85.6239L221.667 82.8585C224.229 81.4377 225.802 78.5962 225.802 74.5876C225.802 66.2913 219.079 56.2191 210.782 52.0837Z" fill="url(#paint23_linear_2422_86933)"/>
<path d="M194.341 90.1402C194.392 90.1655 194.443 90.1909 194.519 90.2163C202.79 94.3517 209.513 91.0028 209.513 82.7319C209.513 74.461 202.79 64.3635 194.519 60.228C194.037 59.9743 193.555 59.7713 193.073 59.5684C193.91 57.5641 194.367 55.1792 194.367 52.4646C194.367 39.221 183.635 23.1106 170.366 16.4634C157.122 9.84166 146.365 15.1949 146.365 28.4638C146.365 29.1488 146.39 29.8338 146.466 30.5188C144.97 29.3518 143.371 28.337 141.748 27.5251C131.726 22.5017 123.607 26.561 123.607 36.6078C123.607 46.6293 131.726 58.8326 141.748 63.8307L194.341 90.1402Z" fill="url(#paint24_linear_2422_86933)"/>
<path d="M133.959 23.8969L128.936 26.3832C132.208 24.7595 136.75 25.0132 141.722 27.4996C143.346 28.3114 144.945 29.3516 146.441 30.4933C146.391 29.8083 146.34 29.1233 146.34 28.4383C146.34 27.3981 146.416 26.4086 146.543 25.4699C142.966 23.5925 137.283 22.5776 133.959 23.8969ZM204.972 91.1802L205.023 91.1548C205.023 91.1802 204.997 91.1802 204.972 91.1802ZM199.847 57.5639C199.365 57.3102 198.883 57.1073 198.401 56.9043C199.238 54.9 199.695 52.5151 199.695 49.8005C199.695 36.5569 188.963 20.4465 175.694 13.7993C169.782 10.8563 164.379 10.2728 160.218 11.7189L160.142 11.7443C159.38 12.0234 153.571 14.9156 153.571 14.9156C157.909 12.8352 163.82 13.1904 170.366 16.4633C183.61 23.1104 194.341 39.2209 194.341 52.4644C194.341 55.1791 193.885 57.5386 193.048 59.5682C193.53 59.7712 194.012 59.9742 194.494 60.2279C202.765 64.3633 209.488 74.4355 209.488 82.7317C209.488 86.8418 207.839 89.7341 205.175 91.1041L210.706 88.3387C213.268 86.9179 214.841 84.0764 214.841 80.0678C214.841 71.7716 208.118 61.6994 199.847 57.5639Z" fill="url(#paint25_linear_2422_86933)"/>
<path d="M214.539 151.309L181.456 134.767C177.828 132.966 171.967 132.966 168.339 134.767L135.256 151.309C133.454 152.222 132.541 153.389 132.541 154.582V168.104C132.541 169.297 133.454 170.489 135.256 171.377L168.339 187.919C171.967 189.72 177.828 189.72 181.456 187.919L214.539 171.377C216.341 170.464 217.254 169.297 217.254 168.104V154.582C217.254 153.389 216.341 152.197 214.539 151.309Z" fill="url(#paint26_linear_2422_86933)"/>
<path d="M214.538 157.855L181.454 174.396C177.826 176.198 171.966 176.198 168.338 174.396L135.254 157.855C131.626 156.053 131.626 153.11 135.254 151.309L168.338 134.767C171.966 132.966 177.826 132.966 181.454 134.767L214.538 151.309C218.141 153.11 218.141 156.053 214.538 157.855Z" fill="url(#paint27_linear_2422_86933)"/>
<path d="M165.369 161.736L170.19 159.326L165.369 156.916L160.549 159.326L165.369 161.736ZM174.883 156.992L179.704 154.582L174.883 152.171L170.063 154.582L174.883 156.992ZM179.577 149.812L184.397 152.222L189.218 149.812L184.397 147.402L179.577 149.812Z" fill="#75A4FF"/>
<path d="M171.787 231.278L161.385 226.051V215.649L171.787 220.85V231.278Z" fill="url(#paint28_linear_2422_86933)"/>
<path d="M182.215 226.051L171.787 231.278V220.85L182.215 215.649V226.051Z" fill="url(#paint29_linear_2422_86933)"/>
<path d="M182.214 215.649L171.787 220.85L161.385 215.649L171.787 210.448L182.214 215.649Z" fill="url(#paint30_linear_2422_86933)"/>
<path d="M175.364 269.588L182.569 265.985C184.599 264.97 187.872 264.97 189.901 265.985L197.614 269.841C198.629 270.349 199.136 271.008 199.136 271.668V277.96C199.136 278.62 198.629 279.279 197.614 279.787L190.409 283.389C188.379 284.404 185.106 284.404 183.077 283.389L175.364 279.533C174.349 279.025 173.842 278.366 173.842 277.706V271.414C173.842 270.755 174.349 270.095 175.364 269.588Z" fill="url(#paint31_linear_2422_86933)"/>
<path d="M175.364 273.241L183.077 277.097C185.106 278.112 188.379 278.112 190.409 277.097L197.614 273.495C199.644 272.48 199.644 270.831 197.614 269.841L189.901 265.985C187.872 264.97 184.599 264.97 182.569 265.985L175.364 269.588C173.334 270.602 173.334 272.226 175.364 273.241Z" fill="url(#paint32_linear_2422_86933)"/>
<path d="M156.538 254.289L163.743 250.686C165.773 249.671 169.046 249.671 171.075 250.686L178.788 254.543C179.803 255.05 180.31 255.71 180.31 256.369V262.661C180.31 263.321 179.803 263.981 178.788 264.488L171.583 268.091C169.553 269.105 166.28 269.105 164.251 268.091L156.538 264.234C155.523 263.727 155.016 263.067 155.016 262.408V256.116C155.016 255.456 155.523 254.796 156.538 254.289Z" fill="url(#paint33_linear_2422_86933)"/>
<path d="M156.538 257.968L164.251 261.824C166.28 262.839 169.553 262.839 171.583 261.824L178.788 258.221C180.818 257.207 180.818 255.557 178.788 254.568L171.075 250.686C169.046 249.671 165.773 249.671 163.743 250.686L156.538 254.289C154.508 255.304 154.508 256.953 156.538 257.968Z" fill="url(#paint34_linear_2422_86933)"/>
<path d="M137.741 239.016L144.946 235.413C146.976 234.398 150.249 234.398 152.278 235.413L159.991 239.269C161.006 239.777 161.513 240.436 161.513 241.096V247.388C161.513 248.048 161.006 248.707 159.991 249.215L152.786 252.817C150.756 253.832 147.483 253.832 145.454 252.817L137.741 248.961C136.726 248.454 136.219 247.794 136.219 247.134V240.842C136.219 240.183 136.726 239.523 137.741 239.016Z" fill="url(#paint35_linear_2422_86933)"/>
<path d="M137.741 242.669L145.454 246.525C147.483 247.54 150.756 247.54 152.786 246.525L159.991 242.923C162.021 241.908 162.021 240.259 159.991 239.269L152.278 235.413C150.249 234.398 146.976 234.398 144.946 235.413L137.741 239.016C135.711 240.03 135.711 241.68 137.741 242.669Z" fill="url(#paint36_linear_2422_86933)"/>
<path d="M185.464 264.539C186.403 264.996 187.24 265.503 188.026 266.01C188.99 266.645 188.99 268.091 188.026 268.725C187.265 269.233 186.403 269.74 185.464 270.197C185.438 270.197 185.438 270.222 185.413 270.222C181.887 271.973 177.726 271.973 174.199 270.222C174.174 270.222 174.174 270.197 174.148 270.197L185.464 264.539Z" fill="#EBF0FF"/>
<path d="M168.973 262.915C168.034 262.458 167.197 261.951 166.411 261.444C165.446 260.809 165.446 259.363 166.411 258.729C167.172 258.221 168.034 257.714 168.973 257.257C168.998 257.257 168.998 257.232 169.024 257.232C172.55 255.481 176.711 255.481 180.238 257.232C180.263 257.232 180.263 257.257 180.288 257.257L168.973 262.915Z" fill="#EBF0FF"/>
<path d="M165.471 256.674L172.625 255.431V258.069C172.625 259.033 171.813 259.769 170.849 259.693C168.845 259.515 166.08 259.109 165.166 258.729C163.847 258.196 164.177 256.928 165.471 256.674Z" fill="#8EAAE8"/>
<path d="M168.692 255.152L168.058 238.026C168.007 236.961 168.565 235.997 169.428 235.464L169.885 235.185L179.83 229.02C181.885 227.751 184.6 228.385 185.868 230.44C187.137 232.495 186.502 235.21 184.447 236.479C184.219 236.606 183.965 236.732 183.737 236.834L172.853 241.122L174.68 238.255L172.853 255.304C172.726 256.471 171.686 257.308 170.544 257.181C169.504 257.054 168.718 256.166 168.692 255.152Z" fill="#130F40"/>
<path d="M187.263 271.262C185.868 270.805 183.559 269.359 182.62 268.497C181.631 267.583 182.316 266.543 183.584 266.746L189.014 267.431V270.07C189.014 270.882 188.252 271.567 187.263 271.262Z" fill="#8EAAE8"/>
<path d="M188.709 231.379L189.293 266.467C189.318 267.634 188.379 268.598 187.212 268.598C186.147 268.623 185.259 267.837 185.107 266.797L179.982 232.09C179.627 229.705 181.276 227.472 183.686 227.117C186.071 226.762 188.303 228.411 188.659 230.821C188.684 230.999 188.709 231.202 188.709 231.379Z" fill="#130F40"/>
<path d="M182.164 209.129L181.783 212.351L185.411 212.148V208.241L182.164 209.129Z" fill="#F3ABC7"/>
<path d="M180.871 208.393C180.871 208.901 181.556 209.662 182.52 209.281C182.85 209.154 184.905 208.216 184.905 208.216C184.905 208.216 184.854 204.765 184.448 204.461C183.89 204.03 182.495 203.953 181.911 204.359C181.074 204.994 180.871 207.277 180.871 208.393Z" fill="#F3ABC7"/>
<path d="M181.961 205.45C182.468 205.755 182.494 206.846 182.494 207.226C182.494 208.114 183.914 209.307 185.411 209.281C185.411 207.81 187.695 205.019 185.767 205.019C185.056 202.863 181.936 204.03 181.2 203.674C180.768 204.106 181.022 204.867 181.961 205.45Z" fill="#130F40"/>
<path d="M176.887 214.431C179.931 212.123 185.081 210.6 188.583 210.22C189.978 210.068 191.018 210.702 191.5 212.097C191.83 213.036 191.754 214.076 191.373 214.99C189.293 219.81 189.293 224.554 189.293 228.791C188.709 230.897 174.958 234.347 174.299 232.14L175.314 217.146C175.39 216.081 175.999 215.091 176.887 214.431Z" fill="white"/>
<path d="M168.439 229.248L168.465 227.498C167.805 227.066 167.805 226.28 166.892 226.229L166.131 226.736L164.837 226.939C164.355 227.066 164.431 227.523 164.761 227.624L164.887 227.65C164.913 228.03 164.989 228.386 165.116 228.715C165.293 229.172 168.439 229.248 168.439 229.248Z" fill="#F3ABC7"/>
<path d="M168.54 226.686C169.148 226.533 169.757 226.381 170.366 226.204C170.975 226.026 171.559 225.848 172.168 225.645C173.36 225.265 174.552 224.859 175.745 224.428L174.552 225.823C174.705 224.352 174.832 222.88 174.958 221.409C175.009 220.673 175.085 219.937 175.136 219.201C175.187 218.466 175.237 217.73 175.288 216.994C175.339 215.776 176.379 214.863 177.597 214.914C178.815 214.964 179.728 216.005 179.677 217.222C179.677 217.349 179.652 217.476 179.627 217.603C179.449 218.313 179.297 219.049 179.145 219.759C178.992 220.47 178.84 221.206 178.688 221.916C178.409 223.362 178.13 224.808 177.851 226.254L177.825 226.432C177.724 227.041 177.242 227.498 176.684 227.624C175.466 227.878 174.223 228.157 173.005 228.462C172.396 228.614 171.787 228.766 171.178 228.944C170.569 229.121 169.986 229.299 169.377 229.502C168.616 229.756 167.778 229.35 167.525 228.588C167.271 227.827 167.677 226.99 168.438 226.736C168.438 226.711 168.489 226.711 168.54 226.686Z" fill="white"/>
<path d="M317.107 170.515V154.278C317.107 154.125 317.234 153.948 317.463 153.846L321.928 151.614C322.41 151.36 323.222 151.36 323.704 151.614L328.169 153.846C328.423 153.973 328.524 154.125 328.524 154.278V170.515H317.107Z" fill="url(#paint37_linear_2422_86933)"/>
<path d="M322.84 163.31C321.978 163.31 321.115 163.132 320.455 162.802L309.571 157.347C308.557 156.84 308.404 156.18 308.404 155.825C308.404 155.47 308.557 154.81 309.571 154.303L320.455 148.848C321.8 148.189 323.88 148.189 325.225 148.848L336.109 154.303C337.124 154.81 337.276 155.47 337.276 155.825C337.276 156.18 337.124 156.84 336.109 157.347L325.225 162.802C324.54 163.132 323.678 163.31 322.84 163.31ZM322.84 149.381C322.13 149.381 321.445 149.508 320.912 149.762L310.028 155.216C309.647 155.394 309.419 155.648 309.419 155.851C309.419 156.054 309.647 156.282 310.028 156.485L320.912 161.94C321.952 162.472 323.728 162.472 324.768 161.94L335.653 156.485C336.033 156.307 336.261 156.054 336.261 155.851C336.261 155.648 336.033 155.419 335.653 155.216L324.768 149.762C324.236 149.508 323.525 149.381 322.84 149.381Z" fill="#02CEFF"/>
<path d="M333.395 141.871L324.566 137.457C323.602 136.975 322.029 136.975 321.065 137.457L312.236 141.871C311.754 142.125 311.5 142.429 311.5 142.734V153.922C311.5 154.227 311.754 154.557 312.236 154.785L321.065 159.2C322.029 159.682 323.602 159.682 324.566 159.2L333.395 154.785C333.877 154.531 334.131 154.227 334.131 153.922V142.734C334.131 142.429 333.877 142.125 333.395 141.871Z" fill="url(#paint38_linear_2422_86933)"/>
<path d="M333.396 143.622L324.567 148.036C323.603 148.518 322.03 148.518 321.066 148.036L312.237 143.622C311.273 143.14 311.273 142.353 312.237 141.871L321.066 137.457C322.03 136.975 323.603 136.975 324.567 137.457L333.396 141.871C334.36 142.353 334.36 143.14 333.396 143.622Z" fill="url(#paint39_linear_2422_86933)"/>
<path d="M328.195 143.191L323.73 145.423C323.248 145.677 322.436 145.677 321.954 145.423L317.488 143.191C317.006 142.937 317.006 142.556 317.488 142.303L321.954 140.07C322.436 139.816 323.248 139.816 323.73 140.07L328.195 142.303C328.677 142.556 328.677 142.962 328.195 143.191Z" fill="#D3DAF3"/>
<path d="M317.107 126.522V142.759C317.107 142.911 317.234 143.089 317.463 143.191L321.928 145.423C322.41 145.677 323.222 145.677 323.704 145.423L328.169 143.191C328.423 143.064 328.524 142.911 328.524 142.759V126.522H317.107Z" fill="url(#paint40_linear_2422_86933)"/>
<path d="M239.5 48.6081V32.3708C239.5 32.2186 239.627 32.041 239.855 31.9395L244.32 29.7069C244.802 29.4532 245.614 29.4532 246.096 29.7069L250.562 31.9395C250.815 32.0664 250.917 32.2186 250.917 32.3708V48.6081H239.5Z" fill="url(#paint41_linear_2422_86933)"/>
<path d="M245.233 41.4029C244.37 41.4029 243.508 41.2253 242.848 40.8954L231.964 35.4407C230.949 34.9333 230.797 34.2737 230.797 33.9185C230.797 33.5633 230.949 32.9036 231.964 32.3962L242.848 26.9415C244.193 26.2819 246.273 26.2819 247.618 26.9415L258.502 32.3962C259.517 32.9036 259.669 33.5633 259.669 33.9185C259.669 34.2737 259.517 34.9333 258.502 35.4407L247.618 40.9208C246.933 41.2506 246.095 41.4029 245.233 41.4029ZM245.233 27.4743C244.522 27.4743 243.837 27.6011 243.305 27.8549L232.421 33.3096C232.04 33.4872 231.812 33.7409 231.812 33.9438C231.812 34.1468 232.04 34.3751 232.421 34.5781L243.305 40.0328C244.345 40.5656 246.121 40.5656 247.161 40.0328L258.045 34.5781C258.426 34.4005 258.654 34.1468 258.654 33.9438C258.654 33.7409 258.426 33.5125 258.045 33.3096L247.161 27.8549C246.628 27.6011 245.918 27.4743 245.233 27.4743Z" fill="#02CEFF"/>
<path d="M255.788 19.9899L246.959 15.5754C245.994 15.0934 244.421 15.0934 243.457 15.5754L234.628 19.9899C234.146 20.2436 233.893 20.5481 233.893 20.8525V32.041C233.893 32.3455 234.146 32.6753 234.628 32.9036L243.457 37.3182C244.421 37.8002 245.994 37.8002 246.959 37.3182L255.788 32.9036C256.27 32.6499 256.523 32.3455 256.523 32.041V20.8525C256.523 20.5481 256.27 20.2183 255.788 19.9899Z" fill="url(#paint42_linear_2422_86933)"/>
<path d="M255.787 21.7405L246.983 26.155C246.019 26.6371 244.446 26.6371 243.482 26.155L234.653 21.7405C233.689 21.2585 233.689 20.472 234.653 19.9899L243.482 15.5754C244.446 15.0934 246.019 15.0934 246.983 15.5754L255.812 19.9899C256.751 20.472 256.751 21.2585 255.787 21.7405Z" fill="url(#paint43_linear_2422_86933)"/>
<path d="M250.588 21.3092L246.122 23.5418C245.64 23.7955 244.828 23.7955 244.346 23.5418L239.881 21.3092C239.399 21.0555 239.399 20.6749 239.881 20.4212L244.346 18.1886C244.828 17.9349 245.64 17.9349 246.122 18.1886L250.588 20.4212C251.07 20.6495 251.07 21.0555 250.588 21.3092Z" fill="#D3DAF3"/>
<path d="M239.5 4.61523V20.8525C239.5 21.0048 239.627 21.1824 239.855 21.2838L244.32 23.5165C244.802 23.7702 245.614 23.7702 246.096 23.5165L250.562 21.2838C250.815 21.157 250.917 21.0048 250.917 20.8525V4.61523H239.5Z" fill="url(#paint44_linear_2422_86933)"/>
<path d="M8.72656 237.773V221.535C8.72656 221.383 8.85342 221.205 9.08175 221.104L13.547 218.871C14.0291 218.618 14.8409 218.618 15.323 218.871L19.7882 221.104C20.0419 221.231 20.1434 221.383 20.1434 221.535V237.773H8.72656Z" fill="url(#paint45_linear_2422_86933)"/>
<path d="M14.436 230.567C13.5734 230.567 12.7108 230.39 12.0511 230.06L1.16706 224.63C0.152225 224.123 0 223.463 0 223.108C0 222.753 0.152225 222.093 1.16706 221.586L12.0511 216.131C13.3958 215.472 15.4762 215.472 16.8208 216.131L27.7049 221.586C28.7197 222.093 28.872 222.753 28.872 223.108C28.872 223.463 28.7197 224.123 27.7049 224.63L16.8208 230.085C16.1612 230.415 15.2986 230.567 14.436 230.567ZM14.436 216.639C13.7256 216.639 13.0406 216.765 12.5078 217.019L1.62373 222.474C1.24317 222.651 1.01483 222.905 1.01483 223.108C1.01483 223.311 1.24317 223.539 1.62373 223.742L12.5078 229.197C13.548 229.73 15.324 229.73 16.3642 229.197L27.2482 223.742C27.6288 223.565 27.8571 223.311 27.8571 223.108C27.8571 222.905 27.6288 222.677 27.2482 222.474L16.3642 217.019C15.8567 216.765 15.1464 216.639 14.436 216.639Z" fill="#02CEFF"/>
<path d="M25.0141 209.154L16.1851 204.74C15.221 204.258 13.648 204.258 12.6839 204.74L3.85489 209.154C3.37285 209.408 3.11914 209.712 3.11914 210.017V221.205C3.11914 221.51 3.37285 221.84 3.85489 222.068L12.6839 226.508C13.648 226.99 15.221 226.99 16.1851 226.508L25.0141 222.093C25.4962 221.84 25.7499 221.535 25.7499 221.231V210.042C25.7245 209.712 25.4962 209.408 25.0141 209.154Z" fill="url(#paint46_linear_2422_86933)"/>
<path d="M25.0151 210.905L16.1861 215.319C15.222 215.801 13.649 215.801 12.6849 215.319L3.85588 210.905C2.89179 210.423 2.89179 209.636 3.85588 209.154L12.6849 204.74C13.649 204.258 15.222 204.258 16.1861 204.74L25.0151 209.154C25.9792 209.636 25.9792 210.423 25.0151 210.905Z" fill="url(#paint47_linear_2422_86933)"/>
<path d="M19.7887 210.473L15.3234 212.706C14.8414 212.96 14.0295 212.96 13.5475 212.706L9.08224 210.473C8.60019 210.22 8.60019 209.839 9.08224 209.586L13.5475 207.353C14.0295 207.099 14.8414 207.099 15.3234 207.353L19.7887 209.586C20.2961 209.839 20.2961 210.22 19.7887 210.473Z" fill="#D3DAF3"/>
<path d="M8.72656 193.78V210.017C8.72656 210.169 8.85342 210.347 9.08175 210.448L13.547 212.681C14.0291 212.935 14.8409 212.935 15.323 212.681L19.7882 210.448C20.0419 210.322 20.1434 210.169 20.1434 210.017V193.78H8.72656Z" fill="url(#paint48_linear_2422_86933)"/>
<path d="M252.387 249.798L242.898 245.054C242.188 244.699 241.553 244.673 241.097 244.902L238.281 246.322C238.23 246.348 238.205 246.348 238.154 246.373C237.722 246.627 237.469 247.084 237.469 247.769V257.257C237.469 258.653 238.61 260.353 240.006 261.063L249.495 265.807C250.205 266.162 250.839 266.188 251.296 265.959L254.112 264.539C254.163 264.513 254.188 264.513 254.213 264.488C254.645 264.234 254.898 263.778 254.898 263.093V253.604C254.898 252.183 253.782 250.483 252.387 249.798Z" fill="url(#paint49_linear_2422_86933)"/>
<path d="M249.495 265.782L240.006 261.037C238.61 260.327 237.469 258.627 237.469 257.232V247.743C237.469 246.348 238.61 245.764 240.006 246.474L249.495 251.219C250.89 251.929 252.032 253.629 252.032 255.024V264.513C252.032 265.908 250.89 266.492 249.495 265.782Z" fill="url(#paint50_linear_2422_86933)"/>
<path d="M211.998 125.786L221.487 121.041C222.198 120.686 222.832 120.661 223.288 120.889L226.105 122.31C226.155 122.335 226.181 122.335 226.231 122.361C226.663 122.614 226.916 123.071 226.916 123.756V133.219C226.916 134.615 225.775 136.315 224.379 137.025L214.891 141.769C214.18 142.125 213.546 142.15 213.089 141.922L210.273 140.501C210.222 140.476 210.197 140.476 210.172 140.45C209.74 140.196 209.487 139.74 209.487 139.055V129.566C209.461 128.196 210.603 126.471 211.998 125.786Z" fill="url(#paint51_linear_2422_86933)"/>
<path d="M214.891 141.769L224.379 137.025C225.775 136.315 226.916 134.615 226.916 133.219V123.731C226.916 122.335 225.775 121.752 224.379 122.462L214.891 127.232C213.495 127.942 212.354 129.642 212.354 131.038V140.526C212.354 141.896 213.47 142.48 214.891 141.769Z" fill="url(#paint52_linear_2422_86933)"/>
<path d="M147.43 80.0932L137.941 75.3489C137.231 74.9937 136.596 74.9683 136.14 75.1966L133.324 76.6174C133.273 76.6428 133.247 76.6428 133.197 76.6681C132.765 76.9219 132.512 77.3785 132.512 78.0635V87.5522C132.512 88.9476 133.653 90.6474 135.049 91.3578L144.537 96.1022C145.248 96.4574 145.882 96.4827 146.339 96.2544L149.155 94.8336C149.206 94.8083 149.231 94.8083 149.256 94.7829C149.688 94.5292 149.941 94.0725 149.941 93.3875V83.8988C149.967 82.4781 148.825 80.7782 147.43 80.0932Z" fill="url(#paint53_linear_2422_86933)"/>
<path d="M144.563 96.0768L135.074 91.3325C133.679 90.6221 132.537 88.9222 132.537 87.5269V78.0382C132.537 76.6428 133.679 76.0593 135.074 76.7696L144.563 81.514C145.958 82.2244 147.1 83.9242 147.1 85.3196V94.8083C147.075 96.2037 145.958 96.7872 144.563 96.0768Z" fill="url(#paint54_linear_2422_86933)"/>
<path d="M230.797 238.99L221.308 234.246C220.598 233.891 219.964 233.865 219.507 234.094L216.691 235.515C216.64 235.54 216.615 235.54 216.564 235.565C216.133 235.819 215.879 236.276 215.879 236.961V246.449C215.879 247.845 217.021 249.545 218.416 250.255L227.905 254.999C228.615 255.354 229.249 255.38 229.706 255.151L232.522 253.731C232.573 253.705 232.598 253.705 232.624 253.68C233.055 253.426 233.309 252.97 233.309 252.285V242.796C233.334 241.401 232.218 239.701 230.797 238.99Z" fill="url(#paint55_linear_2422_86933)"/>
<path d="M227.93 254.999L218.441 250.255C217.046 249.544 215.904 247.844 215.904 246.449V236.96C215.904 235.565 217.046 234.981 218.441 235.692L227.93 240.436C229.325 241.146 230.467 242.846 230.467 244.242V253.73C230.467 255.126 229.325 255.684 227.93 254.999Z" fill="url(#paint56_linear_2422_86933)"/>
<path d="M123.025 113.735H40.3666V223.108C40.1383 228.538 44.1722 234.018 52.4685 238.153C68.6043 246.221 94.7869 246.221 110.923 238.153C119.219 234.018 123.253 228.538 123.025 223.108V113.735Z" fill="url(#paint57_linear_2422_86933)"/>
<path d="M114.879 86.9688H48.5089V223.058C48.3313 227.421 51.5534 231.811 58.2259 235.134C71.1904 241.604 92.1974 241.604 105.162 235.134C111.809 231.811 115.056 227.421 114.879 223.058V86.9688Z" fill="url(#paint58_linear_2422_86933)"/>
<path d="M71.4184 216.284L59.4434 210.296V198.296L71.4184 204.309V216.284Z" fill="url(#paint59_linear_2422_86933)"/>
<path d="M83.393 210.296L71.418 216.284V204.309L83.393 198.296V210.296Z" fill="url(#paint60_linear_2422_86933)"/>
<path d="M83.3934 198.296L71.4184 204.308L59.4434 198.296L71.4184 192.308L83.3934 198.296Z" fill="url(#paint61_linear_2422_86933)"/>
<path d="M99.4281 172.519L89.2545 175.919L82.4805 169.119L92.6542 165.745L99.4281 172.519Z" fill="url(#paint62_linear_2422_86933)"/>
<path d="M102.805 162.345L99.4302 172.519L92.6562 165.745L96.0306 155.571L102.805 162.345Z" fill="url(#paint63_linear_2422_86933)"/>
<path d="M96.0285 155.571L92.6542 165.745L82.4805 169.119L85.8548 158.971L96.0285 155.571Z" fill="url(#paint64_linear_2422_86933)"/>
<path d="M70.6326 119.139L67.918 111.02L73.3473 105.591L76.062 113.735L70.6326 119.139Z" fill="url(#paint65_linear_2422_86933)"/>
<path d="M78.7749 121.854L70.6309 119.139L76.0602 113.735L84.2042 116.424L78.7749 121.854Z" fill="url(#paint66_linear_2422_86933)"/>
<path d="M84.2063 116.424L76.0623 113.735L73.3477 105.591L81.4917 108.305L84.2063 116.424Z" fill="url(#paint67_linear_2422_86933)"/>
<path d="M96.0285 228.69L90.041 225.696V219.709L96.0285 222.702V228.69Z" fill="#62ADFF"/>
<path d="M102.015 225.696L96.0273 228.69V222.702L102.015 219.709V225.696Z" fill="#8DC3FF"/>
<path d="M102.016 219.709L96.0285 222.702L90.041 219.709L96.0285 216.715L102.016 219.709Z" fill="url(#paint68_linear_2422_86933)"/>
<path d="M68.6016 143.774L73.6757 145.474L77.0754 142.074L72.0012 140.374L68.6016 143.774Z" fill="#62ADFF"/>
<path d="M66.9023 138.674L68.6022 143.774L72.0019 140.374L70.302 135.3L66.9023 138.674Z" fill="#8DC3FF"/>
<path d="M70.3008 135.3L72.0006 140.374L77.0748 142.074L75.3749 137L70.3008 135.3Z" fill="url(#paint69_linear_2422_86933)"/>
<path d="M91.9666 94.783L93.3113 90.7237L90.5966 88.009L89.252 92.0684L91.9666 94.783Z" fill="#62ADFF"/>
<path d="M87.908 96.1277L91.9674 94.783L89.2527 92.0684L85.1934 93.4384L87.908 96.1277Z" fill="#8DC3FF"/>
<path d="M85.1934 93.4384L89.2527 92.0684L90.5973 88.009L86.538 89.3537L85.1934 93.4384Z" fill="url(#paint70_linear_2422_86933)"/>
<defs>
<linearGradient id="paint0_linear_2422_86933" x1="112.199" y1="185.208" x2="253.267" y2="185.208" gradientUnits="userSpaceOnUse">
<stop stop-color="#E1E3F8"/>
<stop offset="0.5" stop-color="#D3D7F2"/>
<stop offset="1" stop-color="#F2F3FF"/>
</linearGradient>
<linearGradient id="paint1_linear_2422_86933" x1="110.786" y1="70.8206" x2="252.097" y2="70.8206" gradientUnits="userSpaceOnUse">
<stop stop-color="#E8EAFB"/>
<stop offset="1" stop-color="white"/>
</linearGradient>
<linearGradient id="paint2_linear_2422_86933" x1="112.199" y1="185.208" x2="253.267" y2="185.208" gradientUnits="userSpaceOnUse">
<stop stop-color="#E1E3F8"/>
<stop offset="0.5" stop-color="#D3D7F2"/>
<stop offset="1" stop-color="#F2F3FF"/>
</linearGradient>
<linearGradient id="paint3_linear_2422_86933" x1="110.786" y1="70.8206" x2="252.097" y2="70.8206" gradientUnits="userSpaceOnUse">
<stop stop-color="#E8EAFB"/>
<stop offset="1" stop-color="white"/>
</linearGradient>
<linearGradient id="paint4_linear_2422_86933" x1="197.764" y1="246.248" x2="338.833" y2="246.248" gradientUnits="userSpaceOnUse">
<stop stop-color="#E1E3F8"/>
<stop offset="0.5" stop-color="#D3D7F2"/>
<stop offset="1" stop-color="#F2F3FF"/>
</linearGradient>
<linearGradient id="paint5_linear_2422_86933" x1="196.351" y1="192.9" x2="337.662" y2="192.9" gradientUnits="userSpaceOnUse">
<stop stop-color="#E8EAFB"/>
<stop offset="1" stop-color="white"/>
</linearGradient>
<linearGradient id="paint6_linear_2422_86933" x1="10.8418" y1="249.037" x2="152.153" y2="249.037" gradientUnits="userSpaceOnUse">
<stop stop-color="#E8EAFB"/>
<stop offset="1" stop-color="white"/>
</linearGradient>
<linearGradient id="paint7_linear_2422_86933" x1="258.15" y1="97.966" x2="295.319" y2="195.696" gradientUnits="userSpaceOnUse">
<stop stop-color="#FCFCFE"/>
<stop offset="0.2786" stop-color="#E1E3F8"/>
<stop offset="0.3206" stop-color="#BDCAF8"/>
<stop offset="1" stop-color="#EBEDFC"/>
</linearGradient>
<linearGradient id="paint8_linear_2422_86933" x1="254.075" y1="147.678" x2="294.001" y2="147.678" gradientUnits="userSpaceOnUse">
<stop stop-color="#D3D7F2"/>
<stop offset="1" stop-color="#BBC9F8"/>
</linearGradient>
<linearGradient id="paint9_linear_2422_86933" x1="247.632" y1="101.617" x2="285.024" y2="200.814" gradientUnits="userSpaceOnUse">
<stop offset="0.266" stop-color="#84BFFE"/>
<stop offset="0.3537" stop-color="#22568E"/>
<stop offset="1" stop-color="#4B8ED8"/>
</linearGradient>
<linearGradient id="paint10_linear_2422_86933" x1="263.893" y1="197.609" x2="263.893" y2="117.359" gradientUnits="userSpaceOnUse">
<stop stop-color="#4D92DD"/>
<stop offset="0.6278" stop-color="#22568E"/>
<stop offset="1" stop-color="#4F93DE"/>
</linearGradient>
<linearGradient id="paint11_linear_2422_86933" x1="281.735" y1="203.211" x2="243.862" y2="106.543" gradientUnits="userSpaceOnUse">
<stop stop-color="#109EFF"/>
<stop offset="1" stop-color="#02D0FF"/>
</linearGradient>
<linearGradient id="paint12_linear_2422_86933" x1="253.21" y1="168.293" x2="253.21" y2="144.048" gradientUnits="userSpaceOnUse">
<stop stop-color="#B4C1F3"/>
<stop offset="1" stop-color="#BBC9F8"/>
</linearGradient>
<linearGradient id="paint13_linear_2422_86933" x1="250.535" y1="168.045" x2="250.535" y2="143.902" gradientUnits="userSpaceOnUse">
<stop stop-color="#C3CFF7"/>
<stop offset="1" stop-color="white"/>
</linearGradient>
<linearGradient id="paint14_linear_2422_86933" x1="251.151" y1="103.061" x2="288.305" y2="200.753" gradientUnits="userSpaceOnUse">
<stop stop-color="#FCFCFE"/>
<stop offset="0.2786" stop-color="#E1E3F8"/>
<stop offset="0.3206" stop-color="#BDCAF8"/>
<stop offset="1" stop-color="#EBEDFC"/>
</linearGradient>
<linearGradient id="paint15_linear_2422_86933" x1="28.7904" y1="253.306" x2="134.583" y2="253.306" gradientUnits="userSpaceOnUse">
<stop stop-color="#D3D7F2"/>
<stop offset="0.35" stop-color="#BBC9F8"/>
<stop offset="0.65" stop-color="#D3D7F2"/>
<stop offset="1" stop-color="#F2F3FF"/>
</linearGradient>
<linearGradient id="paint16_linear_2422_86933" x1="43.8949" y1="254.469" x2="74.137" y2="193.996" gradientUnits="userSpaceOnUse">
<stop stop-color="#E8EAFB"/>
<stop offset="1" stop-color="white"/>
</linearGradient>
<linearGradient id="paint17_linear_2422_86933" x1="52.4617" y1="238.201" x2="75.8511" y2="191.431" gradientUnits="userSpaceOnUse">
<stop stop-color="#E8EAFB"/>
<stop offset="1" stop-color="white"/>
</linearGradient>
<linearGradient id="paint18_linear_2422_86933" x1="40.7798" y1="238.401" x2="122.601" y2="238.401" gradientUnits="userSpaceOnUse">
<stop stop-color="#D3D7F2"/>
<stop offset="0.35" stop-color="#BBC9F8"/>
<stop offset="0.65" stop-color="#D3D7F2"/>
<stop offset="1" stop-color="#F2F3FF"/>
</linearGradient>
<linearGradient id="paint19_linear_2422_86933" x1="48.6246" y1="223.584" x2="114.751" y2="223.584" gradientUnits="userSpaceOnUse">
<stop stop-color="#E8EAFB"/>
<stop offset="1" stop-color="white"/>
</linearGradient>
<linearGradient id="paint20_linear_2422_86933" x1="145.906" y1="41.8619" x2="230.958" y2="41.8619" gradientUnits="userSpaceOnUse">
<stop stop-color="#D3D7F2"/>
<stop offset="1" stop-color="#BBC9F8"/>
</linearGradient>
<linearGradient id="paint21_linear_2422_86933" x1="177.034" y1="3.04253" x2="214.315" y2="85.8877" gradientUnits="userSpaceOnUse">
<stop stop-color="#E3E4F8"/>
<stop offset="0.1112" stop-color="#F2F3FF"/>
<stop offset="0.6019" stop-color="#D3D7F2"/>
<stop offset="0.6461" stop-color="#E1E3F8"/>
<stop offset="0.7358" stop-color="#F2F3FF"/>
<stop offset="0.9196" stop-color="#E1E3F8"/>
<stop offset="1" stop-color="#E2E7FB"/>
</linearGradient>
<linearGradient id="paint22_linear_2422_86933" x1="177.486" y1="83.1011" x2="177.486" y2="19.1146" gradientUnits="userSpaceOnUse">
<stop stop-color="#4C91DC"/>
<stop offset="0.6278" stop-color="#20538A"/>
<stop offset="1" stop-color="#4D91DB"/>
</linearGradient>
<linearGradient id="paint23_linear_2422_86933" x1="168.072" y1="6.92397" x2="200.018" y2="91.6747" gradientUnits="userSpaceOnUse">
<stop stop-color="#56A1FF"/>
<stop offset="0.0662461" stop-color="#8FDAFF"/>
<stop offset="0.289871" stop-color="#4D92DD"/>
<stop offset="0.6061" stop-color="#1E69FF"/>
<stop offset="0.6278" stop-color="#8FC5FF"/>
<stop offset="0.815922" stop-color="#4B91DC"/>
<stop offset="1" stop-color="#1E69FF"/>
</linearGradient>
<linearGradient id="paint24_linear_2422_86933" x1="152.585" y1="74.8523" x2="189.941" y2="32.9679" gradientUnits="userSpaceOnUse">
<stop stop-color="#109EFF"/>
<stop offset="1" stop-color="#02D0FF"/>
</linearGradient>
<linearGradient id="paint25_linear_2422_86933" x1="155.143" y1="13.9911" x2="192.423" y2="96.8362" gradientUnits="userSpaceOnUse">
<stop stop-color="#E3E4F8"/>
<stop offset="0.1112" stop-color="#F2F3FF"/>
<stop offset="0.6019" stop-color="#D3D7F2"/>
<stop offset="0.6461" stop-color="#E1E3F8"/>
<stop offset="0.7358" stop-color="#F2F3FF"/>
<stop offset="0.9196" stop-color="#E1E3F8"/>
<stop offset="1" stop-color="#E2E7FB"/>
</linearGradient>
<linearGradient id="paint26_linear_2422_86933" x1="132.974" y1="161.338" x2="216.815" y2="161.338" gradientUnits="userSpaceOnUse">
<stop stop-color="#D3D7F2"/>
<stop offset="0.45" stop-color="#BBC9F8"/>
<stop offset="0.55" stop-color="#D3D7F2"/>
<stop offset="1" stop-color="#F2F3FF"/>
</linearGradient>
<linearGradient id="paint27_linear_2422_86933" x1="151.795" y1="166.13" x2="170.279" y2="129.169" gradientUnits="userSpaceOnUse">
<stop stop-color="#E8EAFB"/>
<stop offset="1" stop-color="white"/>
</linearGradient>
<linearGradient id="paint28_linear_2422_86933" x1="171.398" y1="221.031" x2="161.654" y2="225.952" gradientUnits="userSpaceOnUse">
<stop stop-color="#20298B"/>
<stop offset="1" stop-color="#4D59DB"/>
</linearGradient>
<linearGradient id="paint29_linear_2422_86933" x1="182.606" y1="226.076" x2="172.075" y2="221.155" gradientUnits="userSpaceOnUse">
<stop stop-color="#0421E4"/>
<stop offset="1" stop-color="#2568FB"/>
</linearGradient>
<linearGradient id="paint30_linear_2422_86933" x1="161.855" y1="215.649" x2="181.81" y2="215.649" gradientUnits="userSpaceOnUse">
<stop stop-color="#1E69FF"/>
<stop offset="1" stop-color="#6697FF"/>
</linearGradient>
<linearGradient id="paint31_linear_2422_86933" x1="198.986" y1="274.685" x2="173.964" y2="274.685" gradientUnits="userSpaceOnUse">
<stop stop-color="#F2F3FF"/>
<stop offset="0.45" stop-color="#D3D7F2"/>
<stop offset="0.55" stop-color="#BBC9F8"/>
<stop offset="1" stop-color="#D3D7F2"/>
</linearGradient>
<linearGradient id="paint32_linear_2422_86933" x1="199.116" y1="271.534" x2="173.835" y2="271.534" gradientUnits="userSpaceOnUse">
<stop stop-color="white"/>
<stop offset="1" stop-color="#E8EAFB"/>
</linearGradient>
<linearGradient id="paint33_linear_2422_86933" x1="180.173" y1="259.402" x2="155.15" y2="259.402" gradientUnits="userSpaceOnUse">
<stop stop-color="#F2F3FF"/>
<stop offset="0.45" stop-color="#D3D7F2"/>
<stop offset="0.55" stop-color="#BBC9F8"/>
<stop offset="1" stop-color="#D3D7F2"/>
</linearGradient>
<linearGradient id="paint34_linear_2422_86933" x1="180.303" y1="256.252" x2="155.021" y2="256.252" gradientUnits="userSpaceOnUse">
<stop stop-color="white"/>
<stop offset="1" stop-color="#E8EAFB"/>
</linearGradient>
<linearGradient id="paint35_linear_2422_86933" x1="161.363" y1="244.12" x2="136.341" y2="244.12" gradientUnits="userSpaceOnUse">
<stop stop-color="#F2F3FF"/>
<stop offset="0.45" stop-color="#D3D7F2"/>
<stop offset="0.55" stop-color="#BBC9F8"/>
<stop offset="1" stop-color="#D3D7F2"/>
</linearGradient>
<linearGradient id="paint36_linear_2422_86933" x1="161.493" y1="240.97" x2="136.212" y2="240.97" gradientUnits="userSpaceOnUse">
<stop stop-color="white"/>
<stop offset="1" stop-color="#E8EAFB"/>
</linearGradient>
<linearGradient id="paint37_linear_2422_86933" x1="322.832" y1="170.646" x2="322.832" y2="151.458" gradientUnits="userSpaceOnUse">
<stop stop-color="white" stop-opacity="0"/>
<stop offset="1" stop-color="#02CEFF"/>
</linearGradient>
<linearGradient id="paint38_linear_2422_86933" x1="311.655" y1="148.355" x2="334.008" y2="148.355" gradientUnits="userSpaceOnUse">
<stop stop-color="#D3D7F2"/>
<stop offset="0.45" stop-color="#BBC9F8"/>
<stop offset="0.55" stop-color="#D3D7F2"/>
<stop offset="1" stop-color="#F2F3FF"/>
</linearGradient>
<linearGradient id="paint39_linear_2422_86933" x1="316.674" y1="145.834" x2="321.602" y2="135.98" gradientUnits="userSpaceOnUse">
<stop stop-color="#E8EAFB"/>
<stop offset="1" stop-color="white"/>
</linearGradient>
<linearGradient id="paint40_linear_2422_86933" x1="322.832" y1="126.37" x2="322.832" y2="145.558" gradientUnits="userSpaceOnUse">
<stop stop-color="white" stop-opacity="0"/>
<stop offset="1" stop-color="#02CEFF"/>
</linearGradient>
<linearGradient id="paint41_linear_2422_86933" x1="245.227" y1="48.7509" x2="245.227" y2="29.5626" gradientUnits="userSpaceOnUse">
<stop stop-color="white" stop-opacity="0"/>
<stop offset="1" stop-color="#02CEFF"/>
</linearGradient>
<linearGradient id="paint42_linear_2422_86933" x1="234.05" y1="26.4596" x2="256.403" y2="26.4596" gradientUnits="userSpaceOnUse">
<stop stop-color="#D3D7F2"/>
<stop offset="0.45" stop-color="#BBC9F8"/>
<stop offset="0.55" stop-color="#D3D7F2"/>
<stop offset="1" stop-color="#F2F3FF"/>
</linearGradient>
<linearGradient id="paint43_linear_2422_86933" x1="239.067" y1="23.9394" x2="243.995" y2="14.0851" gradientUnits="userSpaceOnUse">
<stop stop-color="#E8EAFB"/>
<stop offset="1" stop-color="white"/>
</linearGradient>
<linearGradient id="paint44_linear_2422_86933" x1="245.227" y1="4.47493" x2="245.227" y2="23.6632" gradientUnits="userSpaceOnUse">
<stop stop-color="white" stop-opacity="0"/>
<stop offset="1" stop-color="#02CEFF"/>
</linearGradient>
<linearGradient id="paint45_linear_2422_86933" x1="14.4399" y1="237.92" x2="14.4399" y2="218.732" gradientUnits="userSpaceOnUse">
<stop stop-color="white" stop-opacity="0"/>
<stop offset="1" stop-color="#02CEFF"/>
</linearGradient>
<linearGradient id="paint46_linear_2422_86933" x1="3.26312" y1="215.629" x2="25.6164" y2="215.629" gradientUnits="userSpaceOnUse">
<stop stop-color="#D3D7F2"/>
<stop offset="0.45" stop-color="#BBC9F8"/>
<stop offset="0.55" stop-color="#D3D7F2"/>
<stop offset="1" stop-color="#F2F3FF"/>
</linearGradient>
<linearGradient id="paint47_linear_2422_86933" x1="8.28227" y1="213.109" x2="13.2104" y2="203.254" gradientUnits="userSpaceOnUse">
<stop stop-color="#E8EAFB"/>
<stop offset="1" stop-color="white"/>
</linearGradient>
<linearGradient id="paint48_linear_2422_86933" x1="14.4399" y1="193.644" x2="14.4399" y2="212.832" gradientUnits="userSpaceOnUse">
<stop stop-color="white" stop-opacity="0"/>
<stop offset="1" stop-color="#02CEFF"/>
</linearGradient>
<linearGradient id="paint49_linear_2422_86933" x1="253.315" y1="264.156" x2="239.107" y2="246.719" gradientUnits="userSpaceOnUse">
<stop stop-color="#2962D4"/>
<stop offset="1" stop-color="#3176FF"/>
</linearGradient>
<linearGradient id="paint50_linear_2422_86933" x1="244.75" y1="263.547" x2="244.75" y2="248.299" gradientUnits="userSpaceOnUse">
<stop stop-color="#3176FF"/>
<stop offset="1" stop-color="#66B3FF"/>
</linearGradient>
<linearGradient id="paint51_linear_2422_86933" x1="218.18" y1="142.075" x2="218.18" y2="121.281" gradientUnits="userSpaceOnUse">
<stop stop-color="#222B90"/>
<stop offset="1" stop-color="#4F5BDF"/>
</linearGradient>
<linearGradient id="paint52_linear_2422_86933" x1="219.623" y1="142.075" x2="219.623" y2="122.687" gradientUnits="userSpaceOnUse">
<stop stop-color="#3975B6"/>
<stop offset="1" stop-color="#87C1FF"/>
</linearGradient>
<linearGradient id="paint53_linear_2422_86933" x1="136.574" y1="77.1069" x2="146.283" y2="94.9573" gradientUnits="userSpaceOnUse">
<stop stop-color="#E1E3F8"/>
<stop offset="1" stop-color="#D3D7F2"/>
</linearGradient>
<linearGradient id="paint54_linear_2422_86933" x1="132.536" y1="86.4325" x2="147.086" y2="86.4325" gradientUnits="userSpaceOnUse">
<stop stop-color="#E8EAFB"/>
<stop offset="1" stop-color="white"/>
</linearGradient>
<linearGradient id="paint55_linear_2422_86933" x1="219.943" y1="236.023" x2="229.652" y2="253.874" gradientUnits="userSpaceOnUse">
<stop stop-color="#E1E3F8"/>
<stop offset="1" stop-color="#D3D7F2"/>
</linearGradient>
<linearGradient id="paint56_linear_2422_86933" x1="223.18" y1="255.159" x2="223.18" y2="237.695" gradientUnits="userSpaceOnUse">
<stop stop-color="#E8EAFB"/>
<stop offset="1" stop-color="white"/>
</linearGradient>
<linearGradient id="paint57_linear_2422_86933" x1="81.6905" y1="112.747" x2="81.6905" y2="243.802" gradientUnits="userSpaceOnUse">
<stop stop-color="white" stop-opacity="0"/>
<stop offset="1" stop-color="white"/>
</linearGradient>
<linearGradient id="paint58_linear_2422_86933" x1="81.6888" y1="85.8358" x2="81.6888" y2="239.54" gradientUnits="userSpaceOnUse">
<stop stop-color="white" stop-opacity="0"/>
<stop offset="1" stop-color="white"/>
</linearGradient>
<linearGradient id="paint59_linear_2422_86933" x1="70.9543" y1="204.498" x2="59.7421" y2="210.161" gradientUnits="userSpaceOnUse">
<stop stop-color="#017AFF"/>
<stop offset="1" stop-color="#79B9FF"/>
</linearGradient>
<linearGradient id="paint60_linear_2422_86933" x1="83.8511" y1="210.304" x2="71.7329" y2="204.641" gradientUnits="userSpaceOnUse">
<stop stop-color="#017AFF"/>
<stop offset="1" stop-color="#79B9FF"/>
</linearGradient>
<linearGradient id="paint61_linear_2422_86933" x1="59.9726" y1="198.305" x2="82.9363" y2="198.305" gradientUnits="userSpaceOnUse">
<stop stop-color="#1E69FF"/>
<stop offset="1" stop-color="#6697FF"/>
</linearGradient>
<linearGradient id="paint62_linear_2422_86933" x1="92.4965" y1="166.117" x2="89.3572" y2="175.663" gradientUnits="userSpaceOnUse">
<stop stop-color="#017AFF"/>
<stop offset="1" stop-color="#79B9FF"/>
</linearGradient>
<linearGradient id="paint63_linear_2422_86933" x1="103.078" y1="162.106" x2="93.02" y2="165.757" gradientUnits="userSpaceOnUse">
<stop stop-color="#017AFF"/>
<stop offset="1" stop-color="#79B9FF"/>
</linearGradient>
<linearGradient id="paint64_linear_2422_86933" x1="82.7808" y1="168.826" x2="95.771" y2="155.836" gradientUnits="userSpaceOnUse">
<stop stop-color="#1E69FF"/>
<stop offset="1" stop-color="#6697FF"/>
</linearGradient>
<linearGradient id="paint65_linear_2422_86933" x1="75.7612" y1="113.606" x2="68.1245" y2="111.095" gradientUnits="userSpaceOnUse">
<stop stop-color="#017AFF"/>
<stop offset="1" stop-color="#79B9FF"/>
</linearGradient>
<linearGradient id="paint66_linear_2422_86933" x1="78.9687" y1="122.07" x2="76.0472" y2="114.024" gradientUnits="userSpaceOnUse">
<stop stop-color="#017AFF"/>
<stop offset="1" stop-color="#79B9FF"/>
</linearGradient>
<linearGradient id="paint67_linear_2422_86933" x1="73.5946" y1="105.834" x2="83.9867" y2="116.226" gradientUnits="userSpaceOnUse">
<stop stop-color="#1E69FF"/>
<stop offset="1" stop-color="#6697FF"/>
</linearGradient>
<linearGradient id="paint68_linear_2422_86933" x1="90.0403" y1="219.703" x2="102.022" y2="219.703" gradientUnits="userSpaceOnUse">
<stop stop-color="#6AB1FF"/>
<stop offset="1" stop-color="white"/>
</linearGradient>
<linearGradient id="paint69_linear_2422_86933" x1="77.0756" y1="142.075" x2="70.2979" y2="135.298" gradientUnits="userSpaceOnUse">
<stop stop-color="#6AB1FF"/>
<stop offset="1" stop-color="white"/>
</linearGradient>
<linearGradient id="paint70_linear_2422_86933" x1="90.607" y1="88.0047" x2="85.1849" y2="93.4267" gradientUnits="userSpaceOnUse">
<stop stop-color="#6AB1FF"/>
<stop offset="1" stop-color="white"/>
</linearGradient>
</defs>
</svg>
