<svg width="565" height="515" viewBox="0 0 565 515" fill="none" xmlns="http://www.w3.org/2000/svg">
<path d="M220.073 215.599C223.702 217.694 229.633 214.331 233.232 208.017C238.838 198.103 247.188 189.104 257.927 189.104L275.63 197.956C264.89 197.956 256.541 206.955 250.935 216.868C247.365 223.182 241.405 226.545 237.776 224.451L220.073 215.599Z" fill="url(#paint0_linear_3370_56284)"/>
<path d="M197.178 202.381L220.073 215.599L237.776 224.451L214.88 211.233L197.178 202.381Z" fill="url(#paint1_linear_3370_56284)"/>
<path d="M197.178 202.381C191.395 199.047 182.042 204.447 176.289 214.449L153.098 254.634C149.469 260.918 143.568 264.311 139.939 262.216L157.642 271.067C161.271 273.162 167.172 269.769 170.801 263.485L193.991 223.3C199.774 213.298 209.127 207.899 214.88 211.233L197.178 202.381Z" fill="url(#paint2_linear_3370_56284)"/>
<path d="M134.068 258.823L139.939 262.216L157.642 271.068L151.77 267.704L134.068 258.823Z" fill="url(#paint3_linear_3370_56284)"/>
<path d="M134.068 258.823C130.439 256.728 124.539 260.121 120.91 266.406L112.825 280.391C109.196 286.675 103.296 290.068 99.6665 287.973L117.369 296.825C120.998 298.92 126.899 295.527 130.528 289.242L138.612 275.257C142.241 268.973 148.142 265.58 151.771 267.675L134.068 258.823Z" fill="url(#paint4_linear_3370_56284)"/>
<path d="M99.6958 288.002C96.0668 285.908 90.1659 289.301 86.5369 295.585L66.9756 329.456L84.6781 338.307L104.239 304.436C107.869 298.152 113.769 294.759 117.398 296.854L99.6958 288.002Z" fill="url(#paint5_linear_3370_56284)"/>
<path d="M221.194 168.156C211.576 170.428 202.725 176.329 194.316 184.502C191.248 187.482 188.091 187.216 185.76 185.977L203.462 194.828C205.793 196.067 208.921 196.333 212.019 193.353C220.427 185.18 229.308 179.279 238.897 177.008L221.194 168.156Z" fill="url(#paint6_linear_3370_56284)"/>
<path d="M168.647 163.051C175.581 165.854 178.708 182.288 185.73 185.976L203.433 194.827C196.411 191.11 193.254 174.705 186.35 171.903L168.647 163.051Z" fill="url(#paint7_linear_3370_56284)"/>
<path d="M168.647 163.052C166.67 162.255 164.399 162.55 161.625 164.586C149.322 173.585 145.368 213.593 130.439 224.539C122.532 230.322 113.887 222.916 102.558 231.236C92.6736 238.465 84.973 256.875 73.8204 265.048C70.0439 267.821 67.0934 267.674 64.4971 266.317L82.1996 275.168C84.796 276.525 87.7464 276.673 91.523 273.899C102.676 265.727 110.376 247.316 120.26 240.087C131.59 231.797 140.235 239.173 148.142 233.39C163.071 222.444 167.024 182.466 179.328 173.437C182.101 171.431 184.373 171.106 186.35 171.903L168.647 163.052Z" fill="url(#paint8_linear_3370_56284)"/>
<path d="M64.5266 266.257C60.9566 264.398 58.0062 260.238 54.3477 258.261L72.0502 267.113C75.6792 269.089 78.6297 273.249 82.2292 275.108L64.5266 266.257Z" fill="url(#paint9_linear_3370_56284)"/>
<path d="M54.3476 258.262C51.5447 256.728 48.2993 256.492 44.0506 259.59C31.1573 269.031 31.5998 295.467 13.2777 308.862C7.8194 312.874 3.6593 312.402 0.0302734 310.514L17.7328 319.365C21.3914 321.253 25.522 321.726 30.9803 317.713C49.3024 304.318 48.8303 277.882 61.7532 268.441C66.0018 265.343 69.2178 265.579 72.0502 267.113L54.3476 258.262Z" fill="url(#paint10_linear_3370_56284)"/>
<path d="M390.356 80.125L367.165 120.31C363.536 126.594 357.635 129.987 354.006 127.892L371.709 136.744C375.338 138.838 381.239 135.446 384.868 129.161L408.058 88.9763L390.356 80.125Z" fill="url(#paint11_linear_3370_56284)"/>
<path d="M348.135 124.529L354.006 127.892L371.709 136.744L365.837 133.38L348.135 124.529Z" fill="url(#paint12_linear_3370_56284)"/>
<path d="M348.135 124.529C344.506 122.434 338.605 125.827 334.976 132.112L326.892 146.097C323.263 152.381 317.362 155.774 313.733 153.679L331.436 162.531C335.065 164.626 340.966 161.233 344.595 154.948L352.679 140.963C356.308 134.679 362.209 131.286 365.838 133.381L348.135 124.529Z" fill="url(#paint13_linear_3370_56284)"/>
<path d="M313.763 153.709C310.134 151.614 304.233 155.007 300.604 161.292L281.042 195.162L298.745 204.014L318.306 170.143C321.935 163.858 327.836 160.465 331.465 162.56L313.763 153.709Z" fill="url(#paint14_linear_3370_56284)"/>
<path d="M357.517 72.3057C347.633 79.5342 339.932 97.9449 328.78 106.118C325.003 108.891 322.053 108.743 319.457 107.386L337.159 116.238C339.755 117.595 342.706 117.742 346.482 114.969C357.635 106.796 365.336 88.3855 375.22 81.1569L357.517 72.3057Z" fill="url(#paint15_linear_3370_56284)"/>
<path d="M319.457 107.386C315.887 105.527 312.936 101.367 309.278 99.3901L326.98 108.241C330.609 110.218 333.56 114.378 337.159 116.237L319.457 107.386Z" fill="url(#paint16_linear_3370_56284)"/>
<path d="M309.278 99.3605C306.475 97.8262 303.229 97.5902 298.981 100.688C286.058 110.159 286.53 136.565 268.208 149.96C262.75 153.973 258.589 153.501 254.96 151.613L272.663 160.464C276.322 162.352 280.452 162.824 285.91 158.812C304.233 145.417 303.76 118.981 316.683 109.539C320.932 106.441 324.148 106.678 326.98 108.212L309.278 99.3605Z" fill="url(#paint17_linear_3370_56284)"/>
<path d="M336.042 158.493L234.961 209.033C225.625 213.701 210.454 213.701 201.118 209.033L100.082 158.493C90.7456 153.824 90.7456 146.239 100.082 141.571L201.163 91.0303C210.499 86.3623 225.67 86.3623 235.006 91.0303L336.087 141.571C345.423 146.239 345.423 153.824 336.042 158.493Z" fill="url(#paint18_linear_3370_56284)"/>
<path d="M93.0796 150.054H343.089V209.923L218.084 273.86L93.0796 209.923V150.054Z" fill="url(#paint19_linear_3370_56284)"/>
<path d="M336.042 176.447L234.961 226.987C225.625 231.655 210.454 231.655 201.118 226.987L100.082 176.447C95.4136 174.113 93.0796 171.06 93.0796 168.008V172.497C93.0796 175.549 95.4136 178.601 100.082 180.935L201.163 231.476C210.499 236.144 225.67 236.144 235.006 231.476L336.042 180.935C340.71 178.601 343.044 175.549 343.044 172.497V168.008C343.089 171.06 340.71 174.113 336.042 176.447Z" fill="#8CD9FF"/>
<path d="M336.042 180.935L234.961 231.476C225.625 236.144 210.454 236.144 201.118 231.476L100.082 180.935C95.4136 178.601 93.0796 175.549 93.0796 172.497V176.986C93.0796 180.038 95.4136 183.09 100.082 185.424L201.163 235.964C210.499 240.633 225.67 240.633 235.006 235.964L336.042 185.424C340.71 183.09 343.044 180.038 343.044 176.986V172.497C343.089 175.549 340.71 178.601 336.042 180.935Z" fill="white"/>
<path d="M336.042 193.503L234.961 244.043C225.625 248.711 210.454 248.711 201.118 244.043L100.082 193.503C95.4136 191.169 93.0796 188.117 93.0796 185.064V189.553C93.0796 192.605 95.4136 195.657 100.082 197.991L201.163 248.532C210.499 253.2 225.67 253.2 235.006 248.532L336.042 197.991C340.71 195.657 343.044 192.605 343.044 189.553V185.064C343.089 188.117 340.71 191.169 336.042 193.503Z" fill="#8CD9FF"/>
<path d="M336.042 197.992L234.961 248.533C225.625 253.201 210.454 253.201 201.118 248.533L100.082 197.992C95.4136 195.658 93.0796 192.606 93.0796 189.554V194.042C93.0796 197.094 95.4136 200.147 100.082 202.481L201.163 253.021C210.499 257.689 225.67 257.689 235.006 253.021L336.042 202.481C340.71 200.147 343.044 197.094 343.044 194.042V189.554C343.089 192.606 340.71 195.658 336.042 197.992Z" fill="white"/>
<path d="M336.042 210.56L234.961 261.1C225.625 265.769 210.454 265.769 201.118 261.1L100.082 210.56C95.4136 208.226 93.0796 205.174 93.0796 202.122V206.61C93.0796 209.662 95.4136 212.714 100.082 215.048L201.163 265.589C210.499 270.257 225.67 270.257 235.006 265.589L336.042 215.048C340.71 212.714 343.044 209.662 343.044 206.61V202.122C343.089 205.129 340.71 208.226 336.042 210.56Z" fill="#8CD9FF"/>
<path d="M336.042 215.049L234.961 265.589C225.625 270.257 210.454 270.257 201.118 265.589L100.082 215.049C95.4136 212.715 93.0796 209.663 93.0796 206.61V211.099C93.0796 214.151 95.4136 217.203 100.082 219.537L201.163 270.078C210.499 274.746 225.67 274.746 235.006 270.078L336.042 219.537C340.71 217.203 343.044 214.151 343.044 211.099V206.61C343.089 209.618 340.71 212.715 336.042 215.049Z" fill="white"/>
<path d="M336.042 158.493L234.961 209.033C225.625 213.701 210.454 213.701 201.118 209.033L100.082 158.493C90.7456 153.824 90.7456 146.239 100.082 141.571L201.163 91.0303C210.499 86.3623 225.67 86.3623 235.006 91.0303L336.087 141.571C345.423 146.239 345.423 153.824 336.042 158.493Z" fill="url(#paint20_linear_3370_56284)"/>
<path opacity="0.090909" d="M171.853 159.884L199.772 173.843L171.853 187.847L143.89 173.843L171.853 159.884Z" fill="#BEDDFF"/>
<path opacity="0.1818" d="M172.706 159.435L200.669 173.439L172.706 187.398L144.742 173.439L172.706 159.435Z" fill="#BEDDFF"/>
<path opacity="0.2727" d="M173.558 159.032L201.521 172.991L173.558 186.995L145.595 172.991L173.558 159.032Z" fill="#BEDDFF"/>
<path opacity="0.3636" d="M174.411 158.582L202.375 172.586L174.411 186.545L146.493 172.586L174.411 158.582Z" fill="#BEDDFF"/>
<path opacity="0.4545" d="M175.309 158.178L203.227 172.137L175.309 186.141L147.345 172.137L175.309 158.178Z" fill="#BEDDFF"/>
<path opacity="0.5455" d="M176.162 157.729L204.125 171.688L176.162 185.692L148.198 171.688L176.162 157.729Z" fill="#BEDDFF"/>
<path opacity="0.6364" d="M177.015 157.281L204.978 171.285L177.015 185.244L149.051 171.285L177.015 157.281Z" fill="#BEDDFF"/>
<path opacity="0.7273" d="M177.867 156.876L205.831 170.835L177.867 184.839L149.904 170.835L177.867 156.876Z" fill="#BEDDFF"/>
<path opacity="0.8182" d="M178.72 156.427L206.684 170.431L178.72 184.39L150.802 170.431L178.72 156.427Z" fill="#BEDDFF"/>
<path opacity="0.9091" d="M179.618 156.023L207.537 169.983L179.618 183.942L151.655 169.983L179.618 156.023Z" fill="#BEDDFF"/>
<path d="M180.471 155.575L208.434 169.534L180.471 183.538L152.507 169.534L180.471 155.575Z" fill="#BEDDFF"/>
<path opacity="0.090909" d="M211.845 139.865L239.809 153.869L211.845 167.828L183.927 153.869L211.845 139.865Z" fill="#BEDDFF"/>
<path opacity="0.1818" d="M212.743 139.417L240.662 153.421L212.743 167.38L184.78 153.421L212.743 139.417Z" fill="#BEDDFF"/>
<path opacity="0.2727" d="M213.596 139.013L241.56 152.972L213.596 166.976L185.633 152.972L213.596 139.013Z" fill="#BEDDFF"/>
<path opacity="0.3636" d="M214.449 138.563L242.412 152.567L214.449 166.526L186.485 152.567L214.449 138.563Z" fill="#BEDDFF"/>
<path opacity="0.4545" d="M215.302 138.159L243.265 152.118L215.302 166.123L187.383 152.118L215.302 138.159Z" fill="#BEDDFF"/>
<path opacity="0.5455" d="M216.2 137.71L244.118 151.67L216.2 165.674L188.236 151.67L216.2 137.71Z" fill="#BEDDFF"/>
<path opacity="0.6364" d="M217.052 137.262L245.016 151.266L217.052 165.225L189.089 151.266L217.052 137.262Z" fill="#BEDDFF"/>
<path opacity="0.7273" d="M217.905 136.857L245.868 150.817L217.905 164.821L189.941 150.817L217.905 136.857Z" fill="#BEDDFF"/>
<path opacity="0.8182" d="M218.758 136.409L246.721 150.413L218.758 164.372L190.794 150.413L218.758 136.409Z" fill="#BEDDFF"/>
<path opacity="0.9091" d="M219.61 136.005L247.574 149.964L219.61 163.923L191.692 149.964L219.61 136.005Z" fill="#BEDDFF"/>
<path d="M220.508 135.556L248.427 149.515L220.508 163.52L192.545 149.515L220.508 135.556Z" fill="#BEDDFF"/>
<path opacity="0.090909" d="M251.883 119.846L279.846 133.85L251.883 147.81L223.919 133.85L251.883 119.846Z" fill="#BEDDFF"/>
<path opacity="0.1818" d="M252.735 119.397L280.699 133.402L252.735 147.361L224.817 133.402L252.735 119.397Z" fill="#BEDDFF"/>
<path opacity="0.2727" d="M253.633 118.994L281.552 132.953L253.633 146.958L225.67 132.953L253.633 118.994Z" fill="#BEDDFF"/>
<path opacity="0.3636" d="M254.486 118.544L282.449 132.549L254.486 146.508L226.522 132.549L254.486 118.544Z" fill="#BEDDFF"/>
<path opacity="0.4545" d="M255.338 118.141L283.302 132.1L255.338 146.104L227.375 132.1L255.338 118.141Z" fill="#BEDDFF"/>
<path opacity="0.5455" d="M256.191 117.692L284.155 131.651L256.191 145.655L228.273 131.651L256.191 117.692Z" fill="#BEDDFF"/>
<path opacity="0.6364" d="M257.089 117.243L285.008 131.247L257.089 145.207L229.126 131.247L257.089 117.243Z" fill="#BEDDFF"/>
<path opacity="0.7273" d="M257.942 116.839L285.905 130.798L257.942 144.802L229.979 130.798L257.942 116.839Z" fill="#BEDDFF"/>
<path opacity="0.8182" d="M258.795 116.39L286.758 130.394L258.795 144.354L230.832 130.394L258.795 116.39Z" fill="#BEDDFF"/>
<path opacity="0.9091" d="M259.648 115.986L287.611 129.946L259.648 143.905L231.685 129.946L259.648 115.986Z" fill="#BEDDFF"/>
<path d="M260.501 115.538L288.464 129.497L260.501 143.501L232.582 129.497L260.501 115.538Z" fill="#BEDDFF"/>
<path d="M260.502 74.5571L288.465 88.5613L260.502 102.521L232.583 88.5613L260.502 74.5571Z" fill="#CCD6FF"/>
<path d="M260.5 102.521V143.501L288.464 129.497V88.5615L260.5 102.521Z" fill="#AAB9F3"/>
<path d="M232.582 88.5615V129.497L260.501 143.501V102.521L232.582 88.5615Z" fill="#92A6F3"/>
<path d="M220.66 163.56L192.741 149.556V14.0034L220.66 27.9627V163.56Z" fill="url(#paint21_linear_3370_56284)"/>
<path d="M248.623 149.556L220.66 163.56V27.9627L248.623 14.0034V149.556Z" fill="url(#paint22_linear_3370_56284)"/>
<path d="M220.66 0L192.741 14.0041L220.66 27.9634L248.623 14.0041L220.66 0Z" fill="url(#paint23_linear_3370_56284)"/>
<path d="M180.471 183.539L208.434 169.534V89.0107L180.471 102.97V183.539Z" fill="#E3E5F9"/>
<path d="M152.507 169.534L180.471 183.539V102.97L152.507 89.0107V169.534Z" fill="#BCC9F8"/>
<path d="M180.471 75.0059L208.435 89.01L180.471 102.969L152.508 89.01L180.471 75.0059Z" fill="url(#paint24_linear_3370_56284)"/>
<path d="M180.471 93.9913L208.434 80.0321V66.791L180.471 80.7951V93.9913Z" fill="#E3E5F9"/>
<path d="M152.507 80.0321L180.471 93.9913V80.7951L152.507 66.791V80.0321Z" fill="#BCC9F8"/>
<path d="M180.471 52.8325L208.435 66.7918L180.471 80.7959L152.508 66.7918L180.471 52.8325Z" fill="url(#paint25_linear_3370_56284)"/>
<path d="M314.901 357.019H564.911V389.663L439.906 451.33L314.901 389.663V357.019Z" fill="url(#paint26_linear_3370_56284)"/>
<path d="M557.909 387.945L456.828 438.485C447.492 443.153 432.321 443.153 422.985 438.485L321.903 387.945C317.235 385.611 314.901 382.559 314.901 379.506V383.995C314.901 387.047 317.235 390.099 321.903 392.433L422.985 442.974C432.321 447.642 447.492 447.642 456.828 442.974L557.909 392.433C562.577 390.099 564.911 387.047 564.911 383.995V379.506C564.911 382.559 562.577 385.611 557.909 387.945Z" fill="#8CD9FF"/>
<path d="M557.909 392.433L456.828 442.973C447.492 447.641 432.321 447.641 422.985 442.973L321.903 392.433C317.235 390.098 314.901 387.046 314.901 383.994V388.483C314.901 391.535 317.235 394.587 321.903 396.921L422.985 447.462C432.321 452.13 447.492 452.13 456.828 447.462L557.909 396.921C562.577 394.587 564.911 391.535 564.911 388.483V383.994C564.911 387.046 562.577 390.098 557.909 392.433Z" fill="white"/>
<path d="M557.909 365.503L456.828 416.043C447.492 420.711 432.321 420.711 422.985 416.043L321.903 365.503C312.567 360.835 312.567 353.249 321.903 348.581L422.985 298.041C432.321 293.373 447.492 293.373 456.828 298.041L557.909 348.581C567.245 353.249 567.245 360.835 557.909 365.503Z" fill="url(#paint27_linear_3370_56284)"/>
<path opacity="0.090909" d="M492.288 367.702L417.823 404.957C413.694 407.021 407.051 407.021 402.921 404.957L350.765 378.879C346.636 376.814 346.636 373.492 350.765 371.428L425.229 334.173C429.359 332.108 436.002 332.108 440.131 334.173L492.288 360.251C496.417 362.316 496.417 365.682 492.288 367.702Z" fill="#BEDDFF"/>
<path opacity="0.1818" d="M494.532 366.626L420.067 403.88C415.938 405.945 409.295 405.945 405.166 403.88L353.009 377.802C348.88 375.737 348.88 372.416 353.009 370.351L427.473 333.096C431.603 331.032 438.246 331.032 442.375 333.096L494.532 359.175C498.616 361.194 498.616 364.561 494.532 366.626Z" fill="#BEDDFF"/>
<path opacity="0.2727" d="M496.776 365.502L422.312 402.757C418.183 404.821 411.54 404.821 407.41 402.757L355.254 376.678C351.124 374.614 351.124 371.292 355.254 369.227L429.718 331.973C433.848 329.908 440.49 329.908 444.62 331.973L496.776 358.051C500.861 360.071 500.861 363.437 496.776 365.502Z" fill="#BEDDFF"/>
<path opacity="0.3636" d="M498.975 364.38L424.511 401.635C420.382 403.7 413.739 403.7 409.609 401.635L357.453 375.557C353.324 373.492 353.324 370.171 357.453 368.106L431.917 330.851C436.047 328.787 442.69 328.787 446.819 330.851L498.975 356.929C503.105 358.994 503.105 362.316 498.975 364.38Z" fill="#BEDDFF"/>
<path opacity="0.4545" d="M501.22 363.258L426.755 400.513C422.626 402.578 415.983 402.578 411.854 400.513L359.697 374.435C355.568 372.37 355.568 369.048 359.697 366.984L434.161 329.729C438.291 327.664 444.934 327.664 449.063 329.729L501.22 355.807C505.349 357.872 505.349 361.194 501.22 363.258Z" fill="#BEDDFF"/>
<path opacity="0.5455" d="M503.464 362.136L429 399.39C424.87 401.455 418.227 401.455 414.098 399.39L361.941 373.312C357.812 371.247 357.812 367.926 361.941 365.861L436.406 328.607C440.535 326.542 447.178 326.542 451.307 328.607L503.464 354.685C507.593 356.75 507.593 360.071 503.464 362.136Z" fill="#BEDDFF"/>
<path opacity="0.6364" d="M505.708 361.014L431.244 398.269C427.115 400.333 420.472 400.333 416.342 398.269L364.186 372.191C360.057 370.126 360.057 366.804 364.186 364.74L438.65 327.485C442.78 325.42 449.423 325.42 453.552 327.485L505.708 353.563C509.838 355.628 509.838 358.949 505.708 361.014Z" fill="#BEDDFF"/>
<path opacity="0.7273" d="M507.953 359.892L433.488 397.147C429.359 399.211 422.716 399.211 418.586 397.147L366.43 371.068C362.301 369.004 362.301 365.682 366.43 363.618L440.894 326.363C445.024 324.298 451.667 324.298 455.796 326.363L507.953 352.441C512.037 354.506 512.037 357.827 507.953 359.892Z" fill="#BEDDFF"/>
<path opacity="0.8182" d="M510.197 358.77L435.732 396.024C431.603 398.089 424.96 398.089 420.831 396.024L368.674 369.946C364.545 367.881 364.545 364.56 368.674 362.495L443.138 325.24C447.268 323.176 453.911 323.176 458.04 325.24L510.197 351.319C514.281 353.383 514.281 356.705 510.197 358.77Z" fill="#BEDDFF"/>
<path opacity="0.9091" d="M512.441 357.648L437.977 394.903C433.847 396.967 427.204 396.967 423.075 394.903L370.918 368.824C366.789 366.76 366.789 363.438 370.918 361.373L445.383 324.119C449.512 322.054 456.155 322.054 460.284 324.119L512.441 350.197C516.525 352.262 516.525 355.583 512.441 357.648Z" fill="#BEDDFF"/>
<path d="M514.64 356.526L440.176 393.78C436.046 395.845 429.403 395.845 425.274 393.78L373.118 367.702C368.988 365.638 368.988 362.316 373.118 360.251L447.582 322.997C451.711 320.932 458.354 320.932 462.484 322.997L514.64 349.075C518.769 351.14 518.769 354.461 514.64 356.526Z" fill="#BEDDFF"/>
<path d="M511.677 326.632L461.72 301.631C457.77 299.656 451.397 299.656 447.447 301.631L376.08 337.314C374.105 338.302 373.117 339.603 373.117 340.905V362.405C373.117 363.707 374.105 365.008 376.08 365.996L426.037 390.997C429.986 392.972 436.36 392.972 440.31 390.997L511.677 355.313C513.607 354.326 514.595 353.069 514.64 351.767V330.267C514.685 328.966 513.697 327.619 511.677 326.632Z" fill="url(#paint28_linear_3370_56284)"/>
<path d="M514.64 317.251L462.484 291.173C458.354 289.108 451.711 289.108 447.582 291.173L373.118 328.427C371.053 329.459 370.021 330.806 370.021 332.153V354.595C370.021 355.942 371.053 357.288 373.118 358.321L425.274 384.399C429.403 386.463 436.046 386.463 440.176 384.399L514.64 347.144C516.66 346.112 517.692 344.81 517.737 343.464V321.021C517.782 319.675 516.75 318.283 514.64 317.251Z" fill="url(#paint29_linear_3370_56284)"/>
<path d="M514.64 324.702L440.176 361.956C436.046 364.021 429.403 364.021 425.274 361.956L373.118 335.878C368.988 333.813 368.988 330.492 373.118 328.427L447.582 291.173C451.711 289.108 458.354 289.108 462.484 291.173L514.64 317.251C518.769 319.315 518.769 322.637 514.64 324.702Z" fill="url(#paint30_linear_3370_56284)"/>
<path d="M511.677 291.576L461.72 266.575C457.77 264.601 451.397 264.601 447.447 266.575L376.08 302.259C374.105 303.247 373.117 304.548 373.117 305.85V327.35C373.117 328.651 374.105 329.953 376.08 330.941L426.037 355.942C429.986 357.917 436.36 357.917 440.31 355.942L511.677 320.258C513.607 319.27 514.595 318.014 514.64 316.712V295.212C514.685 293.866 513.697 292.564 511.677 291.576Z" fill="url(#paint31_linear_3370_56284)"/>
<path d="M514.64 282.195L462.484 256.117C458.354 254.052 451.711 254.052 447.582 256.117L373.118 293.371C371.053 294.404 370.021 295.75 370.021 297.097V319.539C370.021 320.886 371.053 322.233 373.118 323.265L425.274 349.343C429.403 351.408 436.046 351.408 440.176 349.343L514.64 312.089C516.66 311.056 517.692 309.755 517.737 308.408V285.965C517.782 284.574 516.75 283.227 514.64 282.195Z" fill="url(#paint32_linear_3370_56284)"/>
<path d="M514.64 289.646L440.176 326.901C436.046 328.965 429.403 328.965 425.274 326.901L373.118 300.822C368.988 298.758 368.988 295.436 373.118 293.371L447.582 256.117C451.711 254.052 458.354 254.052 462.484 256.117L514.64 282.195C518.769 284.26 518.769 287.581 514.64 289.646Z" fill="url(#paint33_linear_3370_56284)"/>
<path d="M511.677 256.521L461.72 231.52C457.77 229.545 451.397 229.545 447.447 231.52L376.08 267.203C374.105 268.191 373.117 269.493 373.117 270.794V292.249C373.117 293.551 374.105 294.853 376.08 295.84L426.037 320.841C429.986 322.816 436.36 322.816 440.31 320.841L511.677 285.157C513.607 284.17 514.595 282.913 514.64 281.611V260.112C514.685 258.81 513.697 257.508 511.677 256.521Z" fill="url(#paint34_linear_3370_56284)"/>
<path d="M514.64 247.14L462.484 221.062C458.354 218.997 451.711 218.997 447.582 221.062L373.118 258.317C371.053 259.349 370.021 260.696 370.021 262.042V284.485C370.021 285.831 371.053 287.178 373.118 288.21L425.274 314.288C429.403 316.353 436.046 316.353 440.176 314.288L514.64 277.034C516.66 276.001 517.692 274.7 517.737 273.353V250.911C517.782 249.519 516.75 248.173 514.64 247.14Z" fill="url(#paint35_linear_3370_56284)"/>
<path d="M514.64 254.591L440.176 291.846C436.046 293.911 429.403 293.911 425.274 291.846L373.118 265.768C368.988 263.703 368.988 260.381 373.118 258.317L447.582 221.062C451.711 218.997 458.354 218.997 462.484 221.062L514.64 247.14C518.769 249.16 518.769 252.527 514.64 254.591Z" fill="url(#paint36_linear_3370_56284)"/>
<path d="M482.323 247.813L426.665 275.642C424.87 276.539 421.907 276.539 420.112 275.642L405.479 268.325C403.684 267.428 403.684 265.947 405.479 265.049L461.137 237.22C462.932 236.322 465.895 236.322 467.69 237.22L482.323 244.536C484.118 245.434 484.118 246.915 482.323 247.813Z" fill="#D3DAF3"/>
<path d="M405.479 268.325L406.691 268.954L461.137 241.709C462.932 240.811 465.895 240.811 467.69 241.709L481.111 248.441L482.322 247.813C484.118 246.915 484.118 245.434 482.322 244.536L467.69 237.22C465.895 236.322 462.932 236.322 461.137 237.22L405.479 265.049C403.639 265.947 403.639 267.428 405.479 268.325Z" fill="#B4C1F3"/>
<path d="M418.945 267.608C417.509 268.326 417.509 269.493 418.945 270.256C420.381 271.019 422.76 270.975 424.196 270.256C425.633 269.538 425.633 268.371 424.196 267.608C422.76 266.89 420.426 266.89 418.945 267.608ZM430.121 262.042C428.685 262.761 428.685 263.928 430.121 264.691C431.558 265.409 433.937 265.409 435.373 264.691C436.809 263.972 436.809 262.805 435.373 262.042C433.892 261.324 431.558 261.324 430.121 262.042ZM441.253 256.477C439.816 257.195 439.816 258.362 441.253 259.125C442.689 259.843 445.068 259.843 446.504 259.125C447.941 258.407 447.941 257.24 446.504 256.477C445.068 255.759 442.734 255.759 441.253 256.477ZM452.429 250.911C450.993 251.629 450.993 252.796 452.429 253.559C453.865 254.277 456.244 254.277 457.681 253.559C459.117 252.841 459.117 251.674 457.681 250.911C456.244 250.148 453.865 250.148 452.429 250.911ZM463.606 245.3C462.169 246.018 462.169 247.185 463.606 247.949C465.042 248.667 467.421 248.667 468.857 247.949C470.293 247.23 470.293 246.063 468.857 245.3C467.376 244.582 465.042 244.582 463.606 245.3Z" fill="#B4C1F3"/>
<path d="M418.945 266.261C417.509 266.979 417.509 268.146 418.945 268.909C420.381 269.672 422.76 269.627 424.196 268.909C425.633 268.191 425.633 267.024 424.196 266.261C422.76 265.542 420.426 265.542 418.945 266.261ZM430.121 260.695C428.685 261.413 428.685 262.58 430.121 263.343C431.558 264.061 433.937 264.061 435.373 263.343C436.809 262.625 436.809 261.458 435.373 260.695C433.892 259.977 431.558 259.977 430.121 260.695ZM441.253 255.129C439.816 255.847 439.816 257.014 441.253 257.777C442.689 258.495 445.068 258.495 446.504 257.777C447.941 257.059 447.941 255.892 446.504 255.129C445.068 254.411 442.734 254.411 441.253 255.129ZM452.429 249.563C450.993 250.281 450.993 251.448 452.429 252.212C453.865 252.93 456.244 252.93 457.681 252.212C459.117 251.493 459.117 250.326 457.681 249.563C456.244 248.8 453.865 248.8 452.429 249.563ZM463.606 243.953C462.169 244.671 462.169 245.838 463.606 246.601C465.042 247.319 467.421 247.319 468.857 246.601C470.293 245.883 470.293 244.716 468.857 243.953C467.376 243.235 465.042 243.235 463.606 243.953Z" fill="white"/>
<path d="M449.288 339.065V328.337L510.69 297.636V308.363L449.288 339.065Z" fill="#BCC9F8"/>
<path d="M456.918 332.153L452.385 334.397V329.909L456.918 327.665V332.153Z" fill="#017AFF"/>
<path d="M484.926 315.904C484.926 317.161 483.939 318.687 482.682 319.271C481.425 319.899 480.438 319.405 480.438 318.149C480.438 316.892 481.425 315.366 482.682 314.782C483.894 314.154 484.926 314.647 484.926 315.904Z" fill="#017AFF"/>
<path d="M492.467 312.135C492.467 313.392 491.48 314.918 490.223 315.502C488.966 316.13 487.979 315.636 487.979 314.379C487.979 313.123 488.966 311.597 490.223 311.013C491.48 310.385 492.467 310.878 492.467 312.135Z" fill="#017AFF"/>
<path d="M500.008 308.32C500.008 309.576 499.02 311.102 497.763 311.686C496.507 312.314 495.519 311.821 495.519 310.564C495.519 309.307 496.507 307.781 497.763 307.197C499.02 306.569 500.008 307.108 500.008 308.32Z" fill="#75A4FF"/>
<path d="M507.593 304.55C507.593 305.806 506.606 307.332 505.349 307.916C504.092 308.544 503.105 308.051 503.105 306.794C503.105 305.537 504.092 304.011 505.349 303.427C506.561 302.799 507.593 303.338 507.593 304.55Z" fill="#017AFF"/>
<path d="M449.288 374.525V363.752L510.69 333.051V343.778L449.288 374.525Z" fill="#BCC9F8"/>
<path d="M456.918 367.568L452.385 369.857V365.324L456.918 363.08V367.568Z" fill="#017AFF"/>
<path d="M484.926 351.319C484.926 352.576 483.939 354.102 482.682 354.685C481.425 355.314 480.438 354.82 480.438 353.563C480.438 352.306 481.425 350.78 482.682 350.197C483.894 349.568 484.926 350.062 484.926 351.319Z" fill="#017AFF"/>
<path d="M492.467 347.549C492.467 348.806 491.48 350.332 490.223 350.916C488.966 351.544 487.979 351.05 487.979 349.794C487.979 348.537 488.966 347.011 490.223 346.427C491.48 345.799 492.467 346.293 492.467 347.549Z" fill="#017AFF"/>
<path d="M500.008 343.778C500.008 345.035 499.02 346.561 497.763 347.145C496.507 347.773 495.519 347.279 495.519 346.023C495.519 344.766 496.507 343.24 497.763 342.656C499.02 342.028 500.008 342.522 500.008 343.778Z" fill="#75A4FF"/>
<path d="M507.593 340.008C507.593 341.265 506.606 342.791 505.349 343.375C504.092 344.003 503.105 343.509 503.105 342.253C503.105 340.996 504.092 339.47 505.349 338.886C506.561 338.258 507.593 338.752 507.593 340.008Z" fill="#75A4FF"/>
<path d="M449.288 303.696V292.968L510.69 262.267V272.995L449.288 303.696Z" fill="#BCC9F8"/>
<path d="M456.918 296.783L452.385 299.028V294.494L456.918 292.25V296.783Z" fill="#017AFF"/>
<path d="M484.926 280.49C484.926 281.747 483.939 283.273 482.682 283.857C481.425 284.485 480.438 283.992 480.438 282.735C480.438 281.478 481.425 279.952 482.682 279.368C483.894 278.74 484.926 279.279 484.926 280.49Z" fill="#017AFF"/>
<path d="M492.467 276.72C492.467 277.977 491.48 279.503 490.223 280.087C488.966 280.715 487.979 280.221 487.979 278.964C487.979 277.708 488.966 276.182 490.223 275.598C491.48 274.97 492.467 275.463 492.467 276.72Z" fill="#75A4FF"/>
<path d="M500.008 272.95C500.008 274.207 499.02 275.733 497.763 276.317C496.507 276.945 495.519 276.451 495.519 275.194C495.519 273.938 496.507 272.412 497.763 271.828C499.02 271.2 500.008 271.693 500.008 272.95Z" fill="#017AFF"/>
<path d="M507.593 269.179C507.593 270.436 506.606 271.962 505.349 272.546C504.092 273.174 503.105 272.68 503.105 271.423C503.105 270.167 504.092 268.641 505.349 268.057C506.561 267.429 507.593 267.922 507.593 269.179Z" fill="#017AFF"/>
<path d="M23.5078 424.929H273.517V449.162L166.031 505.002C155.049 510.707 141.976 510.707 130.994 505.002L23.5078 449.162V424.929Z" fill="url(#paint37_linear_3370_56284)"/>
<path d="M266.515 433.412L165.434 483.953C156.098 488.621 140.927 488.621 131.591 483.953L30.5099 433.412C21.1738 428.744 21.1738 421.159 30.5099 416.491L131.591 365.95C140.927 361.282 156.098 361.282 165.434 365.95L266.515 416.491C275.851 421.159 275.851 428.7 266.515 433.412Z" fill="url(#paint38_linear_3370_56284)"/>
<path opacity="0.047619" d="M194.52 437.183L135.99 466.493C129.571 469.68 119.203 469.68 112.784 466.493L54.2544 437.228C47.8358 434.041 47.8358 428.834 54.2544 425.647L112.784 396.382C119.203 393.195 129.571 393.195 135.99 396.382L194.52 425.647C200.939 428.789 200.939 433.996 194.52 437.183Z" fill="#BEDDFF"/>
<path opacity="0.095238" d="M195.776 436.555L137.246 465.82C130.828 469.007 120.459 469.007 114.041 465.82L55.5107 436.555C49.0921 433.368 49.0921 428.161 55.5107 424.975L114.041 395.709C120.459 392.523 130.828 392.523 137.246 395.709L195.776 424.975C202.195 428.161 202.195 433.368 195.776 436.555Z" fill="#BEDDFF"/>
<path opacity="0.1429" d="M197.079 435.926L138.549 465.191C132.13 468.378 121.762 468.378 115.343 465.191L56.8129 435.926C50.3944 432.74 50.3944 427.533 56.8129 424.346L115.343 395.036C121.762 391.849 132.13 391.849 138.549 395.036L197.079 424.301C203.497 427.533 203.497 432.695 197.079 435.926Z" fill="#BEDDFF"/>
<path opacity="0.1905" d="M198.38 435.298L139.85 464.563C133.431 467.75 123.063 467.75 116.644 464.563L58.1142 435.298C51.6957 432.111 51.6957 426.905 58.1142 423.718L116.644 394.453C123.063 391.266 133.431 391.266 139.85 394.453L198.38 423.673C204.754 426.86 204.754 432.066 198.38 435.298Z" fill="#BEDDFF"/>
<path opacity="0.2381" d="M199.637 434.624L141.107 463.889C134.688 467.076 124.32 467.076 117.901 463.889L59.371 434.624C52.9525 431.437 52.9525 426.231 59.371 423.044L117.901 393.779C124.32 390.592 134.688 390.592 141.107 393.779L199.637 423.044C206.055 426.231 206.055 431.437 199.637 434.624Z" fill="#BEDDFF"/>
<path opacity="0.2857" d="M200.939 433.996L142.408 463.261C135.99 466.448 125.621 466.448 119.203 463.261L60.6728 433.996C54.2542 430.809 54.2542 425.602 60.6728 422.415L119.203 393.15C125.621 389.964 135.99 389.964 142.408 393.15L200.939 422.415C207.312 425.602 207.312 430.809 200.939 433.996Z" fill="#BEDDFF"/>
<path opacity="0.3333" d="M202.195 433.367L143.665 462.632C137.247 465.819 126.878 465.819 120.46 462.632L61.9296 433.367C55.5111 430.181 55.5111 424.974 61.9296 421.787L120.46 392.522C126.878 389.335 137.247 389.335 143.665 392.522L202.195 421.787C208.614 424.974 208.614 430.136 202.195 433.367Z" fill="#BEDDFF"/>
<path opacity="0.381" d="M203.497 432.695L144.967 462.004C138.548 465.191 128.18 465.191 121.761 462.004L63.2314 432.739C56.8128 429.553 56.8128 424.346 63.2314 421.159L121.761 391.894C128.18 388.707 138.548 388.707 144.967 391.894L203.497 421.159C209.916 424.301 209.916 429.508 203.497 432.695Z" fill="#BEDDFF"/>
<path opacity="0.4286" d="M204.754 432.067L146.224 461.332C139.805 464.518 129.437 464.518 123.018 461.332L64.4882 432.067C58.0697 428.88 58.0697 423.673 64.4882 420.486L123.018 391.221C129.437 388.034 139.805 388.034 146.224 391.221L204.754 420.486C211.173 423.673 211.173 428.88 204.754 432.067Z" fill="#BEDDFF"/>
<path opacity="0.4762" d="M206.055 431.438L147.525 460.703C141.107 463.89 130.738 463.89 124.32 460.703L65.7895 431.438C59.3709 428.251 59.3709 423.044 65.7895 419.857L124.32 390.547C130.738 387.361 141.107 387.361 147.525 390.547L206.055 419.812C212.474 423.044 212.474 428.206 206.055 431.438Z" fill="#BEDDFF"/>
<path opacity="0.5238" d="M207.357 430.809L148.827 460.074C142.408 463.261 132.04 463.261 125.621 460.074L67.0913 430.809C60.6727 427.622 60.6727 422.416 67.0913 419.229L125.621 389.964C132.04 386.777 142.408 386.777 148.827 389.964L207.357 419.184C213.731 422.371 213.731 427.578 207.357 430.809Z" fill="#BEDDFF"/>
<path opacity="0.5714" d="M208.614 430.135L150.084 459.4C143.665 462.587 133.297 462.587 126.878 459.4L68.3481 430.135C61.9295 426.949 61.9295 421.742 68.3481 418.555L126.878 389.29C133.297 386.103 143.665 386.103 150.084 389.29L208.614 418.555C215.032 421.742 215.032 426.949 208.614 430.135Z" fill="#BEDDFF"/>
<path opacity="0.619" d="M209.916 429.508L151.385 458.773C144.967 461.96 134.598 461.96 128.18 458.773L69.6499 429.508C63.2313 426.321 63.2313 421.114 69.6499 417.928L128.18 388.663C134.598 385.476 144.967 385.476 151.385 388.663L209.916 417.928C216.289 421.114 216.289 426.321 209.916 429.508Z" fill="#BEDDFF"/>
<path opacity="0.6667" d="M211.172 428.88L152.642 458.145C146.224 461.331 135.855 461.331 129.437 458.145L70.9067 428.88C64.4881 425.693 64.4881 420.486 70.9067 417.299L129.437 388.034C135.855 384.847 146.224 384.847 152.642 388.034L211.172 417.299C217.591 420.486 217.591 425.648 211.172 428.88Z" fill="#BEDDFF"/>
<path opacity="0.7143" d="M212.474 428.206L153.944 457.516C147.526 460.703 137.157 460.703 130.739 457.516L72.2085 428.251C65.7899 425.064 65.7899 419.858 72.2085 416.671L130.739 387.406C137.157 384.219 147.526 384.219 153.944 387.406L212.474 416.671C218.893 419.813 218.893 425.019 212.474 428.206Z" fill="#BEDDFF"/>
<path opacity="0.7619" d="M213.731 427.577L155.201 456.842C148.782 460.029 138.414 460.029 131.995 456.842L73.4653 427.577C67.0467 424.39 67.0467 419.184 73.4653 415.997L131.995 386.732C138.414 383.545 148.782 383.545 155.201 386.732L213.731 415.997C220.15 419.184 220.15 424.39 213.731 427.577Z" fill="#BEDDFF"/>
<path opacity="0.8095" d="M215.032 426.949L156.502 456.214C150.084 459.401 139.715 459.401 133.297 456.214L74.7666 426.949C68.348 423.762 68.348 418.555 74.7666 415.369L133.297 386.059C139.715 382.872 150.084 382.872 156.502 386.059L215.032 415.324C221.451 418.555 221.451 423.717 215.032 426.949Z" fill="#BEDDFF"/>
<path opacity="0.8571" d="M216.335 426.32L157.804 455.586C151.386 458.772 141.017 458.772 134.599 455.586L76.0688 426.32C69.6502 423.134 69.6502 417.927 76.0688 414.74L134.599 385.475C141.017 382.288 151.386 382.288 157.804 385.475L216.335 414.695C222.708 417.882 222.708 423.089 216.335 426.32Z" fill="#BEDDFF"/>
<path opacity="0.9048" d="M217.591 425.648L159.061 454.913C152.642 458.1 142.274 458.1 135.855 454.913L77.3252 425.648C70.9066 422.461 70.9066 417.255 77.3252 414.068L135.855 384.803C142.274 381.616 152.642 381.616 159.061 384.803L217.591 414.068C224.009 417.255 224.009 422.461 217.591 425.648Z" fill="#BEDDFF"/>
<path opacity="0.9524" d="M218.893 425.019L160.363 454.284C153.944 457.471 143.576 457.471 137.157 454.284L78.6269 425.019C72.2083 421.832 72.2083 416.626 78.6269 413.439L137.157 384.174C143.576 380.987 153.944 380.987 160.363 384.174L218.893 413.439C225.266 416.626 225.266 421.832 218.893 425.019Z" fill="#BEDDFF"/>
<path d="M220.149 424.391L161.619 453.656C155.201 456.843 144.832 456.843 138.414 453.656L79.8837 424.391C73.4652 421.204 73.4652 415.997 79.8837 412.81L138.414 383.545C144.832 380.359 155.201 380.359 161.619 383.545L220.149 412.81C226.568 415.997 226.568 421.159 220.149 424.391Z" fill="#BEDDFF"/>
<path d="M220.149 388.841L161.619 359.576C155.2 356.389 144.832 356.389 138.413 359.576L79.8833 388.841C76.6964 390.457 75.0806 392.522 75.0806 394.631V418.555C75.0806 420.665 76.6964 422.774 79.8833 424.345L138.413 453.61C144.832 456.797 155.2 456.797 161.619 453.61L220.149 424.345C223.336 422.729 224.952 420.665 224.952 418.555V394.631C224.952 392.567 223.381 390.457 220.149 388.841Z" fill="url(#paint39_linear_3370_56284)"/>
<path d="M220.149 400.467L161.619 429.732C155.201 432.919 144.832 432.919 138.414 429.732L79.8837 400.467C73.4652 397.281 73.4652 392.074 79.8837 388.887L138.414 359.577C144.832 356.39 155.201 356.39 161.619 359.577L220.149 388.842C226.568 392.074 226.568 397.236 220.149 400.467Z" fill="url(#paint40_linear_3370_56284)"/>
<path d="M185.588 397.594L155.919 412.451C152.687 414.067 147.391 414.067 144.159 412.451L114.49 397.594C111.258 395.978 111.258 393.33 114.49 391.714L144.159 376.857C147.391 375.242 152.687 375.242 155.919 376.857L185.588 391.714C188.82 393.33 188.82 395.978 185.588 397.594Z" fill="#D3DAF3"/>
<path d="M113.368 396.921C113.682 396.697 114.041 396.427 114.49 396.203L144.159 381.346C147.391 379.73 152.687 379.73 155.919 381.346L185.588 396.203C186.037 396.427 186.396 396.652 186.71 396.921C188.775 395.305 188.416 393.151 185.588 391.714L155.919 376.857C152.687 375.242 147.391 375.242 144.159 376.857L114.49 391.714C111.662 393.106 111.303 395.305 113.368 396.921Z" fill="#B4C1F3"/>
<path d="M145.191 392.252C142.498 393.599 142.498 395.753 145.191 397.1C147.884 398.446 152.193 398.446 154.886 397.1C157.579 395.753 157.579 393.599 154.886 392.252C152.193 390.906 147.884 390.906 145.191 392.252Z" fill="white"/>
<path opacity="0.3" d="M220.284 386.373L161.754 415.638C155.336 418.825 144.967 418.825 138.549 415.638L80.0185 386.373C73.6 383.186 73.6 377.979 80.0185 374.792L138.549 345.527C144.967 342.34 155.336 342.34 161.754 345.527L220.284 374.792C226.658 377.934 226.658 383.141 220.284 386.373Z" fill="#02D0FF"/>
<path d="M220.284 386.372L161.754 415.637C155.336 418.824 144.967 418.824 138.549 415.637L80.0185 386.372C76.8317 384.756 75.2158 382.692 75.2158 380.582V390.053C75.2158 392.163 76.8317 394.272 80.0185 395.843L138.549 425.108C144.967 428.295 155.336 428.295 161.754 425.108L220.284 395.843C223.471 394.227 225.087 392.163 225.087 390.053V380.582C225.087 382.647 223.471 384.756 220.284 386.372ZM75.2158 380.537C75.2158 380.403 75.2158 380.268 75.2158 380.133C75.2158 380.268 75.2158 380.403 75.2158 380.537Z" fill="url(#paint41_linear_3370_56284)"/>
<path d="M251.12 471.386L254.396 471.296L262.745 478.029C264.002 479.016 262.88 481.53 261.129 480.767L253.005 477.176C251.03 476.323 251.165 473.45 251.12 471.386Z" fill="#8EAAE8"/>
<path d="M239.225 423.762L254.71 437.093L255.384 437.676C256.416 438.574 257 439.876 257 441.178L257.089 470.622C257.089 472.597 255.518 474.213 253.543 474.213C251.703 474.213 250.222 472.866 249.998 471.116L246.227 441.896L248.516 445.98L230.742 435.971C227.151 433.951 225.894 429.373 227.914 425.782C229.934 422.191 234.512 420.934 238.103 422.954C238.462 423.134 238.866 423.448 239.225 423.762Z" fill="#130F40"/>
<path d="M238.103 479.104L242.322 487.902C243.13 489.518 239.809 490.73 238.417 489.114L233.884 483.817C233.076 482.83 232.852 480.81 232.852 479.104H238.103Z" fill="#8EAAE8"/>
<path d="M230.921 432.515L235.185 442.614L235.724 443.916C235.948 444.409 236.173 444.948 236.352 445.487C236.756 446.519 237.07 447.596 237.385 448.673C237.968 450.828 238.327 452.982 238.462 455.137L238.507 455.945V456.663L238.552 458.009L238.597 460.747L238.731 466.223L239.001 477.175C239.045 479.15 237.474 480.811 235.499 480.856C233.749 480.901 232.268 479.644 231.909 477.983L229.754 467.256L228.677 461.914L228.138 459.221L227.869 457.875L227.734 457.246L227.6 456.708C227.241 455.271 226.747 453.925 226.119 452.623C225.804 451.995 225.49 451.366 225.086 450.738C224.907 450.424 224.727 450.155 224.503 449.84L223.784 448.718L217.815 439.562C215.571 436.106 216.558 431.482 220.014 429.238C223.47 426.994 228.093 427.981 230.338 431.437C230.517 431.707 230.742 432.111 230.921 432.515Z" fill="#130F40"/>
<path d="M245.869 411.733C245.599 412.182 245.33 412.631 244.926 413.124C244.836 413.259 244.702 413.394 244.567 413.528C244.432 413.663 244.298 413.798 244.118 413.932C243.759 414.202 243.265 414.471 242.637 414.606C241.964 414.74 241.246 414.606 240.707 414.381C240.438 414.247 240.258 414.112 240.034 413.977C239.854 413.843 239.719 413.708 239.585 413.573C239.046 413.035 238.777 412.586 238.508 412.137C237.969 411.239 237.655 410.431 237.296 409.578C236.981 408.771 236.667 407.963 236.443 407.155C235.366 403.968 234.558 400.781 233.615 397.594C233.076 395.754 234.109 393.869 235.904 393.33C237.744 392.791 239.63 393.824 240.168 395.664C240.258 395.978 240.303 396.293 240.303 396.607C240.348 398.178 240.438 399.749 240.572 401.32C240.707 402.891 240.931 404.417 241.201 405.898C241.335 406.661 241.515 407.379 241.694 408.052C241.874 408.726 242.143 409.399 242.368 409.938C242.502 410.162 242.637 410.386 242.682 410.431C242.637 410.386 242.637 410.386 242.547 410.342C242.502 410.342 242.457 410.297 242.412 410.297C242.368 410.297 242.278 410.252 242.233 410.252C242.098 410.252 241.964 410.207 241.829 410.252C241.56 410.297 241.47 410.386 241.425 410.431C241.425 410.386 241.425 410.386 241.47 410.342C241.56 410.207 241.694 409.982 241.829 409.713C242.323 408.546 243.669 408.008 244.836 408.456C246.003 408.95 246.542 410.252 246.093 411.464C246.048 411.553 246.003 411.643 245.958 411.733H245.869Z" fill="#3176FF"/>
<path d="M238.597 417.434C238.642 424.212 238.507 431.124 238.507 431.124C238.193 434.176 218.085 439.203 216.604 436.016C216.244 431.573 216.424 427.219 217.322 422.865L238.597 417.434Z" fill="#130F40"/>
<path d="M212.518 398.267C216.917 394.452 228.408 391.939 234.063 391.265C237.25 390.906 240.033 393.285 240.212 396.472C240.706 405.18 239.001 418.87 239.001 418.87C239.001 422.371 218.937 426.41 217.186 422.73C217.186 412.945 215.032 409.848 210.543 402.666C210.499 401.005 211.217 399.39 212.518 398.267Z" fill="#3176FF"/>
<path d="M228.722 390.457L227.914 396.113C225.805 396.113 223.426 395.08 223.561 393.285L224.593 387.674L228.722 390.457Z" fill="#F3ABC7"/>
<path d="M231.236 390.771C231.012 391.714 229.261 392.791 227.735 391.624L224.638 387.674C224.638 387.674 223.246 381.166 227.87 381.166C229.216 381.166 231.236 382.198 231.954 383.32C232.942 385.744 231.864 388.392 231.236 390.771Z" fill="#F3ABC7"/>
<path d="M223.695 384.083C223.695 380.627 227.51 379.64 229.62 380.493C230.966 381.076 233.031 382.827 235.185 381.57C235.769 383.32 234.467 384.443 232.447 385.071C230.607 385.61 228.632 385.206 227.196 383.949L227.151 383.904L226.164 383.769C227.061 384.757 227.241 386.417 226.927 388.437L229.216 389.604L231.684 388.886L231.415 391.624C231.325 392.253 230.787 392.746 230.158 392.791L229.35 392.836C229.036 392.836 228.677 392.746 228.453 392.522C228.453 392.522 225.76 390.816 225.804 389.874L225.984 386.687C225.76 386.283 225.49 386.283 225.311 386.462C225.131 386.687 224.009 390.906 224.009 390.906C224.009 390.906 223.695 385.475 223.695 384.083Z" fill="#130F40"/>
<path d="M241.515 418.196L234.019 419.991C233.391 420.126 232.942 419.767 233.031 419.183L235.366 406.705C235.5 406.077 236.084 405.493 236.757 405.314L244.253 403.519C244.881 403.384 245.33 403.743 245.24 404.326L242.906 416.804C242.772 417.433 242.188 418.061 241.515 418.196Z" fill="#130F40"/>
<path d="M245.958 409.938C246.093 411.419 244.791 412.272 243.714 412.541L243.893 410.162C243.579 409.669 243.444 409.04 243.534 408.457L243.803 406.212L245.015 406.796C246.227 407.469 246.452 408.412 245.958 409.938Z" fill="#F3ABC7"/>
<path d="M234.198 417.119L231.999 418.331C231.236 418.69 230.518 419.094 229.755 419.453C228.273 420.216 226.703 420.89 225.042 421.473C223.426 422.057 221.675 422.505 219.79 422.73C219.341 422.775 218.848 422.775 218.354 422.82C218.129 422.82 217.86 422.82 217.591 422.775C217.322 422.775 217.097 422.73 216.828 422.73C216.289 422.64 215.795 422.595 215.257 422.371C214.988 422.281 214.718 422.236 214.494 422.101C214.224 421.967 214 421.877 213.731 421.742C212.743 421.204 211.801 420.441 211.083 419.543C210.409 418.645 209.871 417.658 209.512 416.67C209.422 416.401 209.332 416.177 209.287 415.952C209.242 415.728 209.152 415.458 209.108 415.234L208.973 414.516C208.928 414.291 208.883 414.022 208.883 413.798C208.838 413.304 208.793 412.855 208.748 412.361L208.704 411.643V410.97C208.748 409.13 209.018 407.334 209.377 405.629C209.736 403.878 210.185 402.217 210.723 400.557C211.307 398.761 213.192 397.774 214.988 398.312C216.783 398.896 217.77 400.781 217.232 402.576C217.187 402.711 217.142 402.891 217.052 403.025V403.07C215.751 405.763 214.763 408.591 214.449 411.329C214.314 412.676 214.269 414.022 214.584 415.099C214.718 415.638 214.943 416.087 215.167 416.491C215.436 416.895 215.751 417.164 216.11 417.433C216.199 417.478 216.334 417.568 216.424 417.613C216.514 417.658 216.648 417.703 216.783 417.748C217.007 417.882 217.277 417.882 217.546 417.972C217.815 418.017 218.129 418.062 218.444 418.062C218.758 418.062 219.072 418.107 219.386 418.062C220.733 418.017 222.124 417.703 223.516 417.209C226.343 416.266 229.126 414.83 231.73 413.169H231.775C232.852 412.496 234.243 412.81 234.916 413.887C235.59 414.965 235.276 416.356 234.198 417.029C234.288 417.074 234.243 417.119 234.198 417.119Z" fill="#3176FF"/>
<path d="M234.109 409.893C234.199 409.669 234.468 409.579 234.692 409.669C234.917 409.758 235.051 410.028 234.962 410.252L234.513 411.688L235.366 410.746L237.026 409.669C237.251 409.534 237.52 409.579 237.61 409.803C237.744 409.983 237.7 410.252 237.52 410.387L236.173 411.419L235.994 411.688L236.937 411.284L237.34 414.202L236.802 414.785C236.802 414.785 235.814 415.818 234.962 416.581C234.468 417.03 233.705 416.985 233.256 416.491L231.954 415.1C231.595 414.696 231.55 414.112 231.82 413.618L234.109 409.893Z" fill="#F3ABC7"/>
<path d="M279.801 150.458C287.97 146.419 297.576 146.419 305.745 150.458C305.79 150.458 305.835 150.503 305.879 150.503C308.034 151.581 310.009 152.703 311.804 153.915C314.049 155.396 314.049 158.717 311.804 160.198C310.009 161.366 308.034 162.533 305.879 163.61C305.835 163.61 305.79 163.655 305.745 163.655C297.576 167.694 287.97 167.694 279.801 163.655C279.756 163.655 279.711 163.61 279.667 163.61C277.512 162.533 275.537 161.41 273.742 160.198C271.498 158.717 271.498 155.396 273.742 153.915C275.537 152.748 277.512 151.581 279.667 150.503C279.711 150.503 279.756 150.458 279.801 150.458Z" fill="#EBF0FF"/>
<path d="M295.915 161.32C294.165 162.622 290.529 164.821 288.779 165.405C286.983 165.988 286.085 164.552 287.163 163.25L293.536 155.934L295.781 158.358C296.589 159.211 297.037 160.467 295.915 161.32Z" fill="#1584FF"/>
<path d="M299.775 156.293C297.845 155.665 294.748 153.69 293.446 152.523C292.1 151.266 293.042 149.874 294.748 150.144L302.154 151.086V154.677C302.154 155.799 301.122 156.742 299.775 156.293Z" fill="#1584FF"/>
<path d="M307.271 97.8081L307.81 101.399C307.855 101.623 308.034 101.803 308.303 101.803C308.573 101.803 308.752 101.623 308.752 101.354L308.887 98.4814L307.271 97.8081Z" fill="#F3ABC7"/>
<path d="M309.111 100.098L308.887 102.521C308.842 102.836 308.976 103.105 309.156 103.329L310.188 104.452L309.56 100.502L309.111 100.098Z" fill="#F3ABC7"/>
<path d="M309.739 101.534L310.188 104.451C310.233 104.676 310.458 104.855 310.682 104.81C310.862 104.765 310.996 104.631 311.041 104.451L311.58 101.309L310.996 97.494C310.862 96.5514 309.964 95.923 309.066 96.0577L308.707 96.1026C307.854 96.2372 307.226 96.9554 307.271 97.8531L309.739 101.534Z" fill="#F3ABC7"/>
<path d="M304.533 69.8451C306.283 71.5956 307.764 73.5705 308.976 75.6801C310.143 77.7897 310.996 80.034 311.535 82.3231C312.073 84.6122 312.298 86.9463 312.298 89.2354C312.298 91.5245 312.073 93.8137 311.625 96.0579C311.4 97.4045 310.098 98.2573 308.797 98.0329C307.45 97.8084 306.597 96.5068 306.822 95.2051C306.822 95.1602 306.867 95.0705 306.867 95.0256C307.36 93.1853 307.54 91.2552 307.45 89.3252C307.36 87.44 307.001 85.5548 306.373 83.8043C305.745 82.0538 304.847 80.4379 303.77 79.0016C302.648 77.5653 301.346 76.3983 299.865 75.4557C298.159 74.3785 297.62 72.1342 298.698 70.3837C299.775 68.6781 302.019 68.1394 303.77 69.2167C303.994 69.3513 304.218 69.5309 304.398 69.7104L304.533 69.8451Z" fill="#3176FF"/>
<path d="M295.287 100.277C293.581 104.586 292.279 108.984 291.426 113.518C290.574 118.051 290.17 122.719 290.259 127.387C290.394 136.813 292.234 146.329 294.793 155.755C295.197 157.326 294.299 158.897 292.773 159.345C291.337 159.749 289.811 158.941 289.272 157.595C287.477 152.882 285.861 148.079 284.514 143.187C283.168 138.249 282.135 133.177 281.552 127.971C280.968 122.764 280.878 117.468 281.327 112.171C281.776 106.875 282.809 101.623 284.245 96.5513C285.143 93.4542 288.374 91.6588 291.471 92.5565C294.568 93.4542 296.364 96.6859 295.466 99.783C295.421 99.9177 295.376 100.097 295.287 100.277Z" fill="#001A37"/>
<path d="M305.251 93.4539L302.334 150.144C302.244 151.76 300.897 152.971 299.281 152.882C297.8 152.792 296.588 151.58 296.543 150.144L293.626 93.4539C293.446 90.2222 295.915 87.4842 299.147 87.3495C302.379 87.17 305.116 89.6387 305.251 92.8704C305.251 93.0499 305.251 93.2744 305.251 93.4539Z" fill="#001A37"/>
<path d="M298.608 100.86L290.843 103.015C287.118 104.047 284.11 101.893 284.11 98.1673C284.11 94.4418 287.118 90.5817 290.843 89.5493L298.608 87.3949C302.334 86.3625 305.341 88.517 305.341 92.2424C305.341 95.9679 302.334 99.828 298.608 100.86Z" fill="#001A37"/>
<path d="M290.663 65.2212C290.888 68.0939 294.793 65.6701 295.197 65.311C296.454 64.144 298.653 60.2839 295.735 58.668C294.748 58.1294 292.593 58.0396 291.741 58.8027C290.529 59.8799 290.529 63.4707 290.663 65.2212Z" fill="#F3ABC7"/>
<path d="M291.741 66.6129L297.172 61.3613L297.441 71.9542L292.549 71.7298L293.267 66.8373L291.741 66.6129Z" fill="#F3ABC7"/>
<path d="M304.354 88.9656C301.66 84.0731 305.072 74.4677 304.443 70.5178C304.309 69.665 303.68 69.0366 302.827 68.902C298.922 68.2736 290.529 70.6974 287.566 75.0961C286.085 79.9886 286.444 88.5167 284.739 95.2495C293.132 97.9426 304.354 91.9729 304.354 88.9656Z" fill="#3176FF"/>
<path d="M269.164 54.1345C268.894 54.1794 268.715 54.4038 268.76 54.6731L268.939 56.1992L268.266 55.0771L266.785 53.6857C266.605 53.5061 266.336 53.5061 266.156 53.7306C265.977 53.9101 265.977 54.1794 266.156 54.3589L267.323 55.6606L267.458 55.9748L266.022 55.4811C265.797 55.3464 265.483 55.4362 265.348 55.6606L264.675 56.8725C264.585 57.052 264.63 57.2765 264.765 57.4111L265.438 58.1293L266.022 59.0719L267.278 60.8673C267.638 61.4059 268.401 61.5405 268.939 61.1366L270.016 60.3735L270.286 60.1491C271.004 59.6105 271.228 58.9821 270.824 57.86L269.702 54.3589C269.612 54.2243 269.388 54.0896 269.164 54.1345Z" fill="#F3ABC7"/>
<path d="M289.182 79.3601C286.938 78.7317 284.693 78.0585 282.494 77.1608C280.295 76.2631 278.095 75.2307 276.031 73.7944C274.011 72.403 272.126 70.6076 270.689 68.498C269.253 66.4332 268.266 64.1441 267.502 61.8999C267.054 60.5982 267.772 59.2516 269.029 58.8028C270.285 58.3539 271.677 59.0721 272.126 60.3289C272.126 60.3738 272.171 60.4635 272.171 60.5084C272.664 62.4385 273.472 64.2339 274.594 65.7151C274.864 66.0742 275.178 66.4332 275.492 66.7923C275.851 67.1065 276.165 67.4207 276.524 67.7349C277.243 68.3184 278.006 68.857 278.858 69.3059C280.519 70.2036 282.404 70.8769 284.334 71.3257C286.309 71.7746 288.329 72.0439 290.394 72.1785H290.439C292.459 72.3132 293.985 74.0637 293.85 76.0835C293.715 78.1034 291.965 79.6294 289.945 79.4948C289.676 79.4948 289.406 79.4499 289.182 79.3601Z" fill="#3176FF"/>
<path d="M313.016 68.8119C312.074 68.0039 310.772 67.7795 309.56 67.7346C308.303 67.6897 307.092 67.8244 305.88 67.6C304.668 67.3755 303.411 66.7472 302.962 65.5801C302.513 64.5927 302.738 63.3808 302.379 62.3484C301.93 61.0468 300.628 60.1939 299.282 59.9246C299.147 59.8797 299.012 59.8797 298.878 59.8349C298.788 59.1167 298.474 58.3985 297.98 57.815C296.14 55.7503 293.806 55.1668 291.337 55.077C287.701 54.9424 285.098 57.4111 291.606 60.0593L293.043 60.3286C291.292 63.7847 296.544 62.9319 296.633 64.9518C296.723 67.1511 287.836 70.0238 289.676 75.4997C291.472 80.9757 302.513 81.4694 305.79 80.6615C309.067 79.8536 312.164 77.8786 313.69 74.8713C314.183 73.8839 314.542 72.8066 314.498 71.6845C314.318 70.6522 313.869 69.53 313.016 68.8119Z" fill="#130F40"/>
<g  class="up">
<path opacity="0.090909" d="M285.592 315.005L318.852 298.353C323.744 295.884 327.739 289.915 327.739 285.022V251.762C327.739 246.87 323.744 244.85 318.852 247.319L285.592 263.971C280.699 266.44 276.705 272.41 276.705 277.302V310.562C276.705 315.499 280.654 317.474 285.592 315.005Z" fill="#A7B1F2"/>
<path opacity="0.1818" d="M285.592 313.39L318.852 296.737C323.744 294.269 327.739 288.299 327.739 283.407V250.147C327.739 245.254 323.744 243.234 318.852 245.703L285.592 262.356C280.699 264.824 276.705 270.794 276.705 275.686V308.946C276.705 313.839 280.654 315.858 285.592 313.39Z" fill="#A7B1F2"/>
<path opacity="0.2727" d="M285.592 311.775L318.852 295.122C323.744 292.654 327.739 286.684 327.739 281.791V248.532C327.739 243.639 323.744 241.619 318.852 244.088L285.592 260.74C280.699 263.209 276.705 269.179 276.705 274.071V307.331C276.705 312.223 280.654 314.243 285.592 311.775Z" fill="#A7B1F2"/>
<path opacity="0.3636" d="M285.592 310.158L318.852 293.506C323.744 291.037 327.739 285.068 327.739 280.175V246.915C327.739 242.023 323.744 240.003 318.852 242.472L285.592 259.124C280.699 261.593 276.705 267.562 276.705 272.455V305.715C276.705 310.607 280.654 312.627 285.592 310.158Z" fill="#A7B1F2"/>
<path opacity="0.4545" d="M285.592 308.543L318.852 291.89C323.744 289.422 327.739 283.452 327.739 278.559V245.3C327.739 240.407 323.744 238.387 318.852 240.856L285.592 257.508C280.699 259.977 276.705 265.947 276.705 270.839V304.099C276.705 308.991 280.654 311.011 285.592 308.543Z" fill="#A7B1F2"/>
<path opacity="0.5455" d="M285.592 306.926L318.852 290.274C323.744 287.805 327.739 281.836 327.739 276.943V243.683C327.739 238.791 323.744 236.771 318.852 239.24L285.592 255.892C280.699 258.361 276.705 264.33 276.705 269.223V302.483C276.705 307.375 280.654 309.395 285.592 306.926Z" fill="#A7B1F2"/>
<path opacity="0.6364" d="M285.592 305.311L318.852 288.659C323.744 286.19 327.739 280.22 327.739 275.328V242.068C327.739 237.176 323.744 235.156 318.852 237.625L285.592 254.277C280.699 256.746 276.705 262.715 276.705 267.608V300.868C276.705 305.76 280.654 307.735 285.592 305.311Z" fill="#A7B1F2"/>
<path opacity="0.7273" d="M285.592 303.694L318.852 287.042C323.744 284.573 327.739 278.604 327.739 273.711V240.451C327.739 235.559 323.744 233.539 318.852 236.008L285.592 252.66C280.699 255.129 276.705 261.099 276.705 265.991V299.251C276.705 304.143 280.654 306.118 285.592 303.694Z" fill="#A7B1F2"/>
<path opacity="0.8182" d="M285.592 302.079L318.852 285.426C323.744 282.958 327.739 276.988 327.739 272.096V238.836C327.739 233.943 323.744 231.923 318.852 234.392L285.592 251.044C280.699 253.513 276.705 259.483 276.705 264.375V297.635C276.705 302.528 280.654 304.503 285.592 302.079Z" fill="#A7B1F2"/>
<path opacity="0.9091" d="M285.592 300.463L318.852 283.811C323.744 281.342 327.739 275.372 327.739 270.48V237.22C327.739 232.328 323.744 230.308 318.852 232.776L285.592 249.429C280.699 251.897 276.705 257.867 276.705 262.76V296.019C276.705 300.912 280.654 302.887 285.592 300.463Z" fill="#A7B1F2"/>
<path d="M285.592 298.802L318.852 282.15C323.745 279.681 327.739 273.711 327.739 268.819V235.559C327.739 230.666 323.745 228.647 318.852 231.115L285.592 247.768C280.7 250.236 276.705 256.206 276.705 261.098V294.358C276.705 299.296 280.655 301.271 285.592 298.802Z" fill="#A7B1F2"/>
<path d="M285.547 247.768L318.807 231.116C321.275 229.859 323.564 229.769 325.18 230.622L335.055 235.559C335.19 235.604 335.324 235.694 335.459 235.784H335.504C336.985 236.637 337.883 238.297 337.883 240.631V273.891C337.883 278.784 333.888 284.798 328.996 287.222L295.736 303.874C293.267 305.131 291.023 305.221 289.407 304.368L279.532 299.431C279.398 299.386 279.263 299.296 279.128 299.251C277.647 298.398 276.704 296.738 276.704 294.404V261.144C276.66 256.206 280.654 250.237 285.547 247.768Z" fill="url(#paint42_linear_3370_56284)"/>
<path d="M295.691 303.92L328.951 287.267C333.843 284.799 337.838 278.829 337.838 273.936V240.632C337.838 235.739 333.843 233.719 328.951 236.188L295.691 252.84C290.799 255.309 286.804 261.279 286.804 266.171V299.431C286.804 304.368 290.754 306.343 295.691 303.92Z" fill="url(#paint43_linear_3370_56284)"/>
<path d="M322.832 278.294C330.307 268.72 331.646 257.273 325.824 252.727C320.001 248.181 309.221 252.257 301.746 261.831C294.271 271.405 292.932 282.852 298.754 287.398C304.577 291.944 315.357 287.868 322.832 278.294Z" fill="#8CD9FF"/>
<path d="M312.299 270.03L304.04 259.123C306.554 256.475 309.426 254.32 312.299 252.884C312.613 252.704 312.972 252.57 313.286 252.435L312.299 270.03Z" fill="#005ABE"/>
<path d="M312.299 270.03L312.613 250.685C317.64 248.261 322.488 247.902 325.989 249.697C329.535 251.537 331.51 255.353 331.51 260.425L312.299 270.03Z" fill="#017AFF"/>
</g>
<g class="up">
<path d="M442.689 188.622V159.895C442.689 159.626 442.913 159.312 443.317 159.132L451.217 155.182C452.07 154.733 453.506 154.733 454.359 155.182L462.259 159.132C462.708 159.357 462.887 159.626 462.887 159.895V188.622H442.689Z" fill="url(#paint44_linear_3370_56284)"/>
<path d="M471.505 137.992L455.885 130.182C454.18 129.329 451.397 129.329 449.691 130.182L434.071 137.992C433.218 138.44 432.77 138.979 432.77 139.518V159.312C432.77 159.851 433.218 160.434 434.071 160.838L449.691 168.648C451.397 169.501 454.18 169.501 455.885 168.648L471.505 160.838C472.358 160.389 472.807 159.851 472.807 159.312V139.518C472.807 138.979 472.358 138.396 471.505 137.992Z" fill="url(#paint45_linear_3370_56284)"/>
<path d="M471.505 141.089L455.885 148.899C454.18 149.751 451.397 149.751 449.691 148.899L434.071 141.089C432.366 140.236 432.366 138.844 434.071 137.992L449.691 130.182C451.397 129.329 454.18 129.329 455.885 130.182L471.505 137.992C473.211 138.844 473.211 140.236 471.505 141.089Z" fill="url(#paint46_linear_3370_56284)"/>
<path d="M452.833 145.532C451.307 145.532 449.781 145.217 448.614 144.634L429.358 134.984C427.563 134.086 427.293 132.919 427.293 132.29C427.293 131.662 427.563 130.495 429.358 129.597L448.614 119.947C450.993 118.78 454.673 118.78 457.052 119.947L476.308 129.597C478.103 130.495 478.373 131.662 478.373 132.29C478.373 132.919 478.103 134.086 476.308 134.984L457.052 144.634C455.84 145.262 454.359 145.532 452.833 145.532ZM452.833 120.89C451.576 120.89 450.364 121.114 449.422 121.563L430.166 131.213C429.493 131.527 429.089 131.976 429.089 132.335C429.089 132.694 429.493 133.098 430.166 133.457L449.422 143.108C451.262 144.05 454.404 144.05 456.244 143.108L475.5 133.457C476.173 133.143 476.577 132.694 476.577 132.335C476.577 131.976 476.173 131.572 475.5 131.213L456.244 121.563C455.302 121.114 454.09 120.89 452.833 120.89Z" fill="#8CD9FF"/>
<path d="M444.888 160.883L438.29 157.561C437.662 157.247 437.168 156.484 437.168 155.856V149.302C437.168 148.674 437.662 148.45 438.29 148.719L444.888 152.04C445.517 152.355 446.01 153.118 446.01 153.746V160.344C446.01 160.973 445.517 161.197 444.888 160.883Z" fill="#A7B1F2"/>
<path d="M460.778 160.883L467.376 157.561C468.004 157.247 468.498 156.484 468.498 155.856V149.302C468.498 148.674 468.004 148.45 467.376 148.719L460.778 152.04C460.149 152.355 459.656 153.118 459.656 153.746V160.344C459.656 160.973 460.149 161.197 460.778 160.883Z" fill="#A7B1F2"/>
<path d="M444.889 152.04L438.29 148.719C437.976 148.539 437.662 148.539 437.483 148.674L410.596 162.139C410.372 162.229 410.282 162.453 410.282 162.768V169.366C410.282 169.994 410.776 170.757 411.404 171.071L418.002 174.393C418.317 174.572 418.631 174.572 418.81 174.438L445.741 160.972C445.966 160.882 446.056 160.658 446.056 160.344V153.746C446.011 153.117 445.517 152.354 444.889 152.04Z" fill="url(#paint47_linear_3370_56284)"/>
<path d="M460.778 152.04L467.376 148.719C467.69 148.539 468.004 148.539 468.184 148.674L495.07 162.139C495.294 162.229 495.384 162.453 495.384 162.768V169.366C495.384 169.994 494.89 170.757 494.262 171.071L487.664 174.393C487.35 174.572 487.036 174.572 486.856 174.438L459.925 160.972C459.701 160.882 459.611 160.658 459.611 160.344V153.746C459.656 153.117 460.149 152.354 460.778 152.04Z" fill="url(#paint48_linear_3370_56284)"/>
</g>
<g class="down">
<path d="M93.8198 83.3639V54.6375C93.8198 54.3681 94.0443 54.0539 94.4482 53.8744L102.348 49.9245C103.201 49.4757 104.637 49.4757 105.49 49.9245L113.39 53.8744C113.839 54.0988 114.018 54.3681 114.018 54.6375V83.3639H93.8198Z" fill="url(#paint49_linear_3370_56284)"/>
<path d="M103.964 70.617C102.438 70.617 100.912 70.3028 99.7447 69.7193L80.489 60.069C78.6936 59.1713 78.4243 58.0043 78.4243 57.3759C78.4243 56.7475 78.6936 55.5805 80.489 54.6828L99.7447 45.0325C102.124 43.8655 105.804 43.8655 108.183 45.0325L127.439 54.6828C129.234 55.5805 129.503 56.7475 129.503 57.3759C129.503 58.0043 129.234 59.1713 127.439 60.069L108.138 69.7193C106.971 70.3476 105.445 70.617 103.964 70.617ZM103.964 45.9751C102.707 45.9751 101.495 46.1995 100.553 46.6483L81.2969 56.2986C80.6237 56.6128 80.2197 57.0617 80.2197 57.4208C80.2197 57.7798 80.6237 58.1838 81.2969 58.5429L100.553 68.1932C102.393 69.1358 105.535 69.1358 107.375 68.1932L126.631 58.5429C127.304 58.2287 127.708 57.7798 127.708 57.4208C127.708 57.0617 127.304 56.6577 126.631 56.2986L107.375 46.6483C106.433 46.1995 105.176 45.9751 103.964 45.9751Z" fill="#8CD9FF"/>
<path d="M122.636 32.7343L107.016 24.9243C105.311 24.0715 102.528 24.0715 100.822 24.9243L85.202 32.7343C84.3492 33.1831 83.9004 33.7217 83.9004 34.2604V54.0547C83.9004 54.5933 84.3492 55.1768 85.202 55.5808L100.822 63.3908C102.528 64.2436 105.311 64.2436 107.016 63.3908L122.636 55.5808C123.489 55.1319 123.938 54.5933 123.938 54.0547V34.2604C123.938 33.7217 123.489 33.1382 122.636 32.7343Z" fill="url(#paint50_linear_3370_56284)"/>
<path d="M122.636 35.8313L107.016 43.6413C105.311 44.4942 102.528 44.4942 100.822 43.6413L85.2021 35.8313C83.4964 34.9785 83.4964 33.5871 85.2021 32.7343L100.822 24.9243C102.528 24.0715 105.311 24.0715 107.016 24.9243L122.636 32.7343C124.342 33.5871 124.342 34.9785 122.636 35.8313Z" fill="url(#paint51_linear_3370_56284)"/>
<path d="M113.435 35.0684L105.535 39.0183C104.682 39.4672 103.246 39.4672 102.393 39.0183L94.4931 35.0684C93.6403 34.6196 93.6403 33.9463 94.4931 33.4975L102.393 29.5476C103.246 29.0987 104.682 29.0987 105.535 29.5476L113.435 33.4975C114.287 33.9014 114.287 34.6196 113.435 35.0684Z" fill="#D3DAF3"/>
<path d="M93.8198 5.53418V34.2606C93.8198 34.5299 94.0443 34.8441 94.4482 35.0236L102.348 38.9735C103.201 39.4224 104.637 39.4224 105.49 38.9735L113.39 35.0236C113.839 34.7992 114.018 34.5299 114.018 34.2606V5.53418H93.8198Z" fill="url(#paint52_linear_3370_56284)"/>
</g>
<g  class="down">
<path d="M341.967 497.103V468.377C341.967 468.107 342.192 467.793 342.596 467.614L350.495 463.664C351.348 463.215 352.785 463.215 353.637 463.664L361.537 467.614C361.986 467.838 362.166 468.107 362.166 468.377V497.103H341.967Z" fill="url(#paint53_linear_3370_56284)"/>
<path d="M352.111 484.402C350.585 484.402 349.059 484.087 347.892 483.504L328.636 473.854C326.841 472.956 326.572 471.789 326.572 471.161C326.572 470.532 326.841 469.365 328.636 468.467L347.892 458.817C350.271 457.65 353.952 457.65 356.331 458.817L375.586 468.467C377.382 469.365 377.651 470.532 377.651 471.161C377.651 471.789 377.382 472.956 375.586 473.854L356.331 483.504C355.119 484.087 353.637 484.402 352.111 484.402ZM352.111 459.715C350.855 459.715 349.643 459.939 348.7 460.388L329.444 470.038C328.771 470.353 328.367 470.801 328.367 471.161C328.367 471.52 328.771 471.924 329.444 472.283L348.7 481.933C350.54 482.876 353.682 482.876 355.523 481.933L374.778 472.283C375.452 471.968 375.856 471.52 375.856 471.161C375.856 470.801 375.452 470.397 374.778 470.038L355.523 460.388C354.58 459.939 353.323 459.715 352.111 459.715Z" fill="#8CD9FF"/>
<path d="M370.784 446.474L355.164 438.664C353.458 437.811 350.675 437.811 348.969 438.664L333.349 446.474C332.497 446.922 332.048 447.461 332.048 448V467.794C332.048 468.333 332.497 468.916 333.349 469.32L348.969 477.13C350.675 477.983 353.458 477.983 355.164 477.13L370.784 469.32C371.636 468.871 372.085 468.333 372.085 467.794V448C372.085 447.461 371.636 446.922 370.784 446.474Z" fill="url(#paint54_linear_3370_56284)"/>
<path d="M370.784 449.571L355.164 457.381C353.458 458.233 350.675 458.233 348.97 457.381L333.35 449.571C331.644 448.718 331.644 447.326 333.35 446.474L348.97 438.664C350.675 437.811 353.458 437.811 355.164 438.664L370.784 446.474C372.489 447.326 372.489 448.718 370.784 449.571Z" fill="url(#paint55_linear_3370_56284)"/>
<path d="M361.582 448.807L353.682 452.757C352.829 453.206 351.393 453.206 350.54 452.757L342.641 448.807C341.788 448.358 341.788 447.685 342.641 447.236L350.54 443.286C351.393 442.837 352.829 442.837 353.682 443.286L361.582 447.236C362.435 447.685 362.435 448.358 361.582 448.807Z" fill="#D3DAF3"/>
<path d="M341.967 419.273V447.999C341.967 448.269 342.192 448.583 342.596 448.762L350.495 452.712C351.348 453.161 352.785 453.161 353.637 452.712L361.537 448.762C361.986 448.538 362.166 448.269 362.166 447.999V419.273H341.967Z" fill="url(#paint56_linear_3370_56284)"/>
</g>
<defs>
<linearGradient id="paint0_linear_3370_56284" x1="237.683" y1="225.11" x2="258.015" y2="188.43" gradientUnits="userSpaceOnUse">
<stop stop-color="#F2F3FF"/>
<stop offset="0.5173" stop-color="#D3D7F2"/>
<stop offset="1" stop-color="#D4D7F2"/>
</linearGradient>
<linearGradient id="paint1_linear_3370_56284" x1="217.479" y1="224.452" x2="217.479" y2="202.379" gradientUnits="userSpaceOnUse">
<stop stop-color="#D3DAF3"/>
<stop offset="1" stop-color="#B4C1F3"/>
</linearGradient>
<linearGradient id="paint2_linear_3370_56284" x1="157.99" y1="271.756" x2="196.826" y2="201.695" gradientUnits="userSpaceOnUse">
<stop stop-color="#D3D7F2"/>
<stop offset="0.3838" stop-color="#BBC9F8"/>
<stop offset="0.7897" stop-color="#D3D7F2"/>
<stop offset="1" stop-color="#F2F3FF"/>
</linearGradient>
<linearGradient id="paint3_linear_3370_56284" x1="145.853" y1="271.074" x2="145.853" y2="258.836" gradientUnits="userSpaceOnUse">
<stop stop-color="#D3DAF3"/>
<stop offset="1" stop-color="#B4C1F3"/>
</linearGradient>
<linearGradient id="paint4_linear_3370_56284" x1="115.414" y1="296.471" x2="136.058" y2="259.228" gradientUnits="userSpaceOnUse">
<stop stop-color="#D3D7F2"/>
<stop offset="0.3838" stop-color="#BBC9F8"/>
<stop offset="0.7897" stop-color="#D3D7F2"/>
<stop offset="1" stop-color="#F2F3FF"/>
</linearGradient>
<linearGradient id="paint5_linear_3370_56284" x1="79.4828" y1="336.103" x2="104.902" y2="290.245" gradientUnits="userSpaceOnUse">
<stop stop-color="white"/>
<stop offset="0.7897" stop-color="#D3D7F2"/>
<stop offset="1" stop-color="#F2F3FF"/>
</linearGradient>
<linearGradient id="paint6_linear_3370_56284" x1="204.182" y1="196.19" x2="219.75" y2="168.103" gradientUnits="userSpaceOnUse">
<stop stop-color="#4C58DA"/>
<stop offset="0.3155" stop-color="#343FB0"/>
<stop offset="1" stop-color="#D5D8F3"/>
</linearGradient>
<linearGradient id="paint7_linear_3370_56284" x1="192.968" y1="175.446" x2="178.964" y2="182.519" gradientUnits="userSpaceOnUse">
<stop stop-color="#4C58D9"/>
<stop offset="1" stop-color="#4D59DB"/>
</linearGradient>
<linearGradient id="paint8_linear_3370_56284" x1="91.1112" y1="281.007" x2="158.027" y2="160.287" gradientUnits="userSpaceOnUse">
<stop stop-color="#24488F"/>
<stop offset="0.3155" stop-color="#4979D6"/>
<stop offset="0.6278" stop-color="#1F4388"/>
<stop offset="1" stop-color="#4B7AD6"/>
</linearGradient>
<linearGradient id="paint9_linear_3370_56284" x1="75.4149" y1="263.084" x2="60.9528" y2="270.388" gradientUnits="userSpaceOnUse">
<stop stop-color="#204286"/>
<stop offset="1" stop-color="#4B7AD7"/>
</linearGradient>
<linearGradient id="paint10_linear_3370_56284" x1="18.3756" y1="320.675" x2="52.8084" y2="258.556" gradientUnits="userSpaceOnUse">
<stop stop-color="white"/>
<stop offset="0.366" stop-color="#3A65B9"/>
<stop offset="0.6278" stop-color="#24488F"/>
<stop offset="1" stop-color="#4B7AD8"/>
</linearGradient>
<linearGradient id="paint11_linear_3370_56284" x1="366.58" y1="134.519" x2="395.49" y2="82.3643" gradientUnits="userSpaceOnUse">
<stop offset="0.144" stop-color="#D3D7F2"/>
<stop offset="1" stop-color="white"/>
</linearGradient>
<linearGradient id="paint12_linear_3370_56284" x1="359.929" y1="135.067" x2="359.929" y2="132.555" gradientUnits="userSpaceOnUse">
<stop stop-color="#D3DAF3"/>
<stop offset="1" stop-color="#B4C1F3"/>
</linearGradient>
<linearGradient id="paint13_linear_3370_56284" x1="329.49" y1="162.155" x2="350.134" y2="124.911" gradientUnits="userSpaceOnUse">
<stop stop-color="#D3D7F2"/>
<stop offset="0.3838" stop-color="#BBC9F8"/>
<stop offset="0.7897" stop-color="#D3D7F2"/>
<stop offset="1" stop-color="#F2F3FF"/>
</linearGradient>
<linearGradient id="paint14_linear_3370_56284" x1="293.559" y1="201.787" x2="318.979" y2="155.929" gradientUnits="userSpaceOnUse">
<stop stop-color="#D3D7F2"/>
<stop offset="1" stop-color="#F2F3FF"/>
</linearGradient>
<linearGradient id="paint15_linear_3370_56284" x1="335.226" y1="116.119" x2="358.377" y2="74.353" gradientUnits="userSpaceOnUse">
<stop stop-color="#4C7CD8"/>
<stop offset="1" stop-color="white"/>
</linearGradient>
<linearGradient id="paint16_linear_3370_56284" x1="330.355" y1="104.197" x2="315.893" y2="111.501" gradientUnits="userSpaceOnUse">
<stop stop-color="#184EB8"/>
<stop offset="1" stop-color="#4785FF"/>
</linearGradient>
<linearGradient id="paint17_linear_3370_56284" x1="273.315" y1="161.787" x2="307.748" y2="99.6684" gradientUnits="userSpaceOnUse">
<stop stop-color="white"/>
<stop offset="0.366" stop-color="#355EAE"/>
<stop offset="0.6278" stop-color="#20448A"/>
<stop offset="1" stop-color="#4B7BD8"/>
</linearGradient>
<linearGradient id="paint18_linear_3370_56284" x1="93.0654" y1="150.035" x2="343.068" y2="150.035" gradientUnits="userSpaceOnUse">
<stop stop-color="#E8EAFB"/>
<stop offset="1" stop-color="white"/>
</linearGradient>
<linearGradient id="paint19_linear_3370_56284" x1="95.5644" y1="332.206" x2="345.137" y2="332.206" gradientUnits="userSpaceOnUse">
<stop stop-color="#E1E3F8"/>
<stop offset="0.5" stop-color="#D3D7F2"/>
<stop offset="1" stop-color="#F2F3FF"/>
</linearGradient>
<linearGradient id="paint20_linear_3370_56284" x1="93.0654" y1="150.035" x2="343.068" y2="150.035" gradientUnits="userSpaceOnUse">
<stop stop-color="#E8EAFB"/>
<stop offset="1" stop-color="white"/>
</linearGradient>
<linearGradient id="paint21_linear_3370_56284" x1="169.719" y1="106.05" x2="239.229" y2="73.5691" gradientUnits="userSpaceOnUse">
<stop stop-color="#01328F"/>
<stop offset="1" stop-color="#4A78D0"/>
</linearGradient>
<linearGradient id="paint22_linear_3370_56284" x1="201.713" y1="72.1364" x2="268.487" y2="105.861" gradientUnits="userSpaceOnUse">
<stop stop-color="#154BB3"/>
<stop offset="1" stop-color="#4472CB"/>
</linearGradient>
<linearGradient id="paint23_linear_3370_56284" x1="247.369" y1="13.9908" x2="193.791" y2="13.9908" gradientUnits="userSpaceOnUse">
<stop stop-color="#00308C"/>
<stop offset="1" stop-color="#82ADFF"/>
</linearGradient>
<linearGradient id="paint24_linear_3370_56284" x1="152.513" y1="88.9989" x2="208.421" y2="88.9989" gradientUnits="userSpaceOnUse">
<stop stop-color="#E8EAFB"/>
<stop offset="1" stop-color="white"/>
</linearGradient>
<linearGradient id="paint25_linear_3370_56284" x1="152.513" y1="66.798" x2="208.421" y2="66.798" gradientUnits="userSpaceOnUse">
<stop stop-color="#E8EAFB"/>
<stop offset="1" stop-color="white"/>
</linearGradient>
<linearGradient id="paint26_linear_3370_56284" x1="317.415" y1="435.706" x2="566.988" y2="435.706" gradientUnits="userSpaceOnUse">
<stop stop-color="#E1E3F8"/>
<stop offset="0.5" stop-color="#D3D7F2"/>
<stop offset="1" stop-color="#F2F3FF"/>
</linearGradient>
<linearGradient id="paint27_linear_3370_56284" x1="314.916" y1="357.037" x2="564.918" y2="357.037" gradientUnits="userSpaceOnUse">
<stop stop-color="#E8EAFB"/>
<stop offset="1" stop-color="white"/>
</linearGradient>
<linearGradient id="paint28_linear_3370_56284" x1="514.655" y1="346.302" x2="372.761" y2="346.302" gradientUnits="userSpaceOnUse">
<stop stop-color="#017AFF"/>
<stop offset="1" stop-color="#52A5FF"/>
</linearGradient>
<linearGradient id="paint29_linear_3370_56284" x1="370.811" y1="337.774" x2="516.986" y2="337.774" gradientUnits="userSpaceOnUse">
<stop stop-color="#D3D7F2"/>
<stop offset="0.3771" stop-color="#BBC9F8"/>
<stop offset="0.4912" stop-color="#D3D7F2"/>
<stop offset="1" stop-color="#F2F3FF"/>
</linearGradient>
<linearGradient id="paint30_linear_3370_56284" x1="399.206" y1="348.912" x2="434.97" y2="277.4" gradientUnits="userSpaceOnUse">
<stop stop-color="#E8EAFB"/>
<stop offset="1" stop-color="white"/>
</linearGradient>
<linearGradient id="paint31_linear_3370_56284" x1="514.655" y1="311.238" x2="372.761" y2="311.238" gradientUnits="userSpaceOnUse">
<stop stop-color="#017AFF"/>
<stop offset="1" stop-color="#7CBAFF"/>
</linearGradient>
<linearGradient id="paint32_linear_3370_56284" x1="370.811" y1="302.709" x2="516.986" y2="302.709" gradientUnits="userSpaceOnUse">
<stop stop-color="#D3D7F2"/>
<stop offset="0.3771" stop-color="#BBC9F8"/>
<stop offset="0.4912" stop-color="#D3D7F2"/>
<stop offset="1" stop-color="#F2F3FF"/>
</linearGradient>
<linearGradient id="paint33_linear_3370_56284" x1="399.206" y1="313.848" x2="434.97" y2="242.336" gradientUnits="userSpaceOnUse">
<stop stop-color="#E8EAFB"/>
<stop offset="1" stop-color="white"/>
</linearGradient>
<linearGradient id="paint34_linear_3370_56284" x1="514.655" y1="276.174" x2="372.761" y2="276.174" gradientUnits="userSpaceOnUse">
<stop stop-color="#017AFF"/>
<stop offset="1" stop-color="#76B7FF"/>
</linearGradient>
<linearGradient id="paint35_linear_3370_56284" x1="370.811" y1="267.646" x2="516.986" y2="267.646" gradientUnits="userSpaceOnUse">
<stop stop-color="#D3D7F2"/>
<stop offset="0.3771" stop-color="#BBC9F8"/>
<stop offset="0.4912" stop-color="#D3D7F2"/>
<stop offset="1" stop-color="#F2F3FF"/>
</linearGradient>
<linearGradient id="paint36_linear_3370_56284" x1="399.206" y1="278.785" x2="434.97" y2="207.273" gradientUnits="userSpaceOnUse">
<stop stop-color="#E8EAFB"/>
<stop offset="1" stop-color="white"/>
</linearGradient>
<linearGradient id="paint37_linear_3370_56284" x1="26.0182" y1="469.654" x2="275.591" y2="469.654" gradientUnits="userSpaceOnUse">
<stop stop-color="#E1E3F8"/>
<stop offset="0.5" stop-color="#D3D7F2"/>
<stop offset="1" stop-color="#F2F3FF"/>
</linearGradient>
<linearGradient id="paint38_linear_3370_56284" x1="23.5191" y1="424.932" x2="273.521" y2="424.932" gradientUnits="userSpaceOnUse">
<stop stop-color="#E8EAFB"/>
<stop offset="1" stop-color="white"/>
</linearGradient>
<linearGradient id="paint39_linear_3370_56284" x1="75.871" y1="406.615" x2="224.199" y2="406.615" gradientUnits="userSpaceOnUse">
<stop stop-color="#D3D7F2"/>
<stop offset="0.45" stop-color="#BBC9F8"/>
<stop offset="0.55" stop-color="#D3D7F2"/>
<stop offset="1" stop-color="#F2F3FF"/>
</linearGradient>
<linearGradient id="paint40_linear_3370_56284" x1="109.17" y1="415.093" x2="141.872" y2="349.703" gradientUnits="userSpaceOnUse">
<stop stop-color="#E8EAFB"/>
<stop offset="1" stop-color="white"/>
</linearGradient>
<linearGradient id="paint41_linear_3370_56284" x1="75.9851" y1="403.816" x2="224.314" y2="403.816" gradientUnits="userSpaceOnUse">
<stop stop-color="#D3D7F2"/>
<stop offset="0.45" stop-color="#BBC9F8"/>
<stop offset="0.55" stop-color="#D3D7F2"/>
<stop offset="1" stop-color="#F2F3FF"/>
</linearGradient>
<linearGradient id="paint42_linear_3370_56284" x1="289.162" y1="303.352" x2="325.61" y2="231.154" gradientUnits="userSpaceOnUse">
<stop stop-color="#E1E3F8"/>
<stop offset="0.4179" stop-color="#B4C1F3"/>
<stop offset="0.5363" stop-color="#D3D7F2"/>
<stop offset="1" stop-color="#D3D7F2"/>
</linearGradient>
<linearGradient id="paint43_linear_3370_56284" x1="337.847" y1="270.049" x2="286.784" y2="270.049" gradientUnits="userSpaceOnUse">
<stop stop-color="#E8EAFB"/>
<stop offset="1" stop-color="white"/>
</linearGradient>
<linearGradient id="paint44_linear_3370_56284" x1="452.823" y1="188.866" x2="452.823" y2="154.919" gradientUnits="userSpaceOnUse">
<stop stop-color="white" stop-opacity="0"/>
<stop offset="1" stop-color="#22D2FD"/>
</linearGradient>
<linearGradient id="paint45_linear_3370_56284" x1="433.051" y1="149.429" x2="472.597" y2="149.429" gradientUnits="userSpaceOnUse">
<stop stop-color="#D3D7F2"/>
<stop offset="0.45" stop-color="#BBC9F8"/>
<stop offset="0.55" stop-color="#D3D7F2"/>
<stop offset="1" stop-color="#F2F3FF"/>
</linearGradient>
<linearGradient id="paint46_linear_3370_56284" x1="441.929" y1="144.971" x2="450.647" y2="127.537" gradientUnits="userSpaceOnUse">
<stop stop-color="#E8EAFB"/>
<stop offset="1" stop-color="white"/>
</linearGradient>
<linearGradient id="paint47_linear_3370_56284" x1="415.926" y1="167.823" x2="442.413" y2="154.183" gradientUnits="userSpaceOnUse">
<stop stop-color="white" stop-opacity="0"/>
<stop offset="1" stop-color="#22D2FD"/>
</linearGradient>
<linearGradient id="paint48_linear_3370_56284" x1="489.721" y1="167.823" x2="463.233" y2="154.183" gradientUnits="userSpaceOnUse">
<stop stop-color="white" stop-opacity="0"/>
<stop offset="1" stop-color="#22D2FD"/>
</linearGradient>
<linearGradient id="paint49_linear_3370_56284" x1="103.943" y1="83.612" x2="103.943" y2="49.6648" gradientUnits="userSpaceOnUse">
<stop stop-color="white" stop-opacity="0"/>
<stop offset="1" stop-color="#22D2FD"/>
</linearGradient>
<linearGradient id="paint50_linear_3370_56284" x1="84.1699" y1="44.1756" x2="123.716" y2="44.1756" gradientUnits="userSpaceOnUse">
<stop stop-color="#D3D7F2"/>
<stop offset="0.45" stop-color="#BBC9F8"/>
<stop offset="0.55" stop-color="#D3D7F2"/>
<stop offset="1" stop-color="#F2F3FF"/>
</linearGradient>
<linearGradient id="paint51_linear_3370_56284" x1="93.0478" y1="39.717" x2="101.766" y2="22.2832" gradientUnits="userSpaceOnUse">
<stop stop-color="#E8EAFB"/>
<stop offset="1" stop-color="white"/>
</linearGradient>
<linearGradient id="paint52_linear_3370_56284" x1="103.943" y1="5.28148" x2="103.943" y2="39.2287" gradientUnits="userSpaceOnUse">
<stop stop-color="white" stop-opacity="0"/>
<stop offset="1" stop-color="#22D2FD"/>
</linearGradient>
<linearGradient id="paint53_linear_3370_56284" x1="352.099" y1="497.37" x2="352.099" y2="463.423" gradientUnits="userSpaceOnUse">
<stop stop-color="white" stop-opacity="0"/>
<stop offset="1" stop-color="#22D2FD"/>
</linearGradient>
<linearGradient id="paint54_linear_3370_56284" x1="332.326" y1="457.934" x2="371.873" y2="457.934" gradientUnits="userSpaceOnUse">
<stop stop-color="#D3D7F2"/>
<stop offset="0.45" stop-color="#BBC9F8"/>
<stop offset="0.55" stop-color="#D3D7F2"/>
<stop offset="1" stop-color="#F2F3FF"/>
</linearGradient>
<linearGradient id="paint55_linear_3370_56284" x1="341.204" y1="453.475" x2="349.923" y2="436.041" gradientUnits="userSpaceOnUse">
<stop stop-color="#E8EAFB"/>
<stop offset="1" stop-color="white"/>
</linearGradient>
<linearGradient id="paint56_linear_3370_56284" x1="352.099" y1="419.039" x2="352.099" y2="452.986" gradientUnits="userSpaceOnUse">
<stop stop-color="white" stop-opacity="0"/>
<stop offset="1" stop-color="#22D2FD"/>
</linearGradient>
</defs>
</svg>
