<svg width="596" height="501" viewBox="0 0 596 501" fill="none" xmlns="http://www.w3.org/2000/svg">
<path d="M195.76 124.678H444.454V150.737L320.107 212.825L195.76 150.737V124.678Z" fill="url(#paint0_linear_2422_67939)"/>
<path d="M437.488 133.073L336.92 183.357C327.632 188.001 312.538 188.001 303.249 183.357L202.726 133.073C193.438 128.429 193.438 120.882 202.726 116.238L303.294 65.9539C312.582 61.3096 327.676 61.3096 336.965 65.9539L437.488 116.238C446.821 120.882 446.821 128.429 437.488 133.073Z" fill="url(#paint1_linear_2422_67939)"/>
<path d="M195.76 124.678H444.454V148.234L320.107 212.825L195.76 148.234V124.678Z" fill="url(#paint2_linear_2422_67939)"/>
<path d="M437.488 150.936L336.92 201.22C327.632 205.864 312.538 205.864 303.249 201.22L202.726 150.936C198.082 148.614 195.76 145.577 195.76 142.541V147.006C195.76 150.043 198.082 153.08 202.726 155.402L303.294 205.685C312.582 210.33 327.676 210.33 336.965 205.685L437.488 155.402C442.132 153.08 444.454 150.043 444.454 147.006V142.541C444.454 145.577 442.132 148.614 437.488 150.936Z" fill="#02CEFF"/>
<path d="M437.488 155.402L336.92 205.686C327.632 210.33 312.538 210.33 303.249 205.686L202.726 155.402C198.082 153.08 195.76 150.043 195.76 147.006V151.472C195.76 154.509 198.082 157.545 202.726 159.868L303.294 210.151C312.582 214.796 327.676 214.796 336.965 210.151L437.488 159.868C442.132 157.545 444.454 154.509 444.454 151.472V147.006C444.454 150.043 442.132 153.08 437.488 155.402Z" fill="white"/>
<path d="M437.488 133.073L336.92 183.357C327.632 188.001 312.538 188.001 303.249 183.357L202.726 133.073C193.438 128.429 193.438 120.882 202.726 116.238L303.294 65.9539C312.582 61.3096 327.676 61.3096 336.965 65.9539L437.488 116.238C446.821 120.882 446.821 128.429 437.488 133.073Z" fill="url(#paint3_linear_2422_67939)"/>
<path d="M320.13 181.749C314.459 181.749 308.787 180.678 304.5 178.534L213.936 133.252C209.47 131.019 207.059 127.982 207.059 124.678C207.059 121.373 209.515 118.337 213.936 116.104L304.455 70.8215C313.074 66.4898 327.141 66.4898 335.76 70.8215L426.28 116.104C430.745 118.337 433.157 121.373 433.157 124.678C433.157 127.982 430.701 131.019 426.28 133.252L335.76 178.489C331.428 180.633 325.757 181.749 320.13 181.749ZM320.13 69.7944C314.816 69.7944 309.502 70.8215 305.483 72.8311L214.963 118.069C211.301 119.9 209.291 122.222 209.291 124.633C209.291 127.045 211.301 129.367 214.963 131.198L305.483 176.48C313.565 180.499 326.695 180.499 334.778 176.48L425.297 131.198C428.959 129.367 430.969 127.045 430.969 124.633C430.969 122.222 428.959 119.9 425.297 118.069L334.778 72.8311C330.714 70.7769 325.4 69.7944 320.13 69.7944Z" fill="#D3DAF3"/>
<path d="M346.342 339.522H595.081V369.112L470.711 432.636L346.342 369.112V339.522Z" fill="url(#paint4_linear_2422_67939)"/>
<path d="M588.115 370.291L487.547 420.575C478.258 425.219 463.164 425.219 453.876 420.575L353.308 370.291C348.664 367.969 346.342 364.932 346.342 361.896V366.361C346.342 369.398 348.664 372.435 353.308 374.757L453.876 425.04C463.164 429.685 478.258 429.685 487.547 425.04L588.115 374.757C592.759 372.435 595.081 369.398 595.081 366.361V361.896C595.081 364.932 592.759 367.969 588.115 370.291Z" fill="#02CEFF"/>
<path d="M588.115 374.757L487.547 425.041C478.258 429.685 463.164 429.685 453.876 425.041L353.308 374.757C348.664 372.435 346.342 369.398 346.342 366.361V370.827C346.342 373.864 348.664 376.9 353.308 379.223L453.876 429.506C463.164 434.151 478.258 434.151 487.547 429.506L588.115 379.223C592.759 376.9 595.081 373.864 595.081 370.827V366.361C595.081 369.398 592.759 372.435 588.115 374.757Z" fill="white"/>
<path d="M588.115 347.963L487.547 398.246C478.258 402.891 463.164 402.891 453.876 398.246L353.308 347.963C344.02 343.318 344.02 335.771 353.308 331.127L453.876 280.843C463.164 276.199 478.258 276.199 487.547 280.843L588.115 331.127C597.403 335.771 597.403 343.318 588.115 347.963Z" fill="url(#paint5_linear_2422_67939)"/>
<path d="M470.712 396.594C465.041 396.594 459.369 395.522 455.082 393.379L364.563 348.097C360.097 345.864 357.686 342.827 357.686 339.523C357.686 336.218 360.142 333.181 364.563 330.948L455.082 285.666C463.701 281.335 477.768 281.335 486.387 285.666L576.862 330.948C581.328 333.181 583.739 336.218 583.739 339.523C583.739 342.827 581.283 345.864 576.862 348.097L486.342 393.379C482.055 395.522 476.384 396.594 470.712 396.594ZM470.712 284.684C465.398 284.684 460.084 285.711 456.065 287.721L365.545 332.958C361.883 334.789 359.874 337.111 359.874 339.523C359.874 341.934 361.883 344.256 365.545 346.087L456.065 391.369C464.148 395.388 477.277 395.388 485.36 391.369L575.88 346.132C579.541 344.301 581.551 341.979 581.551 339.567C581.551 337.156 579.541 334.834 575.88 333.003L485.36 287.721C481.341 285.666 476.027 284.684 470.712 284.684Z" fill="#D3DAF3"/>
<path d="M261.583 446.744L161.016 497.072C151.727 501.716 136.633 501.716 127.345 497.072L26.777 446.744C17.4884 442.099 17.4884 434.552 26.777 429.908L127.345 379.624C136.633 374.98 151.727 374.98 161.016 379.624L261.583 429.908C270.872 434.597 270.872 442.099 261.583 446.744Z" fill="url(#paint6_linear_2422_67939)"/>
<g opacity="0.3">
<path opacity="0.047619" d="M389.197 346.721L456.405 380.347C459.308 381.821 464.042 381.821 466.944 380.347L483.467 372.086C486.37 370.612 486.37 368.29 483.467 366.816L416.259 333.19C413.356 331.716 408.622 331.716 405.72 333.19L389.197 341.451C386.294 342.925 386.294 345.292 389.197 346.721Z" fill="#A7B1F2"/>
<path opacity="0.095238" d="M391.474 345.604L458.683 379.231C461.585 380.704 466.319 380.704 469.222 379.231L485.745 370.969C488.647 369.496 488.647 367.173 485.745 365.7L418.536 332.073C415.633 330.599 410.9 330.599 407.997 332.073L391.474 340.335C388.571 341.808 388.571 344.175 391.474 345.604Z" fill="#A7B1F2"/>
<path opacity="0.1429" d="M393.751 344.488L460.96 378.115C463.862 379.588 468.596 379.588 471.499 378.115L488.022 369.853C490.925 368.379 490.925 366.057 488.022 364.584L420.768 330.957C417.866 329.483 413.132 329.483 410.229 330.957L393.706 339.218C390.848 340.692 390.848 343.059 393.751 344.488Z" fill="#A7B1F2"/>
<path opacity="0.1905" d="M396.029 343.371L463.238 376.998C466.14 378.472 470.874 378.472 473.777 376.998L490.3 368.736C493.202 367.263 493.202 364.94 490.3 363.467L423.091 329.84C420.188 328.366 415.455 328.366 412.552 329.84L396.029 338.102C393.082 339.575 393.082 341.897 396.029 343.371Z" fill="#A7B1F2"/>
<path opacity="0.2381" d="M398.263 342.255L465.472 375.882C468.374 377.355 473.108 377.355 476.011 375.882L492.534 367.62C495.437 366.146 495.437 363.824 492.534 362.351L425.325 328.724C422.422 327.25 417.689 327.25 414.786 328.724L398.263 336.985C395.36 338.459 395.36 340.781 398.263 342.255Z" fill="#A7B1F2"/>
<path opacity="0.2857" d="M400.54 341.138L467.749 374.765C470.652 376.239 475.385 376.239 478.288 374.765L494.811 366.503C497.714 365.03 497.714 362.708 494.811 361.234L427.602 327.607C424.7 326.134 419.966 326.134 417.063 327.607L400.54 335.869C397.638 337.342 397.638 339.665 400.54 341.138Z" fill="#A7B1F2"/>
<path opacity="0.3333" d="M402.817 340.022L470.026 373.649C472.929 375.122 477.662 375.122 480.565 373.649L497.088 365.387C499.991 363.914 499.991 361.591 497.088 360.118L429.835 326.491C426.932 325.017 422.199 325.017 419.296 326.491L402.773 334.753C399.915 336.226 399.915 338.548 402.817 340.022Z" fill="#A7B1F2"/>
<path opacity="0.381" d="M405.095 338.906L472.304 372.533C475.206 374.006 479.94 374.006 482.843 372.533L499.366 364.271C502.269 362.797 502.269 360.475 499.366 359.001L432.112 325.375C429.21 323.901 424.476 323.901 421.573 325.375L405.05 333.636C402.148 335.11 402.148 337.432 405.095 338.906Z" fill="#A7B1F2"/>
<path opacity="0.4286" d="M407.327 337.789L474.536 371.416C477.439 372.89 482.172 372.89 485.075 371.416L501.598 363.154C504.501 361.681 504.501 359.358 501.598 357.885L434.39 324.258C431.487 322.784 426.753 322.784 423.85 324.258L407.327 332.52C404.425 333.993 404.425 336.315 407.327 337.789Z" fill="#A7B1F2"/>
<path opacity="0.4762" d="M409.605 336.673L476.813 370.3C479.716 371.773 484.45 371.773 487.353 370.3L503.876 362.038C506.778 360.564 506.778 358.242 503.876 356.769L436.667 323.142C433.764 321.668 429.031 321.668 426.128 323.142L409.605 331.403C406.702 332.877 406.702 335.199 409.605 336.673Z" fill="#A7B1F2"/>
<path opacity="0.5238" d="M411.882 335.556L479.091 369.183C481.993 370.657 486.727 370.657 489.63 369.183L506.153 360.921C509.055 359.448 509.055 357.126 506.153 355.652L438.899 322.025C435.997 320.552 431.263 320.552 428.36 322.025L411.837 330.287C408.979 331.76 408.979 334.083 411.882 335.556Z" fill="#A7B1F2"/>
<path opacity="0.5714" d="M414.159 334.44L481.368 368.067C484.271 369.54 489.005 369.54 491.907 368.067L508.43 359.805C511.333 358.331 511.333 356.009 508.43 354.536L441.222 320.909C438.319 319.435 433.585 319.435 430.683 320.909L414.159 329.171C411.257 330.644 411.257 332.966 414.159 334.44Z" fill="#A7B1F2"/>
<path opacity="0.619" d="M416.392 333.323L483.601 366.95C486.503 368.424 491.237 368.424 494.14 366.95L510.663 358.688C513.565 357.215 513.565 354.893 510.663 353.419L443.454 319.792C440.551 318.319 435.818 318.319 432.915 319.792L416.392 328.054C413.489 329.527 413.489 331.85 416.392 333.323Z" fill="#A7B1F2"/>
<path opacity="0.6667" d="M418.671 332.207L485.88 365.834C488.783 367.307 493.516 367.307 496.419 365.834L512.942 357.572C515.845 356.099 515.845 353.776 512.942 352.303L445.733 318.676C442.831 317.202 438.097 317.202 435.194 318.676L418.671 326.938C415.768 328.411 415.768 330.733 418.671 332.207Z" fill="#A7B1F2"/>
<path opacity="0.7143" d="M420.948 331.09L488.157 364.717C491.06 366.191 495.793 366.191 498.696 364.717L515.219 356.456C518.122 354.982 518.122 352.66 515.219 351.186L447.966 317.559C445.063 316.086 440.329 316.086 437.427 317.559L420.904 325.821C418.046 327.25 418.046 329.617 420.948 331.09Z" fill="#A7B1F2"/>
<path opacity="0.7619" d="M423.226 329.974L490.435 363.601C493.337 365.075 498.071 365.075 500.974 363.601L517.497 355.339C520.399 353.866 520.399 351.544 517.497 350.07L450.288 316.443C447.385 314.969 442.652 314.969 439.749 316.443L423.226 324.705C420.323 326.134 420.323 328.501 423.226 329.974Z" fill="#A7B1F2"/>
<path opacity="0.8095" d="M425.458 328.858L492.667 362.485C495.57 363.958 500.303 363.958 503.206 362.485L519.729 354.223C522.632 352.749 522.632 350.427 519.729 348.954L452.52 315.327C449.618 313.853 444.884 313.853 441.981 315.327L425.458 323.588C422.556 325.018 422.556 327.384 425.458 328.858Z" fill="#A7B1F2"/>
<path opacity="0.8571" d="M427.736 327.741L494.944 361.368C497.847 362.842 502.581 362.842 505.483 361.368L522.006 353.106C524.909 351.633 524.909 349.311 522.006 347.837L454.798 314.21C451.895 312.737 447.161 312.737 444.259 314.21L427.736 322.472C424.833 323.901 424.833 326.268 427.736 327.741Z" fill="#A7B1F2"/>
<path opacity="0.9048" d="M430.013 326.625L497.221 360.252C500.124 361.725 504.858 361.725 507.76 360.252L524.284 351.99C527.186 350.517 527.186 348.194 524.284 346.721L457.03 313.094C454.127 311.62 449.394 311.62 446.491 313.094L429.968 321.356C427.11 322.785 427.11 325.151 430.013 326.625Z" fill="#A7B1F2"/>
<path opacity="0.9524" d="M432.29 325.508L499.499 359.135C502.402 360.609 507.135 360.609 510.038 359.135L526.561 350.874C529.464 349.4 529.464 347.078 526.561 345.604L459.352 311.977C456.45 310.504 451.716 310.504 448.813 311.977L432.29 320.239C429.388 321.668 429.388 324.035 432.29 325.508Z" fill="#A7B1F2"/>
<path d="M434.568 324.392L501.776 358.019C504.679 359.493 509.413 359.493 512.315 358.019L528.839 349.757C531.741 348.284 531.741 345.961 528.839 344.488L461.585 310.861C458.682 309.387 453.949 309.387 451.046 310.861L434.523 319.123C431.62 320.552 431.62 322.918 434.568 324.392Z" fill="#A7B1F2"/>
</g>
<path d="M520.398 198.191L463.684 169.834C461.496 168.762 459.575 168.762 458.28 169.611L450.064 173.719C449.84 173.809 449.572 173.943 449.394 174.077H449.349C448.277 174.791 447.607 176.086 447.607 177.872V306.529C447.607 310.459 450.823 315.282 454.753 317.247L511.467 345.604C513.61 346.676 515.531 346.676 516.826 345.872L525.221 341.674C525.355 341.63 525.489 341.54 525.623 341.451L525.712 341.406C526.829 340.692 527.499 339.397 527.499 337.566V208.909C527.543 204.979 524.328 200.156 520.398 198.191Z" fill="url(#paint7_linear_2422_67939)"/>
<path d="M454.753 317.202L511.467 345.559C515.397 347.524 518.612 345.917 518.612 341.987V213.375C518.612 209.445 515.397 204.622 511.467 202.657L454.753 174.3C450.823 172.335 447.607 173.943 447.607 177.873V306.529C447.607 310.459 450.778 315.237 454.753 317.202Z" fill="url(#paint8_linear_2422_67939)"/>
<path d="M502.537 207.123L445.823 178.766C443.634 177.694 441.714 177.694 440.419 178.543L432.202 182.651C431.979 182.74 431.711 182.874 431.532 183.008H431.488C430.416 183.723 429.746 185.018 429.746 186.804V315.461C429.746 319.391 432.961 324.214 436.891 326.178L493.606 354.536C495.749 355.607 497.669 355.607 498.964 354.804L507.36 350.606C507.494 350.561 507.628 350.472 507.762 350.383L507.851 350.338C508.968 349.623 509.637 348.328 509.637 346.497V217.841C509.682 213.911 506.467 209.088 502.537 207.123Z" fill="url(#paint9_linear_2422_67939)"/>
<path d="M436.891 326.134L493.606 354.491C497.535 356.456 500.751 354.848 500.751 350.919V222.307C500.751 218.377 497.535 213.554 493.606 211.589L436.891 183.232C432.961 181.267 429.746 182.874 429.746 186.804V315.461C429.746 319.391 432.917 324.169 436.891 326.134Z" fill="url(#paint10_linear_2422_67939)"/>
<path d="M419.028 335.065L475.742 363.422C479.672 365.387 482.887 363.78 482.887 359.85V231.238C482.887 227.308 479.672 222.485 475.742 220.52L419.028 192.163C415.098 190.198 411.883 191.806 411.883 195.735V324.392C411.883 328.322 415.053 333.1 419.028 335.065Z" fill="url(#paint11_linear_2422_67939)"/>
<path opacity="0.047619" d="M466.622 311.703C473.931 305.997 472.265 291.647 462.9 279.653C453.536 267.658 440.019 262.562 432.709 268.268C425.4 273.975 427.066 288.325 436.431 300.319C445.796 312.313 459.313 317.41 466.622 311.703Z" fill="#A7B1F2"/>
<path opacity="0.095238" d="M466.616 310.679C473.925 304.972 472.259 290.622 462.894 278.628C453.53 266.634 440.013 261.537 432.703 267.243C425.394 272.95 427.06 287.3 436.425 299.294C445.79 311.288 459.307 316.385 466.616 310.679Z" fill="#A7B1F2"/>
<path opacity="0.1429" d="M466.608 309.654C473.918 303.947 472.251 289.598 462.887 277.603C453.522 265.609 440.005 260.512 432.696 266.219C425.386 271.926 427.053 286.276 436.417 298.27C445.782 310.264 459.299 315.361 466.608 309.654Z" fill="#A7B1F2"/>
<path opacity="0.1905" d="M466.602 308.628C473.912 302.921 472.245 288.572 462.881 276.578C453.516 264.583 439.999 259.486 432.69 265.193C425.38 270.9 427.047 285.25 436.411 297.244C445.776 309.238 459.293 314.335 466.602 308.628Z" fill="#A7B1F2"/>
<path opacity="0.2381" d="M466.596 307.604C473.906 301.897 472.24 287.547 462.875 275.553C453.51 263.559 439.993 258.462 432.684 264.169C425.375 269.876 427.041 284.225 436.406 296.22C445.77 308.214 459.287 313.311 466.596 307.604Z" fill="#A7B1F2"/>
<path opacity="0.2857" d="M466.618 306.614C473.927 300.907 472.261 286.558 462.896 274.563C453.532 262.569 440.015 257.472 432.705 263.179C425.396 268.886 427.062 283.235 436.427 295.23C445.792 307.224 459.309 312.321 466.618 306.614Z" fill="#A7B1F2"/>
<path opacity="0.3333" d="M466.612 305.589C473.921 299.882 472.255 285.533 462.89 273.538C453.526 261.544 440.009 256.447 432.7 262.154C425.39 267.861 427.056 282.211 436.421 294.205C445.786 306.199 459.303 311.296 466.612 305.589Z" fill="#A7B1F2"/>
<path opacity="0.381" d="M466.604 304.564C473.914 298.857 472.247 284.508 462.883 272.514C453.518 260.519 440.001 255.422 432.692 261.129C425.382 266.836 427.049 281.186 436.413 293.18C445.778 305.174 459.295 310.271 466.604 304.564Z" fill="#A7B1F2"/>
<path opacity="0.4286" d="M466.599 303.54C473.908 297.833 472.242 283.483 462.877 271.489C453.512 259.495 439.995 254.398 432.686 260.105C425.377 265.812 427.043 280.161 436.408 292.156C445.772 304.15 459.289 309.247 466.599 303.54Z" fill="#A7B1F2"/>
<path opacity="0.4762" d="M466.62 302.55C473.929 296.843 472.263 282.493 462.898 270.499C453.534 258.505 440.017 253.408 432.707 259.115C425.398 264.821 427.064 279.171 436.429 291.165C445.794 303.16 459.311 308.257 466.62 302.55Z" fill="#A7B1F2"/>
<path opacity="0.5238" d="M466.614 301.525C473.923 295.818 472.257 281.468 462.892 269.474C453.528 257.48 440.011 252.383 432.701 258.09C425.392 263.797 427.058 278.146 436.423 290.14C445.788 302.135 459.305 307.232 466.614 301.525Z" fill="#A7B1F2"/>
<path opacity="0.5714" d="M466.608 300.5C473.918 294.793 472.251 280.443 462.887 268.449C453.522 256.455 440.005 251.358 432.696 257.065C425.386 262.772 427.053 277.121 436.417 289.116C445.782 301.11 459.299 306.207 466.608 300.5Z" fill="#A7B1F2"/>
<path opacity="0.619" d="M466.6 299.475C473.91 293.768 472.243 279.418 462.879 267.424C453.514 255.43 439.997 250.333 432.688 256.04C425.378 261.747 427.045 276.096 436.409 288.091C445.774 300.085 459.291 305.182 466.6 299.475Z" fill="#A7B1F2"/>
<path opacity="0.6667" d="M466.622 298.485C473.931 292.778 472.265 278.429 462.9 266.434C453.536 254.44 440.019 249.343 432.709 255.05C425.4 260.757 427.066 275.107 436.431 287.101C445.796 299.095 459.313 304.192 466.622 298.485Z" fill="#A7B1F2"/>
<path opacity="0.7143" d="M466.616 297.461C473.925 291.754 472.259 277.404 462.894 265.41C453.53 253.416 440.013 248.319 432.703 254.026C425.394 259.733 427.06 274.082 436.425 286.076C445.79 298.071 459.307 303.168 466.616 297.461Z" fill="#A7B1F2"/>
<path opacity="0.7619" d="M466.61 296.435C473.919 290.729 472.253 276.379 462.889 264.385C453.524 252.39 440.007 247.293 432.698 253C425.388 258.707 427.054 273.057 436.419 285.051C445.784 297.045 459.301 302.142 466.61 296.435Z" fill="#A7B1F2"/>
<path opacity="0.8095" d="M466.602 295.411C473.912 289.704 472.245 275.354 462.881 263.36C453.516 251.365 439.999 246.269 432.69 251.975C425.38 257.682 427.047 272.032 436.411 284.026C445.776 296.02 459.293 301.117 466.602 295.411Z" fill="#A7B1F2"/>
<path opacity="0.8571" d="M466.597 294.386C473.906 288.679 472.24 274.329 462.875 262.335C453.51 250.341 439.993 245.244 432.684 250.951C425.375 256.657 427.041 271.007 436.406 283.001C445.77 294.996 459.287 300.092 466.597 294.386Z" fill="#A7B1F2"/>
<path opacity="0.9048" d="M466.618 293.396C473.927 287.689 472.261 273.339 462.896 261.345C453.532 249.351 440.015 244.254 432.705 249.961C425.396 255.668 427.062 270.017 436.427 282.011C445.792 294.006 459.309 299.103 466.618 293.396Z" fill="#A7B1F2"/>
<path opacity="0.9524" d="M466.612 292.371C473.921 286.665 472.255 272.315 462.891 260.321C453.526 248.326 440.009 243.229 432.7 248.936C425.39 254.643 427.056 268.993 436.421 280.987C445.786 292.981 459.303 298.078 466.612 292.371Z" fill="#A7B1F2"/>
<path d="M466.604 291.346C473.914 285.639 472.247 271.29 462.883 259.295C453.518 247.301 440.001 242.204 432.692 247.911C425.382 253.618 427.049 267.967 436.413 279.962C445.778 291.956 459.295 297.053 466.604 291.346Z" fill="#A7B1F2"/>
<path d="M466.364 274.778C465.962 272.456 465.158 270.089 463.997 267.811L467.079 265.221L463.953 260.532L459.844 261.559C458.147 259.55 456.182 257.764 454.083 256.29L453.369 250.842L448.948 248.654L441.892 252.182L438.32 247.716L435.194 249.279L428.897 252.449L425.771 254.012L428.45 258.88L421.395 262.408V266.829L426.485 270.089C426.887 272.411 427.691 274.778 428.852 277.055L425.771 279.646L428.897 284.335L433.005 283.307C434.702 285.317 436.667 287.103 438.766 288.577L439.481 294.025L443.902 296.213L450.957 292.685L454.53 297.151L457.656 295.588L467.079 290.899L464.399 286.032L471.455 282.504V278.083L466.364 274.778Z" fill="url(#paint12_linear_2422_67939)"/>
<path d="M426.485 270.134C426.887 272.456 427.691 274.823 428.852 277.1L425.771 279.69L428.897 284.379L433.005 283.352C434.702 285.362 436.667 287.148 438.766 288.622L439.481 294.07L443.902 296.258L444.616 291.524C446.715 292.194 448.68 292.328 450.377 292.016L454.485 297.151L457.611 295.588L454.53 289.917C455.691 288.8 456.495 287.237 456.897 285.362L461.988 287.193V282.772L456.897 279.512C456.495 277.189 455.691 274.823 454.53 272.545L457.611 269.955L454.485 265.266L450.377 266.293C448.68 264.284 446.715 262.497 444.616 261.024L443.902 255.575L439.481 253.387L438.766 258.121C436.667 257.451 434.702 257.317 433.005 257.63L428.897 252.494L425.771 254.057L428.852 259.729C427.691 260.845 426.887 262.408 426.485 264.284L421.395 262.453V266.874L426.485 270.134ZM436.042 271.965C436.042 268.839 438.587 267.588 441.713 269.151C444.839 270.714 447.385 274.51 447.385 277.636C447.385 280.762 444.839 282.012 441.713 280.449C438.587 278.886 436.042 275.091 436.042 271.965Z" fill="url(#paint13_linear_2422_67939)"/>
<path d="M484.675 216.054L427.96 187.697C425.772 186.625 423.852 186.625 422.557 187.474L414.34 191.582C415.59 191.136 417.243 191.27 419.029 192.163L475.743 220.52C479.673 222.485 482.888 227.308 482.888 231.238V359.894C482.888 361.725 482.218 363.02 481.102 363.735L489.498 359.537C489.631 359.492 489.765 359.403 489.899 359.314L489.989 359.269C491.105 358.555 491.775 357.259 491.775 355.428V226.772C491.82 222.842 488.604 218.019 484.675 216.054Z" fill="url(#paint14_linear_2422_67939)"/>
<g opacity="0.4">
<path opacity="0.047619" d="M125.022 486.31C176.988 486.31 219.114 465.257 219.114 439.286C219.114 413.315 176.988 392.262 125.022 392.262C73.0562 392.262 30.9297 413.315 30.9297 439.286C30.9297 465.257 73.0562 486.31 125.022 486.31Z" fill="#BEDDFF"/>
<path opacity="0.095238" d="M126.005 485.819C177.946 485.819 220.052 464.765 220.052 438.795C220.052 412.824 177.946 391.771 126.005 391.771C74.0636 391.771 31.957 412.824 31.957 438.795C31.957 464.765 74.0636 485.819 126.005 485.819Z" fill="#BEDDFF"/>
<path opacity="0.1429" d="M126.987 485.327C178.952 485.327 221.079 464.274 221.079 438.304C221.079 412.333 178.952 391.28 126.987 391.28C75.0211 391.28 32.8945 412.333 32.8945 438.304C32.8945 464.274 75.0211 485.327 126.987 485.327Z" fill="#BEDDFF"/>
<path opacity="0.1905" d="M127.969 484.836C179.91 484.836 222.017 463.783 222.017 437.812C222.017 411.842 179.91 390.789 127.969 390.789C76.0284 390.789 33.9219 411.842 33.9219 437.812C33.9219 463.783 76.0284 484.836 127.969 484.836Z" fill="#BEDDFF"/>
<path opacity="0.2381" d="M128.952 484.345C180.893 484.345 222.999 463.292 222.999 437.321C222.999 411.351 180.893 390.297 128.952 390.297C77.0108 390.297 34.9043 411.351 34.9043 437.321C34.9043 463.292 77.0108 484.345 128.952 484.345Z" fill="#BEDDFF"/>
<path opacity="0.2857" d="M129.934 483.854C181.875 483.854 223.982 462.8 223.982 436.83C223.982 410.859 181.875 389.806 129.934 389.806C77.9932 389.806 35.8867 410.859 35.8867 436.83C35.8867 462.8 77.9932 483.854 129.934 483.854Z" fill="#BEDDFF"/>
<path opacity="0.3333" d="M130.872 483.363C182.813 483.363 224.919 462.309 224.919 436.339C224.919 410.368 182.813 389.315 130.872 389.315C78.9307 389.315 36.8242 410.368 36.8242 436.339C36.8242 462.309 78.9307 483.363 130.872 483.363Z" fill="#BEDDFF"/>
<path opacity="0.381" d="M131.854 482.871C183.82 482.871 225.946 461.818 225.946 435.848C225.946 409.877 183.82 388.824 131.854 388.824C79.8882 388.824 37.7617 409.877 37.7617 435.848C37.7617 461.818 79.8882 482.871 131.854 482.871Z" fill="#BEDDFF"/>
<path opacity="0.4286" d="M132.837 482.425C184.778 482.425 226.884 461.371 226.884 435.401C226.884 409.43 184.778 388.377 132.837 388.377C80.8956 388.377 38.7891 409.43 38.7891 435.401C38.7891 461.371 80.8956 482.425 132.837 482.425Z" fill="#BEDDFF"/>
<path opacity="0.4762" d="M133.819 481.933C185.784 481.933 227.911 460.88 227.911 434.91C227.911 408.939 185.784 387.886 133.819 387.886C81.8531 387.886 39.7266 408.939 39.7266 434.91C39.7266 460.88 81.8531 481.933 133.819 481.933Z" fill="#BEDDFF"/>
<path opacity="0.5238" d="M134.801 481.442C186.743 481.442 228.849 460.389 228.849 434.418C228.849 408.448 186.743 387.395 134.801 387.395C82.8604 387.395 40.7539 408.448 40.7539 434.418C40.7539 460.389 82.8604 481.442 134.801 481.442Z" fill="#BEDDFF"/>
<path opacity="0.5714" d="M135.739 480.951C187.68 480.951 229.787 459.898 229.787 433.927C229.787 407.957 187.68 386.903 135.739 386.903C83.7979 386.903 41.6914 407.957 41.6914 433.927C41.6914 459.898 83.7979 480.951 135.739 480.951Z" fill="#BEDDFF"/>
<path opacity="0.619" d="M136.721 480.46C188.662 480.46 230.769 459.406 230.769 433.436C230.769 407.465 188.662 386.412 136.721 386.412C84.7804 386.412 42.6738 407.465 42.6738 433.436C42.6738 459.406 84.7804 480.46 136.721 480.46Z" fill="#BEDDFF"/>
<path opacity="0.6667" d="M137.704 479.968C189.645 479.968 231.751 458.915 231.751 432.945C231.751 406.974 189.645 385.921 137.704 385.921C85.7628 385.921 43.6562 406.974 43.6562 432.945C43.6562 458.915 85.7628 479.968 137.704 479.968Z" fill="#BEDDFF"/>
<path opacity="0.7143" d="M138.688 479.477C190.629 479.477 232.736 458.424 232.736 432.453C232.736 406.483 190.629 385.43 138.688 385.43C86.7472 385.43 44.6406 406.483 44.6406 432.453C44.6406 458.424 86.7472 479.477 138.688 479.477Z" fill="#BEDDFF"/>
<path opacity="0.7619" d="M139.671 478.986C191.612 478.986 233.718 457.933 233.718 431.962C233.718 405.992 191.612 384.938 139.671 384.938C87.7296 384.938 45.623 405.992 45.623 431.962C45.623 457.933 87.7296 478.986 139.671 478.986Z" fill="#BEDDFF"/>
<path opacity="0.8095" d="M140.653 478.495C192.594 478.495 234.701 457.442 234.701 431.471C234.701 405.501 192.594 384.447 140.653 384.447C88.712 384.447 46.6055 405.501 46.6055 431.471C46.6055 457.442 88.712 478.495 140.653 478.495Z" fill="#BEDDFF"/>
<path opacity="0.8571" d="M141.59 478.004C193.556 478.004 235.682 456.95 235.682 430.98C235.682 405.009 193.556 383.956 141.59 383.956C89.6246 383.956 47.498 405.009 47.498 430.98C47.498 456.95 89.6246 478.004 141.59 478.004Z" fill="#BEDDFF"/>
<path opacity="0.9048" d="M142.573 477.512C194.538 477.512 236.665 456.459 236.665 430.489C236.665 404.518 194.538 383.465 142.573 383.465C90.607 383.465 48.4805 404.518 48.4805 430.489C48.4805 456.459 90.607 477.512 142.573 477.512Z" fill="#BEDDFF"/>
<path opacity="0.9524" d="M143.555 477.066C195.496 477.066 237.603 456.013 237.603 430.042C237.603 404.072 195.496 383.019 143.555 383.019C91.6143 383.019 49.5078 404.072 49.5078 430.042C49.5078 456.013 91.6143 477.066 143.555 477.066Z" fill="#BEDDFF"/>
<path d="M144.538 476.574C196.479 476.574 238.585 455.521 238.585 429.551C238.585 403.58 196.479 382.527 144.538 382.527C92.5968 382.527 50.4902 403.58 50.4902 429.551C50.4902 455.521 92.5968 476.574 144.538 476.574Z" fill="#BEDDFF"/>
</g>
<path d="M50.4453 414.636V430.042C50.4453 442.1 59.6446 454.112 77.9987 463.312C114.751 481.666 174.279 481.666 211.032 463.312C229.386 454.112 238.585 442.1 238.585 430.042V414.636H50.4453Z" fill="url(#paint15_linear_2422_67939)"/>
<path d="M144.538 461.659C196.479 461.659 238.585 440.606 238.585 414.636C238.585 388.665 196.479 367.612 144.538 367.612C92.5968 367.612 50.4902 388.665 50.4902 414.636C50.4902 440.606 92.5968 461.659 144.538 461.659Z" fill="url(#paint16_linear_2422_67939)"/>
<g opacity="0.3">
<path opacity="0.047619" d="M135.07 450.094C175.296 450.094 207.905 433.779 207.905 413.653C207.905 393.528 175.296 377.213 135.07 377.213C94.8439 377.213 62.2344 393.528 62.2344 413.653C62.2344 433.779 94.8439 450.094 135.07 450.094Z" fill="#A7B1F2"/>
<path opacity="0.095238" d="M135.56 449.87C175.786 449.87 208.396 433.555 208.396 413.43C208.396 393.305 175.786 376.99 135.56 376.99C95.3342 376.99 62.7246 393.305 62.7246 413.43C62.7246 433.555 95.3342 449.87 135.56 449.87Z" fill="#A7B1F2"/>
<path opacity="0.1429" d="M136.007 449.647C176.233 449.647 208.843 433.332 208.843 413.207C208.843 393.081 176.233 376.767 136.007 376.767C95.7814 376.767 63.1719 393.081 63.1719 413.207C63.1719 433.332 95.7814 449.647 136.007 449.647Z" fill="#A7B1F2"/>
<path opacity="0.1905" d="M136.498 449.379C176.724 449.379 209.333 433.064 209.333 412.939C209.333 392.813 176.724 376.499 136.498 376.499C96.2717 376.499 63.6621 392.813 63.6621 412.939C63.6621 433.064 96.2717 449.379 136.498 449.379Z" fill="#A7B1F2"/>
<path opacity="0.2381" d="M136.945 449.156C177.171 449.156 209.78 432.841 209.78 412.715C209.78 392.59 177.171 376.275 136.945 376.275C96.7189 376.275 64.1094 392.59 64.1094 412.715C64.1094 432.841 96.7189 449.156 136.945 449.156Z" fill="#A7B1F2"/>
<path opacity="0.2857" d="M137.435 448.932C177.661 448.932 210.271 432.618 210.271 412.492C210.271 392.367 177.661 376.052 137.435 376.052C97.2092 376.052 64.5996 392.367 64.5996 412.492C64.5996 432.618 97.2092 448.932 137.435 448.932Z" fill="#A7B1F2"/>
<path opacity="0.3333" d="M137.882 448.709C178.108 448.709 210.718 432.394 210.718 412.269C210.718 392.143 178.108 375.829 137.882 375.829C97.6564 375.829 65.0469 392.143 65.0469 412.269C65.0469 432.394 97.6564 448.709 137.882 448.709Z" fill="#A7B1F2"/>
<path opacity="0.381" d="M138.375 448.441C178.601 448.441 211.21 432.126 211.21 412.001C211.21 391.876 178.601 375.561 138.375 375.561C98.1486 375.561 65.5391 391.876 65.5391 412.001C65.5391 432.126 98.1486 448.441 138.375 448.441Z" fill="#A7B1F2"/>
<path opacity="0.4286" d="M138.82 448.218C179.046 448.218 211.655 431.903 211.655 411.778C211.655 391.653 179.046 375.338 138.82 375.338C98.5939 375.338 65.9844 391.653 65.9844 411.778C65.9844 431.903 98.5939 448.218 138.82 448.218Z" fill="#A7B1F2"/>
<path opacity="0.4762" d="M139.312 447.994C179.538 447.994 212.148 431.68 212.148 411.554C212.148 391.429 179.538 375.114 139.312 375.114C99.0861 375.114 66.4766 391.429 66.4766 411.554C66.4766 431.68 99.0861 447.994 139.312 447.994Z" fill="#A7B1F2"/>
<path opacity="0.5238" d="M139.757 447.771C179.983 447.771 212.593 431.456 212.593 411.331C212.593 391.206 179.983 374.891 139.757 374.891C99.5314 374.891 66.9219 391.206 66.9219 411.331C66.9219 431.456 99.5314 447.771 139.757 447.771Z" fill="#A7B1F2"/>
<path opacity="0.5714" d="M140.205 447.503C180.431 447.503 213.04 431.188 213.04 411.063C213.04 390.938 180.431 374.623 140.205 374.623C99.9787 374.623 67.3691 390.938 67.3691 411.063C67.3691 431.188 99.9787 447.503 140.205 447.503Z" fill="#A7B1F2"/>
<path opacity="0.619" d="M140.697 447.28C180.923 447.28 213.532 430.965 213.532 410.84C213.532 390.715 180.923 374.4 140.697 374.4C100.471 374.4 67.8613 390.715 67.8613 410.84C67.8613 430.965 100.471 447.28 140.697 447.28Z" fill="#A7B1F2"/>
<path opacity="0.6667" d="M141.142 447.057C181.368 447.057 213.978 430.742 213.978 410.617C213.978 390.492 181.368 374.177 141.142 374.177C100.916 374.177 68.3066 390.492 68.3066 410.617C68.3066 430.742 100.916 447.057 141.142 447.057Z" fill="#A7B1F2"/>
<path opacity="0.7143" d="M141.634 446.833C181.86 446.833 214.47 430.519 214.47 410.393C214.47 390.268 181.86 373.953 141.634 373.953C101.408 373.953 68.7988 390.268 68.7988 410.393C68.7988 430.519 101.408 446.833 141.634 446.833Z" fill="#A7B1F2"/>
<path opacity="0.7619" d="M142.08 446.61C182.306 446.61 214.915 430.295 214.915 410.17C214.915 390.045 182.306 373.73 142.08 373.73C101.854 373.73 69.2441 390.045 69.2441 410.17C69.2441 430.295 101.854 446.61 142.08 446.61Z" fill="#A7B1F2"/>
<path opacity="0.8095" d="M142.572 446.342C182.798 446.342 215.407 430.027 215.407 409.902C215.407 389.777 182.798 373.462 142.572 373.462C102.346 373.462 69.7363 389.777 69.7363 409.902C69.7363 430.027 102.346 446.342 142.572 446.342Z" fill="#A7B1F2"/>
<path opacity="0.8571" d="M143.019 446.119C183.245 446.119 215.855 429.804 215.855 409.679C215.855 389.554 183.245 373.239 143.019 373.239C102.793 373.239 70.1836 389.554 70.1836 409.679C70.1836 429.804 102.793 446.119 143.019 446.119Z" fill="#A7B1F2"/>
<path opacity="0.9048" d="M143.509 445.896C183.735 445.896 216.345 429.581 216.345 409.456C216.345 389.33 183.735 373.016 143.509 373.016C103.283 373.016 70.6738 389.33 70.6738 409.456C70.6738 429.581 103.283 445.896 143.509 445.896Z" fill="#A7B1F2"/>
<path opacity="0.9524" d="M143.957 445.672C184.183 445.672 216.792 429.357 216.792 409.232C216.792 389.107 184.183 372.792 143.957 372.792C103.731 372.792 71.1211 389.107 71.1211 409.232C71.1211 429.357 103.731 445.672 143.957 445.672Z" fill="#A7B1F2"/>
<path d="M144.447 445.405C184.673 445.405 217.282 429.09 217.282 408.965C217.282 388.839 184.673 372.524 144.447 372.524C104.221 372.524 71.6113 388.839 71.6113 408.965C71.6113 429.09 104.221 445.405 144.447 445.405Z" fill="#A7B1F2"/>
</g>
<path d="M144.537 429.953C184.714 429.953 217.283 413.658 217.283 393.558C217.283 373.457 184.714 357.162 144.537 357.162C104.361 357.162 71.791 373.457 71.791 393.558C71.791 413.658 104.361 429.953 144.537 429.953Z" fill="url(#paint17_linear_2422_67939)"/>
<path d="M195.982 419.28C167.58 433.481 121.494 433.481 93.0924 419.28C78.8915 412.18 71.791 402.846 71.791 393.558V409.322C71.791 418.655 78.8915 427.943 93.0924 435.044C121.494 449.245 167.58 449.245 195.982 435.044C210.183 427.943 217.283 418.61 217.283 409.322V393.558C217.283 402.846 210.183 412.18 195.982 419.28Z" fill="url(#paint18_linear_2422_67939)"/>
<path d="M144.538 422.674C176.674 422.674 202.726 409.638 202.726 393.557C202.726 377.477 176.674 364.441 144.538 364.441C112.401 364.441 86.3496 377.477 86.3496 393.557C86.3496 409.638 112.401 422.674 144.538 422.674Z" fill="url(#paint19_linear_2422_67939)"/>
<path d="M103.364 382.438C126.094 371.051 162.936 371.051 185.666 382.438C194.598 386.904 200.046 392.486 201.922 398.291C204.824 389.36 199.421 379.893 185.666 372.971C162.936 361.583 126.094 361.583 103.364 372.971C89.6093 379.848 84.1612 389.36 87.1085 398.291C89.0288 392.486 94.4323 386.904 103.364 382.438Z" fill="#B4C1F3"/>
<path opacity="0.032258" d="M231.307 124.812L318.567 168.442C327.587 172.952 342.235 172.952 351.255 168.442C360.276 163.931 360.276 156.607 351.255 152.097L263.996 108.467C254.975 103.957 240.328 103.957 231.307 108.467C222.241 112.978 222.241 120.301 231.307 124.812Z" fill="#BEDDFF"/>
<path opacity="0.064516" d="M232.959 123.964L320.219 167.593C329.24 172.104 343.887 172.104 352.908 167.593C361.928 163.083 361.928 155.759 352.908 151.249L265.648 107.619C256.627 103.109 241.98 103.109 232.959 107.619C223.894 112.129 223.894 119.453 232.959 123.964Z" fill="#BEDDFF"/>
<path opacity="0.096774" d="M234.611 123.16L321.871 166.789C330.892 171.3 345.539 171.3 354.56 166.789C363.581 162.279 363.581 154.955 354.56 150.445L267.3 106.77C258.279 102.26 243.632 102.26 234.611 106.77C225.591 111.325 225.591 118.649 234.611 123.16Z" fill="#BEDDFF"/>
<path opacity="0.129" d="M236.264 122.311L323.523 165.941C332.544 170.451 347.191 170.451 356.212 165.941C365.233 161.431 365.233 154.107 356.212 149.597L268.952 105.967C259.932 101.456 245.284 101.456 236.264 105.967C227.243 110.477 227.243 117.801 236.264 122.311Z" fill="#BEDDFF"/>
<path opacity="0.1613" d="M237.916 121.507L325.176 165.137C334.196 169.647 348.844 169.647 357.865 165.137C366.885 160.627 366.885 153.303 357.865 148.792L270.605 105.163C261.584 100.652 246.937 100.652 237.916 105.163C228.895 109.628 228.895 116.952 237.916 121.507Z" fill="#BEDDFF"/>
<path opacity="0.1935" d="M239.568 120.659L326.828 164.289C335.849 168.799 350.496 168.799 359.517 164.289C368.538 159.778 368.538 152.455 359.517 147.944L272.257 104.314C263.236 99.8041 248.589 99.8041 239.568 104.314C230.548 108.825 230.548 116.149 239.568 120.659Z" fill="#BEDDFF"/>
<path opacity="0.2258" d="M241.221 119.81L328.525 163.485C337.546 167.995 352.193 167.995 361.214 163.485C370.235 158.975 370.235 151.651 361.214 147.141L273.954 103.511C264.934 99.0003 250.286 99.0003 241.266 103.511C232.2 107.976 232.2 115.3 241.221 119.81Z" fill="#BEDDFF"/>
<path opacity="0.2581" d="M242.917 119.007L330.177 162.636C339.197 167.147 353.845 167.147 362.866 162.636C371.886 158.126 371.886 150.802 362.866 146.292L275.606 102.662C266.585 98.1517 251.938 98.1517 242.917 102.662C233.896 107.172 233.852 114.496 242.917 119.007Z" fill="#BEDDFF"/>
<path opacity="0.2903" d="M244.569 118.158L331.829 161.788C340.85 166.298 355.497 166.298 364.518 161.788C373.539 157.277 373.539 149.954 364.518 145.443L277.258 101.813C268.238 97.3031 253.59 97.3031 244.569 101.813C235.549 106.324 235.504 113.648 244.569 118.158Z" fill="#BEDDFF"/>
<path opacity="0.3226" d="M246.223 117.354L333.482 160.984C342.503 165.494 357.15 165.494 366.171 160.984C375.192 156.473 375.192 149.15 366.171 144.639L278.911 100.965C269.891 96.4544 255.243 96.4544 246.223 100.965C237.202 105.52 237.202 112.844 246.223 117.354Z" fill="#BEDDFF"/>
<path opacity="0.3548" d="M247.875 116.506L335.135 160.135C344.155 164.646 358.803 164.646 367.823 160.135C376.844 155.625 376.844 148.301 367.823 143.791L280.564 100.161C271.543 95.6507 256.896 95.6507 247.875 100.161C238.854 104.671 238.854 111.995 247.875 116.506Z" fill="#BEDDFF"/>
<path opacity="0.3871" d="M249.527 115.702L336.787 159.332C345.808 163.842 360.455 163.842 369.476 159.332C378.497 154.821 378.497 147.498 369.476 142.987L282.216 99.3574C273.195 94.847 258.548 94.847 249.527 99.3574C240.507 103.823 240.507 111.147 249.527 115.702Z" fill="#BEDDFF"/>
<path opacity="0.4194" d="M251.18 114.853L338.439 158.483C347.46 162.993 362.108 162.993 371.128 158.483C380.149 153.973 380.149 146.649 371.128 142.139L283.868 98.5087C274.848 93.9984 260.2 93.9984 251.18 98.5087C242.159 103.019 242.159 110.343 251.18 114.853Z" fill="#BEDDFF"/>
<path opacity="0.4516" d="M252.83 114.005L340.135 157.679C349.155 162.19 363.803 162.19 372.824 157.679C381.844 153.169 381.844 145.845 372.824 141.335L285.564 97.705C276.543 93.1947 261.896 93.1947 252.875 97.705C243.81 102.171 243.81 109.494 252.83 114.005Z" fill="#BEDDFF"/>
<path opacity="0.4839" d="M254.528 113.201L341.787 156.831C350.808 161.341 365.455 161.341 374.476 156.831C383.497 152.32 383.497 144.997 374.476 140.486L287.216 96.8564C278.196 92.346 263.548 92.346 254.528 96.8564C245.462 101.367 245.462 108.69 254.528 113.201Z" fill="#BEDDFF"/>
<path opacity="0.5161" d="M256.18 112.353L343.44 155.983C352.46 160.493 367.108 160.493 376.128 155.983C385.149 151.472 385.149 144.148 376.128 139.638L288.869 96.0083C279.848 91.4979 265.201 91.4979 256.18 96.0083C247.115 100.519 247.115 107.842 256.18 112.353Z" fill="#BEDDFF"/>
<path opacity="0.5484" d="M257.832 111.549L345.092 155.179C354.112 159.689 368.76 159.689 377.781 155.179C386.801 150.668 386.801 143.344 377.781 138.834L290.521 95.1596C281.5 90.6493 266.853 90.6493 257.832 95.1596C248.811 99.7146 248.811 107.038 257.832 111.549Z" fill="#BEDDFF"/>
<path opacity="0.5806" d="M259.484 110.7L346.744 154.33C355.765 158.841 370.412 158.841 379.433 154.33C388.454 149.82 388.454 142.496 379.433 137.986L292.173 94.3559C283.152 89.8456 268.505 89.8456 259.484 94.3559C250.464 98.8663 250.464 106.19 259.484 110.7Z" fill="#BEDDFF"/>
<path opacity="0.6129" d="M261.137 109.896L348.396 153.526C357.417 158.036 372.065 158.036 381.085 153.526C390.106 149.016 390.106 141.692 381.085 137.182L293.826 93.5517C284.805 89.0414 270.157 89.0414 261.137 93.5517C252.116 98.0174 252.116 105.341 261.137 109.896Z" fill="#BEDDFF"/>
<path opacity="0.6452" d="M262.789 109.048L350.049 152.678C359.069 157.188 373.717 157.188 382.738 152.678C391.758 148.168 391.758 140.844 382.738 136.333L295.478 92.7036C286.457 88.1932 271.81 88.1932 262.789 92.7036C253.768 97.2139 253.768 104.538 262.789 109.048Z" fill="#BEDDFF"/>
<path opacity="0.6774" d="M264.442 108.2L351.746 151.874C360.767 156.385 375.414 156.385 384.435 151.874C393.456 147.364 393.456 140.04 384.435 135.53L297.175 91.8999C288.154 87.3895 273.507 87.3895 264.486 91.8999C255.421 96.3656 255.421 103.689 264.442 108.2Z" fill="#BEDDFF"/>
<path opacity="0.7097" d="M266.139 107.396L353.399 151.026C362.419 155.536 377.067 155.536 386.087 151.026C395.108 146.515 395.108 139.191 386.087 134.681L298.828 91.0512C289.807 86.5409 275.16 86.5409 266.139 91.0512C257.074 95.5616 257.074 102.885 266.139 107.396Z" fill="#BEDDFF"/>
<path opacity="0.7419" d="M267.791 106.547L355.051 150.177C364.072 154.687 378.719 154.687 387.74 150.177C396.761 145.667 396.761 138.343 387.74 133.832L300.48 90.2026C291.459 85.6922 276.812 85.6922 267.791 90.2026C258.726 94.7129 258.726 102.037 267.791 106.547Z" fill="#BEDDFF"/>
<path opacity="0.7742" d="M269.443 105.744L356.703 149.373C365.724 153.884 380.371 153.884 389.392 149.373C398.413 144.863 398.413 137.539 389.392 133.029L302.132 89.3544C293.111 84.8441 278.464 84.8441 269.443 89.3544C260.423 93.9095 260.423 101.233 269.443 105.744Z" fill="#BEDDFF"/>
<path opacity="0.8065" d="M271.096 104.895L358.355 148.525C367.376 153.035 382.023 153.035 391.044 148.525C400.065 144.014 400.065 136.69 391.044 132.18L303.784 88.5502C294.764 84.0399 280.116 84.0399 271.096 88.5502C262.075 93.0606 262.075 100.384 271.096 104.895Z" fill="#BEDDFF"/>
<path opacity="0.8387" d="M272.748 104.091L360.008 147.721C369.028 152.231 383.676 152.231 392.697 147.721C401.717 143.21 401.717 135.887 392.697 131.376L305.437 87.7465C296.416 83.2362 281.769 83.2362 272.748 87.7465C263.727 92.2122 263.727 99.536 272.748 104.091Z" fill="#BEDDFF"/>
<path opacity="0.871" d="M274.4 103.242L361.66 146.872C370.681 151.383 385.328 151.383 394.349 146.872C403.37 142.362 403.37 135.038 394.349 130.528L307.089 86.8979C298.068 82.3875 283.421 82.3875 274.4 86.8979C265.38 91.4083 265.38 98.732 274.4 103.242Z" fill="#BEDDFF"/>
<path opacity="0.9032" d="M276.053 102.394L363.357 146.068C372.378 150.579 387.025 150.579 396.046 146.068C405.067 141.558 405.067 134.234 396.046 129.724L308.786 86.0942C299.766 81.5838 285.118 81.5838 276.098 86.0942C267.032 90.5599 267.032 97.8836 276.053 102.394Z" fill="#BEDDFF"/>
<path opacity="0.9355" d="M277.75 101.59L365.01 145.22C374.031 149.73 388.678 149.73 397.699 145.22C406.72 140.71 406.72 133.386 397.699 128.875L310.439 85.2456C301.418 80.7352 286.771 80.7352 277.75 85.2456C268.685 89.7559 268.685 97.0796 277.75 101.59Z" fill="#BEDDFF"/>
<path opacity="0.9677" d="M279.401 100.742L366.661 144.372C375.682 148.882 390.329 148.882 399.35 144.372C408.371 139.861 408.371 132.538 399.35 128.027L312.09 84.3974C303.07 79.8871 288.422 79.8871 279.401 84.3974C270.381 88.9078 270.336 96.2315 279.401 100.742Z" fill="#BEDDFF"/>
<path d="M281.055 99.9379L368.314 143.568C377.335 148.078 391.982 148.078 401.003 143.568C410.024 139.057 410.024 131.734 401.003 127.223L313.743 83.5488C304.723 79.0384 290.075 79.0384 281.055 83.5488C272.034 88.1038 272.034 95.3829 281.055 99.9379Z" fill="#BEDDFF"/>
<path d="M381.353 139.37C381.443 139.414 381.532 139.459 381.666 139.504C396.224 146.783 408.058 140.888 408.058 126.33C408.058 111.772 396.224 93.9984 381.666 86.7193C380.817 86.2727 379.969 85.9154 379.12 85.5582C380.594 82.0303 381.398 77.8325 381.398 73.0542C381.398 49.7433 362.508 21.3861 339.152 9.68601C315.841 -1.96946 296.907 7.45316 296.907 30.8088C296.907 32.0145 296.952 33.2202 297.086 34.426C294.451 32.3717 291.637 30.5855 288.779 29.1564C271.14 20.3144 256.85 27.4595 256.85 45.1436C256.85 62.7831 271.14 84.2631 288.779 93.0606L381.353 139.37Z" fill="url(#paint20_linear_2422_67939)"/>
<path d="M275.069 22.8151L266.227 27.1914C271.987 24.3334 279.981 24.78 288.734 29.1563C291.592 30.5854 294.405 32.4163 297.04 34.4259C296.951 33.2201 296.861 32.0144 296.861 30.8086C296.861 28.9777 296.995 27.2361 297.219 25.5838C290.922 22.2792 280.919 20.4482 275.069 22.8151ZM400.063 141.245L400.153 141.201C400.153 141.201 400.108 141.201 400.063 141.245ZM391.043 82.0302C390.194 81.5836 389.346 81.2264 388.497 80.8691C389.971 77.3412 390.775 73.1434 390.775 68.3652C390.775 45.0542 371.885 16.697 348.529 4.99692C338.124 -0.183284 328.612 -1.21039 321.289 1.33505L321.155 1.37971C319.815 1.87094 309.588 6.96183 309.588 6.96183C317.225 3.29996 327.63 3.92516 339.151 9.6859C362.462 21.3414 381.397 49.6985 381.397 73.0541C381.397 77.8324 380.593 81.9855 379.119 85.5581C379.968 85.9153 380.816 86.2726 381.665 86.7192C396.223 93.9983 408.057 111.727 408.057 126.33C408.057 133.564 405.154 138.655 400.465 141.067L410.201 136.199C414.711 133.698 417.48 128.697 417.48 121.641C417.435 107.038 405.601 89.3093 391.043 82.0302Z" fill="url(#paint21_linear_2422_67939)"/>
<path d="M362.062 149.016C362.152 149.06 362.241 149.105 362.375 149.15C376.933 156.429 388.767 150.534 388.767 135.976C388.767 121.418 376.933 103.644 362.375 96.3653C361.526 95.9187 360.678 95.5614 359.829 95.2042C361.303 91.6763 362.107 87.4785 362.107 82.7002C362.107 59.3893 343.217 31.0321 319.861 19.332C296.55 7.67654 277.616 17.0992 277.616 40.4547C277.616 41.6605 277.661 42.8662 277.795 44.072C275.16 42.0177 272.346 40.2315 269.488 38.8024C251.849 29.9604 237.559 37.1055 237.559 54.7896C237.559 72.4291 251.849 93.9091 269.488 102.707L362.062 149.016Z" fill="url(#paint22_linear_2422_67939)"/>
<path d="M255.78 32.4164L246.938 36.7928C252.698 33.9347 260.692 34.3813 269.445 38.7577C272.303 40.1867 275.116 42.0176 277.751 44.0272C277.661 42.8215 277.572 41.6157 277.572 40.41C277.572 38.5791 277.706 36.8374 277.929 35.1851C271.633 31.8805 261.63 30.0942 255.78 32.4164ZM380.819 150.847L380.908 150.802C380.864 150.847 380.819 150.847 380.819 150.847ZM371.754 91.6762C370.905 91.2296 370.057 90.8724 369.208 90.5151C370.682 86.9872 371.486 82.7895 371.486 78.0112C371.486 54.7002 352.596 26.343 329.24 14.6429C318.835 9.46271 309.323 8.4356 302 10.981L301.866 11.0257C300.526 11.5169 290.299 16.6078 290.299 16.6078C297.936 12.946 308.341 13.5712 319.862 19.3319C343.173 30.9874 362.108 59.3445 362.108 82.7001C362.108 87.4784 361.304 91.6315 359.83 95.2041C360.679 95.5613 361.527 95.9186 362.376 96.3652C376.934 103.644 388.768 121.373 388.768 135.976C388.768 143.21 385.865 148.301 381.176 150.713L390.912 145.845C395.422 143.344 398.191 138.343 398.191 131.287C398.191 116.684 386.357 98.9553 371.754 91.6762Z" fill="url(#paint23_linear_2422_67939)"/>
<path d="M342.814 158.662C342.903 158.707 342.993 158.752 343.127 158.796C357.685 166.075 369.519 160.181 369.519 145.622C369.519 131.064 357.685 113.291 343.127 106.012C342.278 105.565 341.43 105.208 340.581 104.851C342.055 101.323 342.859 97.125 342.859 92.3467C342.859 69.0358 323.969 40.6786 300.613 28.9785C277.302 17.323 258.368 26.7456 258.368 50.1012C258.368 51.307 258.412 52.5127 258.546 53.7184C255.912 51.6642 253.098 49.8779 250.24 48.4489C232.601 39.6068 218.311 46.752 218.311 64.4361C218.311 82.0756 232.601 103.556 250.24 112.353L342.814 158.662Z" fill="url(#paint24_linear_2422_67939)"/>
<path d="M236.53 42.0629L227.688 46.4393C233.448 43.5812 241.442 44.0278 250.195 48.4042C253.053 49.8332 255.866 51.6641 258.501 53.6737C258.411 52.4679 258.322 51.2622 258.322 50.0565C258.322 48.2255 258.456 46.4839 258.679 44.8316C252.383 41.527 242.38 39.7407 236.53 42.0629ZM361.524 160.493L361.614 160.449C361.614 160.493 361.569 160.493 361.524 160.493ZM352.504 101.323C351.655 100.876 350.807 100.519 349.958 100.162C351.432 96.6337 352.236 92.4359 352.236 87.6576C352.236 64.3467 333.346 35.9895 309.99 24.2894C299.585 19.1092 290.073 18.0821 282.75 20.6275L282.616 20.6722C281.276 21.1634 271.049 26.2543 271.049 26.2543C278.686 22.5924 289.091 23.2176 300.612 28.9784C323.923 40.6785 342.813 69.0357 342.813 92.3466C342.813 97.1249 342.009 101.278 340.536 104.851C341.384 105.208 342.233 105.565 343.081 106.012C357.639 113.291 369.473 131.02 369.473 145.622C369.473 152.857 366.571 157.948 361.882 160.359L371.617 155.492C376.127 152.991 378.896 147.989 378.896 140.933C378.896 126.331 367.062 108.602 352.504 101.323Z" fill="url(#paint25_linear_2422_67939)"/>
<path d="M378.363 266.33L320.13 237.213C313.744 234.043 303.428 234.043 297.042 237.213L238.81 266.33C235.639 267.937 234.031 269.992 234.031 272.091V295.893C234.031 297.992 235.639 300.09 238.81 301.653L297.042 330.77C303.428 333.94 313.744 333.94 320.13 330.77L378.363 301.653C381.533 300.046 383.141 297.992 383.141 295.893V272.091C383.141 269.992 381.533 267.893 378.363 266.33Z" fill="url(#paint26_linear_2422_67939)"/>
<path d="M378.362 277.852L320.129 306.968C313.743 310.139 303.428 310.139 297.042 306.968L238.809 277.852C232.423 274.681 232.423 269.501 238.809 266.33L297.042 237.214C303.428 234.043 313.743 234.043 320.129 237.214L378.362 266.33C384.703 269.501 384.703 274.681 378.362 277.852Z" fill="url(#paint27_linear_2422_67939)"/>
<path d="M291.817 284.684L300.302 280.441L291.817 276.199L283.332 280.441L291.817 284.684ZM308.563 276.333L317.048 272.091L308.563 267.848L300.078 272.091L308.563 276.333ZM316.825 263.695L325.31 267.937L333.794 263.695L325.31 259.453L316.825 263.695Z" fill="#75A4FF"/>
<path d="M303.114 407.089L284.805 397.889V379.58L303.114 388.735V407.089Z" fill="url(#paint28_linear_2422_67939)"/>
<path d="M321.467 397.889L303.113 407.089V388.735L321.467 379.58V397.889Z" fill="url(#paint29_linear_2422_67939)"/>
<path d="M321.468 379.58L303.114 388.735L284.805 379.58L303.114 370.425L321.468 379.58Z" fill="url(#paint30_linear_2422_67939)"/>
<path d="M309.412 474.521L322.094 468.18C325.667 466.393 331.428 466.393 335 468.18L348.576 474.967C350.362 475.861 351.255 477.022 351.255 478.183V489.258C351.255 490.419 350.362 491.58 348.576 492.473L335.893 498.814C332.321 500.6 326.56 500.6 322.988 498.814L309.412 492.026C307.626 491.133 306.732 489.972 306.732 488.811V477.736C306.732 476.575 307.626 475.414 309.412 474.521Z" fill="url(#paint31_linear_2422_67939)"/>
<path d="M309.412 480.951L322.988 487.739C326.56 489.526 332.321 489.526 335.893 487.739L348.576 481.398C352.149 479.612 352.149 476.709 348.576 474.967L335 468.18C331.428 466.393 325.667 466.393 322.094 468.18L309.412 474.521C305.839 476.307 305.839 479.165 309.412 480.951Z" fill="url(#paint32_linear_2422_67939)"/>
<path d="M276.275 447.593L288.958 441.251C292.53 439.465 298.291 439.465 301.864 441.251L315.439 448.039C317.226 448.932 318.119 450.093 318.119 451.255V462.329C318.119 463.49 317.226 464.652 315.439 465.545L302.757 471.886C299.184 473.672 293.423 473.672 289.851 471.886L276.275 465.098C274.489 464.205 273.596 463.044 273.596 461.883V450.808C273.596 449.647 274.489 448.486 276.275 447.593Z" fill="url(#paint33_linear_2422_67939)"/>
<path d="M276.275 454.068L289.851 460.856C293.423 462.642 299.184 462.642 302.757 460.856L315.439 454.514C319.012 452.728 319.012 449.825 315.439 448.084L301.864 441.251C298.291 439.465 292.53 439.465 288.958 441.251L276.275 447.593C272.703 449.379 272.703 452.282 276.275 454.068Z" fill="url(#paint34_linear_2422_67939)"/>
<path d="M243.185 420.709L255.868 414.368C259.44 412.581 265.201 412.581 268.774 414.368L282.349 421.155C284.136 422.049 285.029 423.21 285.029 424.371V435.446C285.029 436.607 284.136 437.768 282.349 438.661L269.667 445.002C266.094 446.789 260.334 446.789 256.761 445.002L243.185 438.214C241.399 437.321 240.506 436.16 240.506 434.999V423.924C240.506 422.763 241.399 421.602 243.185 420.709Z" fill="url(#paint35_linear_2422_67939)"/>
<path d="M243.185 427.139L256.761 433.927C260.334 435.714 266.094 435.714 269.667 433.927L282.349 427.586C285.922 425.8 285.922 422.897 282.349 421.155L268.774 414.368C265.201 412.581 259.44 412.581 255.868 414.368L243.185 420.709C239.613 422.495 239.613 425.398 243.185 427.139Z" fill="url(#paint36_linear_2422_67939)"/>
<path d="M327.185 465.634C328.837 466.438 330.311 467.331 331.695 468.224C333.392 469.341 333.392 471.886 331.695 473.003C330.355 473.896 328.837 474.789 327.185 475.593C327.14 475.593 327.14 475.637 327.095 475.637C320.888 478.719 313.564 478.719 307.357 475.637C307.312 475.637 307.312 475.593 307.268 475.593L327.185 465.634Z" fill="#EBF0FF"/>
<path d="M298.158 462.776C296.506 461.972 295.032 461.079 293.648 460.186C291.951 459.07 291.951 456.524 293.648 455.408C294.987 454.515 296.506 453.621 298.158 452.818C298.203 452.818 298.203 452.773 298.247 452.773C304.455 449.692 311.778 449.692 317.986 452.773C318.03 452.773 318.03 452.818 318.075 452.818L298.158 462.776Z" fill="#EBF0FF"/>
<path d="M291.995 451.79L304.588 449.602V454.246C304.588 455.943 303.159 457.238 301.462 457.104C297.934 456.792 293.066 456.077 291.459 455.407C289.136 454.47 289.717 452.237 291.995 451.79Z" fill="#8EAAE8"/>
<path d="M297.665 449.111L296.549 418.968C296.459 417.092 297.442 415.395 298.96 414.457L299.764 413.966L317.269 403.114C320.887 400.882 325.665 401.998 327.898 405.615C330.131 409.232 329.014 414.011 325.397 416.244C324.995 416.467 324.549 416.69 324.147 416.869L304.989 424.416L308.204 419.37L304.989 449.379C304.765 451.433 302.935 452.907 300.925 452.684C299.094 452.46 297.71 450.897 297.665 449.111Z" fill="#130F40"/>
<path d="M330.354 477.468C327.898 476.664 323.834 474.119 322.182 472.601C320.44 470.993 321.646 469.162 323.879 469.519L333.435 470.725V475.369C333.435 476.798 332.096 478.004 330.354 477.468Z" fill="#8EAAE8"/>
<path d="M332.9 407.267L333.927 469.028C333.972 471.082 332.319 472.779 330.265 472.779C328.389 472.824 326.826 471.439 326.558 469.608L317.538 408.518C316.913 404.32 319.815 400.39 324.058 399.765C328.255 399.14 332.185 402.042 332.81 406.285C332.855 406.597 332.9 406.955 332.9 407.267Z" fill="#130F40"/>
<path d="M321.379 368.103L320.709 373.774L327.095 373.417V366.54L321.379 368.103Z" fill="#F3ABC7"/>
<path d="M319.102 366.808C319.102 367.701 320.307 369.041 322.004 368.371C322.585 368.148 326.202 366.496 326.202 366.496C326.202 366.496 326.113 360.422 325.398 359.886C324.416 359.127 321.96 358.993 320.932 359.708C319.459 360.824 319.102 364.843 319.102 366.808Z" fill="#F3ABC7"/>
<path d="M321.022 361.628C321.916 362.164 321.96 364.084 321.96 364.754C321.96 366.317 324.461 368.416 327.096 368.371C327.096 365.781 331.115 360.869 327.721 360.869C326.471 357.073 320.978 359.127 319.683 358.502C318.924 359.261 319.37 360.601 321.022 361.628Z" fill="#130F40"/>
<path d="M312.09 377.436C317.449 373.373 326.514 370.693 332.677 370.023C335.133 369.755 336.964 370.872 337.813 373.328C338.393 374.98 338.259 376.811 337.589 378.419C333.927 386.904 333.927 395.255 333.927 402.712C332.9 406.419 308.696 412.492 307.535 408.607L309.321 382.215C309.455 380.339 310.527 378.597 312.09 377.436Z" fill="white"/>
<path d="M297.22 403.516L297.264 400.435C296.103 399.676 296.103 398.291 294.495 398.202L293.156 399.095L290.878 399.453C290.03 399.676 290.164 400.48 290.744 400.658L290.968 400.703C291.012 401.373 291.146 401.998 291.369 402.579C291.682 403.382 297.22 403.516 297.22 403.516Z" fill="#F3ABC7"/>
<path d="M297.398 399.006C298.469 398.738 299.541 398.47 300.613 398.158C301.685 397.845 302.712 397.532 303.784 397.175C305.883 396.505 307.981 395.791 310.08 395.032L307.981 397.488C308.249 394.898 308.473 392.308 308.696 389.717C308.785 388.422 308.919 387.127 309.009 385.832C309.098 384.537 309.187 383.242 309.276 381.947C309.366 379.804 311.197 378.196 313.34 378.285C315.484 378.375 317.091 380.206 317.002 382.349C317.002 382.572 316.957 382.796 316.913 383.019C316.6 384.269 316.332 385.564 316.064 386.815C315.796 388.065 315.528 389.36 315.26 390.611C314.769 393.156 314.278 395.702 313.787 398.247L313.742 398.56C313.564 399.631 312.715 400.435 311.733 400.658C309.589 401.105 307.401 401.596 305.257 402.132C304.186 402.4 303.114 402.668 302.042 402.981C300.97 403.293 299.943 403.606 298.871 403.963C297.532 404.41 296.058 403.695 295.611 402.355C295.165 401.016 295.879 399.542 297.219 399.095C297.219 399.051 297.308 399.051 297.398 399.006Z" fill="white"/>
<path d="M558.91 300.135V271.555C558.91 271.287 559.133 270.974 559.535 270.795L567.395 266.866C568.243 266.419 569.672 266.419 570.521 266.866L578.381 270.795C578.827 271.019 579.006 271.287 579.006 271.555V300.135H558.91Z" fill="url(#paint37_linear_2422_67939)"/>
<path d="M569.002 287.453C567.483 287.453 565.965 287.14 564.804 286.56L545.646 276.958C543.86 276.065 543.592 274.904 543.592 274.279C543.592 273.654 543.86 272.493 545.646 271.599L564.804 261.998C567.171 260.837 570.833 260.837 573.199 261.998L592.357 271.599C594.144 272.493 594.411 273.654 594.411 274.279C594.411 274.904 594.144 276.065 592.357 276.958L573.199 286.56C571.994 287.14 570.475 287.453 569.002 287.453ZM569.002 262.936C567.751 262.936 566.545 263.159 565.608 263.606L546.45 273.207C545.78 273.52 545.378 273.966 545.378 274.324C545.378 274.681 545.78 275.083 546.45 275.44L565.608 285.041C567.439 285.979 570.565 285.979 572.396 285.041L591.553 275.44C592.223 275.127 592.625 274.681 592.625 274.324C592.625 273.966 592.223 273.564 591.553 273.207L572.396 263.606C571.458 263.159 570.207 262.936 569.002 262.936Z" fill="#02CEFF"/>
<path d="M587.578 249.718L572.037 241.947C570.34 241.099 567.572 241.099 565.875 241.947L550.334 249.718C549.486 250.164 549.039 250.7 549.039 251.236V270.93C549.039 271.466 549.486 272.046 550.334 272.448L565.875 280.218C567.572 281.067 570.34 281.067 572.037 280.218L587.578 272.448C588.426 272.002 588.873 271.466 588.873 270.93V251.236C588.873 250.7 588.426 250.164 587.578 249.718Z" fill="url(#paint38_linear_2422_67939)"/>
<path d="M587.579 252.799L572.039 260.569C570.342 261.418 567.573 261.418 565.876 260.569L550.335 252.799C548.638 251.951 548.638 250.566 550.335 249.718L565.876 241.947C567.573 241.099 570.342 241.099 572.039 241.947L587.579 249.718C589.276 250.566 589.276 251.951 587.579 252.799Z" fill="url(#paint39_linear_2422_67939)"/>
<path d="M578.425 252.04L570.565 255.969C569.717 256.416 568.288 256.416 567.439 255.969L559.58 252.04C558.731 251.593 558.731 250.923 559.58 250.477L567.439 246.547C568.288 246.1 569.717 246.1 570.565 246.547L578.425 250.477C579.273 250.923 579.273 251.638 578.425 252.04Z" fill="#D3DAF3"/>
<path d="M558.91 222.7V251.281C558.91 251.549 559.133 251.861 559.535 252.04L567.395 255.97C568.243 256.416 569.672 256.416 570.521 255.97L578.381 252.04C578.827 251.817 579.006 251.549 579.006 251.281V222.7H558.91Z" fill="url(#paint40_linear_2422_67939)"/>
<path d="M422.305 85.5585V56.978C422.305 56.7101 422.528 56.3975 422.93 56.2188L430.79 52.289C431.638 51.8425 433.067 51.8425 433.915 52.289L441.775 56.2188C442.222 56.4421 442.4 56.7101 442.4 56.978V85.5585H422.305Z" fill="url(#paint41_linear_2422_67939)"/>
<path d="M432.396 72.8761C430.878 72.8761 429.359 72.5635 428.198 71.9829L409.041 62.3817C407.254 61.4885 406.986 60.3275 406.986 59.7023C406.986 59.0771 407.254 57.916 409.041 57.0228L428.198 47.4216C430.565 46.2605 434.227 46.2605 436.594 47.4216L455.752 57.0228C457.538 57.916 457.806 59.0771 457.806 59.7023C457.806 60.3275 457.538 61.4885 455.752 62.3817L436.594 72.0276C435.388 72.6081 433.914 72.8761 432.396 72.8761ZM432.396 48.3594C431.146 48.3594 429.94 48.5827 429.002 49.0292L409.844 58.6305C409.175 58.9431 408.773 59.3897 408.773 59.7469C408.773 60.1042 409.175 60.5061 409.844 60.8633L429.002 70.4646C430.833 71.4024 433.959 71.4024 435.79 70.4646L454.948 60.8633C455.618 60.5507 456.02 60.1042 456.02 59.7469C456.02 59.3897 455.618 58.9877 454.948 58.6305L435.79 49.0292C434.852 48.5827 433.602 48.3594 432.396 48.3594Z" fill="#02CEFF"/>
<path d="M450.973 35.1855L435.432 27.4152C433.735 26.5667 430.966 26.5667 429.269 27.4152L413.729 35.1855C412.88 35.6321 412.434 36.1679 412.434 36.7038V56.3975C412.434 56.9334 412.88 57.514 413.729 57.9159L429.269 65.6862C430.966 66.5347 433.735 66.5347 435.432 65.6862L450.973 57.9159C451.821 57.4693 452.268 56.9334 452.268 56.3975V36.7038C452.268 36.1679 451.821 35.5874 450.973 35.1855Z" fill="url(#paint42_linear_2422_67939)"/>
<path d="M450.974 38.2668L435.478 46.0371C433.781 46.8856 431.012 46.8856 429.315 46.0371L413.775 38.2668C412.078 37.4183 412.078 36.034 413.775 35.1855L429.315 27.4152C431.012 26.5667 433.781 26.5667 435.478 27.4152L451.019 35.1855C452.671 36.034 452.671 37.4183 450.974 38.2668Z" fill="url(#paint43_linear_2422_67939)"/>
<path d="M441.819 37.5079L433.96 41.4377C433.111 41.8843 431.682 41.8843 430.834 41.4377L422.974 37.5079C422.126 37.0613 422.126 36.3915 422.974 35.9449L430.834 32.0151C431.682 31.5685 433.111 31.5685 433.96 32.0151L441.819 35.9449C442.668 36.3468 442.668 37.0613 441.819 37.5079Z" fill="#D3DAF3"/>
<path d="M422.305 8.12354V36.704C422.305 36.9719 422.528 37.2845 422.93 37.4632L430.79 41.393C431.638 41.8395 433.067 41.8395 433.915 41.393L441.775 37.4632C442.222 37.2399 442.4 36.9719 442.4 36.704V8.12354H422.305Z" fill="url(#paint44_linear_2422_67939)"/>
<path d="M16.1035 418.521V389.94C16.1035 389.672 16.3268 389.36 16.7287 389.181L24.5883 385.251C25.4368 384.805 26.8658 384.805 27.7143 385.251L35.5739 389.181C36.0205 389.405 36.1991 389.672 36.1991 389.94V418.521H16.1035Z" fill="url(#paint45_linear_2422_67939)"/>
<path d="M26.152 405.838C24.6337 405.838 23.1153 405.526 21.9542 404.945L2.79641 395.389C1.01013 394.495 0.742188 393.334 0.742188 392.709C0.742188 392.084 1.01013 390.923 2.79641 390.03L21.9542 380.428C24.3211 379.267 27.9829 379.267 30.3498 380.428L49.5076 390.03C51.2939 390.923 51.5618 392.084 51.5618 392.709C51.5618 393.334 51.2939 394.495 49.5076 395.389L30.3498 404.99C29.1887 405.57 27.6703 405.838 26.152 405.838ZM26.152 381.322C24.9016 381.322 23.6959 381.545 22.7581 381.991L3.60023 391.593C2.93038 391.905 2.52847 392.352 2.52847 392.709C2.52847 393.066 2.93038 393.468 3.60023 393.826L22.7581 403.427C24.589 404.365 27.715 404.365 29.5459 403.427L48.7038 393.826C49.3736 393.513 49.7755 393.066 49.7755 392.709C49.7755 392.352 49.3736 391.95 48.7038 391.593L29.5459 381.991C28.6528 381.545 27.4024 381.322 26.152 381.322Z" fill="#02CEFF"/>
<path d="M44.7733 368.148L29.2327 360.378C27.5357 359.529 24.767 359.529 23.0701 360.378L7.52943 368.148C6.68094 368.594 6.23438 369.13 6.23438 369.666V389.36C6.23438 389.896 6.68094 390.476 7.52943 390.878L23.0701 398.693C24.767 399.542 27.5357 399.542 29.2327 398.693L44.7733 390.923C45.6218 390.476 46.0684 389.94 46.0684 389.405V369.711C46.0237 369.13 45.6218 368.594 44.7733 368.148Z" fill="url(#paint46_linear_2422_67939)"/>
<path d="M44.7744 371.229L29.2338 379C27.5369 379.848 24.7681 379.848 23.0712 379L7.53054 371.229C5.83357 370.381 5.83357 368.996 7.53054 368.148L23.0712 360.378C24.7681 359.529 27.5369 359.529 29.2338 360.378L44.7744 368.148C46.4714 368.996 46.4714 370.381 44.7744 371.229Z" fill="url(#paint47_linear_2422_67939)"/>
<path d="M35.5754 370.47L27.7157 374.4C26.8672 374.846 25.4382 374.846 24.5897 374.4L16.7301 370.47C15.8816 370.023 15.8816 369.353 16.7301 368.907L24.5897 364.977C25.4382 364.53 26.8672 364.53 27.7157 364.977L35.5754 368.907C36.4685 369.353 36.4685 370.023 35.5754 370.47Z" fill="#D3DAF3"/>
<path d="M16.1035 341.086V369.666C16.1035 369.934 16.3268 370.247 16.7287 370.426L24.5883 374.355C25.4368 374.802 26.8658 374.802 27.7143 374.355L35.5739 370.426C36.0205 370.202 36.1991 369.934 36.1991 369.666V341.086H16.1035Z" fill="url(#paint48_linear_2422_67939)"/>
<path d="M444.989 439.688L428.287 431.337C427.037 430.712 425.92 430.667 425.116 431.069L420.159 433.57C420.07 433.615 420.026 433.615 419.936 433.659C419.177 434.106 418.73 434.91 418.73 436.115V452.817C418.73 455.273 420.74 458.265 423.196 459.516L439.898 467.867C441.148 468.492 442.265 468.536 443.069 468.135L448.025 465.634C448.115 465.589 448.159 465.589 448.204 465.544C448.963 465.098 449.41 464.294 449.41 463.088V446.387C449.41 443.886 447.445 440.894 444.989 439.688Z" fill="url(#paint49_linear_2422_67939)"/>
<path d="M439.898 467.822L423.196 459.471C420.74 458.22 418.73 455.228 418.73 452.772V436.07C418.73 433.614 420.74 432.587 423.196 433.838L439.898 442.188C442.354 443.439 444.364 446.431 444.364 448.887V465.589C444.364 468.045 442.354 469.072 439.898 467.822Z" fill="url(#paint50_linear_2422_67939)"/>
<path d="M373.896 221.405L390.598 213.054C391.848 212.429 392.965 212.384 393.769 212.786L398.726 215.287C398.815 215.332 398.86 215.332 398.949 215.376C399.708 215.823 400.155 216.627 400.155 217.832V234.489C400.155 236.945 398.145 239.937 395.689 241.188L378.987 249.539C377.737 250.164 376.62 250.209 375.817 249.807L370.86 247.306C370.77 247.261 370.726 247.261 370.681 247.217C369.922 246.77 369.475 245.966 369.475 244.76V228.059C369.431 225.647 371.44 222.611 373.896 221.405Z" fill="url(#paint51_linear_2422_67939)"/>
<path d="M378.987 249.539L395.689 241.188C398.145 239.938 400.155 236.946 400.155 234.489V217.788C400.155 215.332 398.145 214.305 395.689 215.555L378.987 223.95C376.531 225.201 374.521 228.193 374.521 230.649V247.351C374.521 249.762 376.486 250.789 378.987 249.539Z" fill="url(#paint52_linear_2422_67939)"/>
<path d="M260.245 140.978L243.543 132.627C242.293 132.002 241.176 131.957 240.372 132.359L235.415 134.86C235.326 134.904 235.281 134.904 235.192 134.949C234.433 135.395 233.986 136.199 233.986 137.405V154.107C233.986 156.563 235.996 159.555 238.452 160.805L255.154 169.156C256.404 169.781 257.521 169.826 258.324 169.424L263.281 166.923C263.371 166.879 263.415 166.879 263.46 166.834C264.219 166.387 264.666 165.584 264.666 164.378V147.676C264.71 145.175 262.701 142.183 260.245 140.978Z" fill="url(#paint53_linear_2422_67939)"/>
<path d="M255.199 169.112L238.497 160.761C236.041 159.51 234.031 156.518 234.031 154.062V137.361C234.031 134.904 236.041 133.877 238.497 135.128L255.199 143.479C257.655 144.729 259.664 147.721 259.664 150.177V166.879C259.62 169.335 257.655 170.362 255.199 169.112Z" fill="url(#paint54_linear_2422_67939)"/>
<path d="M406.987 420.664L390.285 412.313C389.035 411.688 387.918 411.643 387.114 412.045L382.158 414.546C382.068 414.591 382.024 414.591 381.934 414.635C381.175 415.082 380.729 415.886 380.729 417.092V433.793C380.729 436.249 382.738 439.241 385.194 440.492L401.896 448.843C403.146 449.468 404.263 449.513 405.067 449.111L410.023 446.61C410.113 446.565 410.157 446.565 410.202 446.521C410.961 446.074 411.408 445.27 411.408 444.064V427.363C411.452 424.907 409.488 421.915 406.987 420.664Z" fill="url(#paint55_linear_2422_67939)"/>
<path d="M401.941 448.842L385.239 440.491C382.783 439.241 380.773 436.249 380.773 433.793V417.091C380.773 414.635 382.783 413.608 385.239 414.858L401.941 423.209C404.397 424.459 406.407 427.451 406.407 429.908V446.609C406.407 449.065 404.397 450.048 401.941 448.842Z" fill="url(#paint56_linear_2422_67939)"/>
<path d="M217.284 200.193H71.7915V392.709C71.3896 402.266 78.4901 411.912 93.0929 419.191C121.495 433.392 167.581 433.392 195.983 419.191C210.585 411.912 217.686 402.266 217.284 392.709V200.193Z" fill="url(#paint57_linear_2422_67939)"/>
<path d="M202.948 153.08H86.1255V392.62C85.8129 400.301 91.4844 408.027 103.229 413.877C126.049 425.264 163.025 425.264 185.845 413.877C197.545 408.027 203.261 400.301 202.948 392.62V153.08Z" fill="url(#paint58_linear_2422_67939)"/>
<path d="M126.451 380.696L105.373 370.157V349.035L126.451 359.618V380.696Z" fill="url(#paint59_linear_2422_67939)"/>
<path d="M147.529 370.157L126.451 380.696V359.618L147.529 349.035V370.157Z" fill="url(#paint60_linear_2422_67939)"/>
<path d="M147.529 349.035L126.451 359.618L105.373 349.035L126.451 338.496L147.529 349.035Z" fill="url(#paint61_linear_2422_67939)"/>
<path d="M175.753 303.663L157.845 309.647L145.922 297.679L163.829 291.74L175.753 303.663Z" fill="url(#paint62_linear_2422_67939)"/>
<path d="M181.693 285.756L175.753 303.663L163.83 291.74L169.769 273.833L181.693 285.756Z" fill="url(#paint63_linear_2422_67939)"/>
<path d="M169.769 273.833L163.829 291.74L145.922 297.679L151.861 279.817L169.769 273.833Z" fill="url(#paint64_linear_2422_67939)"/>
<path d="M125.067 209.705L120.289 195.414L129.846 185.858L134.624 200.193L125.067 209.705Z" fill="url(#paint65_linear_2422_67939)"/>
<path d="M139.401 214.483L125.066 209.705L134.623 200.193L148.958 204.926L139.401 214.483Z" fill="url(#paint66_linear_2422_67939)"/>
<path d="M148.959 204.926L134.624 200.193L129.846 185.858L144.181 190.636L148.959 204.926Z" fill="url(#paint67_linear_2422_67939)"/>
<path d="M169.768 402.534L159.229 397.264V386.725L169.768 391.995V402.534Z" fill="#62ADFF"/>
<path d="M180.307 397.264L169.768 402.534V391.995L180.307 386.725V397.264Z" fill="#8DC3FF"/>
<path d="M180.307 386.725L169.768 391.995L159.229 386.725L169.768 381.456L180.307 386.725Z" fill="url(#paint68_linear_2422_67939)"/>
<path d="M121.494 253.067L130.426 256.059L136.41 250.075L127.478 247.083L121.494 253.067Z" fill="#62ADFF"/>
<path d="M118.502 244.091L121.494 253.067L127.478 247.083L124.486 238.151L118.502 244.091Z" fill="#8DC3FF"/>
<path d="M124.486 238.151L127.478 247.083L136.41 250.075L133.418 241.143L124.486 238.151Z" fill="url(#paint69_linear_2422_67939)"/>
<path d="M162.622 166.835L164.989 159.689L160.211 154.911L157.844 162.056L162.622 166.835Z" fill="#62ADFF"/>
<path d="M155.478 169.201L162.623 166.834L157.844 162.056L150.699 164.468L155.478 169.201Z" fill="#8DC3FF"/>
<path d="M150.699 164.468L157.844 162.056L160.211 154.911L153.066 157.278L150.699 164.468Z" fill="url(#paint70_linear_2422_67939)"/>
<defs>
<linearGradient id="paint0_linear_2422_67939" x1="198.231" y1="325.998" x2="446.536" y2="325.998" gradientUnits="userSpaceOnUse">
<stop stop-color="#E1E3F8"/>
<stop offset="0.5" stop-color="#D3D7F2"/>
<stop offset="1" stop-color="#F2F3FF"/>
</linearGradient>
<linearGradient id="paint1_linear_2422_67939" x1="195.745" y1="124.657" x2="444.477" y2="124.657" gradientUnits="userSpaceOnUse">
<stop stop-color="#E8EAFB"/>
<stop offset="1" stop-color="white"/>
</linearGradient>
<linearGradient id="paint2_linear_2422_67939" x1="198.231" y1="325.998" x2="446.536" y2="325.998" gradientUnits="userSpaceOnUse">
<stop stop-color="#E1E3F8"/>
<stop offset="0.5" stop-color="#D3D7F2"/>
<stop offset="1" stop-color="#F2F3FF"/>
</linearGradient>
<linearGradient id="paint3_linear_2422_67939" x1="195.745" y1="124.657" x2="444.477" y2="124.657" gradientUnits="userSpaceOnUse">
<stop stop-color="#E8EAFB"/>
<stop offset="1" stop-color="white"/>
</linearGradient>
<linearGradient id="paint4_linear_2422_67939" x1="348.842" y1="433.438" x2="597.147" y2="433.438" gradientUnits="userSpaceOnUse">
<stop stop-color="#E1E3F8"/>
<stop offset="0.5" stop-color="#D3D7F2"/>
<stop offset="1" stop-color="#F2F3FF"/>
</linearGradient>
<linearGradient id="paint5_linear_2422_67939" x1="346.355" y1="339.537" x2="595.087" y2="339.537" gradientUnits="userSpaceOnUse">
<stop stop-color="#E8EAFB"/>
<stop offset="1" stop-color="white"/>
</linearGradient>
<linearGradient id="paint6_linear_2422_67939" x1="19.8209" y1="438.349" x2="268.553" y2="438.349" gradientUnits="userSpaceOnUse">
<stop stop-color="#E8EAFB"/>
<stop offset="1" stop-color="white"/>
</linearGradient>
<linearGradient id="paint7_linear_2422_67939" x1="455.132" y1="172.437" x2="520.556" y2="344.459" gradientUnits="userSpaceOnUse">
<stop stop-color="#FCFCFE"/>
<stop offset="0.2786" stop-color="#E1E3F8"/>
<stop offset="0.3206" stop-color="#BDCAF8"/>
<stop offset="1" stop-color="#EBEDFC"/>
</linearGradient>
<linearGradient id="paint8_linear_2422_67939" x1="447.959" y1="259.94" x2="518.235" y2="259.94" gradientUnits="userSpaceOnUse">
<stop stop-color="#D3D7F2"/>
<stop offset="1" stop-color="#BBC9F8"/>
</linearGradient>
<linearGradient id="paint9_linear_2422_67939" x1="436.614" y1="178.864" x2="502.43" y2="353.467" gradientUnits="userSpaceOnUse">
<stop offset="0.266" stop-color="#84BFFE"/>
<stop offset="0.3537" stop-color="#22568E"/>
<stop offset="1" stop-color="#4B8ED8"/>
</linearGradient>
<linearGradient id="paint10_linear_2422_67939" x1="465.235" y1="347.827" x2="465.235" y2="206.572" gradientUnits="userSpaceOnUse">
<stop stop-color="#4D92DD"/>
<stop offset="0.6278" stop-color="#22568E"/>
<stop offset="1" stop-color="#4F93DE"/>
</linearGradient>
<linearGradient id="paint11_linear_2422_67939" x1="496.64" y1="357.686" x2="429.977" y2="187.535" gradientUnits="userSpaceOnUse">
<stop stop-color="#109EFF"/>
<stop offset="1" stop-color="#02D0FF"/>
</linearGradient>
<linearGradient id="paint12_linear_2422_67939" x1="446.435" y1="296.225" x2="446.435" y2="253.55" gradientUnits="userSpaceOnUse">
<stop stop-color="#B4C1F3"/>
<stop offset="1" stop-color="#BBC9F8"/>
</linearGradient>
<linearGradient id="paint13_linear_2422_67939" x1="441.725" y1="295.788" x2="441.725" y2="253.293" gradientUnits="userSpaceOnUse">
<stop stop-color="#C3CFF7"/>
<stop offset="1" stop-color="white"/>
</linearGradient>
<linearGradient id="paint14_linear_2422_67939" x1="442.806" y1="181.405" x2="508.204" y2="353.36" gradientUnits="userSpaceOnUse">
<stop stop-color="#FCFCFE"/>
<stop offset="0.2786" stop-color="#E1E3F8"/>
<stop offset="0.3206" stop-color="#BDCAF8"/>
<stop offset="1" stop-color="#EBEDFC"/>
</linearGradient>
<linearGradient id="paint15_linear_2422_67939" x1="51.424" y1="445.862" x2="237.638" y2="445.862" gradientUnits="userSpaceOnUse">
<stop stop-color="#D3D7F2"/>
<stop offset="0.35" stop-color="#BBC9F8"/>
<stop offset="0.65" stop-color="#D3D7F2"/>
<stop offset="1" stop-color="#F2F3FF"/>
</linearGradient>
<linearGradient id="paint16_linear_2422_67939" x1="78.0108" y1="447.909" x2="131.242" y2="341.467" gradientUnits="userSpaceOnUse">
<stop stop-color="#E8EAFB"/>
<stop offset="1" stop-color="white"/>
</linearGradient>
<linearGradient id="paint17_linear_2422_67939" x1="93.0829" y1="419.274" x2="134.252" y2="336.952" gradientUnits="userSpaceOnUse">
<stop stop-color="#E8EAFB"/>
<stop offset="1" stop-color="white"/>
</linearGradient>
<linearGradient id="paint18_linear_2422_67939" x1="72.5208" y1="419.627" x2="216.539" y2="419.627" gradientUnits="userSpaceOnUse">
<stop stop-color="#D3D7F2"/>
<stop offset="0.35" stop-color="#BBC9F8"/>
<stop offset="0.65" stop-color="#D3D7F2"/>
<stop offset="1" stop-color="#F2F3FF"/>
</linearGradient>
<linearGradient id="paint19_linear_2422_67939" x1="86.3317" y1="393.546" x2="202.726" y2="393.546" gradientUnits="userSpaceOnUse">
<stop stop-color="#E8EAFB"/>
<stop offset="1" stop-color="white"/>
</linearGradient>
<linearGradient id="paint20_linear_2422_67939" x1="257.561" y1="73.684" x2="407.267" y2="73.684" gradientUnits="userSpaceOnUse">
<stop stop-color="#D3D7F2"/>
<stop offset="1" stop-color="#BBC9F8"/>
</linearGradient>
<linearGradient id="paint21_linear_2422_67939" x1="312.351" y1="5.35539" x2="377.971" y2="151.177" gradientUnits="userSpaceOnUse">
<stop stop-color="#E3E4F8"/>
<stop offset="0.1112" stop-color="#F2F3FF"/>
<stop offset="0.6019" stop-color="#D3D7F2"/>
<stop offset="0.6461" stop-color="#E1E3F8"/>
<stop offset="0.7358" stop-color="#F2F3FF"/>
<stop offset="0.9196" stop-color="#E1E3F8"/>
<stop offset="1" stop-color="#E2E7FB"/>
</linearGradient>
<linearGradient id="paint22_linear_2422_67939" x1="313.146" y1="146.272" x2="313.146" y2="33.6446" gradientUnits="userSpaceOnUse">
<stop stop-color="#4C91DC"/>
<stop offset="0.6278" stop-color="#20538A"/>
<stop offset="1" stop-color="#4D91DB"/>
</linearGradient>
<linearGradient id="paint23_linear_2422_67939" x1="296.575" y1="12.1872" x2="352.807" y2="161.363" gradientUnits="userSpaceOnUse">
<stop stop-color="#56A1FF"/>
<stop offset="0.0662461" stop-color="#8FDAFF"/>
<stop offset="0.289871" stop-color="#4D92DD"/>
<stop offset="0.6061" stop-color="#1E69FF"/>
<stop offset="0.6278" stop-color="#8FC5FF"/>
<stop offset="0.815922" stop-color="#4B91DC"/>
<stop offset="1" stop-color="#1E69FF"/>
</linearGradient>
<linearGradient id="paint24_linear_2422_67939" x1="269.315" y1="131.753" x2="335.069" y2="58.0292" gradientUnits="userSpaceOnUse">
<stop stop-color="#109EFF"/>
<stop offset="1" stop-color="#02D0FF"/>
</linearGradient>
<linearGradient id="paint25_linear_2422_67939" x1="273.817" y1="24.6269" x2="339.437" y2="170.449" gradientUnits="userSpaceOnUse">
<stop stop-color="#E3E4F8"/>
<stop offset="0.1112" stop-color="#F2F3FF"/>
<stop offset="0.6019" stop-color="#D3D7F2"/>
<stop offset="0.6461" stop-color="#E1E3F8"/>
<stop offset="0.7358" stop-color="#F2F3FF"/>
<stop offset="0.9196" stop-color="#E1E3F8"/>
<stop offset="1" stop-color="#E2E7FB"/>
</linearGradient>
<linearGradient id="paint26_linear_2422_67939" x1="234.794" y1="283.984" x2="382.369" y2="283.984" gradientUnits="userSpaceOnUse">
<stop stop-color="#D3D7F2"/>
<stop offset="0.45" stop-color="#BBC9F8"/>
<stop offset="0.55" stop-color="#D3D7F2"/>
<stop offset="1" stop-color="#F2F3FF"/>
</linearGradient>
<linearGradient id="paint27_linear_2422_67939" x1="267.923" y1="292.418" x2="300.458" y2="227.361" gradientUnits="userSpaceOnUse">
<stop stop-color="#E8EAFB"/>
<stop offset="1" stop-color="white"/>
</linearGradient>
<linearGradient id="paint28_linear_2422_67939" x1="302.429" y1="389.053" x2="285.279" y2="397.715" gradientUnits="userSpaceOnUse">
<stop stop-color="#20298B"/>
<stop offset="1" stop-color="#4D59DB"/>
</linearGradient>
<linearGradient id="paint29_linear_2422_67939" x1="322.156" y1="397.933" x2="303.62" y2="389.272" gradientUnits="userSpaceOnUse">
<stop stop-color="#0421E4"/>
<stop offset="1" stop-color="#2568FB"/>
</linearGradient>
<linearGradient id="paint30_linear_2422_67939" x1="285.632" y1="379.58" x2="320.757" y2="379.58" gradientUnits="userSpaceOnUse">
<stop stop-color="#1E69FF"/>
<stop offset="1" stop-color="#6697FF"/>
</linearGradient>
<linearGradient id="paint31_linear_2422_67939" x1="350.991" y1="483.492" x2="306.947" y2="483.492" gradientUnits="userSpaceOnUse">
<stop stop-color="#F2F3FF"/>
<stop offset="0.45" stop-color="#D3D7F2"/>
<stop offset="0.55" stop-color="#BBC9F8"/>
<stop offset="1" stop-color="#D3D7F2"/>
</linearGradient>
<linearGradient id="paint32_linear_2422_67939" x1="351.219" y1="477.948" x2="306.72" y2="477.948" gradientUnits="userSpaceOnUse">
<stop stop-color="white"/>
<stop offset="1" stop-color="#E8EAFB"/>
</linearGradient>
<linearGradient id="paint33_linear_2422_67939" x1="317.877" y1="456.593" x2="273.833" y2="456.593" gradientUnits="userSpaceOnUse">
<stop stop-color="#F2F3FF"/>
<stop offset="0.45" stop-color="#D3D7F2"/>
<stop offset="0.55" stop-color="#BBC9F8"/>
<stop offset="1" stop-color="#D3D7F2"/>
</linearGradient>
<linearGradient id="paint34_linear_2422_67939" x1="318.105" y1="451.049" x2="273.606" y2="451.049" gradientUnits="userSpaceOnUse">
<stop stop-color="white"/>
<stop offset="1" stop-color="#E8EAFB"/>
</linearGradient>
<linearGradient id="paint35_linear_2422_67939" x1="284.765" y1="429.694" x2="240.721" y2="429.694" gradientUnits="userSpaceOnUse">
<stop stop-color="#F2F3FF"/>
<stop offset="0.45" stop-color="#D3D7F2"/>
<stop offset="0.55" stop-color="#BBC9F8"/>
<stop offset="1" stop-color="#D3D7F2"/>
</linearGradient>
<linearGradient id="paint36_linear_2422_67939" x1="284.993" y1="424.149" x2="240.494" y2="424.149" gradientUnits="userSpaceOnUse">
<stop stop-color="white"/>
<stop offset="1" stop-color="#E8EAFB"/>
</linearGradient>
<linearGradient id="paint37_linear_2422_67939" x1="568.986" y1="300.366" x2="568.986" y2="266.591" gradientUnits="userSpaceOnUse">
<stop stop-color="white" stop-opacity="0"/>
<stop offset="1" stop-color="#02CEFF"/>
</linearGradient>
<linearGradient id="paint38_linear_2422_67939" x1="549.311" y1="261.13" x2="588.657" y2="261.13" gradientUnits="userSpaceOnUse">
<stop stop-color="#D3D7F2"/>
<stop offset="0.45" stop-color="#BBC9F8"/>
<stop offset="0.55" stop-color="#D3D7F2"/>
<stop offset="1" stop-color="#F2F3FF"/>
</linearGradient>
<linearGradient id="paint39_linear_2422_67939" x1="558.145" y1="256.694" x2="566.82" y2="239.349" gradientUnits="userSpaceOnUse">
<stop stop-color="#E8EAFB"/>
<stop offset="1" stop-color="white"/>
</linearGradient>
<linearGradient id="paint40_linear_2422_67939" x1="568.986" y1="222.433" x2="568.986" y2="256.208" gradientUnits="userSpaceOnUse">
<stop stop-color="white" stop-opacity="0"/>
<stop offset="1" stop-color="#02CEFF"/>
</linearGradient>
<linearGradient id="paint41_linear_2422_67939" x1="432.385" y1="85.8098" x2="432.385" y2="52.0352" gradientUnits="userSpaceOnUse">
<stop stop-color="white" stop-opacity="0"/>
<stop offset="1" stop-color="#02CEFF"/>
</linearGradient>
<linearGradient id="paint42_linear_2422_67939" x1="412.711" y1="46.5732" x2="452.056" y2="46.5732" gradientUnits="userSpaceOnUse">
<stop stop-color="#D3D7F2"/>
<stop offset="0.45" stop-color="#BBC9F8"/>
<stop offset="0.55" stop-color="#D3D7F2"/>
<stop offset="1" stop-color="#F2F3FF"/>
</linearGradient>
<linearGradient id="paint43_linear_2422_67939" x1="421.545" y1="42.1372" x2="430.219" y2="24.792" gradientUnits="userSpaceOnUse">
<stop stop-color="#E8EAFB"/>
<stop offset="1" stop-color="white"/>
</linearGradient>
<linearGradient id="paint44_linear_2422_67939" x1="432.385" y1="7.87658" x2="432.385" y2="41.6513" gradientUnits="userSpaceOnUse">
<stop stop-color="white" stop-opacity="0"/>
<stop offset="1" stop-color="#02CEFF"/>
</linearGradient>
<linearGradient id="paint45_linear_2422_67939" x1="26.16" y1="418.781" x2="26.16" y2="385.006" gradientUnits="userSpaceOnUse">
<stop stop-color="white" stop-opacity="0"/>
<stop offset="1" stop-color="#02CEFF"/>
</linearGradient>
<linearGradient id="paint46_linear_2422_67939" x1="6.4878" y1="379.544" x2="45.8334" y2="379.544" gradientUnits="userSpaceOnUse">
<stop stop-color="#D3D7F2"/>
<stop offset="0.45" stop-color="#BBC9F8"/>
<stop offset="0.55" stop-color="#D3D7F2"/>
<stop offset="1" stop-color="#F2F3FF"/>
</linearGradient>
<linearGradient id="paint47_linear_2422_67939" x1="15.3217" y1="375.108" x2="23.996" y2="357.763" gradientUnits="userSpaceOnUse">
<stop stop-color="#E8EAFB"/>
<stop offset="1" stop-color="white"/>
</linearGradient>
<linearGradient id="paint48_linear_2422_67939" x1="26.16" y1="340.847" x2="26.16" y2="374.622" gradientUnits="userSpaceOnUse">
<stop stop-color="white" stop-opacity="0"/>
<stop offset="1" stop-color="#02CEFF"/>
</linearGradient>
<linearGradient id="paint49_linear_2422_67939" x1="446.622" y1="464.959" x2="421.614" y2="434.268" gradientUnits="userSpaceOnUse">
<stop stop-color="#2962D4"/>
<stop offset="1" stop-color="#3176FF"/>
</linearGradient>
<linearGradient id="paint50_linear_2422_67939" x1="431.547" y1="463.889" x2="431.547" y2="437.049" gradientUnits="userSpaceOnUse">
<stop stop-color="#3176FF"/>
<stop offset="1" stop-color="#66B3FF"/>
</linearGradient>
<linearGradient id="paint51_linear_2422_67939" x1="384.777" y1="250.076" x2="384.777" y2="213.475" gradientUnits="userSpaceOnUse">
<stop stop-color="#222B90"/>
<stop offset="1" stop-color="#4F5BDF"/>
</linearGradient>
<linearGradient id="paint52_linear_2422_67939" x1="387.317" y1="250.077" x2="387.317" y2="215.95" gradientUnits="userSpaceOnUse">
<stop stop-color="#3975B6"/>
<stop offset="1" stop-color="#87C1FF"/>
</linearGradient>
<linearGradient id="paint53_linear_2422_67939" x1="241.136" y1="135.721" x2="258.226" y2="167.141" gradientUnits="userSpaceOnUse">
<stop stop-color="#E1E3F8"/>
<stop offset="1" stop-color="#D3D7F2"/>
</linearGradient>
<linearGradient id="paint54_linear_2422_67939" x1="234.029" y1="152.136" x2="259.641" y2="152.136" gradientUnits="userSpaceOnUse">
<stop stop-color="#E8EAFB"/>
<stop offset="1" stop-color="white"/>
</linearGradient>
<linearGradient id="paint55_linear_2422_67939" x1="387.881" y1="415.442" x2="404.972" y2="446.861" gradientUnits="userSpaceOnUse">
<stop stop-color="#E1E3F8"/>
<stop offset="1" stop-color="#D3D7F2"/>
</linearGradient>
<linearGradient id="paint56_linear_2422_67939" x1="393.58" y1="449.124" x2="393.58" y2="418.384" gradientUnits="userSpaceOnUse">
<stop stop-color="#E8EAFB"/>
<stop offset="1" stop-color="white"/>
</linearGradient>
<linearGradient id="paint57_linear_2422_67939" x1="144.529" y1="198.455" x2="144.529" y2="429.133" gradientUnits="userSpaceOnUse">
<stop stop-color="white" stop-opacity="0"/>
<stop offset="1" stop-color="white"/>
</linearGradient>
<linearGradient id="paint58_linear_2422_67939" x1="144.528" y1="151.086" x2="144.528" y2="421.631" gradientUnits="userSpaceOnUse">
<stop stop-color="white" stop-opacity="0"/>
<stop offset="1" stop-color="white"/>
</linearGradient>
<linearGradient id="paint59_linear_2422_67939" x1="125.634" y1="359.952" x2="105.899" y2="369.92" gradientUnits="userSpaceOnUse">
<stop stop-color="#017AFF"/>
<stop offset="1" stop-color="#79B9FF"/>
</linearGradient>
<linearGradient id="paint60_linear_2422_67939" x1="148.336" y1="370.171" x2="127.005" y2="360.204" gradientUnits="userSpaceOnUse">
<stop stop-color="#017AFF"/>
<stop offset="1" stop-color="#79B9FF"/>
</linearGradient>
<linearGradient id="paint61_linear_2422_67939" x1="106.305" y1="349.051" x2="146.725" y2="349.051" gradientUnits="userSpaceOnUse">
<stop stop-color="#1E69FF"/>
<stop offset="1" stop-color="#6697FF"/>
</linearGradient>
<linearGradient id="paint62_linear_2422_67939" x1="163.552" y1="292.395" x2="158.026" y2="309.197" gradientUnits="userSpaceOnUse">
<stop stop-color="#017AFF"/>
<stop offset="1" stop-color="#79B9FF"/>
</linearGradient>
<linearGradient id="paint63_linear_2422_67939" x1="182.175" y1="285.334" x2="164.47" y2="291.762" gradientUnits="userSpaceOnUse">
<stop stop-color="#017AFF"/>
<stop offset="1" stop-color="#79B9FF"/>
</linearGradient>
<linearGradient id="paint64_linear_2422_67939" x1="146.451" y1="297.163" x2="169.316" y2="274.298" gradientUnits="userSpaceOnUse">
<stop stop-color="#1E69FF"/>
<stop offset="1" stop-color="#6697FF"/>
</linearGradient>
<linearGradient id="paint65_linear_2422_67939" x1="134.094" y1="199.967" x2="120.653" y2="195.546" gradientUnits="userSpaceOnUse">
<stop stop-color="#017AFF"/>
<stop offset="1" stop-color="#79B9FF"/>
</linearGradient>
<linearGradient id="paint66_linear_2422_67939" x1="139.742" y1="214.865" x2="134.6" y2="200.701" gradientUnits="userSpaceOnUse">
<stop stop-color="#017AFF"/>
<stop offset="1" stop-color="#79B9FF"/>
</linearGradient>
<linearGradient id="paint67_linear_2422_67939" x1="130.28" y1="186.286" x2="148.572" y2="204.578" gradientUnits="userSpaceOnUse">
<stop stop-color="#1E69FF"/>
<stop offset="1" stop-color="#6697FF"/>
</linearGradient>
<linearGradient id="paint68_linear_2422_67939" x1="159.227" y1="386.715" x2="180.316" y2="386.715" gradientUnits="userSpaceOnUse">
<stop stop-color="#6AB1FF"/>
<stop offset="1" stop-color="white"/>
</linearGradient>
<linearGradient id="paint69_linear_2422_67939" x1="136.411" y1="250.077" x2="124.481" y2="238.147" gradientUnits="userSpaceOnUse">
<stop stop-color="#6AB1FF"/>
<stop offset="1" stop-color="white"/>
</linearGradient>
<linearGradient id="paint70_linear_2422_67939" x1="160.228" y1="154.903" x2="150.684" y2="164.447" gradientUnits="userSpaceOnUse">
<stop stop-color="#6AB1FF"/>
<stop offset="1" stop-color="white"/>
</linearGradient>
</defs>
</svg>
