<svg width="625" height="551" viewBox="0 -20 595 561" fill="none" xmlns="http://www.w3.org/2000/svg">
<path d="M345.601 339.522H594.34V369.112L469.97 432.636L345.601 369.112V339.522Z" fill="url(#paint0_linear_3370_56269)"/>
<path d="M587.373 370.291L486.806 420.575C477.517 425.219 462.423 425.219 453.135 420.575L352.567 370.291C347.923 367.969 345.601 364.932 345.601 361.896V366.361C345.601 369.398 347.923 372.435 352.567 374.757L453.135 425.04C462.423 429.685 477.517 429.685 486.806 425.04L587.373 374.757C592.018 372.435 594.34 369.398 594.34 366.361V361.896C594.34 364.932 592.018 367.969 587.373 370.291Z" fill="#02CEFF"/>
<path d="M587.373 374.757L486.806 425.041C477.517 429.685 462.423 429.685 453.135 425.041L352.567 374.757C347.923 372.435 345.601 369.398 345.601 366.361V370.827C345.601 373.864 347.923 376.9 352.567 379.223L453.135 429.506C462.423 434.151 477.517 434.151 486.806 429.506L587.373 379.223C592.018 376.9 594.34 373.864 594.34 370.827V366.361C594.34 369.398 592.018 372.435 587.373 374.757Z" fill="white"/>
<path d="M587.373 347.963L486.806 398.246C477.517 402.891 462.423 402.891 453.135 398.246L352.567 347.963C343.278 343.318 343.278 335.771 352.567 331.127L453.135 280.843C462.423 276.199 477.517 276.199 486.806 280.843L587.373 331.127C596.662 335.771 596.662 343.318 587.373 347.963Z" fill="url(#paint1_linear_3370_56269)"/>
<path d="M469.97 396.594C464.299 396.594 458.627 395.522 454.34 393.379L363.821 348.097C359.355 345.864 356.943 342.827 356.943 339.523C356.943 336.218 359.4 333.181 363.821 330.948L454.34 285.666C462.959 281.335 477.026 281.335 485.645 285.666L576.12 330.948C580.585 333.181 582.997 336.218 582.997 339.523C582.997 342.827 580.541 345.864 576.12 348.097L485.6 393.379C481.313 395.522 475.642 396.594 469.97 396.594ZM469.97 284.684C464.656 284.684 459.342 285.711 455.323 287.721L364.803 332.958C361.141 334.789 359.132 337.111 359.132 339.523C359.132 341.934 361.141 344.256 364.803 346.087L455.323 391.369C463.406 395.388 476.535 395.388 484.618 391.369L575.137 346.132C578.799 344.301 580.809 341.979 580.809 339.567C580.809 337.156 578.799 334.834 575.137 333.003L484.618 287.721C480.598 285.666 475.284 284.684 469.97 284.684Z" fill="#D3DAF3"/>
<g opacity="0.3">
<path opacity="0.047619" d="M388.454 346.721L455.663 380.347C458.566 381.821 463.299 381.821 466.202 380.347L482.725 372.086C485.628 370.612 485.628 368.29 482.725 366.816L415.516 333.19C412.614 331.716 407.88 331.716 404.977 333.19L388.454 341.451C385.552 342.925 385.552 345.292 388.454 346.721Z" fill="#A7B1F2"/>
<path opacity="0.095238" d="M390.732 345.604L457.94 379.231C460.843 380.704 465.577 380.704 468.479 379.231L485.003 370.969C487.905 369.496 487.905 367.173 485.003 365.7L417.794 332.073C414.891 330.599 410.157 330.599 407.255 332.073L390.732 340.335C387.829 341.808 387.829 344.175 390.732 345.604Z" fill="#A7B1F2"/>
<path opacity="0.1429" d="M393.009 344.488L460.218 378.115C463.121 379.588 467.854 379.588 470.757 378.115L487.28 369.853C490.183 368.379 490.183 366.057 487.28 364.584L420.027 330.957C417.124 329.483 412.39 329.483 409.488 330.957L392.965 339.218C390.107 340.692 390.107 343.059 393.009 344.488Z" fill="#A7B1F2"/>
<path opacity="0.1905" d="M395.287 343.371L462.495 376.998C465.398 378.472 470.132 378.472 473.034 376.998L489.558 368.736C492.46 367.263 492.46 364.94 489.558 363.467L422.349 329.84C419.446 328.366 414.712 328.366 411.81 329.84L395.287 338.102C392.339 339.575 392.339 341.897 395.287 343.371Z" fill="#A7B1F2"/>
<path opacity="0.2381" d="M397.52 342.255L464.729 375.882C467.631 377.355 472.365 377.355 475.268 375.882L491.791 367.62C494.693 366.146 494.693 363.824 491.791 362.351L424.582 328.724C421.679 327.25 416.946 327.25 414.043 328.724L397.52 336.985C394.617 338.459 394.617 340.781 397.52 342.255Z" fill="#A7B1F2"/>
<path opacity="0.2857" d="M399.797 341.138L467.006 374.765C469.909 376.239 474.642 376.239 477.545 374.765L494.068 366.503C496.971 365.03 496.971 362.708 494.068 361.234L426.859 327.607C423.957 326.134 419.223 326.134 416.32 327.607L399.797 335.869C396.894 337.342 396.894 339.665 399.797 341.138Z" fill="#A7B1F2"/>
<path opacity="0.3333" d="M402.075 340.022L469.283 373.649C472.186 375.122 476.92 375.122 479.823 373.649L496.346 365.387C499.248 363.914 499.248 361.591 496.346 360.118L429.092 326.491C426.189 325.017 421.456 325.017 418.553 326.491L402.03 334.753C399.172 336.226 399.172 338.548 402.075 340.022Z" fill="#A7B1F2"/>
<path opacity="0.381" d="M404.352 338.906L471.561 372.533C474.464 374.006 479.197 374.006 482.1 372.533L498.623 364.271C501.526 362.797 501.526 360.475 498.623 359.001L431.37 325.375C428.467 323.901 423.733 323.901 420.831 325.375L404.308 333.636C401.405 335.11 401.405 337.432 404.352 338.906Z" fill="#A7B1F2"/>
<path opacity="0.4286" d="M406.585 337.789L473.794 371.416C476.697 372.89 481.43 372.89 484.333 371.416L500.856 363.154C503.759 361.681 503.759 359.358 500.856 357.885L433.647 324.258C430.745 322.784 426.011 322.784 423.108 324.258L406.585 332.52C403.683 333.993 403.683 336.315 406.585 337.789Z" fill="#A7B1F2"/>
<path opacity="0.4762" d="M408.863 336.673L476.071 370.3C478.974 371.773 483.708 371.773 486.61 370.3L503.133 362.038C506.036 360.564 506.036 358.242 503.133 356.769L435.925 323.142C433.022 321.668 428.288 321.668 425.386 323.142L408.863 331.403C405.96 332.877 405.96 335.199 408.863 336.673Z" fill="#A7B1F2"/>
<path opacity="0.5238" d="M411.14 335.556L478.349 369.183C481.252 370.657 485.985 370.657 488.888 369.183L505.411 360.921C508.314 359.448 508.314 357.126 505.411 355.652L438.158 322.025C435.255 320.552 430.521 320.552 427.619 322.025L411.095 330.287C408.237 331.76 408.237 334.083 411.14 335.556Z" fill="#A7B1F2"/>
<path opacity="0.5714" d="M413.418 334.44L480.627 368.067C483.529 369.54 488.263 369.54 491.166 368.067L507.689 359.805C510.591 358.331 510.591 356.009 507.689 354.536L440.48 320.909C437.577 319.435 432.844 319.435 429.941 320.909L413.418 329.171C410.515 330.644 410.515 332.966 413.418 334.44Z" fill="#A7B1F2"/>
<path opacity="0.619" d="M415.651 333.323L482.859 366.95C485.762 368.424 490.496 368.424 493.398 366.95L509.922 358.688C512.824 357.215 512.824 354.893 509.922 353.419L442.713 319.792C439.81 318.319 435.076 318.319 432.174 319.792L415.651 328.054C412.748 329.527 412.748 331.85 415.651 333.323Z" fill="#A7B1F2"/>
<path opacity="0.6667" d="M417.928 332.207L485.137 365.834C488.039 367.307 492.773 367.307 495.676 365.834L512.199 357.572C515.102 356.099 515.102 353.776 512.199 352.303L444.99 318.676C442.087 317.202 437.354 317.202 434.451 318.676L417.928 326.938C415.025 328.411 415.025 330.733 417.928 332.207Z" fill="#A7B1F2"/>
<path opacity="0.7143" d="M420.206 331.09L487.414 364.717C490.317 366.191 495.051 366.191 497.953 364.717L514.476 356.456C517.379 354.982 517.379 352.66 514.476 351.186L447.223 317.559C444.32 316.086 439.587 316.086 436.684 317.559L420.161 325.821C417.303 327.25 417.303 329.617 420.206 331.09Z" fill="#A7B1F2"/>
<path opacity="0.7619" d="M422.483 329.974L489.692 363.601C492.595 365.075 497.328 365.075 500.231 363.601L516.754 355.339C519.657 353.866 519.657 351.544 516.754 350.07L449.545 316.443C446.643 314.969 441.909 314.969 439.006 316.443L422.483 324.705C419.58 326.134 419.58 328.501 422.483 329.974Z" fill="#A7B1F2"/>
<path opacity="0.8095" d="M424.716 328.858L491.925 362.485C494.828 363.958 499.561 363.958 502.464 362.485L518.987 354.223C521.89 352.749 521.89 350.427 518.987 348.954L451.778 315.327C448.876 313.853 444.142 313.853 441.239 315.327L424.716 323.588C421.813 325.018 421.813 327.384 424.716 328.858Z" fill="#A7B1F2"/>
<path opacity="0.8571" d="M426.993 327.741L494.202 361.368C497.105 362.842 501.839 362.842 504.741 361.368L521.264 353.106C524.167 351.633 524.167 349.311 521.264 347.837L454.056 314.21C451.153 312.737 446.419 312.737 443.517 314.21L426.993 322.472C424.091 323.901 424.091 326.268 426.993 327.741Z" fill="#A7B1F2"/>
<path opacity="0.9048" d="M429.271 326.625L496.48 360.252C499.382 361.725 504.116 361.725 507.019 360.252L523.542 351.99C526.445 350.517 526.445 348.194 523.542 346.721L456.288 313.094C453.386 311.62 448.652 311.62 445.749 313.094L429.226 321.356C426.368 322.785 426.368 325.151 429.271 326.625Z" fill="#A7B1F2"/>
<path opacity="0.9524" d="M431.549 325.508L498.757 359.135C501.66 360.609 506.394 360.609 509.296 359.135L525.819 350.874C528.722 349.4 528.722 347.078 525.819 345.604L458.611 311.977C455.708 310.504 450.974 310.504 448.072 311.977L431.549 320.239C428.646 321.668 428.646 324.035 431.549 325.508Z" fill="#A7B1F2"/>
<path d="M433.826 324.392L501.035 358.019C503.937 359.493 508.671 359.493 511.574 358.019L528.097 349.757C531 348.284 531 345.961 528.097 344.488L460.843 310.861C457.941 309.387 453.207 309.387 450.304 310.861L433.781 319.123C430.879 320.552 430.879 322.918 433.826 324.392Z" fill="#A7B1F2"/>
</g>
<path d="M519.657 198.191L462.942 169.834C460.754 168.762 458.834 168.762 457.539 169.611L449.322 173.719C449.099 173.809 448.831 173.943 448.652 174.077H448.607C447.536 174.791 446.866 176.086 446.866 177.872V306.529C446.866 310.459 450.081 315.282 454.011 317.247L510.725 345.604C512.869 346.676 514.789 346.676 516.084 345.872L524.48 341.674C524.613 341.63 524.747 341.54 524.881 341.451L524.971 341.406C526.087 340.692 526.757 339.397 526.757 337.566V208.909C526.802 204.979 523.586 200.156 519.657 198.191Z" fill="url(#paint2_linear_3370_56269)"/>
<path d="M454.011 317.202L510.725 345.559C514.655 347.524 517.87 345.917 517.87 341.987V213.375C517.87 209.445 514.655 204.622 510.725 202.657L454.011 174.3C450.081 172.335 446.866 173.943 446.866 177.873V306.529C446.866 310.459 450.036 315.237 454.011 317.202Z" fill="url(#paint3_linear_3370_56269)"/>
<path d="M501.794 207.123L445.079 178.766C442.891 177.694 440.971 177.694 439.676 178.543L431.459 182.651C431.236 182.74 430.968 182.874 430.789 183.008H430.745C429.673 183.723 429.003 185.018 429.003 186.804V315.461C429.003 319.391 432.218 324.214 436.148 326.178L492.862 354.536C495.006 355.607 496.926 355.607 498.221 354.804L506.617 350.606C506.751 350.561 506.885 350.472 507.019 350.383L507.108 350.338C508.224 349.623 508.894 348.328 508.894 346.497V217.841C508.939 213.911 505.724 209.088 501.794 207.123Z" fill="url(#paint4_linear_3370_56269)"/>
<path d="M436.148 326.134L492.862 354.491C496.792 356.456 500.007 354.848 500.007 350.919V222.307C500.007 218.377 496.792 213.554 492.862 211.589L436.148 183.232C432.218 181.267 429.003 182.874 429.003 186.804V315.461C429.003 319.391 432.174 324.169 436.148 326.134Z" fill="url(#paint5_linear_3370_56269)"/>
<path d="M418.285 335.065L475 363.422C478.929 365.387 482.145 363.78 482.145 359.85V231.238C482.145 227.308 478.929 222.485 475 220.52L418.285 192.163C414.355 190.198 411.14 191.806 411.14 195.735V324.392C411.14 328.322 414.311 333.1 418.285 335.065Z" fill="url(#paint6_linear_3370_56269)"/>
<path opacity="0.047619" d="M465.879 311.703C473.189 305.997 471.522 291.647 462.158 279.653C452.793 267.658 439.276 262.562 431.967 268.268C424.657 273.975 426.324 288.325 435.688 300.319C445.053 312.313 458.57 317.41 465.879 311.703Z" fill="#A7B1F2"/>
<path opacity="0.095238" d="M465.873 310.679C473.182 304.972 471.516 290.622 462.151 278.628C452.787 266.634 439.27 261.537 431.96 267.243C424.651 272.95 426.317 287.3 435.682 299.294C445.047 311.288 458.564 316.385 465.873 310.679Z" fill="#A7B1F2"/>
<path opacity="0.1429" d="M465.867 309.654C473.176 303.947 471.51 289.598 462.145 277.603C452.78 265.609 439.263 260.512 431.954 266.219C424.645 271.926 426.311 286.276 435.676 298.27C445.04 310.264 458.557 315.361 465.867 309.654Z" fill="#A7B1F2"/>
<path opacity="0.1905" d="M465.86 308.628C473.169 302.921 471.503 288.572 462.139 276.578C452.774 264.583 439.257 259.486 431.948 265.193C424.638 270.9 426.304 285.25 435.669 297.244C445.034 309.238 458.551 314.335 465.86 308.628Z" fill="#A7B1F2"/>
<path opacity="0.2381" d="M465.854 307.604C473.163 301.897 471.497 287.547 462.132 275.553C452.767 263.559 439.251 258.462 431.941 264.169C424.632 269.876 426.298 284.225 435.663 296.22C445.028 308.214 458.544 313.311 465.854 307.604Z" fill="#A7B1F2"/>
<path opacity="0.2857" d="M465.875 306.614C473.184 300.907 471.518 286.558 462.153 274.563C452.789 262.569 439.272 257.472 431.962 263.179C424.653 268.886 426.319 283.235 435.684 295.23C445.049 307.224 458.566 312.321 465.875 306.614Z" fill="#A7B1F2"/>
<path opacity="0.3333" d="M465.869 305.589C473.178 299.882 471.512 285.533 462.147 273.538C452.782 261.544 439.265 256.447 431.956 262.154C424.647 267.861 426.313 282.211 435.678 294.205C445.042 306.199 458.559 311.296 465.869 305.589Z" fill="#A7B1F2"/>
<path opacity="0.381" d="M465.862 304.564C473.172 298.857 471.505 284.508 462.141 272.514C452.776 260.519 439.259 255.422 431.95 261.129C424.64 266.836 426.307 281.186 435.671 293.18C445.036 305.174 458.553 310.271 465.862 304.564Z" fill="#A7B1F2"/>
<path opacity="0.4286" d="M465.856 303.54C473.165 297.833 471.499 283.483 462.134 271.489C452.77 259.495 439.253 254.398 431.943 260.105C424.634 265.812 426.3 280.161 435.665 292.156C445.03 304.15 458.547 309.247 465.856 303.54Z" fill="#A7B1F2"/>
<path opacity="0.4762" d="M465.877 302.55C473.187 296.843 471.52 282.493 462.156 270.499C452.791 258.505 439.274 253.408 431.965 259.115C424.655 264.821 426.322 279.171 435.686 291.165C445.051 303.16 458.568 308.257 465.877 302.55Z" fill="#A7B1F2"/>
<path opacity="0.5238" d="M465.871 301.525C473.18 295.818 471.514 281.468 462.149 269.474C452.785 257.48 439.268 252.383 431.958 258.09C424.649 263.797 426.315 278.146 435.68 290.14C445.045 302.135 458.562 307.232 465.871 301.525Z" fill="#A7B1F2"/>
<path opacity="0.5714" d="M465.865 300.5C473.174 294.793 471.508 280.443 462.143 268.449C452.778 256.455 439.261 251.358 431.952 257.065C424.643 262.772 426.309 277.121 435.674 289.116C445.038 301.11 458.555 306.207 465.865 300.5Z" fill="#A7B1F2"/>
<path opacity="0.619" d="M465.858 299.475C473.168 293.768 471.501 279.418 462.137 267.424C452.772 255.43 439.255 250.333 431.946 256.04C424.636 261.747 426.303 276.096 435.667 288.091C445.032 300.085 458.549 305.182 465.858 299.475Z" fill="#A7B1F2"/>
<path opacity="0.6667" d="M465.879 298.485C473.189 292.778 471.522 278.429 462.158 266.434C452.793 254.44 439.276 249.343 431.967 255.05C424.657 260.757 426.324 275.107 435.688 287.101C445.053 299.095 458.57 304.192 465.879 298.485Z" fill="#A7B1F2"/>
<path opacity="0.7143" d="M465.873 297.461C473.182 291.754 471.516 277.404 462.151 265.41C452.787 253.416 439.27 248.319 431.96 254.026C424.651 259.733 426.317 274.082 435.682 286.076C445.047 298.071 458.564 303.168 465.873 297.461Z" fill="#A7B1F2"/>
<path opacity="0.7619" d="M465.866 296.435C473.176 290.729 471.51 276.379 462.145 264.385C452.78 252.39 439.263 247.293 431.954 253C424.645 258.707 426.311 273.057 435.676 285.051C445.04 297.045 458.557 302.142 465.866 296.435Z" fill="#A7B1F2"/>
<path opacity="0.8095" d="M465.86 295.411C473.17 289.704 471.503 275.354 462.139 263.36C452.774 251.365 439.257 246.269 431.948 251.975C424.638 257.682 426.304 272.032 435.669 284.026C445.034 296.02 458.551 301.117 465.86 295.411Z" fill="#A7B1F2"/>
<path opacity="0.8571" d="M465.854 294.386C473.163 288.679 471.497 274.329 462.132 262.335C452.768 250.341 439.251 245.244 431.941 250.951C424.632 256.657 426.298 271.007 435.663 283.001C445.028 294.996 458.545 300.092 465.854 294.386Z" fill="#A7B1F2"/>
<path opacity="0.9048" d="M465.875 293.396C473.184 287.689 471.518 273.339 462.153 261.345C452.789 249.351 439.272 244.254 431.962 249.961C424.653 255.668 426.319 270.017 435.684 282.011C445.049 294.006 458.566 299.103 465.875 293.396Z" fill="#A7B1F2"/>
<path opacity="0.9524" d="M465.869 292.371C473.178 286.665 471.512 272.315 462.147 260.321C452.783 248.326 439.266 243.229 431.956 248.936C424.647 254.643 426.313 268.993 435.678 280.987C445.043 292.981 458.56 298.078 465.869 292.371Z" fill="#A7B1F2"/>
<path d="M465.862 291.346C473.172 285.639 471.506 271.29 462.141 259.295C452.776 247.301 439.259 242.204 431.95 247.911C424.64 253.618 426.307 267.967 435.671 279.962C445.036 291.956 458.553 297.053 465.862 291.346Z" fill="#A7B1F2"/>
<path d="M465.622 274.778C465.22 272.456 464.416 270.089 463.255 267.811L466.336 265.221L463.21 260.532L459.102 261.559C457.405 259.55 455.44 257.764 453.341 256.29L452.626 250.842L448.205 248.654L441.15 252.182L437.577 247.716L434.451 249.279L428.154 252.449L425.028 254.012L427.708 258.88L420.652 262.408V266.829L425.743 270.089C426.145 272.411 426.949 274.778 428.11 277.055L425.028 279.646L428.154 284.335L432.263 283.307C433.96 285.317 435.925 287.103 438.024 288.577L438.738 294.025L443.159 296.213L450.215 292.685L453.788 297.151L456.914 295.588L466.336 290.899L463.657 286.032L470.713 282.504V278.083L465.622 274.778Z" fill="url(#paint7_linear_3370_56269)"/>
<path d="M425.743 270.134C426.145 272.456 426.949 274.823 428.11 277.1L425.028 279.69L428.154 284.379L432.263 283.352C433.96 285.362 435.925 287.148 438.024 288.622L438.738 294.07L443.159 296.258L443.874 291.524C445.973 292.194 447.938 292.328 449.634 292.016L453.743 297.151L456.869 295.588L453.788 289.917C454.949 288.8 455.752 287.237 456.154 285.362L461.245 287.193V282.772L456.154 279.512C455.752 277.189 454.949 274.823 453.788 272.545L456.869 269.955L453.743 265.266L449.634 266.293C447.938 264.284 445.973 262.497 443.874 261.024L443.159 255.575L438.738 253.387L438.024 258.121C435.925 257.451 433.96 257.317 432.263 257.63L428.154 252.494L425.028 254.057L428.11 259.729C426.949 260.845 426.145 262.408 425.743 264.284L420.652 262.453V266.874L425.743 270.134ZM435.3 271.965C435.3 268.839 437.845 267.588 440.971 269.151C444.097 270.714 446.642 274.51 446.642 277.636C446.642 280.762 444.097 282.012 440.971 280.449C437.845 278.886 435.3 275.091 435.3 271.965Z" fill="url(#paint8_linear_3370_56269)"/>
<path d="M483.931 216.054L427.217 187.697C425.028 186.625 423.108 186.625 421.813 187.474L413.596 191.582C414.847 191.136 416.499 191.27 418.285 192.163L474.999 220.52C478.929 222.485 482.145 227.308 482.145 231.238V359.894C482.145 361.725 481.475 363.02 480.358 363.735L488.754 359.537C488.888 359.492 489.022 359.403 489.156 359.314L489.245 359.269C490.361 358.555 491.031 357.259 491.031 355.429V226.772C491.076 222.842 487.861 218.019 483.931 216.054Z" fill="url(#paint9_linear_3370_56269)"/>
<path d="M195.017 124.678H443.712V150.737L319.364 212.825L195.017 150.737V124.678Z" fill="url(#paint10_linear_3370_56269)"/>
<path d="M436.745 133.073L336.178 183.357C326.889 188.001 311.795 188.001 302.506 183.357L201.984 133.073C192.695 128.429 192.695 120.882 201.984 116.238L302.551 65.9539C311.84 61.3096 326.934 61.3096 336.222 65.9539L436.745 116.238C446.079 120.882 446.079 128.429 436.745 133.073Z" fill="url(#paint11_linear_3370_56269)"/>
<path d="M195.017 124.678H443.712V148.234L319.364 212.825L195.017 148.234V124.678Z" fill="url(#paint12_linear_3370_56269)"/>
<path d="M436.745 150.936L336.178 201.22C326.889 205.864 311.795 205.864 302.506 201.22L201.984 150.936C197.339 148.614 195.017 145.577 195.017 142.541V147.006C195.017 150.043 197.339 153.08 201.984 155.402L302.551 205.685C311.84 210.33 326.934 210.33 336.222 205.685L436.745 155.402C441.39 153.08 443.712 150.043 443.712 147.006V142.541C443.712 145.577 441.39 148.614 436.745 150.936Z" fill="#02CEFF"/>
<path d="M436.745 155.402L336.178 205.686C326.889 210.33 311.795 210.33 302.506 205.686L201.984 155.402C197.339 153.08 195.017 150.043 195.017 147.006V151.472C195.017 154.509 197.339 157.545 201.984 159.868L302.551 210.151C311.84 214.796 326.934 214.796 336.222 210.151L436.745 159.868C441.39 157.545 443.712 154.509 443.712 151.472V147.006C443.712 150.043 441.39 153.08 436.745 155.402Z" fill="white"/>
<path d="M436.745 133.073L336.178 183.357C326.889 188.001 311.795 188.001 302.506 183.357L201.984 133.073C192.695 128.429 192.695 120.882 201.984 116.238L302.551 65.9539C311.84 61.3096 326.934 61.3096 336.222 65.9539L436.745 116.238C446.079 120.882 446.079 128.429 436.745 133.073Z" fill="url(#paint13_linear_3370_56269)"/>
<path d="M319.387 181.749C313.715 181.749 308.044 180.678 303.757 178.534L213.193 133.252C208.727 131.019 206.315 127.982 206.315 124.678C206.315 121.373 208.772 118.337 213.193 116.104L303.712 70.8215C312.331 66.4898 326.398 66.4898 335.017 70.8215L425.536 116.104C430.002 118.337 432.414 121.373 432.414 124.678C432.414 127.982 429.958 131.019 425.536 133.252L335.017 178.489C330.685 180.633 325.014 181.749 319.387 181.749ZM319.387 69.7944C314.073 69.7944 308.759 70.8215 304.739 72.8311L214.22 118.069C210.558 119.9 208.548 122.222 208.548 124.633C208.548 127.045 210.558 129.367 214.22 131.198L304.739 176.48C312.822 180.499 325.951 180.499 334.034 176.48L424.554 131.198C428.216 129.367 430.225 127.045 430.225 124.633C430.225 122.222 428.216 119.9 424.554 118.069L334.034 72.8311C329.971 70.7769 324.656 69.7944 319.387 69.7944Z" fill="#D3DAF3"/>
<path opacity="0.032258" d="M230.564 124.812L317.823 168.442C326.844 172.952 341.492 172.952 350.512 168.442C359.533 163.931 359.533 156.607 350.512 152.097L263.253 108.467C254.232 103.957 239.584 103.957 230.564 108.467C221.498 112.978 221.498 120.301 230.564 124.812Z" fill="#BEDDFF"/>
<path opacity="0.064516" d="M232.216 123.964L319.476 167.593C328.496 172.104 343.144 172.104 352.165 167.593C361.185 163.083 361.185 155.759 352.165 151.249L264.905 107.619C255.884 103.109 241.237 103.109 232.216 107.619C223.151 112.129 223.151 119.453 232.216 123.964Z" fill="#BEDDFF"/>
<path opacity="0.096774" d="M233.869 123.16L321.128 166.789C330.149 171.3 344.796 171.3 353.817 166.789C362.838 162.279 362.838 154.955 353.817 150.445L266.557 106.77C257.537 102.26 242.889 102.26 233.869 106.77C224.848 111.325 224.848 118.649 233.869 123.16Z" fill="#BEDDFF"/>
<path opacity="0.129" d="M235.521 122.311L322.781 165.941C331.801 170.451 346.449 170.451 355.469 165.941C364.49 161.431 364.49 154.107 355.469 149.597L268.21 105.967C259.189 101.456 244.542 101.456 235.521 105.967C226.5 110.477 226.5 117.801 235.521 122.311Z" fill="#BEDDFF"/>
<path opacity="0.1613" d="M237.173 121.507L324.433 165.137C333.454 169.647 348.101 169.647 357.122 165.137C366.143 160.627 366.143 153.303 357.122 148.792L269.862 105.163C260.841 100.652 246.194 100.652 237.173 105.163C228.153 109.628 228.153 116.952 237.173 121.507Z" fill="#BEDDFF"/>
<path opacity="0.1935" d="M238.825 120.659L326.085 164.289C335.106 168.799 349.753 168.799 358.774 164.289C367.794 159.778 367.794 152.455 358.774 147.944L271.514 104.314C262.493 99.8041 247.846 99.8041 238.825 104.314C229.804 108.825 229.804 116.149 238.825 120.659Z" fill="#BEDDFF"/>
<path opacity="0.2258" d="M240.478 119.81L327.782 163.485C336.803 167.995 351.45 167.995 360.471 163.485C369.492 158.975 369.492 151.651 360.471 147.141L273.211 103.511C264.191 99.0003 249.543 99.0003 240.522 103.511C231.457 107.976 231.457 115.3 240.478 119.81Z" fill="#BEDDFF"/>
<path opacity="0.2581" d="M242.175 119.007L329.435 162.636C338.455 167.147 353.103 167.147 362.123 162.636C371.144 158.126 371.144 150.802 362.123 146.292L274.864 102.662C265.843 98.1517 251.196 98.1517 242.175 102.662C233.154 107.172 233.11 114.496 242.175 119.007Z" fill="#BEDDFF"/>
<path opacity="0.2903" d="M243.827 118.158L331.087 161.788C340.108 166.298 354.755 166.298 363.776 161.788C372.797 157.277 372.797 149.954 363.776 145.443L276.516 101.813C267.495 97.3031 252.848 97.3031 243.827 101.813C234.807 106.324 234.762 113.648 243.827 118.158Z" fill="#BEDDFF"/>
<path opacity="0.3226" d="M245.479 117.354L332.739 160.984C341.76 165.494 356.407 165.494 365.428 160.984C374.449 156.473 374.449 149.15 365.428 144.639L278.168 100.965C269.148 96.4544 254.5 96.4544 245.479 100.965C236.459 105.52 236.459 112.844 245.479 117.354Z" fill="#BEDDFF"/>
<path opacity="0.3548" d="M247.132 116.506L334.391 160.135C343.412 164.646 358.06 164.646 367.08 160.135C376.101 155.625 376.101 148.301 367.08 143.791L279.821 100.161C270.8 95.6507 256.152 95.6507 247.132 100.161C238.111 104.671 238.111 111.995 247.132 116.506Z" fill="#BEDDFF"/>
<path opacity="0.3871" d="M248.784 115.702L336.044 159.332C345.065 163.842 359.712 163.842 368.733 159.332C377.753 154.821 377.753 147.498 368.733 142.987L281.473 99.3574C272.452 94.847 257.805 94.847 248.784 99.3574C239.763 103.823 239.763 111.147 248.784 115.702Z" fill="#BEDDFF"/>
<path opacity="0.4194" d="M250.436 114.853L337.696 158.483C346.717 162.993 361.364 162.993 370.385 158.483C379.406 153.973 379.406 146.649 370.385 142.139L283.125 98.5087C274.105 93.9984 259.457 93.9984 250.436 98.5087C241.416 103.019 241.416 110.343 250.436 114.853Z" fill="#BEDDFF"/>
<path opacity="0.4516" d="M252.089 114.005L339.393 157.679C348.414 162.19 363.061 162.19 372.082 157.679C381.103 153.169 381.103 145.845 372.082 141.335L284.822 97.705C275.801 93.1947 261.154 93.1947 252.133 97.705C243.068 102.171 243.068 109.494 252.089 114.005Z" fill="#BEDDFF"/>
<path opacity="0.4839" d="M253.785 113.201L341.045 156.831C350.066 161.341 364.713 161.341 373.734 156.831C382.755 152.32 382.755 144.997 373.734 140.486L286.474 96.8564C277.454 92.346 262.806 92.346 253.785 96.8564C244.72 101.367 244.72 108.69 253.785 113.201Z" fill="#BEDDFF"/>
<path opacity="0.5161" d="M255.438 112.353L342.697 155.983C351.718 160.493 366.366 160.493 375.386 155.983C384.407 151.472 384.407 144.148 375.386 139.638L288.127 96.0083C279.106 91.4979 264.458 91.4979 255.438 96.0083C246.372 100.519 246.372 107.842 255.438 112.353Z" fill="#BEDDFF"/>
<path opacity="0.5484" d="M257.09 111.549L344.35 155.179C353.371 159.689 368.018 159.689 377.039 155.179C386.06 150.668 386.06 143.344 377.039 138.834L289.779 95.1596C280.758 90.6493 266.111 90.6493 257.09 95.1596C248.07 99.7146 248.07 107.038 257.09 111.549Z" fill="#BEDDFF"/>
<path opacity="0.5806" d="M258.743 110.7L346.002 154.33C355.023 158.841 369.67 158.841 378.691 154.33C387.712 149.82 387.712 142.496 378.691 137.986L291.431 94.3559C282.411 89.8456 267.763 89.8456 258.743 94.3559C249.722 98.8663 249.722 106.19 258.743 110.7Z" fill="#BEDDFF"/>
<path opacity="0.6129" d="M260.394 109.896L347.654 153.526C356.675 158.036 371.322 158.036 380.343 153.526C389.364 149.016 389.364 141.692 380.343 137.182L293.083 93.5517C284.063 89.0414 269.415 89.0414 260.394 93.5517C251.374 98.0174 251.374 105.341 260.394 109.896Z" fill="#BEDDFF"/>
<path opacity="0.6452" d="M262.047 109.048L349.306 152.678C358.327 157.188 372.975 157.188 381.995 152.678C391.016 148.168 391.016 140.844 381.995 136.333L294.736 92.7036C285.715 88.1932 271.067 88.1932 262.047 92.7036C253.026 97.2139 253.026 104.538 262.047 109.048Z" fill="#BEDDFF"/>
<path opacity="0.6774" d="M263.699 108.2L351.004 151.874C360.024 156.385 374.672 156.385 383.693 151.874C392.713 147.364 392.713 140.04 383.693 135.53L296.433 91.8999C287.412 87.3895 272.765 87.3895 263.744 91.8999C254.679 96.3656 254.679 103.689 263.699 108.2Z" fill="#BEDDFF"/>
<path opacity="0.7097" d="M265.396 107.396L352.656 151.026C361.677 155.536 376.324 155.536 385.345 151.026C394.366 146.515 394.366 139.191 385.345 134.681L298.085 91.0512C289.064 86.5409 274.417 86.5409 265.396 91.0512C256.331 95.5616 256.331 102.885 265.396 107.396Z" fill="#BEDDFF"/>
<path opacity="0.7419" d="M267.049 106.547L354.308 150.177C363.329 154.687 377.976 154.687 386.997 150.177C396.018 145.667 396.018 138.343 386.997 133.832L299.737 90.2026C290.717 85.6922 276.069 85.6922 267.049 90.2026C257.983 94.7129 257.983 102.037 267.049 106.547Z" fill="#BEDDFF"/>
<path opacity="0.7742" d="M268.701 105.744L355.961 149.373C364.981 153.884 379.629 153.884 388.65 149.373C397.67 144.863 397.67 137.539 388.65 133.029L301.39 89.3544C292.369 84.8441 277.722 84.8441 268.701 89.3544C259.68 93.9095 259.68 101.233 268.701 105.744Z" fill="#BEDDFF"/>
<path opacity="0.8065" d="M270.353 104.895L357.613 148.525C366.634 153.035 381.281 153.035 390.302 148.525C399.323 144.014 399.323 136.69 390.302 132.18L303.042 88.5502C294.022 84.0399 279.374 84.0399 270.353 88.5502C261.333 93.0606 261.333 100.384 270.353 104.895Z" fill="#BEDDFF"/>
<path opacity="0.8387" d="M272.006 104.091L359.265 147.721C368.286 152.231 382.934 152.231 391.954 147.721C400.975 143.21 400.975 135.887 391.954 131.376L304.695 87.7465C295.674 83.2362 281.026 83.2362 272.006 87.7465C262.985 92.2122 262.985 99.536 272.006 104.091Z" fill="#BEDDFF"/>
<path opacity="0.871" d="M273.658 103.242L360.917 146.872C369.938 151.383 384.586 151.383 393.606 146.872C402.627 142.362 402.627 135.038 393.606 130.528L306.347 86.8979C297.326 82.3875 282.678 82.3875 273.658 86.8979C264.637 91.4083 264.637 98.732 273.658 103.242Z" fill="#BEDDFF"/>
<path opacity="0.9032" d="M275.31 102.394L362.615 146.068C371.635 150.579 386.283 150.579 395.304 146.068C404.324 141.558 404.324 134.234 395.304 129.724L308.044 86.0942C299.023 81.5838 284.376 81.5838 275.355 86.0942C266.29 90.5599 266.29 97.8836 275.31 102.394Z" fill="#BEDDFF"/>
<path opacity="0.9355" d="M277.007 101.59L364.267 145.22C373.287 149.73 387.935 149.73 396.956 145.22C405.976 140.71 405.976 133.386 396.956 128.875L309.696 85.2456C300.675 80.7352 286.028 80.7352 277.007 85.2456C267.942 89.7559 267.942 97.0796 277.007 101.59Z" fill="#BEDDFF"/>
<path opacity="0.9677" d="M278.659 100.742L365.919 144.372C374.94 148.882 389.587 148.882 398.608 144.372C407.629 139.861 407.629 132.538 398.608 128.027L311.348 84.3974C302.327 79.8871 287.68 79.8871 278.659 84.3974C269.639 88.9078 269.594 96.2315 278.659 100.742Z" fill="#BEDDFF"/>
<path d="M280.312 99.9379L367.572 143.568C376.592 148.078 391.24 148.078 400.261 143.568C409.281 139.057 409.281 131.734 400.261 127.223L313.001 83.5488C303.98 79.0384 289.333 79.0384 280.312 83.5488C271.291 88.1038 271.291 95.3829 280.312 99.9379Z" fill="#BEDDFF"/>
<path d="M380.612 139.37C380.701 139.414 380.79 139.459 380.924 139.504C395.482 146.783 407.316 140.888 407.316 126.33C407.316 111.772 395.482 93.9984 380.924 86.7193C380.076 86.2727 379.227 85.9154 378.379 85.5582C379.852 82.0303 380.656 77.8325 380.656 73.0542C380.656 49.7433 361.766 21.3861 338.411 9.68601C315.1 -1.96946 296.165 7.45316 296.165 30.8088C296.165 32.0145 296.21 33.2202 296.344 34.426C293.709 32.3717 290.896 30.5855 288.038 29.1564C270.398 20.3144 256.108 27.4595 256.108 45.1436C256.108 62.7831 270.398 84.2631 288.038 93.0606L380.612 139.37Z" fill="url(#paint14_linear_3370_56269)"/>
<path d="M274.328 22.8151L265.486 27.1914C271.247 24.3334 279.24 24.78 287.993 29.1563C290.851 30.5854 293.664 32.4163 296.299 34.4259C296.21 33.2201 296.121 32.0144 296.121 30.8086C296.121 28.9777 296.254 27.2361 296.478 25.5838C290.181 22.2792 280.178 20.4482 274.328 22.8151ZM399.323 141.245L399.412 141.201C399.412 141.201 399.367 141.201 399.323 141.245ZM390.302 82.0302C389.454 81.5836 388.605 81.2264 387.757 80.8691C389.23 77.3412 390.034 73.1434 390.034 68.3652C390.034 45.0542 371.144 16.697 347.789 4.99692C337.384 -0.183284 327.872 -1.21039 320.548 1.33505L320.414 1.37971C319.074 1.87094 308.848 6.96183 308.848 6.96183C316.484 3.29996 326.889 3.92516 338.411 9.6859C361.722 21.3414 380.656 49.6985 380.656 73.0541C380.656 77.8324 379.852 81.9855 378.379 85.5581C379.227 85.9153 380.076 86.2726 380.924 86.7192C395.482 93.9982 407.316 111.727 407.316 126.33C407.316 133.564 404.414 138.655 399.725 141.067L409.46 136.199C413.97 133.698 416.739 128.697 416.739 121.641C416.694 107.038 404.86 89.3093 390.302 82.0302Z" fill="url(#paint15_linear_3370_56269)"/>
<path d="M361.32 149.016C361.409 149.06 361.498 149.105 361.632 149.15C376.19 156.429 388.024 150.534 388.024 135.976C388.024 121.418 376.19 103.644 361.632 96.3653C360.784 95.9187 359.935 95.5614 359.087 95.2042C360.56 91.6763 361.364 87.4785 361.364 82.7002C361.364 59.3893 342.474 31.0321 319.119 19.332C295.808 7.67654 276.873 17.0992 276.873 40.4547C276.873 41.6605 276.918 42.8662 277.052 44.072C274.417 42.0177 271.604 40.2315 268.746 38.8024C251.106 29.9604 236.816 37.1055 236.816 54.7896C236.816 72.4291 251.106 93.9091 268.746 102.707L361.32 149.016Z" fill="url(#paint16_linear_3370_56269)"/>
<path d="M255.036 32.4164L246.194 36.7928C251.955 33.9347 259.948 34.3813 268.701 38.7577C271.559 40.1867 274.372 42.0176 277.007 44.0272C276.918 42.8215 276.829 41.6157 276.829 40.41C276.829 38.5791 276.963 36.8374 277.186 35.1851C270.889 31.8805 260.886 30.0942 255.036 32.4164ZM380.075 150.847L380.165 150.802C380.12 150.847 380.075 150.847 380.075 150.847ZM371.01 91.6762C370.162 91.2296 369.313 90.8724 368.465 90.5151C369.938 86.9872 370.742 82.7895 370.742 78.0112C370.742 54.7002 351.852 26.343 328.497 14.6429C318.092 9.46271 308.58 8.4356 301.256 10.981L301.122 11.0257C299.782 11.5169 289.556 16.6078 289.556 16.6078C297.192 12.946 307.597 13.5712 319.119 19.3319C342.43 30.9874 361.364 59.3445 361.364 82.7001C361.364 87.4784 360.56 91.6315 359.087 95.2041C359.935 95.5613 360.784 95.9186 361.632 96.3652C376.19 103.644 388.024 121.373 388.024 135.976C388.024 143.21 385.122 148.301 380.433 150.713L390.168 145.845C394.678 143.344 397.447 138.343 397.447 131.287C397.447 116.684 385.613 98.9553 371.01 91.6762Z" fill="url(#paint17_linear_3370_56269)"/>
<path d="M342.072 158.662C342.162 158.707 342.251 158.752 342.385 158.796C356.943 166.075 368.777 160.181 368.777 145.622C368.777 131.064 356.943 113.291 342.385 106.012C341.537 105.565 340.688 105.208 339.84 104.851C341.313 101.323 342.117 97.125 342.117 92.3467C342.117 69.0358 323.227 40.6786 299.872 28.9785C276.561 17.323 257.626 26.7456 257.626 50.1012C257.626 51.307 257.671 52.5127 257.805 53.7184C255.17 51.6642 252.357 49.8779 249.499 48.4489C231.859 39.6068 217.569 46.752 217.569 64.4361C217.569 82.0756 231.859 103.556 249.499 112.353L342.072 158.662Z" fill="url(#paint18_linear_3370_56269)"/>
<path d="M235.789 42.0629L226.947 46.4393C232.708 43.5812 240.701 44.0278 249.454 48.4042C252.312 49.8332 255.125 51.6641 257.76 53.6737C257.671 52.4679 257.581 51.2622 257.581 50.0565C257.581 48.2255 257.715 46.4839 257.939 44.8316C251.642 41.527 241.639 39.7407 235.789 42.0629ZM360.784 160.493L360.873 160.449C360.873 160.493 360.828 160.493 360.784 160.493ZM351.763 101.323C350.915 100.876 350.066 100.519 349.218 100.162C350.691 96.6337 351.495 92.4359 351.495 87.6576C351.495 64.3467 332.605 35.9895 309.25 24.2894C298.844 19.1092 289.333 18.0821 282.009 20.6275L281.875 20.6722C280.535 21.1634 270.309 26.2543 270.309 26.2543C277.945 22.5924 288.35 23.2176 299.872 28.9784C323.183 40.6785 342.072 69.0357 342.072 92.3466C342.072 97.1249 341.269 101.278 339.795 104.851C340.643 105.208 341.492 105.565 342.34 106.012C356.899 113.291 368.733 131.02 368.733 145.622C368.733 152.857 365.83 157.948 361.141 160.359L370.876 155.492C375.387 152.991 378.155 147.989 378.155 140.933C378.155 126.331 366.321 108.602 351.763 101.323Z" fill="url(#paint19_linear_3370_56269)"/>
<path d="M377.619 266.33L319.387 237.213C313.001 234.043 302.685 234.043 296.299 237.213L238.066 266.33C234.896 267.937 233.288 269.992 233.288 272.091V295.893C233.288 297.992 234.896 300.09 238.066 301.653L296.299 330.77C302.685 333.94 313.001 333.94 319.387 330.77L377.619 301.653C380.79 300.046 382.398 297.992 382.398 295.893V272.091C382.398 269.992 380.79 267.893 377.619 266.33Z" fill="url(#paint20_linear_3370_56269)"/>
<path d="M377.619 277.852L319.387 306.968C313.001 310.139 302.685 310.139 296.299 306.968L238.066 277.852C231.68 274.681 231.68 269.501 238.066 266.33L296.299 237.214C302.685 234.043 313.001 234.043 319.387 237.214L377.619 266.33C383.961 269.501 383.961 274.681 377.619 277.852Z" fill="url(#paint21_linear_3370_56269)"/>
<path d="M291.074 284.684L299.559 280.441L291.074 276.199L282.589 280.441L291.074 284.684ZM307.821 276.333L316.305 272.091L307.821 267.848L299.336 272.091L307.821 276.333ZM316.082 263.695L324.567 267.937L333.052 263.695L324.567 259.453L316.082 263.695Z" fill="#75A4FF"/>
<path d="M444.248 439.688L427.546 431.337C426.295 430.712 425.179 430.667 424.375 431.069L419.418 433.57C419.329 433.615 419.284 433.615 419.195 433.659C418.436 434.106 417.989 434.91 417.989 436.115V452.817C417.989 455.273 419.999 458.265 422.455 459.516L439.157 467.867C440.407 468.492 441.523 468.536 442.327 468.135L447.284 465.634C447.374 465.589 447.418 465.589 447.463 465.544C448.222 465.098 448.669 464.294 448.669 463.088V446.387C448.669 443.886 446.704 440.894 444.248 439.688Z" fill="url(#paint22_linear_3370_56269)"/>
<path d="M439.157 467.822L422.455 459.471C419.999 458.22 417.989 455.228 417.989 452.772V436.07C417.989 433.614 419.999 432.587 422.455 433.838L439.157 442.188C441.613 443.439 443.622 446.431 443.622 448.887V465.589C443.622 468.045 441.613 469.072 439.157 467.822Z" fill="url(#paint23_linear_3370_56269)"/>
<path d="M259.501 140.978L242.8 132.627C241.549 132.002 240.433 131.957 239.629 132.359L234.672 134.86C234.583 134.904 234.538 134.904 234.449 134.949C233.69 135.395 233.243 136.199 233.243 137.405V154.107C233.243 156.563 235.253 159.555 237.709 160.805L254.411 169.156C255.661 169.781 256.777 169.826 257.581 169.424L262.538 166.923C262.627 166.879 262.672 166.879 262.717 166.834C263.476 166.387 263.923 165.584 263.923 164.378V147.676C263.967 145.175 261.958 142.183 259.501 140.978Z" fill="url(#paint24_linear_3370_56269)"/>
<path d="M254.455 169.112L237.754 160.761C235.298 159.51 233.288 156.518 233.288 154.062V137.361C233.288 134.904 235.298 133.877 237.754 135.128L254.455 143.479C256.912 144.729 258.921 147.721 258.921 150.177V166.879C258.877 169.335 256.912 170.362 254.455 169.112Z" fill="url(#paint25_linear_3370_56269)"/>
<path d="M260.842 446.744L160.274 497.072C150.986 501.716 135.891 501.716 126.603 497.072L26.0353 446.744C16.7467 442.099 16.7467 434.552 26.0353 429.908L126.603 379.624C135.891 374.98 150.986 374.98 160.274 379.624L260.842 429.908C270.13 434.597 270.13 442.099 260.842 446.744Z" fill="url(#paint26_linear_3370_56269)"/>
<g opacity="0.4">
<path opacity="0.047619" d="M124.281 486.31C176.246 486.31 218.373 465.257 218.373 439.286C218.373 413.315 176.246 392.262 124.281 392.262C72.315 392.262 30.1885 413.315 30.1885 439.286C30.1885 465.257 72.315 486.31 124.281 486.31Z" fill="#BEDDFF"/>
<path opacity="0.095238" d="M125.263 485.819C177.204 485.819 219.31 464.765 219.31 438.795C219.31 412.824 177.204 391.771 125.263 391.771C73.3219 391.771 31.2153 412.824 31.2153 438.795C31.2153 464.765 73.3219 485.819 125.263 485.819Z" fill="#BEDDFF"/>
<path opacity="0.1429" d="M126.246 485.327C178.211 485.327 220.338 464.274 220.338 438.304C220.338 412.333 178.211 391.28 126.246 391.28C74.2799 391.28 32.1533 412.333 32.1533 438.304C32.1533 464.274 74.2799 485.327 126.246 485.327Z" fill="#BEDDFF"/>
<path opacity="0.1905" d="M127.228 484.836C179.169 484.836 221.275 463.783 221.275 437.812C221.275 411.842 179.169 390.789 127.228 390.789C75.2867 390.789 33.1802 411.842 33.1802 437.812C33.1802 463.783 75.2867 484.836 127.228 484.836Z" fill="#BEDDFF"/>
<path opacity="0.2381" d="M128.21 484.345C180.151 484.345 222.258 463.292 222.258 437.321C222.258 411.351 180.151 390.297 128.21 390.297C76.2691 390.297 34.1626 411.351 34.1626 437.321C34.1626 463.292 76.2691 484.345 128.21 484.345Z" fill="#BEDDFF"/>
<path opacity="0.2857" d="M129.193 483.854C181.134 483.854 223.24 462.8 223.24 436.83C223.24 410.859 181.134 389.806 129.193 389.806C77.2515 389.806 35.145 410.859 35.145 436.83C35.145 462.8 77.2515 483.854 129.193 483.854Z" fill="#BEDDFF"/>
<path opacity="0.3333" d="M130.131 483.363C182.072 483.363 224.178 462.309 224.178 436.339C224.178 410.368 182.072 389.315 130.131 389.315C78.1895 389.315 36.083 410.368 36.083 436.339C36.083 462.309 78.1895 483.363 130.131 483.363Z" fill="#BEDDFF"/>
<path opacity="0.381" d="M131.113 482.871C183.079 482.871 225.205 461.818 225.205 435.848C225.205 409.877 183.079 388.824 131.113 388.824C79.1475 388.824 37.021 409.877 37.021 435.848C37.021 461.818 79.1475 482.871 131.113 482.871Z" fill="#BEDDFF"/>
<path opacity="0.4286" d="M132.095 482.425C184.036 482.425 226.143 461.371 226.143 435.401C226.143 409.43 184.036 388.377 132.095 388.377C80.1544 388.377 38.0479 409.43 38.0479 435.401C38.0479 461.371 80.1544 482.425 132.095 482.425Z" fill="#BEDDFF"/>
<path opacity="0.4762" d="M133.078 481.933C185.044 481.933 227.17 460.88 227.17 434.91C227.17 408.939 185.044 387.886 133.078 387.886C81.1124 387.886 38.9858 408.939 38.9858 434.91C38.9858 460.88 81.1124 481.933 133.078 481.933Z" fill="#BEDDFF"/>
<path opacity="0.5238" d="M134.06 481.442C186.001 481.442 228.108 460.389 228.108 434.418C228.108 408.448 186.001 387.395 134.06 387.395C82.1192 387.395 40.0127 408.448 40.0127 434.418C40.0127 460.389 82.1192 481.442 134.06 481.442Z" fill="#BEDDFF"/>
<path opacity="0.5714" d="M134.998 480.951C186.939 480.951 229.046 459.898 229.046 433.927C229.046 407.957 186.939 386.903 134.998 386.903C83.0572 386.903 40.9507 407.957 40.9507 433.927C40.9507 459.898 83.0572 480.951 134.998 480.951Z" fill="#BEDDFF"/>
<path opacity="0.619" d="M135.981 480.46C187.922 480.46 230.028 459.406 230.028 433.436C230.028 407.465 187.922 386.412 135.981 386.412C84.0396 386.412 41.9331 407.465 41.9331 433.436C41.9331 459.406 84.0396 480.46 135.981 480.46Z" fill="#BEDDFF"/>
<path opacity="0.6667" d="M136.963 479.968C188.904 479.968 231.011 458.915 231.011 432.945C231.011 406.974 188.904 385.921 136.963 385.921C85.0221 385.921 42.9155 406.974 42.9155 432.945C42.9155 458.915 85.0221 479.968 136.963 479.968Z" fill="#BEDDFF"/>
<path opacity="0.7143" d="M137.946 479.477C189.887 479.477 231.993 458.424 231.993 432.453C231.993 406.483 189.887 385.43 137.946 385.43C86.0045 385.43 43.8979 406.483 43.8979 432.453C43.8979 458.424 86.0045 479.477 137.946 479.477Z" fill="#BEDDFF"/>
<path opacity="0.7619" d="M138.928 478.986C190.869 478.986 232.976 457.933 232.976 431.962C232.976 405.992 190.869 384.938 138.928 384.938C86.9869 384.938 44.8804 405.992 44.8804 431.962C44.8804 457.933 86.9869 478.986 138.928 478.986Z" fill="#BEDDFF"/>
<path opacity="0.8095" d="M139.91 478.495C191.851 478.495 233.958 457.442 233.958 431.471C233.958 405.501 191.851 384.447 139.91 384.447C87.9693 384.447 45.8628 405.501 45.8628 431.471C45.8628 457.442 87.9693 478.495 139.91 478.495Z" fill="#BEDDFF"/>
<path opacity="0.8571" d="M140.848 478.004C192.814 478.004 234.94 456.95 234.94 430.98C234.94 405.009 192.814 383.956 140.848 383.956C88.8824 383.956 46.7559 405.009 46.7559 430.98C46.7559 456.95 88.8824 478.004 140.848 478.004Z" fill="#BEDDFF"/>
<path opacity="0.9048" d="M141.831 477.512C193.796 477.512 235.923 456.459 235.923 430.489C235.923 404.518 193.796 383.465 141.831 383.465C89.8648 383.465 47.7383 404.518 47.7383 430.489C47.7383 456.459 89.8648 477.512 141.831 477.512Z" fill="#BEDDFF"/>
<path opacity="0.9524" d="M142.813 477.066C194.754 477.066 236.861 456.013 236.861 430.042C236.861 404.072 194.754 383.019 142.813 383.019C90.8722 383.019 48.7656 404.072 48.7656 430.042C48.7656 456.013 90.8722 477.066 142.813 477.066Z" fill="#BEDDFF"/>
<path d="M143.796 476.574C195.737 476.574 237.843 455.521 237.843 429.551C237.843 403.58 195.737 382.527 143.796 382.527C91.8546 382.527 49.748 403.58 49.748 429.551C49.748 455.521 91.8546 476.574 143.796 476.574Z" fill="#BEDDFF"/>
</g>
<path d="M49.7031 414.636V430.042C49.7031 442.1 58.9025 454.112 77.2565 463.312C114.009 481.666 173.537 481.666 210.29 463.312C228.644 454.112 237.843 442.1 237.843 430.042V414.636H49.7031V414.636Z" fill="url(#paint27_linear_3370_56269)"/>
<path d="M143.795 461.659C195.736 461.659 237.843 440.606 237.843 414.636C237.843 388.665 195.736 367.612 143.795 367.612C91.8541 367.612 49.7476 388.665 49.7476 414.636C49.7476 440.606 91.8541 461.659 143.795 461.659Z" fill="url(#paint28_linear_3370_56269)"/>
<g opacity="0.3">
<path opacity="0.047619" d="M134.329 450.094C174.555 450.094 207.164 433.779 207.164 413.653C207.164 393.528 174.555 377.213 134.329 377.213C94.1027 377.213 61.4932 393.528 61.4932 413.653C61.4932 433.779 94.1027 450.094 134.329 450.094Z" fill="#A7B1F2"/>
<path opacity="0.095238" d="M134.82 449.87C175.046 449.87 207.655 433.555 207.655 413.43C207.655 393.305 175.046 376.99 134.82 376.99C94.5939 376.99 61.9844 393.305 61.9844 413.43C61.9844 433.555 94.5939 449.87 134.82 449.87Z" fill="#A7B1F2"/>
<path opacity="0.1429" d="M135.266 449.647C175.492 449.647 208.102 433.332 208.102 413.207C208.102 393.081 175.492 376.767 135.266 376.767C95.0402 376.767 62.4307 393.081 62.4307 413.207C62.4307 433.332 95.0402 449.647 135.266 449.647Z" fill="#A7B1F2"/>
<path opacity="0.1905" d="M135.757 449.379C175.983 449.379 208.593 433.064 208.593 412.939C208.593 392.813 175.983 376.499 135.757 376.499C95.5314 376.499 62.9219 392.813 62.9219 412.939C62.9219 433.064 95.5314 449.379 135.757 449.379Z" fill="#A7B1F2"/>
<path opacity="0.2381" d="M136.204 449.156C176.43 449.156 209.04 432.841 209.04 412.715C209.04 392.59 176.43 376.275 136.204 376.275C95.9782 376.275 63.3687 392.59 63.3687 412.715C63.3687 432.841 95.9782 449.156 136.204 449.156Z" fill="#A7B1F2"/>
<path opacity="0.2857" d="M136.695 448.932C176.921 448.932 209.531 432.618 209.531 412.492C209.531 392.367 176.921 376.052 136.695 376.052C96.4694 376.052 63.8599 392.367 63.8599 412.492C63.8599 432.618 96.4694 448.932 136.695 448.932Z" fill="#A7B1F2"/>
<path opacity="0.3333" d="M137.142 448.709C177.368 448.709 209.977 432.394 209.977 412.269C209.977 392.143 177.368 375.829 137.142 375.829C96.9157 375.829 64.3062 392.143 64.3062 412.269C64.3062 432.394 96.9157 448.709 137.142 448.709Z" fill="#A7B1F2"/>
<path opacity="0.381" d="M137.633 448.441C177.859 448.441 210.469 432.126 210.469 412.001C210.469 391.876 177.859 375.561 137.633 375.561C97.4074 375.561 64.7979 391.876 64.7979 412.001C64.7979 432.126 97.4074 448.441 137.633 448.441Z" fill="#A7B1F2"/>
<path opacity="0.4286" d="M138.08 448.218C178.306 448.218 210.915 431.903 210.915 411.778C210.915 391.653 178.306 375.338 138.08 375.338C97.8537 375.338 65.2441 391.653 65.2441 411.778C65.2441 431.903 97.8537 448.218 138.08 448.218Z" fill="#A7B1F2"/>
<path opacity="0.4762" d="M138.571 447.994C178.797 447.994 211.406 431.68 211.406 411.554C211.406 391.429 178.797 375.114 138.571 375.114C98.3449 375.114 65.7354 391.429 65.7354 411.554C65.7354 431.68 98.3449 447.994 138.571 447.994Z" fill="#A7B1F2"/>
<path opacity="0.5238" d="M139.018 447.771C179.244 447.771 211.853 431.456 211.853 411.331C211.853 391.206 179.244 374.891 139.018 374.891C98.7917 374.891 66.1821 391.206 66.1821 411.331C66.1821 431.456 98.7917 447.771 139.018 447.771Z" fill="#A7B1F2"/>
<path opacity="0.5714" d="M139.464 447.503C179.69 447.503 212.299 431.188 212.299 411.063C212.299 390.938 179.69 374.623 139.464 374.623C99.238 374.623 66.6284 390.938 66.6284 411.063C66.6284 431.188 99.238 447.503 139.464 447.503Z" fill="#A7B1F2"/>
<path opacity="0.619" d="M139.955 447.28C180.181 447.28 212.791 430.965 212.791 410.84C212.791 390.715 180.181 374.4 139.955 374.4C99.7292 374.4 67.1196 390.715 67.1196 410.84C67.1196 430.965 99.7292 447.28 139.955 447.28Z" fill="#A7B1F2"/>
<path opacity="0.6667" d="M140.402 447.057C180.628 447.057 213.237 430.742 213.237 410.617C213.237 390.492 180.628 374.177 140.402 374.177C100.176 374.177 67.5664 390.492 67.5664 410.617C67.5664 430.742 100.176 447.057 140.402 447.057Z" fill="#A7B1F2"/>
<path opacity="0.7143" d="M140.893 446.833C181.119 446.833 213.729 430.519 213.729 410.393C213.729 390.268 181.119 373.953 140.893 373.953C100.667 373.953 68.0576 390.268 68.0576 410.393C68.0576 430.519 100.667 446.833 140.893 446.833Z" fill="#A7B1F2"/>
<path opacity="0.7619" d="M141.339 446.61C181.565 446.61 214.175 430.295 214.175 410.17C214.175 390.045 181.565 373.73 141.339 373.73C101.113 373.73 68.5039 390.045 68.5039 410.17C68.5039 430.295 101.113 446.61 141.339 446.61Z" fill="#A7B1F2"/>
<path opacity="0.8095" d="M141.831 446.342C182.057 446.342 214.666 430.027 214.666 409.902C214.666 389.777 182.057 373.462 141.831 373.462C101.605 373.462 68.9951 389.777 68.9951 409.902C68.9951 430.027 101.605 446.342 141.831 446.342Z" fill="#A7B1F2"/>
<path opacity="0.8571" d="M142.277 446.119C182.503 446.119 215.113 429.804 215.113 409.679C215.113 389.554 182.503 373.239 142.277 373.239C102.051 373.239 69.4419 389.554 69.4419 409.679C69.4419 429.804 102.051 446.119 142.277 446.119Z" fill="#A7B1F2"/>
<path opacity="0.9048" d="M142.769 445.896C182.995 445.896 215.604 429.581 215.604 409.456C215.604 389.33 182.995 373.016 142.769 373.016C102.543 373.016 69.9331 389.33 69.9331 409.456C69.9331 429.581 102.543 445.896 142.769 445.896Z" fill="#A7B1F2"/>
<path opacity="0.9524" d="M143.215 445.672C183.441 445.672 216.051 429.357 216.051 409.232C216.051 389.107 183.441 372.792 143.215 372.792C102.989 372.792 70.3799 389.107 70.3799 409.232C70.3799 429.357 102.989 445.672 143.215 445.672Z" fill="#A7B1F2"/>
<path d="M143.707 445.405C183.933 445.405 216.542 429.09 216.542 408.965C216.542 388.839 183.933 372.524 143.707 372.524C103.481 372.524 70.8711 388.839 70.8711 408.965C70.8711 429.09 103.481 445.405 143.707 445.405Z" fill="#A7B1F2"/>
</g>
<path d="M143.796 429.953C183.972 429.953 216.542 413.658 216.542 393.558C216.542 373.457 183.972 357.162 143.796 357.162C103.619 357.162 71.0493 373.457 71.0493 393.558C71.0493 413.658 103.619 429.953 143.796 429.953Z" fill="url(#paint29_linear_3370_56269)"/>
<path d="M195.24 419.28C166.839 433.481 120.753 433.481 92.3507 419.28C78.1498 412.18 71.0493 402.846 71.0493 393.558V409.322C71.0493 418.655 78.1498 427.943 92.3507 435.044C120.753 449.245 166.839 449.245 195.24 435.044C209.441 427.943 216.542 418.61 216.542 409.322V393.558C216.542 402.846 209.441 412.18 195.24 419.28Z" fill="url(#paint30_linear_3370_56269)"/>
<path d="M143.795 422.674C175.932 422.674 201.983 409.638 201.983 393.557C201.983 377.477 175.932 364.441 143.795 364.441C111.659 364.441 85.6074 377.477 85.6074 393.557C85.6074 409.638 111.659 422.674 143.795 422.674Z" fill="url(#paint31_linear_3370_56269)"/>
<path d="M102.622 382.438C125.352 371.051 162.194 371.051 184.925 382.438C193.856 386.904 199.304 392.486 201.18 398.291C204.083 389.36 198.679 379.893 184.925 372.971C162.194 361.583 125.352 361.583 102.622 372.971C88.8676 379.848 83.4195 389.36 86.3668 398.291C88.2871 392.486 93.6906 386.904 102.622 382.438Z" fill="#B4C1F3"/>
<path class="" d="M216.542 200.193H71.0494V392.709C70.6474 402.266 77.7479 411.912 92.3507 419.191C120.753 433.392 166.839 433.392 195.24 419.191C209.843 411.912 216.944 402.266 216.542 392.709V200.193V200.193Z" fill="url(#paint32_linear_3370_56269)"/>
<path d="M202.207 153.08H85.3843V392.62C85.0717 400.301 90.7432 408.027 102.488 413.877C125.308 425.264 162.284 425.264 185.103 413.877C196.803 408.027 202.52 400.301 202.207 392.62V153.08Z" fill="url(#paint33_linear_3370_56269)"/>
<path d="M302.372 407.089L284.063 397.889V379.58L302.372 388.735V407.089Z" fill="url(#paint34_linear_3370_56269)"/>
<path d="M320.726 397.889L302.372 407.089V388.735L320.726 379.58V397.889Z" fill="url(#paint35_linear_3370_56269)"/>
<path d="M320.726 379.58L302.372 388.735L284.063 379.58L302.372 370.425L320.726 379.58Z" fill="url(#paint36_linear_3370_56269)"/>
<path d="M308.669 474.521L321.351 468.18C324.924 466.393 330.685 466.393 334.257 468.18L347.833 474.967C349.619 475.861 350.512 477.022 350.512 478.183V489.258C350.512 490.419 349.619 491.58 347.833 492.473L335.15 498.814C331.578 500.6 325.817 500.6 322.244 498.814L308.669 492.026C306.882 491.133 305.989 489.972 305.989 488.811V477.736C305.989 476.575 306.882 475.414 308.669 474.521Z" fill="url(#paint37_linear_3370_56269)"/>
<path d="M308.669 480.951L322.244 487.739C325.817 489.526 331.578 489.526 335.15 487.739L347.833 481.398C351.405 479.612 351.405 476.709 347.833 474.967L334.257 468.18C330.685 466.393 324.924 466.393 321.351 468.18L308.669 474.521C305.096 476.307 305.096 479.165 308.669 480.951Z" fill="url(#paint38_linear_3370_56269)"/>
<path d="M275.533 447.593L288.216 441.251C291.789 439.465 297.549 439.465 301.122 441.251L314.698 448.039C316.484 448.932 317.377 450.093 317.377 451.255V462.329C317.377 463.49 316.484 464.652 314.698 465.545L302.015 471.886C298.442 473.672 292.682 473.672 289.109 471.886L275.533 465.098C273.747 464.205 272.854 463.044 272.854 461.883V450.808C272.854 449.647 273.747 448.486 275.533 447.593Z" fill="url(#paint39_linear_3370_56269)"/>
<path d="M275.533 454.068L289.109 460.856C292.682 462.642 298.442 462.642 302.015 460.856L314.698 454.514C318.27 452.728 318.27 449.825 314.698 448.084L301.122 441.251C297.549 439.465 291.789 439.465 288.216 441.251L275.533 447.593C271.961 449.379 271.961 452.282 275.533 454.068Z" fill="url(#paint40_linear_3370_56269)"/>
<path d="M242.443 420.709L255.125 414.368C258.698 412.581 264.458 412.581 268.031 414.368L281.607 421.155C283.393 422.049 284.286 423.21 284.286 424.371V435.446C284.286 436.607 283.393 437.768 281.607 438.661L268.924 445.002C265.352 446.789 259.591 446.789 256.018 445.002L242.443 438.214C240.656 437.321 239.763 436.16 239.763 434.999V423.924C239.763 422.763 240.656 421.602 242.443 420.709Z" fill="url(#paint41_linear_3370_56269)"/>
<path d="M242.443 427.139L256.018 433.927C259.591 435.714 265.352 435.714 268.924 433.927L281.607 427.586C285.179 425.8 285.179 422.897 281.607 421.155L268.031 414.368C264.458 412.581 258.698 412.581 255.125 414.368L242.443 420.709C238.87 422.495 238.87 425.398 242.443 427.139Z" fill="url(#paint42_linear_3370_56269)"/>
<path d="M326.442 465.634C328.095 466.438 329.568 467.331 330.953 468.224C332.65 469.341 332.65 471.886 330.953 473.003C329.613 473.896 328.095 474.789 326.442 475.593C326.398 475.593 326.398 475.637 326.353 475.637C320.146 478.719 312.822 478.719 306.615 475.637C306.57 475.637 306.57 475.593 306.525 475.593L326.442 465.634Z" fill="#EBF0FF"/>
<path d="M297.415 462.776C295.763 461.972 294.289 461.079 292.905 460.186C291.208 459.07 291.208 456.524 292.905 455.408C294.245 454.515 295.763 453.621 297.415 452.818C297.46 452.818 297.46 452.773 297.505 452.773C303.712 449.692 311.036 449.692 317.243 452.773C317.288 452.773 317.288 452.818 317.332 452.818L297.415 462.776Z" fill="#EBF0FF"/>
<path d="M291.253 451.79L303.846 449.602V454.246C303.846 455.943 302.417 457.238 300.72 457.104C297.192 456.792 292.325 456.077 290.717 455.407C288.395 454.47 288.975 452.237 291.253 451.79Z" fill="#8EAAE8"/>
<path d="M296.924 449.111L295.808 418.968C295.719 417.092 296.701 415.395 298.219 414.457L299.023 413.966L316.529 403.114C320.146 400.882 324.924 401.998 327.157 405.615C329.39 409.232 328.273 414.011 324.656 416.244C324.254 416.467 323.808 416.69 323.406 416.869L304.248 424.416L307.463 419.37L304.248 449.379C304.025 451.433 302.194 452.907 300.184 452.684C298.353 452.46 296.969 450.897 296.924 449.111Z" fill="#130F40"/>
<path d="M329.613 477.468C327.157 476.664 323.093 474.119 321.441 472.601C319.699 470.993 320.905 469.162 323.138 469.519L332.694 470.725V475.369C332.694 476.798 331.355 478.004 329.613 477.468Z" fill="#8EAAE8"/>
<path d="M332.159 407.267L333.186 469.028C333.23 471.082 331.578 472.779 329.524 472.779C327.648 472.824 326.085 471.439 325.817 469.608L316.797 408.518C316.171 404.32 319.074 400.39 323.317 399.765C327.514 399.14 331.444 402.042 332.069 406.285C332.114 406.597 332.159 406.955 332.159 407.267Z" fill="#130F40"/>
<path d="M320.637 368.103L319.967 373.774L326.353 373.417V366.54L320.637 368.103Z" fill="#F3ABC7"/>
<path d="M318.359 366.808C318.359 367.701 319.565 369.041 321.262 368.371C321.843 368.148 325.46 366.496 325.46 366.496C325.46 366.496 325.371 360.422 324.656 359.886C323.674 359.127 321.217 358.993 320.19 359.708C318.717 360.824 318.359 364.843 318.359 366.808Z" fill="#F3ABC7"/>
<path d="M320.28 361.628C321.173 362.164 321.218 364.084 321.218 364.754C321.218 366.317 323.718 368.416 326.353 368.371C326.353 365.781 330.372 360.869 326.978 360.869C325.728 357.073 320.235 359.127 318.94 358.502C318.181 359.261 318.627 360.601 320.28 361.628Z" fill="#130F40"/>
<path d="M311.348 377.436C316.707 373.373 325.773 370.693 331.935 370.023C334.391 369.755 336.222 370.872 337.071 373.328C337.651 374.98 337.517 376.811 336.848 378.419C333.186 386.904 333.186 395.255 333.186 402.712C332.159 406.419 307.955 412.492 306.793 408.607L308.58 382.215C308.714 380.339 309.785 378.597 311.348 377.436Z" fill="white"/>
<path d="M296.478 403.516L296.522 400.435C295.361 399.676 295.361 398.291 293.754 398.202L292.414 399.095L290.137 399.453C289.288 399.676 289.422 400.48 290.003 400.658L290.226 400.703C290.271 401.373 290.404 401.998 290.628 402.579C290.94 403.382 296.478 403.516 296.478 403.516Z" fill="#F3ABC7"/>
<path d="M296.656 399.006C297.728 398.738 298.8 398.47 299.872 398.158C300.944 397.845 301.971 397.532 303.042 397.175C305.141 396.505 307.24 395.791 309.339 395.032L307.24 397.488C307.508 394.898 307.731 392.308 307.955 389.717C308.044 388.422 308.178 387.127 308.267 385.832C308.357 384.537 308.446 383.242 308.535 381.947C308.625 379.804 310.455 378.196 312.599 378.285C314.743 378.375 316.35 380.206 316.261 382.349C316.261 382.572 316.216 382.796 316.172 383.019C315.859 384.269 315.591 385.564 315.323 386.815C315.055 388.065 314.787 389.36 314.519 390.611C314.028 393.156 313.537 395.702 313.046 398.247L313.001 398.56C312.822 399.631 311.974 400.435 310.991 400.658C308.848 401.105 306.66 401.596 304.516 402.132C303.444 402.4 302.373 402.668 301.301 402.981C300.229 403.293 299.202 403.606 298.13 403.963C296.79 404.41 295.317 403.695 294.87 402.355C294.424 401.016 295.138 399.542 296.478 399.095C296.478 399.051 296.567 399.051 296.656 399.006Z" fill="white"/>
<g class="up">
<path d="M558.167 300.135V271.555C558.167 271.287 558.391 270.974 558.793 270.795L566.652 266.866C567.501 266.419 568.93 266.419 569.778 266.866L577.638 270.795C578.084 271.019 578.263 271.287 578.263 271.555V300.135H558.167Z" fill="url(#paint43_linear_3370_56269)"/>
<path d="M568.26 287.453C566.742 287.453 565.223 287.14 564.062 286.56L544.904 276.958C543.118 276.065 542.85 274.904 542.85 274.279C542.85 273.654 543.118 272.493 544.904 271.599L564.062 261.998C566.429 260.837 570.091 260.837 572.458 261.998L591.616 271.599C593.402 272.493 593.67 273.654 593.67 274.279C593.67 274.904 593.402 276.065 591.616 276.958L572.458 286.56C571.252 287.14 569.734 287.453 568.26 287.453ZM568.26 262.936C567.01 262.936 565.804 263.159 564.866 263.606L545.708 273.207C545.038 273.52 544.636 273.966 544.636 274.324C544.636 274.681 545.038 275.083 545.708 275.44L564.866 285.041C566.697 285.979 569.823 285.979 571.654 285.041L590.812 275.44C591.482 275.127 591.883 274.681 591.883 274.324C591.883 273.966 591.482 273.564 590.812 273.207L571.654 263.606C570.716 263.159 569.466 262.936 568.26 262.936Z" fill="#02CEFF"/>
<path d="M586.837 249.718L571.297 241.947C569.6 241.099 566.831 241.099 565.134 241.947L549.593 249.718C548.745 250.164 548.298 250.7 548.298 251.236V270.93C548.298 271.466 548.745 272.046 549.593 272.448L565.134 280.218C566.831 281.067 569.6 281.067 571.297 280.218L586.837 272.448C587.686 272.002 588.132 271.466 588.132 270.93V251.236C588.132 250.7 587.686 250.164 586.837 249.718Z" fill="url(#paint44_linear_3370_56269)"/>
<path d="M586.837 252.799L571.297 260.569C569.6 261.418 566.831 261.418 565.134 260.569L549.593 252.799C547.896 251.951 547.896 250.566 549.593 249.718L565.134 241.947C566.831 241.099 569.6 241.099 571.297 241.947L586.837 249.718C588.534 250.566 588.534 251.951 586.837 252.799Z" fill="url(#paint45_linear_3370_56269)"/>
<path d="M577.683 252.04L569.823 255.969C568.974 256.416 567.545 256.416 566.697 255.969L558.837 252.04C557.989 251.593 557.989 250.923 558.837 250.477L566.697 246.547C567.545 246.1 568.974 246.1 569.823 246.547L577.683 250.477C578.531 250.923 578.531 251.638 577.683 252.04Z" fill="#D3DAF3"/>
<path d="M558.167 222.7V251.281C558.167 251.549 558.391 251.861 558.793 252.04L566.652 255.97C567.501 256.416 568.93 256.416 569.778 255.97L577.638 252.04C578.084 251.817 578.263 251.549 578.263 251.281V222.7H558.167Z" fill="url(#paint46_linear_3370_56269)"/>
</g>
<g class="up">
	<path d="M421.562 85.5585V56.978C421.562 56.7101 421.785 56.3975 422.187 56.2188L430.046 52.289C430.895 51.8425 432.324 51.8425 433.172 52.289L441.032 56.2188C441.479 56.4421 441.657 56.7101 441.657 56.978V85.5585H421.562Z" fill="url(#paint47_linear_3370_56269)"/>
	<path d="M431.654 72.8761C430.136 72.8761 428.617 72.5635 427.456 71.9829L408.298 62.3817C406.512 61.4885 406.244 60.3275 406.244 59.7023C406.244 59.0771 406.512 57.916 408.298 57.0228L427.456 47.4216C429.823 46.2605 433.485 46.2605 435.852 47.4216L455.01 57.0228C456.796 57.916 457.064 59.0771 457.064 59.7023C457.064 60.3275 456.796 61.4885 455.01 62.3817L435.852 72.0276C434.646 72.6081 433.172 72.8761 431.654 72.8761ZM431.654 48.3594C430.404 48.3594 429.198 48.5827 428.26 49.0292L409.102 58.6305C408.432 58.9431 408.03 59.3897 408.03 59.7469C408.03 60.1042 408.432 60.5061 409.102 60.8633L428.26 70.4646C430.091 71.4024 433.217 71.4024 435.048 70.4646L454.206 60.8633C454.876 60.5507 455.277 60.1042 455.277 59.7469C455.277 59.3897 454.876 58.9877 454.206 58.6305L435.048 49.0292C434.11 48.5827 432.86 48.3594 431.654 48.3594Z" fill="#02CEFF"/>
	<path d="M450.231 35.1855L434.691 27.4152C432.994 26.5667 430.225 26.5667 428.528 27.4152L412.987 35.1855C412.139 35.6321 411.692 36.1679 411.692 36.7038V56.3975C411.692 56.9334 412.139 57.514 412.987 57.9159L428.528 65.6862C430.225 66.5347 432.994 66.5347 434.691 65.6862L450.231 57.9159C451.08 57.4693 451.526 56.9334 451.526 56.3975V36.7038C451.526 36.1679 451.08 35.5874 450.231 35.1855Z" fill="url(#paint48_linear_3370_56269)"/>
	<path d="M450.231 38.2668L434.735 46.0371C433.038 46.8856 430.27 46.8856 428.573 46.0371L413.032 38.2668C411.335 37.4183 411.335 36.034 413.032 35.1855L428.573 27.4152C430.27 26.5667 433.038 26.5667 434.735 27.4152L450.276 35.1855C451.928 36.034 451.928 37.4183 450.231 38.2668Z" fill="url(#paint49_linear_3370_56269)"/>
	<path d="M441.077 37.5079L433.217 41.4377C432.368 41.8843 430.939 41.8843 430.091 41.4377L422.231 37.5079C421.383 37.0613 421.383 36.3915 422.231 35.9449L430.091 32.0151C430.939 31.5685 432.368 31.5685 433.217 32.0151L441.077 35.9449C441.925 36.3468 441.925 37.0613 441.077 37.5079Z" fill="#D3DAF3"/>
	<path d="M421.562 8.12354V36.704C421.562 36.9719 421.785 37.2845 422.187 37.4632L430.046 41.393C430.895 41.8395 432.324 41.8395 433.172 41.393L441.032 37.4632C441.479 37.2399 441.657 36.9719 441.657 36.704V8.12354H421.562V8.12354Z" fill="url(#paint50_linear_3370_56269)"/>
</g>
<g class="up">
	<path d="M15.3618 418.521V389.94C15.3618 389.672 15.5851 389.36 15.987 389.181L23.8466 385.251C24.6951 384.805 26.1241 384.805 26.9726 385.251L34.8323 389.181C35.2788 389.405 35.4574 389.672 35.4574 389.94V418.521H15.3618Z" fill="url(#paint51_linear_3370_56269)"/>
	<path d="M25.4098 405.838C23.8915 405.838 22.3731 405.526 21.2121 404.945L2.05422 395.389C0.267942 394.495 0 393.334 0 392.709C0 392.084 0.267942 390.923 2.05422 390.03L21.2121 380.428C23.5789 379.267 27.2407 379.267 29.6076 380.428L48.7654 390.03C50.5517 390.923 50.8196 392.084 50.8196 392.709C50.8196 393.334 50.5517 394.495 48.7654 395.389L29.6076 404.99C28.4465 405.57 26.9281 405.838 25.4098 405.838ZM25.4098 381.322C24.1594 381.322 22.9537 381.545 22.0159 381.991L2.85805 391.593C2.18819 391.905 1.78628 392.352 1.78628 392.709C1.78628 393.066 2.18819 393.468 2.85805 393.826L22.0159 403.427C23.8468 404.365 26.9728 404.365 28.8037 403.427L47.9616 393.826C48.6314 393.513 49.0333 393.066 49.0333 392.709C49.0333 392.352 48.6314 391.95 47.9616 391.593L28.8037 381.991C27.9106 381.545 26.6602 381.322 25.4098 381.322Z" fill="#02CEFF"/>
	<path d="M44.0316 368.148L28.491 360.378C26.794 359.529 24.0253 359.529 22.3284 360.378L6.78773 368.148C5.93925 368.594 5.49268 369.13 5.49268 369.666V389.36C5.49268 389.896 5.93925 390.476 6.78773 390.878L22.3284 398.693C24.0253 399.542 26.794 399.542 28.491 398.693L44.0316 390.923C44.8801 390.476 45.3267 389.94 45.3267 389.405V369.711C45.282 369.13 44.8801 368.594 44.0316 368.148Z" fill="url(#paint52_linear_3370_56269)"/>
	<path d="M44.0318 371.229L28.4911 379C26.7942 379.848 24.0254 379.848 22.3285 379L6.78786 371.229C5.0909 370.381 5.0909 368.996 6.78786 368.148L22.3285 360.378C24.0254 359.529 26.7942 359.529 28.4911 360.378L44.0318 368.148C45.7287 368.996 45.7287 370.381 44.0318 371.229Z" fill="url(#paint53_linear_3370_56269)"/>
	<path d="M34.8322 370.47L26.9726 374.4C26.1241 374.846 24.6951 374.846 23.8466 374.4L15.9869 370.47C15.1385 370.023 15.1385 369.353 15.9869 368.907L23.8466 364.977C24.6951 364.53 26.1241 364.53 26.9726 364.977L34.8322 368.907C35.7253 369.353 35.7253 370.023 34.8322 370.47Z" fill="#D3DAF3"/>
	<path d="M15.3618 341.086V369.666C15.3618 369.934 15.5851 370.247 15.987 370.426L23.8466 374.355C24.6951 374.802 26.1241 374.802 26.9726 374.355L34.8323 370.426C35.2788 370.202 35.4574 369.934 35.4574 369.666V341.086H15.3618Z" fill="url(#paint54_linear_3370_56269)"/>
</g>
<g  class="down">
<path d="M373.154 221.405L389.855 213.054C391.106 212.429 392.222 212.384 393.026 212.786L397.983 215.287C398.072 215.332 398.117 215.332 398.206 215.376C398.965 215.823 399.412 216.627 399.412 217.832V234.489C399.412 236.945 397.402 239.937 394.946 241.188L378.245 249.539C376.994 250.164 375.878 250.209 375.074 249.807L370.117 247.306C370.028 247.261 369.983 247.261 369.938 247.217C369.179 246.77 368.733 245.966 368.733 244.76V228.059C368.688 225.647 370.698 222.611 373.154 221.405Z" fill="url(#paint55_linear_3370_56269)"/>
<path d="M378.245 249.539L394.946 241.188C397.402 239.938 399.412 236.946 399.412 234.489V217.788C399.412 215.332 397.402 214.305 394.946 215.555L378.245 223.95C375.788 225.201 373.779 228.193 373.779 230.649V247.351C373.779 249.762 375.744 250.789 378.245 249.539Z" fill="url(#paint56_linear_3370_56269)"/>
</g>
<g  class="down">
<path d="M406.245 420.664L389.543 412.313C388.293 411.688 387.176 411.643 386.372 412.045L381.415 414.546C381.326 414.591 381.281 414.591 381.192 414.635C380.433 415.082 379.986 415.886 379.986 417.092V433.793C379.986 436.249 381.996 439.241 384.452 440.492L401.154 448.843C402.404 449.468 403.521 449.513 404.324 449.111L409.281 446.61C409.371 446.565 409.415 446.565 409.46 446.521C410.219 446.074 410.666 445.27 410.666 444.064V427.363C410.71 424.907 408.745 421.915 406.245 420.664Z" fill="url(#paint57_linear_3370_56269)"/>
<path d="M401.198 448.842L384.496 440.491C382.04 439.241 380.031 436.249 380.031 433.793V417.091C380.031 414.635 382.04 413.608 384.496 414.858L401.198 423.209C403.654 424.459 405.664 427.451 405.664 429.908V446.609C405.664 449.065 403.654 450.048 401.198 448.842Z" fill="url(#paint58_linear_3370_56269)"/>
</g>
<g class="down">
<path d="M125.709 380.696L104.631 370.157V349.035L125.709 359.618V380.696Z" fill="url(#paint59_linear_3370_56269)"/>
<path d="M146.788 370.157L125.709 380.696V359.618L146.788 349.035V370.157Z" fill="url(#paint60_linear_3370_56269)"/>
<path d="M146.788 349.035L125.709 359.618L104.631 349.035L125.709 338.496L146.788 349.035Z" fill="url(#paint61_linear_3370_56269)"/>
<path d="M175.011 303.663L157.103 309.647L145.18 297.679L163.087 291.74L175.011 303.663Z" fill="url(#paint62_linear_3370_56269)"/>
<path d="M180.95 285.756L175.01 303.663L163.087 291.74L169.026 273.833L180.95 285.756Z" fill="url(#paint63_linear_3370_56269)"/>
<path d="M169.027 273.833L163.087 291.74L145.18 297.679L151.119 279.817L169.027 273.833Z" fill="url(#paint64_linear_3370_56269)"/>
<path d="M124.325 209.705L119.547 195.414L129.103 185.858L133.882 200.193L124.325 209.705Z" fill="url(#paint65_linear_3370_56269)"/>
<path d="M138.66 214.483L124.325 209.705L133.882 200.193L148.217 204.926L138.66 214.483Z" fill="url(#paint66_linear_3370_56269)"/>
<path d="M148.217 204.926L133.882 200.193L129.104 185.858L143.438 190.636L148.217 204.926Z" fill="url(#paint67_linear_3370_56269)"/>
<path d="M169.027 402.534L158.488 397.264V386.725L169.027 391.995V402.534Z" fill="#62ADFF"/>
<path d="M179.566 397.264L169.027 402.534V391.995L179.566 386.725V397.264Z" fill="#8DC3FF"/>
<path d="M179.566 386.725L169.027 391.995L158.488 386.725L169.027 381.456L179.566 386.725Z" fill="url(#paint68_linear_3370_56269)"/>
<path d="M120.753 253.067L129.684 256.059L135.668 250.075L126.737 247.083L120.753 253.067Z" fill="#62ADFF"/>
<path d="M117.761 244.091L120.753 253.067L126.737 247.083L123.745 238.151L117.761 244.091Z" fill="#8DC3FF"/>
<path d="M123.745 238.151L126.737 247.083L135.668 250.075L132.676 241.143L123.745 238.151Z" fill="url(#paint69_linear_3370_56269)"/>
<path d="M161.881 166.835L164.248 159.689L159.47 154.911L157.103 162.056L161.881 166.835Z" fill="#62ADFF"/>
<path d="M154.736 169.201L161.881 166.834L157.103 162.056L149.958 164.468L154.736 169.201Z" fill="#8DC3FF"/>
<path d="M149.958 164.468L157.103 162.056L159.47 154.911L152.325 157.278L149.958 164.468Z" fill="url(#paint70_linear_3370_56269)"/>
</g>
<defs>
<linearGradient id="paint0_linear_3370_56269" x1="348.1" y1="433.438" x2="596.405" y2="433.438" gradientUnits="userSpaceOnUse">
<stop stop-color="#E1E3F8"/>
<stop offset="0.5" stop-color="#D3D7F2"/>
<stop offset="1" stop-color="#F2F3FF"/>
</linearGradient>
<linearGradient id="paint1_linear_3370_56269" x1="345.614" y1="339.537" x2="594.346" y2="339.537" gradientUnits="userSpaceOnUse">
<stop stop-color="#E8EAFB"/>
<stop offset="1" stop-color="white"/>
</linearGradient>
<linearGradient id="paint2_linear_3370_56269" x1="454.391" y1="172.437" x2="519.814" y2="344.459" gradientUnits="userSpaceOnUse">
<stop stop-color="#FCFCFE"/>
<stop offset="0.2786" stop-color="#E1E3F8"/>
<stop offset="0.3206" stop-color="#BDCAF8"/>
<stop offset="1" stop-color="#EBEDFC"/>
</linearGradient>
<linearGradient id="paint3_linear_3370_56269" x1="447.217" y1="259.94" x2="517.494" y2="259.94" gradientUnits="userSpaceOnUse">
<stop stop-color="#D3D7F2"/>
<stop offset="1" stop-color="#BBC9F8"/>
</linearGradient>
<linearGradient id="paint4_linear_3370_56269" x1="435.871" y1="178.864" x2="501.687" y2="353.467" gradientUnits="userSpaceOnUse">
<stop offset="0.266" stop-color="#84BFFE"/>
<stop offset="0.3537" stop-color="#22568E"/>
<stop offset="1" stop-color="#4B8ED8"/>
</linearGradient>
<linearGradient id="paint5_linear_3370_56269" x1="464.492" y1="347.827" x2="464.492" y2="206.572" gradientUnits="userSpaceOnUse">
<stop stop-color="#4D92DD"/>
<stop offset="0.6278" stop-color="#22568E"/>
<stop offset="1" stop-color="#4F93DE"/>
</linearGradient>
<linearGradient id="paint6_linear_3370_56269" x1="495.897" y1="357.686" x2="429.234" y2="187.535" gradientUnits="userSpaceOnUse">
<stop stop-color="#109EFF"/>
<stop offset="1" stop-color="#02D0FF"/>
</linearGradient>
<linearGradient id="paint7_linear_3370_56269" x1="445.693" y1="296.225" x2="445.693" y2="253.55" gradientUnits="userSpaceOnUse">
<stop stop-color="#B4C1F3"/>
<stop offset="1" stop-color="#BBC9F8"/>
</linearGradient>
<linearGradient id="paint8_linear_3370_56269" x1="440.983" y1="295.788" x2="440.983" y2="253.293" gradientUnits="userSpaceOnUse">
<stop stop-color="#C3CFF7"/>
<stop offset="1" stop-color="white"/>
</linearGradient>
<linearGradient id="paint9_linear_3370_56269" x1="442.062" y1="181.405" x2="507.46" y2="353.36" gradientUnits="userSpaceOnUse">
<stop stop-color="#FCFCFE"/>
<stop offset="0.2786" stop-color="#E1E3F8"/>
<stop offset="0.3206" stop-color="#BDCAF8"/>
<stop offset="1" stop-color="#EBEDFC"/>
</linearGradient>
<linearGradient id="paint10_linear_3370_56269" x1="197.488" y1="325.998" x2="445.793" y2="325.998" gradientUnits="userSpaceOnUse">
<stop stop-color="#E1E3F8"/>
<stop offset="0.5" stop-color="#D3D7F2"/>
<stop offset="1" stop-color="#F2F3FF"/>
</linearGradient>
<linearGradient id="paint11_linear_3370_56269" x1="195.002" y1="124.657" x2="443.734" y2="124.657" gradientUnits="userSpaceOnUse">
<stop stop-color="#E8EAFB"/>
<stop offset="1" stop-color="white"/>
</linearGradient>
<linearGradient id="paint12_linear_3370_56269" x1="197.488" y1="325.998" x2="445.793" y2="325.998" gradientUnits="userSpaceOnUse">
<stop stop-color="#E1E3F8"/>
<stop offset="0.5" stop-color="#D3D7F2"/>
<stop offset="1" stop-color="#F2F3FF"/>
</linearGradient>
<linearGradient id="paint13_linear_3370_56269" x1="195.002" y1="124.657" x2="443.734" y2="124.657" gradientUnits="userSpaceOnUse">
<stop stop-color="#E8EAFB"/>
<stop offset="1" stop-color="white"/>
</linearGradient>
<linearGradient id="paint14_linear_3370_56269" x1="256.819" y1="73.684" x2="406.525" y2="73.684" gradientUnits="userSpaceOnUse">
<stop stop-color="#D3D7F2"/>
<stop offset="1" stop-color="#BBC9F8"/>
</linearGradient>
<linearGradient id="paint15_linear_3370_56269" x1="311.61" y1="5.35539" x2="377.23" y2="151.177" gradientUnits="userSpaceOnUse">
<stop stop-color="#E3E4F8"/>
<stop offset="0.1112" stop-color="#F2F3FF"/>
<stop offset="0.6019" stop-color="#D3D7F2"/>
<stop offset="0.6461" stop-color="#E1E3F8"/>
<stop offset="0.7358" stop-color="#F2F3FF"/>
<stop offset="0.9196" stop-color="#E1E3F8"/>
<stop offset="1" stop-color="#E2E7FB"/>
</linearGradient>
<linearGradient id="paint16_linear_3370_56269" x1="312.403" y1="146.272" x2="312.403" y2="33.6446" gradientUnits="userSpaceOnUse">
<stop stop-color="#4C91DC"/>
<stop offset="0.6278" stop-color="#20538A"/>
<stop offset="1" stop-color="#4D91DB"/>
</linearGradient>
<linearGradient id="paint17_linear_3370_56269" x1="295.832" y1="12.1872" x2="352.063" y2="161.363" gradientUnits="userSpaceOnUse">
<stop stop-color="#56A1FF"/>
<stop offset="0.0662461" stop-color="#8FDAFF"/>
<stop offset="0.289871" stop-color="#4D92DD"/>
<stop offset="0.6061" stop-color="#1E69FF"/>
<stop offset="0.6278" stop-color="#8FC5FF"/>
<stop offset="0.815922" stop-color="#4B91DC"/>
<stop offset="1" stop-color="#1E69FF"/>
</linearGradient>
<linearGradient id="paint18_linear_3370_56269" x1="268.574" y1="131.753" x2="334.327" y2="58.0292" gradientUnits="userSpaceOnUse">
<stop stop-color="#109EFF"/>
<stop offset="1" stop-color="#02D0FF"/>
</linearGradient>
<linearGradient id="paint19_linear_3370_56269" x1="273.077" y1="24.6269" x2="338.696" y2="170.449" gradientUnits="userSpaceOnUse">
<stop stop-color="#E3E4F8"/>
<stop offset="0.1112" stop-color="#F2F3FF"/>
<stop offset="0.6019" stop-color="#D3D7F2"/>
<stop offset="0.6461" stop-color="#E1E3F8"/>
<stop offset="0.7358" stop-color="#F2F3FF"/>
<stop offset="0.9196" stop-color="#E1E3F8"/>
<stop offset="1" stop-color="#E2E7FB"/>
</linearGradient>
<linearGradient id="paint20_linear_3370_56269" x1="234.051" y1="283.984" x2="381.625" y2="283.984" gradientUnits="userSpaceOnUse">
<stop stop-color="#D3D7F2"/>
<stop offset="0.45" stop-color="#BBC9F8"/>
<stop offset="0.55" stop-color="#D3D7F2"/>
<stop offset="1" stop-color="#F2F3FF"/>
</linearGradient>
<linearGradient id="paint21_linear_3370_56269" x1="267.18" y1="292.418" x2="299.715" y2="227.361" gradientUnits="userSpaceOnUse">
<stop stop-color="#E8EAFB"/>
<stop offset="1" stop-color="white"/>
</linearGradient>
<linearGradient id="paint22_linear_3370_56269" x1="445.881" y1="464.959" x2="420.873" y2="434.268" gradientUnits="userSpaceOnUse">
<stop stop-color="#2962D4"/>
<stop offset="1" stop-color="#3176FF"/>
</linearGradient>
<linearGradient id="paint23_linear_3370_56269" x1="430.806" y1="463.889" x2="430.806" y2="437.049" gradientUnits="userSpaceOnUse">
<stop stop-color="#3176FF"/>
<stop offset="1" stop-color="#66B3FF"/>
</linearGradient>
<linearGradient id="paint24_linear_3370_56269" x1="240.393" y1="135.721" x2="257.483" y2="167.141" gradientUnits="userSpaceOnUse">
<stop stop-color="#E1E3F8"/>
<stop offset="1" stop-color="#D3D7F2"/>
</linearGradient>
<linearGradient id="paint25_linear_3370_56269" x1="233.286" y1="152.136" x2="258.897" y2="152.136" gradientUnits="userSpaceOnUse">
<stop stop-color="#E8EAFB"/>
<stop offset="1" stop-color="white"/>
</linearGradient>
<linearGradient id="paint26_linear_3370_56269" x1="19.0792" y1="438.349" x2="267.811" y2="438.349" gradientUnits="userSpaceOnUse">
<stop stop-color="#E8EAFB"/>
<stop offset="1" stop-color="white"/>
</linearGradient>
<linearGradient id="paint27_linear_3370_56269" x1="50.6818" y1="445.862" x2="236.896" y2="445.862" gradientUnits="userSpaceOnUse">
<stop stop-color="#D3D7F2"/>
<stop offset="0.35" stop-color="#BBC9F8"/>
<stop offset="0.65" stop-color="#D3D7F2"/>
<stop offset="1" stop-color="#F2F3FF"/>
</linearGradient>
<linearGradient id="paint28_linear_3370_56269" x1="77.2681" y1="447.909" x2="130.499" y2="341.467" gradientUnits="userSpaceOnUse">
<stop stop-color="#E8EAFB"/>
<stop offset="1" stop-color="white"/>
</linearGradient>
<linearGradient id="paint29_linear_3370_56269" x1="92.3412" y1="419.274" x2="133.511" y2="336.952" gradientUnits="userSpaceOnUse">
<stop stop-color="#E8EAFB"/>
<stop offset="1" stop-color="white"/>
</linearGradient>
<linearGradient id="paint30_linear_3370_56269" x1="71.7791" y1="419.627" x2="215.798" y2="419.627" gradientUnits="userSpaceOnUse">
<stop stop-color="#D3D7F2"/>
<stop offset="0.35" stop-color="#BBC9F8"/>
<stop offset="0.65" stop-color="#D3D7F2"/>
<stop offset="1" stop-color="#F2F3FF"/>
</linearGradient>
<linearGradient id="paint31_linear_3370_56269" x1="85.5896" y1="393.546" x2="201.983" y2="393.546" gradientUnits="userSpaceOnUse">
<stop stop-color="#E8EAFB"/>
<stop offset="1" stop-color="white"/>
</linearGradient>
<linearGradient id="paint32_linear_3370_56269" x1="143.787" y1="198.455" x2="143.787" y2="429.133" gradientUnits="userSpaceOnUse">
<stop stop-color="white" stop-opacity="0"/>
<stop offset="1" stop-color="white"/>
</linearGradient>
<linearGradient id="paint33_linear_3370_56269" x1="143.787" y1="151.086" x2="143.787" y2="421.631" gradientUnits="userSpaceOnUse">
<stop stop-color="white" stop-opacity="0"/>
<stop offset="1" stop-color="white"/>
</linearGradient>
<linearGradient id="paint34_linear_3370_56269" x1="301.688" y1="389.053" x2="284.538" y2="397.715" gradientUnits="userSpaceOnUse">
<stop stop-color="#20298B"/>
<stop offset="1" stop-color="#4D59DB"/>
</linearGradient>
<linearGradient id="paint35_linear_3370_56269" x1="321.414" y1="397.933" x2="302.879" y2="389.272" gradientUnits="userSpaceOnUse">
<stop stop-color="#0421E4"/>
<stop offset="1" stop-color="#2568FB"/>
</linearGradient>
<linearGradient id="paint36_linear_3370_56269" x1="284.89" y1="379.58" x2="320.015" y2="379.58" gradientUnits="userSpaceOnUse">
<stop stop-color="#1E69FF"/>
<stop offset="1" stop-color="#6697FF"/>
</linearGradient>
<linearGradient id="paint37_linear_3370_56269" x1="350.248" y1="483.492" x2="306.204" y2="483.492" gradientUnits="userSpaceOnUse">
<stop stop-color="#F2F3FF"/>
<stop offset="0.45" stop-color="#D3D7F2"/>
<stop offset="0.55" stop-color="#BBC9F8"/>
<stop offset="1" stop-color="#D3D7F2"/>
</linearGradient>
<linearGradient id="paint38_linear_3370_56269" x1="350.476" y1="477.948" x2="305.976" y2="477.948" gradientUnits="userSpaceOnUse">
<stop stop-color="white"/>
<stop offset="1" stop-color="#E8EAFB"/>
</linearGradient>
<linearGradient id="paint39_linear_3370_56269" x1="317.135" y1="456.593" x2="273.091" y2="456.593" gradientUnits="userSpaceOnUse">
<stop stop-color="#F2F3FF"/>
<stop offset="0.45" stop-color="#D3D7F2"/>
<stop offset="0.55" stop-color="#BBC9F8"/>
<stop offset="1" stop-color="#D3D7F2"/>
</linearGradient>
<linearGradient id="paint40_linear_3370_56269" x1="317.363" y1="451.049" x2="272.864" y2="451.049" gradientUnits="userSpaceOnUse">
<stop stop-color="white"/>
<stop offset="1" stop-color="#E8EAFB"/>
</linearGradient>
<linearGradient id="paint41_linear_3370_56269" x1="284.022" y1="429.694" x2="239.978" y2="429.694" gradientUnits="userSpaceOnUse">
<stop stop-color="#F2F3FF"/>
<stop offset="0.45" stop-color="#D3D7F2"/>
<stop offset="0.55" stop-color="#BBC9F8"/>
<stop offset="1" stop-color="#D3D7F2"/>
</linearGradient>
<linearGradient id="paint42_linear_3370_56269" x1="284.251" y1="424.149" x2="239.751" y2="424.149" gradientUnits="userSpaceOnUse">
<stop stop-color="white"/>
<stop offset="1" stop-color="#E8EAFB"/>
</linearGradient>
<linearGradient id="paint43_linear_3370_56269" x1="568.243" y1="300.366" x2="568.243" y2="266.591" gradientUnits="userSpaceOnUse">
<stop stop-color="white" stop-opacity="0"/>
<stop offset="1" stop-color="#02CEFF"/>
</linearGradient>
<linearGradient id="paint44_linear_3370_56269" x1="548.571" y1="261.13" x2="587.916" y2="261.13" gradientUnits="userSpaceOnUse">
<stop stop-color="#D3D7F2"/>
<stop offset="0.45" stop-color="#BBC9F8"/>
<stop offset="0.55" stop-color="#D3D7F2"/>
<stop offset="1" stop-color="#F2F3FF"/>
</linearGradient>
<linearGradient id="paint45_linear_3370_56269" x1="557.404" y1="256.694" x2="566.078" y2="239.349" gradientUnits="userSpaceOnUse">
<stop stop-color="#E8EAFB"/>
<stop offset="1" stop-color="white"/>
</linearGradient>
<linearGradient id="paint46_linear_3370_56269" x1="568.243" y1="222.433" x2="568.243" y2="256.208" gradientUnits="userSpaceOnUse">
<stop stop-color="white" stop-opacity="0"/>
<stop offset="1" stop-color="#02CEFF"/>
</linearGradient>
<linearGradient id="paint47_linear_3370_56269" x1="431.641" y1="85.8098" x2="431.641" y2="52.0352" gradientUnits="userSpaceOnUse">
<stop stop-color="white" stop-opacity="0"/>
<stop offset="1" stop-color="#02CEFF"/>
</linearGradient>
<linearGradient id="paint48_linear_3370_56269" x1="411.969" y1="46.5732" x2="451.315" y2="46.5732" gradientUnits="userSpaceOnUse">
<stop stop-color="#D3D7F2"/>
<stop offset="0.45" stop-color="#BBC9F8"/>
<stop offset="0.55" stop-color="#D3D7F2"/>
<stop offset="1" stop-color="#F2F3FF"/>
</linearGradient>
<linearGradient id="paint49_linear_3370_56269" x1="420.802" y1="42.1372" x2="429.476" y2="24.792" gradientUnits="userSpaceOnUse">
<stop stop-color="#E8EAFB"/>
<stop offset="1" stop-color="white"/>
</linearGradient>
<linearGradient id="paint50_linear_3370_56269" x1="431.641" y1="7.87658" x2="431.641" y2="41.6513" gradientUnits="userSpaceOnUse">
<stop stop-color="white" stop-opacity="0"/>
<stop offset="1" stop-color="#02CEFF"/>
</linearGradient>
<linearGradient id="paint51_linear_3370_56269" x1="25.4183" y1="418.781" x2="25.4183" y2="385.006" gradientUnits="userSpaceOnUse">
<stop stop-color="white" stop-opacity="0"/>
<stop offset="1" stop-color="#02CEFF"/>
</linearGradient>
<linearGradient id="paint52_linear_3370_56269" x1="5.7461" y1="379.544" x2="45.0917" y2="379.544" gradientUnits="userSpaceOnUse">
<stop stop-color="#D3D7F2"/>
<stop offset="0.45" stop-color="#BBC9F8"/>
<stop offset="0.55" stop-color="#D3D7F2"/>
<stop offset="1" stop-color="#F2F3FF"/>
</linearGradient>
<linearGradient id="paint53_linear_3370_56269" x1="14.5791" y1="375.108" x2="23.2534" y2="357.763" gradientUnits="userSpaceOnUse">
<stop stop-color="#E8EAFB"/>
<stop offset="1" stop-color="white"/>
</linearGradient>
<linearGradient id="paint54_linear_3370_56269" x1="25.4183" y1="340.847" x2="25.4183" y2="374.622" gradientUnits="userSpaceOnUse">
<stop stop-color="white" stop-opacity="0"/>
<stop offset="1" stop-color="#02CEFF"/>
</linearGradient>
<linearGradient id="paint55_linear_3370_56269" x1="384.035" y1="250.076" x2="384.035" y2="213.475" gradientUnits="userSpaceOnUse">
<stop stop-color="#222B90"/>
<stop offset="1" stop-color="#4F5BDF"/>
</linearGradient>
<linearGradient id="paint56_linear_3370_56269" x1="386.574" y1="250.077" x2="386.574" y2="215.95" gradientUnits="userSpaceOnUse">
<stop stop-color="#3975B6"/>
<stop offset="1" stop-color="#87C1FF"/>
</linearGradient>
<linearGradient id="paint57_linear_3370_56269" x1="387.139" y1="415.442" x2="404.229" y2="446.861" gradientUnits="userSpaceOnUse">
<stop stop-color="#E1E3F8"/>
<stop offset="1" stop-color="#D3D7F2"/>
</linearGradient>
<linearGradient id="paint58_linear_3370_56269" x1="392.837" y1="449.124" x2="392.837" y2="418.384" gradientUnits="userSpaceOnUse">
<stop stop-color="#E8EAFB"/>
<stop offset="1" stop-color="white"/>
</linearGradient>
<linearGradient id="paint59_linear_3370_56269" x1="124.893" y1="359.952" x2="105.157" y2="369.92" gradientUnits="userSpaceOnUse">
<stop stop-color="#017AFF"/>
<stop offset="1" stop-color="#79B9FF"/>
</linearGradient>
<linearGradient id="paint60_linear_3370_56269" x1="147.594" y1="370.171" x2="126.264" y2="360.204" gradientUnits="userSpaceOnUse">
<stop stop-color="#017AFF"/>
<stop offset="1" stop-color="#79B9FF"/>
</linearGradient>
<linearGradient id="paint61_linear_3370_56269" x1="105.563" y1="349.051" x2="145.983" y2="349.051" gradientUnits="userSpaceOnUse">
<stop stop-color="#1E69FF"/>
<stop offset="1" stop-color="#6697FF"/>
</linearGradient>
<linearGradient id="paint62_linear_3370_56269" x1="162.81" y1="292.395" x2="157.284" y2="309.197" gradientUnits="userSpaceOnUse">
<stop stop-color="#017AFF"/>
<stop offset="1" stop-color="#79B9FF"/>
</linearGradient>
<linearGradient id="paint63_linear_3370_56269" x1="181.432" y1="285.334" x2="163.727" y2="291.762" gradientUnits="userSpaceOnUse">
<stop stop-color="#017AFF"/>
<stop offset="1" stop-color="#79B9FF"/>
</linearGradient>
<linearGradient id="paint64_linear_3370_56269" x1="145.708" y1="297.163" x2="168.573" y2="274.298" gradientUnits="userSpaceOnUse">
<stop stop-color="#1E69FF"/>
<stop offset="1" stop-color="#6697FF"/>
</linearGradient>
<linearGradient id="paint65_linear_3370_56269" x1="133.352" y1="199.967" x2="119.91" y2="195.546" gradientUnits="userSpaceOnUse">
<stop stop-color="#017AFF"/>
<stop offset="1" stop-color="#79B9FF"/>
</linearGradient>
<linearGradient id="paint66_linear_3370_56269" x1="139.001" y1="214.865" x2="133.859" y2="200.701" gradientUnits="userSpaceOnUse">
<stop stop-color="#017AFF"/>
<stop offset="1" stop-color="#79B9FF"/>
</linearGradient>
<linearGradient id="paint67_linear_3370_56269" x1="129.538" y1="186.286" x2="147.83" y2="204.578" gradientUnits="userSpaceOnUse">
<stop stop-color="#1E69FF"/>
<stop offset="1" stop-color="#6697FF"/>
</linearGradient>
<linearGradient id="paint68_linear_3370_56269" x1="158.486" y1="386.715" x2="179.576" y2="386.715" gradientUnits="userSpaceOnUse">
<stop stop-color="#6AB1FF"/>
<stop offset="1" stop-color="white"/>
</linearGradient>
<linearGradient id="paint69_linear_3370_56269" x1="135.669" y1="250.077" x2="123.74" y2="238.147" gradientUnits="userSpaceOnUse">
<stop stop-color="#6AB1FF"/>
<stop offset="1" stop-color="white"/>
</linearGradient>
<linearGradient id="paint70_linear_3370_56269" x1="159.487" y1="154.903" x2="149.943" y2="164.447" gradientUnits="userSpaceOnUse">
<stop stop-color="#6AB1FF"/>
<stop offset="1" stop-color="white"/>
</linearGradient>
</defs>
</svg>
