<svg width="34" height="28" viewBox="0 0 34 28" fill="none" xmlns="http://www.w3.org/2000/svg">
<path d="M14.462 23.1148L8.02344 18.7101V16.2162L14.8466 20.765C15.8034 21.4028 17.0406 21.4377 18.0318 20.8546L25.9171 16.2162V18.7101L18.8653 23.1897C17.5146 24.0477 15.7826 24.0183 14.462 23.1148Z" fill="url(#paint0_linear_1850_35825)"/>
<path d="M8.02344 0V18.7099L14.462 23.1145C15.7826 24.018 17.5146 24.0475 18.8653 23.1895L25.9171 18.7099V0H8.02344Z" fill="url(#paint1_linear_1850_35825)"/>
<path opacity="0.6" d="M18.9313 12.2867L25.9171 16.2162L18.0318 20.8546C17.0406 21.4377 15.8034 21.4028 14.8466 20.765L8.02344 16.2162L15.0092 12.2867C16.2269 11.6018 17.7137 11.6018 18.9313 12.2867Z" fill="#BFDEFF"/>
<g filter="url(#filter0_d_1850_35825)">
<path d="M24.5489 5.03452C24.8567 5.30809 24.8844 5.77934 24.6109 6.0871L16.6581 15.0339C16.5166 15.1931 16.3138 15.2842 16.1009 15.2842C15.8879 15.2842 15.6851 15.1931 15.5436 15.0339L11.5672 10.5605C11.2937 10.2528 11.3214 9.78151 11.6292 9.50794C11.9369 9.23438 12.4082 9.2621 12.6817 9.56986L16.1009 13.4164L23.4964 5.09644C23.7699 4.78868 24.2412 4.76096 24.5489 5.03452Z" fill="#017AFF"/>
</g>
<path fill-rule="evenodd" clip-rule="evenodd" d="M8.02314 13.3731L1.53135 17.2149C0.710734 17.7005 0.714201 18.8892 1.53764 19.3701L13.0516 26.0936C15.3293 27.4237 18.1498 27.4117 20.4162 26.0625L32.4715 18.8856C33.2734 18.4082 33.2883 17.2523 32.4991 16.7543L25.9476 12.621L25.9168 12.6016V13.1928L32.2323 17.1772C32.7058 17.476 32.6969 18.1695 32.2157 18.456L20.1604 25.6328C18.0503 26.8891 15.4244 26.9002 13.3037 25.6618L1.78977 18.9383C1.29571 18.6498 1.29363 17.9366 1.786 17.6452L8.02314 13.9541V13.3731Z" fill="#B9DAFF"/>
<defs>
<filter id="filter0_d_1850_35825" x="5.14258" y="0.118408" width="25.8945" height="25.8937" filterUnits="userSpaceOnUse" color-interpolation-filters="sRGB">
<feFlood flood-opacity="0" result="BackgroundImageFix"/>
<feColorMatrix in="SourceAlpha" type="matrix" values="0 0 0 0 0 0 0 0 0 0 0 0 0 0 0 0 0 0 127 0" result="hardAlpha"/>
<feOffset dy="3"/>
<feGaussianBlur stdDeviation="2"/>
<feColorMatrix type="matrix" values="0 0 0 0 0 0 0 0 0 0.367139 0 0 0 0 0.770689 0 0 0 0.38 0"/>
<feBlend mode="normal" in2="BackgroundImageFix" result="effect1_dropShadow_1850_35825"/>
<feBlend mode="normal" in="SourceGraphic" in2="effect1_dropShadow_1850_35825" result="shape"/>
</filter>
<linearGradient id="paint0_linear_1850_35825" x1="16.9703" y1="3.44258e-05" x2="16.9703" y2="24.9711" gradientUnits="userSpaceOnUse">
<stop stop-color="white" stop-opacity="0"/>
<stop offset="1" stop-color="#017AFF" stop-opacity="0.34"/>
</linearGradient>
<linearGradient id="paint1_linear_1850_35825" x1="16.9703" y1="0" x2="16.9703" y2="24.971" gradientUnits="userSpaceOnUse">
<stop stop-color="#017AFF" stop-opacity="0"/>
<stop offset="0.491843" stop-color="#82BEFF" stop-opacity="0.167227"/>
<stop offset="1" stop-color="#017AFF" stop-opacity="0.34"/>
</linearGradient>
</defs>
</svg>
