<svg width="34" height="28" viewBox="0 0 34 28" fill="none" xmlns="http://www.w3.org/2000/svg">
<path d="M14.4581 23.1148L8.01953 18.7101V16.2162L14.8427 20.765C15.7995 21.4028 17.0367 21.4377 18.0279 20.8546L25.9132 16.2162V18.7101L18.8614 23.1897C17.5107 24.0477 15.7787 24.0183 14.4581 23.1148Z" fill="url(#paint0_linear_1850_35363)"/>
<path d="M8.01953 0V18.7099L14.4581 23.1145C15.7787 24.018 17.5107 24.0475 18.8614 23.1895L25.9132 18.7099V0H8.01953Z" fill="url(#paint1_linear_1850_35363)"/>
<path opacity="0.6" d="M18.9274 12.2867L25.9132 16.2162L18.0279 20.8546C17.0367 21.4377 15.7995 21.4028 14.8427 20.765L8.01953 16.2162L15.0053 12.2867C16.223 11.6018 17.7098 11.6018 18.9274 12.2867Z" fill="#BFDEFF"/>
<g filter="url(#filter0_d_1850_35363)">
<path d="M24.545 5.03452C24.8528 5.30809 24.8805 5.77934 24.6069 6.0871L16.6542 15.0339C16.5127 15.1931 16.3099 15.2842 16.097 15.2842C15.884 15.2842 15.6812 15.1931 15.5397 15.0339L11.5633 10.5605C11.2898 10.2528 11.3175 9.78151 11.6252 9.50794C11.933 9.23438 12.4043 9.2621 12.6778 9.56986L16.097 13.4164L23.4925 5.09644C23.766 4.78868 24.2373 4.76096 24.545 5.03452Z" fill="white"/>
</g>
<path fill-rule="evenodd" clip-rule="evenodd" d="M8.01923 13.3731L1.52745 17.2149C0.706827 17.7005 0.710295 18.8892 1.53373 19.3701L13.0477 26.0936C15.3254 27.4237 18.1458 27.4117 20.4123 26.0625L32.4676 18.8856C33.2695 18.4082 33.2844 17.2523 32.4952 16.7543L25.9437 12.621L25.9129 12.6016V13.1928L32.2284 17.1772C32.7019 17.476 32.693 18.1695 32.2118 18.456L20.1565 25.6328C18.0464 26.8891 15.4205 26.9002 13.2998 25.6618L1.78586 18.9383C1.2918 18.6498 1.28972 17.9366 1.78209 17.6452L8.01923 13.9541V13.3731Z" fill="#B9DAFF"/>
<defs>
<filter id="filter0_d_1850_35363" x="5.13867" y="0.118408" width="25.8945" height="25.8937" filterUnits="userSpaceOnUse" color-interpolation-filters="sRGB">
<feFlood flood-opacity="0" result="BackgroundImageFix"/>
<feColorMatrix in="SourceAlpha" type="matrix" values="0 0 0 0 0 0 0 0 0 0 0 0 0 0 0 0 0 0 127 0" result="hardAlpha"/>
<feOffset dy="3"/>
<feGaussianBlur stdDeviation="2"/>
<feColorMatrix type="matrix" values="0 0 0 0 0 0 0 0 0 0.367139 0 0 0 0 0.770689 0 0 0 0.38 0"/>
<feBlend mode="normal" in2="BackgroundImageFix" result="effect1_dropShadow_1850_35363"/>
<feBlend mode="normal" in="SourceGraphic" in2="effect1_dropShadow_1850_35363" result="shape"/>
</filter>
<linearGradient id="paint0_linear_1850_35363" x1="16.9664" y1="3.44258e-05" x2="16.9664" y2="24.9711" gradientUnits="userSpaceOnUse">
<stop stop-color="white" stop-opacity="0"/>
<stop offset="1" stop-color="white" stop-opacity="0.34"/>
</linearGradient>
<linearGradient id="paint1_linear_1850_35363" x1="16.9664" y1="0" x2="16.9664" y2="24.971" gradientUnits="userSpaceOnUse">
<stop stop-color="white" stop-opacity="0"/>
<stop offset="1" stop-color="white" stop-opacity="0.34"/>
</linearGradient>
</defs>
</svg>
