<svg width="32" height="32" viewBox="0 0 32 32" fill="none" xmlns="http://www.w3.org/2000/svg">
<g clip-path="url(#clip0_2740_28203)">
<path d="M13.4753 26.8587L7.01953 22.4934V20.0283L13.8553 24.5327C14.8061 25.1592 16.0296 25.1935 17.0139 24.6212L24.9132 20.0283V22.4934L17.8429 26.9327C16.5009 27.7753 14.788 27.7463 13.4753 26.8587Z" fill="url(#paint0_linear_2740_28203)"/>
<path d="M7.01953 4V22.4932L13.4753 26.8585C14.788 27.7462 16.5009 27.7752 17.8429 26.9326L24.9132 22.4932V4H7.01953Z" fill="url(#paint1_linear_2740_28203)"/>
<path opacity="0.6" d="M17.9101 16.1346L24.9132 20.0283L17.0139 24.6211C16.0296 25.1934 14.8061 25.1592 13.8553 24.5327L7.01953 20.0283L14.0227 16.1346C15.2313 15.4626 16.7014 15.4626 17.9101 16.1346Z" fill="#BFDEFF"/>
<path fill-rule="evenodd" clip-rule="evenodd" d="M7.01961 17.2157L0.550508 20.9997C-0.277425 21.484 -0.273948 22.6818 0.556778 23.1613L12.0801 29.8123C14.3417 31.1177 17.1305 31.106 19.3811 29.7817L31.4462 22.6822C32.2554 22.206 32.2704 21.041 31.4737 20.5442L24.943 16.4716L24.9133 16.4531V17.0424L31.2091 20.9684C31.6871 21.2665 31.6781 21.9655 31.1926 22.2512L19.1275 29.3507C17.0322 30.5837 14.4356 30.5946 12.33 29.3793L0.806723 22.7282C0.308287 22.4406 0.306202 21.7219 0.802961 21.4313L7.01961 17.7949V17.2157Z" fill="#B9DAFF"/>
<path fill-rule="evenodd" clip-rule="evenodd" d="M23.9056 11.6035C23.9056 11.6033 23.9056 11.6031 23.9056 11.603C23.9056 9.61311 22.2736 8 20.2604 8C18.2472 8 16.6152 9.61311 16.6152 11.603C16.6152 13.5928 18.2472 15.206 20.2604 15.206C20.3721 15.206 20.4827 15.201 20.5918 15.1913V17.8265V17.8265C20.5918 18.1883 20.8886 18.4816 21.2546 18.4816C21.6206 18.4816 21.9174 18.1883 21.9174 17.8265L21.9174 17.8265L23.6577 12.9116C23.6884 12.8338 23.7165 12.7546 23.7418 12.6742L23.7731 12.5858L23.7775 12.5533C23.861 12.2507 23.9056 11.9322 23.9056 11.6035Z" fill="#017AFF"/>
<path fill-rule="evenodd" clip-rule="evenodd" d="M15.2904 11.6032C15.2904 11.6031 15.2904 11.6031 15.2904 11.603C15.2904 9.61311 13.6584 8 11.6452 8C9.63201 8 8 9.61311 8 11.603C8 13.5928 9.63201 15.206 11.6452 15.206C11.7569 15.206 11.8674 15.201 11.9766 15.1913V17.8265V17.8265C11.9766 18.1883 12.2733 18.4816 12.6393 18.4816C13.0054 18.4816 13.3021 18.1883 13.3021 17.8265L13.3021 17.8265L15.0421 12.9125C15.0731 12.8341 15.1014 12.7543 15.1269 12.6733L15.1578 12.5858L15.1622 12.5535C15.2457 12.2508 15.2904 11.9321 15.2904 11.6032Z" fill="#017AFF"/>
</g>
<defs>
<linearGradient id="paint0_linear_2740_28203" x1="15.9664" y1="3.99995" x2="15.9664" y2="28.6818" gradientUnits="userSpaceOnUse">
<stop stop-color="white" stop-opacity="0"/>
<stop offset="1" stop-color="#017AFF" stop-opacity="0.34"/>
</linearGradient>
<linearGradient id="paint1_linear_2740_28203" x1="15.9664" y1="4" x2="15.9664" y2="28.6819" gradientUnits="userSpaceOnUse">
<stop stop-color="#017AFF" stop-opacity="0"/>
<stop offset="0.491843" stop-color="#82BEFF" stop-opacity="0.167227"/>
<stop offset="1" stop-color="#017AFF" stop-opacity="0.34"/>
</linearGradient>
<clipPath id="clip0_2740_28203">
<rect width="32" height="32" fill="white"/>
</clipPath>
</defs>
</svg>
