<svg width="34" height="30" viewBox="0 0 34 30" fill="none" xmlns="http://www.w3.org/2000/svg">
<path d="M14.351 24.7675L8.01953 20.1116V17.4308L14.7645 22.2643C15.7575 22.9759 17.0828 23.0143 18.1153 22.3615L25.9132 17.4308V20.1116L18.9763 24.8483C17.5737 25.806 15.7193 25.7736 14.351 24.7675Z" fill="url(#paint0_linear_1735_21218)"/>
<path d="M8.01953 0V20.1114L14.351 24.7672C15.7193 25.7734 17.5737 25.8058 18.9763 24.8481L25.9132 20.1114V0H8.01953Z" fill="url(#paint1_linear_1735_21218)"/>
<path opacity="0.6" d="M19.036 13.2726L25.9132 17.4308L18.1153 22.3614C17.0828 23.0143 15.7575 22.9759 14.7645 22.2643L8.01953 17.4308L14.8967 13.2726C16.1692 12.5032 17.7635 12.5032 19.036 13.2726Z" fill="#BFDEFF"/>
<g filter="url(#filter0_d_1735_21218)">
<path fill-rule="evenodd" clip-rule="evenodd" d="M26.138 8.98383C26.138 8.98367 26.138 8.9835 26.138 8.98333C26.138 6.89504 24.4964 5.20215 22.4713 5.20215C20.4463 5.20215 18.8047 6.89504 18.8047 8.98333C18.8047 11.0716 20.4463 12.7645 22.4713 12.7645C22.5837 12.7645 22.6949 12.7593 22.8047 12.7491V15.5146V15.5147C22.8047 15.8944 23.1032 16.2021 23.4714 16.2021C23.8396 16.2021 24.1381 15.8944 24.1381 15.5147V15.5146L25.8886 10.3567C25.9195 10.275 25.9478 10.1919 25.9732 10.1074L26.0047 10.0147L26.0091 9.98062C26.0931 9.66306 26.138 9.32884 26.138 8.98383Z" fill="white"/>
<path fill-rule="evenodd" clip-rule="evenodd" d="M17.472 8.98355C17.472 8.98348 17.472 8.9834 17.472 8.98333C17.472 6.89504 15.8304 5.20215 13.8053 5.20215C11.7803 5.20215 10.1387 6.89504 10.1387 8.98333C10.1387 11.0716 11.7803 12.7645 13.8053 12.7645C13.9177 12.7645 14.0289 12.7593 14.1387 12.7491V15.5146V15.5147C14.1387 15.8944 14.4371 16.2021 14.8053 16.2021C15.1735 16.2021 15.472 15.8944 15.472 15.5147V15.5146L17.2223 10.3577C17.2534 10.2753 17.2819 10.1916 17.3075 10.1065L17.3387 10.0147L17.343 9.98088C17.4271 9.66315 17.472 9.32876 17.472 8.98355Z" fill="white"/>
</g>
<path fill-rule="evenodd" clip-rule="evenodd" d="M8.0189 14.3907L1.39159 18.6065C0.61671 19.0994 0.620124 20.2317 1.39796 20.7199L12.8471 27.9063C15.2231 29.3977 18.2463 29.3845 20.6092 27.8725L32.5975 20.2009C33.3537 19.717 33.3684 18.6174 32.6253 18.1135L25.9503 13.5867L25.9126 13.5611V14.1652L32.3447 18.5273C32.7905 18.8296 32.7817 19.4894 32.328 19.7797L20.3397 27.4513C18.1398 28.8591 15.325 28.8714 13.1129 27.4829L1.66377 20.2964C1.19707 20.0035 1.19503 19.3241 1.65995 19.0284L8.0189 14.9833V14.3907Z" fill="#B9DAFF"/>
<defs>
<filter id="filter0_d_1735_21218" x="5.13867" y="0.202148" width="25.8945" height="27.234" filterUnits="userSpaceOnUse" color-interpolation-filters="sRGB">
<feFlood flood-opacity="0" result="BackgroundImageFix"/>
<feColorMatrix in="SourceAlpha" type="matrix" values="0 0 0 0 0 0 0 0 0 0 0 0 0 0 0 0 0 0 127 0" result="hardAlpha"/>
<feOffset dy="3"/>
<feGaussianBlur stdDeviation="2"/>
<feColorMatrix type="matrix" values="0 0 0 0 0 0 0 0 0 0.367139 0 0 0 0 0.770689 0 0 0 0.38 0"/>
<feBlend mode="normal" in2="BackgroundImageFix" result="effect1_dropShadow_1735_21218"/>
<feBlend mode="normal" in="SourceGraphic" in2="effect1_dropShadow_1735_21218" result="shape"/>
</filter>
<linearGradient id="paint0_linear_1735_21218" x1="16.9664" y1="3.90756e-06" x2="16.9664" y2="26.8415" gradientUnits="userSpaceOnUse">
<stop stop-color="white" stop-opacity="0"/>
<stop offset="1" stop-color="white" stop-opacity="0.34"/>
</linearGradient>
<linearGradient id="paint1_linear_1735_21218" x1="16.9664" y1="0" x2="16.9664" y2="26.8415" gradientUnits="userSpaceOnUse">
<stop stop-color="white" stop-opacity="0"/>
<stop offset="1" stop-color="white" stop-opacity="0.34"/>
</linearGradient>
</defs>
</svg>
