<svg width="113" height="17" viewBox="0 0 113 17" fill="none" xmlns="http://www.w3.org/2000/svg">
<path d="M20.5734 0.117565H23.876L30.0329 16.8119H26.6831L25.1262 12.6501H19.276L17.7427 16.8119H14.393L20.5734 0.117565ZM24.5365 10.3693L22.2247 3.47994L19.8186 10.3693H24.5365Z" fill="#838990"/>
<path d="M31.8699 16.8119V0.117565H37.956C39.7803 0.117565 41.3057 0.493776 42.5324 1.2462C43.7591 1.98294 44.679 2.98617 45.2924 4.25588C45.9057 5.50991 46.2124 6.90502 46.2124 8.44122C46.2124 10.1342 45.8743 11.6077 45.198 12.8617C44.5218 14.1157 43.5625 15.0876 42.3201 15.7773C41.0777 16.467 39.623 16.8119 37.956 16.8119H31.8699ZM42.9334 8.44122C42.9334 7.35961 42.7368 6.41125 42.3437 5.59613C41.9505 4.76533 41.3844 4.12264 40.6452 3.66805C39.9061 3.19779 39.0097 2.96265 37.956 2.96265H35.1253V13.9668H37.956C39.0254 13.9668 39.9297 13.7317 40.6688 13.2614C41.408 12.7755 41.9662 12.1171 42.3437 11.2863C42.7368 10.4398 42.9334 9.49147 42.9334 8.44122Z" fill="#838990"/>
<path d="M49.8559 0.117565L54.385 12.9557L58.8671 0.117565H62.2876L55.942 16.8119H52.8046L46.4354 0.117565H49.8559Z" fill="#838990"/>
<path d="M64.0752 16.8119V0.117565H67.3306V16.8119H64.0752Z" fill="#838990"/>
<path d="M80.8034 4.49101C80.6618 4.33425 80.363 4.13047 79.907 3.87967C79.4509 3.61319 78.9005 3.37805 78.2557 3.17427C77.6266 2.95482 76.974 2.84509 76.2977 2.84509C74.5207 2.84509 73.6321 3.47211 73.6321 4.72614C73.6321 5.18073 73.7737 5.54126 74.0567 5.80774C74.3398 6.07423 74.7644 6.30152 75.3306 6.48963C75.8967 6.67773 76.6044 6.88151 77.4536 7.10097C78.5545 7.38313 79.5059 7.71231 80.308 8.08852C81.1258 8.46473 81.7469 8.96634 82.1716 9.59336C82.6119 10.2047 82.8321 11.0198 82.8321 12.0387C82.8321 13.2301 82.5411 14.1941 81.9593 14.9308C81.3931 15.6519 80.6382 16.177 79.6946 16.5062C78.7511 16.8354 77.7288 17 76.628 17C75.3699 17 74.1196 16.8119 72.8773 16.4357C71.6506 16.0438 70.5576 15.5108 69.5983 14.8368L71.0373 12.0387C71.1788 12.1798 71.4304 12.3679 71.7921 12.603C72.1538 12.8225 72.5942 13.0498 73.1132 13.2849C73.6321 13.5044 74.1983 13.6925 74.8116 13.8492C75.4249 14.006 76.0461 14.0844 76.6752 14.0844C78.468 14.0844 79.3644 13.5122 79.3644 12.3679C79.3644 11.882 79.1835 11.4901 78.8218 11.1923C78.4601 10.8944 77.949 10.6436 77.2885 10.4398C76.6437 10.2361 75.8889 10.0088 75.0239 9.75795C73.9545 9.46012 73.066 9.13094 72.3583 8.7704C71.6663 8.39419 71.1474 7.93176 70.8014 7.38312C70.4554 6.81881 70.2824 6.10558 70.2824 5.24343C70.2824 4.09912 70.5498 3.14292 71.0845 2.37483C71.6349 1.59106 72.374 1.00323 73.3019 0.611342C74.2297 0.203781 75.2598 0 76.3921 0C77.5559 0 78.641 0.188105 79.6475 0.564315C80.654 0.940526 81.5189 1.3716 82.2423 1.85754L80.8034 4.49101Z" fill="#838990"/>
<path d="M96.9217 13.9668V16.8119H85.292V0.117565H96.7094V2.96265H88.5474V6.9834H95.6007V9.61687H88.5474V13.9668H96.9217Z" fill="#838990"/>
<path d="M99.4596 16.8119V0.117565H106.867C107.637 0.117565 108.345 0.27432 108.99 0.587828C109.65 0.901337 110.216 1.32457 110.688 1.85754C111.176 2.3905 111.545 2.98617 111.797 3.64454C112.064 4.30291 112.198 4.97695 112.198 5.66667C112.198 6.73259 111.923 7.71231 111.372 8.60581C110.838 9.49931 110.106 10.142 109.178 10.5339L113 16.8119H109.414L105.97 11.2158H102.715V16.8119H99.4596ZM102.715 8.37068H106.796C107.409 8.37068 107.913 8.11203 108.306 7.59474C108.715 7.06178 108.919 6.41909 108.919 5.66667C108.919 5.14938 108.809 4.68695 108.589 4.27939C108.369 3.87183 108.086 3.55048 107.74 3.31535C107.409 3.08022 107.048 2.96265 106.654 2.96265H102.715V8.37068Z" fill="#838990"/>
<path d="M13.9414 2.96301H8.58661V16.8122H5.35484V2.96301H0V0.11792H13.9414V2.96301Z" fill="#838990"/>
</svg>
