<svg width="96" height="96" viewBox="0 0 96 96" fill="none" xmlns="http://www.w3.org/2000/svg">
<path d="M41.3398 92.4105L4.78101 71.0651C3.53397 70.337 3.52872 68.5368 4.7715 67.8014L44.2521 44.4403C47.7661 42.361 52.1482 42.4234 55.6016 44.6018L90.3879 66.5458C91.5832 67.2998 91.5606 69.0503 90.3462 69.7732L52.3946 92.3638C48.9925 94.389 44.7589 94.4068 41.3398 92.4105Z" stroke="#00193F"/>
<path d="M41.453 87.5253L12.9083 70.8698C11.6606 70.1418 11.6554 68.3409 12.8988 67.6056L43.8126 49.3254C47.3253 47.2482 51.7047 47.3106 55.1568 49.4868L82.2607 66.5734C83.4567 67.3274 83.4341 69.0787 82.219 69.8015L52.5025 87.4787C49.1017 89.5017 44.8708 89.5195 41.453 87.5253Z" fill="#00193F"/>
<path fill-rule="evenodd" clip-rule="evenodd" d="M19.839 69.8479L41.6118 82.3536C44.9968 84.2978 49.1638 84.2804 52.5324 82.3078L75.2912 68.981C75.8941 68.628 76.2069 68.0228 76.2266 67.409L76.2286 67.4089V63.3803L71.6296 63.4411L54.7198 52.9475C51.2987 50.8245 46.9851 50.7636 43.5054 52.7891L24.1257 64.0698L18.8848 64.1392V68.2349L18.8891 68.2348C18.8984 68.8643 19.2153 69.4896 19.839 69.8479Z" fill="#9CBDEE"/>
<path d="M41.6115 78.3537L19.8386 65.848C18.5761 65.1228 18.5708 63.3032 19.8292 62.5707L43.5051 48.7892C46.9847 46.7637 51.2983 46.8246 54.7194 48.9476L75.3325 61.7393C76.5436 62.4909 76.5209 64.2608 75.2909 64.9811L52.5321 78.3079C49.1635 80.2805 44.9965 80.2979 41.6115 78.3537Z" fill="white"/>
<path opacity="0.2" d="M19.839 65.8583L41.6118 78.3639C44.9968 80.3082 49.1638 80.2907 52.5324 78.3182L75.2912 64.9914C75.8941 64.6383 76.2069 64.0332 76.2266 63.4193L76.2286 63.4193V59.3906V13.0001L18.8891 12.9999L18.8848 60.1496V64.2453L18.8891 64.2452C18.8984 64.8746 19.2153 65.5 19.839 65.8583Z" fill="url(#paint0_linear_2476_68636)"/>
<circle cx="66" cy="62.0664" r="1" fill="#017AFF"/>
<circle cx="30" cy="61.0664" r="1" fill="#017AFF"/>
<circle cx="30" cy="43.0664" r="1" fill="#017AFF"/>
<circle cx="37" cy="32.0664" r="1" fill="#017AFF"/>
<circle cx="31" cy="31.0664" r="1" fill="#017AFF"/>
<circle cx="41" cy="21.0664" r="1" fill="#017AFF"/>
<circle cx="59" cy="22.0664" r="1" fill="#017AFF"/>
<circle cx="72" cy="46.0664" r="1" fill="#017AFF"/>
<circle cx="70.5" cy="55.5664" r="0.5" fill="#017AFF"/>
<circle cx="36.5" cy="40.5664" r="0.5" fill="#017AFF"/>
<circle cx="49.5" cy="14.5664" r="0.5" fill="#017AFF"/>
<circle cx="34.5" cy="17.5664" r="0.5" fill="#017AFF"/>
<circle cx="63.5" cy="23.5664" r="0.5" fill="#017AFF"/>
<circle cx="70.5" cy="38.5664" r="0.5" fill="#017AFF"/>
<circle cx="25.5" cy="48.5664" r="0.5" fill="#017AFF"/>
<circle cx="34.5" cy="65.5664" r="0.5" fill="#017AFF"/>
<g filter="url(#filter0_d_2476_68636)">
<path d="M27.6031 54.5592L45.839 65.027C46.6083 65.4789 47.5602 65.4862 48.3363 65.046L65.5937 55.2184C65.8431 55.077 65.9453 54.8063 65.8995 54.5592V51.0131L56.1666 50.9521L46.2914 45.2199C45.5159 44.7697 44.5586 44.7698 43.7832 45.2201L34.2599 50.7496L27.296 50.6852V53.9845C27.2834 54.2051 27.3856 54.4315 27.6031 54.5592Z" fill="url(#paint1_linear_2476_68636)"/>
</g>
<path d="M46.115 62.0015L27.5437 51.3379C27.1605 51.1179 27.1592 50.5656 27.5413 50.3438L43.8973 40.847C44.6035 40.437 45.4744 40.4329 46.1844 40.8364L65.0542 51.56C65.4416 51.7801 65.4413 52.3385 65.0537 52.5582L48.3906 62.0076C47.6844 62.4082 46.8191 62.4058 46.115 62.0015Z" fill="url(#paint2_linear_2476_68636)"/>
<path d="M67.1973 30.277L47.6038 19.2014C47.5136 19.1351 47.4071 19.0947 47.2957 19.0845C47.1844 19.0742 47.0723 19.0945 46.9715 19.1431L44.8457 20.2999L44.8457 39.344C44.8589 39.6577 44.9474 39.9636 45.1038 40.2358C45.2602 40.508 45.4798 40.7386 45.7441 40.9079L65.4435 52.0444L67.8711 50.7489C67.9583 50.6826 68.0271 50.595 68.0708 50.4945C68.1145 50.394 68.1316 50.284 68.1207 50.1749V31.8741C68.108 31.5529 68.0173 31.2397 67.8564 30.9614C67.6955 30.6831 67.4693 30.4482 67.1973 30.277Z" fill="#85BFFF"/>
<path d="M65.0063 31.5112L45.4448 20.3746C44.954 20.0917 44.5547 20.3246 44.5547 20.8903V39.1911C44.5709 39.5009 44.6599 39.8024 44.8146 40.0713C44.9692 40.3401 45.1852 40.5687 45.4448 40.7384L65.0063 51.875C65.4971 52.1578 65.8964 51.9332 65.8964 51.3592V33.0584C65.8789 32.749 65.7893 32.4479 65.6348 32.1793C65.4802 31.9106 65.265 31.6818 65.0063 31.5112Z" fill="#6AB1FF"/>
<path d="M45.7266 39.5653V21.8967L64.5933 32.7869V50.4555L45.7266 39.5653Z" fill="#8AC2FF"/>
<path d="M35.873 47.4438L44.601 42.2083L61.777 52.1281L53.049 57.3569L35.873 47.4438Z" fill="#57A7FF"/>
<path d="M42.3671 57.6233L35.5293 53.6742L39.8979 51.1575L46.7357 55.0987L42.3671 57.6233Z" fill="#57A7FF"/>
<defs>
<filter id="filter0_d_2476_68636" x="21.5554" y="44.8823" width="50.0943" height="36.5594" filterUnits="userSpaceOnUse" color-interpolation-filters="sRGB">
<feFlood flood-opacity="0" result="BackgroundImageFix"/>
<feColorMatrix in="SourceAlpha" type="matrix" values="0 0 0 0 0 0 0 0 0 0 0 0 0 0 0 0 0 0 127 0" result="hardAlpha"/>
<feOffset dy="10.3311"/>
<feGaussianBlur stdDeviation="2.86976"/>
<feComposite in2="hardAlpha" operator="out"/>
<feColorMatrix type="matrix" values="0 0 0 0 0.231526 0 0 0 0 0.59554 0 0 0 0 1 0 0 0 0.23 0"/>
<feBlend mode="normal" in2="BackgroundImageFix" result="effect1_dropShadow_2476_68636"/>
<feBlend mode="normal" in="SourceGraphic" in2="effect1_dropShadow_2476_68636" result="shape"/>
</filter>
<linearGradient id="paint0_linear_2476_68636" x1="47.5567" y1="13" x2="47.5567" y2="79.81" gradientUnits="userSpaceOnUse">
<stop stop-color="#017AFF" stop-opacity="0"/>
<stop offset="1" stop-color="#017AFF"/>
</linearGradient>
<linearGradient id="paint1_linear_2476_68636" x1="30.8058" y1="56.2376" x2="62.3696" y2="58.1403" gradientUnits="userSpaceOnUse">
<stop stop-color="#3C99FF"/>
<stop offset="0.424133" stop-color="#8EC4FF"/>
<stop offset="1" stop-color="#64AEFF"/>
</linearGradient>
<linearGradient id="paint2_linear_2476_68636" x1="35.3106" y1="47.0182" x2="63.2228" y2="52.1054" gradientUnits="userSpaceOnUse">
<stop stop-color="#57A7FF"/>
<stop offset="1" stop-color="#ACD4FF"/>
</linearGradient>
</defs>
</svg>
