<svg width="35" height="53" viewBox="0 0 35 53" fill="none" xmlns="http://www.w3.org/2000/svg">
<g clip-path="url(#clip0_2476_66293)">
<path d="M20.3423 50.0333L3.88648 40.4253C2.63943 39.6972 2.63418 37.897 3.87696 37.1616L21.8682 26.5159C25.3822 24.4367 29.7643 24.4991 33.2177 26.6775L48.733 36.4649C49.9283 37.2189 49.9057 38.9694 48.6912 39.6923L31.3972 49.9866C27.995 52.0117 23.7615 52.0296 20.3423 50.0333Z" stroke="#017AFF" stroke-width="0.552083"/>
<path d="M22.8875 48.7853L7.1284 39.5901C6.43958 39.1881 6.43669 38.1939 7.12315 37.7879L24.1902 27.6957C26.1294 26.549 28.5473 26.5834 30.4531 27.7848L45.4167 37.2181C46.077 37.6343 46.0645 38.6012 45.3937 39.0002L28.9877 48.7595C27.1102 49.8764 24.7744 49.8862 22.8875 48.7853Z" fill="#017AFF"/>
<path fill-rule="evenodd" clip-rule="evenodd" d="M10.9544 39.0261L22.9748 45.9303C24.8436 47.0037 27.1441 46.994 29.0039 45.905L41.5686 38.5475C41.9014 38.3526 42.0741 38.0185 42.085 37.6796L42.0863 37.6796V35.4554L39.5471 35.489L30.2114 29.6957C28.3227 28.5236 25.9413 28.49 24.0202 29.6082L13.321 35.8361L10.4277 35.8744V38.1356L10.4299 38.1356C10.4351 38.4831 10.61 38.8283 10.9544 39.0261Z" fill="#5FABFF"/>
<path d="M22.9743 43.7221L10.9539 36.8179C10.2568 36.4175 10.2539 35.413 10.9487 35.0086L24.0197 27.4C25.9408 26.2818 28.3223 26.3154 30.211 27.4875L41.5911 34.5496C42.2597 34.9645 42.2472 35.9417 41.5681 36.3393L29.0034 43.6968C27.1436 44.7858 24.8431 44.7955 22.9743 43.7221Z" fill="white"/>
<path opacity="0.2" d="M10.9546 36.8379L22.975 43.7421C24.8438 44.8155 27.1443 44.8059 29.0041 43.7168L41.5688 36.3593C41.9016 36.1644 42.0743 35.8303 42.0852 35.4914L42.0863 35.4914V33.2673V7.65581L10.4301 7.65571L10.4277 33.6862V35.9474L10.4301 35.9474C10.4353 36.2949 10.6102 36.6401 10.9546 36.8379Z" fill="url(#paint0_linear_2476_66293)"/>
<circle cx="16.5638" cy="34.2659" r="0.552083" fill="#017AFF"/>
<circle cx="16.5638" cy="24.3285" r="0.552083" fill="#017AFF"/>
<circle cx="20.4271" cy="18.2557" r="0.552083" fill="#017AFF"/>
<circle cx="17.1146" cy="17.7035" r="0.552083" fill="#017AFF"/>
<circle cx="22.6361" cy="12.1827" r="0.552083" fill="#017AFF"/>
<circle cx="32.5736" cy="12.7347" r="0.552083" fill="#017AFF"/>
<circle cx="20.151" cy="22.9484" r="0.276042" fill="#017AFF"/>
<circle cx="27.3288" cy="8.59416" r="0.276042" fill="#017AFF"/>
<circle cx="19.0475" cy="10.2504" r="0.276042" fill="#017AFF"/>
<circle cx="35.0573" cy="13.5629" r="0.276042" fill="#017AFF"/>
<circle cx="14.0788" cy="27.3649" r="0.276042" fill="#017AFF"/>
<circle cx="19.0475" cy="36.7504" r="0.276042" fill="#017AFF"/>
<path fill-rule="evenodd" clip-rule="evenodd" d="M20.4896 13.141L20.4959 13.132L22.9289 15.5982C23.133 15.536 23.3469 15.4936 23.5694 15.4715L23.6761 13.3559L24.8903 12.7336L24.8918 12.7234L24.9005 12.7284L24.906 12.7256L24.9351 12.7484L28.7506 14.9513L29.1876 18.284C29.7068 18.8352 30.1907 19.4439 30.6283 20.0911L33.1703 20.4497L35.0998 25.4225L35.0255 25.4487L33.8524 26.0502H33.3152L32.9927 26.1636C33.0343 26.5251 33.0557 26.8824 33.0557 27.2331C33.0557 27.5415 33.0391 27.8358 33.0069 28.1155L35.0884 31.2845L33.1589 34.0294L33.1584 34.0289L33.1587 34.0302L31.9406 34.6708L30.2588 31.7005L29.1104 32.0789L28.7506 34.4074L28.7466 34.405L28.7463 34.4072L27.523 35.0468L26.6466 33.1926L24.8918 32.1795L24.5081 29.1026C23.8972 28.4812 23.3319 27.7796 22.8292 27.0272L20.5084 26.7257L19.266 23.5236L17.3672 22.3782L18.5921 21.7409H18.6114L20.5131 21.0414C20.4702 20.6739 20.448 20.3106 20.448 19.9541C20.448 19.5566 20.4756 19.1824 20.5287 18.8329L18.5665 15.8769L19.5155 14.5268C19.4264 14.2498 19.3429 13.9891 19.2756 13.7786L20.4896 13.141ZM26.6233 20.7375C25.351 20.0804 24.34 20.7125 24.34 22.2009C24.34 23.7394 25.4201 25.6101 26.7524 26.3793C28.0848 27.1486 29.1648 26.525 29.1648 24.9865C29.1648 24.2233 28.899 23.3783 28.4684 22.6265L27.0535 21.2613L26.6233 20.7375Z" fill="#3D8AFF"/>
<path fill-rule="evenodd" clip-rule="evenodd" d="M23.2697 16.1322L23.6729 13.3646L27.5318 15.5925L27.9687 18.9252C28.488 19.4763 28.9719 20.085 29.4095 20.7323L31.9515 21.0909L33.8809 26.0637L31.7739 26.8048C31.8154 27.1663 31.8369 27.5236 31.8369 27.8743C31.8369 28.1827 31.8203 28.477 31.7881 28.7566L33.8695 31.9257L31.9401 34.6706L29.509 32.1792C29.0398 32.3492 28.5148 32.4104 27.948 32.3548L27.5318 35.0485L23.6729 32.8206L23.2892 29.7437C22.6784 29.1224 22.1131 28.4207 21.6104 27.6684L19.2895 27.3668L17.3601 22.394L19.2943 21.6826C19.2514 21.315 19.2292 20.9517 19.2292 20.5952C19.2292 20.1977 19.2568 19.8236 19.3099 19.474L17.3477 16.518L19.2771 13.7731L21.7101 16.2393C22.1821 16.0956 22.7064 16.0573 23.2697 16.1322ZM25.5333 27.0206C26.8657 27.7898 27.9457 27.1662 27.9457 25.6278C27.9457 24.0893 26.8657 22.2186 25.5333 21.4493C24.201 20.6801 23.1209 21.3037 23.1209 22.8421C23.1209 24.3806 24.201 26.2513 25.5333 27.0206Z" fill="url(#paint1_linear_2476_66293)"/>
<ellipse opacity="0.3" cx="25.5499" cy="35.2934" rx="9.28644" ry="2.67227" transform="rotate(30 25.5499 35.2934)" fill="url(#paint2_radial_2476_66293)"/>
</g>
<defs>
<linearGradient id="paint0_linear_2476_66293" x1="26.257" y1="7.65576" x2="26.257" y2="44.5404" gradientUnits="userSpaceOnUse">
<stop stop-color="#017AFF" stop-opacity="0"/>
<stop offset="1" stop-color="#017AFF"/>
</linearGradient>
<linearGradient id="paint1_linear_2476_66293" x1="17.3477" y1="15.0775" x2="26.3257" y2="36.7591" gradientUnits="userSpaceOnUse">
<stop stop-color="#3C99FF"/>
<stop offset="1" stop-color="#87C0FF"/>
</linearGradient>
<radialGradient id="paint2_radial_2476_66293" cx="0" cy="0" r="1" gradientUnits="userSpaceOnUse" gradientTransform="translate(25.5499 35.2934) rotate(90) scale(2.67227 9.28644)">
<stop stop-color="#5DABFF"/>
<stop offset="1" stop-color="#60ACFF" stop-opacity="0"/>
</radialGradient>
<clipPath id="clip0_2476_66293">
<rect width="35" height="53" fill="white"/>
</clipPath>
</defs>
</svg>
