<svg width="590" height="454" viewBox="0 0 590 454" fill="none" xmlns="http://www.w3.org/2000/svg">
<g clip-path="url(#clip0_2928_60693)">
<g opacity="0.2">
<mask id="mask0_2928_60693" style="mask-type:alpha" maskUnits="userSpaceOnUse" x="21" y="96" width="497" height="360">
<rect x="22.5605" y="97.5605" width="493.537" height="356.371" fill="white" stroke="white" stroke-width="3.12095"/>
</mask>
<g mask="url(#mask0_2928_60693)">
<path d="M323.846 324.848H258.982L257.135 329.298H206.982C201.713 329.298 196.513 328.489 191.929 326.911L137.602 308.383C131.581 306.32 131.581 301.182 137.602 299.119L183.445 283.464L286.282 290.26L323.846 324.848Z" fill="url(#paint0_linear_2928_60693)"/>
<path d="M348.752 319.143L338.9 322.501C334.589 323.957 329.115 324.766 323.847 324.847C318.989 324.928 314.268 324.362 310.778 323.189L294.905 317.768L274.173 324.847L264.662 328.084C259.873 329.702 253.988 329.702 249.199 328.084L186.319 306.603C182.625 305.349 180.367 303.002 180.367 300.494V282.533C180.298 281.562 180.777 280.591 181.872 279.741L196.856 267.848L249.815 217.847L308.863 197.701C317.21 194.87 329.8 194.546 336.984 197.014L446.048 234.312C449.469 235.485 451.043 237.063 450.906 238.721C450.906 238.883 450.837 239.005 450.837 239.166C450.906 239.49 450.906 239.814 450.906 240.137V281.036C450.906 281.198 450.906 281.36 450.906 281.481C450.769 282.775 449.537 284.07 447.28 285.284L348.752 319.143Z" fill="#BCC0E5"/>
<path d="M196.855 280.267V238.883L239.482 251.141L308.793 227.475C317.14 224.644 329.73 224.32 336.914 226.788L408.209 251.181L450.904 238.883V279.782C450.904 279.944 450.904 280.106 450.904 280.227C450.699 282.047 448.373 283.908 444.062 285.405L338.967 321.247C334.656 322.703 329.182 323.512 323.914 323.593C319.056 323.674 314.335 323.108 310.845 321.935L201.713 284.636C198.292 283.504 196.65 281.926 196.855 280.267Z" fill="url(#paint1_linear_2928_60693)"/>
<path d="M196.856 238.883C197.062 237.063 199.388 235.202 203.699 233.705L308.794 197.863C317.142 195.031 329.731 194.708 336.915 197.175L446.048 234.474C449.469 235.647 451.043 237.224 450.906 238.883C450.701 240.703 448.374 242.564 444.064 244.061L338.968 279.903C330.621 282.735 318.031 283.058 310.847 280.591L201.714 243.292C198.293 242.16 196.651 240.542 196.856 238.883Z" fill="white"/>
<path d="M196.856 238.075C197.062 236.254 199.388 234.393 203.699 232.897L308.794 197.055C317.142 194.223 329.731 193.899 336.915 196.367L446.048 233.625C449.469 234.798 451.043 236.376 450.906 238.034C450.701 239.855 448.374 241.715 444.064 243.212L338.968 279.054C330.621 281.886 318.031 282.21 310.847 279.742L201.714 242.444C198.293 241.311 196.651 239.733 196.856 238.075Z" fill="url(#paint2_linear_2928_60693)"/>
<path d="M255.153 302.156L294.906 281.404V316.517L264.664 326.833C259.874 328.451 253.99 328.451 249.201 326.833L186.321 305.352C182.626 304.098 180.368 301.752 180.368 299.244V281.282L255.153 302.156Z" fill="url(#paint3_linear_2928_60693)"/>
<path d="M266.032 304.34L294.906 281.403L294.427 280.19L215.879 253.369L182.011 280.028C179.342 282.131 180.3 284.963 184.2 286.258L244.685 306.93C251.869 309.438 261.038 308.305 266.032 304.34Z" fill="white"/>
<path d="M265.143 303.896L294.906 280.271L214.716 252.884L181.805 278.977C179.068 281.121 180.163 284.195 184.063 285.53L244.958 306.323C251.869 308.629 260.49 307.577 265.143 303.896Z" fill="white"/>
<mask id="mask1_2928_60693" style="mask-type:alpha" maskUnits="userSpaceOnUse" x="274" y="281" width="21" height="43">
<path d="M274.171 323.634V297.865L294.902 281.4V316.554L274.171 323.634Z" fill="url(#paint4_linear_2928_60693)"/>
</mask>
<g mask="url(#mask1_2928_60693)">
<path d="M274.171 323.634V297.865L294.902 281.4V316.554L274.171 323.634Z" fill="#DBE1FF"/>
</g>
<path d="M242.015 238.88C242.152 237.706 243.657 236.493 246.462 235.562L314.2 212.463C319.537 210.643 327.679 210.441 332.331 212.018L402.6 236.048C404.585 236.736 405.611 237.626 405.748 238.556C405.816 238.88 405.748 239.203 405.543 239.527C405.474 239.608 405.474 239.689 405.406 239.729V239.77C405.337 239.851 405.337 239.891 405.269 239.972C405.269 239.972 405.269 240.012 405.2 240.012C405.132 240.093 405.064 240.134 404.995 240.215C404.995 240.215 404.995 240.255 404.927 240.255C404.858 240.336 404.79 240.376 404.721 240.457C404.721 240.457 404.721 240.457 404.721 240.498C404.516 240.66 404.311 240.821 404.106 240.943L404.037 240.983C403.969 241.024 403.832 241.105 403.764 241.145C403.695 241.185 403.695 241.185 403.627 241.226C403.558 241.266 403.421 241.307 403.353 241.388C403.285 241.428 403.285 241.428 403.216 241.469C403.148 241.509 403.011 241.55 402.942 241.59C402.874 241.63 402.806 241.63 402.806 241.671C402.737 241.711 402.6 241.752 402.532 241.792C402.464 241.833 402.395 241.833 402.327 241.873C402.19 241.914 402.121 241.954 401.985 241.995C401.916 242.035 401.848 242.035 401.848 242.075C401.711 242.156 401.506 242.197 401.3 242.278L333.563 265.377C330.552 266.388 326.652 266.914 323.026 266.874C322.273 266.874 321.521 266.833 320.768 266.793C320.7 266.793 320.563 266.793 320.494 266.752C318.647 266.59 316.868 266.267 315.5 265.781L270.957 250.571L245.231 241.752C245.094 241.711 244.957 241.671 244.82 241.59C244.752 241.59 244.752 241.55 244.683 241.55C244.615 241.509 244.546 241.469 244.41 241.469C244.341 241.428 244.273 241.428 244.273 241.388C244.204 241.347 244.136 241.347 244.068 241.307C243.999 241.266 243.931 241.266 243.931 241.226C243.862 241.185 243.794 241.185 243.794 241.145C243.725 241.105 243.657 241.064 243.657 241.064C243.589 241.024 243.589 241.024 243.52 240.983C243.452 240.943 243.383 240.902 243.383 240.862C243.315 240.821 243.315 240.821 243.246 240.781C243.178 240.741 243.178 240.7 243.11 240.66C243.11 240.619 243.041 240.619 243.041 240.579C242.973 240.538 242.973 240.498 242.904 240.457C242.904 240.417 242.836 240.417 242.836 240.376C242.768 240.336 242.768 240.296 242.699 240.255L242.631 240.215C242.562 240.174 242.562 240.134 242.494 240.093C242.494 240.093 242.494 240.053 242.425 240.053C242.357 240.012 242.357 239.972 242.357 239.891V239.851C242.357 239.81 242.289 239.729 242.289 239.689V239.648C242.289 239.608 242.22 239.527 242.22 239.486C242.22 239.486 242.22 239.486 242.22 239.446C242.22 239.406 242.22 239.325 242.152 239.284C242.152 239.244 242.152 239.163 242.152 239.082C242.015 239.041 242.015 238.961 242.015 238.88Z" fill="#3455FF"/>
<path d="M405.541 239.529C405.472 239.61 405.472 239.691 405.404 239.731V239.772C405.336 239.853 405.336 239.893 405.267 239.974C405.267 239.974 405.267 240.014 405.199 240.014C405.13 240.095 405.062 240.136 404.993 240.217C404.993 240.217 404.993 240.257 404.925 240.257C404.857 240.338 404.788 240.379 404.72 240.459C404.72 240.459 404.72 240.459 404.72 240.5C404.651 240.581 404.515 240.662 404.446 240.743C403.967 240.459 403.351 240.176 402.599 239.893L332.261 215.864C327.609 214.286 319.535 214.488 314.13 216.309L246.392 239.408C245.024 239.853 243.997 240.379 243.245 240.904C243.245 240.864 243.176 240.864 243.176 240.824C243.108 240.783 243.108 240.783 243.04 240.743C242.971 240.702 242.971 240.662 242.903 240.621C242.903 240.581 242.834 240.581 242.834 240.54C242.766 240.5 242.766 240.459 242.697 240.419C242.697 240.379 242.629 240.379 242.629 240.338C242.561 240.298 242.561 240.257 242.492 240.217L242.424 240.176C242.355 240.136 242.355 240.095 242.287 240.055C242.287 240.055 242.287 240.014 242.218 240.014C242.15 239.974 242.15 239.934 242.15 239.853V239.812C242.15 239.772 242.082 239.691 242.082 239.65V239.61C242.082 239.569 242.013 239.489 242.013 239.448C242.013 239.448 242.013 239.448 242.013 239.408C242.013 239.367 242.013 239.286 241.945 239.246C241.945 239.205 241.945 239.124 241.945 239.044C241.945 238.963 241.945 238.922 241.945 238.841C242.082 237.668 243.587 236.455 246.392 235.524L314.13 212.425C319.466 210.605 327.609 210.402 332.261 211.98L402.599 236.05C404.583 236.738 405.609 237.628 405.746 238.558C405.746 238.882 405.678 239.205 405.541 239.529Z" fill="url(#paint5_linear_2928_60693)"/>
<path opacity="0.5" d="M312.355 196.849L368.871 177.715L270.139 143.855L312.355 196.849ZM366.134 177.715L312.971 195.676L273.286 145.837L366.134 177.715Z" fill="#BCC0E5"/>
<path opacity="0.5" d="M270.412 145.478L341.775 134.839L309.344 99.4421L270.412 145.478ZM339.723 134.273L272.943 144.224L309.344 101.182L339.723 134.273Z" fill="#BCC0E5"/>
<path d="M373.797 175.575V179.863L367.502 182.007V177.719L373.797 175.575Z" fill="#424DC8"/>
<path d="M361.209 175.575V179.863L367.504 182.007V177.719L361.209 175.575Z" fill="#808BFF"/>
<path d="M373.797 175.573L367.502 173.429L361.207 175.573L367.502 177.717L373.797 175.573Z" fill="#002E85"/>
<path d="M278.006 142.723V147.011L271.711 149.156V144.867L278.006 142.723Z" fill="#424DC8"/>
<path d="M265.418 142.723V147.011L271.713 149.156V144.867L265.418 142.723Z" fill="#808BFF"/>
<path d="M278.006 142.725L271.711 140.581L265.416 142.725L271.711 144.869L278.006 142.725Z" fill="#002E85"/>
<path d="M315.639 98.1458V102.434L309.344 104.578V100.29L315.639 98.1458Z" fill="#424DC8"/>
<path d="M303.051 98.1458V102.434L309.346 104.578V100.29L303.051 98.1458Z" fill="#808BFF"/>
<path d="M315.639 98.144L309.344 96L303.049 98.144L309.344 100.288L315.639 98.144Z" fill="#002E85"/>
<path d="M318.924 194.1V198.388L312.629 200.532V196.284L318.924 194.1Z" fill="#424DC8"/>
<path d="M306.336 194.1V198.388L312.631 200.532V196.284L306.336 194.1Z" fill="#808BFF"/>
<path d="M318.924 194.101L312.629 191.957L306.334 194.101L312.629 196.286L318.924 194.101Z" fill="#002E85"/>
<path d="M349.848 131.436V137.625L340.748 140.74V134.551L349.848 131.436Z" fill="#424DC8"/>
<path d="M331.648 131.436V137.625L340.748 140.74V134.551L331.648 131.436Z" fill="#808BFF"/>
<path d="M349.848 131.432L340.748 128.317L331.648 131.432L340.748 134.547L349.848 131.432Z" fill="#002E85"/>
<mask id="mask2_2928_60693" style="mask-type:alpha" maskUnits="userSpaceOnUse" x="234" y="126" width="177" height="143">
<path d="M234.693 126.944H410.674V268.532H234.693V126.944Z" fill="url(#paint6_linear_2928_60693)"/>
</mask>
<g mask="url(#mask2_2928_60693)">
<path d="M242.015 238.885V131.723C242.015 130.914 243.11 130.307 244.41 130.307H403.285C404.653 130.307 405.679 130.954 405.679 131.723V238.561C405.748 238.885 405.679 239.208 405.474 239.532C405.406 239.613 405.406 239.694 405.337 239.734V239.775C405.269 239.855 405.269 239.896 405.2 239.977C405.2 239.977 405.2 240.017 405.132 240.017C405.064 240.098 404.995 240.139 404.927 240.22C404.927 240.22 404.927 240.26 404.858 240.26C404.79 240.341 404.722 240.381 404.653 240.462C404.653 240.462 404.653 240.462 404.653 240.503C404.448 240.665 404.243 240.826 404.037 240.948L403.969 240.988C403.9 241.029 403.764 241.11 403.695 241.15C403.627 241.19 403.627 241.19 403.558 241.231C403.49 241.271 403.353 241.312 403.285 241.393C403.216 241.433 403.216 241.433 403.148 241.474C403.079 241.514 402.943 241.555 402.874 241.595C402.806 241.635 402.737 241.635 402.737 241.676C402.669 241.716 402.532 241.757 402.464 241.797C402.395 241.838 402.327 241.838 402.258 241.878C402.121 241.919 402.053 241.959 401.916 242C401.848 242.04 401.779 242.04 401.779 242.08C401.643 242.161 401.437 242.202 401.232 242.283L333.495 265.382C330.484 266.393 326.584 266.919 322.958 266.879C322.205 266.879 321.452 266.838 320.7 266.798C320.631 266.798 320.495 266.798 320.426 266.757C318.579 266.595 316.8 266.272 315.431 265.786L270.889 250.576L245.162 241.757C245.025 241.716 244.889 241.676 244.752 241.595C244.683 241.595 244.683 241.555 244.615 241.555C244.547 241.514 244.478 241.474 244.341 241.474C244.273 241.433 244.204 241.433 244.204 241.393C244.136 241.352 244.068 241.352 243.999 241.312C243.931 241.271 243.862 241.271 243.862 241.231C243.794 241.19 243.725 241.19 243.725 241.15C243.657 241.11 243.589 241.069 243.589 241.069C243.52 241.029 243.52 241.029 243.452 240.988C243.383 240.948 243.315 240.907 243.315 240.867C243.247 240.826 243.247 240.826 243.178 240.786C243.11 240.745 243.11 240.705 243.041 240.665C243.041 240.624 242.973 240.624 242.973 240.584C242.904 240.543 242.904 240.503 242.836 240.462C242.836 240.422 242.768 240.422 242.768 240.381C242.699 240.341 242.699 240.3 242.631 240.26L242.562 240.22C242.494 240.179 242.494 240.139 242.425 240.098C242.425 240.098 242.425 240.058 242.357 240.058C242.289 240.017 242.289 239.977 242.289 239.896V239.855C242.289 239.815 242.22 239.734 242.22 239.694V239.653C242.22 239.613 242.152 239.532 242.152 239.491C242.152 239.491 242.152 239.491 242.152 239.451C242.152 239.41 242.152 239.33 242.083 239.289C242.083 239.249 242.083 239.168 242.083 239.087C242.015 239.046 242.015 238.966 242.015 238.885Z" fill="url(#paint7_linear_2928_60693)"/>
<g opacity="0.3">
<mask id="mask3_2928_60693" style="mask-type:alpha" maskUnits="userSpaceOnUse" x="380" y="174" width="3" height="48">
<g opacity="0.3">
<g opacity="0.3">
<path opacity="0.3" d="M381.189 221.285C381.736 221.285 382.215 221.002 382.215 220.679V174.683C382.215 174.359 381.736 174.076 381.189 174.076C380.641 174.076 380.162 174.359 380.162 174.683V220.679C380.162 221.043 380.641 221.285 381.189 221.285Z" fill="url(#paint8_linear_2928_60693)"/>
</g>
</g>
</mask>
<g mask="url(#mask3_2928_60693)">
<path opacity="0.3" d="M381.185 221.279C381.732 221.279 382.211 220.996 382.211 220.673V174.677C382.211 174.353 381.732 174.07 381.185 174.07C380.637 174.07 380.158 174.353 380.158 174.677V220.673C380.158 221.037 380.637 221.279 381.185 221.279Z" fill="url(#paint9_linear_2928_60693)"/>
</g>
<mask id="mask4_2928_60693" style="mask-type:alpha" maskUnits="userSpaceOnUse" x="396" y="141" width="3" height="48">
<g opacity="0.3">
<g opacity="0.3">
<path opacity="0.3" d="M397.944 188.675C398.492 188.675 398.971 188.392 398.971 188.068V142.072C398.971 141.749 398.492 141.465 397.944 141.465C397.397 141.465 396.918 141.749 396.918 142.072V188.068C396.918 188.392 397.397 188.675 397.944 188.675Z" fill="url(#paint10_linear_2928_60693)"/>
</g>
</g>
</mask>
<g mask="url(#mask4_2928_60693)">
<path opacity="0.3" d="M397.948 188.678C398.496 188.678 398.975 188.394 398.975 188.071V142.075C398.975 141.751 398.496 141.468 397.948 141.468C397.401 141.468 396.922 141.751 396.922 142.075V188.071C396.922 188.394 397.401 188.678 397.948 188.678Z" fill="url(#paint11_linear_2928_60693)"/>
</g>
<mask id="mask5_2928_60693" style="mask-type:alpha" maskUnits="userSpaceOnUse" x="266" y="148" width="3" height="48">
<g opacity="0.3">
<g opacity="0.3">
<path opacity="0.3" d="M267.534 195.471C268.082 195.471 268.561 195.188 268.561 194.864V148.868C268.561 148.545 268.082 148.261 267.534 148.261C266.987 148.261 266.508 148.545 266.508 148.868V194.864C266.508 195.188 266.918 195.471 267.534 195.471Z" fill="url(#paint12_linear_2928_60693)"/>
</g>
</g>
</mask>
<g mask="url(#mask5_2928_60693)">
<path opacity="0.3" d="M267.534 195.477C268.082 195.477 268.561 195.193 268.561 194.87V148.874C268.561 148.55 268.082 148.267 267.534 148.267C266.987 148.267 266.508 148.55 266.508 148.874V194.87C266.508 195.193 266.918 195.477 267.534 195.477Z" fill="url(#paint13_linear_2928_60693)"/>
</g>
<mask id="mask6_2928_60693" style="mask-type:alpha" maskUnits="userSpaceOnUse" x="251" y="165" width="3" height="49">
<g opacity="0.3">
<g opacity="0.3">
<path opacity="0.3" d="M252.964 213.114C253.511 213.114 253.99 212.831 253.99 212.507V166.511C253.99 166.188 253.511 165.904 252.964 165.904C252.417 165.904 251.938 166.188 251.938 166.511V212.507C251.938 212.871 252.417 213.114 252.964 213.114Z" fill="url(#paint14_linear_2928_60693)"/>
</g>
</g>
</mask>
<g mask="url(#mask6_2928_60693)">
<path opacity="0.3" d="M252.96 213.114C253.507 213.114 253.986 212.83 253.986 212.507V166.511C253.986 166.187 253.507 165.904 252.96 165.904C252.413 165.904 251.934 166.187 251.934 166.511V212.507C251.934 212.871 252.413 213.114 252.96 213.114Z" fill="url(#paint15_linear_2928_60693)"/>
</g>
<mask id="mask7_2928_60693" style="mask-type:alpha" maskUnits="userSpaceOnUse" x="325" y="153" width="3" height="47">
<g opacity="0.3">
<g opacity="0.3">
<path opacity="0.3" d="M326.788 199.356C327.336 199.356 327.814 199.073 327.814 198.749V154.412C327.814 154.088 327.336 153.805 326.788 153.805C326.241 153.805 325.762 154.088 325.762 154.412V198.749C325.762 199.073 326.241 199.356 326.788 199.356Z" fill="url(#paint16_linear_2928_60693)"/>
</g>
</g>
</mask>
<g mask="url(#mask7_2928_60693)">
<path opacity="0.3" d="M326.79 199.359C327.337 199.359 327.816 199.076 327.816 198.752V154.415C327.816 154.091 327.337 153.808 326.79 153.808C326.243 153.808 325.764 154.091 325.764 154.415V198.752C325.764 199.076 326.243 199.359 326.79 199.359Z" fill="url(#paint17_linear_2928_60693)"/>
</g>
<mask id="mask8_2928_60693" style="mask-type:alpha" maskUnits="userSpaceOnUse" x="393" y="195" width="3" height="47">
<g opacity="0.3">
<g opacity="0.3">
<path opacity="0.3" d="M394.386 241.023C394.933 241.023 395.412 240.74 395.412 240.417V196.079C395.412 195.756 394.933 195.473 394.386 195.473C393.838 195.473 393.359 195.756 393.359 196.079V240.417C393.359 240.74 393.77 241.023 394.386 241.023Z" fill="url(#paint18_linear_2928_60693)"/>
</g>
</g>
</mask>
<g mask="url(#mask8_2928_60693)">
<path opacity="0.3" d="M394.388 241.026C394.935 241.026 395.414 240.743 395.414 240.42V196.082C395.414 195.759 394.935 195.476 394.388 195.476C393.84 195.476 393.361 195.759 393.361 196.082V240.42C393.361 240.743 393.772 241.026 394.388 241.026Z" fill="url(#paint19_linear_2928_60693)"/>
</g>
<mask id="mask9_2928_60693" style="mask-type:alpha" maskUnits="userSpaceOnUse" x="245" y="193" width="3" height="47">
<g opacity="0.3">
<g opacity="0.3">
<path opacity="0.3" d="M246.534 239C247.082 239 247.561 238.717 247.561 238.394V194.016C247.561 193.692 247.082 193.409 246.534 193.409C245.987 193.409 245.508 193.692 245.508 194.016V238.394C245.508 238.717 245.987 239 246.534 239Z" fill="url(#paint20_linear_2928_60693)"/>
</g>
</g>
</mask>
<g mask="url(#mask9_2928_60693)">
<path opacity="0.3" d="M246.528 239.003C247.076 239.003 247.555 238.72 247.555 238.397V194.019C247.555 193.695 247.076 193.412 246.528 193.412C245.981 193.412 245.502 193.695 245.502 194.019V238.397C245.502 238.72 245.981 239.003 246.528 239.003Z" fill="url(#paint21_linear_2928_60693)"/>
</g>
<mask id="mask10_2928_60693" style="mask-type:alpha" maskUnits="userSpaceOnUse" x="299" y="109" width="4" height="46">
<g opacity="0.3">
<g opacity="0.3">
<path opacity="0.3" d="M300.989 154.655C301.537 154.655 302.016 154.372 302.016 154.048V109.711C302.016 109.387 301.537 109.104 300.989 109.104C300.442 109.104 299.963 109.387 299.963 109.711V154.048C299.963 154.412 300.442 154.655 300.989 154.655Z" fill="url(#paint22_linear_2928_60693)"/>
</g>
</g>
</mask>
<g mask="url(#mask10_2928_60693)">
<path opacity="0.3" d="M300.995 154.655C301.543 154.655 302.021 154.372 302.021 154.048V109.711C302.021 109.387 301.543 109.104 300.995 109.104C300.448 109.104 299.969 109.387 299.969 109.711V154.048C299.969 154.412 300.448 154.655 300.995 154.655Z" fill="url(#paint23_linear_2928_60693)"/>
</g>
<mask id="mask11_2928_60693" style="mask-type:alpha" maskUnits="userSpaceOnUse" x="300" y="196" width="4" height="46">
<g opacity="0.3">
<g opacity="0.3">
<path opacity="0.3" d="M302.017 241.993C302.564 241.993 303.043 241.71 303.043 241.387V197.049C303.043 196.726 302.564 196.443 302.017 196.443C301.469 196.443 300.99 196.726 300.99 197.049V241.387C300.99 241.71 301.469 241.993 302.017 241.993Z" fill="url(#paint24_linear_2928_60693)"/>
</g>
</g>
</mask>
<g mask="url(#mask11_2928_60693)">
<path opacity="0.3" d="M302.021 241.996C302.568 241.996 303.047 241.713 303.047 241.39V197.052C303.047 196.729 302.568 196.446 302.021 196.446C301.473 196.446 300.994 196.729 300.994 197.052V241.39C300.994 241.713 301.473 241.996 302.021 241.996Z" fill="url(#paint25_linear_2928_60693)"/>
</g>
<mask id="mask12_2928_60693" style="mask-type:alpha" maskUnits="userSpaceOnUse" x="245" y="138" width="3" height="47">
<g opacity="0.3">
<g opacity="0.3">
<path opacity="0.3" d="M246.534 184.314C247.082 184.314 247.561 184.031 247.561 183.707V139.33C247.561 139.006 247.082 138.723 246.534 138.723C245.987 138.723 245.508 139.006 245.508 139.33V183.667C245.508 184.031 245.987 184.314 246.534 184.314Z" fill="url(#paint26_linear_2928_60693)"/>
</g>
</g>
</mask>
<g mask="url(#mask12_2928_60693)">
<path opacity="0.3" d="M246.528 184.308C247.076 184.308 247.555 184.025 247.555 183.701V139.324C247.555 139 247.076 138.717 246.528 138.717C245.981 138.717 245.502 139 245.502 139.324V183.661C245.502 184.025 245.981 184.308 246.528 184.308Z" fill="url(#paint27_linear_2928_60693)"/>
</g>
<mask id="mask13_2928_60693" style="mask-type:alpha" maskUnits="userSpaceOnUse" x="400" y="195" width="3" height="47">
<g opacity="0.3">
<g opacity="0.3">
<path opacity="0.3" d="M401.915 241.023C402.462 241.023 402.941 240.74 402.941 240.417V196.079C402.941 195.756 402.462 195.473 401.915 195.473C401.368 195.473 400.889 195.756 400.889 196.079V240.417C400.889 240.74 401.368 241.023 401.915 241.023Z" fill="url(#paint28_linear_2928_60693)"/>
</g>
</g>
</mask>
<g mask="url(#mask13_2928_60693)">
<path opacity="0.3" d="M401.913 241.026C402.461 241.026 402.939 240.743 402.939 240.42V196.082C402.939 195.759 402.461 195.476 401.913 195.476C401.366 195.476 400.887 195.759 400.887 196.082V240.42C400.887 240.743 401.366 241.026 401.913 241.026Z" fill="url(#paint29_linear_2928_60693)"/>
</g>
<mask id="mask14_2928_60693" style="mask-type:alpha" maskUnits="userSpaceOnUse" x="400" y="164" width="3" height="47">
<g opacity="0.3">
<g opacity="0.3">
<path opacity="0.3" d="M401.915 210.4C402.462 210.4 402.941 210.117 402.941 209.793V165.456C402.941 165.132 402.462 164.849 401.915 164.849C401.368 164.849 400.889 165.132 400.889 165.456V209.793C400.889 210.117 401.368 210.4 401.915 210.4Z" fill="url(#paint30_linear_2928_60693)"/>
</g>
</g>
</mask>
<g mask="url(#mask14_2928_60693)">
<path opacity="0.3" d="M401.913 210.4C402.461 210.4 402.939 210.117 402.939 209.793V165.456C402.939 165.132 402.461 164.849 401.913 164.849C401.366 164.849 400.887 165.132 400.887 165.456V209.793C400.887 210.117 401.366 210.4 401.913 210.4Z" fill="url(#paint31_linear_2928_60693)"/>
</g>
</g>
</g>
<mask id="mask15_2928_60693" style="mask-type:alpha" maskUnits="userSpaceOnUse" x="241" y="207" width="165" height="57">
<path d="M323.847 263.474C326.926 263.474 330.074 262.989 332.811 262.058L403.217 238.029C404.722 237.503 405.68 236.573 405.68 235.521C405.68 234.469 404.79 233.538 403.217 233.013L332.811 208.983C327.269 207.082 320.358 207.082 314.816 208.983L244.41 233.013C242.905 233.538 241.947 234.469 241.947 235.521C241.947 236.573 242.836 237.503 244.41 238.029L314.816 262.058C317.621 262.989 320.7 263.474 323.847 263.474ZM323.847 208.255C326.79 208.255 329.8 208.7 332.4 209.59L401.985 233.336C403.285 233.781 404.106 234.59 404.106 235.48C404.106 236.37 403.285 237.179 401.985 237.624L332.4 261.371C327.132 263.191 320.563 263.191 315.226 261.371L245.642 237.665C244.342 237.22 243.521 236.411 243.521 235.521C243.521 234.631 244.342 233.822 245.642 233.377L315.226 209.63C317.895 208.7 320.837 208.255 323.847 208.255Z" fill="url(#paint32_linear_2928_60693)"/>
</mask>
<g mask="url(#mask15_2928_60693)">
<path d="M323.847 263.48C326.926 263.48 330.074 262.995 332.811 262.064L403.217 238.035C404.722 237.509 405.68 236.578 405.68 235.527C405.68 234.475 404.79 233.544 403.217 233.018L332.811 208.989C327.269 207.088 320.358 207.088 314.816 208.989L244.41 233.018C242.905 233.544 241.947 234.475 241.947 235.527C241.947 236.578 242.836 237.509 244.41 238.035L314.816 262.064C317.621 262.995 320.7 263.48 323.847 263.48ZM323.847 208.261C326.79 208.261 329.8 208.706 332.4 209.596L401.985 233.342C403.285 233.787 404.106 234.596 404.106 235.486C404.106 236.376 403.285 237.185 401.985 237.63L332.4 261.376C327.132 263.197 320.563 263.197 315.226 261.376L245.642 237.671C244.342 237.226 243.521 236.417 243.521 235.527C243.521 234.637 244.342 233.828 245.642 233.383L315.226 209.636C317.895 208.706 320.837 208.261 323.847 208.261Z" fill="url(#paint33_linear_2928_60693)"/>
</g>
<mask id="mask16_2928_60693" style="mask-type:alpha" maskUnits="userSpaceOnUse" x="241" y="196" width="165" height="57">
<path d="M323.847 252.839C326.926 252.839 330.074 252.354 332.811 251.423L403.217 227.394C404.722 226.868 405.68 225.937 405.68 224.886C405.68 223.834 404.79 222.903 403.217 222.377L332.811 198.348C327.269 196.447 320.358 196.447 314.816 198.348L244.41 222.377C242.905 222.903 241.947 223.834 241.947 224.886C241.947 225.937 242.836 226.868 244.41 227.394L314.816 251.423C317.621 252.394 320.7 252.839 323.847 252.839ZM323.847 197.62C326.79 197.62 329.8 198.065 332.4 198.955L401.985 222.742C403.285 223.187 404.106 223.996 404.106 224.886C404.106 225.776 403.285 226.585 401.985 227.03L332.4 250.776C327.132 252.596 320.563 252.596 315.226 250.776L245.642 227.07C244.342 226.625 243.521 225.816 243.521 224.926C243.521 224.036 244.342 223.227 245.642 222.782L315.226 199.036C317.895 198.065 320.837 197.62 323.847 197.62Z" fill="url(#paint34_linear_2928_60693)"/>
</mask>
<g mask="url(#mask16_2928_60693)">
<path d="M323.847 252.839C326.926 252.839 330.074 252.353 332.811 251.423L403.217 227.394C404.722 226.868 405.68 225.937 405.68 224.885C405.68 223.834 404.79 222.903 403.217 222.377L332.811 198.348C327.269 196.447 320.358 196.447 314.816 198.348L244.41 222.377C242.905 222.903 241.947 223.834 241.947 224.885C241.947 225.937 242.836 226.868 244.41 227.394L314.816 251.423C317.621 252.394 320.7 252.839 323.847 252.839ZM323.847 197.62C326.79 197.62 329.8 198.065 332.4 198.955L401.985 222.741C403.285 223.186 404.106 223.995 404.106 224.885C404.106 225.775 403.285 226.585 401.985 227.03L332.4 250.776C327.132 252.596 320.563 252.596 315.226 250.776L245.642 227.07C244.342 226.625 243.521 225.816 243.521 224.926C243.521 224.036 244.342 223.227 245.642 222.782L315.226 199.036C317.895 198.065 320.837 197.62 323.847 197.62Z" fill="url(#paint35_linear_2928_60693)"/>
</g>
<mask id="mask17_2928_60693" style="mask-type:alpha" maskUnits="userSpaceOnUse" x="241" y="169" width="165" height="57">
<path d="M323.847 225.74C326.926 225.74 330.074 225.254 332.811 224.324L403.217 200.294C404.722 199.768 405.68 198.838 405.68 197.786C405.68 196.734 404.79 195.804 403.217 195.278L332.811 171.249C327.269 169.347 320.358 169.347 314.816 171.249L244.41 195.278C242.905 195.804 241.947 196.734 241.947 197.786C241.947 198.838 242.836 199.768 244.41 200.294L314.816 224.324C317.621 225.295 320.7 225.74 323.847 225.74ZM323.847 170.52C326.79 170.52 329.8 170.965 332.4 171.855L401.985 195.642C403.285 196.087 404.106 196.896 404.106 197.786C404.106 198.676 403.285 199.485 401.985 199.93L332.4 223.677C327.132 225.497 320.563 225.497 315.226 223.677L245.642 199.971C244.342 199.526 243.521 198.717 243.521 197.827C243.521 196.937 244.342 196.128 245.642 195.683L315.226 171.936C317.895 170.965 320.837 170.52 323.847 170.52Z" fill="url(#paint36_linear_2928_60693)"/>
</mask>
<g mask="url(#mask17_2928_60693)">
<path d="M323.847 225.734C326.926 225.734 330.074 225.248 332.811 224.318L403.217 200.288C404.722 199.763 405.68 198.832 405.68 197.78C405.68 196.729 404.79 195.798 403.217 195.272L332.811 171.243C327.269 169.341 320.358 169.341 314.816 171.243L244.41 195.272C242.905 195.798 241.947 196.729 241.947 197.78C241.947 198.832 242.836 199.763 244.41 200.288L314.816 224.318C317.621 225.289 320.7 225.734 323.847 225.734ZM323.847 170.515C326.79 170.515 329.8 170.96 332.4 171.85L401.985 195.636C403.285 196.081 404.106 196.89 404.106 197.78C404.106 198.67 403.285 199.479 401.985 199.924L332.4 223.671C327.132 225.491 320.563 225.491 315.226 223.671L245.642 199.965C244.342 199.52 243.521 198.711 243.521 197.821C243.521 196.931 244.342 196.122 245.642 195.677L315.226 171.93C317.895 170.96 320.837 170.515 323.847 170.515Z" fill="url(#paint37_linear_2928_60693)"/>
</g>
<path d="M218.341 261.536L277.115 281.763V267.523L218.341 247.296V261.536Z" fill="url(#paint38_linear_2928_60693)"/>
<path d="M218.337 261.536L277.111 281.763V267.523L218.337 247.296V261.536Z" fill="url(#paint39_linear_2928_60693)"/>
<path d="M284.502 240.943V277.433C284.502 278.525 282.518 279.212 280.944 278.646L216.559 256.68C214.096 255.83 212.591 254.293 212.591 252.594V216.105C212.591 215.013 214.575 214.325 216.149 214.891L280.533 236.858C282.928 237.707 284.502 239.285 284.502 240.943Z" fill="url(#paint40_linear_2928_60693)"/>
<path d="M270.611 254.295L253.643 248.51V250.007L270.611 255.792V254.295Z" fill="white"/>
<path d="M270.611 257.855L253.643 252.07V253.567L270.611 259.352V257.855Z" fill="white"/>
<path d="M270.611 261.418L253.643 255.633V257.129L270.611 262.914V261.418Z" fill="white"/>
<path d="M242.01 254.897C242.01 258.861 237.289 260.48 231.541 258.497C225.725 256.515 221.073 251.701 221.073 247.737C221.073 243.772 225.794 242.154 231.541 244.136C237.357 246.119 242.01 250.933 242.01 254.897ZM239.615 254.088C239.615 251.054 235.989 247.373 231.541 245.835C227.094 244.339 223.468 245.552 223.468 248.586C223.468 251.62 227.094 255.302 231.541 256.839C235.989 258.336 239.615 257.122 239.615 254.088Z" fill="#5A7EFF"/>
<path d="M238.18 250.488L240.232 250.245C238.317 247.697 235.169 245.391 231.543 244.177V245.836C234.28 246.766 236.743 248.546 238.18 250.488Z" fill="white"/>
<path d="M242.01 238.395C242.01 242.359 237.289 243.977 231.541 241.995C225.725 240.013 221.073 235.199 221.073 231.234C221.073 227.27 225.794 225.652 231.541 227.634C237.357 229.616 242.01 234.43 242.01 238.395ZM239.615 237.545C239.615 234.511 235.989 230.83 231.541 229.292C227.094 227.796 223.468 229.009 223.468 232.043C223.468 235.077 227.094 238.759 231.541 240.296C235.989 241.833 239.615 240.579 239.615 237.545Z" fill="#5A7EFF"/>
<path d="M239.615 237.545C239.615 238.799 238.999 239.77 237.904 240.336L239.82 242.035C241.189 241.307 242.01 240.053 242.01 238.394C242.01 234.43 237.289 229.616 231.541 227.634V229.292C235.989 230.83 239.615 234.511 239.615 237.545Z" fill="white"/>
<path d="M277.112 282.288C277.386 282.288 277.659 282.207 277.864 282.045C278.07 281.802 277.933 281.519 277.591 281.357L218.748 261.131C218.338 261.009 217.859 261.09 217.585 261.292C217.38 261.535 217.517 261.818 217.859 261.98L276.701 282.207C276.838 282.247 276.975 282.288 277.112 282.288Z" fill="white"/>
<path fill-rule="evenodd" clip-rule="evenodd" d="M353.6 420.195L351.987 419.717C347.99 418.536 347.99 416.635 351.987 415.454L402.467 400.531C406.464 399.349 412.894 399.349 416.89 400.531L438.24 406.846C438.336 406.872 438.431 406.899 438.525 406.927L440.351 407.467C440.468 407.499 440.584 407.531 440.697 407.565L512.768 428.883C516.765 430.065 516.765 431.966 512.768 433.147L462.288 448.07C458.291 449.252 451.862 449.252 447.865 448.07L446.038 447.53C445.921 447.498 445.806 447.466 445.693 447.432L444.353 447.036C444.066 446.968 443.788 446.894 443.521 446.815L441.581 446.241C441.502 446.219 441.424 446.197 441.347 446.174L369.276 424.856C369.116 424.808 368.963 424.759 368.816 424.709L354.118 420.361C353.937 420.307 353.764 420.251 353.6 420.195Z" fill="url(#paint41_linear_2928_60693)"/>
<path d="M354.858 402.609L403.209 388.302C407.032 387.172 413.201 387.172 417.024 388.302L486.098 408.722C488.009 409.287 488.965 410.031 488.965 410.776V423.079C488.965 423.824 488.009 424.569 486.098 425.134L437.746 439.441C433.923 440.571 427.754 440.571 423.931 439.441L354.858 419.021C352.99 418.456 352.034 417.737 351.99 416.992V404.689C351.947 403.944 352.903 403.174 354.858 402.609Z" fill="url(#paint42_linear_2928_60693)"/>
<path d="M351.987 397.241L402.467 382.318C406.464 381.136 412.894 381.136 416.89 382.318L488.961 403.636C490.96 404.227 491.959 404.997 491.959 405.768V418.61C491.959 419.381 490.96 420.152 488.961 420.742L438.481 435.665C434.484 436.847 428.055 436.847 424.058 435.665L351.987 414.347C350.032 413.756 349.033 413.011 348.989 412.241V399.398C348.946 398.628 349.945 397.831 351.987 397.241Z" fill="url(#paint43_linear_2928_60693)"/>
<path d="M351.987 401.504L424.058 422.823C428.055 424.004 434.484 424.004 438.481 422.823L488.961 407.9C492.958 406.718 492.958 404.818 488.961 403.636L416.89 382.318C412.894 381.136 406.464 381.136 402.467 382.318L351.987 397.241C347.99 398.422 347.99 400.323 351.987 401.504Z" fill="url(#paint44_linear_2928_60693)"/>
<path d="M354.858 382.552L403.209 368.246C407.032 367.116 413.201 367.116 417.024 368.246L486.098 388.665C488.009 389.23 488.965 389.975 488.965 390.72V403.023C488.965 403.768 488.009 404.513 486.098 405.078L437.746 419.385C433.923 420.515 427.754 420.515 423.931 419.385L354.858 398.965C352.99 398.4 352.034 397.681 351.99 396.936V384.633C351.947 383.862 352.903 383.117 354.858 382.552Z" fill="url(#paint45_linear_2928_60693)"/>
<path d="M351.987 377.184L402.467 362.261C406.464 361.08 412.894 361.08 416.89 362.261L488.961 383.58C490.96 384.171 491.959 384.941 491.959 385.712V398.554C491.959 399.325 490.96 400.095 488.961 400.686L438.481 415.609C434.484 416.791 428.055 416.791 424.058 415.609L351.987 394.29C350.032 393.7 349.033 392.955 348.989 392.184V379.342C348.946 378.546 349.945 377.775 351.987 377.184Z" fill="url(#paint46_linear_2928_60693)"/>
<path d="M351.987 381.448L424.058 402.767C428.055 403.948 434.484 403.948 438.481 402.767L488.961 387.844C492.958 386.662 492.958 384.761 488.961 383.58L416.89 362.261C412.894 361.08 406.464 361.08 402.467 362.261L351.987 377.184C347.99 378.366 347.99 380.266 351.987 381.448Z" fill="url(#paint47_linear_2928_60693)"/>
<path d="M354.858 362.493L403.209 348.187C407.032 347.056 413.201 347.056 417.024 348.187L486.098 368.606C488.009 369.171 488.965 369.916 488.965 370.661V382.938C488.965 383.683 488.009 384.428 486.098 384.993L437.746 399.3C433.923 400.43 427.754 400.43 423.931 399.3L354.858 378.88C352.99 378.315 352.034 377.596 351.99 376.851V364.548C351.947 363.803 352.903 363.058 354.858 362.493Z" fill="url(#paint48_linear_2928_60693)"/>
<path d="M351.987 357.125L402.467 342.202C406.464 341.021 412.894 341.021 416.89 342.202L488.961 363.521C490.96 364.112 491.959 364.882 491.959 365.653V378.495C491.959 379.266 490.96 380.036 488.961 380.627L438.481 395.55C434.484 396.731 428.055 396.731 424.058 395.55L351.987 374.231C350.032 373.641 349.033 372.896 348.989 372.125V359.283C348.946 358.486 349.945 357.716 351.987 357.125Z" fill="url(#paint49_linear_2928_60693)"/>
<path d="M351.987 361.389L424.058 382.707C428.055 383.889 434.484 383.889 438.481 382.707L488.961 367.784C492.958 366.603 492.958 364.702 488.961 363.521L416.89 342.202C412.894 341.021 406.464 341.021 402.467 342.202L351.987 357.125C347.99 358.281 347.99 360.207 351.987 361.389Z" fill="url(#paint50_linear_2928_60693)"/>
<path d="M383.266 357.51L437.135 373.435C438.873 373.949 441.74 373.949 443.478 373.435L457.64 369.248C459.378 368.735 459.378 367.887 457.64 367.373L403.771 351.449C402.034 350.935 399.166 350.935 397.429 351.449L383.266 355.635C381.529 356.149 381.529 356.997 383.266 357.51Z" fill="#D3DAF3"/>
<path d="M457.639 369.248L456.466 369.608L403.77 354.017C402.032 353.503 399.165 353.503 397.427 354.017L384.438 357.87L383.265 357.51C381.527 356.997 381.527 356.149 383.265 355.635L397.427 351.449C399.165 350.935 402.032 350.935 403.77 351.449L457.639 367.373C459.42 367.887 459.42 368.735 457.639 369.248Z" fill="#B4C1F3"/>
<path d="M444.604 368.837C445.994 369.248 445.994 369.916 444.604 370.353C443.214 370.789 440.911 370.764 439.521 370.353C438.131 369.942 438.131 369.274 439.521 368.837C440.911 368.426 443.17 368.426 444.604 368.837ZM433.787 365.652C435.177 366.063 435.177 366.731 433.787 367.168C432.396 367.579 430.094 367.579 428.704 367.168C427.314 366.757 427.314 366.089 428.704 365.652C430.137 365.241 432.396 365.241 433.787 365.652ZM423.013 362.467C424.403 362.878 424.403 363.546 423.013 363.983C421.623 364.394 419.32 364.394 417.93 363.983C416.54 363.572 416.54 362.904 417.93 362.467C419.32 362.056 421.579 362.056 423.013 362.467ZM412.196 359.283C413.586 359.693 413.586 360.361 412.196 360.798C410.806 361.209 408.503 361.209 407.113 360.798C405.723 360.387 405.723 359.719 407.113 359.283C408.503 358.846 410.806 358.846 412.196 359.283ZM401.378 356.072C402.769 356.483 402.769 357.151 401.378 357.587C399.988 357.998 397.686 357.998 396.296 357.587C394.906 357.176 394.906 356.509 396.296 356.072C397.729 355.661 399.988 355.661 401.378 356.072Z" fill="#B4C1F3"/>
<path d="M444.604 368.067C445.994 368.478 445.994 369.146 444.604 369.582C443.214 370.019 440.911 369.993 439.521 369.582C438.131 369.172 438.131 368.504 439.521 368.067C440.911 367.656 443.17 367.656 444.604 368.067ZM433.787 364.882C435.177 365.293 435.177 365.961 433.787 366.398C432.396 366.809 430.094 366.809 428.704 366.398C427.314 365.987 427.314 365.319 428.704 364.882C430.137 364.471 432.396 364.471 433.787 364.882ZM423.013 361.697C424.403 362.108 424.403 362.776 423.013 363.213C421.623 363.624 419.32 363.624 417.93 363.213C416.54 362.802 416.54 362.134 417.93 361.697C419.32 361.286 421.579 361.286 423.013 361.697ZM412.196 358.512C413.586 358.923 413.586 359.591 412.196 360.028C410.806 360.439 408.503 360.439 407.113 360.028C405.723 359.617 405.723 358.949 407.113 358.512C408.503 358.076 410.806 358.076 412.196 358.512ZM401.378 355.302C402.769 355.713 402.769 356.38 401.378 356.817C399.988 357.228 397.686 357.228 396.296 356.817C394.906 356.406 394.906 355.738 396.296 355.302C397.729 354.891 399.988 354.891 401.378 355.302Z" fill="white"/>
<path d="M415.238 409.727V403.588L355.809 386.02V392.159L415.238 409.727Z" fill="#BCC9F8"/>
<path d="M407.853 405.773L412.24 407.057V404.488L407.853 403.204V405.773Z" fill="#5288FF"/>
<path d="M380.744 396.471C380.744 397.19 381.699 398.064 382.916 398.398C384.132 398.757 385.088 398.475 385.088 397.755C385.088 397.036 384.132 396.163 382.916 395.829C381.743 395.469 380.744 395.752 380.744 396.471Z" fill="#7E3EFF"/>
<path d="M373.445 394.316C373.445 395.036 374.401 395.909 375.617 396.243C376.833 396.602 377.789 396.32 377.789 395.601C377.789 394.882 376.833 394.008 375.617 393.674C374.401 393.315 373.445 393.597 373.445 394.316Z" fill="#5288FF"/>
<path d="M366.15 392.134C366.15 392.853 367.106 393.726 368.322 394.06C369.538 394.42 370.494 394.137 370.494 393.418C370.494 392.699 369.538 391.826 368.322 391.492C367.106 391.132 366.15 391.44 366.15 392.134Z" fill="#75A4FF"/>
<path d="M358.806 389.976C358.806 390.695 359.762 391.569 360.978 391.903C362.195 392.262 363.15 391.98 363.15 391.26C363.15 390.541 362.195 389.668 360.978 389.334C359.805 388.974 358.806 389.283 358.806 389.976Z" fill="#7E3EFF"/>
<path d="M415.238 430.015V423.85L355.809 406.282V412.421L415.238 430.015Z" fill="#BCC9F8"/>
<path d="M407.853 426.035L412.24 427.345V424.75L407.853 423.466V426.035Z" fill="#7E3EFF"/>
<path d="M380.744 416.733C380.744 417.452 381.699 418.326 382.916 418.66C384.132 419.019 385.088 418.737 385.088 418.017C385.088 417.298 384.132 416.425 382.916 416.091C381.743 415.731 380.744 416.014 380.744 416.733Z" fill="#5288FF"/>
<path d="M373.445 414.578C373.445 415.298 374.401 416.171 375.617 416.505C376.833 416.864 377.789 416.582 377.789 415.863C377.789 415.143 376.833 414.27 375.617 413.936C374.401 413.577 373.445 413.859 373.445 414.578Z" fill="#7E3EFF"/>
<path d="M366.15 412.421C366.15 413.14 367.106 414.013 368.322 414.347C369.538 414.707 370.494 414.424 370.494 413.705C370.494 412.986 369.538 412.113 368.322 411.779C367.106 411.419 366.15 411.702 366.15 412.421Z" fill="#75A4FF"/>
<path d="M358.806 410.263C358.806 410.983 359.762 411.856 360.978 412.19C362.195 412.549 363.15 412.267 363.15 411.548C363.15 410.829 362.195 409.955 360.978 409.621C359.805 409.262 358.806 409.544 358.806 410.263Z" fill="#75A4FF"/>
<path d="M415.238 389.486V383.347L355.809 365.779V371.917L415.238 389.486Z" fill="#BCC9F8"/>
<path d="M407.853 385.528L412.24 386.812V384.218L407.853 382.933V385.528Z" fill="#7E3EFF"/>
<path d="M380.744 376.205C380.744 376.924 381.699 377.797 382.916 378.131C384.132 378.491 385.088 378.208 385.088 377.489C385.088 376.77 384.132 375.896 382.916 375.563C381.743 375.203 380.744 375.511 380.744 376.205Z" fill="#7E3EFF"/>
<path d="M373.445 374.049C373.445 374.768 374.401 375.641 375.617 375.975C376.833 376.335 377.789 376.052 377.789 375.333C377.789 374.614 376.833 373.741 375.617 373.407C374.401 373.047 373.445 373.33 373.445 374.049Z" fill="#75A4FF"/>
<path d="M366.15 371.891C366.15 372.61 367.106 373.484 368.322 373.818C369.538 374.177 370.494 373.895 370.494 373.176C370.494 372.456 369.538 371.583 368.322 371.249C367.106 370.89 366.15 371.172 366.15 371.891Z" fill="#5288FF"/>
<path d="M358.806 369.736C358.806 370.456 359.762 371.329 360.978 371.663C362.195 372.022 363.15 371.74 363.15 371.021C363.15 370.302 362.195 369.428 360.978 369.094C359.805 368.735 358.806 369.017 358.806 369.736Z" fill="#7E3EFF"/>
</g>
</g>
</g>
<defs>
<linearGradient id="paint0_linear_2928_60693" x1="323.778" y1="306.351" x2="133.072" y2="306.351" gradientUnits="userSpaceOnUse">
<stop stop-color="#CED4FF"/>
<stop offset="1" stop-color="#CED4FF" stop-opacity="0"/>
</linearGradient>
<linearGradient id="paint1_linear_2928_60693" x1="425.785" y1="272.317" x2="215.054" y2="315.562" gradientUnits="userSpaceOnUse">
<stop offset="0.4252" stop-color="#F3F4FF"/>
<stop offset="0.57835" stop-color="#E5E8FE"/>
</linearGradient>
<linearGradient id="paint2_linear_2928_60693" x1="450.906" y1="238.062" x2="196.848" y2="238.062" gradientUnits="userSpaceOnUse">
<stop stop-color="#F7F8FF"/>
<stop offset="1" stop-color="#F2F3FA"/>
</linearGradient>
<linearGradient id="paint3_linear_2928_60693" x1="283.582" y1="303.693" x2="188.2" y2="322.275" gradientUnits="userSpaceOnUse">
<stop offset="0.4252" stop-color="#F3F4FF"/>
<stop offset="0.57835" stop-color="#E5E8FE"/>
</linearGradient>
<linearGradient id="paint4_linear_2928_60693" x1="329.609" y1="302.519" x2="203.356" y2="302.519" gradientUnits="userSpaceOnUse">
<stop stop-color="white"/>
<stop offset="1"/>
</linearGradient>
<linearGradient id="paint5_linear_2928_60693" x1="405.75" y1="225.934" x2="242.001" y2="225.934" gradientUnits="userSpaceOnUse">
<stop offset="0.3962" stop-color="#BCC0E5"/>
<stop offset="0.6076" stop-color="#D0D3F5"/>
</linearGradient>
<linearGradient id="paint6_linear_2928_60693" x1="322.658" y1="130.286" x2="322.658" y2="262.636" gradientUnits="userSpaceOnUse">
<stop/>
<stop offset="0.0939495" stop-color="#060606"/>
<stop offset="0.2187" stop-color="#171717"/>
<stop offset="0.3609" stop-color="#323232"/>
<stop offset="0.516" stop-color="#595959"/>
<stop offset="0.6816" stop-color="#8B8B8B"/>
<stop offset="0.8532" stop-color="#C6C6C6"/>
<stop offset="1" stop-color="white"/>
</linearGradient>
<linearGradient id="paint7_linear_2928_60693" x1="324.425" y1="264.61" x2="324.425" y2="129.996" gradientUnits="userSpaceOnUse">
<stop stop-color="#7E83FF"/>
<stop offset="0.776595" stop-color="#012AFF" stop-opacity="0"/>
</linearGradient>
<linearGradient id="paint8_linear_2928_60693" x1="381.177" y1="174.204" x2="381.177" y2="220.533" gradientUnits="userSpaceOnUse">
<stop stop-color="white"/>
<stop offset="0.0424351" stop-color="#E7E7E7"/>
<stop offset="0.1485" stop-color="#B2B2B2"/>
<stop offset="0.2586" stop-color="#828282"/>
<stop offset="0.3705" stop-color="#5A5A5A"/>
<stop offset="0.4847" stop-color="#393939"/>
<stop offset="0.6019" stop-color="#202020"/>
<stop offset="0.7232" stop-color="#0E0E0E"/>
<stop offset="0.8513" stop-color="#030303"/>
<stop offset="0.9977"/>
</linearGradient>
<linearGradient id="paint9_linear_2928_60693" x1="381.173" y1="174.198" x2="381.173" y2="220.527" gradientUnits="userSpaceOnUse">
<stop stop-color="#FFAD6F"/>
<stop offset="0.0622611" stop-color="#FFAD6F"/>
<stop offset="0.9977" stop-color="#FFAD6F"/>
</linearGradient>
<linearGradient id="paint10_linear_2928_60693" x1="397.977" y1="141.585" x2="397.977" y2="187.914" gradientUnits="userSpaceOnUse">
<stop stop-color="white"/>
<stop offset="0.0424351" stop-color="#E7E7E7"/>
<stop offset="0.1485" stop-color="#B2B2B2"/>
<stop offset="0.2586" stop-color="#828282"/>
<stop offset="0.3705" stop-color="#5A5A5A"/>
<stop offset="0.4847" stop-color="#393939"/>
<stop offset="0.6019" stop-color="#202020"/>
<stop offset="0.7232" stop-color="#0E0E0E"/>
<stop offset="0.8513" stop-color="#030303"/>
<stop offset="0.9977"/>
</linearGradient>
<linearGradient id="paint11_linear_2928_60693" x1="397.981" y1="141.588" x2="397.981" y2="187.917" gradientUnits="userSpaceOnUse">
<stop stop-color="#FFAD6F"/>
<stop offset="0.0622611" stop-color="#FFAD6F"/>
<stop offset="0.9977" stop-color="#FFAD6F"/>
</linearGradient>
<linearGradient id="paint12_linear_2928_60693" x1="267.519" y1="148.378" x2="267.519" y2="194.707" gradientUnits="userSpaceOnUse">
<stop stop-color="white"/>
<stop offset="0.0424351" stop-color="#E7E7E7"/>
<stop offset="0.1485" stop-color="#B2B2B2"/>
<stop offset="0.2586" stop-color="#828282"/>
<stop offset="0.3705" stop-color="#5A5A5A"/>
<stop offset="0.4847" stop-color="#393939"/>
<stop offset="0.6019" stop-color="#202020"/>
<stop offset="0.7232" stop-color="#0E0E0E"/>
<stop offset="0.8513" stop-color="#030303"/>
<stop offset="0.9977"/>
</linearGradient>
<linearGradient id="paint13_linear_2928_60693" x1="267.519" y1="148.384" x2="267.519" y2="194.713" gradientUnits="userSpaceOnUse">
<stop stop-color="#FFAD6F"/>
<stop offset="0.0622611" stop-color="#FFAD6F"/>
<stop offset="0.9977" stop-color="#FFAD6F"/>
</linearGradient>
<linearGradient id="paint14_linear_2928_60693" x1="252.964" y1="166.035" x2="252.964" y2="212.363" gradientUnits="userSpaceOnUse">
<stop stop-color="white"/>
<stop offset="0.0424351" stop-color="#E7E7E7"/>
<stop offset="0.1485" stop-color="#B2B2B2"/>
<stop offset="0.2586" stop-color="#828282"/>
<stop offset="0.3705" stop-color="#5A5A5A"/>
<stop offset="0.4847" stop-color="#393939"/>
<stop offset="0.6019" stop-color="#202020"/>
<stop offset="0.7232" stop-color="#0E0E0E"/>
<stop offset="0.8513" stop-color="#030303"/>
<stop offset="0.9977"/>
</linearGradient>
<linearGradient id="paint15_linear_2928_60693" x1="252.96" y1="166.034" x2="252.96" y2="212.363" gradientUnits="userSpaceOnUse">
<stop stop-color="#FFAD6F"/>
<stop offset="0.0622611" stop-color="#FFAD6F"/>
<stop offset="0.9977" stop-color="#FFAD6F"/>
</linearGradient>
<linearGradient id="paint16_linear_2928_60693" x1="326.777" y1="153.92" x2="326.777" y2="198.609" gradientUnits="userSpaceOnUse">
<stop stop-color="white"/>
<stop offset="0.0424351" stop-color="#E7E7E7"/>
<stop offset="0.1485" stop-color="#B2B2B2"/>
<stop offset="0.2586" stop-color="#828282"/>
<stop offset="0.3705" stop-color="#5A5A5A"/>
<stop offset="0.4847" stop-color="#393939"/>
<stop offset="0.6019" stop-color="#202020"/>
<stop offset="0.7232" stop-color="#0E0E0E"/>
<stop offset="0.8513" stop-color="#030303"/>
<stop offset="0.9977"/>
</linearGradient>
<linearGradient id="paint17_linear_2928_60693" x1="326.779" y1="153.924" x2="326.779" y2="198.612" gradientUnits="userSpaceOnUse">
<stop stop-color="#FFAD6F"/>
<stop offset="0.0622611" stop-color="#FFAD6F"/>
<stop offset="0.9977" stop-color="#FFAD6F"/>
</linearGradient>
<linearGradient id="paint18_linear_2928_60693" x1="394.367" y1="195.58" x2="394.367" y2="240.269" gradientUnits="userSpaceOnUse">
<stop stop-color="white"/>
<stop offset="0.0424351" stop-color="#E7E7E7"/>
<stop offset="0.1485" stop-color="#B2B2B2"/>
<stop offset="0.2586" stop-color="#828282"/>
<stop offset="0.3705" stop-color="#5A5A5A"/>
<stop offset="0.4847" stop-color="#393939"/>
<stop offset="0.6019" stop-color="#202020"/>
<stop offset="0.7232" stop-color="#0E0E0E"/>
<stop offset="0.8513" stop-color="#030303"/>
<stop offset="0.9977"/>
</linearGradient>
<linearGradient id="paint19_linear_2928_60693" x1="394.369" y1="195.583" x2="394.369" y2="240.272" gradientUnits="userSpaceOnUse">
<stop stop-color="#FFAD6F"/>
<stop offset="0.0622611" stop-color="#FFAD6F"/>
<stop offset="0.9977" stop-color="#FFAD6F"/>
</linearGradient>
<linearGradient id="paint20_linear_2928_60693" x1="246.54" y1="193.557" x2="246.54" y2="238.246" gradientUnits="userSpaceOnUse">
<stop stop-color="white"/>
<stop offset="0.0424351" stop-color="#E7E7E7"/>
<stop offset="0.1485" stop-color="#B2B2B2"/>
<stop offset="0.2586" stop-color="#828282"/>
<stop offset="0.3705" stop-color="#5A5A5A"/>
<stop offset="0.4847" stop-color="#393939"/>
<stop offset="0.6019" stop-color="#202020"/>
<stop offset="0.7232" stop-color="#0E0E0E"/>
<stop offset="0.8513" stop-color="#030303"/>
<stop offset="0.9977"/>
</linearGradient>
<linearGradient id="paint21_linear_2928_60693" x1="246.534" y1="193.56" x2="246.534" y2="238.249" gradientUnits="userSpaceOnUse">
<stop stop-color="#FFAD6F"/>
<stop offset="0.0622611" stop-color="#FFAD6F"/>
<stop offset="0.9977" stop-color="#FFAD6F"/>
</linearGradient>
<linearGradient id="paint22_linear_2928_60693" x1="300.996" y1="109.237" x2="300.996" y2="153.925" gradientUnits="userSpaceOnUse">
<stop stop-color="white"/>
<stop offset="0.0424351" stop-color="#E7E7E7"/>
<stop offset="0.1485" stop-color="#B2B2B2"/>
<stop offset="0.2586" stop-color="#828282"/>
<stop offset="0.3705" stop-color="#5A5A5A"/>
<stop offset="0.4847" stop-color="#393939"/>
<stop offset="0.6019" stop-color="#202020"/>
<stop offset="0.7232" stop-color="#0E0E0E"/>
<stop offset="0.8513" stop-color="#030303"/>
<stop offset="0.9977"/>
</linearGradient>
<linearGradient id="paint23_linear_2928_60693" x1="301.002" y1="109.237" x2="301.002" y2="153.925" gradientUnits="userSpaceOnUse">
<stop stop-color="#FFAD6F"/>
<stop offset="0.0622611" stop-color="#FFAD6F"/>
<stop offset="0.9977" stop-color="#FFAD6F"/>
</linearGradient>
<linearGradient id="paint24_linear_2928_60693" x1="302.024" y1="196.567" x2="302.024" y2="241.256" gradientUnits="userSpaceOnUse">
<stop stop-color="white"/>
<stop offset="0.0424351" stop-color="#E7E7E7"/>
<stop offset="0.1485" stop-color="#B2B2B2"/>
<stop offset="0.2586" stop-color="#828282"/>
<stop offset="0.3705" stop-color="#5A5A5A"/>
<stop offset="0.4847" stop-color="#393939"/>
<stop offset="0.6019" stop-color="#202020"/>
<stop offset="0.7232" stop-color="#0E0E0E"/>
<stop offset="0.8513" stop-color="#030303"/>
<stop offset="0.9977"/>
</linearGradient>
<linearGradient id="paint25_linear_2928_60693" x1="302.028" y1="196.57" x2="302.028" y2="241.259" gradientUnits="userSpaceOnUse">
<stop stop-color="#FFAD6F"/>
<stop offset="0.0622611" stop-color="#FFAD6F"/>
<stop offset="0.9977" stop-color="#FFAD6F"/>
</linearGradient>
<linearGradient id="paint26_linear_2928_60693" x1="246.54" y1="138.867" x2="246.54" y2="183.556" gradientUnits="userSpaceOnUse">
<stop stop-color="white"/>
<stop offset="0.0424351" stop-color="#E7E7E7"/>
<stop offset="0.1485" stop-color="#B2B2B2"/>
<stop offset="0.2586" stop-color="#828282"/>
<stop offset="0.3705" stop-color="#5A5A5A"/>
<stop offset="0.4847" stop-color="#393939"/>
<stop offset="0.6019" stop-color="#202020"/>
<stop offset="0.7232" stop-color="#0E0E0E"/>
<stop offset="0.8513" stop-color="#030303"/>
<stop offset="0.9977"/>
</linearGradient>
<linearGradient id="paint27_linear_2928_60693" x1="246.534" y1="138.861" x2="246.534" y2="183.549" gradientUnits="userSpaceOnUse">
<stop stop-color="#FFAD6F"/>
<stop offset="0.0622611" stop-color="#FFAD6F"/>
<stop offset="0.9977" stop-color="#FFAD6F"/>
</linearGradient>
<linearGradient id="paint28_linear_2928_60693" x1="401.926" y1="195.58" x2="401.926" y2="240.269" gradientUnits="userSpaceOnUse">
<stop stop-color="white"/>
<stop offset="0.0424351" stop-color="#E7E7E7"/>
<stop offset="0.1485" stop-color="#B2B2B2"/>
<stop offset="0.2586" stop-color="#828282"/>
<stop offset="0.3705" stop-color="#5A5A5A"/>
<stop offset="0.4847" stop-color="#393939"/>
<stop offset="0.6019" stop-color="#202020"/>
<stop offset="0.7232" stop-color="#0E0E0E"/>
<stop offset="0.8513" stop-color="#030303"/>
<stop offset="0.9977"/>
</linearGradient>
<linearGradient id="paint29_linear_2928_60693" x1="401.924" y1="195.583" x2="401.924" y2="240.272" gradientUnits="userSpaceOnUse">
<stop stop-color="#FFAD6F"/>
<stop offset="0.0622611" stop-color="#FFAD6F"/>
<stop offset="0.9977" stop-color="#FFAD6F"/>
</linearGradient>
<linearGradient id="paint30_linear_2928_60693" x1="401.926" y1="164.959" x2="401.926" y2="209.648" gradientUnits="userSpaceOnUse">
<stop stop-color="white"/>
<stop offset="0.0424351" stop-color="#E7E7E7"/>
<stop offset="0.1485" stop-color="#B2B2B2"/>
<stop offset="0.2586" stop-color="#828282"/>
<stop offset="0.3705" stop-color="#5A5A5A"/>
<stop offset="0.4847" stop-color="#393939"/>
<stop offset="0.6019" stop-color="#202020"/>
<stop offset="0.7232" stop-color="#0E0E0E"/>
<stop offset="0.8513" stop-color="#030303"/>
<stop offset="0.9977"/>
</linearGradient>
<linearGradient id="paint31_linear_2928_60693" x1="401.924" y1="164.959" x2="401.924" y2="209.648" gradientUnits="userSpaceOnUse">
<stop stop-color="#FF6FF1"/>
<stop offset="0.759559" stop-color="#6FCBFF"/>
<stop offset="0.9977" stop-color="#6FCBFF"/>
</linearGradient>
<linearGradient id="paint32_linear_2928_60693" x1="323.83" y1="240.324" x2="323.83" y2="229.666" gradientUnits="userSpaceOnUse">
<stop offset="0.00231799" stop-color="#CCCCCC"/>
<stop offset="0.9988" stop-color="#4D4D4D"/>
</linearGradient>
<linearGradient id="paint33_linear_2928_60693" x1="323.83" y1="240.33" x2="323.83" y2="229.672" gradientUnits="userSpaceOnUse">
<stop offset="0.00231799" stop-color="white"/>
<stop offset="0.9988" stop-color="white"/>
</linearGradient>
<linearGradient id="paint34_linear_2928_60693" x1="323.83" y1="229.71" x2="323.83" y2="219.052" gradientUnits="userSpaceOnUse">
<stop offset="0.00231799" stop-color="#CCCCCC"/>
<stop offset="0.9988" stop-color="#4D4D4D"/>
</linearGradient>
<linearGradient id="paint35_linear_2928_60693" x1="323.83" y1="229.71" x2="323.83" y2="219.052" gradientUnits="userSpaceOnUse">
<stop offset="0.00231799" stop-color="white"/>
<stop offset="0.9988" stop-color="white"/>
</linearGradient>
<linearGradient id="paint36_linear_2928_60693" x1="323.83" y1="202.612" x2="323.83" y2="191.955" gradientUnits="userSpaceOnUse">
<stop offset="0.00231799" stop-color="#CCCCCC"/>
<stop offset="0.9988" stop-color="#4D4D4D"/>
</linearGradient>
<linearGradient id="paint37_linear_2928_60693" x1="323.83" y1="202.606" x2="323.83" y2="191.949" gradientUnits="userSpaceOnUse">
<stop offset="0.00231799" stop-color="white"/>
<stop offset="0.9988" stop-color="white"/>
</linearGradient>
<linearGradient id="paint38_linear_2928_60693" x1="239.218" y1="272.301" x2="243.401" y2="261.379" gradientUnits="userSpaceOnUse">
<stop stop-color="white"/>
<stop offset="1"/>
</linearGradient>
<linearGradient id="paint39_linear_2928_60693" x1="239.215" y1="272.301" x2="243.397" y2="261.379" gradientUnits="userSpaceOnUse">
<stop stop-color="#1129FF"/>
<stop offset="1" stop-color="#7190FF"/>
</linearGradient>
<linearGradient id="paint40_linear_2928_60693" x1="216.912" y1="224.099" x2="254.028" y2="300.082" gradientUnits="userSpaceOnUse">
<stop stop-color="#84AEFF"/>
<stop offset="1" stop-color="#717FFF"/>
</linearGradient>
<linearGradient id="paint41_linear_2928_60693" x1="454.053" y1="424.408" x2="473.331" y2="453.18" gradientUnits="userSpaceOnUse">
<stop stop-color="#BEDDFF"/>
<stop offset="1" stop-color="#BEDDFF" stop-opacity="0"/>
</linearGradient>
<linearGradient id="paint42_linear_2928_60693" x1="351.976" y1="413.864" x2="489.309" y2="413.864" gradientUnits="userSpaceOnUse">
<stop stop-color="#C6D9FF"/>
<stop offset="1" stop-color="#8582FF"/>
</linearGradient>
<linearGradient id="paint43_linear_2928_60693" x1="491.194" y1="408.984" x2="349.716" y2="408.984" gradientUnits="userSpaceOnUse">
<stop stop-color="#D3D7F2"/>
<stop offset="0.3771" stop-color="#BBC9F8"/>
<stop offset="0.4912" stop-color="#D3D7F2"/>
<stop offset="1" stop-color="#F2F3FF"/>
</linearGradient>
<linearGradient id="paint44_linear_2928_60693" x1="463.711" y1="415.359" x2="449.801" y2="368.314" gradientUnits="userSpaceOnUse">
<stop stop-color="#E8EAFB"/>
<stop offset="1" stop-color="white"/>
</linearGradient>
<linearGradient id="paint45_linear_2928_60693" x1="351.976" y1="393.803" x2="489.309" y2="393.803" gradientUnits="userSpaceOnUse">
<stop stop-color="#C6D9FF"/>
<stop offset="1" stop-color="#9382FF"/>
</linearGradient>
<linearGradient id="paint46_linear_2928_60693" x1="491.194" y1="388.923" x2="349.716" y2="388.923" gradientUnits="userSpaceOnUse">
<stop stop-color="#D3D7F2"/>
<stop offset="0.3771" stop-color="#BBC9F8"/>
<stop offset="0.4912" stop-color="#D3D7F2"/>
<stop offset="1" stop-color="#F2F3FF"/>
</linearGradient>
<linearGradient id="paint47_linear_2928_60693" x1="463.711" y1="395.297" x2="449.801" y2="348.253" gradientUnits="userSpaceOnUse">
<stop stop-color="#E8EAFB"/>
<stop offset="1" stop-color="white"/>
</linearGradient>
<linearGradient id="paint48_linear_2928_60693" x1="351.976" y1="373.739" x2="489.309" y2="373.739" gradientUnits="userSpaceOnUse">
<stop stop-color="#C6D9FF"/>
<stop offset="1" stop-color="#8287FF"/>
</linearGradient>
<linearGradient id="paint49_linear_2928_60693" x1="491.194" y1="368.859" x2="349.716" y2="368.859" gradientUnits="userSpaceOnUse">
<stop stop-color="#D3D7F2"/>
<stop offset="0.3771" stop-color="#BBC9F8"/>
<stop offset="0.4912" stop-color="#D3D7F2"/>
<stop offset="1" stop-color="#F2F3FF"/>
</linearGradient>
<linearGradient id="paint50_linear_2928_60693" x1="463.711" y1="375.234" x2="449.801" y2="328.189" gradientUnits="userSpaceOnUse">
<stop stop-color="#E8EAFB"/>
<stop offset="1" stop-color="white"/>
</linearGradient>
<clipPath id="clip0_2928_60693">
<rect width="590" height="454" fill="white"/>
</clipPath>
</defs>
</svg>
