<svg width="96" height="96" viewBox="0 0 96 96" fill="none" xmlns="http://www.w3.org/2000/svg">
<g clip-path="url(#clip0_2476_69141)">
<path d="M41.3398 93.2513L4.78101 71.9059C3.53397 71.1778 3.52872 69.3776 4.7715 68.6423L44.2521 45.2811C47.7661 43.2018 52.1482 43.2642 55.6016 45.4427L90.3879 67.3866C91.5832 68.1406 91.5606 69.8912 90.3462 70.614L52.3946 93.2046C48.9925 95.2298 44.7589 95.2477 41.3398 93.2513Z" stroke="#00193F"/>
<path d="M41.453 88.3661L12.9083 71.7107C11.6606 70.9827 11.6554 69.1817 12.8988 68.4465L43.8126 50.1662C47.3253 48.0891 51.7047 48.1514 55.1568 50.3276L82.2607 67.4143C83.4567 68.1682 83.4341 69.9195 82.219 70.6423L52.5025 88.3195C49.1017 90.3425 44.8708 90.3604 41.453 88.3661Z" fill="#00193F"/>
<path fill-rule="evenodd" clip-rule="evenodd" d="M19.839 70.6887L41.6118 83.1944C44.9968 85.1387 49.1638 85.1212 52.5324 83.1487L75.2912 69.8218C75.8941 69.4688 76.2069 68.8636 76.2266 68.2498L76.2286 68.2497V64.2211L71.6296 64.282L54.7198 53.7883C51.2987 51.6653 46.9851 51.6044 43.5054 53.6299L24.1257 64.9107L18.8848 64.98V69.0757L18.8891 69.0757C18.8984 69.7051 19.2153 70.3305 19.839 70.6887Z" fill="#9CBDEE"/>
<path d="M41.6115 79.1945L19.8386 66.6888C18.5761 65.9636 18.5708 64.144 19.8292 63.4115L43.5051 49.63C46.9847 47.6045 51.2983 47.6654 54.7194 49.7884L75.3325 62.5801C76.5436 63.3317 76.5209 65.1017 75.2909 65.8219L52.5321 79.1488C49.1635 81.1213 44.9965 81.1388 41.6115 79.1945Z" fill="#ECF4FF"/>
<ellipse opacity="0.67" cx="47.018" cy="64.0972" rx="11.7318" ry="5.53796" transform="rotate(30 47.018 64.0972)" fill="url(#paint0_radial_2476_69141)"/>
<path opacity="0.2" d="M19.839 66.725L41.6118 79.2306C44.9968 81.1749 49.1638 81.1574 52.5324 79.1849L75.2912 65.8581C75.8941 65.505 76.2069 64.8999 76.2266 64.286L76.2286 64.286V60.2573V13.8668L18.8891 13.8666L18.8848 61.0163V65.112L18.8891 65.1119C18.8984 65.7413 19.2153 66.3667 19.839 66.725Z" fill="url(#paint1_linear_2476_69141)"/>
<circle cx="66" cy="63.0664" r="1" fill="#017AFF"/>
<circle cx="30" cy="62.0664" r="1" fill="#017AFF"/>
<circle cx="30" cy="44.0664" r="1" fill="#017AFF"/>
<circle cx="37" cy="33.0664" r="1" fill="#017AFF"/>
<circle cx="31" cy="32.0664" r="1" fill="#017AFF"/>
<circle cx="41" cy="22.0664" r="1" fill="#017AFF"/>
<circle cx="59" cy="23.0664" r="1" fill="#017AFF"/>
<circle cx="72" cy="47.0664" r="1" fill="#017AFF"/>
<circle cx="70.5" cy="56.5664" r="0.5" fill="#017AFF"/>
<circle cx="36.5" cy="41.5664" r="0.5" fill="#017AFF"/>
<circle cx="49.5" cy="15.5664" r="0.5" fill="#017AFF"/>
<circle cx="34.5" cy="18.5664" r="0.5" fill="#017AFF"/>
<circle cx="63.5" cy="24.5664" r="0.5" fill="#017AFF"/>
<circle cx="70.5" cy="39.5664" r="0.5" fill="#017AFF"/>
<circle cx="25.5" cy="49.5664" r="0.5" fill="#017AFF"/>
<circle cx="34.5" cy="66.5664" r="0.5" fill="#017AFF"/>
<path fill-rule="evenodd" clip-rule="evenodd" d="M36.1094 27.1407L38.4026 25.6932L38.4383 25.7049L48.5011 27.6844L58.8947 37.5814V53.2753C58.8862 53.3176 58.8775 53.3611 58.8685 53.4059C58.5887 54.8074 58.0767 57.3724 54.8367 58.1201C52.2527 58.7164 50.0859 58.577 48.791 58.1201C47.0518 56.8364 44.8193 54.627 41.7829 50.0865C39.3561 46.4575 38.7589 43.8068 38.4907 42.6166C38.4549 42.4577 38.425 42.3248 38.3974 42.2191V28.7868L36.1094 27.1407Z" fill="#3D8AFF"/>
<path d="M46.2092 29.1298L36.1055 27.1422V43.6645C36.3401 44.5617 36.7401 47.4182 39.491 51.5319C42.5274 56.0724 44.7599 58.2818 46.4991 59.5655C47.794 60.0224 49.9609 60.1618 52.5448 59.5655C55.8882 58.7939 56.3268 56.0871 56.6028 54.7207V39.0267L46.2092 29.1298Z" fill="url(#paint2_linear_2476_69141)"/>
</g>
<defs>
<radialGradient id="paint0_radial_2476_69141" cx="0" cy="0" r="1" gradientUnits="userSpaceOnUse" gradientTransform="translate(47.018 64.0972) rotate(90) scale(5.53796 11.7318)">
<stop stop-color="#479FFF" stop-opacity="0.36"/>
<stop offset="1" stop-color="#479FFF" stop-opacity="0"/>
</radialGradient>
<linearGradient id="paint1_linear_2476_69141" x1="47.5567" y1="13.8667" x2="47.5567" y2="80.6767" gradientUnits="userSpaceOnUse">
<stop stop-color="#017AFF" stop-opacity="0"/>
<stop offset="1" stop-color="#017AFF"/>
</linearGradient>
<linearGradient id="paint2_linear_2476_69141" x1="36.1055" y1="35.0565" x2="56.6892" y2="54.1058" gradientUnits="userSpaceOnUse">
<stop stop-color="#3D9AFF"/>
<stop offset="1" stop-color="#88C0FF"/>
</linearGradient>
<clipPath id="clip0_2476_69141">
<rect width="96" height="96" fill="white"/>
</clipPath>
</defs>
</svg>
