<svg width="33" height="53" viewBox="0 0 33 53" fill="none" xmlns="http://www.w3.org/2000/svg">
<g clip-path="url(#clip0_2476_66289)">
<path d="M20.3423 49.5691L3.88648 39.9612C2.63943 39.233 2.63418 37.4329 3.87696 36.6975L21.8682 26.0518C25.3822 23.9726 29.7643 24.0349 33.2177 26.2134L48.733 36.0007C49.9283 36.7548 49.9057 38.5053 48.6912 39.2282L31.3972 49.5225C27.995 51.5476 23.7615 51.5655 20.3423 49.5691Z" stroke="#017AFF" stroke-width="0.552083"/>
<path d="M22.8875 48.3211L7.1284 39.1259C6.43958 38.724 6.43669 37.7297 7.12315 37.3238L24.1902 27.2316C26.1294 26.0848 28.5473 26.1193 30.4531 27.3207L45.4167 36.754C46.077 37.1702 46.0645 38.1371 45.3937 38.5361L28.9877 48.2954C27.1102 49.4123 24.7744 49.4221 22.8875 48.3211Z" fill="#017AFF"/>
<path fill-rule="evenodd" clip-rule="evenodd" d="M10.9544 38.562L22.9748 45.4662C24.8436 46.5396 27.1441 46.5299 29.0039 45.4409L41.5686 38.0834C41.9014 37.8885 42.0741 37.5544 42.085 37.2155L42.0863 37.2155V34.9913L39.5471 35.0249L30.2114 29.2316C28.3227 28.0595 25.9413 28.0259 24.0202 29.1441L13.321 35.372L10.4277 35.4103V37.6715L10.4299 37.6715C10.4351 38.019 10.61 38.3642 10.9544 38.562Z" fill="#9CBDEE"/>
<path d="M22.9743 43.2577L10.9539 36.3535C10.2568 35.9532 10.2539 34.9486 10.9487 34.5442L24.0197 26.9356C25.9408 25.8174 28.3223 25.8511 30.211 27.0231L41.5911 34.0852C42.2597 34.5002 42.2472 35.4773 41.5681 35.8749L29.0034 43.2325C27.1436 44.3215 24.8431 44.3311 22.9743 43.2577Z" fill="white"/>
<path opacity="0.2" d="M10.9546 36.3594L22.975 43.2636C24.8438 44.337 27.1443 44.3273 29.0041 43.2383L41.5688 35.8808C41.9016 35.6859 42.0743 35.3518 42.0852 35.0129L42.0863 35.0129V32.7887V7.17729L10.4301 7.1772L10.4277 33.2077V35.4689L10.4301 35.4689C10.4353 35.8164 10.6102 36.1616 10.9546 36.3594Z" fill="url(#paint0_linear_2476_66289)"/>
<circle cx="16.5638" cy="33.7137" r="0.552083" fill="#017AFF"/>
<circle cx="16.5638" cy="23.7762" r="0.552083" fill="#017AFF"/>
<circle cx="20.4271" cy="17.7035" r="0.552083" fill="#017AFF"/>
<circle cx="17.1146" cy="17.1512" r="0.552083" fill="#017AFF"/>
<circle cx="22.6361" cy="11.6305" r="0.552083" fill="#017AFF"/>
<circle cx="32.5736" cy="12.1825" r="0.552083" fill="#017AFF"/>
<circle cx="20.151" cy="22.3962" r="0.276042" fill="#017AFF"/>
<circle cx="27.3288" cy="8.04191" r="0.276042" fill="#017AFF"/>
<circle cx="19.0475" cy="9.69816" r="0.276042" fill="#017AFF"/>
<circle cx="14.0788" cy="26.8127" r="0.276042" fill="#017AFF"/>
<circle cx="19.0475" cy="36.1982" r="0.276042" fill="#017AFF"/>
<g filter="url(#filter0_d_2476_66289)">
<path d="M15.2385 30.1215L25.3062 35.9006C25.7309 36.1501 26.2565 36.1541 26.685 35.9111L36.2125 30.4854C36.3502 30.4073 36.4066 30.2579 36.3813 30.1215V28.1637L31.0079 28.1301L25.556 24.9654C25.1279 24.7169 24.5994 24.7169 24.1712 24.9655L18.9136 28.0183L15.0689 27.9827V29.8042C15.062 29.926 15.1184 30.051 15.2385 30.1215Z" fill="url(#paint1_linear_2476_66289)"/>
</g>
<path d="M25.4593 34.2302L15.2064 28.343C14.9948 28.2215 14.9941 27.9166 15.205 27.7941L24.2349 22.5511C24.6248 22.3248 25.1056 22.3225 25.4976 22.5453L35.9153 28.4656C36.1292 28.5871 36.129 28.8954 35.9151 29.0167L26.7156 34.2336C26.3257 34.4547 25.848 34.4534 25.4593 34.2302Z" fill="url(#paint2_linear_2476_66289)"/>
<path d="M37.0978 16.7156L26.2805 10.6009C26.2307 10.5644 26.1719 10.542 26.1104 10.5364C26.0489 10.5307 25.9871 10.5419 25.9315 10.5688L24.7578 11.2074L24.7578 21.7214C24.7651 21.8945 24.814 22.0634 24.9003 22.2137C24.9866 22.364 25.1079 22.4913 25.2538 22.5848L36.1295 28.733L37.4698 28.0178C37.5179 27.9812 37.5559 27.9328 37.58 27.8773C37.6041 27.8218 37.6136 27.7611 37.6075 27.7009V17.5973C37.6005 17.42 37.5504 17.2471 37.4616 17.0935C37.3728 16.9398 37.2479 16.8101 37.0978 16.7156Z" fill="#85BFFF"/>
<path d="M35.8887 17.3969L25.0891 11.2486C24.8181 11.0925 24.5977 11.2211 24.5977 11.5333V21.6369C24.6066 21.8079 24.6558 21.9744 24.7411 22.1228C24.8265 22.2712 24.9457 22.3974 25.0891 22.4911L35.8887 28.6395C36.1596 28.7956 36.3801 28.6716 36.3801 28.3547V18.2512C36.3704 18.0803 36.3209 17.9141 36.2356 17.7658C36.1503 17.6175 36.0315 17.4912 35.8887 17.3969Z" fill="#6AB1FF"/>
<path d="M25.2441 21.8437V12.0891L35.6601 18.1014V27.8559L25.2441 21.8437Z" fill="#8AC2FF"/>
<path d="M19.8047 26.1932L24.6233 23.3027L34.1058 28.7793L29.2872 31.666L19.8047 26.1932Z" fill="#57A7FF"/>
<path d="M23.3903 31.8131L19.6152 29.6328L22.0271 28.2434L25.8021 30.4193L23.3903 31.8131Z" fill="#57A7FF"/>
</g>
<defs>
<filter id="filter0_d_2476_66289" x="11.8997" y="24.7791" width="27.6557" height="20.1839" filterUnits="userSpaceOnUse" color-interpolation-filters="sRGB">
<feFlood flood-opacity="0" result="BackgroundImageFix"/>
<feColorMatrix in="SourceAlpha" type="matrix" values="0 0 0 0 0 0 0 0 0 0 0 0 0 0 0 0 0 0 127 0" result="hardAlpha"/>
<feOffset dy="5.70364"/>
<feGaussianBlur stdDeviation="1.58435"/>
<feComposite in2="hardAlpha" operator="out"/>
<feColorMatrix type="matrix" values="0 0 0 0 0.231526 0 0 0 0 0.59554 0 0 0 0 1 0 0 0 0.23 0"/>
<feBlend mode="normal" in2="BackgroundImageFix" result="effect1_dropShadow_2476_66289"/>
<feBlend mode="normal" in="SourceGraphic" in2="effect1_dropShadow_2476_66289" result="shape"/>
</filter>
<linearGradient id="paint0_linear_2476_66289" x1="26.257" y1="7.17725" x2="26.257" y2="44.0619" gradientUnits="userSpaceOnUse">
<stop stop-color="#017AFF" stop-opacity="0"/>
<stop offset="1" stop-color="#017AFF"/>
</linearGradient>
<linearGradient id="paint1_linear_2476_66289" x1="17.0066" y1="31.0481" x2="34.4325" y2="32.0986" gradientUnits="userSpaceOnUse">
<stop stop-color="#3C99FF"/>
<stop offset="0.424133" stop-color="#8EC4FF"/>
<stop offset="1" stop-color="#64AEFF"/>
</linearGradient>
<linearGradient id="paint2_linear_2476_66289" x1="19.4944" y1="25.9581" x2="34.9042" y2="28.7667" gradientUnits="userSpaceOnUse">
<stop stop-color="#57A7FF"/>
<stop offset="1" stop-color="#ACD4FF"/>
</linearGradient>
<clipPath id="clip0_2476_66289">
<rect width="33" height="53" fill="white"/>
</clipPath>
</defs>
</svg>
