<svg width="96" height="96" viewBox="0 0 96 96" fill="none" xmlns="http://www.w3.org/2000/svg">
<g clip-path="url(#clip0_2476_74261)">
<path d="M41.3398 93.2508L4.78101 71.9054C3.53397 71.1773 3.52872 69.3771 4.7715 68.6418L44.2521 45.2806C47.7661 43.2013 52.1482 43.2637 55.6016 45.4422L90.3879 67.3861C91.5832 68.1401 91.5606 69.8907 90.3462 70.6136L52.3946 93.2042C48.9925 95.2293 44.7589 95.2472 41.3398 93.2508Z" stroke="#017AFF"/>
<path d="M41.453 88.3656L12.9083 71.7102C11.6606 70.9822 11.6554 69.1812 12.8988 68.446L43.8126 50.1657C47.3253 48.0886 51.7047 48.1509 55.1568 50.3271L82.2607 67.4138C83.4567 68.1677 83.4341 69.919 82.219 70.6418L52.5025 88.319C49.1017 90.342 44.8708 90.3599 41.453 88.3656Z" fill="#017AFF"/>
<path fill-rule="evenodd" clip-rule="evenodd" d="M19.839 70.6882L41.6118 83.1939C44.9968 85.1382 49.1638 85.1207 52.5324 83.1482L75.2912 69.8213C75.8941 69.4683 76.2069 68.8631 76.2266 68.2493L76.2286 68.2493V64.2206L71.6296 64.2815L54.7198 53.7878C51.2987 51.6649 46.9851 51.6039 43.5054 53.6294L24.1257 64.9102L18.8848 64.9795V69.0752L18.8891 69.0752C18.8984 69.7046 19.2153 70.33 19.839 70.6882Z" fill="#5FABFF"/>
<path d="M41.6115 79.194L19.8386 66.6883C18.5761 65.9631 18.5708 64.1435 19.8292 63.4111L43.5051 49.6295C46.9847 47.604 51.2983 47.665 54.7194 49.7879L75.3325 62.5797C76.5436 63.3312 76.5209 65.1012 75.2909 65.8214L52.5321 79.1483C49.1635 81.1208 44.9965 81.1383 41.6115 79.194Z" fill="white"/>
<g opacity="0.2">
<path d="M19.839 66.725L41.6118 79.2306C44.9968 81.1749 49.1638 81.1574 52.5324 79.1849L75.2912 65.8581C75.8941 65.505 76.2069 64.8999 76.2266 64.286L76.2286 64.286V60.2573V13.8668L18.8891 13.8666L18.8848 61.0163V65.112L18.8891 65.1119C18.8984 65.7413 19.2153 66.3667 19.839 66.725Z" fill="url(#paint0_linear_2476_74261)"/>
<path d="M19.839 66.725L41.6118 79.2306C44.9968 81.1749 49.1638 81.1574 52.5324 79.1849L75.2912 65.8581C75.8941 65.505 76.2069 64.8999 76.2266 64.286L76.2286 64.286V60.2573V13.8668L18.8891 13.8666L18.8848 61.0163V65.112L18.8891 65.1119C18.8984 65.7413 19.2153 66.3667 19.839 66.725Z" fill="url(#paint1_linear_2476_74261)"/>
</g>
<circle cx="66" cy="63.0664" r="1" fill="#017AFF"/>
<circle cx="30" cy="62.0664" r="1" fill="#017AFF"/>
<circle cx="30" cy="44.0664" r="1" fill="#017AFF"/>
<circle cx="37" cy="33.0664" r="1" fill="#017AFF"/>
<circle cx="31" cy="32.0664" r="1" fill="#017AFF"/>
<circle cx="41" cy="22.0664" r="1" fill="#017AFF"/>
<circle cx="59" cy="23.0664" r="1" fill="#017AFF"/>
<circle cx="72" cy="47.0664" r="1" fill="#017AFF"/>
<circle cx="70.5" cy="56.5664" r="0.5" fill="#017AFF"/>
<circle cx="36.5" cy="41.5664" r="0.5" fill="#017AFF"/>
<circle cx="49.5" cy="15.5664" r="0.5" fill="#017AFF"/>
<circle cx="34.5" cy="18.5664" r="0.5" fill="#017AFF"/>
<circle cx="63.5" cy="24.5664" r="0.5" fill="#017AFF"/>
<circle cx="70.5" cy="39.5664" r="0.5" fill="#017AFF"/>
<circle cx="25.5" cy="49.5664" r="0.5" fill="#017AFF"/>
<circle cx="34.5" cy="66.5664" r="0.5" fill="#017AFF"/>
<path fill-rule="evenodd" clip-rule="evenodd" d="M37.1132 23.8009L37.124 23.7855L41.5312 28.2527C41.9002 28.1403 42.2869 28.0634 42.6894 28.0233L42.8826 24.1914L45.0838 23.0633L45.0864 23.0454L45.1016 23.0542L45.1103 23.0497L45.156 23.0856L52.076 27.0809L52.8674 33.1168C53.8082 34.1153 54.6849 35.2182 55.4778 36.3909L60.0818 37.0404L63.5766 46.0477L63.437 46.0968L61.3152 47.1849H60.3434L59.7604 47.39C59.8356 48.0447 59.8745 48.6919 59.8745 49.3272C59.8745 49.8864 59.8444 50.4201 59.7859 50.9272L63.5549 56.6657L60.0601 61.6376L60.0577 61.6351L60.0585 61.6392L57.8522 62.7995L54.8059 57.4194L52.7277 58.1041L52.076 62.3221L52.0669 62.3168L52.0662 62.3222L49.8505 63.4805L48.2622 60.1202L45.0864 58.2866L44.3913 52.7127C43.2853 51.5875 42.2616 50.317 41.3512 48.9547L37.1458 48.4082L34.8958 42.6092L31.4551 40.5337L33.6738 39.3794H33.7092L37.1558 38.1117C37.0781 37.4461 37.0379 36.7881 37.0379 36.1425C37.0379 35.4228 37.0879 34.7453 37.184 34.1124L33.6292 28.7574L35.3468 26.3139C35.1853 25.8115 35.0338 25.3388 34.9118 24.957L37.1132 23.8009ZM48.2195 37.5602C45.9163 36.3725 44.0866 37.5175 44.0866 40.2124C44.0866 42.9991 46.0429 46.3876 48.4562 47.7809C50.8695 49.1742 52.8259 48.0447 52.8259 45.2581C52.8259 43.8768 52.3452 42.3476 51.5664 40.9868L49.0001 38.5107L48.2195 37.5602Z" fill="#3D8AFF"/>
<path fill-rule="evenodd" clip-rule="evenodd" d="M42.1487 29.2202L42.8791 24.2071L49.8687 28.2426L50.6601 34.2785C51.6008 35.277 52.4776 36.3799 53.2705 37.5526L57.8745 38.2021L61.3693 47.2094L57.5531 48.5517C57.6283 49.2064 57.6672 49.8536 57.6672 50.4889C57.6672 51.0481 57.6371 51.5818 57.5785 52.0889L61.3476 57.8274L57.8528 62.7993L53.4495 58.2869C52.5999 58.5945 51.649 58.7053 50.6225 58.6046L49.8687 63.4838L42.8791 59.4483L42.184 53.8744C41.0779 52.7492 40.0543 51.4787 39.1439 50.1164L34.9384 49.5699L31.4436 40.5625L34.9484 39.2734C34.8708 38.6078 34.8306 37.9498 34.8306 37.3042C34.8306 36.5845 34.8805 35.907 34.9767 35.2741L31.4219 29.9191L34.9167 24.9472L39.3239 29.4144C40.1787 29.1539 41.1284 29.0845 42.1487 29.2202ZM46.2489 48.9426C48.6622 50.3359 50.6185 49.2064 50.6185 46.4198C50.6185 43.6331 48.6622 40.2446 46.2489 38.8513C43.8356 37.458 41.8792 38.5875 41.8792 41.3741C41.8792 44.1608 43.8356 47.5493 46.2489 48.9426Z" fill="url(#paint2_linear_2476_74261)"/>
<ellipse opacity="0.3" cx="46.2779" cy="63.9274" rx="16.8207" ry="4.84033" transform="rotate(30 46.2779 63.9274)" fill="url(#paint3_radial_2476_74261)"/>
</g>
<defs>
<linearGradient id="paint0_linear_2476_74261" x1="47.5567" y1="13.8667" x2="47.5567" y2="80.6766" gradientUnits="userSpaceOnUse">
<stop stop-color="white" stop-opacity="0"/>
<stop offset="1" stop-color="white" stop-opacity="0.67"/>
</linearGradient>
<linearGradient id="paint1_linear_2476_74261" x1="47.5567" y1="13.8667" x2="47.5567" y2="80.6767" gradientUnits="userSpaceOnUse">
<stop stop-color="#017AFF" stop-opacity="0"/>
<stop offset="1" stop-color="#017AFF"/>
</linearGradient>
<linearGradient id="paint2_linear_2476_74261" x1="31.4219" y1="27.3097" x2="47.6836" y2="66.5824" gradientUnits="userSpaceOnUse">
<stop stop-color="#3C99FF"/>
<stop offset="1" stop-color="#87C0FF"/>
</linearGradient>
<radialGradient id="paint3_radial_2476_74261" cx="0" cy="0" r="1" gradientUnits="userSpaceOnUse" gradientTransform="translate(46.2779 63.9274) rotate(90) scale(4.84033 16.8207)">
<stop stop-color="#5DABFF"/>
<stop offset="1" stop-color="#60ACFF" stop-opacity="0"/>
</radialGradient>
<clipPath id="clip0_2476_74261">
<rect width="96" height="96" fill="white"/>
</clipPath>
</defs>
</svg>
