<svg width="590" height="454" viewBox="0 0 590 454" fill="none" xmlns="http://www.w3.org/2000/svg">
<g opacity="0.5" clip-path="url(#clip0_2476_77337)">
<g opacity="0.15">
<mask id="mask0_2476_77337" style="mask-type:alpha" maskUnits="userSpaceOnUse" x="38" y="16" width="402" height="484">
<rect x="38" y="16" width="401.284" height="484" fill="#017AFF"/>
</mask>
<g mask="url(#mask0_2476_77337)">
<path d="M433.184 255.683H213.401V278.635L323.293 333.321L433.184 278.635V255.683Z" fill="url(#paint0_linear_2476_77337)"/>
<path d="M219.558 263.08L308.434 307.369C316.643 311.459 329.982 311.459 338.191 307.369L427.027 263.08C435.236 258.99 435.236 252.342 427.027 248.252L338.151 203.963C329.942 199.872 316.603 199.872 308.394 203.963L219.558 248.252C211.31 252.342 211.31 258.99 219.558 263.08Z" fill="url(#paint1_linear_2476_77337)"/>
<path d="M433.184 255.683H213.401V276.43L323.293 333.321L433.184 276.43V255.683Z" fill="url(#paint2_linear_2476_77337)"/>
<path d="M219.558 278.812L308.434 323.1C316.643 327.191 329.982 327.191 338.191 323.1L427.027 278.812C431.131 276.766 433.184 274.092 433.184 271.417V275.351C433.184 278.025 431.131 280.7 427.027 282.745L338.151 327.034C329.942 331.124 316.603 331.124 308.394 327.034L219.558 282.745C215.454 280.7 213.401 278.025 213.401 275.351V271.417C213.401 274.092 215.454 276.766 219.558 278.812Z" fill="#8CD9FF"/>
<path d="M219.558 282.747L308.434 327.035C316.643 331.126 329.982 331.126 338.191 327.035L427.027 282.747C431.131 280.701 433.184 278.027 433.184 275.352V279.285C433.184 281.96 431.131 284.635 427.027 286.68L338.151 330.969C329.942 335.059 316.603 335.059 308.394 330.969L219.558 286.68C215.454 284.635 213.401 281.96 213.401 279.285V275.352C213.401 278.027 215.454 280.701 219.558 282.747Z" fill="#838990"/>
<path d="M219.558 263.08L308.434 307.369C316.643 311.459 329.982 311.459 338.191 307.369L427.027 263.08C435.236 258.99 435.236 252.342 427.027 248.252L338.151 203.963C329.942 199.872 316.603 199.872 308.394 203.963L219.558 248.252C211.31 252.342 211.31 258.99 219.558 263.08Z" fill="url(#paint3_linear_2476_77337)"/>
<path d="M323.271 305.95C328.283 305.95 333.295 305.006 337.084 303.118L417.12 263.234C421.066 261.268 423.197 258.593 423.197 255.682C423.197 252.772 421.027 250.097 417.12 248.13L337.123 208.247C329.507 204.432 317.075 204.432 309.458 208.247L229.462 248.13C225.516 250.097 223.385 252.772 223.385 255.682C223.385 258.593 225.555 261.268 229.462 263.234L309.458 303.078C313.286 304.966 318.299 305.95 323.271 305.95ZM323.271 207.342C327.968 207.342 332.664 208.247 336.216 210.017L416.212 249.861C419.448 251.474 421.224 253.519 421.224 255.643C421.224 257.767 419.448 259.812 416.212 261.425L336.216 301.308C329.073 304.848 317.47 304.848 310.327 301.308L230.33 261.425C227.094 259.812 225.318 257.767 225.318 255.643C225.318 253.519 227.094 251.474 230.33 249.861L310.327 210.017C313.918 208.208 318.614 207.342 323.271 207.342Z" fill="#D3DAF3"/>
<path opacity="0.0909091" d="M273.368 265.456L324.287 290.855C329.856 293.655 338.886 293.655 344.455 290.855L395.324 265.506C400.892 262.706 400.892 258.206 395.324 255.456L344.455 230.107C338.886 227.307 329.856 227.307 324.287 230.107L273.368 255.406C267.8 258.206 267.8 262.706 273.368 265.456Z" fill="#BEDDFF"/>
<path opacity="0.1818" d="M272.062 264.808L322.931 290.157C328.499 292.957 337.529 292.957 343.098 290.157L394.017 264.808C399.585 262.008 399.585 257.508 394.017 254.758L343.148 229.409C337.579 226.609 328.549 226.609 322.981 229.409L272.112 254.758C266.493 257.558 266.493 262.058 272.062 264.808Z" fill="#BEDDFF"/>
<path opacity="0.2727" d="M270.758 264.153L321.627 289.502C327.196 292.302 336.226 292.302 341.794 289.502L392.663 264.153C398.232 261.353 398.232 256.853 392.663 254.103L341.845 228.754C336.276 225.954 327.246 225.954 321.677 228.754L270.808 254.103C265.19 256.903 265.19 261.403 270.758 264.153Z" fill="#BEDDFF"/>
<path opacity="0.3636" d="M269.454 263.507L320.323 288.906C325.891 291.706 334.921 291.706 340.49 288.906L391.359 263.557C396.927 260.757 396.927 256.257 391.359 253.507L340.49 228.158C334.921 225.358 325.891 225.358 320.323 228.158L269.454 253.507C263.885 256.257 263.885 260.757 269.454 263.507Z" fill="#BEDDFF"/>
<path opacity="0.4545" d="M268.149 262.856L319.018 288.206C324.586 291.005 333.616 291.005 339.185 288.206L390.054 262.856C395.623 260.056 395.623 255.557 390.054 252.807L339.185 227.458C333.616 224.658 324.586 224.658 319.018 227.458L268.149 252.807C262.58 255.607 262.58 260.106 268.149 262.856Z" fill="#BEDDFF"/>
<path opacity="0.5455" d="M266.846 262.206L317.715 287.556C323.284 290.356 332.314 290.356 337.882 287.556L388.751 262.206C394.32 259.407 394.32 254.907 388.751 252.157L337.882 226.808C332.314 224.008 323.284 224.008 317.715 226.808L266.846 252.157C261.278 254.957 261.278 259.457 266.846 262.206Z" fill="#BEDDFF"/>
<path opacity="0.6364" d="M265.542 261.554L316.411 286.903C321.98 289.703 331.01 289.703 336.578 286.903L387.497 261.554C393.066 258.754 393.066 254.254 387.497 251.504L336.628 226.155C331.06 223.355 322.03 223.355 316.461 226.155L265.592 251.504C259.974 254.304 259.974 258.804 265.542 261.554Z" fill="#BEDDFF"/>
<path opacity="0.7273" d="M264.237 260.91L315.106 286.259C320.674 289.059 329.704 289.059 335.273 286.259L386.142 260.91C391.71 258.11 391.71 253.611 386.142 250.861L335.273 225.512C329.704 222.712 320.674 222.712 315.106 225.512L264.237 250.861C258.668 253.611 258.668 258.16 264.237 260.91Z" fill="#BEDDFF"/>
<path opacity="0.8182" d="M262.881 260.258L313.75 285.607C319.319 288.407 328.349 288.407 333.917 285.607L384.787 260.258C390.355 257.458 390.355 252.959 384.787 250.209L333.917 224.859C328.349 222.06 319.319 222.06 313.75 224.859L262.881 250.209C257.313 252.959 257.313 257.458 262.881 260.258Z" fill="#BEDDFF"/>
<path opacity="0.9091" d="M261.579 259.606L312.448 284.955C318.016 287.755 327.046 287.755 332.615 284.955L383.484 259.606C389.052 256.806 389.052 252.306 383.484 249.556L332.615 224.207C327.046 221.407 318.016 221.407 312.448 224.207L261.579 249.556C256.01 252.306 256.01 256.806 261.579 259.606Z" fill="#BEDDFF"/>
<path d="M260.274 258.956L311.143 284.305C316.711 287.105 325.741 287.105 331.31 284.305L382.179 258.956C387.748 256.156 387.748 251.656 382.179 248.907L331.31 223.557C325.741 220.758 316.711 220.758 311.143 223.557L260.274 248.907C254.705 251.656 254.705 256.156 260.274 258.956Z" fill="#BEDDFF"/>
<path d="M374.255 99.662L323.787 74.5128C320.025 72.6129 316.614 72.4629 314.155 73.7629L257.367 102.062C257.166 102.162 256.965 102.262 256.765 102.362C254.507 103.662 253.102 106.212 253.102 109.712V238.007C253.102 245.457 259.122 254.457 266.597 258.157L317.065 283.306C320.828 285.206 324.239 285.356 326.697 284.106L383.486 255.807C383.686 255.707 383.887 255.607 384.088 255.507C386.345 254.207 387.75 251.707 387.75 248.157V119.811C387.75 112.412 381.68 103.362 374.255 99.662Z" fill="url(#paint4_linear_2476_77337)"/>
<path d="M317.06 283.304L266.592 258.155C259.117 254.455 253.097 245.406 253.097 238.006V109.71C253.097 102.26 259.117 99.2605 266.592 103.01L317.06 128.16C324.535 131.859 330.555 140.909 330.555 148.309V276.604C330.555 284.004 324.484 287.004 317.06 283.304Z" fill="#E3E5F9"/>
<path d="M317.059 275.807C320.37 277.457 323.029 276.107 323.029 272.857V144.561C323.029 141.261 320.37 137.262 317.059 135.662L266.592 110.513C263.281 108.863 260.622 110.213 260.622 113.462V241.758C260.622 245.058 263.281 249.058 266.592 250.658L317.059 275.807Z" fill="url(#paint5_linear_2476_77337)"/>
<path d="M265.69 110.112C265.64 110.362 265.64 110.662 265.64 110.962V239.258C265.64 242.557 268.299 246.557 271.61 248.157L322.077 273.306C322.378 273.456 322.679 273.556 322.98 273.656C322.579 276.306 320.071 277.306 317.061 275.806L266.593 250.657C263.282 249.007 260.623 245.007 260.623 241.757V113.462C260.623 110.462 262.831 109.112 265.69 110.112Z" fill="url(#paint6_linear_2476_77337)"/>
<path d="M373.399 191.606C373.399 189.556 375.054 187.056 377.161 186.006C379.218 184.956 380.924 185.806 380.924 187.856C380.924 189.906 379.268 192.406 377.161 193.456C375.054 194.506 373.399 193.706 373.399 191.606Z" fill="#5B78E6"/>
<path d="M362.108 197.205C362.108 195.155 363.763 192.655 365.87 191.605C367.927 190.555 369.633 191.405 369.633 193.455C369.633 195.505 367.977 198.005 365.87 199.055C363.813 200.105 362.108 199.305 362.108 197.205Z" fill="#03CDFF"/>
<path d="M351.687 204.739C350.421 203.753 350.721 201.26 352.358 199.171C353.995 197.081 356.348 196.187 357.615 197.172C358.881 198.158 358.581 200.651 356.944 202.74C355.308 204.829 352.954 205.724 351.687 204.739Z" fill="#03CDFF"/>
<path d="M340.453 210.349C339.186 209.363 339.486 206.87 341.123 204.781C342.76 202.691 345.114 201.796 346.38 202.782C347.647 203.768 347.347 206.26 345.71 208.35C344.073 210.439 341.719 211.334 340.453 210.349Z" fill="#03CDFF"/>
<path d="M373.399 181.256C373.399 179.206 375.054 176.706 377.161 175.656C379.218 174.606 380.924 175.456 380.924 177.506C380.924 179.556 379.268 182.056 377.161 183.106C375.054 184.156 373.399 183.306 373.399 181.256Z" fill="#03CDFF"/>
<path d="M362.914 188.779C361.647 187.794 361.947 185.301 363.584 183.211C365.221 181.122 367.575 180.227 368.841 181.213C370.108 182.198 369.808 184.691 368.171 186.781C366.534 188.87 364.18 189.765 362.914 188.779Z" fill="#838990"/>
<path d="M351.681 194.389C350.415 193.403 350.715 190.91 352.352 188.821C353.989 186.732 356.342 185.837 357.609 186.822C358.876 187.808 358.575 190.301 356.939 192.39C355.302 194.48 352.948 195.374 351.681 194.389Z" fill="#838990"/>
<path d="M339.637 198.107C339.637 196.057 341.293 193.557 343.4 192.507C345.456 191.457 347.162 192.307 347.162 194.357C347.162 196.407 345.507 198.907 343.4 199.957C341.293 201.007 339.637 200.157 339.637 198.107Z" fill="#5B78E6"/>
<path d="M342.642 186.757L377.909 169.208C379.565 168.408 380.869 166.408 380.869 164.758V144.609C380.869 142.959 379.515 142.309 377.909 143.109L342.642 160.658C340.987 161.458 339.682 163.458 339.682 165.108V185.258C339.682 186.957 340.987 187.607 342.642 186.757Z" fill="url(#paint7_linear_2476_77337)"/>
<path d="M342.642 186.757L377.909 169.208C379.565 168.408 380.869 166.408 380.869 164.758V144.609C380.869 142.959 379.515 142.309 377.909 143.109L342.642 160.658C340.987 161.458 339.682 163.458 339.682 165.108V185.258C339.682 186.957 340.987 187.607 342.642 186.757Z" fill="url(#paint8_linear_2476_77337)"/>
<path d="M340.134 185.509L375.401 167.959C377.056 167.159 378.361 165.159 378.361 163.509V143.36C378.361 143.21 378.361 143.06 378.311 142.96C379.765 142.46 380.869 143.16 380.869 144.61V164.759C380.869 166.409 379.515 168.409 377.909 169.209L342.642 186.759C341.137 187.509 339.883 187.009 339.682 185.709C339.833 185.659 339.983 185.609 340.134 185.509Z" fill="url(#paint9_linear_2476_77337)"/>
<path d="M339.888 175.008L344.955 172.458C345.908 171.958 346.71 170.958 347.011 169.908C347.965 166.009 348.918 164.309 349.52 164.059C349.62 164.009 349.72 164.009 349.821 164.059C350.623 164.409 351.526 166.809 351.928 168.359C352.078 168.958 352.881 171.958 354.185 172.558C354.536 172.708 354.888 172.708 355.239 172.558C355.59 172.408 356.593 171.908 357.747 167.259C357.948 166.509 358.55 165.709 359.252 165.359C360.205 164.909 361.008 163.859 361.309 162.809C362.061 159.909 362.764 158.709 363.165 158.459C363.215 158.409 363.265 158.409 363.316 158.459C363.918 158.709 364.62 160.609 364.921 161.809C365.122 162.509 366.075 166.109 367.58 166.809C367.981 167.009 368.382 166.959 368.734 166.809C369.787 166.259 370.841 164.059 371.794 160.209C371.994 159.459 372.596 158.659 373.299 158.309L378.717 155.609L378.265 154.709L372.847 157.409C371.894 157.909 371.091 158.909 370.79 159.959C369.837 163.909 368.834 165.609 368.282 165.909C368.182 165.959 368.081 165.959 367.981 165.909C367.178 165.559 366.275 163.159 365.874 161.559C365.724 161.009 364.971 158.109 363.717 157.509C363.366 157.359 363.015 157.359 362.714 157.509C362.413 157.659 361.459 158.159 360.306 162.509C360.105 163.259 359.503 164.059 358.801 164.409C357.847 164.859 357.045 165.909 356.744 166.959C355.941 170.058 355.189 171.358 354.737 171.608C354.687 171.658 354.637 171.658 354.536 171.608C353.884 171.308 353.132 169.358 352.831 168.059C352.63 167.359 351.677 163.809 350.172 163.109C349.771 162.909 349.369 162.959 349.018 163.109C347.965 163.659 346.961 165.859 346.008 169.658C345.807 170.408 345.205 171.208 344.503 171.558L339.436 174.108L339.888 175.008Z" fill="#838990"/>
<path d="M367.229 231.861C368.232 231.361 369.035 231.761 369.035 232.761V247.711C369.035 248.711 368.232 249.911 367.229 250.411C366.226 250.911 365.423 250.511 365.423 249.511V234.561C365.473 233.561 366.276 232.361 367.229 231.861ZM361.861 234.561C362.865 234.061 363.667 234.461 363.667 235.461V250.411C363.667 251.411 362.865 252.611 361.861 253.111C360.858 253.611 360.055 253.211 360.055 252.211V237.261C360.055 236.261 360.858 235.061 361.861 234.561ZM372.647 229.161C373.65 228.662 374.453 229.061 374.453 230.061V245.011C374.453 246.011 373.65 247.211 372.647 247.711C371.644 248.211 370.841 247.811 370.841 246.811V231.861C370.841 230.861 371.644 229.661 372.647 229.161ZM356.443 237.261C357.447 236.761 358.249 237.161 358.249 238.161V253.111C358.249 254.111 357.447 255.311 356.443 255.811C355.44 256.311 354.637 255.911 354.637 254.911V239.961C354.637 238.961 355.44 237.761 356.443 237.261ZM351.025 239.961C352.029 239.461 352.831 239.861 352.831 240.861V255.811C352.831 256.811 352.029 258.011 351.025 258.511C350.022 259.01 349.219 258.61 349.219 257.611V242.661C349.219 241.661 350.022 240.461 351.025 239.961ZM345.607 242.661C346.611 242.161 347.413 242.561 347.413 243.561V258.511C347.413 259.51 346.611 260.71 345.607 261.21C344.604 261.71 343.801 261.31 343.801 260.31V245.361C343.801 244.361 344.604 243.161 345.607 242.661ZM340.189 245.361C341.193 244.861 341.995 245.261 341.995 246.261V261.21C341.995 262.21 341.193 263.41 340.189 263.91C339.186 264.41 338.383 264.01 338.383 263.01V248.061C338.433 247.061 339.236 245.861 340.189 245.361ZM378.065 226.462C379.068 225.962 379.871 226.362 379.871 227.362V242.311C379.871 243.311 379.068 244.511 378.065 245.011C377.062 245.511 376.259 245.111 376.259 244.111V229.161C376.259 228.162 377.062 226.962 378.065 226.462Z" fill="url(#paint10_linear_2476_77337)"/>
<path d="M273.967 133.311C276.425 134.511 278.432 133.561 278.432 131.111C278.432 128.661 276.425 125.661 273.967 124.461C271.509 123.261 269.502 124.211 269.502 126.661C269.502 129.111 271.509 132.061 273.967 133.311Z" fill="#03CDFF"/>
<path d="M286.508 139.56C288.966 140.76 290.973 139.81 290.973 137.36C290.973 134.91 288.966 131.91 286.508 130.71C284.05 129.51 282.043 130.46 282.043 132.91C282.043 135.36 284.05 138.31 286.508 139.56Z" fill="#B2C0F6"/>
<path d="M319.117 187.357L310.84 183.257V175.058L319.117 179.157V187.357Z" fill="#838990"/>
<path d="M317.46 186.41C317.561 186.41 317.661 186.41 317.761 186.36C317.862 186.36 317.962 186.31 318.062 186.26C318.163 186.21 318.263 186.16 318.313 186.11C318.414 186.06 318.464 186.01 318.564 185.91C318.865 185.66 319.016 185.26 319.016 184.86C319.016 184.46 318.865 184.06 318.564 183.81C318.514 183.76 318.414 183.66 318.313 183.61C318.213 183.56 318.163 183.51 318.062 183.46C317.962 183.41 317.862 183.41 317.761 183.36C317.561 183.31 317.36 183.31 317.159 183.36C317.059 183.36 316.959 183.41 316.858 183.46C316.758 183.51 316.658 183.56 316.608 183.61C316.507 183.66 316.457 183.71 316.357 183.81C316.056 184.11 315.905 184.46 315.905 184.86C315.905 185.26 316.056 185.66 316.357 185.91C316.407 185.96 316.507 186.06 316.608 186.11C316.708 186.16 316.758 186.21 316.858 186.26C316.959 186.31 317.059 186.31 317.159 186.36C317.26 186.41 317.36 186.41 317.46 186.41Z" fill="#9EB4FB"/>
<path d="M312.495 183.956C312.595 183.956 312.696 183.956 312.796 183.906C312.896 183.906 312.997 183.856 313.097 183.806C313.197 183.756 313.248 183.706 313.348 183.656C313.448 183.606 313.498 183.556 313.548 183.456C313.849 183.156 314 182.806 314 182.406C314 182.006 313.849 181.606 313.548 181.356C313.498 181.306 313.398 181.206 313.348 181.156C313.248 181.106 313.197 181.056 313.097 181.006C312.997 180.956 312.896 180.956 312.796 180.906C312.595 180.856 312.395 180.856 312.194 180.906C312.094 180.906 311.993 180.956 311.893 181.006C311.793 181.056 311.692 181.106 311.642 181.156C311.542 181.206 311.492 181.256 311.391 181.356C311.09 181.656 310.94 182.006 310.94 182.406C310.94 182.806 311.09 183.206 311.391 183.456C311.441 183.506 311.542 183.606 311.642 183.656C311.742 183.706 311.793 183.756 311.893 183.806C311.993 183.856 312.094 183.856 312.194 183.906C312.294 183.906 312.395 183.956 312.495 183.956Z" fill="#9EB4FB"/>
<path d="M312.496 179.006C312.596 179.006 312.696 179.006 312.797 178.956C312.897 178.956 312.997 178.906 313.098 178.856C313.198 178.806 313.248 178.756 313.348 178.706C313.449 178.656 313.499 178.606 313.549 178.506C313.599 178.456 313.7 178.356 313.75 178.256C313.8 178.156 313.85 178.106 313.9 178.006C313.95 177.906 313.95 177.806 314.001 177.706C314.001 177.606 314.051 177.506 314.051 177.406C314.051 177.006 313.9 176.606 313.599 176.356C313.549 176.306 313.449 176.206 313.399 176.156C313.298 176.106 313.248 176.056 313.148 176.006C313.047 175.956 312.947 175.956 312.847 175.906C312.646 175.856 312.445 175.856 312.245 175.906C312.144 175.906 312.044 175.956 311.944 176.006C311.843 176.056 311.743 176.106 311.693 176.156C311.593 176.206 311.542 176.256 311.442 176.356C311.141 176.656 310.991 177.006 310.991 177.406C310.991 177.506 310.991 177.606 311.041 177.706C311.041 177.806 311.091 177.906 311.141 178.006C311.191 178.106 311.241 178.206 311.292 178.256C311.342 178.356 311.392 178.406 311.492 178.506C311.743 178.856 312.094 179.006 312.496 179.006Z" fill="#9EB4FB"/>
<path d="M317.46 181.46C317.561 181.46 317.661 181.46 317.761 181.41C317.862 181.41 317.962 181.36 318.062 181.31C318.163 181.26 318.263 181.21 318.313 181.16C318.414 181.11 318.464 181.06 318.564 180.96C318.865 180.71 319.016 180.31 319.016 179.91C319.016 179.511 318.865 179.111 318.564 178.861C318.514 178.811 318.414 178.711 318.313 178.661C318.213 178.611 318.163 178.561 318.062 178.511C317.962 178.461 317.862 178.461 317.761 178.411C317.561 178.361 317.36 178.361 317.159 178.411C317.059 178.411 316.959 178.461 316.858 178.511C316.758 178.561 316.658 178.611 316.608 178.661C316.507 178.711 316.457 178.761 316.357 178.861C316.056 179.161 315.905 179.511 315.905 179.91C315.905 180.31 316.056 180.71 316.357 180.96C316.407 181.01 316.507 181.11 316.608 181.16C316.708 181.21 316.758 181.26 316.858 181.31C316.959 181.36 317.059 181.36 317.159 181.41C317.26 181.46 317.36 181.46 317.46 181.46Z" fill="#9EB4FB"/>
<path d="M319.117 175.761L310.84 171.662V163.462L319.117 167.562V175.761Z" fill="#03CDFF"/>
<path d="M317.461 174.762C317.561 174.762 317.662 174.762 317.762 174.712C317.862 174.712 317.963 174.662 318.063 174.612C318.163 174.562 318.264 174.512 318.314 174.462C318.414 174.412 318.464 174.362 318.565 174.262C318.615 174.212 318.715 174.112 318.765 174.062C318.816 173.962 318.866 173.912 318.916 173.812C318.966 173.712 318.966 173.612 319.016 173.512C319.016 173.412 319.066 173.312 319.066 173.212C319.066 173.112 319.066 173.012 319.016 172.912C319.016 172.812 318.966 172.712 318.916 172.612C318.866 172.512 318.816 172.462 318.765 172.362C318.715 172.262 318.665 172.212 318.565 172.112C318.515 172.062 318.414 171.962 318.314 171.912C318.214 171.862 318.163 171.812 318.063 171.762C317.963 171.712 317.862 171.712 317.762 171.662C317.561 171.612 317.361 171.612 317.16 171.662C317.06 171.662 316.959 171.712 316.859 171.762C316.759 171.812 316.658 171.862 316.608 171.912C316.508 171.962 316.458 172.012 316.357 172.112C316.307 172.162 316.207 172.262 316.157 172.362C316.107 172.462 316.056 172.512 316.006 172.612C315.956 172.712 315.956 172.812 315.906 172.912C315.906 173.012 315.856 173.112 315.856 173.212C315.856 173.312 315.856 173.412 315.906 173.512C315.906 173.612 315.956 173.712 316.006 173.812C316.056 173.912 316.107 174.012 316.157 174.062C316.207 174.162 316.257 174.212 316.357 174.262C316.408 174.312 316.508 174.412 316.608 174.462C316.709 174.512 316.759 174.562 316.859 174.612C316.959 174.662 317.06 174.662 317.16 174.712C317.26 174.762 317.361 174.762 317.461 174.762Z" fill="#5577DA"/>
<path d="M312.495 172.311C312.595 172.311 312.696 172.311 312.796 172.261C312.896 172.261 312.997 172.211 313.097 172.161C313.197 172.111 313.248 172.061 313.348 172.011C313.448 171.961 313.498 171.911 313.548 171.811C313.849 171.511 314 171.162 314 170.762C314 170.662 314 170.562 313.95 170.462C313.95 170.362 313.9 170.262 313.85 170.162C313.799 170.062 313.749 169.962 313.699 169.912C313.649 169.812 313.599 169.762 313.498 169.662C313.448 169.612 313.348 169.512 313.298 169.462C313.197 169.412 313.147 169.362 313.047 169.312C312.946 169.262 312.846 169.262 312.746 169.212C312.545 169.162 312.344 169.162 312.144 169.212C312.043 169.212 311.943 169.262 311.843 169.312C311.743 169.362 311.642 169.412 311.592 169.462C311.492 169.512 311.442 169.562 311.341 169.662C311.291 169.712 311.191 169.812 311.14 169.912C311.09 170.012 311.04 170.062 310.99 170.162C310.94 170.262 310.94 170.362 310.89 170.462C310.89 170.562 310.839 170.662 310.839 170.762C310.839 171.162 310.99 171.561 311.291 171.811C311.341 171.861 311.441 171.961 311.542 172.011C311.642 172.061 311.692 172.111 311.793 172.161C311.893 172.211 311.993 172.211 312.094 172.261C312.294 172.311 312.395 172.311 312.495 172.311Z" fill="#5577DA"/>
<path d="M312.496 167.413C312.596 167.413 312.696 167.413 312.797 167.363C312.897 167.363 312.997 167.313 313.098 167.263C313.198 167.213 313.248 167.163 313.348 167.113C313.449 167.063 313.499 167.013 313.549 166.913C313.599 166.863 313.7 166.763 313.75 166.663C313.8 166.563 313.85 166.513 313.9 166.413C313.95 166.313 313.95 166.213 314.001 166.113C314.001 166.013 314.051 165.913 314.051 165.813C314.051 165.413 313.9 165.013 313.599 164.763C313.549 164.713 313.449 164.613 313.399 164.563C313.298 164.513 313.248 164.463 313.148 164.413C313.047 164.363 312.947 164.363 312.847 164.313C312.646 164.263 312.445 164.263 312.245 164.313C312.144 164.313 312.044 164.363 311.944 164.413C311.843 164.463 311.743 164.513 311.693 164.563C311.593 164.613 311.542 164.663 311.442 164.763C311.141 165.013 310.991 165.413 310.991 165.813C310.991 166.213 311.141 166.613 311.442 166.863C311.492 166.913 311.593 167.013 311.693 167.063C311.793 167.113 311.843 167.163 311.944 167.213C312.044 167.263 312.144 167.263 312.245 167.313C312.295 167.413 312.395 167.413 312.496 167.413Z" fill="#5577DA"/>
<path d="M317.461 169.86C317.561 169.86 317.662 169.86 317.762 169.81C317.862 169.81 317.963 169.76 318.063 169.71C318.163 169.66 318.264 169.61 318.314 169.56C318.414 169.51 318.464 169.46 318.565 169.36C318.615 169.31 318.715 169.21 318.765 169.11C318.816 169.01 318.866 168.96 318.916 168.86C318.966 168.76 318.966 168.66 319.016 168.56C319.016 168.46 319.066 168.36 319.066 168.26C319.066 168.16 319.066 168.06 319.016 167.96C319.016 167.86 318.966 167.76 318.916 167.66C318.866 167.56 318.816 167.46 318.765 167.41C318.715 167.31 318.665 167.26 318.565 167.16C318.515 167.11 318.414 167.01 318.314 166.96C318.214 166.91 318.163 166.86 318.063 166.81C317.963 166.76 317.862 166.76 317.762 166.71C317.561 166.66 317.361 166.66 317.16 166.71C317.06 166.71 316.959 166.76 316.859 166.81C316.759 166.86 316.658 166.91 316.608 166.96C316.508 167.01 316.458 167.06 316.357 167.16C316.307 167.21 316.207 167.31 316.157 167.41C316.107 167.51 316.056 167.56 316.006 167.66C315.956 167.76 315.956 167.86 315.906 167.96C315.906 168.06 315.856 168.16 315.856 168.26C315.856 168.36 315.856 168.46 315.906 168.56C315.906 168.66 315.956 168.76 316.006 168.86C316.056 168.96 316.107 169.06 316.157 169.11C316.207 169.21 316.257 169.26 316.357 169.36C316.408 169.41 316.508 169.51 316.608 169.56C316.709 169.61 316.759 169.66 316.859 169.71C316.959 169.76 317.06 169.76 317.16 169.81C317.26 169.86 317.361 169.86 317.461 169.86Z" fill="#5577DA"/>
<path d="M319.117 164.108L310.84 160.008V151.808L319.117 155.908V164.108Z" fill="#838990"/>
<path d="M317.46 163.157C317.561 163.157 317.661 163.157 317.761 163.107C317.862 163.107 317.962 163.057 318.062 163.007C318.163 162.957 318.263 162.907 318.313 162.857C318.414 162.807 318.464 162.757 318.564 162.657C318.865 162.357 319.016 162.007 319.016 161.607C319.016 161.207 318.865 160.807 318.564 160.557C318.514 160.507 318.414 160.407 318.313 160.357C318.213 160.307 318.163 160.257 318.062 160.207C317.962 160.157 317.862 160.157 317.761 160.107C317.561 160.057 317.36 160.057 317.159 160.107C317.059 160.107 316.959 160.157 316.858 160.207C316.758 160.257 316.658 160.307 316.608 160.357C316.507 160.407 316.457 160.457 316.357 160.557C316.056 160.807 315.905 161.207 315.905 161.607C315.905 162.007 316.056 162.407 316.357 162.657C316.407 162.707 316.507 162.807 316.608 162.857C316.708 162.907 316.758 162.957 316.858 163.007C316.959 163.057 317.059 163.057 317.159 163.107C317.26 163.157 317.36 163.157 317.46 163.157Z" fill="#ED637F"/>
<path d="M312.496 160.708C312.596 160.708 312.696 160.708 312.797 160.658C312.897 160.658 312.997 160.608 313.098 160.558C313.198 160.508 313.248 160.458 313.348 160.408C313.449 160.358 313.499 160.308 313.549 160.208C313.599 160.158 313.7 160.058 313.75 159.958C313.8 159.858 313.85 159.808 313.9 159.708C313.95 159.608 313.95 159.508 314.001 159.408C314.001 159.308 314.051 159.208 314.051 159.108C314.051 158.708 313.9 158.308 313.599 158.058C313.549 158.008 313.449 157.908 313.399 157.858C313.298 157.808 313.248 157.758 313.148 157.708C313.047 157.658 312.947 157.658 312.847 157.608C312.646 157.558 312.445 157.558 312.245 157.608C312.144 157.608 312.044 157.658 311.944 157.708C311.843 157.758 311.743 157.808 311.693 157.858C311.593 157.908 311.542 157.958 311.442 158.058C311.141 158.358 310.991 158.708 310.991 159.108C310.991 159.508 311.141 159.908 311.442 160.158C311.492 160.208 311.593 160.308 311.693 160.358C311.793 160.408 311.843 160.458 311.944 160.508C312.044 160.558 312.144 160.558 312.245 160.608C312.295 160.708 312.395 160.708 312.496 160.708Z" fill="#ED637F"/>
<path d="M312.496 155.812C312.596 155.812 312.696 155.812 312.797 155.762C312.897 155.762 312.997 155.712 313.098 155.662C313.198 155.612 313.248 155.562 313.348 155.512C313.449 155.462 313.499 155.412 313.549 155.312C313.599 155.262 313.7 155.162 313.75 155.062C313.8 154.962 313.85 154.912 313.9 154.812C313.95 154.712 313.95 154.612 314.001 154.512C314.001 154.412 314.051 154.312 314.051 154.212C314.051 153.813 313.9 153.413 313.599 153.163C313.549 153.113 313.449 153.013 313.399 152.963C313.298 152.913 313.248 152.863 313.148 152.813C313.047 152.763 312.947 152.763 312.847 152.713C312.646 152.663 312.445 152.663 312.245 152.713C312.144 152.713 312.044 152.763 311.944 152.813C311.843 152.863 311.743 152.913 311.693 152.963C311.593 153.013 311.542 153.063 311.442 153.163C311.141 153.463 310.991 153.813 310.991 154.212C310.991 154.312 310.991 154.412 311.041 154.512C311.041 154.612 311.091 154.712 311.141 154.812C311.191 154.912 311.241 155.012 311.292 155.062C311.342 155.162 311.392 155.212 311.492 155.312C311.743 155.612 312.094 155.812 312.496 155.812Z" fill="#ED637F"/>
<path d="M317.46 158.259C317.561 158.259 317.661 158.259 317.761 158.209C317.862 158.209 317.962 158.159 318.062 158.109C318.163 158.059 318.263 158.009 318.313 157.959C318.414 157.909 318.464 157.859 318.564 157.759C318.865 157.459 319.016 157.109 319.016 156.709C319.016 156.309 318.865 155.909 318.564 155.659C318.514 155.609 318.414 155.509 318.313 155.459C318.213 155.409 318.163 155.359 318.062 155.309C317.962 155.259 317.862 155.259 317.761 155.209C317.561 155.159 317.36 155.159 317.159 155.209C317.059 155.209 316.959 155.259 316.858 155.309C316.758 155.359 316.658 155.409 316.608 155.459C316.507 155.509 316.457 155.559 316.357 155.659C316.056 155.959 315.905 156.309 315.905 156.709C315.905 157.109 316.056 157.509 316.357 157.759C316.407 157.809 316.507 157.909 316.608 157.959C316.708 158.009 316.758 158.059 316.858 158.109C316.959 158.159 317.059 158.159 317.159 158.209C317.26 158.259 317.36 158.259 317.46 158.259Z" fill="#ED637F"/>
<path d="M270.959 158.058C269.755 157.458 268.751 155.958 268.751 154.708C268.751 153.508 269.755 153.008 270.959 153.608C272.163 154.208 273.166 155.708 273.166 156.958C273.166 158.158 272.163 158.658 270.959 158.058Z" fill="#838990"/>
<path d="M270.959 164.913C269.755 164.313 268.751 162.813 268.751 161.563C268.751 160.363 269.755 159.863 270.959 160.463C272.163 161.063 273.166 162.563 273.166 163.813C273.166 165.063 272.163 165.563 270.959 164.913Z" fill="#B2C0F6"/>
<path d="M269.56 170.689C268.588 169.448 268.42 167.96 269.184 167.366C269.949 166.771 271.356 167.294 272.328 168.535C273.3 169.776 273.468 171.263 272.704 171.858C271.94 172.453 270.532 171.929 269.56 170.689Z" fill="#B2C0F6"/>
<path d="M298.797 173.561V177.261L290.319 173.011V169.362L298.797 173.561Z" fill="#B2C0F6"/>
<path d="M312.141 133.357H313.145V152.707H312.141V133.357Z" fill="#838990"/>
<path d="M316.807 135.663H317.811V155.012H316.807V135.663Z" fill="#838990"/>
<path d="M314.45 134.506H315.453V153.856H314.45V134.506Z" fill="#838990"/>
<path d="M291.778 174.013H292.781V213.362H291.778V174.013Z" fill="#838990"/>
<path d="M296.393 176.316H297.396V215.664H296.393V176.316Z" fill="#838990"/>
<path d="M294.085 175.162H295.088V214.511H294.085V175.162Z" fill="#838990"/>
<path d="M288.568 158.311L297.197 154.011L305.625 158.211L306.076 157.311L297.197 152.861L288.568 157.161L273.418 149.612L272.966 150.512L288.568 158.311Z" fill="#838990"/>
<path d="M305.374 236.563H306.377V246.213H305.374V236.563Z" fill="#838990"/>
<path d="M310.038 238.856H311.041V248.505H310.038V238.856Z" fill="#838990"/>
<path d="M307.733 237.709H308.736V247.359H307.733V237.709Z" fill="#838990"/>
<path d="M305.374 254.909H306.377V265.359H305.374V254.909Z" fill="#838990"/>
<path d="M310.038 257.213H311.041V267.662H310.038V257.213Z" fill="#838990"/>
<path d="M307.733 256.055H308.736V266.505H307.733V256.055Z" fill="#838990"/>
<path d="M317.91 223.159L298.496 213.51V232.859L317.91 242.559V223.159Z" fill="#838990"/>
<path d="M304.789 230.72C302.351 227.608 301.914 223.886 303.814 222.408C305.714 220.93 309.231 222.254 311.669 225.367C314.107 228.479 314.544 232.2 312.644 233.679C310.744 235.157 307.227 233.833 304.789 230.72Z" fill="#5B78E6"/>
<path d="M286.309 236.259V211.11L288.918 212.41L289.369 211.51L285.306 209.51V234.659L281.292 232.659L280.841 233.559L286.309 236.259Z" fill="#838990"/>
<path d="M286.048 222.922L289.369 224.577L288.92 225.472L285.599 223.817L286.048 222.922Z" fill="#838990"/>
<path d="M286.03 216.418L289.352 218.073L288.902 218.968L285.581 217.313L286.03 216.418Z" fill="#838990"/>
<path d="M293.611 226.735L298.727 229.284L298.278 230.179L293.162 227.63L293.611 226.735Z" fill="#838990"/>
<path d="M293.617 213.645L298.732 216.194L298.284 217.089L293.168 214.539L293.617 213.645Z" fill="#838990"/>
<path d="M293.613 220.183L298.729 222.732L298.28 223.627L293.164 221.078L293.613 220.183Z" fill="#838990"/>
<path d="M312.445 254.458V258.158L303.967 253.958V250.258L312.445 254.458Z" fill="#B2C0F6"/>
<path d="M269.562 150.04C268.59 148.8 268.422 147.312 269.186 146.717C269.95 146.122 271.358 146.646 272.33 147.886C273.302 149.127 273.47 150.615 272.706 151.209C271.941 151.804 270.534 151.281 269.562 150.04Z" fill="#5B78E6"/>
<path d="M305.823 157.509L301.208 150.66L296.291 148.16L290.021 151.31L265.64 139.16V134.46L287.613 145.41L292.83 142.81L310.84 151.81V160.009L305.823 157.509Z" fill="#5B78E6"/>
<path d="M310.84 175.06L302.562 179.21V191.959L307.328 194.359V191.309L304.318 186.759V180.01L310.84 183.26V175.06Z" fill="#5B78E6"/>
<path d="M322.93 189.308V181.058L319.117 179.158V187.358L322.93 189.308Z" fill="#5B78E6"/>
<path d="M289.118 211.959C289.118 210.809 290.071 210.31 291.225 210.909C292.379 211.509 293.332 212.909 293.332 214.059C293.332 215.209 292.379 215.709 291.225 215.109C290.071 214.559 289.118 213.109 289.118 211.959Z" fill="#5B78E6"/>
<path d="M289.118 218.509C289.118 217.359 290.071 216.859 291.225 217.459C292.379 218.059 293.332 219.458 293.332 220.608C293.332 221.758 292.379 222.258 291.225 221.658C290.071 221.108 289.118 219.658 289.118 218.509Z" fill="#5B78E6"/>
<path d="M293.383 227.16C293.383 228.31 292.43 228.81 291.276 228.21C290.122 227.61 289.169 226.21 289.169 225.06C289.169 223.91 290.122 223.41 291.276 224.01C292.43 224.56 293.383 226.01 293.383 227.16Z" fill="#03CDFF"/>
<path d="M312.445 249.459V253.159L303.967 248.909V245.209L312.445 249.459Z" fill="#5B78E6"/>
<path d="M276.175 158.359L285.656 163.109L297.897 157.009L310.84 163.459V171.659L299.301 165.909L296.392 161.509L283.649 167.859L287.713 173.859L287.663 199.558L283.85 197.658L280.639 199.258L276.124 197.008L276.175 158.359Z" fill="#5B78E6"/>
<path d="M275.319 208.861H276.322V215.961H275.319V208.861Z" fill="#838990"/>
<path d="M277.932 209.909C277.932 211.059 276.978 211.559 275.825 210.959C274.671 210.359 273.718 208.96 273.718 207.81C273.718 206.66 274.671 206.16 275.825 206.76C276.978 207.36 277.932 208.76 277.932 209.909Z" fill="#03CDFF"/>
<path d="M275.825 215.958C273.467 214.808 271.611 215.758 271.611 218.058V230.858C271.611 233.208 273.517 236.008 275.825 237.158C278.183 238.308 280.039 237.358 280.039 235.058V222.258C280.039 219.958 278.183 217.108 275.825 215.958Z" fill="#838990"/>
<path fill-rule="evenodd" clip-rule="evenodd" d="M278.491 403.876L276.941 403.104C273.083 401.181 273.083 398.088 276.941 396.166L325.668 371.884C329.526 369.962 335.732 369.962 339.59 371.884L360.172 382.147C360.274 382.194 360.374 382.242 360.473 382.291L430.04 416.979C430.109 417.013 430.177 417.048 430.243 417.083L432.134 418.026C435.992 419.948 435.992 423.041 432.134 424.963L383.407 449.245C379.549 451.167 373.343 451.167 369.485 449.245L366.09 447.552C365.814 447.441 365.547 447.321 365.29 447.193L363.396 446.249C363.328 446.217 363.262 446.185 363.196 446.152L293.629 411.464C293.473 411.386 293.324 411.306 293.181 411.223L281.09 405.194L281.039 405.168L278.992 404.148C278.817 404.06 278.65 403.969 278.491 403.876Z" fill="url(#paint11_linear_2476_77337)"/>
<path d="M386.682 344.715L327.534 314.726C327.289 314.546 326.999 314.436 326.695 314.408C326.392 314.381 326.087 314.436 325.812 314.568L321.803 316.825L325.087 361.716C325.123 362.567 325.364 363.397 325.79 364.136C326.216 364.875 326.814 365.501 327.534 365.961L384.484 402.536L388.517 400.278C388.754 400.098 388.941 399.86 389.06 399.587C389.179 399.315 389.226 399.016 389.196 398.72V349.05C389.162 348.178 388.915 347.328 388.477 346.573C388.039 345.818 387.423 345.18 386.682 344.715Z" fill="#D5DAF2"/>
<path d="M382.672 347.02L323.434 316.819C322.097 316.051 321.01 316.684 321.01 318.219V367.889C321.054 368.729 321.296 369.548 321.718 370.277C322.139 371.007 322.727 371.627 323.434 372.088L382.672 402.289C384.009 403.057 385.096 402.447 385.096 400.889V351.219C385.048 350.379 384.804 349.562 384.383 348.833C383.963 348.104 383.377 347.483 382.672 347.02Z" fill="#E3E6F9"/>
<path d="M324.203 369.119V321.112L381.901 350.271V398.225L324.203 369.119Z" fill="url(#paint12_linear_2476_77337)"/>
<path d="M383.645 404.383L323.388 373.497C322.632 373.118 321.798 372.92 320.952 372.92C320.107 372.92 319.273 373.118 318.517 373.497L274.043 394.361V399.628C274.076 399.927 274.184 400.212 274.359 400.457C274.533 400.702 274.768 400.898 275.04 401.028L334.556 431.591C335.307 431.97 336.137 432.167 336.98 432.167C337.822 432.167 338.652 431.97 339.403 431.591L382.626 410.083C382.905 409.961 383.147 409.767 383.326 409.521C383.505 409.275 383.615 408.986 383.645 408.684V404.383Z" fill="#D8DCF7"/>
<path d="M382.625 402.333L322.962 371.776C322.206 371.397 321.372 371.2 320.527 371.2C319.681 371.2 318.847 371.397 318.091 371.776L275.094 393.133C273.758 393.923 273.758 395.165 275.094 395.932L334.555 426.471C335.307 426.85 336.137 427.047 336.979 427.047C337.821 427.047 338.652 426.85 339.403 426.471L382.625 405.133C382.914 405.028 383.162 404.837 383.338 404.587C383.514 404.337 383.608 404.038 383.608 403.733C383.608 403.427 383.514 403.129 383.338 402.879C383.162 402.628 382.914 402.438 382.625 402.333Z" fill="#F5F5FD"/>
<g style="mix-blend-mode:multiply">
<path d="M294.172 386.591L319.555 373.991L378.731 404.001L353.448 416.601L294.172 386.591Z" fill="#D5D5F9"/>
</g>
<g style="mix-blend-mode:multiply">
<path d="M319.256 415.209L298.502 404.594L310.994 398.245L332.147 408.86L319.256 415.209Z" fill="#D5D5F9"/>
</g>
<path d="M371.977 372.923L331.09 352.509C331.347 351.636 332.806 349.921 336.578 350.045C341.292 350.199 343.766 355.591 348.867 358.903C353.968 362.216 355.282 357.517 361.775 358.903C366.969 360.013 370.741 368.712 371.977 372.923Z" fill="#5FDEFF"/>
<path d="M405.111 298.218L407.704 298.147L414.309 303.457C415.304 304.235 414.416 306.217 413.031 305.616L406.603 302.784C405.04 302.112 405.147 299.846 405.111 298.218Z" fill="#8EAAE8"/>
<path d="M395.702 260.663L407.954 271.175L408.487 271.635C409.303 272.343 409.765 273.369 409.765 274.396L409.836 297.614C409.836 299.171 408.593 300.446 407.031 300.446C405.575 300.446 404.403 299.384 404.225 298.003L401.242 274.962L403.053 278.183L388.99 270.29C386.149 268.697 385.154 265.087 386.753 262.255C388.351 259.424 391.973 258.433 394.814 260.026C395.098 260.167 395.418 260.415 395.702 260.663Z" fill="#00438D"/>
<path d="M394.813 304.302L398.152 311.239C398.791 312.514 396.163 313.469 395.062 312.195L391.475 308.019C390.836 307.24 390.658 305.647 390.658 304.302H394.813Z" fill="#8EAAE8"/>
<path d="M389.13 267.565L392.504 275.529L392.93 276.555C393.108 276.944 393.285 277.369 393.427 277.794C393.747 278.608 393.996 279.457 394.244 280.307C394.706 282.006 394.99 283.705 395.097 285.404L395.132 286.041V286.607L395.168 287.669L395.203 289.828L395.31 294.146L395.523 302.782C395.558 304.339 394.315 305.649 392.753 305.684C391.368 305.72 390.196 304.729 389.912 303.419L388.207 294.96L387.355 290.748L386.928 288.625L386.715 287.563L386.609 287.067L386.502 286.642C386.218 285.51 385.828 284.448 385.33 283.422C385.082 282.926 384.833 282.431 384.514 281.935C384.371 281.687 384.229 281.475 384.052 281.227L383.484 280.342L378.76 273.122C376.985 270.397 377.766 266.751 380.501 264.981C383.235 263.212 386.893 263.99 388.669 266.716C388.811 266.928 388.988 267.247 389.13 267.565Z" fill="#00438D"/>
<path d="M400.959 251.18C400.745 251.534 400.532 251.888 400.213 252.277C400.142 252.383 400.035 252.489 399.929 252.595C399.822 252.702 399.716 252.808 399.574 252.914C399.289 253.126 398.899 253.339 398.402 253.445C397.869 253.551 397.301 253.445 396.875 253.268C396.661 253.162 396.519 253.056 396.342 252.949C396.2 252.843 396.093 252.737 395.987 252.631C395.561 252.206 395.347 251.852 395.134 251.498C394.708 250.79 394.46 250.153 394.176 249.481C393.927 248.844 393.678 248.207 393.501 247.569C392.648 245.056 392.009 242.544 391.263 240.031C390.837 238.579 391.654 237.093 393.075 236.668C394.531 236.243 396.022 237.057 396.448 238.509C396.519 238.756 396.555 239.004 396.555 239.252C396.59 240.491 396.661 241.729 396.768 242.968C396.875 244.207 397.052 245.41 397.265 246.578C397.372 247.18 397.514 247.746 397.656 248.277C397.798 248.808 398.011 249.339 398.189 249.764C398.295 249.941 398.402 250.118 398.437 250.153C398.402 250.118 398.402 250.118 398.331 250.082C398.295 250.082 398.26 250.047 398.224 250.047C398.189 250.047 398.117 250.012 398.082 250.012C397.975 250.012 397.869 249.976 397.762 250.012C397.549 250.047 397.478 250.118 397.443 250.153C397.443 250.118 397.443 250.118 397.478 250.082C397.549 249.976 397.656 249.799 397.762 249.587C398.153 248.667 399.218 248.242 400.142 248.596C401.065 248.985 401.491 250.012 401.136 250.967C401.101 251.038 401.065 251.109 401.03 251.18H400.959Z" fill="#3176FF"/>
<path d="M395.207 255.674C395.242 261.019 395.136 266.469 395.136 266.469C394.887 268.876 378.977 272.84 377.805 270.327C377.521 266.823 377.663 263.39 378.373 259.957L395.207 255.674Z" fill="#00438D"/>
<path d="M374.57 240.561C378.05 237.553 387.142 235.571 391.616 235.04C394.138 234.757 396.34 236.633 396.482 239.146C396.872 246.012 395.523 256.807 395.523 256.807C395.523 259.568 379.648 262.754 378.263 259.851C378.263 252.135 376.559 249.693 373.007 244.03C372.972 242.721 373.54 241.446 374.57 240.561Z" fill="#3176FF"/>
<path d="M387.393 234.401L386.754 238.861C385.085 238.861 383.202 238.047 383.309 236.631L384.126 232.207L387.393 234.401Z" fill="#F3ABC7"/>
<path d="M389.38 234.646C389.202 235.389 387.817 236.239 386.61 235.319L384.159 232.204C384.159 232.204 383.058 227.072 386.716 227.072C387.782 227.072 389.38 227.886 389.948 228.771C390.729 230.682 389.877 232.77 389.38 234.646Z" fill="#F3ABC7"/>
<path d="M383.414 229.375C383.414 226.649 386.433 225.871 388.102 226.543C389.167 227.003 390.801 228.384 392.505 227.393C392.967 228.773 391.937 229.658 390.339 230.153C388.883 230.578 387.321 230.259 386.184 229.268L386.149 229.233L385.367 229.127C386.078 229.906 386.22 231.215 385.971 232.808L387.782 233.728L389.735 233.162L389.522 235.321C389.451 235.816 389.025 236.206 388.528 236.241L387.889 236.276C387.64 236.276 387.356 236.206 387.178 236.029C387.178 236.029 385.048 234.684 385.083 233.94L385.225 231.427C385.048 231.109 384.835 231.109 384.693 231.251C384.55 231.427 383.663 234.755 383.663 234.755C383.663 234.755 383.414 230.472 383.414 229.375Z" fill="#00438D"/>
<path d="M397.512 256.276L391.581 257.692C391.084 257.798 390.729 257.515 390.8 257.055L392.647 247.215C392.753 246.72 393.215 246.26 393.748 246.118L399.678 244.702C400.176 244.596 400.531 244.879 400.46 245.34L398.613 255.179C398.506 255.675 398.045 256.17 397.512 256.276Z" fill="#00438D"/>
<path d="M401.031 249.76C401.138 250.928 400.108 251.6 399.255 251.813L399.398 249.937C399.149 249.548 399.042 249.052 399.113 248.592L399.326 246.822L400.285 247.282C401.244 247.813 401.422 248.557 401.031 249.76Z" fill="#F3ABC7"/>
<path d="M391.724 255.428L389.984 256.384C389.38 256.667 388.812 256.985 388.208 257.269C387.037 257.87 385.794 258.401 384.48 258.861C383.201 259.321 381.816 259.675 380.325 259.852C379.969 259.888 379.579 259.888 379.188 259.923C379.011 259.923 378.797 259.923 378.584 259.888C378.371 259.888 378.194 259.852 377.981 259.852C377.554 259.782 377.164 259.746 376.738 259.569C376.525 259.498 376.312 259.463 376.134 259.357C375.921 259.251 375.743 259.18 375.53 259.074C374.749 258.649 374.003 258.047 373.435 257.339C372.902 256.631 372.476 255.853 372.192 255.074C372.121 254.862 372.05 254.685 372.014 254.508C371.979 254.331 371.908 254.118 371.872 253.941L371.766 253.375C371.73 253.198 371.695 252.986 371.695 252.809C371.659 252.42 371.624 252.066 371.588 251.676L371.553 251.11V250.579C371.588 249.128 371.801 247.712 372.085 246.367C372.37 244.987 372.725 243.677 373.151 242.368C373.613 240.952 375.104 240.173 376.525 240.598C377.945 241.058 378.726 242.545 378.3 243.96C378.265 244.067 378.229 244.208 378.158 244.314V244.35C377.128 246.473 376.347 248.703 376.098 250.862C375.992 251.924 375.956 252.986 376.205 253.835C376.312 254.26 376.489 254.614 376.667 254.933C376.88 255.251 377.128 255.463 377.412 255.676C377.483 255.711 377.59 255.782 377.661 255.817C377.732 255.853 377.839 255.888 377.945 255.924C378.123 256.03 378.336 256.03 378.549 256.101C378.762 256.136 379.011 256.171 379.259 256.171C379.508 256.171 379.756 256.207 380.005 256.171C381.07 256.136 382.171 255.888 383.272 255.499C385.509 254.756 387.711 253.623 389.771 252.313H389.807C390.659 251.782 391.76 252.03 392.292 252.88C392.825 253.729 392.577 254.826 391.724 255.357C391.795 255.393 391.76 255.428 391.724 255.428Z" fill="#3176FF"/>
<path d="M391.653 249.729C391.724 249.552 391.937 249.482 392.115 249.552C392.292 249.623 392.399 249.836 392.328 250.013L391.973 251.145L392.648 250.402L393.962 249.552C394.139 249.446 394.352 249.482 394.423 249.659C394.53 249.8 394.494 250.013 394.352 250.119L393.287 250.933L393.145 251.145L393.891 250.827L394.21 253.127L393.784 253.587C393.784 253.587 393.003 254.401 392.328 255.003C391.937 255.357 391.334 255.322 390.978 254.932L389.949 253.835C389.664 253.517 389.629 253.056 389.842 252.667L391.653 249.729Z" fill="#F3ABC7"/>
<path d="M278.69 325.422C269.48 320.882 258.65 320.882 249.439 325.422C249.389 325.422 249.338 325.472 249.287 325.472C246.858 326.683 244.632 327.944 242.607 329.306C240.077 330.97 240.077 334.702 242.607 336.367C244.632 337.678 246.858 338.989 249.287 340.2C249.338 340.2 249.389 340.25 249.439 340.25C258.65 344.79 269.48 344.79 278.69 340.25C278.741 340.25 278.791 340.2 278.842 340.2C281.271 338.989 283.498 337.729 285.522 336.367C288.053 334.702 288.053 330.97 285.522 329.306C283.498 327.994 281.271 326.683 278.842 325.472C278.791 325.472 278.741 325.422 278.69 325.422Z" fill="#0165D3"/>
<path d="M260.521 337.628C262.495 339.091 266.594 341.563 268.567 342.218C270.592 342.874 271.604 341.26 270.389 339.797L263.203 331.576L260.673 334.3C259.762 335.258 259.256 336.67 260.521 337.628Z" fill="#1584FF"/>
<path d="M256.172 331.98C258.348 331.273 261.84 329.054 263.308 327.743C264.826 326.331 263.763 324.767 261.84 325.07L253.49 326.129V330.164C253.49 331.425 254.654 332.484 256.172 331.98Z" fill="#1584FF"/>
<path d="M247.713 266.258L247.106 270.293C247.055 270.545 246.853 270.747 246.549 270.747C246.245 270.747 246.043 270.545 246.043 270.243L245.891 267.015L247.713 266.258Z" fill="#F3ABC7"/>
<path d="M245.641 268.826L245.894 271.55C245.945 271.903 245.793 272.206 245.591 272.458L244.427 273.719L245.135 269.28L245.641 268.826Z" fill="#F3ABC7"/>
<path d="M244.933 270.443L244.427 273.721C244.376 273.973 244.123 274.175 243.87 274.125C243.668 274.074 243.516 273.923 243.465 273.721L242.858 270.191L243.516 265.903C243.668 264.844 244.68 264.138 245.692 264.289L246.097 264.34C247.058 264.491 247.767 265.298 247.716 266.307L244.933 270.443Z" fill="#F3ABC7"/>
<path d="M250.805 234.836C248.832 236.803 247.162 239.022 245.795 241.392C244.479 243.763 243.518 246.285 242.911 248.857C242.303 251.429 242.05 254.052 242.05 256.625C242.05 259.197 242.303 261.769 242.809 264.291C243.062 265.804 244.53 266.762 245.998 266.51C247.516 266.258 248.477 264.795 248.224 263.333C248.224 263.282 248.174 263.181 248.174 263.131C247.617 261.063 247.415 258.894 247.516 256.725C247.617 254.607 248.022 252.489 248.73 250.522C249.439 248.555 250.451 246.739 251.666 245.125C252.931 243.511 254.398 242.199 256.068 241.14C257.992 239.93 258.599 237.408 257.384 235.441C256.17 233.524 253.639 232.919 251.666 234.13C251.413 234.281 251.16 234.483 250.957 234.684L250.805 234.836Z" fill="#3176FF"/>
<path d="M261.23 269.036C263.153 273.878 264.621 278.821 265.582 283.915C266.544 289.009 266.999 294.254 266.898 299.5C266.746 310.092 264.671 320.784 261.787 331.376C261.331 333.142 262.344 334.907 264.064 335.411C265.684 335.865 267.404 334.957 268.012 333.444C270.036 328.148 271.858 322.751 273.376 317.254C274.894 311.706 276.058 306.006 276.716 300.156C277.374 294.305 277.475 288.353 276.969 282.402C276.463 276.45 275.299 270.549 273.68 264.849C272.667 261.369 269.024 259.352 265.532 260.361C262.04 261.369 260.016 265.001 261.028 268.481C261.078 268.632 261.129 268.834 261.23 269.036Z" fill="#0052AC"/>
<path d="M249.996 261.369L253.285 325.071C253.386 326.887 254.904 328.249 256.726 328.148C258.396 328.047 259.763 326.685 259.813 325.071L263.103 261.369C263.305 257.737 260.522 254.661 256.878 254.509C253.234 254.308 250.147 257.082 249.996 260.713C249.996 260.915 249.996 261.167 249.996 261.369Z" fill="#0052AC"/>
<path d="M257.484 269.689L266.239 272.11C270.439 273.27 273.83 270.849 273.83 266.663C273.83 262.477 270.439 258.139 266.239 256.979L257.484 254.558C253.284 253.398 249.893 255.819 249.893 260.005C249.893 264.192 253.284 268.529 257.484 269.689Z" fill="#0052AC"/>
<path d="M266.443 229.638C266.19 232.866 261.787 230.142 261.332 229.739C259.915 228.428 257.435 224.09 260.725 222.274C261.838 221.669 264.267 221.568 265.229 222.426C266.595 223.636 266.595 227.671 266.443 229.638Z" fill="#F3ABC7"/>
<path d="M265.227 231.205L259.103 225.304L258.799 237.207L264.316 236.955L263.506 231.457L265.227 231.205Z" fill="#F3ABC7"/>
<path d="M251.006 256.321C254.042 250.823 250.196 240.029 250.905 235.591C251.056 234.633 251.765 233.926 252.726 233.775C257.129 233.069 266.593 235.793 269.933 240.736C271.603 246.233 271.198 255.816 273.121 263.382C263.658 266.408 251.006 259.7 251.006 256.321Z" fill="#3176FF"/>
<path d="M290.684 217.182C290.987 217.233 291.19 217.485 291.139 217.787L290.937 219.502L291.696 218.241L293.366 216.678C293.568 216.476 293.872 216.476 294.074 216.728C294.277 216.93 294.277 217.233 294.074 217.434L292.758 218.897L292.607 219.25L294.226 218.695C294.479 218.544 294.833 218.645 294.985 218.897L295.744 220.259C295.845 220.461 295.795 220.713 295.643 220.864L294.884 221.671L294.226 222.73L292.809 224.748C292.404 225.353 291.544 225.504 290.937 225.05L289.722 224.193L289.418 223.941C288.609 223.335 288.356 222.629 288.811 221.368L290.076 217.434C290.177 217.283 290.43 217.132 290.684 217.182Z" fill="#F3ABC7"/>
<path d="M268.114 245.527C270.645 244.821 273.175 244.065 275.655 243.056C278.134 242.047 280.614 240.887 282.942 239.273C285.219 237.71 287.345 235.692 288.964 233.322C290.584 231.001 291.697 228.429 292.558 225.907C293.064 224.445 292.254 222.931 290.837 222.427C289.42 221.923 287.851 222.73 287.345 224.142C287.345 224.192 287.294 224.293 287.294 224.344C286.738 226.512 285.827 228.53 284.562 230.194C284.258 230.598 283.904 231.001 283.549 231.405C283.145 231.758 282.79 232.111 282.385 232.464C281.576 233.12 280.715 233.725 279.754 234.229C277.881 235.238 275.756 235.995 273.58 236.499C271.353 237.003 269.076 237.306 266.748 237.457H266.697C264.42 237.609 262.699 239.576 262.851 241.845C263.003 244.115 264.977 245.83 267.254 245.679C267.558 245.679 267.861 245.628 268.114 245.527Z" fill="#3176FF"/>
<path d="M241.243 233.676C242.306 232.768 243.774 232.516 245.14 232.466C246.557 232.415 247.923 232.567 249.29 232.314C250.656 232.062 252.073 231.356 252.579 230.045C253.085 228.935 252.832 227.573 253.237 226.413C253.743 224.951 255.211 223.992 256.729 223.69C256.881 223.639 257.033 223.639 257.185 223.589C257.286 222.782 257.64 221.975 258.197 221.319C260.272 218.999 262.903 218.343 265.687 218.242C269.786 218.091 272.721 220.865 265.383 223.841L263.764 224.144C265.737 228.027 259.816 227.069 259.715 229.339C259.614 231.81 269.634 235.038 267.559 241.191C265.535 247.345 253.085 247.9 249.391 246.992C245.697 246.084 242.205 243.865 240.484 240.485C239.928 239.376 239.523 238.165 239.573 236.904C239.776 235.744 240.282 234.483 241.243 233.676Z" fill="#00438D"/>
<path d="M214.34 386.749L229.126 379.381C230.233 378.829 231.221 378.79 231.933 379.144L236.321 381.351C236.4 381.39 236.439 381.39 236.519 381.43C237.191 381.824 237.586 382.533 237.586 383.597V398.333C237.586 400.5 235.807 403.14 233.633 404.243L218.847 411.611C217.74 412.163 216.751 412.202 216.04 411.847L211.652 409.641C211.572 409.602 211.533 409.602 211.493 409.562C210.821 409.168 210.426 408.459 210.426 407.395V392.659C210.426 390.453 212.166 387.813 214.34 386.749Z" fill="url(#paint13_linear_2476_77337)"/>
<path d="M218.847 411.571L233.633 404.203C235.807 403.1 237.586 400.46 237.586 398.293V383.557C237.586 381.39 235.807 380.484 233.633 381.587L218.847 388.955C216.672 390.058 214.893 392.698 214.893 394.865V409.601C214.893 411.768 216.672 412.675 218.847 411.571Z" fill="url(#paint14_linear_2476_77337)"/>
<path d="M247.992 369.966L262.778 362.598C263.885 362.046 264.873 362.007 265.585 362.361L269.973 364.568C270.052 364.607 270.092 364.607 270.171 364.647C270.843 365.041 271.238 365.75 271.238 366.814V381.55C271.238 383.717 269.459 386.357 267.285 387.46L252.499 394.828C251.392 395.38 250.404 395.419 249.692 395.065L245.304 392.858C245.225 392.819 245.185 392.819 245.146 392.779C244.474 392.385 244.078 391.676 244.078 390.612V375.876C244.039 373.709 245.778 371.069 247.992 369.966Z" fill="url(#paint15_linear_2476_77337)"/>
<path d="M252.458 394.826L267.244 387.458C269.418 386.355 271.197 383.715 271.197 381.548V366.812C271.197 364.645 269.418 363.739 267.244 364.842L252.458 372.21C250.284 373.313 248.505 375.953 248.505 378.12V392.856C248.505 395.023 250.284 395.89 252.458 394.826Z" fill="url(#paint16_linear_2476_77337)"/>
</g>
</g>
</g>
<defs>
<linearGradient id="paint0_linear_2476_77337" x1="431" y1="433.001" x2="211.562" y2="433.001" gradientUnits="userSpaceOnUse">
<stop stop-color="#E1E3F8"/>
<stop offset="0.5" stop-color="#D3D7F2"/>
<stop offset="1" stop-color="#F2F3FF"/>
</linearGradient>
<linearGradient id="paint1_linear_2476_77337" x1="433.197" y1="255.667" x2="213.382" y2="255.667" gradientUnits="userSpaceOnUse">
<stop stop-color="#E8EAFB"/>
<stop offset="1" stop-color="white"/>
</linearGradient>
<linearGradient id="paint2_linear_2476_77337" x1="431" y1="433.001" x2="211.562" y2="433.001" gradientUnits="userSpaceOnUse">
<stop stop-color="#E1E3F8"/>
<stop offset="0.5" stop-color="#D3D7F2"/>
<stop offset="1" stop-color="#F2F3FF"/>
</linearGradient>
<linearGradient id="paint3_linear_2476_77337" x1="433.197" y1="255.667" x2="213.382" y2="255.667" gradientUnits="userSpaceOnUse">
<stop stop-color="#E8EAFB"/>
<stop offset="1" stop-color="white"/>
</linearGradient>
<linearGradient id="paint4_linear_2476_77337" x1="364.287" y1="265.436" x2="277.14" y2="92.3829" gradientUnits="userSpaceOnUse">
<stop stop-color="#697BE0"/>
<stop offset="0.5769" stop-color="#7B94F8"/>
<stop offset="0.7279" stop-color="#B0C0FF"/>
<stop offset="1" stop-color="#BBC9FF"/>
</linearGradient>
<linearGradient id="paint5_linear_2476_77337" x1="319.796" y1="138.437" x2="263.882" y2="248.544" gradientUnits="userSpaceOnUse">
<stop stop-color="#C5D0F9"/>
<stop offset="1" stop-color="#E3E5F9"/>
</linearGradient>
<linearGradient id="paint6_linear_2476_77337" x1="315.101" y1="279.275" x2="236.6" y2="123.391" gradientUnits="userSpaceOnUse">
<stop stop-color="#90A4F2"/>
<stop offset="0.2721" stop-color="#AAB9F3"/>
<stop offset="0.4231" stop-color="#697DCF"/>
<stop offset="1" stop-color="#7D91E4"/>
</linearGradient>
<linearGradient id="paint7_linear_2476_77337" x1="379.16" y1="164.943" x2="336.763" y2="164.943" gradientUnits="userSpaceOnUse">
<stop stop-color="#1487FB"/>
<stop offset="1" stop-color="#22D2FD"/>
</linearGradient>
<linearGradient id="paint8_linear_2476_77337" x1="379.16" y1="164.943" x2="336.763" y2="164.943" gradientUnits="userSpaceOnUse">
<stop stop-color="#1487FB"/>
<stop offset="1" stop-color="#22D2FD"/>
</linearGradient>
<linearGradient id="paint9_linear_2476_77337" x1="377.391" y1="142.241" x2="351.918" y2="192.402" gradientUnits="userSpaceOnUse">
<stop stop-color="#C5D0F9"/>
<stop offset="1" stop-color="#E3E5F9"/>
</linearGradient>
<linearGradient id="paint10_linear_2476_77337" x1="370.702" y1="222.565" x2="347.59" y2="268.079" gradientUnits="userSpaceOnUse">
<stop stop-color="#C5D0F9"/>
<stop offset="1" stop-color="#E3E5F9"/>
</linearGradient>
<linearGradient id="paint11_linear_2476_77337" x1="375.46" y1="410.739" x2="409.129" y2="440.547" gradientUnits="userSpaceOnUse">
<stop stop-color="#0064D3"/>
<stop offset="1" stop-color="#017AFF" stop-opacity="0"/>
</linearGradient>
<linearGradient id="paint12_linear_2476_77337" x1="353.052" y1="321.112" x2="353.052" y2="398.225" gradientUnits="userSpaceOnUse">
<stop stop-color="#4B58DA"/>
<stop offset="0.527895" stop-color="#3640B3"/>
<stop offset="1" stop-color="#4C59DA"/>
</linearGradient>
<linearGradient id="paint13_linear_2476_77337" x1="212.894" y1="409.046" x2="234.944" y2="381.894" gradientUnits="userSpaceOnUse">
<stop stop-color="#2962D4"/>
<stop offset="1" stop-color="#3176FF"/>
</linearGradient>
<linearGradient id="paint14_linear_2476_77337" x1="226.24" y1="408.101" x2="226.24" y2="384.42" gradientUnits="userSpaceOnUse">
<stop stop-color="#3176FF"/>
<stop offset="1" stop-color="#66B3FF"/>
</linearGradient>
<linearGradient id="paint15_linear_2476_77337" x1="264.906" y1="365.358" x2="249.855" y2="393.123" gradientUnits="userSpaceOnUse">
<stop stop-color="#E1E3F8"/>
<stop offset="1" stop-color="#D3D7F2"/>
</linearGradient>
<linearGradient id="paint16_linear_2476_77337" x1="259.86" y1="395.075" x2="259.86" y2="367.953" gradientUnits="userSpaceOnUse">
<stop stop-color="#E8EAFB"/>
<stop offset="1" stop-color="white"/>
</linearGradient>
<clipPath id="clip0_2476_77337">
<rect width="590" height="454" fill="white"/>
</clipPath>
</defs>
</svg>
