<svg width="35" height="53" viewBox="0 0 35 53" fill="none" xmlns="http://www.w3.org/2000/svg">
<g clip-path="url(#clip0_2476_66294)">
<path d="M20.3423 49.5694L3.88648 39.9614C2.63943 39.2333 2.63418 37.4331 3.87696 36.6977L21.8682 26.0521C25.3822 23.9728 29.7643 24.0352 33.2177 26.2137L48.733 36.001C49.9283 36.755 49.9057 38.5056 48.6912 39.2284L31.3972 49.5227C27.995 51.5478 23.7615 51.5657 20.3423 49.5694Z" stroke="#017AFF" stroke-width="0.552083"/>
<path d="M22.8875 48.3214L7.1284 39.1262C6.43958 38.7243 6.43669 37.73 7.12315 37.3241L24.1902 27.2318C26.1294 26.0851 28.5473 26.1195 30.4531 27.321L45.4167 36.7542C46.077 37.1704 46.0645 38.1373 45.3937 38.5363L28.9877 48.2956C27.1102 49.4125 24.7744 49.4224 22.8875 48.3214Z" fill="#017AFF"/>
<path fill-rule="evenodd" clip-rule="evenodd" d="M10.9544 38.562L22.9748 45.4662C24.8436 46.5396 27.1441 46.5299 29.0039 45.4409L41.5686 38.0834C41.9014 37.8885 42.0741 37.5544 42.085 37.2155L42.0863 37.2155V34.9913L39.5471 35.0249L30.2114 29.2316C28.3227 28.0595 25.9413 28.0259 24.0202 29.1441L13.321 35.372L10.4277 35.4103V37.6715L10.4299 37.6714C10.4351 38.019 10.61 38.3642 10.9544 38.562Z" fill="#9CBDEE"/>
<path d="M22.9743 43.258L10.9539 36.3538C10.2568 35.9534 10.2539 34.9489 10.9487 34.5445L24.0197 26.9359C25.9408 25.8177 28.3223 25.8513 30.211 27.0234L41.5911 34.0855C42.2597 34.5004 42.2472 35.4775 41.5681 35.8752L29.0034 43.2327C27.1436 44.3217 24.8431 44.3314 22.9743 43.258Z" fill="#ECF4FF"/>
<ellipse opacity="0.4" cx="24.857" cy="34.082" rx="7.54816" ry="2.67227" transform="rotate(30 24.857 34.082)" fill="url(#paint0_radial_2476_66294)"/>
<path opacity="0.2" d="M10.9233 36.3594L22.9437 43.2636C24.8125 44.337 27.1131 44.3273 28.9728 43.2383L41.5376 35.8808C41.8704 35.6859 42.0431 35.3518 42.054 35.0129L42.055 35.0129V32.7887V7.17729L10.3989 7.1772L10.3965 33.2077V35.4689L10.3989 35.4689C10.404 35.8164 10.5789 36.1616 10.9233 36.3594Z" fill="url(#paint1_linear_2476_66294)"/>
<path fill-rule="evenodd" clip-rule="evenodd" d="M23.6554 10.2447V10.2356C21.4761 10.1106 19.959 11.7644 19.959 14.7032C19.959 15.8174 20.177 16.9986 20.5666 18.1663L20.5628 18.3018L20.6787 18.4889C21.3289 20.2885 22.3785 22.0378 23.6553 23.4389V28.8344C23.6553 29.7491 24.2975 30.8614 25.0896 31.3188L27.3619 32.6306C27.4654 32.6904 27.5664 32.7361 27.6638 32.7682L27.6537 33.3262L28.2692 32.7811C28.4305 32.7219 28.5625 32.6061 28.6541 32.4401L28.6564 32.4381L28.6563 32.436C28.746 32.2715 28.7962 32.0583 28.7962 31.8025V26.7938L29.193 26.4103C31.1577 26.323 32.4931 24.697 32.4931 21.9398C32.4931 19.0177 30.9932 15.6342 28.8339 13.245L28.8171 13.2061L28.8068 13.2151C28.8033 13.2112 28.7998 13.2074 28.7963 13.2035V13.2243L27.8806 14.023L28.7379 19.9543L26.2258 20.272L23.6554 16.9788V10.3112L23.6629 10.2382L23.6554 10.2447Z" fill="#3D8AFF"/>
<path fill-rule="evenodd" clip-rule="evenodd" d="M22.7255 11.0536L22.7255 17.7967L25.296 21.0899L27.8665 20.7649L27.8665 14.0213C30.046 16.4128 31.5634 19.8187 31.5634 22.7577C31.5634 25.6968 30.0461 27.3505 27.8666 27.2253L27.8666 32.6205C27.8666 33.5353 27.2244 33.906 26.4322 33.4487L24.16 32.1368C23.3678 31.6794 22.7257 30.5671 22.7257 29.6524L22.7257 24.257C20.5464 21.8656 19.0293 18.46 19.0293 15.5212C19.0293 12.5824 20.5464 10.9287 22.7255 11.0536Z" fill="url(#paint2_linear_2476_66294)"/>
<circle cx="34.2298" cy="33.4669" r="0.552083" fill="#017AFF"/>
<circle cx="19.3236" cy="29.6024" r="0.552083" fill="#017AFF"/>
<circle cx="16.5638" cy="23.5294" r="0.552083" fill="#017AFF"/>
<circle cx="20.9798" cy="35.1231" r="0.552083" fill="#017AFF"/>
<circle cx="17.1146" cy="16.9044" r="0.552083" fill="#017AFF"/>
<circle cx="34.2298" cy="22.9774" r="0.552083" fill="#017AFF"/>
<circle cx="32.5736" cy="11.9356" r="0.552083" fill="#017AFF"/>
<circle cx="32.2975" cy="30.4306" r="0.276042" fill="#017AFF"/>
<circle cx="27.3288" cy="7.79508" r="0.276042" fill="#017AFF"/>
<circle cx="19.0475" cy="9.45133" r="0.276042" fill="#017AFF"/>
<circle cx="35.0573" cy="12.7638" r="0.276042" fill="#017AFF"/>
<circle cx="14.0788" cy="26.5658" r="0.276042" fill="#017AFF"/>
<circle cx="16.8385" cy="32.6388" r="0.276042" fill="#017AFF"/>
</g>
<defs>
<radialGradient id="paint0_radial_2476_66294" cx="0" cy="0" r="1" gradientUnits="userSpaceOnUse" gradientTransform="translate(24.857 34.082) rotate(90) scale(2.67227 7.54816)">
<stop stop-color="#5DABFF"/>
<stop offset="1" stop-color="#60ACFF" stop-opacity="0"/>
</radialGradient>
<linearGradient id="paint1_linear_2476_66294" x1="26.2258" y1="7.17725" x2="26.2258" y2="44.0619" gradientUnits="userSpaceOnUse">
<stop stop-color="#017AFF" stop-opacity="0"/>
<stop offset="1" stop-color="#017AFF"/>
</linearGradient>
<linearGradient id="paint2_linear_2476_66294" x1="19.0293" y1="13.8036" x2="29.3812" y2="33.9743" gradientUnits="userSpaceOnUse">
<stop stop-color="#3D9AFF"/>
<stop offset="1" stop-color="#88C0FF"/>
</linearGradient>
<clipPath id="clip0_2476_66294">
<rect width="35" height="53" fill="white"/>
</clipPath>
</defs>
</svg>
