<svg width="35" height="53" viewBox="0 0 35 53" fill="none" xmlns="http://www.w3.org/2000/svg">
<g clip-path="url(#clip0_2476_66291)">
<path d="M20.3423 49.5132L3.88648 39.9052C2.63943 39.1771 2.63418 37.3769 3.87696 36.6416L21.8682 25.9959C25.3822 23.9167 29.7643 23.979 33.2177 26.1575L48.733 35.9448C49.9283 36.6989 49.9057 38.4494 48.6912 39.1723L31.3972 49.4665C27.995 51.4917 23.7615 51.5096 20.3423 49.5132Z" stroke="#017AFF" stroke-width="0.552083"/>
<path d="M22.8875 48.2652L7.1284 39.07C6.43958 38.6681 6.43669 37.6738 7.12315 37.2679L24.1902 27.1757C26.1294 26.0289 28.5473 26.0633 30.4531 27.2648L45.4167 36.6981C46.077 37.1143 46.0645 38.0812 45.3937 38.4802L28.9877 48.2395C27.1102 49.3564 24.7744 49.3662 22.8875 48.2652Z" fill="#017AFF"/>
<path fill-rule="evenodd" clip-rule="evenodd" d="M10.9544 38.5061L22.9748 45.4103C24.8436 46.4837 27.1441 46.474 29.0039 45.385L41.5686 38.0275C41.9014 37.8326 42.0741 37.4985 42.085 37.1596L42.0863 37.1596V34.9354L39.5471 34.969L30.2114 29.1757C28.3227 28.0036 25.9413 27.97 24.0202 29.0882L13.321 35.3161L10.4277 35.3544V37.6156L10.4299 37.6155C10.4351 37.963 10.61 38.3083 10.9544 38.5061Z" fill="#5FABFF"/>
<path d="M22.9743 43.2021L10.9539 36.2979C10.2568 35.8975 10.2539 34.8929 10.9487 34.4886L24.0197 26.88C25.9408 25.7617 28.3223 25.7954 30.211 26.9675L41.5911 34.0296C42.2597 34.4445 42.2472 35.4216 41.5681 35.8193L29.0034 43.1768C27.1436 44.2658 24.8431 44.2755 22.9743 43.2021Z" fill="white"/>
<ellipse opacity="0.56" cx="25.7511" cy="35.8069" rx="9.19083" ry="3.05742" transform="rotate(30 25.7511 35.8069)" fill="url(#paint0_radial_2476_66291)"/>
<path opacity="0.2" d="M10.9233 36.2857L22.9437 43.1899C24.8125 44.2632 27.1131 44.2536 28.9728 43.1646L41.5376 35.8071C41.8704 35.6122 42.0431 35.2781 42.054 34.9392L42.055 34.9392V32.715V7.10356L10.3989 7.10347L10.3965 33.134V35.3952L10.3989 35.3951C10.404 35.7426 10.5789 36.0879 10.9233 36.2857Z" fill="url(#paint1_linear_2476_66291)"/>
<circle cx="16.5638" cy="33.7137" r="0.552083" fill="#017AFF"/>
<circle cx="16.5638" cy="23.7762" r="0.552083" fill="#017AFF"/>
<circle cx="20.4271" cy="17.7035" r="0.552083" fill="#017AFF"/>
<circle cx="17.1146" cy="17.1512" r="0.552083" fill="#017AFF"/>
<circle cx="22.6361" cy="11.6305" r="0.552083" fill="#017AFF"/>
<circle cx="32.5736" cy="12.1825" r="0.552083" fill="#017AFF"/>
<circle cx="20.151" cy="22.3962" r="0.276042" fill="#017AFF"/>
<circle cx="27.3288" cy="8.04191" r="0.276042" fill="#017AFF"/>
<circle cx="19.0475" cy="9.69816" r="0.276042" fill="#017AFF"/>
<circle cx="35.0573" cy="13.0107" r="0.276042" fill="#017AFF"/>
<circle cx="14.0788" cy="26.8127" r="0.276042" fill="#017AFF"/>
<circle cx="19.0475" cy="36.1982" r="0.276042" fill="#017AFF"/>
<path fill-rule="evenodd" clip-rule="evenodd" d="M18.7252 9.86203L18.7581 9.84424L18.7639 9.85482C19.0524 9.81815 19.4828 10.1237 19.7792 10.6448L21.7814 14.1653L22.8236 13.9165C22.8253 13.765 22.8464 13.5867 22.9083 13.4271L22.5677 12.7146L23.771 11.9991L23.7819 12.0012C23.9072 11.938 24.0762 11.9507 24.2665 12.0606L24.3526 12.1103C24.353 12.1105 24.3534 12.1108 24.3538 12.111L24.5759 12.1536L24.2995 11.4463L25.3818 10.8278C25.4299 10.7838 25.4855 10.75 25.5474 10.7272C25.6755 10.6802 25.8529 10.7379 26.0205 10.8276L26.424 10.5928L26.4281 10.5993L27.0132 10.9371V11.4488C27.1116 11.4882 27.3461 11.5886 27.4961 11.6751C27.6835 11.7834 28.2914 12.4886 28.246 13.0659C28.2162 13.4434 28.0869 13.6427 27.9851 13.7997C27.9312 13.8827 27.885 13.9539 27.8653 14.0334C27.8085 14.263 27.8881 14.6041 28.0074 14.8501C28.1028 15.0469 28.3425 15.3126 28.4505 15.4208C28.3312 14.8796 28.6379 14.5844 29.064 14.8304L29.1475 14.8787C29.6024 15.1413 29.9371 15.8267 29.8292 16.2747L29.7458 16.6213C29.8632 16.7153 30.1548 17.0267 30.382 17.52C30.5969 17.9865 30.612 18.435 30.5906 18.6303L30.6007 18.6419L30.5883 18.6489C30.5878 18.6533 30.5872 18.6574 30.5866 18.6615L30.5765 18.6557L29.2836 19.3899L28.6063 18.6654C28.5905 19.1351 28.7917 19.6852 28.9106 19.9308C29.0186 19.9844 29.2674 20.1499 29.3992 20.3835C29.531 20.617 29.5678 20.9006 29.5696 21.0132L33.6817 18.6391C34.1181 18.3872 34.8704 19.0294 34.978 19.7931C35.0553 20.3415 34.8966 21.1762 34.8076 21.5249L35.4382 21.5352C35.9586 21.5436 36.5293 22.2096 36.4119 22.7959C36.3653 23.0282 36.2907 23.273 36.1767 23.5159C35.795 24.3293 34.9913 24.5042 34.6372 24.49L35.6927 25.0355C36.1489 25.2712 36.5201 25.8697 36.2991 26.2039C36.1626 26.4104 35.9391 26.6114 35.5859 26.7565C34.736 27.1055 33.7509 26.5892 33.3646 26.2874L33.9187 26.8612C34.3784 27.3371 34.5734 28.038 34.1651 28.1115L32.9534 28.8018L31.8093 28.2161C31.7691 28.4769 31.5797 28.6006 31.2683 28.4358C30.7229 28.1472 30.2798 27.7099 30.1264 27.5273C30.2002 27.6486 30.3514 27.9747 30.365 28.3079C30.3786 28.6412 30.2381 28.8863 30.1662 28.9672L31.4603 30.5565L31.7663 30.3902L31.9043 30.3103L31.9728 29.9218L33.228 29.2266C33.2443 29.2119 33.2634 29.2013 33.2846 29.1952L33.2974 29.1882C33.2994 29.1892 33.3014 29.1902 33.3034 29.1912C33.349 29.1841 33.4032 29.1961 33.4612 29.2296C33.6243 29.3238 33.7566 29.5529 33.7566 29.7413V30.0006C33.7865 30.1167 33.8104 30.2322 33.8297 30.3375C34.2315 30.744 34.9057 31.6468 34.8758 32.5325C34.844 33.4745 34.2414 33.5766 33.9441 33.5099L33.9043 33.6379L33.6259 34.1528C33.6121 34.1668 33.5938 34.1808 33.5715 34.1928L33.5712 34.194L32.2885 34.8919L32.1334 34.3213L29.4871 31.307L29.3444 31.3874C29.3046 31.4222 29.2584 31.4474 29.2075 31.4645L28.0085 32.1399L27.5751 31.9476C27.5122 31.9433 27.4484 31.9371 27.3878 31.9313H27.3878C27.2384 31.9168 27.1077 31.9042 27.0529 31.9257C26.9949 31.9485 26.9454 31.9893 26.9006 32.0263C26.8357 32.0799 26.7806 32.1254 26.7234 32.0963C26.6542 32.061 26.6083 32.0088 26.5125 31.8225L26.3749 32.1787L25.7566 30.7817C25.6367 30.6574 25.5239 30.532 25.4395 30.3972C25.2768 30.1374 25.2472 29.8307 25.2549 29.6481L25.1882 29.4974C25.1427 29.4638 25.0937 29.4289 25.0423 29.3923L25.0422 29.3923L25.0421 29.3922C24.6287 29.0977 24.0632 28.6949 23.9397 28.0094C23.8728 27.6382 23.9869 27.277 24.1053 27.0505L24.0188 26.8551L21.6874 26.5455C21.6953 26.5842 21.7023 26.6296 21.707 26.681C21.7207 26.8306 21.6029 26.9598 21.5423 27.0058L22.1541 28.4186C22.2339 28.6031 22.2105 28.772 22.1058 28.818L20.7713 29.5466C20.5572 29.0576 20.1246 28.0678 20.107 28.0211C20.0895 27.9744 20.0024 27.1013 19.9611 26.6706L20.5261 26.8119C20.4751 26.7429 20.4283 26.6587 20.389 26.5564C20.3624 26.4871 20.3429 26.4235 20.3293 26.3652L19.5106 26.2565L18.139 23.2284L16.6962 20.3607L18.0098 19.6201L18.5138 19.5277L19.3921 19.2672C19.3724 19.06 19.4137 18.8757 19.5115 18.7496L19.0473 17.8714C18.8021 17.6618 18.5396 17.4172 18.2889 17.1474C18.0337 16.8727 17.7854 16.4685 17.5636 16.0349C17.3224 15.5632 17.3437 15.1792 17.5239 14.9893L15.9434 11.9991L17.1404 11.3753C17.1714 11.3378 17.2085 11.3089 17.2507 11.2886L17.3662 10.5968L18.594 9.93296C18.6317 9.89767 18.676 9.87427 18.7252 9.86203Z" fill="#3D8AFF"/>
<path fill-rule="evenodd" clip-rule="evenodd" d="M22.5398 18.4984L18.4833 11.366C18.0191 10.5498 17.2259 10.2624 17.1648 10.9906C17.1576 11.0771 17.1536 11.1654 17.1536 11.2549C17.1536 11.9614 17.2621 12.6516 17.3163 12.9084L16.9235 12.4525C16.3219 11.7541 15.6097 11.8162 15.7634 12.6628C15.8304 13.0316 15.9344 13.4064 16.0911 13.7383C16.5339 14.6756 17.1365 15.6042 17.3825 15.9514L16.9681 15.7121C16.2735 15.3111 15.8215 15.8837 16.2677 16.756C16.4895 17.1897 16.7378 17.5939 16.9931 17.8686C17.6572 18.5834 18.404 19.1211 18.6944 19.3006L18.6162 19.2975C17.9577 19.2714 17.8903 20.2555 18.5774 20.9246C18.8718 21.2113 19.1739 21.4623 19.4529 21.6202C20.2892 22.0936 20.8263 22.2041 20.9903 22.2001L20.8249 22.3185C20.354 22.6557 20.6801 23.8786 21.3797 24.1647C21.7733 24.3257 21.9469 24.3146 21.9844 24.289C21.882 24.3916 21.6913 24.6926 21.7487 25.076C21.8061 25.4595 21.9298 25.6894 21.9844 25.7565L19.7911 25.7092C19.7478 25.6088 19.6272 25.3909 19.4908 25.3227C19.3545 25.2545 19.2219 25.2418 19.1727 25.244L18.3489 23.3383C18.4171 23.2338 18.5125 22.8862 18.3489 22.332C18.1853 21.7779 17.7126 21.5212 17.4968 21.4622L17.1526 20.6652C17.0633 20.4585 16.8822 20.3112 16.7474 20.3359C16.6145 20.3603 16.5758 20.5432 16.6604 20.7478L16.9911 21.5481C16.9078 21.7021 16.8037 22.1339 17.0536 22.6299C17.3036 23.1258 17.6691 23.3591 17.8206 23.4138L18.65 25.2899C18.5629 25.3424 18.425 25.5471 18.5705 25.9459C18.7159 26.3448 19.0325 26.5101 19.1727 26.5429C19.0685 26.5855 18.9068 26.7922 19.0931 27.2776C19.2795 27.763 19.6361 27.8403 19.7911 27.8183L20.3836 29.2246C20.468 29.4249 20.6425 29.5701 20.7743 29.5495C20.9086 29.5285 20.9464 29.3436 20.8582 29.1398L20.2464 27.7269C20.307 27.681 20.4248 27.5518 20.4111 27.4022C20.3975 27.2527 20.3638 27.154 20.3487 27.1234L22.9165 27.6023C22.7802 27.7729 22.556 28.2431 22.6438 28.7306C22.7673 29.4161 23.3328 29.8189 23.7462 30.1134C23.8273 30.1711 23.9026 30.2247 23.9675 30.2755C23.9448 30.4264 23.9482 30.8062 24.1436 31.1184C24.2518 31.2912 24.4067 31.4486 24.5635 31.6079C24.7609 31.8085 24.9613 32.012 25.0753 32.2533C25.2798 32.6863 25.331 32.7683 25.4275 32.8175C25.4847 32.8466 25.5398 32.8011 25.6047 32.7475C25.6496 32.7105 25.699 32.6697 25.757 32.6469C25.8118 32.6254 25.9425 32.638 26.0919 32.6525C26.3301 32.6754 26.6159 32.703 26.7171 32.6043C26.8489 32.4757 26.8516 32.1024 26.8364 31.9319C27.1641 32.1232 27.8795 32.4094 28.1204 32.0237C28.3613 31.638 28.0579 30.7762 27.8761 30.3936L30.5576 33.175C30.567 33.2832 30.6439 33.5541 30.8757 33.7719C31.1075 33.9897 31.3472 33.9436 31.4381 33.8933C31.4154 34.0332 31.4415 34.3938 31.7279 34.7166C32.0142 35.0393 32.2486 34.956 32.3301 34.874L32.6084 34.3591L32.6482 34.2311C32.9455 34.2978 33.5481 34.1957 33.5799 33.2537C33.6117 32.3117 32.847 31.3502 32.4607 30.9872L32.4607 30.4624C32.4607 30.2741 32.3285 30.045 32.1653 29.9508C32.0021 29.8566 31.8699 29.9329 31.8699 30.1213L31.8699 30.6461C31.6597 30.5904 31.1882 30.5648 30.9836 30.9085C30.7791 31.2523 30.7999 31.8477 30.8359 32.1024L28.8703 29.6884C28.9422 29.6075 29.0827 29.3623 29.0691 29.0291C29.0555 28.6959 28.9044 28.3698 28.8305 28.2485C28.9839 28.431 29.427 28.8684 29.9724 29.157C30.5348 29.4547 30.6993 28.8109 30.3056 28.1191L29.8304 27.2841C30.0974 27.622 30.8905 28.3816 31.9267 28.7175C32.3247 28.8465 32.6299 28.869 32.859 28.8344C33.2807 28.7708 33.0863 28.0623 32.6229 27.5824L32.0687 27.0086C32.455 27.3104 33.4401 27.8267 34.29 27.4777C34.6433 27.3326 34.8667 27.1316 35.0033 26.9251C35.2242 26.5909 34.853 25.9924 34.3968 25.7567L33.3413 25.2112C33.6954 25.2254 34.4991 25.0505 34.8809 24.2371C34.9948 23.9942 35.0695 23.7494 35.116 23.517C35.2334 22.9308 34.6627 22.2648 34.1424 22.2564L33.5117 22.2461C33.6007 21.8973 33.7594 21.0627 33.6822 20.5143C33.5746 19.7506 32.8222 19.1084 32.3859 19.3603L28.2738 21.7344C28.2719 21.6218 28.2351 21.3382 28.1033 21.1046C27.9715 20.8711 27.7227 20.7056 27.6148 20.652C27.4765 20.3666 27.2273 19.67 27.3364 19.1662C27.4455 18.6624 27.9348 18.6676 28.1658 18.7332L29.2907 19.3826C29.3172 19.2077 29.3134 18.7345 29.0862 18.2412C28.8589 17.7479 28.5673 17.4365 28.4499 17.3425L28.5333 16.9959C28.6412 16.5479 28.3066 15.8625 27.8516 15.5998L27.7681 15.5516C27.3421 15.3056 27.0353 15.6008 27.1546 16.142C27.0466 16.0338 26.8069 15.7681 26.7115 15.5713C26.5922 15.3253 26.5126 14.9842 26.5694 14.7546C26.5891 14.6751 26.6353 14.6039 26.6892 14.5209C26.791 14.3639 26.9203 14.1645 26.9501 13.787C26.9955 13.2098 26.3876 12.5046 26.2002 12.3963C26.0502 12.3097 25.8157 12.2093 25.7173 12.17L25.7173 11.6583L25.1264 11.3172L25.1264 11.8288C24.939 11.6638 24.5015 11.3566 24.2516 11.4484C23.9391 11.5632 23.7857 11.9601 23.9618 12.5275C24.0081 12.6767 24.0532 12.8029 24.0937 12.9163C24.2074 13.2345 24.2851 13.4518 24.2516 13.7903C24.2152 14.1577 23.8539 14.1729 23.6778 14.1347C23.7924 13.7262 23.4834 13.0778 23.0567 12.8315L22.9706 12.7818C22.4971 12.5084 22.1562 12.8366 22.289 13.4381L22.3769 13.8363C22.2181 13.7729 21.8559 13.7199 21.6777 14.0144C21.4994 14.309 21.5163 14.7354 21.547 14.9119L22.6689 15.5595C22.8917 15.7183 23.365 16.2162 23.4757 16.9372C23.5863 17.6582 23.3373 18.0145 23.199 18.1026C23.1054 18.0248 22.8757 17.903 22.7055 18.0381C22.5353 18.1732 22.5241 18.4013 22.5398 18.4984ZM24.8502 13.7819L25.9511 14.4175C25.9434 14.6061 25.9776 15.0958 26.1759 15.5457C26.3742 15.9957 26.6966 16.3899 26.833 16.5308C26.6371 16.5308 26.1863 16.5688 25.9511 16.7205C25.7159 16.8723 25.4957 17.6867 25.415 18.075C25.3997 17.7089 25.2652 16.7984 24.8502 16.0849C24.4351 15.3714 24.0893 14.9822 23.9682 14.8768C24.1565 14.8879 24.57 14.8422 24.7176 14.5707C24.8651 14.2991 24.8674 13.9316 24.8502 13.7819Z" fill="url(#paint2_linear_2476_66291)"/>
</g>
<defs>
<radialGradient id="paint0_radial_2476_66291" cx="0" cy="0" r="1" gradientUnits="userSpaceOnUse" gradientTransform="translate(25.7511 35.8069) rotate(90) scale(3.05742 9.19083)">
<stop stop-color="#479FFF" stop-opacity="0.36"/>
<stop offset="1" stop-color="#479FFF" stop-opacity="0"/>
</radialGradient>
<linearGradient id="paint1_linear_2476_66291" x1="26.2258" y1="7.10352" x2="26.2258" y2="43.9882" gradientUnits="userSpaceOnUse">
<stop stop-color="#017AFF" stop-opacity="0"/>
<stop offset="1" stop-color="#017AFF"/>
</linearGradient>
<linearGradient id="paint2_linear_2476_66291" x1="15.7422" y1="11.042" x2="20.0505" y2="37.1631" gradientUnits="userSpaceOnUse">
<stop stop-color="#3D9AFF"/>
<stop offset="1" stop-color="#88C0FF"/>
</linearGradient>
<clipPath id="clip0_2476_66291">
<rect width="35" height="53" fill="white"/>
</clipPath>
</defs>
</svg>
