<svg width="35" height="53" viewBox="0 0 35 53" fill="none" xmlns="http://www.w3.org/2000/svg">
<g clip-path="url(#clip0_2476_66292)">
<path d="M20.3423 50.0333L3.88648 40.4253C2.63943 39.6972 2.63418 37.897 3.87696 37.1616L21.8682 26.5159C25.3822 24.4367 29.7643 24.4991 33.2177 26.6775L48.733 36.4649C49.9283 37.2189 49.9057 38.9694 48.6912 39.6923L31.3972 49.9866C27.995 52.0117 23.7615 52.0296 20.3423 50.0333Z" stroke="#017AFF" stroke-width="0.552083"/>
<path d="M22.8875 48.7853L7.1284 39.5901C6.43958 39.1881 6.43669 38.1939 7.12315 37.7879L24.1902 27.6957C26.1294 26.549 28.5473 26.5834 30.4531 27.7848L45.4167 37.2181C46.077 37.6343 46.0645 38.6012 45.3937 39.0002L28.9877 48.7595C27.1102 49.8764 24.7744 49.8862 22.8875 48.7853Z" fill="#017AFF"/>
<path fill-rule="evenodd" clip-rule="evenodd" d="M10.9544 39.0261L22.9748 45.9303C24.8436 47.0037 27.1441 46.994 29.0039 45.905L41.5686 38.5475C41.9014 38.3526 42.0741 38.0185 42.085 37.6796L42.0863 37.6796V35.4554L39.5471 35.489L30.2114 29.6957C28.3227 28.5236 25.9413 28.49 24.0202 29.6082L13.321 35.8361L10.4277 35.8744V38.1356L10.4299 38.1356C10.4351 38.4831 10.61 38.8283 10.9544 39.0261Z" fill="#3796FF"/>
<path d="M22.9743 43.7221L10.9539 36.8179C10.2568 36.4175 10.2539 35.413 10.9487 35.0086L24.0197 27.4C25.9408 26.2818 28.3223 26.3154 30.211 27.4875L41.5911 34.5496C42.2597 34.9645 42.2472 35.9417 41.5681 36.3393L29.0034 43.6968C27.1436 44.7858 24.8431 44.7955 22.9743 43.7221Z" fill="white"/>
<g opacity="0.7">
<path d="M10.9546 36.8379L22.975 43.7421C24.8438 44.8155 27.1443 44.8059 29.0041 43.7168L41.5688 36.3593C41.9016 36.1644 42.0743 35.8303 42.0852 35.4914L42.0863 35.4914V33.2673V7.65581L10.4301 7.65571L10.4277 33.6862V35.9474L10.4301 35.9474C10.4353 36.2949 10.6102 36.6401 10.9546 36.8379Z" fill="url(#paint0_linear_2476_66292)"/>
<path d="M10.9546 36.8379L22.975 43.7421C24.8438 44.8155 27.1443 44.8059 29.0041 43.7168L41.5688 36.3593C41.9016 36.1644 42.0743 35.8303 42.0852 35.4914L42.0863 35.4914V33.2673V7.65581L10.4301 7.65571L10.4277 33.6862V35.9474L10.4301 35.9474C10.4353 36.2949 10.6102 36.6401 10.9546 36.8379Z" fill="url(#paint1_linear_2476_66292)"/>
</g>
<circle cx="16.5638" cy="34.2659" r="0.552083" fill="#017AFF"/>
<circle cx="16.5638" cy="24.3285" r="0.552083" fill="#017AFF"/>
<circle cx="20.4271" cy="18.2557" r="0.552083" fill="#017AFF"/>
<circle cx="17.1146" cy="17.7035" r="0.552083" fill="#017AFF"/>
<circle cx="22.6361" cy="12.1827" r="0.552083" fill="#017AFF"/>
<circle cx="32.5736" cy="12.7347" r="0.552083" fill="#017AFF"/>
<circle cx="20.151" cy="22.9484" r="0.276042" fill="#017AFF"/>
<circle cx="27.3288" cy="8.59416" r="0.276042" fill="#017AFF"/>
<circle cx="19.0475" cy="10.2504" r="0.276042" fill="#017AFF"/>
<circle cx="35.0573" cy="13.5629" r="0.276042" fill="#017AFF"/>
<circle cx="14.0788" cy="27.3649" r="0.276042" fill="#017AFF"/>
<circle cx="19.0475" cy="36.7504" r="0.276042" fill="#017AFF"/>
<ellipse opacity="0.4" cx="23.8995" cy="34.8798" rx="9.28644" ry="2.67227" transform="rotate(30 23.8995 34.8798)" fill="url(#paint2_radial_2476_66292)"/>
<path fill-rule="evenodd" clip-rule="evenodd" d="M32.7812 18.0902C32.7812 18.6097 32.63 19.0012 32.3757 19.2369L34.42 24.4933L37.928 26.7478V31.1777L37.9139 31.1695L36.6871 31.9483L35.5855 31.3L35.3472 31.8623L35.3388 31.8525L34.1038 32.6356L32.1047 28.6278L32.1481 28.1423L31.6328 27.5431L32.6268 24.9154L32.7944 24.4981L32.6562 24.1408L32.6289 24.0933L29.2991 18.8848L24.4236 18.8018L26.2963 25.0306L26.2489 25.0227C27.6715 26.2898 28.7177 28.3954 28.7177 30.1792V30.1794L29.8583 30.8379V32.7989L30.8153 33.3514V35.3126L30.8015 35.3047L29.5734 36.0801L28.831 34.6675V34.167L19.9249 29.025V28.8009C19.8774 28.8109 19.8423 28.8135 19.8254 28.8059C19.7402 28.7676 19.0591 28.3323 18.7292 28.1194L18.6973 27.8428L19.9249 27.1649V27.0638L20.0144 27.1155L20.1177 27.0585C19.9536 26.8388 19.7774 26.5999 19.6548 26.4326L20.8814 25.6679V25.6551L22.0222 26.3137V26.3135C22.0222 25.1318 22.4814 24.3391 23.2049 24.0478L21.8247 18.3945C21.1201 17.6427 20.6258 16.5512 20.6258 15.6118C20.6258 15.5229 20.6302 15.4378 20.6388 15.3565L19.8801 15.1753L21.0762 14.4259C21.4367 14.1309 21.9817 14.1249 22.5914 14.477C22.7355 14.5601 22.876 14.6592 23.0113 14.7712L28.2277 15.5363L28.3595 15.2508L29.2624 14.6673C29.622 14.3404 30.184 14.321 30.8155 14.6856C31.9011 15.3124 32.7812 16.8366 32.7812 18.0902ZM20.8814 27.476C20.836 27.4985 20.791 27.5203 20.7496 27.54L20.8814 27.6161V27.476ZM34.0957 26.6427L33.6556 27.8854L35.3818 29.7881L35.2457 28.6415L34.0957 26.6427ZM36.254 29.1309V27.5129L34.7388 26.3882L35.5021 28.2193L36.254 29.1309Z" fill="#9DCCFF"/>
<path fill-rule="evenodd" clip-rule="evenodd" d="M31.1402 20.0141C31.3945 19.7783 31.5457 19.3869 31.5457 18.8673C31.5457 17.6138 30.6657 16.0895 29.5801 15.4627C28.5517 14.869 27.7077 15.2937 27.6217 16.4058L21.7758 15.5484C21.6405 15.4363 21.5001 15.3373 21.356 15.2541C20.2704 14.6273 19.3903 15.1354 19.3903 16.389C19.3903 17.3284 19.8846 18.4198 20.5892 19.1716L21.9694 24.8249C21.2459 25.1163 20.7867 25.909 20.7867 27.0907L20.7867 27.0909L19.6459 26.4322L19.6459 28.3932L18.6895 27.841L18.6895 29.8022L29.5798 36.0898L29.5798 34.1286L28.6228 33.576L28.6228 31.6151L27.4823 30.9565L27.4823 30.9563C27.4823 29.1726 26.436 27.0669 25.0134 25.7998L25.0608 25.8077L23.1881 19.5789L29.1271 19.6801C29.2479 19.7827 29.3729 19.8749 29.5011 19.9548L31.5589 25.2753L31.3913 25.6925L30.3974 28.3203L34.1117 32.6394L34.722 31.1997L32.4202 28.6626L33.0654 26.8403L35.0185 28.2901L35.0185 30.9883L36.6925 31.9548L36.6925 27.5249L33.1845 25.2705L31.1402 20.0141Z" fill="url(#paint3_linear_2476_66292)"/>
</g>
<defs>
<linearGradient id="paint0_linear_2476_66292" x1="26.257" y1="7.65576" x2="26.257" y2="44.5404" gradientUnits="userSpaceOnUse">
<stop stop-color="white" stop-opacity="0"/>
<stop offset="1" stop-color="white" stop-opacity="0.67"/>
</linearGradient>
<linearGradient id="paint1_linear_2476_66292" x1="26.257" y1="7.65576" x2="26.257" y2="44.5404" gradientUnits="userSpaceOnUse">
<stop stop-color="#017AFF" stop-opacity="0"/>
<stop offset="1" stop-color="#017AFF"/>
</linearGradient>
<radialGradient id="paint2_radial_2476_66292" cx="0" cy="0" r="1" gradientUnits="userSpaceOnUse" gradientTransform="translate(23.8995 34.8798) rotate(90) scale(2.67227 9.28644)">
<stop stop-color="#5DABFF"/>
<stop offset="1" stop-color="#60ACFF" stop-opacity="0"/>
</radialGradient>
<linearGradient id="paint3_linear_2476_66292" x1="18.6895" y1="14.8628" x2="27.7695" y2="38.2683" gradientUnits="userSpaceOnUse">
<stop stop-color="#3C99FF"/>
<stop offset="1" stop-color="#87C0FF"/>
</linearGradient>
<clipPath id="clip0_2476_66292">
<rect width="35" height="53" fill="white"/>
</clipPath>
</defs>
</svg>
