<svg width="96" height="96" viewBox="0 0 96 96" fill="none" xmlns="http://www.w3.org/2000/svg">
<g clip-path="url(#clip0_2476_72794)">
<path d="M41.3398 93.2508L4.78101 71.9054C3.53397 71.1773 3.52872 69.3771 4.7715 68.6418L44.2521 45.2806C47.7661 43.2013 52.1482 43.2637 55.6016 45.4422L90.3879 67.3861C91.5832 68.1401 91.5606 69.8907 90.3462 70.6136L52.3946 93.2042C48.9925 95.2293 44.7589 95.2472 41.3398 93.2508Z" stroke="#017AFF"/>
<path d="M41.453 88.3656L12.9083 71.7102C11.6606 70.9822 11.6554 69.1812 12.8988 68.446L43.8126 50.1657C47.3253 48.0886 51.7047 48.1509 55.1568 50.3271L82.2607 67.4138C83.4567 68.1677 83.4341 69.919 82.219 70.6418L52.5025 88.319C49.1017 90.342 44.8708 90.3599 41.453 88.3656Z" fill="#017AFF"/>
<path fill-rule="evenodd" clip-rule="evenodd" d="M19.839 70.6882L41.6118 83.1939C44.9968 85.1382 49.1638 85.1207 52.5324 83.1482L75.2912 69.8213C75.8941 69.4683 76.2069 68.8631 76.2266 68.2493L76.2286 68.2493V64.2206L71.6296 64.2815L54.7198 53.7878C51.2987 51.6649 46.9851 51.6039 43.5054 53.6294L24.1257 64.9102L18.8848 64.9795V69.0752L18.8891 69.0752C18.8984 69.7046 19.2153 70.33 19.839 70.6882Z" fill="#3796FF"/>
<path d="M41.6115 79.194L19.8386 66.6883C18.5761 65.9631 18.5708 64.1435 19.8292 63.4111L43.5051 49.6295C46.9847 47.604 51.2983 47.665 54.7194 49.7879L75.3325 62.5797C76.5436 63.3312 76.5209 65.1012 75.2909 65.8214L52.5321 79.1483C49.1635 81.1208 44.9965 81.1383 41.6115 79.194Z" fill="white"/>
<g opacity="0.7">
<path d="M19.839 66.725L41.6118 79.2306C44.9968 81.1749 49.1638 81.1574 52.5324 79.1849L75.2912 65.8581C75.8941 65.505 76.2069 64.8999 76.2266 64.286L76.2286 64.286V60.2573V13.8668L18.8891 13.8666L18.8848 61.0163V65.112L18.8891 65.1119C18.8984 65.7413 19.2153 66.3667 19.839 66.725Z" fill="url(#paint0_linear_2476_72794)"/>
<path d="M19.839 66.725L41.6118 79.2306C44.9968 81.1749 49.1638 81.1574 52.5324 79.1849L75.2912 65.8581C75.8941 65.505 76.2069 64.8999 76.2266 64.286L76.2286 64.286V60.2573V13.8668L18.8891 13.8666L18.8848 61.0163V65.112L18.8891 65.1119C18.8984 65.7413 19.2153 66.3667 19.839 66.725Z" fill="url(#paint1_linear_2476_72794)"/>
</g>
<circle cx="66" cy="63.0664" r="1" fill="#017AFF"/>
<circle cx="30" cy="62.0664" r="1" fill="#017AFF"/>
<circle cx="30" cy="44.0664" r="1" fill="#017AFF"/>
<circle cx="37" cy="33.0664" r="1" fill="#017AFF"/>
<circle cx="31" cy="32.0664" r="1" fill="#017AFF"/>
<circle cx="41" cy="22.0664" r="1" fill="#017AFF"/>
<circle cx="59" cy="23.0664" r="1" fill="#017AFF"/>
<circle cx="72" cy="47.0664" r="1" fill="#017AFF"/>
<circle cx="70.5" cy="56.5664" r="0.5" fill="#017AFF"/>
<circle cx="36.5" cy="41.5664" r="0.5" fill="#017AFF"/>
<circle cx="49.5" cy="15.5664" r="0.5" fill="#017AFF"/>
<circle cx="34.5" cy="18.5664" r="0.5" fill="#017AFF"/>
<circle cx="63.5" cy="24.5664" r="0.5" fill="#017AFF"/>
<circle cx="70.5" cy="39.5664" r="0.5" fill="#017AFF"/>
<circle cx="25.5" cy="49.5664" r="0.5" fill="#017AFF"/>
<circle cx="34.5" cy="66.5664" r="0.5" fill="#017AFF"/>
<ellipse opacity="0.4" cx="43.2896" cy="63.1784" rx="16.8207" ry="4.84033" transform="rotate(30 43.2896 63.1784)" fill="url(#paint2_radial_2476_72794)"/>
<path fill-rule="evenodd" clip-rule="evenodd" d="M59.373 32.7667C59.373 33.7075 59.0993 34.4165 58.6388 34.8435L62.3416 44.364L68.6969 48.4483V56.4722L68.6711 56.4574L66.4486 57.8682L64.4537 56.6942L64.0221 57.7123L64.0065 57.6941L61.7686 59.1132L58.1477 51.8537L58.2265 50.973L57.2943 49.8889L59.0947 45.1293L59.3978 44.3745L59.1464 43.7246L59.0979 43.6403L53.0667 34.2061L44.2352 34.0556L47.6273 45.338L47.5416 45.3238C50.1184 47.6188 52.0136 51.4329 52.0136 54.6639V54.664L54.0797 55.8569V59.4092L55.8127 60.4097V63.9621L55.7879 63.9477L53.5634 65.3523L52.2187 62.7935V61.8871L36.0867 52.5732V52.1673C36.0008 52.1853 35.9373 52.1901 35.9067 52.1763C35.7524 52.1069 34.5187 51.3185 33.9211 50.9329L33.8633 50.4318L36.0867 49.2042V49.0209L36.2489 49.1146L36.4366 49.011C36.1393 48.6131 35.8202 48.1804 35.5982 47.8776L37.8196 46.4926V46.4691L39.8858 47.662V47.6619C39.8858 45.5216 40.7174 44.0858 42.0278 43.558L39.5276 33.3178C38.2515 31.956 37.3564 29.9791 37.3564 28.2777C37.3564 28.1166 37.3644 27.9624 37.38 27.8152L36.0059 27.487L38.1722 26.1297C38.8253 25.5953 39.8123 25.5844 40.9168 26.2221C41.1777 26.3728 41.4321 26.5521 41.6771 26.755L51.126 28.1409L51.3648 27.6236L52.9975 26.5685C53.6488 25.9748 54.6676 25.9388 55.8127 26.5999C57.779 27.7352 59.373 30.4961 59.373 32.7667ZM37.8196 49.7677C37.7374 49.8083 37.6559 49.848 37.5808 49.8835L37.8196 50.0214V49.7677ZM61.7551 48.2586L60.9582 50.509L64.0844 53.9546L63.8379 51.8786L61.7551 48.2586ZM65.6646 52.7656V49.8342L62.9193 47.7964L64.3023 51.1138L65.6646 52.7656Z" fill="#9DCCFF"/>
<path fill-rule="evenodd" clip-rule="evenodd" d="M56.4018 36.2511C56.8623 35.8241 57.136 35.1151 57.136 34.1742C57.136 31.9037 55.5419 29.1427 53.5756 28.0075C51.7128 26.932 50.1842 27.7013 50.0283 29.7156L39.4401 28.1626C39.1951 27.9596 38.9407 27.7803 38.6797 27.6297C36.7134 26.4944 35.1193 27.4147 35.1193 29.6852C35.1193 31.3867 36.0144 33.3635 37.2906 34.7253L39.7908 44.9655C38.4803 45.4933 37.6487 46.9292 37.6487 49.0694L37.6487 49.0696L35.5825 47.8767L35.5825 51.4289L33.8496 50.4284L33.8496 53.9808L53.5756 65.3696L53.5756 61.8172L51.8427 60.8167L51.8427 57.2645L49.7765 56.0715L49.7765 56.0714C49.7765 52.8404 47.8813 49.0264 45.3045 46.7313L45.3902 46.7456L41.9981 35.4632L52.7551 35.6464C52.974 35.8324 53.2007 35.9996 53.4331 36.1443L57.1607 45.7821L56.8576 46.5368L55.0572 51.2965L61.785 59.1198L62.8905 56.512L58.7212 51.9165L59.8899 48.6158L63.4275 51.2418L63.4275 56.1291L66.4598 57.8798L66.4598 49.8558L60.1045 45.7716L56.4018 36.2511Z" fill="url(#paint3_linear_2476_72794)"/>
</g>
<defs>
<linearGradient id="paint0_linear_2476_72794" x1="47.5567" y1="13.8667" x2="47.5567" y2="80.6766" gradientUnits="userSpaceOnUse">
<stop stop-color="white" stop-opacity="0"/>
<stop offset="1" stop-color="white" stop-opacity="0.67"/>
</linearGradient>
<linearGradient id="paint1_linear_2476_72794" x1="47.5567" y1="13.8667" x2="47.5567" y2="80.6767" gradientUnits="userSpaceOnUse">
<stop stop-color="#017AFF" stop-opacity="0"/>
<stop offset="1" stop-color="#017AFF"/>
</linearGradient>
<radialGradient id="paint2_radial_2476_72794" cx="0" cy="0" r="1" gradientUnits="userSpaceOnUse" gradientTransform="translate(43.2896 63.1784) rotate(90) scale(4.84033 16.8207)">
<stop stop-color="#5DABFF"/>
<stop offset="1" stop-color="#60ACFF" stop-opacity="0"/>
</radialGradient>
<linearGradient id="paint3_linear_2476_72794" x1="33.8496" y1="26.9209" x2="50.2954" y2="69.3164" gradientUnits="userSpaceOnUse">
<stop stop-color="#3C99FF"/>
<stop offset="1" stop-color="#87C0FF"/>
</linearGradient>
<clipPath id="clip0_2476_72794">
<rect width="96" height="96" fill="white"/>
</clipPath>
</defs>
</svg>
