<svg width="35" height="53" viewBox="0 0 35 53" fill="none" xmlns="http://www.w3.org/2000/svg">
<g clip-path="url(#clip0_2476_66290)">
<path d="M20.3423 50.0335L3.88648 40.4255C2.63943 39.6974 2.63418 37.8972 3.87696 37.1618L21.8682 26.5162C25.3822 24.4369 29.7643 24.4993 33.2177 26.6778L48.733 36.4651C49.9283 37.2191 49.9057 38.9697 48.6912 39.6925L31.3972 49.9868C27.995 52.0119 23.7615 52.0298 20.3423 50.0335Z" stroke="#017AFF" stroke-width="0.552083"/>
<path d="M22.8875 48.7855L7.1284 39.5903C6.43958 39.1884 6.43669 38.1941 7.12315 37.7882L24.1902 27.6959C26.1294 26.5492 28.5473 26.5836 30.4531 27.7851L45.4167 37.2183C46.077 37.6346 46.0645 38.6014 45.3937 39.0005L28.9877 48.7597C27.1102 49.8766 24.7744 49.8865 22.8875 48.7855Z" fill="#017AFF"/>
<path fill-rule="evenodd" clip-rule="evenodd" d="M10.9544 39.0261L22.9748 45.9303C24.8436 47.0037 27.1441 46.994 29.0039 45.905L41.5686 38.5475C41.9014 38.3526 42.0741 38.0185 42.085 37.6796L42.0863 37.6796V35.4554L39.5471 35.489L30.2114 29.6957C28.3227 28.5236 25.9413 28.49 24.0202 29.6082L13.321 35.8361L10.4277 35.8744V38.1356L10.4299 38.1356C10.4351 38.4831 10.61 38.8283 10.9544 39.0261Z" fill="#9CBDEE"/>
<path d="M22.9743 43.7221L10.9539 36.8179C10.2568 36.4175 10.2539 35.413 10.9487 35.0086L24.0197 27.4C25.9408 26.2818 28.3223 26.3154 30.211 27.4875L41.5911 34.5496C42.2597 34.9645 42.2472 35.9417 41.5681 36.3393L29.0034 43.6968C27.1436 44.7858 24.8431 44.7955 22.9743 43.7221Z" fill="#ECF4FF"/>
<ellipse opacity="0.67" cx="25.9594" cy="35.3872" rx="6.47693" ry="3.05742" transform="rotate(30 25.9594 35.3872)" fill="url(#paint0_radial_2476_66290)"/>
<path opacity="0.2" d="M10.9546 36.8379L22.975 43.7421C24.8438 44.8155 27.1443 44.8059 29.0041 43.7168L41.5688 36.3593C41.9016 36.1644 42.0743 35.8303 42.0852 35.4914L42.0863 35.4914V33.2673V7.65581L10.4301 7.65571L10.4277 33.6862V35.9474L10.4301 35.9474C10.4353 36.2949 10.6102 36.6401 10.9546 36.8379Z" fill="url(#paint1_linear_2476_66290)"/>
<circle cx="16.5638" cy="34.2659" r="0.552083" fill="#017AFF"/>
<circle cx="16.5638" cy="24.3285" r="0.552083" fill="#017AFF"/>
<circle cx="20.4271" cy="18.2557" r="0.552083" fill="#017AFF"/>
<circle cx="17.1146" cy="17.7035" r="0.552083" fill="#017AFF"/>
<circle cx="22.6361" cy="12.1827" r="0.552083" fill="#017AFF"/>
<circle cx="32.5736" cy="12.7347" r="0.552083" fill="#017AFF"/>
<circle cx="20.151" cy="22.9484" r="0.276042" fill="#017AFF"/>
<circle cx="27.3288" cy="8.59416" r="0.276042" fill="#017AFF"/>
<circle cx="19.0475" cy="10.2504" r="0.276042" fill="#017AFF"/>
<circle cx="35.0573" cy="13.5629" r="0.276042" fill="#017AFF"/>
<circle cx="14.0788" cy="27.3649" r="0.276042" fill="#017AFF"/>
<circle cx="19.0475" cy="36.7504" r="0.276042" fill="#017AFF"/>
<path fill-rule="evenodd" clip-rule="evenodd" d="M21.1983 14.1869L21.2016 14.1848L21.2223 14.1916L26.7763 15.2842L32.5145 20.7481V29.4124C32.5098 29.4358 32.505 29.4598 32.5 29.4845C32.3455 30.2583 32.0628 31.6744 30.2741 32.0872C28.8476 32.4164 27.6513 32.3394 26.9364 32.0872C25.9762 31.3785 24.7437 30.1587 23.0673 27.652C21.7275 25.6484 21.3978 24.185 21.2498 23.528C21.23 23.4402 21.2135 23.3669 21.1982 23.3085V15.8924L19.9355 14.9839L21.1982 14.1869V14.1868L21.1983 14.1869Z" fill="#3D8AFF"/>
<path d="M25.5117 16.0822L19.9336 14.9849V24.1066C20.0631 24.6019 20.284 26.1789 21.8027 28.45C23.479 30.9567 24.7116 32.1765 25.6717 32.8852C26.3866 33.1375 27.5829 33.2144 29.0095 32.8852C30.8553 32.4592 31.0974 30.9649 31.2498 30.2105V21.5461L25.5117 16.0822Z" fill="url(#paint2_linear_2476_66290)"/>
</g>
<defs>
<radialGradient id="paint0_radial_2476_66290" cx="0" cy="0" r="1" gradientUnits="userSpaceOnUse" gradientTransform="translate(25.9594 35.3872) rotate(90) scale(3.05742 6.47693)">
<stop stop-color="#479FFF" stop-opacity="0.36"/>
<stop offset="1" stop-color="#479FFF" stop-opacity="0"/>
</radialGradient>
<linearGradient id="paint1_linear_2476_66290" x1="26.257" y1="7.65576" x2="26.257" y2="44.5404" gradientUnits="userSpaceOnUse">
<stop stop-color="#017AFF" stop-opacity="0"/>
<stop offset="1" stop-color="#017AFF"/>
</linearGradient>
<linearGradient id="paint2_linear_2476_66290" x1="19.9336" y1="19.3542" x2="31.2975" y2="29.871" gradientUnits="userSpaceOnUse">
<stop stop-color="#3D9AFF"/>
<stop offset="1" stop-color="#88C0FF"/>
</linearGradient>
<clipPath id="clip0_2476_66290">
<rect width="35" height="53" fill="white"/>
</clipPath>
</defs>
</svg>
