<svg width="96" height="96" viewBox="0 0 96 96" fill="none" xmlns="http://www.w3.org/2000/svg">
<path d="M41.3398 92.411L4.78101 71.0656C3.53397 70.3375 3.52872 68.5373 4.7715 67.8019L44.2521 44.4408C47.7661 42.3615 52.1482 42.4239 55.6016 44.6023L90.3879 66.5463C91.5832 67.3003 91.5606 69.0508 90.3462 69.7737L52.3946 92.3643C48.9925 94.3894 44.7589 94.4073 41.3398 92.411Z" stroke="#017AFF"/>
<path d="M41.453 87.5258L12.9083 70.8703C11.6606 70.1423 11.6554 68.3414 12.8988 67.6061L43.8126 49.3258C47.3253 47.2487 51.7047 47.311 55.1568 49.4873L82.2607 66.5739C83.4567 67.3279 83.4341 69.0792 82.219 69.8019L52.5025 87.4791C49.1017 89.5022 44.8708 89.52 41.453 87.5258Z" fill="#017AFF"/>
<path fill-rule="evenodd" clip-rule="evenodd" d="M19.839 69.8484L41.6118 82.3541C44.9968 84.2983 49.1638 84.2809 52.5324 82.3083L75.2912 68.9815C75.8941 68.6285 76.2069 68.0233 76.2266 67.4094L76.2286 67.4094V63.3808L71.6296 63.4416L54.7198 52.948C51.2987 50.825 46.9851 50.7641 43.5054 52.7896L24.1257 64.0703L18.8848 64.1397V68.2354L18.8891 68.2353C18.8984 68.8648 19.2153 69.4901 19.839 69.8484Z" fill="#9CBDEE"/>
<path d="M41.6115 78.3542L19.8386 65.8485C18.5761 65.1233 18.5708 63.3037 19.8292 62.5712L43.5051 48.7897C46.9847 46.7642 51.2983 46.8251 54.7194 48.9481L75.3325 61.7398C76.5436 62.4914 76.5209 64.2613 75.2909 64.9816L52.5321 78.3084C49.1635 80.281 44.9965 80.2984 41.6115 78.3542Z" fill="#ECF4FF"/>
<ellipse opacity="0.4" cx="45.0218" cy="61.7334" rx="13.6721" ry="4.84033" transform="rotate(30 45.0218 61.7334)" fill="url(#paint0_radial_2476_76850)"/>
<g opacity="0.2">
<path d="M19.7824 65.8583L41.5552 78.3639C44.9402 80.3082 49.1072 80.2907 52.4758 78.3182L75.2346 64.9914C75.8375 64.6383 76.1503 64.0332 76.17 63.4193L76.1719 63.4193V59.3906V13.0001L18.8325 12.9999L18.8281 60.1496V64.2453L18.8325 64.2452C18.8417 64.8746 19.1586 65.5 19.7824 65.8583Z" fill="url(#paint1_linear_2476_76850)"/>
<path d="M19.7824 65.8583L41.5552 78.3639C44.9402 80.3082 49.1072 80.2907 52.4758 78.3182L75.2346 64.9914C75.8375 64.6383 76.1503 64.0332 76.17 63.4193L76.1719 63.4193V59.3906V13.0001L18.8325 12.9999L18.8281 60.1496V64.2453L18.8325 64.2452C18.8417 64.8746 19.1586 65.5 19.7824 65.8583Z" fill="url(#paint2_linear_2476_76850)"/>
</g>
<path fill-rule="evenodd" clip-rule="evenodd" d="M42.8441 18.5558V18.5396C38.8966 18.313 36.1484 21.3085 36.1484 26.6318C36.1484 28.6499 36.5434 30.7895 37.2489 32.9044L37.2421 33.1502L37.4523 33.4896C38.6302 36.7492 40.5313 39.9177 42.8441 42.4556L42.8441 52.228C42.8441 53.8849 44.0073 55.8996 45.4422 56.728L49.5579 59.1043C49.7453 59.2125 49.9281 59.2951 50.1043 59.3532L50.086 60.3642L51.2005 59.3771C51.4933 59.2699 51.733 59.0597 51.899 58.7584L51.9022 58.7556L51.9021 58.7528C52.0649 58.4547 52.156 58.0681 52.156 57.6043V48.5314L52.8743 47.8371C56.4329 47.679 58.8517 44.7337 58.8517 39.7396C58.8517 34.4466 56.1348 28.3179 52.2236 23.9902L52.1933 23.9203L52.1748 23.9364C52.1685 23.9296 52.1623 23.9227 52.156 23.9158V23.9528L50.4971 25.4L52.0498 36.1434L47.5001 36.7188L42.8441 30.7537L42.8441 18.6727L42.8574 18.5444L42.8441 18.5558Z" fill="#3D8AFF"/>
<path fill-rule="evenodd" clip-rule="evenodd" d="M41.1605 20.0213L41.1605 32.2354L45.8165 38.2005L50.4724 37.6116L50.4724 25.3975C54.4199 29.7291 57.1681 35.8979 57.1681 41.2213C57.1681 46.5446 54.4199 49.5401 50.4724 49.3135L50.4724 59.086C50.4724 60.7428 49.3092 61.4144 47.8743 60.586L43.7586 58.2097C42.3237 57.3813 41.1605 55.3666 41.1605 53.7097L41.1605 43.9373C37.213 39.6057 34.4648 33.4369 34.4648 28.1135C34.4648 22.7902 37.213 19.7947 41.1605 20.0213Z" fill="url(#paint3_linear_2476_76850)"/>
<circle cx="62" cy="60.6196" r="1" fill="#017AFF"/>
<circle cx="35" cy="53.6196" r="1" fill="#017AFF"/>
<circle cx="30" cy="42.6196" r="1" fill="#017AFF"/>
<circle cx="38" cy="63.6196" r="1" fill="#017AFF"/>
<circle cx="31" cy="30.6196" r="1" fill="#017AFF"/>
<circle cx="62" cy="41.6196" r="1" fill="#017AFF"/>
<circle cx="59" cy="21.6196" r="1" fill="#017AFF"/>
<circle cx="69" cy="46.6196" r="1" fill="#017AFF"/>
<circle cx="65.5" cy="54.1196" r="0.5" fill="#017AFF"/>
<circle cx="66.5" cy="32.1196" r="0.5" fill="#017AFF"/>
<circle cx="58.5" cy="55.1196" r="0.5" fill="#017AFF"/>
<circle cx="49.5" cy="14.1196" r="0.5" fill="#017AFF"/>
<circle cx="34.5" cy="17.1196" r="0.5" fill="#017AFF"/>
<circle cx="63.5" cy="23.1196" r="0.5" fill="#017AFF"/>
<circle cx="70.5" cy="38.1196" r="0.5" fill="#017AFF"/>
<circle cx="25.5" cy="48.1196" r="0.5" fill="#017AFF"/>
<circle cx="30.5" cy="59.1196" r="0.5" fill="#017AFF"/>
<defs>
<radialGradient id="paint0_radial_2476_76850" cx="0" cy="0" r="1" gradientUnits="userSpaceOnUse" gradientTransform="translate(45.0218 61.7334) rotate(90) scale(4.84033 13.6721)">
<stop stop-color="#5DABFF"/>
<stop offset="1" stop-color="#60ACFF" stop-opacity="0"/>
</radialGradient>
<linearGradient id="paint1_linear_2476_76850" x1="47.5" y1="13" x2="47.5" y2="79.8099" gradientUnits="userSpaceOnUse">
<stop stop-color="white" stop-opacity="0"/>
<stop offset="1" stop-color="white" stop-opacity="0.67"/>
</linearGradient>
<linearGradient id="paint2_linear_2476_76850" x1="47.5" y1="13" x2="47.5" y2="79.81" gradientUnits="userSpaceOnUse">
<stop stop-color="#017AFF" stop-opacity="0"/>
<stop offset="1" stop-color="#017AFF"/>
</linearGradient>
<linearGradient id="paint3_linear_2476_76850" x1="34.4648" y1="25.0027" x2="53.2149" y2="61.5382" gradientUnits="userSpaceOnUse">
<stop stop-color="#3D9AFF"/>
<stop offset="1" stop-color="#88C0FF"/>
</linearGradient>
</defs>
</svg>
