<svg width="590" height="454" viewBox="0 0 590 454" fill="none" xmlns="http://www.w3.org/2000/svg">
<g clip-path="url(#clip0_2928_60687)">
<g opacity="0.2">
<mask id="mask0_2928_60687" style="mask-type:alpha" maskUnits="userSpaceOnUse" x="28" y="40" width="417" height="509">
<rect x="28.944" y="40.6042" width="414.453" height="507.792" fill="white" stroke="white" stroke-width="1.20832"/>
</mask>
<g mask="url(#mask0_2928_60687)">
<path opacity="0.3" d="M364.819 181.985H324.863L442.74 251.919C448.026 255.092 448.026 262.988 442.74 266.089L324.863 336.024H364.819C368.732 336.024 372.508 334.967 375.872 332.993L485.236 268.134C492.033 264.116 492.033 253.964 485.236 249.945L375.872 185.087C372.508 183.042 368.732 181.985 364.819 181.985Z" fill="url(#paint0_linear_2928_60687)"/>
<path d="M453.3 264.082C453.101 261.062 450.846 257.975 446.668 255.492L344.802 196.036C336.711 191.339 324.508 190.802 317.544 194.896L211.765 256.768C208.449 258.714 206.924 261.331 207.057 264.082C207.256 267.102 209.511 270.189 213.689 272.672L315.555 332.128C323.646 336.825 335.849 337.362 342.812 333.269L448.591 271.397C451.973 269.518 453.499 266.833 453.3 264.082Z" fill="#BCC0E5"/>
<path d="M453.302 262.747L453.302 245.305L411.985 265.638L344.804 226.381C336.713 221.684 324.51 221.147 317.546 225.241L248.508 265.638L207.125 245.305L207.125 262.009C207.125 262.278 207.125 262.546 207.125 262.747C207.324 265.767 209.579 268.854 213.757 271.337L315.623 330.793C319.801 333.209 325.107 334.551 330.213 334.685C334.922 334.819 339.498 333.88 342.88 331.934L448.659 270.062C451.975 268.116 453.501 265.499 453.302 262.747Z" fill="url(#paint1_linear_2928_60687)"/>
<path d="M453.3 245.306C453.101 242.286 450.846 239.199 446.668 236.716L344.802 177.26C336.711 172.563 324.508 172.026 317.544 176.119L211.765 237.991C208.449 239.937 206.924 242.555 207.057 245.306C207.256 248.326 209.511 251.413 213.689 253.896L315.555 313.352C323.646 318.049 335.849 318.586 342.812 314.492L448.591 252.621C451.973 250.674 453.499 248.057 453.3 245.306Z" fill="white"/>
<path d="M453.3 244.098C453.101 241.078 450.846 237.991 446.668 235.508L344.802 176.052C336.711 171.355 324.508 170.818 317.544 174.911L211.765 236.783C208.449 238.729 206.924 241.346 207.057 244.098C207.256 247.117 209.511 250.204 213.689 252.687L315.555 312.143C323.646 316.841 335.849 317.378 342.812 313.284L448.591 251.412C451.973 249.466 453.499 246.782 453.3 244.098Z" fill="url(#paint2_linear_2928_60687)"/>
<g opacity="0.2">
<path opacity="0.2" d="M253.879 243.092C254.542 243.494 254.542 244.098 253.879 244.501C253.216 244.904 252.155 244.904 251.492 244.501C250.828 244.098 250.828 243.494 251.492 243.092C252.155 242.689 253.216 242.689 253.879 243.092Z" fill="white"/>
<path opacity="0.2" d="M266.678 235.644C267.341 236.046 267.341 236.65 266.678 237.053C266.015 237.455 264.954 237.455 264.29 237.053C263.627 236.65 263.627 236.046 264.29 235.644C264.954 235.241 266.015 235.241 266.678 235.644Z" fill="white"/>
<path opacity="0.2" d="M279.479 228.127C280.142 228.53 280.142 229.134 279.479 229.536C278.815 229.939 277.754 229.939 277.091 229.536C276.428 229.134 276.428 228.53 277.091 228.127C277.754 227.725 278.815 227.725 279.479 228.127Z" fill="white"/>
<path opacity="0.2" d="M292.344 220.679C293.007 221.082 293.007 221.686 292.344 222.088C291.681 222.491 290.62 222.491 289.956 222.088C289.293 221.686 289.293 221.082 289.956 220.679C290.553 220.276 291.681 220.276 292.344 220.679Z" fill="white"/>
<path opacity="0.2" d="M266.678 250.608C267.341 251.011 267.341 251.615 266.678 252.018C266.015 252.42 264.954 252.42 264.29 252.018C263.627 251.615 263.627 251.011 264.29 250.608C264.954 250.206 266.015 250.206 266.678 250.608Z" fill="white"/>
<path opacity="0.2" d="M279.479 243.092C280.142 243.494 280.142 244.098 279.479 244.501C278.815 244.904 277.754 244.904 277.091 244.501C276.428 244.098 276.428 243.494 277.091 243.092C277.754 242.689 278.815 242.689 279.479 243.092Z" fill="white"/>
<path opacity="0.2" d="M292.344 235.644C293.007 236.046 293.007 236.65 292.344 237.053C291.681 237.455 290.62 237.455 289.956 237.053C289.293 236.65 289.293 236.046 289.956 235.644C290.553 235.241 291.681 235.241 292.344 235.644Z" fill="white"/>
<path opacity="0.2" d="M305.143 228.127C305.806 228.53 305.806 229.134 305.143 229.536C304.48 229.939 303.418 229.939 302.755 229.536C302.092 229.134 302.092 228.53 302.755 228.127C303.418 227.725 304.48 227.725 305.143 228.127Z" fill="white"/>
<path opacity="0.2" d="M279.479 258.058C280.142 258.461 280.142 259.065 279.479 259.468C278.815 259.87 277.754 259.87 277.091 259.468C276.428 259.065 276.428 258.461 277.091 258.058C277.754 257.723 278.815 257.723 279.479 258.058Z" fill="white"/>
<path opacity="0.2" d="M292.344 250.608C293.007 251.011 293.007 251.615 292.344 252.018C291.681 252.42 290.62 252.42 289.956 252.018C289.293 251.615 289.293 251.011 289.956 250.608C290.62 250.206 291.681 250.206 292.344 250.608Z" fill="white"/>
<path opacity="0.2" d="M305.143 243.092C305.806 243.494 305.806 244.098 305.143 244.501C304.48 244.904 303.418 244.904 302.755 244.501C302.092 244.098 302.092 243.494 302.755 243.092C303.418 242.689 304.48 242.689 305.143 243.092Z" fill="white"/>
<path opacity="0.2" d="M317.943 235.644C318.607 236.046 318.607 236.65 317.943 237.053C317.28 237.455 316.219 237.455 315.556 237.053C314.893 236.65 314.893 236.046 315.556 235.644C316.219 235.241 317.28 235.241 317.943 235.644Z" fill="white"/>
<path opacity="0.2" d="M291.15 267.249C292.102 267.249 292.874 266.798 292.874 266.242C292.874 265.686 292.102 265.236 291.15 265.236C290.198 265.236 289.426 265.686 289.426 266.242C289.426 266.798 290.198 267.249 291.15 267.249Z" fill="white"/>
<path opacity="0.2" d="M303.949 259.801C304.901 259.801 305.673 259.35 305.673 258.794C305.673 258.238 304.901 257.788 303.949 257.788C302.997 257.788 302.225 258.238 302.225 258.794C302.225 259.35 302.997 259.801 303.949 259.801Z" fill="white"/>
<path opacity="0.2" d="M317.943 250.608C318.607 251.011 318.607 251.615 317.943 252.018C317.28 252.42 316.219 252.42 315.556 252.018C314.893 251.615 314.893 251.011 315.556 250.608C316.219 250.206 317.28 250.206 317.943 250.608Z" fill="white"/>
<path opacity="0.2" d="M330.742 243.092C331.405 243.494 331.405 244.098 330.742 244.501C330.079 244.904 329.018 244.904 328.355 244.501C327.692 244.098 327.692 243.494 328.355 243.092C329.018 242.689 330.079 242.689 330.742 243.092Z" fill="white"/>
<path opacity="0.2" d="M305.143 273.02C305.806 273.423 305.806 274.027 305.143 274.43C304.48 274.832 303.418 274.832 302.755 274.43C302.092 274.027 302.092 273.423 302.755 273.02C303.418 272.685 304.48 272.685 305.143 273.02Z" fill="white"/>
<path opacity="0.2" d="M317.943 265.573C318.607 265.976 318.607 266.58 317.943 266.982C317.28 267.385 316.219 267.385 315.556 266.982C314.893 266.58 314.893 265.976 315.556 265.573C316.219 265.171 317.28 265.171 317.943 265.573Z" fill="white"/>
<path opacity="0.2" d="M330.742 258.058C331.405 258.461 331.405 259.065 330.742 259.468C330.079 259.87 329.018 259.87 328.355 259.468C327.692 259.065 327.692 258.461 328.355 258.058C329.018 257.723 330.079 257.723 330.742 258.058Z" fill="white"/>
<path opacity="0.2" d="M343.543 250.608C344.206 251.011 344.206 251.615 343.543 252.018C342.88 252.42 341.819 252.42 341.156 252.018C340.492 251.615 340.492 251.011 341.156 250.608C341.819 250.206 342.88 250.206 343.543 250.608Z" fill="white"/>
<path opacity="0.2" d="M343.543 250.608C344.206 251.011 344.206 251.615 343.543 252.018C342.88 252.42 341.819 252.42 341.156 252.018C340.492 251.615 340.492 251.011 341.156 250.608C341.819 250.206 342.88 250.206 343.543 250.608Z" fill="white"/>
<path opacity="0.2" d="M305.143 213.162C305.806 213.565 305.806 214.169 305.143 214.572C304.48 214.974 303.418 214.974 302.755 214.572C302.092 214.169 302.092 213.565 302.755 213.162C303.418 212.76 304.48 212.76 305.143 213.162Z" fill="white"/>
<path opacity="0.2" d="M317.943 205.645C318.607 206.048 318.607 206.652 317.943 207.054C317.28 207.457 316.219 207.457 315.556 207.054C314.893 206.652 314.893 206.048 315.556 205.645C316.219 205.309 317.28 205.309 317.943 205.645Z" fill="white"/>
<path opacity="0.2" d="M329.549 199.876C330.501 199.876 331.273 199.425 331.273 198.869C331.273 198.313 330.501 197.863 329.549 197.863C328.596 197.863 327.824 198.313 327.824 198.869C327.824 199.425 328.596 199.876 329.549 199.876Z" fill="white"/>
<path opacity="0.2" d="M317.943 220.679C318.607 221.082 318.607 221.686 317.943 222.088C317.28 222.491 316.219 222.491 315.556 222.088C314.893 221.686 314.893 221.082 315.556 220.679C316.219 220.276 317.28 220.276 317.943 220.679Z" fill="white"/>
<path opacity="0.2" d="M330.742 213.162C331.405 213.565 331.405 214.169 330.742 214.572C330.079 214.974 329.018 214.974 328.355 214.572C327.692 214.169 327.692 213.565 328.355 213.162C329.018 212.76 330.079 212.76 330.742 213.162Z" fill="white"/>
<path opacity="0.2" d="M343.543 205.645C344.206 206.048 344.206 206.652 343.543 207.054C342.88 207.457 341.819 207.457 341.156 207.054C340.492 206.652 340.492 206.048 341.156 205.645C341.819 205.309 342.88 205.309 343.543 205.645Z" fill="white"/>
<path opacity="0.2" d="M330.742 228.127C331.405 228.53 331.405 229.134 330.742 229.536C330.079 229.939 329.018 229.939 328.355 229.536C327.692 229.134 327.692 228.53 328.355 228.127C329.018 227.725 330.079 227.725 330.742 228.127Z" fill="white"/>
<path opacity="0.2" d="M343.543 220.679C344.206 221.082 344.206 221.686 343.543 222.088C342.88 222.491 341.819 222.491 341.156 222.088C340.492 221.686 340.492 221.082 341.156 220.679C341.819 220.276 342.88 220.276 343.543 220.679Z" fill="white"/>
<path opacity="0.2" d="M356.408 213.162C357.071 213.565 357.071 214.169 356.408 214.572C355.745 214.974 354.684 214.974 354.021 214.572C353.358 214.169 353.358 213.565 354.021 213.162C354.684 212.76 355.745 212.76 356.408 213.162Z" fill="white"/>
<path opacity="0.2" d="M342.349 237.322C343.302 237.322 344.074 236.871 344.074 236.315C344.074 235.759 343.302 235.309 342.349 235.309C341.397 235.309 340.625 235.759 340.625 236.315C340.625 236.871 341.397 237.322 342.349 237.322Z" fill="white"/>
<path opacity="0.2" d="M356.408 228.127C357.071 228.53 357.071 229.134 356.408 229.536C355.745 229.939 354.684 229.939 354.021 229.536C353.358 229.134 353.358 228.53 354.021 228.127C354.684 227.725 355.745 227.725 356.408 228.127Z" fill="white"/>
<path opacity="0.2" d="M369.207 220.679C369.87 221.082 369.87 221.686 369.207 222.088C368.544 222.491 367.483 222.491 366.82 222.088C366.156 221.686 366.156 221.082 366.82 220.679C367.483 220.276 368.544 220.276 369.207 220.679Z" fill="white"/>
<path opacity="0.2" d="M356.408 243.092C357.071 243.495 357.071 244.099 356.408 244.501C355.745 244.904 354.684 244.904 354.021 244.501C353.358 244.099 353.358 243.495 354.021 243.092C354.684 242.689 355.745 242.689 356.408 243.092Z" fill="white"/>
<path opacity="0.2" d="M369.207 235.644C369.87 236.046 369.87 236.65 369.207 237.053C368.544 237.455 367.483 237.455 366.82 237.053C366.156 236.65 366.156 236.046 366.82 235.644C367.483 235.241 368.544 235.241 369.207 235.644Z" fill="white"/>
<path opacity="0.2" d="M382.008 228.127C382.671 228.53 382.671 229.134 382.008 229.536C381.345 229.939 380.284 229.939 379.62 229.536C378.957 229.134 378.957 228.53 379.62 228.127C380.284 227.725 381.345 227.725 382.008 228.127Z" fill="white"/>
<path opacity="0.2" d="M317.943 280.535C318.607 280.938 318.607 281.542 317.943 281.945C317.28 282.347 316.219 282.347 315.556 281.945C314.893 281.542 314.893 280.938 315.556 280.535C316.219 280.133 317.28 280.133 317.943 280.535Z" fill="white"/>
<path opacity="0.2" d="M330.742 273.02C331.405 273.423 331.405 274.027 330.742 274.43C330.079 274.832 329.018 274.832 328.355 274.43C327.692 274.027 327.692 273.423 328.355 273.02C329.018 272.685 330.079 272.685 330.742 273.02Z" fill="white"/>
<path opacity="0.2" d="M343.543 265.573C344.206 265.976 344.206 266.58 343.543 266.982C342.88 267.385 341.819 267.385 341.156 266.982C340.492 266.58 340.492 265.976 341.156 265.573C341.819 265.171 342.88 265.171 343.543 265.573Z" fill="white"/>
<path opacity="0.2" d="M356.408 258.058C357.071 258.461 357.071 259.064 356.408 259.467C355.745 259.87 354.684 259.87 354.021 259.467C353.358 259.064 353.358 258.461 354.021 258.058C354.684 257.655 355.745 257.722 356.408 258.058Z" fill="white"/>
<path opacity="0.2" d="M330.742 287.985C331.405 288.388 331.405 288.992 330.742 289.395C330.079 289.797 329.018 289.797 328.355 289.395C327.692 288.992 327.692 288.388 328.355 287.985C329.018 287.65 330.079 287.65 330.742 287.985Z" fill="white"/>
<path opacity="0.2" d="M343.543 280.535C344.206 280.938 344.206 281.542 343.543 281.945C342.88 282.347 341.819 282.347 341.156 281.945C340.492 281.542 340.492 280.938 341.156 280.535C341.819 280.133 342.88 280.133 343.543 280.535Z" fill="white"/>
<path opacity="0.2" d="M355.215 274.766C356.167 274.766 356.939 274.315 356.939 273.759C356.939 273.203 356.167 272.752 355.215 272.752C354.262 272.752 353.49 273.203 353.49 273.759C353.49 274.315 354.262 274.766 355.215 274.766Z" fill="white"/>
<path opacity="0.2" d="M369.207 265.573C369.87 265.976 369.87 266.58 369.207 266.982C368.544 267.385 367.483 267.385 366.82 266.982C366.156 266.58 366.156 265.976 366.82 265.573C367.483 265.171 368.544 265.171 369.207 265.573Z" fill="white"/>
<path opacity="0.2" d="M369.207 250.608C369.87 251.011 369.87 251.615 369.207 252.018C368.544 252.42 367.483 252.42 366.82 252.018C366.156 251.615 366.156 251.011 366.82 250.608C367.483 250.206 368.544 250.206 369.207 250.608Z" fill="white"/>
<path opacity="0.2" d="M382.008 243.092C382.671 243.495 382.671 244.099 382.008 244.501C381.345 244.904 380.284 244.904 379.62 244.501C378.957 244.099 378.957 243.495 379.62 243.092C380.284 242.689 381.345 242.689 382.008 243.092Z" fill="white"/>
<path opacity="0.2" d="M394.807 235.644C395.47 236.046 395.47 236.65 394.807 237.053C394.144 237.455 393.082 237.455 392.419 237.053C391.756 236.65 391.756 236.046 392.419 235.644C393.082 235.241 394.144 235.241 394.807 235.644Z" fill="white"/>
<path opacity="0.2" d="M382.008 258.058C382.671 258.461 382.671 259.065 382.008 259.467C381.345 259.87 380.284 259.87 379.62 259.467C378.957 259.065 378.957 258.461 379.62 258.058C380.284 257.723 381.345 257.723 382.008 258.058Z" fill="white"/>
<path opacity="0.2" d="M394.807 250.608C395.47 251.011 395.47 251.615 394.807 252.018C394.144 252.42 393.082 252.42 392.419 252.018C391.756 251.615 391.756 251.011 392.419 250.608C393.082 250.206 394.144 250.206 394.807 250.608Z" fill="white"/>
<path opacity="0.2" d="M407.606 243.092C408.269 243.495 408.269 244.099 407.606 244.501C406.942 244.904 405.881 244.904 405.218 244.501C404.555 244.099 404.555 243.495 405.218 243.092C405.881 242.689 406.942 242.689 407.606 243.092Z" fill="white"/>
</g>
<path d="M340.986 190.285H322.003L377.962 222.966C380.481 224.422 380.481 228.155 377.962 229.611L288.266 281.956H307.248C309.138 281.956 310.937 281.5 312.466 280.499L398.114 230.522C401.353 228.61 401.353 223.876 398.114 221.964L346.204 191.65C344.674 190.74 342.875 190.285 340.986 190.285Z" fill="url(#paint3_linear_2928_60687)"/>
<path d="M382.551 226.972C382.461 225.515 381.381 223.967 379.312 222.784L329.201 193.562C325.243 191.286 319.215 191.013 315.796 193.016L230.149 243.084C228.529 244.086 227.72 245.36 227.809 246.726C227.899 248.182 228.979 249.73 231.048 250.913L281.159 280.135C285.118 282.411 291.146 282.684 294.564 280.681L380.212 230.613C381.831 229.612 382.641 228.337 382.551 226.972Z" fill="#9295B2"/>
<path d="M382.552 224.877V170.347L227.811 190.011V244.176C227.811 244.267 227.811 244.449 227.811 244.54C227.901 245.996 228.98 247.544 231.049 248.727L281.16 277.949C283.23 279.133 285.839 279.77 288.358 279.861C290.697 279.952 292.946 279.497 294.565 278.495L380.213 228.427C381.832 227.517 382.642 226.242 382.552 224.877Z" fill="url(#paint4_linear_2928_60687)"/>
<path d="M382.551 170.348C382.461 168.892 381.381 167.344 379.312 166.161L329.201 136.939C325.243 134.663 319.215 134.39 315.796 136.393L230.149 186.461C228.529 187.463 227.72 188.737 227.809 190.103C227.899 191.559 228.979 193.107 231.048 194.29L281.159 223.512C285.118 225.788 291.146 226.061 294.564 224.058L380.212 173.99C381.831 172.988 382.641 171.714 382.551 170.348Z" fill="white"/>
<path d="M382.551 168.529C382.461 167.072 381.381 165.525 379.312 164.341L329.201 135.119C325.243 132.843 319.215 132.57 315.796 134.573L230.149 184.642C228.529 185.643 227.72 186.917 227.809 188.283C227.899 189.74 228.979 191.287 231.048 192.471L281.159 221.692C285.118 223.968 291.146 224.241 294.564 222.239L380.212 172.17C381.831 171.169 382.641 169.894 382.551 168.529Z" fill="url(#paint5_linear_2928_60687)"/>
<path d="M308.511 206.218C306.891 206.218 305.362 205.762 303.922 204.943L295.376 199.936C294.206 199.208 293.486 198.025 293.486 196.659C293.486 195.294 294.206 194.019 295.376 193.382L333.521 171.079C336.4 169.44 339.909 169.44 342.698 171.079L351.245 176.085C352.414 176.814 353.134 177.997 353.134 179.363C353.134 180.728 352.414 182.003 351.245 182.64L313.099 204.943C311.659 205.853 310.04 206.218 308.511 206.218ZM338.109 170.988C336.67 170.988 335.32 171.352 334.061 172.08L295.915 194.383C295.106 194.838 294.566 195.749 294.566 196.75C294.566 197.751 295.106 198.571 295.915 199.117L304.462 204.124C306.981 205.58 310.04 205.58 312.559 204.124L350.705 181.821C351.514 181.365 352.054 180.455 352.054 179.454C352.054 178.452 351.514 177.633 350.705 177.087L342.158 172.08C340.898 171.352 339.549 170.988 338.109 170.988Z" fill="#BCC0E5"/>
<mask id="mask1_2928_60687" style="mask-type:alpha" maskUnits="userSpaceOnUse" x="253" y="64" width="73" height="125">
<path d="M325.154 145.59L253.631 188.193V106.445L325.154 64.1145V145.59Z" fill="url(#paint6_linear_2928_60687)"/>
</mask>
<g mask="url(#mask1_2928_60687)">
<path d="M325.154 145.59L253.631 188.193V106.445L325.154 64.1145V145.59Z" fill="url(#paint7_linear_2928_60687)"/>
<path opacity="0.8" d="M260.018 77.7658L318.676 43.5371C322.185 41.4433 325.064 42.7178 325.064 46.2681V116.819C325.064 120.37 322.185 125.012 318.676 127.015L260.018 161.244C256.51 163.337 253.631 162.063 253.631 158.513V88.0526C253.631 84.4112 256.51 79.8595 260.018 77.7658Z" fill="#BCDBFF"/>
<path d="M303.02 126.197L313.815 119.915V91.6038L303.02 97.8851V126.197Z" fill="#0249FF"/>
<path d="M290.246 133.754L300.952 127.472V88.5098L290.246 94.7911V133.754Z" fill="#0148FF" fill-opacity="0.86"/>
<path d="M277.381 141.218L288.177 134.937V88.5098L277.381 94.7911V141.218Z" fill="#0249FF" fill-opacity="0.91"/>
<path d="M264.607 148.685L275.313 142.403V80.3184L264.607 86.5997V148.685Z" fill="#0148FF"/>
<path d="M303.02 108.718L313.815 102.436V97.9758L303.02 104.348V108.718Z" fill="white"/>
<path d="M290.246 122.557L300.952 116.276V111.815L290.246 118.187V122.557Z" fill="white"/>
<path d="M277.381 109.358L288.177 103.077V98.7073L277.381 104.989V109.358Z" fill="white"/>
<path d="M264.607 95.9747L275.313 89.6933V85.3237L264.607 91.6051V95.9747Z" fill="white"/>
<path d="M253.63 189.103C253.36 189.103 253 188.921 252.82 188.648C252.55 188.193 252.73 187.646 253.18 187.373L324.613 144.86C325.063 144.587 325.603 144.769 325.872 145.225C326.142 145.68 325.962 146.226 325.513 146.499L254.08 189.012C253.99 189.103 253.81 189.103 253.63 189.103Z" fill="#011AFF"/>
</g>
<path d="M411.252 230.34C402.435 230.34 395.328 234.072 395.328 238.715C395.328 243.358 402.435 247.09 411.252 247.09H492.311V230.249H411.252V230.34Z" fill="url(#paint8_linear_2928_60687)"/>
<path d="M412.602 229.793C413.681 230.886 413.411 233.162 412.781 234.072C411.792 235.711 410.442 234.8 409.543 235.347C407.114 236.894 402.076 238.351 400.996 237.622C399.916 236.894 399.107 234.618 404.775 232.433C407.294 231.432 408.553 230.067 408.553 230.067L412.602 229.793Z" fill="#636BE4"/>
<path d="M412.511 227.88C412.691 229.337 412.781 230.247 412.871 230.702C412.961 231.066 412.781 231.431 412.601 231.613C411.881 232.25 410.262 233.251 408.552 232.432C408.552 232.432 407.473 231.977 408.012 230.611C408.462 229.246 408.732 227.516 408.732 227.516L412.511 227.88Z" fill="white"/>
<path d="M422.679 237.985C423.758 239.078 423.578 241.445 422.859 242.264C422.139 243.083 420.969 242.446 420.43 243.356C418.45 246.907 414.762 246.451 413.502 246.36C411.613 246.178 411.523 244.54 414.672 241.627C417.731 238.714 418.27 237.985 418.27 237.985H422.679Z" fill="#636BE4"/>
<path d="M421.327 150.866C424.926 159.787 421.057 161.79 418.358 172.987C415.929 183.001 417.459 203.301 412.87 229.61C412.601 231.248 407.652 231.613 407.742 228.608C407.742 223.42 404.953 204.667 404.683 193.469C404.504 185.914 404.683 162.336 404.683 162.336L421.327 150.866Z" fill="url(#paint9_linear_2928_60687)"/>
<path d="M422.679 236.074C422.859 237.531 422.949 238.441 423.039 238.896C423.129 239.261 422.949 239.625 422.769 239.807C422.049 240.444 420.43 241.445 418.72 240.626C418.72 240.626 417.641 240.171 418.18 238.805C418.63 237.44 418.9 235.71 418.9 235.71L422.679 236.074Z" fill="white"/>
<path d="M402.616 145.495C398.118 148.955 396.319 150.32 396.319 150.32L391.91 147.862L398.208 138.759L400.277 137.029L403.156 141.126L402.616 145.495Z" fill="#D5E9F5"/>
<path d="M432.124 157.148C435.722 166.069 433.023 177.448 430.504 188.646C426.096 207.854 424.297 223.876 423.307 237.076C423.217 238.714 418.089 240.08 417.729 237.076C417.279 233.434 415.57 210.039 414.85 202.028C413.681 188.828 415.48 168.709 415.48 168.709L432.124 157.148Z" fill="url(#paint10_linear_2928_60687)"/>
<path d="M406.664 129.472L406.394 147.042C406.394 147.042 403.695 144.857 402.526 145.494C402.526 145.494 403.065 139.395 398.117 138.849C398.207 138.849 405.135 130.383 406.664 129.472Z" fill="#8EB4FF"/>
<path d="M434.823 163.247C433.474 171.075 423.937 175.445 411.792 168.618C399.646 161.79 405.404 159.15 405.584 152.596C405.764 146.041 409.543 142.582 406.844 132.932C404.055 123.283 418.269 129.655 425.287 135.663C432.304 141.49 436.083 155.964 434.823 163.247Z" fill="#8EB4FF"/>
<path d="M427.536 135.754C433.204 143.037 434.643 165.795 433.384 172.987C432.304 179.177 426.816 178.995 418.269 176.992C418.449 175.809 419.259 168.526 419.259 165.977C419.529 155.326 416.92 146.223 418.449 133.296C418.449 133.296 424.117 132.295 418.629 129.746C413.141 127.197 410.712 127.197 409.992 129.291C409.273 131.385 409.723 148.135 409.363 159.514C409.183 163.701 407.563 169.437 407.473 171.439C400.096 166.159 404.414 158.33 404.594 152.504C404.774 145.95 406.214 142.764 406.034 132.75C405.854 122.463 421.868 128.38 427.536 135.754Z" fill="url(#paint11_linear_2928_60687)"/>
<path d="M416.019 122.737C418.448 127.926 417.639 128.836 419.708 130.748C420.517 131.476 417.728 132.933 415.749 133.024L411.971 137.667L412.151 131.203C412.151 131.203 410.891 130.657 411.161 129.565C411.431 128.472 412.33 127.653 411.431 126.196C411.161 125.559 416.019 122.737 416.019 122.737Z" fill="#D5E9F5"/>
<path d="M417.19 122.735C416.111 126.286 412.872 127.014 410.353 126.923C407.834 126.832 404.505 117.82 406.124 114.633C407.834 111.447 413.862 109.627 416.111 112.904C418.36 116.181 417.19 122.735 417.19 122.735Z" fill="#D5E9F5"/>
<path d="M403.964 152.868H404.054L408.102 151.776C408.372 151.685 408.462 151.503 408.372 151.23C408.282 150.957 408.102 150.865 407.833 150.957L403.784 152.049C403.514 152.14 403.424 152.322 403.514 152.595C403.604 152.777 403.784 152.868 403.964 152.868Z" fill="white"/>
<path d="M425.287 135.573C429.605 136.757 430.235 144.131 431.495 150.321C432.754 156.511 426.727 154.964 424.567 152.779C422.498 150.503 419.349 133.935 425.287 135.573Z" fill="#8EB4FF"/>
<path d="M403.695 151.506C405.224 151.142 405.404 151.962 406.753 153.873C409.812 155.057 417.01 157.879 420.158 159.153C420.158 159.153 422.318 141.857 423.217 139.217L429.605 150.323C427.356 160.155 424.927 164.16 422.947 166.072C421.418 167.619 409.183 160.064 404.414 157.059C404.414 157.059 402.885 157.333 400.366 155.33C397.937 153.236 401.985 151.962 403.695 151.506Z" fill="#D5E9F5"/>
<path d="M417.729 123.01C416.649 125.286 419.438 124.649 419.618 126.196C419.798 127.744 416.019 127.107 415.03 125.013C414.49 123.829 413.68 124.011 414.94 122.828C416.199 121.645 414.4 120.461 413.32 121.189C412.241 121.918 411.521 120.643 411.341 119.733C411.161 118.823 408.012 119.915 405.943 119.733C403.874 119.551 401.355 118.094 402.434 115.818C403.514 113.452 404.234 115.09 404.864 114.271C405.493 113.452 403.424 112.905 404.954 111.904C406.483 110.903 407.473 112.814 408.192 111.904C408.822 110.903 410.711 111.267 411.701 110.356C412.691 109.446 413.77 111.358 414.31 111.085C414.85 110.812 417.099 111.449 417.459 114.817C417.819 118.276 418.089 116.911 418.538 118.64C418.988 120.279 417.729 123.01 417.729 123.01Z" fill="#8EB4FF"/>
<path d="M403.065 153.961L390.92 143.856L397.937 156.783L409.993 167.525L403.065 153.961Z" fill="#5A61FF"/>
<path d="M392.629 146.951C389.48 151.229 390.92 153.232 391.819 154.506C392.719 155.69 401.716 161.334 402.975 163.61C404.235 165.886 407.294 165.339 408.373 164.702C409.453 164.156 410.083 162.062 409.363 160.515C408.553 158.603 405.584 160.424 405.584 160.424L394.968 151.411L392.629 146.951Z" fill="#D5E9F5"/>
<path d="M421.689 148.592C423.669 146.953 428.797 149.593 429.247 152.506L430.506 150.959L427.087 141.036L423.759 138.032L422.049 139.306L421.689 148.592Z" fill="#8EB4FF"/>
<path d="M360.869 249.366C352.053 249.366 344.945 253.098 344.945 257.741C344.945 262.384 352.053 266.116 360.869 266.116H441.929V249.275H360.869V249.366Z" fill="url(#paint12_linear_2928_60687)"/>
<path d="M333.701 123.648C331.811 121.099 330.552 120.735 329.562 119.643C328.573 118.55 329.202 118.277 329.922 118.732C330.642 119.188 331.092 119.552 331.002 119.188C331.002 119.005 331.092 118.277 328.933 117.094C326.773 115.91 326.054 114.181 327.313 114.727C328.573 115.182 329.202 116.274 330.552 116.092C331.901 115.91 332.711 115 333.701 116.821C334.69 118.641 335.59 121.554 335.59 121.554L333.701 123.648Z" fill="#D5E9F5"/>
<path d="M321.285 182.091C319.126 183.911 318.676 183.729 317.146 184.731C315.617 185.732 313.638 185.641 313.728 186.187C313.818 186.734 316.247 186.096 316.786 186.096C317.146 186.096 317.506 187.826 318.676 188.008C320.655 188.281 320.745 186.096 321.825 185.186C322.994 184.367 321.285 182.091 321.285 182.091Z" fill="#D5E9F5"/>
<path d="M350.075 148.684C353.853 145.589 364.019 148.957 366.628 155.693C366.628 155.693 362.94 147.318 360.241 143.222C357.452 139.125 345.936 133.208 345.126 132.116C344.407 131.023 338.829 123.103 336.13 120.645C334.331 119.007 332.171 122.739 332.801 123.74C336.22 129.567 341.168 137.305 341.168 137.305L350.075 148.684Z" fill="#8EB4FF"/>
<path d="M346.474 258.923C345.574 260.47 350.702 262.746 353.041 263.292C354.481 263.657 356.28 265.568 357.72 265.204C361.228 264.203 359.699 261.472 359.159 260.288C358.259 258.468 356.73 258.559 356.73 258.559C356.73 258.559 352.951 258.741 351.782 258.468C350.702 258.195 347.733 256.829 346.474 258.923Z" fill="#8992F5"/>
<path d="M359.79 250.55C358.891 252.097 364.019 254.373 366.358 254.919C367.797 255.284 369.597 257.195 371.036 256.831C374.545 255.83 373.015 253.099 372.475 251.915C371.576 250.095 370.046 250.186 370.046 250.186C370.046 250.186 366.268 250.368 365.098 250.095C363.929 249.822 360.96 248.456 359.79 250.55Z" fill="#8992F5"/>
<path d="M371.397 183.46C374.276 198.844 369.958 218.69 369.958 222.695C369.868 229.25 370.767 244.179 371.397 250.369C371.487 251.371 367.979 252.554 367.619 251.644C364.02 241.448 358.802 223.515 359.072 220.692C359.612 215.868 356.463 182.822 356.463 182.822L361.231 175.995C361.321 175.995 369.058 171.261 371.397 183.46Z" fill="url(#paint13_linear_2928_60687)"/>
<path d="M347.375 178.997C343.236 193.198 348.814 213.771 349.804 229.611C350.073 233.435 351.963 251.459 354.032 259.288C354.392 260.472 359.34 262.292 359.16 259.197C358.8 252.37 359.7 235.893 360.06 230.613C361.589 212.861 366.447 183.639 366.447 183.639L347.375 178.997Z" fill="url(#paint14_linear_2928_60687)"/>
<path d="M371.934 179.543C365.456 169.802 370.674 167.253 366.356 153.871C362.488 141.855 357.18 143.129 351.062 145.132C349.892 145.678 339.726 149.866 342.605 156.693C344.494 161.063 344.134 166.07 343.235 173.626C341.795 186.097 343.055 193.198 345.934 194.654C355.11 199.297 378.142 188.919 371.934 179.543Z" fill="url(#paint15_linear_2928_60687)"/>
<path d="M346.476 148.68C350.705 147.679 346.746 182.454 343.957 166.523C343.957 166.523 341.618 173.168 337.21 176.901C332.891 180.542 328.843 181.725 322.815 184.912C321.196 185.822 320.026 182.818 320.926 181.999C324.345 178.903 327.853 175.08 332.711 170.892C334.241 169.527 342.518 149.591 346.476 148.68Z" fill="#8EB4FF"/>
<path d="M355.292 129.567C347.375 133.026 346.475 135.393 346.745 137.122C347.015 138.852 348.724 138.943 349.354 140.855C349.984 142.767 349.894 143.677 349.174 145.589C348.725 146.954 351.603 146.772 353.403 145.498C355.202 144.223 355.832 144.041 355.112 140.946C354.302 137.851 357.451 137.305 357.811 133.663C358.081 129.931 355.292 129.567 355.292 129.567Z" fill="#D5E9F5"/>
<path d="M354.483 129.111C352.503 129.657 353.853 135.574 353.493 135.756C353.493 135.756 355.292 135.756 354.393 137.031C353.493 138.305 352.593 137.395 352.593 137.395C352.593 137.395 352.413 139.033 353.493 139.671C354.662 140.308 354.932 140.126 354.932 140.126C354.932 140.126 357.811 140.399 359.88 138.123C362.31 135.483 358.801 127.927 354.483 129.111Z" fill="#3261D8"/>
<path d="M359.7 135.302C358.89 135.575 359.16 137.123 359.43 137.396C359.79 137.669 362.399 139.035 362.399 141.857C362.399 144.77 360.33 144.406 360.15 149.048C359.97 153.691 372.205 156.968 370.856 160.792C369.506 164.615 364.738 162.066 364.018 165.799C363.748 167.437 364.288 169.44 371.395 167.892C378.413 166.345 379.133 159.608 374.274 153.236C369.416 146.864 372.025 143.404 370.856 140.218C369.686 137.032 363.748 134.21 359.7 135.302Z" fill="#3261D8"/>
<path d="M365.314 294.239C363.311 296.267 361.975 299.018 361.975 301.383V307.272C361.975 310.651 364.694 312.003 368.034 310.313L373.854 307.369C374.808 306.886 375.762 306.162 376.573 305.342C378.576 303.314 379.912 300.563 379.912 298.197V292.357C379.912 288.978 377.193 287.626 373.854 289.315L368.034 292.26C367.079 292.694 366.125 293.419 365.314 294.239Z" fill="white"/>
<path d="M373.805 332.957L367.985 335.901C364.645 337.591 361.926 336.239 361.926 332.86V326.971C361.926 323.592 364.645 319.489 367.985 317.8L373.805 314.855C377.144 313.166 379.863 314.517 379.863 317.896V323.737C379.863 327.116 377.144 331.267 373.805 332.957Z" fill="#4066FF"/>
<path d="M373.805 358.492L367.985 361.437C364.645 363.126 361.926 361.775 361.926 358.396V352.507C361.926 349.128 364.645 345.024 367.985 343.335L373.805 340.39C377.144 338.701 379.863 340.053 379.863 343.432V349.321C379.863 352.7 377.144 356.803 373.805 358.492Z" fill="#F4F5FC"/>
<path d="M390.598 281.449C388.594 283.476 387.258 286.228 387.258 288.593V294.482C387.258 297.861 389.977 299.213 393.317 297.523L399.137 294.579C400.091 294.096 401.045 293.372 401.856 292.551C403.86 290.524 405.195 287.772 405.195 285.407V279.518C405.195 276.139 402.476 274.787 399.137 276.477L393.317 279.421C392.315 279.904 391.409 280.628 390.598 281.449Z" fill="#428EFF"/>
<path d="M399.09 320.161L393.27 323.106C389.931 324.795 387.211 323.444 387.211 320.065V314.175C387.211 310.796 389.931 306.693 393.27 305.004L399.09 302.059C402.429 300.37 405.148 301.721 405.148 305.1V310.99C405.101 314.369 402.429 318.472 399.09 320.161Z" fill="#F4F5FC"/>
<path d="M399.09 345.698L393.27 348.643C389.931 350.332 387.211 348.981 387.211 345.602V339.713C387.211 336.334 389.931 332.231 393.27 330.541L399.09 327.597C402.429 325.907 405.148 327.259 405.148 330.638V336.527C405.101 339.906 402.429 344.009 399.09 345.698Z" fill="#2F4DEC"/>
<path d="M400.281 309.878C400.234 309.927 400.138 309.975 400.09 309.975C400.234 309.54 400.281 309.154 400.281 308.72C400.281 306.741 398.707 305.968 396.799 306.934C394.843 307.899 393.316 310.313 393.316 312.244C393.316 312.34 393.316 312.437 393.316 312.533C393.078 312.581 392.887 312.678 392.648 312.775C391.17 313.499 389.977 315.333 389.977 316.781C389.977 318.277 391.17 318.857 392.648 318.133L395.559 316.636V313.933L393.841 314.802L396.56 310.699L399.279 312.05L397.562 312.919V315.623L400.281 314.223C400.281 314.223 400.281 314.223 400.329 314.223C401.522 313.595 402.523 312.147 402.523 310.892C402.523 309.637 401.474 309.299 400.281 309.878Z" fill="#428EFF"/>
<path d="M376.715 347.966C376.715 351.2 374.139 355.159 370.895 356.8C369.75 357.379 368.653 357.572 367.746 357.476L370.561 353.228C370.752 352.89 371.086 352.649 371.372 352.552C372.231 352.262 373.089 351.587 373.757 350.573C374.425 349.559 374.664 348.497 374.473 347.725L372.517 350.669L371.086 350.718L370.418 349.607L372.374 346.663C371.515 346.904 370.561 347.628 369.893 348.642C369.321 349.559 369.034 350.476 369.13 351.249C369.177 351.538 369.082 351.828 368.844 352.118L365.933 356.51C365.409 355.883 365.075 355.014 365.075 353.855C365.075 350.621 367.651 346.663 370.895 345.022C374.139 343.429 376.715 344.732 376.715 347.966Z" fill="#4282FF"/>
<path d="M375.809 299.261C375.666 299.116 373.376 299.55 372.756 299.406C372.756 299.406 372.756 299.406 372.708 299.406C373.71 298.054 374.378 296.268 374.378 295.013C374.378 293.082 372.804 292.31 370.896 293.275C368.987 294.241 367.413 296.606 367.413 298.537C367.413 299.792 368.081 300.902 369.083 301.24C369.083 301.24 369.083 301.24 369.035 301.288C368.415 302.061 366.125 303.943 365.982 304.233C365.6 305.102 365.314 305.922 365.123 306.791L376.668 300.95C376.477 300.275 376.191 299.695 375.809 299.261Z" fill="#4066FF"/>
<g opacity="0.3">
<path opacity="0.0909091" d="M412.117 439.102C420.609 434.854 430.627 434.854 439.071 439.102C439.119 439.102 439.166 439.15 439.214 439.15C441.456 440.308 443.507 441.467 445.368 442.722C447.705 444.315 447.705 447.742 445.368 449.335C443.507 450.59 441.456 451.797 439.214 452.907C439.166 452.907 439.119 452.956 439.071 452.956C430.579 457.203 420.561 457.203 412.117 452.956C412.07 452.956 412.022 452.907 411.974 452.907C409.732 451.749 407.681 450.59 405.82 449.335C403.483 447.742 403.483 444.315 405.82 442.722C407.681 441.467 409.732 440.26 411.974 439.15C412.07 439.15 412.117 439.102 412.117 439.102Z" fill="#A7B1F2"/>
<path opacity="0.1818" d="M411.116 438.571C419.607 434.323 429.625 434.323 438.069 438.571C438.117 438.571 438.164 438.619 438.212 438.619C440.454 439.777 442.505 440.936 444.366 442.191C446.704 443.784 446.704 447.211 444.366 448.804C442.505 450.059 440.454 451.266 438.212 452.376C438.164 452.376 438.117 452.424 438.069 452.424C429.577 456.672 419.559 456.672 411.116 452.424C411.068 452.424 411.02 452.376 410.972 452.376C408.73 451.218 406.679 450.059 404.818 448.804C402.481 447.211 402.481 443.784 404.818 442.191C406.679 440.936 408.73 439.729 410.972 438.619C411.02 438.619 411.068 438.571 411.116 438.571Z" fill="#A7B1F2"/>
<path opacity="0.2727" d="M410.065 438.042C418.556 433.794 428.574 433.794 437.018 438.042C437.066 438.042 437.114 438.09 437.161 438.09C439.403 439.249 441.455 440.407 443.315 441.662C445.653 443.255 445.653 446.682 443.315 448.275C441.455 449.53 439.403 450.737 437.161 451.847C437.114 451.847 437.066 451.896 437.018 451.896C428.527 456.144 418.509 456.144 410.065 451.896C410.017 451.896 409.969 451.847 409.922 451.847C407.68 450.689 405.628 449.53 403.768 448.275C401.43 446.682 401.43 443.255 403.768 441.662C405.628 440.407 407.68 439.2 409.922 438.09C409.969 438.09 410.017 438.042 410.065 438.042Z" fill="#A7B1F2"/>
<path opacity="0.3636" d="M409.016 437.509C417.507 433.261 427.525 433.261 435.969 437.509C436.017 437.509 436.065 437.557 436.112 437.557C438.355 438.715 440.406 439.874 442.266 441.129C444.604 442.722 444.604 446.149 442.266 447.742C440.406 448.997 438.355 450.204 436.112 451.314C436.065 451.314 436.017 451.363 435.969 451.363C427.478 455.61 417.46 455.61 409.016 451.363C408.968 451.363 408.921 451.314 408.873 451.314C406.631 450.156 404.579 448.997 402.719 447.742C400.381 446.149 400.381 442.722 402.719 441.129C404.579 439.874 406.631 438.667 408.873 437.557C408.921 437.557 408.968 437.557 409.016 437.509Z" fill="#A7B1F2"/>
<path opacity="0.4545" d="M407.967 436.977C416.459 432.73 426.477 432.73 434.92 436.977C434.968 436.977 435.016 437.026 435.064 437.026C437.306 438.184 439.357 439.343 441.218 440.598C443.555 442.191 443.555 445.618 441.218 447.211C439.357 448.466 437.306 449.673 435.064 450.783C435.016 450.783 434.968 450.831 434.92 450.831C426.429 455.079 416.411 455.079 407.967 450.831C407.919 450.831 407.872 450.783 407.824 450.783C405.582 449.624 403.531 448.466 401.67 447.211C399.332 445.618 399.332 442.191 401.67 440.598C403.531 439.343 405.582 438.136 407.824 437.026C407.872 437.026 407.919 437.026 407.967 436.977Z" fill="#A7B1F2"/>
<path opacity="0.5455" d="M406.916 436.446C415.408 432.199 425.426 432.199 433.87 436.446C433.917 436.446 433.965 436.495 434.013 436.495C436.255 437.653 438.306 438.812 440.167 440.067C442.504 441.66 442.504 445.087 440.167 446.68C438.306 447.935 436.255 449.142 434.013 450.252C433.965 450.252 433.917 450.3 433.87 450.3C425.378 454.548 415.36 454.548 406.916 450.3C406.869 450.3 406.821 450.252 406.773 450.252C404.531 449.093 402.48 447.935 400.619 446.68C398.282 445.087 398.282 441.66 400.619 440.067C402.48 438.812 404.531 437.605 406.773 436.495C406.869 436.495 406.869 436.495 406.916 436.446Z" fill="#A7B1F2"/>
<path opacity="0.6364" d="M405.914 435.916C414.406 431.668 424.424 431.668 432.868 435.916C432.915 435.916 432.963 435.964 433.011 435.964C435.253 437.122 437.304 438.281 439.165 439.536C441.502 441.129 441.502 444.556 439.165 446.149C437.304 447.404 435.253 448.611 433.011 449.721C432.963 449.721 432.915 449.769 432.868 449.769C424.376 454.017 414.358 454.017 405.914 449.769C405.867 449.769 405.819 449.721 405.771 449.721C403.529 448.563 401.478 447.404 399.617 446.149C397.28 444.556 397.28 441.129 399.617 439.536C401.478 438.281 403.529 437.074 405.771 435.964C405.819 435.964 405.867 435.964 405.914 435.916Z" fill="#A7B1F2"/>
<path opacity="0.7273" d="M404.866 435.39C413.357 431.142 423.375 431.142 431.819 435.39C431.867 435.39 431.914 435.438 431.962 435.438C434.204 436.596 436.255 437.755 438.116 439.01C440.454 440.603 440.454 444.03 438.116 445.623C436.255 446.878 434.204 448.085 431.962 449.195C431.914 449.195 431.867 449.243 431.819 449.243C423.327 453.491 413.309 453.491 404.866 449.243C404.818 449.243 404.77 449.195 404.722 449.195C402.48 448.037 400.429 446.878 398.568 445.623C396.231 444.03 396.231 440.603 398.568 439.01C400.429 437.755 402.48 436.548 404.722 435.438C404.77 435.438 404.818 435.438 404.866 435.39Z" fill="#A7B1F2"/>
<path opacity="0.8182" d="M403.817 434.903C412.308 430.655 422.326 430.655 430.77 434.903C430.818 434.903 430.865 434.951 430.913 434.951C433.155 436.11 435.207 437.268 437.067 438.524C439.405 440.116 439.405 443.544 437.067 445.137C435.207 446.392 433.155 447.599 430.913 448.709C430.865 448.709 430.818 448.757 430.77 448.757C422.279 453.005 412.261 453.005 403.817 448.757C403.769 448.757 403.721 448.709 403.674 448.709C401.431 447.55 399.38 446.392 397.52 445.137C395.182 443.544 395.182 440.116 397.52 438.524C399.38 437.268 401.431 436.062 403.674 434.951C403.721 434.903 403.769 434.903 403.817 434.903Z" fill="#A7B1F2"/>
<path opacity="0.9091" d="M402.766 434.372C411.257 430.124 421.275 430.124 429.719 434.372C429.767 434.372 429.815 434.421 429.862 434.421C432.105 435.579 434.156 436.737 436.016 437.993C438.354 439.585 438.354 443.013 436.016 444.606C434.156 445.861 432.105 447.068 429.862 448.178C429.815 448.178 429.767 448.226 429.719 448.226C421.228 452.474 411.21 452.474 402.766 448.226C402.718 448.226 402.671 448.178 402.623 448.178C400.381 447.019 398.329 445.861 396.469 444.606C394.131 443.013 394.131 439.585 396.469 437.993C398.329 436.737 400.381 435.531 402.623 434.421C402.671 434.372 402.718 434.372 402.766 434.372Z" fill="#A7B1F2"/>
<path opacity="0.3" d="M401.717 433.841C410.209 429.593 420.227 429.593 428.67 433.841C428.718 433.841 428.766 433.889 428.814 433.889C431.056 435.048 433.107 436.206 434.968 437.462C437.305 439.054 437.305 442.482 434.968 444.075C433.107 445.33 431.056 446.537 428.814 447.647C428.766 447.647 428.718 447.695 428.67 447.695C420.179 451.943 410.161 451.943 401.717 447.695C401.669 447.695 401.622 447.647 401.574 447.647C399.332 446.488 397.281 445.33 395.42 444.075C393.082 442.482 393.082 439.054 395.42 437.462C397.281 436.206 399.332 435 401.574 433.889C401.669 433.889 401.669 433.841 401.717 433.841Z" fill="#A7B1F2"/>
</g>
<path d="M428.717 437.992C425.139 436.785 419.271 433.068 416.791 430.8C414.215 428.434 416.027 425.731 419.271 426.262L433.201 428.048V434.854C433.201 437.027 431.245 438.813 428.717 437.992Z" fill="#1E41BF"/>
<path d="M428.048 433.987C431.006 433.987 433.344 431.574 433.344 428.629V372.345C433.344 369.352 430.958 366.987 428.048 366.987C425.091 366.987 422.753 369.4 422.753 372.345V428.629C422.706 431.574 425.091 433.987 428.048 433.987Z" fill="#3176FF"/>
<path d="M419.462 441.178L418.842 435.434L401.143 439.827C398.567 440.503 398.615 445.137 401.763 445.137H416.456C418.555 445.137 419.605 442.771 419.462 441.178Z" fill="#1E41BF"/>
<path d="M414.264 441.276C414.788 441.276 415.361 441.18 415.885 441.035C418.7 440.118 420.227 437.125 419.32 434.277L412.069 411.203C410.733 406.955 410.686 402.466 411.878 398.267C414.836 387.985 417.794 379.682 420.704 373.6C421.992 370.945 420.847 367.711 418.223 366.408C415.599 365.104 412.403 366.263 411.115 368.918C408.014 375.531 404.818 384.364 401.669 395.225C399.857 401.501 399.952 408.162 401.908 414.437L409.159 437.511C409.922 439.828 412.021 441.276 414.264 441.276Z" fill="#3176FF"/>
<path d="M420.512 336.431L419.844 342.031L426.094 341.693V334.886L420.512 336.431Z" fill="#B5ABF3"/>
<path d="M418.27 335.177C418.27 336.046 419.463 337.397 421.085 336.722C421.657 336.528 425.188 334.887 425.188 334.887C425.188 334.887 425.092 328.902 424.377 328.371C423.422 327.646 420.989 327.453 420.035 328.177C418.652 329.239 418.318 333.198 418.27 335.177Z" fill="#B5ABF3"/>
<path d="M420.178 330.059C421.037 330.59 420.559 332.328 420.464 332.955C420.321 334.162 423.517 336.72 426.093 336.672C426.093 334.114 430.005 329.287 426.713 329.287C425.521 325.521 420.13 327.597 418.89 326.97C418.126 327.694 418.556 329.045 420.178 330.059Z" fill="#1E41BF"/>
<path d="M420.893 331.41L420.13 333.341C419.939 333.727 419.557 333.92 419.128 333.824L418.746 333.727C418.365 333.631 417.935 333.824 417.792 334.162L416.79 336.092C416.6 336.479 416.695 336.961 417.077 337.203L417.22 337.299C417.363 337.396 417.554 337.444 417.744 337.444L420.082 337.348C420.464 337.348 420.75 337.106 420.845 336.768L421.99 333.293L420.893 331.41Z" fill="#1E41BF"/>
<path d="M407.677 377.364L407.105 384.556C408.345 388.225 431.912 382.529 432.675 379.053C432.675 379.053 433.295 374.805 433.963 369.496L407.677 377.364Z" fill="#3176FF"/>
<path d="M411.782 345.652C416.839 341.645 425.569 338.99 431.58 338.314C434.919 337.928 437.495 340.438 437.304 343.769C436.684 352.941 434.156 370.56 434.156 370.56C433.345 374.228 408.443 380.262 407.107 376.4L409.206 350.334C409.349 348.548 410.303 346.81 411.782 345.652Z" fill="#83A4FF"/>
<path d="M395.275 340.051C395.752 339.616 396.467 339.664 396.897 340.147L396.849 339.761L396.181 338.12C396.086 337.878 396.181 337.637 396.372 337.541C396.61 337.444 396.849 337.492 396.992 337.734L397.946 339.568L398.232 340.871L398.519 339.327C398.566 339.085 398.805 338.892 399.043 338.94C399.282 338.989 399.473 339.182 399.473 339.423L399.425 343.14C399.425 344.298 399.043 344.878 398.185 345.119L397.851 345.216L396.61 345.554C395.99 345.747 395.322 345.36 395.131 344.733L394.511 342.561L394.177 341.064L395.275 340.051Z" fill="#B5ABF3"/>
<path d="M398.996 364.909C403.242 364.909 407.726 359.647 414.166 351.344C415.073 350.186 414.882 348.496 413.737 347.579C412.592 346.662 410.922 346.855 410.016 348.014C407.392 351.393 405.055 354.337 402.908 356.509C400.57 358.923 399.473 359.357 399.091 359.454C398.901 359.116 398.519 358.054 398.71 355.158C398.853 352.648 399.378 349.896 399.712 348.062L399.855 347.241C400.141 345.793 399.187 344.393 397.708 344.104C396.277 343.814 394.893 344.779 394.607 346.276L394.464 347.048C393.367 352.986 391.506 362.929 397.517 364.667C398.042 364.86 398.519 364.909 398.996 364.909Z" fill="#83A4FF"/>
<path d="M281.322 396.185V373.486C281.322 373.273 281.498 373.025 281.813 372.883L287.982 369.762C288.648 369.407 289.77 369.407 290.436 369.762L296.605 372.883C296.955 373.06 297.096 373.273 297.096 373.486V396.185H281.322Z" fill="url(#paint16_linear_2928_60687)"/>
<path d="M289.21 386.111C288.018 386.111 286.826 385.863 285.915 385.402L270.878 377.812C269.476 377.102 269.266 376.18 269.266 375.683C269.266 375.187 269.476 374.265 270.878 373.555L285.915 365.93C287.773 365.008 290.647 365.008 292.505 365.93L307.542 373.555C308.944 374.265 309.154 375.187 309.154 375.683C309.154 376.18 308.944 377.102 307.542 377.812L292.505 385.437C291.594 385.898 290.402 386.111 289.21 386.111ZM289.21 366.639C288.229 366.639 287.282 366.817 286.546 367.171L271.509 374.797C270.983 375.045 270.668 375.4 270.668 375.683C270.668 375.967 270.983 376.286 271.509 376.57L286.546 384.196C287.983 384.941 290.437 384.941 291.874 384.196L306.911 376.57C307.437 376.322 307.752 375.967 307.752 375.683C307.752 375.4 307.437 375.081 306.911 374.797L291.874 367.171C291.173 366.817 290.191 366.639 289.21 366.639Z" fill="#023AFF"/>
<path d="M303.828 356.178L291.63 350.007C290.298 349.333 288.125 349.333 286.793 350.007L274.595 356.178C273.929 356.533 273.578 356.959 273.578 357.384V373.026C273.578 373.451 273.929 373.912 274.595 374.232L286.793 380.438C288.125 381.112 290.298 381.112 291.63 380.438L303.828 374.267C304.494 373.912 304.844 373.487 304.844 373.061V357.42C304.809 356.959 304.494 356.533 303.828 356.178Z" fill="url(#paint17_linear_2928_60687)"/>
<path d="M303.83 358.626L291.632 364.797C290.3 365.471 288.127 365.471 286.795 364.797L274.597 358.626C273.265 357.952 273.265 356.852 274.597 356.178L286.795 350.007C288.127 349.333 290.3 349.333 291.632 350.007L303.83 356.178C305.162 356.852 305.162 357.952 303.83 358.626Z" fill="url(#paint18_linear_2928_60687)"/>
<path d="M296.608 358.02L290.439 361.141C289.773 361.495 288.651 361.495 287.985 361.141L281.816 358.02C281.15 357.665 281.15 357.133 281.816 356.778L287.985 353.657C288.651 353.302 289.773 353.302 290.439 353.657L296.608 356.778C297.309 357.133 297.309 357.665 296.608 358.02Z" fill="#D3DAF3"/>
<path d="M281.322 334.683V357.383C281.322 357.595 281.498 357.844 281.813 357.986L287.982 361.107C288.648 361.461 289.77 361.461 290.436 361.107L296.605 357.986C296.955 357.808 297.096 357.595 297.096 357.383V334.683H281.322Z" fill="url(#paint19_linear_2928_60687)"/>
</g>
</g>
</g>
<defs>
<linearGradient id="paint0_linear_2928_60687" x1="324.922" y1="258.903" x2="490.346" y2="258.903" gradientUnits="userSpaceOnUse">
<stop stop-color="#CED4FF"/>
<stop offset="1" stop-color="#CED4FF" stop-opacity="0"/>
</linearGradient>
<linearGradient id="paint1_linear_2928_60687" x1="231.466" y1="272.789" x2="437.11" y2="311.151" gradientUnits="userSpaceOnUse">
<stop offset="0.4252" stop-color="#F3F4FF"/>
<stop offset="0.489581" stop-color="#E5E8FE"/>
</linearGradient>
<linearGradient id="paint2_linear_2928_60687" x1="207.095" y1="244.069" x2="453.346" y2="244.069" gradientUnits="userSpaceOnUse">
<stop stop-color="#F7F8FF"/>
<stop offset="1" stop-color="#F2F3FA"/>
</linearGradient>
<linearGradient id="paint3_linear_2928_60687" x1="288.306" y1="236.06" x2="400.552" y2="236.06" gradientUnits="userSpaceOnUse">
<stop stop-color="#CED4FF"/>
<stop offset="1" stop-color="#CED4FF" stop-opacity="0"/>
</linearGradient>
<linearGradient id="paint4_linear_2928_60687" x1="243.11" y1="222.834" x2="375.2" y2="237.678" gradientUnits="userSpaceOnUse">
<stop offset="0.4252" stop-color="#F3F4FF"/>
<stop offset="0.489581" stop-color="#E5E8FE"/>
</linearGradient>
<linearGradient id="paint5_linear_2928_60687" x1="227.826" y1="178.396" x2="382.546" y2="178.396" gradientUnits="userSpaceOnUse">
<stop stop-color="#F7F8FF"/>
<stop offset="1" stop-color="#F2F3FA"/>
</linearGradient>
<linearGradient id="paint6_linear_2928_60687" x1="315.14" y1="166.406" x2="285.343" y2="120.944" gradientUnits="userSpaceOnUse">
<stop stop-color="white"/>
<stop offset="1"/>
</linearGradient>
<linearGradient id="paint7_linear_2928_60687" x1="312.916" y1="169.751" x2="295.486" y2="137.023" gradientUnits="userSpaceOnUse">
<stop stop-color="#0601FF"/>
<stop offset="1" stop-color="#0157FF" stop-opacity="0"/>
</linearGradient>
<linearGradient id="paint8_linear_2928_60687" x1="395.363" y1="238.659" x2="492.319" y2="238.659" gradientUnits="userSpaceOnUse">
<stop stop-color="#CED4FF"/>
<stop offset="0.44929" stop-color="#CED4FF" stop-opacity="0"/>
</linearGradient>
<linearGradient id="paint9_linear_2928_60687" x1="410.73" y1="188.897" x2="400.355" y2="227.31" gradientUnits="userSpaceOnUse">
<stop stop-color="#BCC0E5"/>
<stop offset="1" stop-color="#C4CAFF"/>
</linearGradient>
<linearGradient id="paint10_linear_2928_60687" x1="423.013" y1="180.589" x2="419.086" y2="205.706" gradientUnits="userSpaceOnUse">
<stop stop-color="#BCC0E5"/>
<stop offset="1" stop-color="#CCD1FF"/>
</linearGradient>
<linearGradient id="paint11_linear_2928_60687" x1="423.053" y1="201.957" x2="430.806" y2="267.541" gradientUnits="userSpaceOnUse">
<stop stop-color="#2A4DAE"/>
<stop offset="1" stop-color="#5B68F5"/>
</linearGradient>
<linearGradient id="paint12_linear_2928_60687" x1="344.98" y1="257.684" x2="441.936" y2="257.684" gradientUnits="userSpaceOnUse">
<stop stop-color="#CED4FF"/>
<stop offset="1" stop-color="#CED4FF" stop-opacity="0"/>
</linearGradient>
<linearGradient id="paint13_linear_2928_60687" x1="369.022" y1="218.149" x2="383.32" y2="274.668" gradientUnits="userSpaceOnUse">
<stop stop-color="#8EB4FF"/>
<stop offset="1" stop-color="#4D7DFF"/>
</linearGradient>
<linearGradient id="paint14_linear_2928_60687" x1="362.099" y1="224.874" x2="374.903" y2="286.276" gradientUnits="userSpaceOnUse">
<stop stop-color="#8EB4FF"/>
<stop offset="1" stop-color="#4D7DFF"/>
</linearGradient>
<linearGradient id="paint15_linear_2928_60687" x1="350.79" y1="153.847" x2="359.466" y2="191.203" gradientUnits="userSpaceOnUse">
<stop stop-color="#BCC0E5"/>
<stop offset="1" stop-color="white"/>
</linearGradient>
<linearGradient id="paint16_linear_2928_60687" x1="289.216" y1="396.391" x2="289.216" y2="369.567" gradientUnits="userSpaceOnUse">
<stop stop-color="white" stop-opacity="0"/>
<stop offset="1" stop-color="#023AFF"/>
</linearGradient>
<linearGradient id="paint17_linear_2928_60687" x1="273.777" y1="365.229" x2="304.66" y2="365.229" gradientUnits="userSpaceOnUse">
<stop stop-color="#D3D7F2"/>
<stop offset="0.45" stop-color="#BBC9F8"/>
<stop offset="0.55" stop-color="#D3D7F2"/>
<stop offset="1" stop-color="#F2F3FF"/>
</linearGradient>
<linearGradient id="paint18_linear_2928_60687" x1="280.712" y1="361.706" x2="287.65" y2="347.996" gradientUnits="userSpaceOnUse">
<stop stop-color="#E8EAFB"/>
<stop offset="1" stop-color="white"/>
</linearGradient>
<linearGradient id="paint19_linear_2928_60687" x1="289.216" y1="334.494" x2="289.216" y2="361.318" gradientUnits="userSpaceOnUse">
<stop stop-color="white" stop-opacity="0"/>
<stop offset="1" stop-color="#022AFF" stop-opacity="0.76"/>
</linearGradient>
<clipPath id="clip0_2928_60687">
<rect width="590" height="454" fill="white"/>
</clipPath>
</defs>
</svg>
