<svg width="590" height="454" viewBox="0 0 590 454" fill="none" xmlns="http://www.w3.org/2000/svg">
<g clip-path="url(#clip0_2928_60691)">
<g opacity="0.42">
<mask id="mask0_2928_60691" style="mask-type:alpha" maskUnits="userSpaceOnUse" x="-14" y="48" width="491" height="594">
<rect x="-14" y="48" width="490.832" height="594" fill="#017AFF"/>
</mask>
<g mask="url(#mask0_2928_60691)">
<g opacity="0.4">
<mask id="mask1_2928_60691" style="mask-type:alpha" maskUnits="userSpaceOnUse" x="-24" y="45" width="497" height="594">
<rect x="-23.7207" y="45.2227" width="495.75" height="592.956" fill="#017AFF"/>
</mask>
<g mask="url(#mask1_2928_60691)">
<path d="M196.787 326.91L234.708 305.015L205.49 288.096C205.304 288.034 205.117 287.909 204.993 287.785L204.869 287.723C199.833 284.426 203.75 277.957 216.68 270.493C235.33 259.732 265.542 251.023 284.191 251.023C290.657 251.023 294.884 252.081 296.873 253.885H296.935L327.085 271.301C331.686 273.478 331.126 277.646 325.407 282.684L363.203 304.517C368.674 303.584 373.771 303.087 378.247 303.087C384.712 303.087 388.94 304.144 390.929 305.948H390.991L421.141 323.365C427.606 326.413 424.001 333.255 410.262 341.155C391.613 351.916 361.4 360.624 342.751 360.624C336.534 360.624 332.369 359.629 330.318 357.949L303.214 342.274L263.366 365.289L196.787 326.91Z" fill="url(#paint0_linear_2928_60691)"/>
<path d="M351.398 230.123C351.398 249.592 337.722 273.291 320.875 283.057C304.029 292.823 290.352 284.923 290.352 265.391C290.352 245.922 304.029 222.223 320.875 212.457C337.722 202.691 351.398 210.591 351.398 230.123ZM346.798 232.735C346.798 216.189 335.173 209.471 320.875 217.744C306.515 226.017 294.952 246.171 294.952 262.717C294.952 279.263 306.577 285.98 320.875 277.708C335.173 269.435 346.798 249.343 346.798 232.735Z" fill="#CED3F8"/>
<path d="M320.876 277.772C335.236 269.499 346.799 249.345 346.799 232.799C346.799 216.253 335.174 209.536 320.876 217.808C320.316 218.119 319.757 218.493 319.198 218.866C318.327 234.354 308.008 252.207 295.015 260.666C294.953 261.35 294.953 262.097 294.953 262.781C294.891 279.327 306.516 286.045 320.876 277.772Z" fill="url(#paint1_linear_2928_60691)"/>
<path d="M354.629 228.26C354.629 249.782 339.523 275.969 320.873 286.73C302.224 297.491 287.118 288.783 287.118 267.261C287.118 245.738 302.224 219.551 320.873 208.79C339.523 198.029 354.629 206.737 354.629 228.26ZM351.396 230.126C351.396 210.656 337.72 202.756 320.873 212.46C304.026 222.226 290.35 245.925 290.35 265.394C290.35 284.864 304.026 292.764 320.873 283.06C337.72 273.294 351.396 249.595 351.396 230.126Z" fill="#C4C9EF"/>
<path d="M297.316 289.281C297.251 289.281 297.251 289.216 297.316 289.281V289.281Z" fill="#362B6E"/>
<path d="M317.954 190.999C311.799 186.894 302.972 187.205 293.212 192.803C274.562 203.564 259.456 229.752 259.456 251.274C259.456 262.221 263.373 269.81 269.651 273.293L296.755 288.968C290.788 285.361 287.12 277.896 287.12 267.26C287.12 245.738 302.226 219.55 320.875 208.789C330.635 203.129 339.463 202.88 345.617 206.985L317.954 190.999Z" fill="url(#paint2_linear_2928_60691)"/>
<path d="M408.771 215.568C414.055 212.52 414.055 207.481 408.771 204.434L363.764 178.433C358.48 175.385 349.777 175.385 344.493 178.433L300.604 203.812C295.32 206.859 295.32 211.898 300.604 214.946L345.612 240.946C350.896 243.994 359.599 243.994 364.883 240.946L408.771 215.568Z" fill="#C2C7E3"/>
<path d="M408.771 215.568C414.055 212.52 414.055 207.481 408.771 204.434L363.764 178.433C358.48 175.385 349.777 175.385 344.493 178.433L300.604 203.812C295.32 206.859 295.32 211.898 300.604 214.946L345.612 240.946C350.896 243.994 359.599 243.994 364.883 240.946L408.771 215.568Z" fill="#F6F6FB"/>
<path d="M412.686 210.345C412.561 212.274 411.256 214.14 408.769 215.57L364.881 240.949C359.597 243.997 350.956 243.997 345.672 240.949L300.664 214.948C298.053 213.455 296.685 211.403 296.685 209.412V254.571C296.685 260.854 301.97 274.787 310.983 279.515L360.716 308.252C360.84 308.314 360.902 308.377 361.026 308.439L361.213 308.563C364.694 310.367 369.357 310.056 374.516 307.07L399.196 292.826C413.245 284.677 412.748 269.5 412.748 262.72V210.345H412.686Z" fill="url(#paint3_linear_2928_60691)"/>
<path d="M412.686 210.345C412.561 212.274 411.256 214.14 408.769 215.57L364.881 240.949C359.597 243.997 350.956 243.997 345.672 240.949L300.664 214.948C298.053 213.455 296.685 211.403 296.685 209.412V254.571C296.685 260.854 301.97 274.787 310.983 279.515L360.716 308.252C360.84 308.314 360.902 308.377 361.026 308.439L361.213 308.563C364.694 310.367 369.357 310.056 374.516 307.07L399.196 292.826C413.245 284.677 412.748 269.5 412.748 262.72V210.345H412.686Z" fill="url(#paint4_linear_2928_60691)"/>
<path d="M443.213 283.249C443.213 302.718 429.537 326.417 412.69 336.183C395.843 345.949 382.167 338.049 382.167 318.518C382.167 299.048 395.843 275.349 412.69 265.583C429.537 255.88 443.213 263.779 443.213 283.249ZM438.613 285.861C438.613 269.315 426.988 262.598 412.69 270.87C398.33 279.143 386.767 299.297 386.767 315.843C386.767 332.389 398.392 339.107 412.69 330.834C426.988 322.561 438.613 302.469 438.613 285.861Z" fill="#CED3F8"/>
<path d="M412.69 330.896C427.051 322.623 438.613 302.469 438.613 285.923C438.613 269.377 426.988 262.66 412.69 270.933C412.131 271.244 411.571 271.617 411.012 271.99C410.142 287.416 399.822 305.331 386.83 313.79C386.768 314.474 386.768 315.221 386.768 315.905C386.705 332.451 398.33 339.169 412.69 330.896Z" fill="url(#paint5_linear_2928_60691)"/>
<path d="M446.443 281.384C446.443 302.906 431.337 329.093 412.688 339.854C394.038 350.615 378.932 341.907 378.932 320.385C378.932 298.863 394.038 272.675 412.688 261.914C431.337 251.153 446.443 259.861 446.443 281.384ZM443.211 283.25C443.211 263.78 429.534 255.881 412.688 265.584C395.841 275.35 382.165 299.049 382.165 318.519C382.165 337.988 395.841 345.888 412.688 336.184C429.534 326.418 443.211 302.719 443.211 283.25Z" fill="#BCC0E6"/>
<path d="M409.767 244.123C403.612 240.018 394.785 240.329 385.025 245.927C366.375 256.688 351.269 282.876 351.269 304.398C351.269 315.345 355.186 322.934 361.464 326.417L388.63 342.092C382.663 338.485 378.995 331.02 378.995 320.384C378.995 298.862 394.101 272.674 412.75 261.913C422.51 256.253 431.338 256.004 437.492 260.109L409.767 244.123Z" fill="url(#paint6_linear_2928_60691)"/>
<path d="M424.748 131.53C424.686 133.52 423.38 135.448 420.769 136.941L376.881 162.32C371.597 165.368 362.893 165.368 357.609 162.32L288.606 122.448C285.933 120.893 284.628 118.903 284.628 116.912V197.527C284.628 199.517 285.933 201.57 288.606 203.063L357.609 242.935C362.893 245.982 371.597 245.982 376.881 242.935L420.769 217.556C423.567 215.939 424.872 213.824 424.748 211.709V131.53Z" fill="url(#paint7_linear_2928_60691)"/>
<path d="M420.769 137.004C426.053 133.956 426.053 128.917 420.769 125.87L351.766 85.9977C346.482 82.9498 337.779 82.9498 332.495 85.9977L288.606 111.376C283.322 114.424 283.322 119.463 288.606 122.511L357.61 162.382C362.894 165.43 371.597 165.43 376.881 162.382L420.769 137.004Z" fill="white"/>
<path d="M288.608 111.377L311.361 98.252C311.858 98.252 312.355 98.252 312.853 98.252H329.327C337.097 98.252 346.608 100.056 350.525 102.357L392.984 126.865C396.9 129.105 393.73 130.971 385.897 130.971L355.995 147.89C359.912 150.129 356.741 151.995 348.909 151.995H339.522L288.608 122.573C283.324 119.463 283.324 114.425 288.608 111.377Z" fill="url(#paint8_linear_2928_60691)"/>
<path d="M331.375 87.431C315.772 78.4116 303.09 85.7516 303.09 103.79V113.307C303.09 117.786 306.261 123.26 310.115 125.561L352.636 150.069C356.552 152.308 359.723 150.504 359.723 145.964V136.447C359.66 118.408 346.979 96.4504 331.375 87.431Z" fill="#BBC0E6"/>
<path d="M310.238 113.246V103.729C310.238 96.8867 312.351 91.8483 315.833 88.9247C310.238 90.9774 306.694 96.8867 306.694 105.844V115.361C306.694 117.6 308.248 120.337 310.238 121.457L352.634 145.964C354.561 147.084 356.178 146.151 356.178 143.912V143.85L313.781 119.342C311.792 118.284 310.238 115.547 310.238 113.246Z" fill="url(#paint9_linear_2928_60691)"/>
<path d="M331.377 91.5358C325.472 88.1146 320.001 87.3682 315.774 88.9233C312.293 91.8468 310.179 96.8852 310.179 103.727V113.244C310.179 115.484 311.733 118.221 313.722 119.34L356.119 143.848V134.393C356.119 118.656 345.054 99.4355 331.377 91.5358Z" fill="url(#paint10_linear_2928_60691)"/>
<path d="M351.332 134.083C351.332 118.284 340.205 99.0629 326.591 91.1632C323.98 89.6703 321.431 88.6751 319.069 88.1775C322.674 87.8665 326.902 88.9239 331.377 91.4742C345.054 99.3739 356.119 118.595 356.119 134.394V143.849L351.332 141.05V134.083Z" fill="url(#paint11_linear_2928_60691)"/>
<path d="M368.053 66.282C360.22 61.7412 353.133 61.368 348.036 64.3537L311.483 85.5026C316.58 82.5791 323.667 83.0145 331.438 87.4931C347.041 96.5125 359.723 118.47 359.723 136.509V146.026C359.723 148.265 358.977 149.82 357.734 150.566L394.162 129.48C395.53 128.796 396.4 127.178 396.4 124.815V115.298C396.338 97.2589 383.657 75.3014 368.053 66.282Z" fill="url(#paint12_linear_2928_60691)"/>
<path d="M288.73 123.76C279.529 125.938 271.261 133.713 265.418 145.656C258.89 159.029 255.161 178.872 261.626 193.116L276.918 186.15C273.437 178.499 274.991 164.254 280.462 152.996C283.943 145.842 288.481 141.053 292.584 140.058L288.73 123.76Z" fill="url(#paint13_linear_2928_60691)"/>
<path d="M330.069 237.279C328.764 237.279 327.458 237.216 326.215 236.967C323.915 236.532 322.423 234.355 322.858 232.116C323.293 229.814 325.469 228.321 327.707 228.757C330.567 229.254 335.478 228.57 337.778 227.824C340.016 227.14 342.316 228.384 343 230.561C343.683 232.8 342.44 235.101 340.264 235.786C338.088 236.47 333.986 237.279 330.069 237.279Z" fill="#002CC6"/>
<path d="M293.641 163.57L243.909 192.308L302.965 226.457L352.76 197.72L293.641 163.57Z" fill="#6B8BFF"/>
<path d="M292.895 172.591L259.513 191.874L279.965 203.693L313.348 184.41L292.895 172.591Z" fill="#012AFF"/>
<path d="M352.76 197.72L302.965 226.458V247.295L352.76 218.558V197.72Z" fill="#012AFF"/>
<path d="M302.967 226.456L243.91 192.306V213.144L302.967 247.293V226.456Z" fill="#0020C8"/>
<path d="M282.14 193.179L296.189 185.03L291.651 182.418L277.602 190.566L282.14 193.179Z" fill="white"/>
<path d="M376.51 185.398L397.397 162.632L408.4 172.958L387.513 195.724L376.51 185.398Z" fill="url(#paint14_linear_2928_60691)"/>
<path d="M340.828 230.809C339.025 230.809 337.408 229.689 336.849 227.885C335.979 225.086 333.057 221.105 331.316 219.363C329.7 217.746 329.7 215.071 331.316 213.454C332.933 211.837 335.606 211.837 337.222 213.454C339.398 215.631 343.376 220.794 344.806 225.335C345.49 227.512 344.247 229.875 342.071 230.56C341.636 230.746 341.201 230.809 340.828 230.809Z" fill="#002CC6"/>
<path d="M393.109 173.643C393.109 168.107 396.963 161.389 401.75 158.652C406.536 155.915 410.391 158.155 410.391 163.628C410.391 169.164 406.536 175.882 401.75 178.619C397.025 181.418 393.109 179.179 393.109 173.643Z" fill="#CED3F8"/>
<path d="M409.209 163.816C409.209 163.816 405.417 159.213 403.614 157.783C402.992 157.969 402.433 158.218 401.749 158.591C397.77 160.893 394.414 165.931 393.419 170.721C394.165 172.4 395.035 173.706 395.532 174.204C402.557 182.041 398.081 194.544 392.176 202.817C382.602 216.253 365.072 226.454 345.552 219.425C335.605 220.483 332.621 230.186 339.087 234.851C365.942 246.172 392.486 231.182 405.79 212.521C418.285 195.042 418.969 174.95 409.209 163.816Z" fill="url(#paint15_linear_2928_60691)"/>
<path d="M347.973 122.451C347.973 120.709 346.729 118.594 345.237 117.724C343.745 116.853 342.502 117.537 342.502 119.279C342.502 121.02 343.745 123.135 345.237 124.006C346.792 124.939 347.973 124.193 347.973 122.451Z" fill="#002FA8"/>
<path d="M327.648 110.696C327.648 108.955 326.405 106.84 324.913 105.969C323.421 105.098 322.178 105.782 322.178 107.524C322.178 109.266 323.421 111.38 324.913 112.251C326.405 113.122 327.648 112.438 327.648 110.696Z" fill="#002FA8"/>
</g>
<path d="M448.742 140.674C448.742 132.575 455.295 122.709 463.394 118.734C463.835 118.513 464.351 118.292 464.792 118.071C463.983 116.083 463.541 113.801 463.541 111.15C463.541 98.1923 473.996 82.4365 486.953 76.0312C492.696 73.1598 497.997 72.5708 502.047 74.0433H502.12C502.856 74.3378 503.593 74.6323 504.182 75.0005L526.711 85.4552C526.932 85.5288 527.226 85.6761 527.447 85.8233H527.521C527.594 85.8233 527.594 85.8969 527.668 85.8969L539.448 91.7869C542.687 93.4067 544.675 96.7934 544.675 101.726C544.675 111.518 536.724 123.446 526.932 128.305L475.542 154C475.468 154 475.468 154.073 475.394 154.073C471.419 156.061 467.811 156.282 465.161 155.031H465.087C465.013 155.031 465.013 154.957 464.94 154.957L452.644 148.846C450.288 147.374 448.742 144.576 448.742 140.674Z" fill="url(#paint16_linear_2928_60691)"/>
<path d="M475.615 153.999C475.541 153.999 475.541 154.073 475.468 154.073C467.369 158.122 460.816 154.809 460.816 146.784C460.816 138.685 467.369 128.82 475.468 124.844C475.91 124.623 476.425 124.402 476.867 124.181C476.057 122.193 475.615 119.911 475.615 117.261C475.615 104.303 486.07 88.547 499.028 82.1416C511.986 75.6626 522.44 80.89 522.44 93.8479C522.44 94.5105 522.44 95.1732 522.367 95.8358C523.839 94.7314 525.385 93.7007 527.005 92.8908C536.797 88.0316 544.749 91.9337 544.749 101.726C544.749 111.518 536.797 123.445 527.005 128.304L475.615 153.999Z" fill="url(#paint17_linear_2928_60691)"/>
</g>
</g>
</g>
</g>
<defs>
<linearGradient id="paint0_linear_2928_60691" x1="332.763" y1="272.279" x2="275.069" y2="372.148" gradientUnits="userSpaceOnUse">
<stop stop-color="#0014C8"/>
<stop offset="0.989" stop-color="#005FC8" stop-opacity="0"/>
</linearGradient>
<linearGradient id="paint1_linear_2928_60691" x1="304.772" y1="280.871" x2="341.507" y2="217.283" gradientUnits="userSpaceOnUse">
<stop stop-color="#F6F6FB"/>
<stop offset="1" stop-color="#BBC0E6"/>
</linearGradient>
<linearGradient id="paint2_linear_2928_60691" x1="271.69" y1="274.481" x2="319.445" y2="191.816" gradientUnits="userSpaceOnUse">
<stop stop-color="#E9EFFE"/>
<stop offset="1" stop-color="#F4F8FF"/>
</linearGradient>
<linearGradient id="paint3_linear_2928_60691" x1="296.619" y1="259.511" x2="412.713" y2="259.511" gradientUnits="userSpaceOnUse">
<stop offset="0.4106" stop-color="#A3A9D0"/>
<stop offset="0.4558" stop-color="#A8ADD4"/>
<stop offset="0.6761" stop-color="#BBC0E6"/>
</linearGradient>
<linearGradient id="paint4_linear_2928_60691" x1="327.861" y1="289.299" x2="383.298" y2="193.337" gradientUnits="userSpaceOnUse">
<stop stop-color="#A7AED5"/>
<stop offset="0.0108876" stop-color="#AEB5D8"/>
<stop offset="0.0698896" stop-color="#D1D5E9"/>
<stop offset="0.1255" stop-color="#EAECF5"/>
<stop offset="0.176" stop-color="#FAFAFC"/>
<stop offset="0.2168" stop-color="white"/>
</linearGradient>
<linearGradient id="paint5_linear_2928_60691" x1="396.588" y1="333.996" x2="433.322" y2="270.408" gradientUnits="userSpaceOnUse">
<stop stop-color="#F6F6FB"/>
<stop offset="1" stop-color="#BBC0E6"/>
</linearGradient>
<linearGradient id="paint6_linear_2928_60691" x1="363.502" y1="327.606" x2="411.258" y2="244.941" gradientUnits="userSpaceOnUse">
<stop stop-color="#CFD4F9"/>
<stop offset="1" stop-color="#FEFEFF"/>
</linearGradient>
<linearGradient id="paint7_linear_2928_60691" x1="284.634" y1="181.105" x2="424.719" y2="181.105" gradientUnits="userSpaceOnUse">
<stop offset="0.5143" stop-color="#BBC0E6"/>
<stop offset="0.6822" stop-color="#CED3F8"/>
</linearGradient>
<linearGradient id="paint8_linear_2928_60691" x1="394.563" y1="125.052" x2="284.637" y2="125.052" gradientUnits="userSpaceOnUse">
<stop stop-color="#D1D7F3"/>
<stop offset="0.2865" stop-color="#D9DEF5"/>
<stop offset="0.7248" stop-color="#EEF0FB"/>
<stop offset="1" stop-color="white"/>
</linearGradient>
<linearGradient id="paint9_linear_2928_60691" x1="309.427" y1="92.3945" x2="344.172" y2="152.538" gradientUnits="userSpaceOnUse">
<stop offset="0.1966" stop-color="#CED3F8"/>
<stop offset="0.3042" stop-color="#E1E4F9"/>
<stop offset="0.4" stop-color="#F6F6FB"/>
</linearGradient>
<linearGradient id="paint10_linear_2928_60691" x1="355.704" y1="141.238" x2="308.245" y2="88.228" gradientUnits="userSpaceOnUse">
<stop stop-color="#FEFEFF"/>
<stop offset="1" stop-color="#CFD4F9"/>
</linearGradient>
<linearGradient id="paint11_linear_2928_60691" x1="331.819" y1="122.534" x2="348.897" y2="103.458" gradientUnits="userSpaceOnUse">
<stop stop-color="#C4CAE9"/>
<stop offset="0.4975" stop-color="#DBDEF1"/>
<stop offset="1" stop-color="#F6F6FB"/>
</linearGradient>
<linearGradient id="paint12_linear_2928_60691" x1="339.721" y1="69.1048" x2="379.469" y2="137.909" gradientUnits="userSpaceOnUse">
<stop stop-color="white"/>
<stop offset="0.3885" stop-color="#E9EBFC"/>
<stop offset="0.7836" stop-color="#CED3F8"/>
</linearGradient>
<linearGradient id="paint13_linear_2928_60691" x1="284.134" y1="161.673" x2="258.792" y2="152.379" gradientUnits="userSpaceOnUse">
<stop stop-color="white"/>
<stop offset="1" stop-color="#CED3F8"/>
</linearGradient>
<linearGradient id="paint14_linear_2928_60691" x1="403.01" y1="167.871" x2="381.891" y2="190.452" gradientUnits="userSpaceOnUse">
<stop stop-color="#7183DB"/>
<stop offset="0.8927" stop-color="#CED3F8" stop-opacity="0"/>
</linearGradient>
<linearGradient id="paint15_linear_2928_60691" x1="415.789" y1="167.513" x2="348.441" y2="244.76" gradientUnits="userSpaceOnUse">
<stop stop-color="#FDFDFD"/>
<stop offset="1" stop-color="#CFD4F9"/>
</linearGradient>
<linearGradient id="paint16_linear_2928_60691" x1="515.486" y1="79.9282" x2="478.931" y2="161.16" gradientUnits="userSpaceOnUse">
<stop stop-color="#E3E4F8"/>
<stop offset="0.1112" stop-color="#F2F3FF"/>
<stop offset="0.6019" stop-color="#D3D7F2"/>
<stop offset="0.6461" stop-color="#E1E3F8"/>
<stop offset="0.7358" stop-color="#F2F3FF"/>
<stop offset="0.9196" stop-color="#E1E3F8"/>
<stop offset="1" stop-color="#E2E7FB"/>
</linearGradient>
<linearGradient id="paint17_linear_2928_60691" x1="544.735" y1="117.514" x2="460.81" y2="117.514" gradientUnits="userSpaceOnUse">
<stop stop-color="#E8EAFB"/>
<stop offset="1" stop-color="white"/>
</linearGradient>
<clipPath id="clip0_2928_60691">
<rect width="590" height="454" fill="white"/>
</clipPath>
</defs>
</svg>
