<svg width="96" height="96" viewBox="0 0 96 96" fill="none" xmlns="http://www.w3.org/2000/svg">
<path d="M41.3398 92.3089L4.78101 70.9635C3.53397 70.2354 3.52872 68.4352 4.7715 67.6999L44.2521 44.3387C47.7661 42.2594 52.1482 42.3218 55.6016 44.5003L90.3879 66.4442C91.5832 67.1983 91.5606 68.9488 90.3462 69.6717L52.3946 92.2623C48.9925 94.2874 44.7589 94.3053 41.3398 92.3089Z" stroke="#017AFF"/>
<path d="M41.453 87.4237L12.9083 70.7683C11.6606 70.0403 11.6554 68.2393 12.8988 67.5041L43.8126 49.2238C47.3253 47.1467 51.7047 47.209 55.1568 49.3852L82.2607 66.4719C83.4567 67.2258 83.4341 68.9771 82.219 69.6999L52.5025 87.3771C49.1017 89.4001 44.8708 89.418 41.453 87.4237Z" fill="#017AFF"/>
<path fill-rule="evenodd" clip-rule="evenodd" d="M19.839 69.7463L41.6118 82.252C44.9968 84.1963 49.1638 84.1788 52.5324 82.2063L75.2912 68.8794C75.8941 68.5264 76.2069 67.9212 76.2266 67.3074L76.2286 67.3074V63.2787L71.6296 63.3396L54.7198 52.8459C51.2987 50.723 46.9851 50.662 43.5054 52.6875L24.1257 63.9683L18.8848 64.0376V68.1333L18.8891 68.1333C18.8984 68.7627 19.2153 69.3881 19.839 69.7463Z" fill="#5FABFF"/>
<path d="M41.6115 78.2521L19.8386 65.7464C18.5761 65.0212 18.5708 63.2016 19.8292 62.4692L43.5051 48.6876C46.9847 46.6621 51.2983 46.7231 54.7194 48.846L75.3325 61.6378C76.5436 62.3893 76.5209 64.1593 75.2909 64.8795L52.5321 78.2064C49.1635 80.1789 44.9965 80.1964 41.6115 78.2521Z" fill="white"/>
<ellipse opacity="0.56" cx="46.6424" cy="64.8578" rx="16.6475" ry="5.53796" transform="rotate(30 46.6424 64.8578)" fill="url(#paint0_radial_2476_70563)"/>
<path opacity="0.2" d="M19.7824 65.725L41.5552 78.2306C44.9402 80.1749 49.1072 80.1574 52.4758 78.1849L75.2346 64.8581C75.8375 64.505 76.1503 63.8999 76.17 63.286L76.1719 63.286V59.2573V12.8668L18.8325 12.8666L18.8281 60.0163V64.112L18.8325 64.1119C18.8417 64.7413 19.1586 65.3667 19.7824 65.725Z" fill="url(#paint1_linear_2476_70563)"/>
<circle cx="66" cy="62.0664" r="1" fill="#017AFF"/>
<circle cx="30" cy="61.0664" r="1" fill="#017AFF"/>
<circle cx="30" cy="43.0664" r="1" fill="#017AFF"/>
<circle cx="37" cy="32.0664" r="1" fill="#017AFF"/>
<circle cx="31" cy="31.0664" r="1" fill="#017AFF"/>
<circle cx="41" cy="21.0664" r="1" fill="#017AFF"/>
<circle cx="59" cy="22.0664" r="1" fill="#017AFF"/>
<circle cx="72" cy="46.0664" r="1" fill="#017AFF"/>
<circle cx="70.5" cy="55.5664" r="0.5" fill="#017AFF"/>
<circle cx="36.5" cy="40.5664" r="0.5" fill="#017AFF"/>
<circle cx="49.5" cy="14.5664" r="0.5" fill="#017AFF"/>
<circle cx="34.5" cy="17.5664" r="0.5" fill="#017AFF"/>
<circle cx="63.5" cy="23.5664" r="0.5" fill="#017AFF"/>
<circle cx="70.5" cy="38.5664" r="0.5" fill="#017AFF"/>
<circle cx="25.5" cy="48.5664" r="0.5" fill="#017AFF"/>
<circle cx="34.5" cy="65.5664" r="0.5" fill="#017AFF"/>
<path fill-rule="evenodd" clip-rule="evenodd" d="M33.9203 17.8632L33.9792 17.8313L33.9897 17.8503C34.5122 17.7839 35.2919 18.3373 35.8287 19.2812L39.4555 25.6581L41.3431 25.2075C41.3462 24.9331 41.3843 24.61 41.4966 24.3208L40.8796 23.0305L43.0592 21.7345L43.0787 21.7383C43.3057 21.6237 43.6118 21.6466 43.9567 21.8457L44.1125 21.9357C44.1134 21.9362 44.1143 21.9367 44.1151 21.9372L44.5172 22.0144L44.0165 20.7331L45.9762 19.6132C46.0635 19.5332 46.1645 19.4718 46.2768 19.4305C46.5089 19.3453 46.8302 19.4499 47.134 19.6124L47.8646 19.1873L47.872 19.1989L48.9317 19.8107V20.7375C49.1101 20.8088 49.5347 20.9906 49.8064 21.1475C50.146 21.3435 51.247 22.6209 51.1647 23.6665C51.1109 24.3503 50.8766 24.7114 50.6922 24.9957C50.5945 25.1462 50.5109 25.2751 50.4753 25.419C50.3724 25.8349 50.5164 26.4528 50.7325 26.8984C50.9054 27.2548 51.3397 27.7361 51.5352 27.9321C51.3191 26.9519 51.8747 26.4172 52.6465 26.8628L52.7977 26.9501C53.6218 27.4258 54.228 28.6673 54.0325 29.4788L53.8813 30.1066C54.094 30.2769 54.6222 30.8409 55.0339 31.7345C55.4231 32.5794 55.4504 33.3918 55.4116 33.7456L55.4301 33.7667L55.4075 33.7795C55.4065 33.7873 55.4054 33.7948 55.4043 33.802L55.3863 33.7916L53.0443 35.1216L51.8174 33.8091C51.7889 34.6599 52.1532 35.6564 52.3687 36.1012C52.5642 36.1982 53.0149 36.498 53.2536 36.921C53.4924 37.344 53.5589 37.8577 53.5624 38.0617L61.0107 33.7615C61.801 33.3052 63.1638 34.4684 63.3587 35.8517C63.4986 36.8451 63.2112 38.3569 63.05 38.9886L64.1922 39.0072C65.1347 39.0225 66.1685 40.2287 65.9558 41.2907C65.8715 41.7115 65.7364 42.155 65.5299 42.5948C64.8384 44.0682 63.3827 44.3851 62.7413 44.3594L64.6532 45.3474C65.4795 45.7744 66.1518 46.8584 65.7516 47.4637C65.5044 47.8377 65.0995 48.2019 64.4597 48.4646C62.9203 49.0968 61.136 48.1616 60.4362 47.6151L61.44 48.6543C62.2724 49.5162 62.6256 50.7853 61.8867 50.919L59.6916 52.1695L57.619 51.1087C57.5461 51.5808 57.2031 51.8049 56.6391 51.5065C55.6513 50.9837 54.8486 50.1915 54.5708 49.8608C54.7046 50.0806 54.9783 50.6712 55.003 51.2748C55.0277 51.8784 54.7732 52.3224 54.6428 52.4689L56.987 55.3479L57.5413 55.0465L57.7913 54.9018L57.9152 54.1982L60.1882 52.9394C60.2181 52.9122 60.2531 52.8928 60.2922 52.8818L60.3145 52.8694C60.3181 52.8711 60.3216 52.8729 60.3252 52.8747C60.4079 52.8619 60.506 52.8835 60.6112 52.9442C60.9067 53.1148 61.1463 53.5298 61.1463 53.871V54.3405C61.2004 54.551 61.2438 54.7602 61.2788 54.951C62.0066 55.6874 63.2276 57.3227 63.1735 58.9269C63.1158 60.6332 62.0244 60.8181 61.4859 60.6973L61.4138 60.929L60.9096 61.8618C60.8845 61.887 60.8514 61.9124 60.8112 61.9341L60.8105 61.9365L58.4872 63.2006L58.2062 62.1671L53.4128 56.7073L53.1537 56.8532C53.082 56.9158 52.9988 56.9611 52.9074 56.992L50.7347 58.2159L49.9494 57.8673C49.8354 57.8596 49.72 57.8484 49.6103 57.8378C49.3397 57.8117 49.1029 57.7889 49.0038 57.8278C48.8987 57.869 48.8091 57.943 48.7279 58.01C48.6103 58.107 48.5104 58.1894 48.4069 58.1367C48.2815 58.0728 48.1984 57.9784 48.0249 57.641L47.7758 58.2861L46.6558 55.7556C46.4385 55.5305 46.2341 55.3034 46.0813 55.0592C45.7867 54.5885 45.733 54.0329 45.747 53.7023L45.6262 53.4294C45.5437 53.3684 45.4547 53.3051 45.3615 53.2387C44.6127 52.7054 43.5884 51.9758 43.3647 50.7341C43.2436 50.0617 43.4501 49.4074 43.6646 48.9971L43.5081 48.6434L39.2851 48.0827C39.2994 48.1527 39.3121 48.2349 39.3206 48.328C39.3453 48.5989 39.132 48.833 39.0222 48.9162L40.1303 51.4753C40.2736 51.8061 40.2334 52.1094 40.0484 52.1962L37.6265 53.5185C37.2386 52.6327 36.4551 50.8399 36.4233 50.7553C36.3916 50.6707 36.2338 49.0893 36.1589 48.3092L37.1814 48.5648C37.0892 48.44 37.0044 48.2875 36.9333 48.1022C36.8851 47.9768 36.8498 47.8616 36.8252 47.7561L35.3422 47.5591L32.8579 42.0743L30.2446 36.8799L32.6239 35.5384L33.5368 35.3711L35.1276 34.8993C35.0918 34.5239 35.1666 34.19 35.3439 33.9616L34.5031 32.3709C34.0588 31.9912 33.5834 31.5482 33.1294 31.0595C32.667 30.5619 32.2172 29.8298 31.8155 29.0443C31.3786 28.1901 31.4172 27.4945 31.7436 27.1505L28.8809 21.7345L31.0487 20.6048C31.1049 20.5366 31.1723 20.4841 31.249 20.4473L31.458 19.1944L33.6814 17.9923C33.75 17.928 33.8306 17.8854 33.9203 17.8632Z" fill="#3D8AFF"/>
<path fill-rule="evenodd" clip-rule="evenodd" d="M40.8263 33.5066L33.4787 20.5874C32.6379 19.109 31.2011 18.5885 31.0906 19.9076C31.0774 20.0642 31.0702 20.2242 31.0702 20.3862C31.0702 21.6659 31.2667 22.9161 31.3649 23.3813L30.6534 22.5554C29.5637 21.2905 28.2737 21.4029 28.5521 22.9363C28.6734 23.6045 28.8618 24.2833 29.1457 24.8844C29.9477 26.5822 31.0393 28.2642 31.4849 28.8931L30.7342 28.4596C29.476 27.7333 28.6574 28.7705 29.4655 30.3506C29.8673 31.136 30.317 31.8681 30.7794 32.3658C31.9824 33.6606 33.3351 34.6345 33.8611 34.9596L33.7195 34.954C32.5266 34.9066 32.4047 36.6892 33.6491 37.9012C34.1823 38.4204 34.7297 38.8752 35.2349 39.1612C36.7498 40.0187 37.7226 40.2187 38.0196 40.2116L37.7201 40.4261C36.8671 41.0367 37.4578 43.2518 38.7251 43.7701C39.438 44.0616 39.7523 44.0416 39.8204 43.9952C39.6348 44.181 39.2895 44.7262 39.3934 45.4207C39.4974 46.1153 39.7214 46.5318 39.8204 46.6533L35.8476 46.5676C35.7692 46.3857 35.5506 45.9912 35.3036 45.8676C35.0567 45.744 34.8166 45.721 34.7274 45.725L33.2353 42.2732C33.3588 42.0839 33.5316 41.4543 33.2353 40.4505C32.9389 39.4467 32.0828 38.9819 31.6917 38.8749L31.0684 37.4313C30.9067 37.0568 30.5785 36.7902 30.3344 36.8349C30.0936 36.8791 30.0236 37.2104 30.1768 37.581L30.7759 39.0306C30.625 39.3094 30.4363 40.0917 30.8891 40.99C31.3419 41.8883 32.0039 42.3109 32.2783 42.4099L33.7807 45.8082C33.6229 45.9032 33.3732 46.274 33.6366 46.9964C33.9 47.7188 34.4735 48.0183 34.7274 48.0777C34.5387 48.1549 34.2458 48.5292 34.5833 49.4085C34.9208 50.2878 35.5668 50.4278 35.8476 50.3879L36.9207 52.9351C37.0736 53.2979 37.3898 53.5609 37.6284 53.5236C37.8716 53.4856 37.9402 53.1507 37.7804 52.7815L36.6722 50.2224C36.782 50.1392 36.9953 49.9052 36.9707 49.6342C36.946 49.3633 36.8849 49.1847 36.8575 49.1292L41.5087 49.9966C41.2617 50.3056 40.8557 51.1574 41.0147 52.0404C41.2384 53.282 42.2627 54.0116 43.0115 54.545C43.1585 54.6496 43.2948 54.7467 43.4124 54.8386C43.3712 55.1119 43.3774 55.7999 43.7314 56.3655C43.9273 56.6785 44.2079 56.9636 44.492 57.2521C44.8495 57.6153 45.2125 57.9841 45.419 58.4211C45.7894 59.2053 45.882 59.3538 46.057 59.443C46.1604 59.4957 46.2603 59.4133 46.3779 59.3162C46.4591 59.2492 46.5487 59.1753 46.6538 59.134C46.7529 59.0951 46.9897 59.118 47.2603 59.1441C47.6918 59.1857 48.2094 59.2357 48.3928 59.0568C48.6316 58.8239 48.6364 58.1478 48.6089 57.8389C49.2023 58.1854 50.4982 58.7039 50.9345 58.0052C51.3708 57.3066 50.8213 55.7456 50.4921 55.0525L55.3491 60.0905C55.3662 60.2866 55.5055 60.7773 55.9253 61.1718C56.3452 61.5663 56.7794 61.4827 56.9441 61.3916C56.9029 61.6451 56.9502 62.2983 57.4689 62.8829C57.9875 63.4675 58.4121 63.3166 58.5596 63.168L59.0638 62.2353L59.1359 62.0036C59.6744 62.1244 60.7659 61.9394 60.8235 60.2331C60.8811 58.5269 59.496 56.7853 58.7963 56.1278L58.7963 55.1773C58.7963 54.836 58.5567 54.4211 58.2612 54.2505C57.9657 54.0798 57.7261 54.2182 57.7261 54.5594L57.7261 55.51C57.3454 55.409 56.4913 55.3626 56.1208 55.9853C55.7504 56.6079 55.7881 57.6864 55.8533 58.1478L52.2929 53.7752C52.4232 53.6286 52.6777 53.1846 52.653 52.581C52.6283 51.9774 52.3546 51.3869 52.2208 51.167C52.4987 51.4978 53.3013 52.2899 54.2892 52.8127C55.3078 53.3518 55.6058 52.1859 54.8926 50.9328L54.0319 49.4204C54.5156 50.0323 55.9521 51.4083 57.829 52.0166C58.55 52.2503 59.1027 52.291 59.5177 52.2284C60.2816 52.1131 59.9295 50.8298 59.09 49.9606L58.0863 48.9213C58.786 49.4679 60.5703 50.403 62.1098 49.7709C62.7496 49.5082 63.1544 49.144 63.4017 48.77C63.8018 48.1646 63.1296 47.0806 62.3032 46.6536L60.3913 45.6656C61.0327 45.6913 62.4884 45.3745 63.18 43.9011C63.3864 43.4612 63.5216 43.0178 63.6058 42.5969C63.8185 41.535 62.7847 40.3288 61.8423 40.3134L60.7 40.2949C60.8612 39.6631 61.1487 38.1513 61.0087 37.158C60.8138 35.7746 59.451 34.6114 58.6607 35.0677L51.2124 39.368C51.2089 39.164 51.1424 38.6503 50.9037 38.2273C50.6649 37.8043 50.2142 37.5044 50.0187 37.4074C49.7683 36.8905 49.3169 35.6287 49.5145 34.7161C49.7121 33.8035 50.5984 33.8131 51.0169 33.9319L53.0543 35.1082C53.1024 34.7914 53.0955 33.9343 52.6839 33.0407C52.2723 32.1472 51.744 31.5832 51.5314 31.4129L51.6826 30.785C51.878 29.9735 51.2718 28.7321 50.4478 28.2563L50.2965 28.169C49.5248 27.7234 48.9691 28.2581 49.1852 29.2384C48.9897 29.0423 48.5554 28.5611 48.3826 28.2046C48.1665 27.759 48.0224 27.1412 48.1253 26.7253C48.1609 26.5814 48.2446 26.4524 48.3422 26.302C48.5267 26.0176 48.7609 25.6566 48.8147 24.9728C48.8971 23.9271 47.796 22.6498 47.4564 22.4537C47.1848 22.2969 46.7601 22.115 46.5818 22.0437L46.5818 21.1169L45.5116 20.499L45.5116 21.4259C45.172 21.1268 44.3796 20.5704 43.9269 20.7368C43.3609 20.9447 43.0831 21.6636 43.4021 22.6914C43.4859 22.9615 43.5676 23.1902 43.641 23.3956C43.8469 23.9719 43.9876 24.3656 43.9269 24.9787C43.861 25.6441 43.2066 25.6718 42.8876 25.6024C43.0952 24.8626 42.5355 23.6882 41.7625 23.2419L41.6067 23.152C40.749 22.6568 40.1316 23.2513 40.3721 24.3408L40.5312 25.0619C40.2436 24.9472 39.5876 24.8511 39.2647 25.3846C38.9418 25.9182 38.9725 26.6906 39.0281 27.0102L41.0601 28.1833C41.4637 28.471 42.3211 29.3727 42.5215 30.6787C42.7219 31.9846 42.2709 32.6301 42.0204 32.7896C41.8509 32.6487 41.4347 32.428 41.1264 32.6728C40.8181 32.9175 40.7979 33.3306 40.8263 33.5066ZM45.0122 24.9633L47.0064 26.1147C46.9925 26.4563 47.0544 27.3433 47.4136 28.1583C47.7728 28.9733 48.3568 29.6874 48.6039 29.9426C48.2489 29.9426 47.4324 30.0113 47.0064 30.2862C46.5804 30.561 46.1816 32.0363 46.0354 32.7396C46.0076 32.0765 45.7639 30.4272 45.0122 29.1348C44.2605 27.8424 43.634 27.1375 43.4148 26.9466C43.7558 26.9667 44.5048 26.8839 44.7721 26.3921C45.0394 25.9002 45.0435 25.2346 45.0122 24.9633Z" fill="url(#paint2_linear_2476_70563)"/>
<defs>
<radialGradient id="paint0_radial_2476_70563" cx="0" cy="0" r="1" gradientUnits="userSpaceOnUse" gradientTransform="translate(46.6424 64.8578) rotate(90) scale(5.53796 16.6475)">
<stop stop-color="#479FFF" stop-opacity="0.36"/>
<stop offset="1" stop-color="#479FFF" stop-opacity="0"/>
</radialGradient>
<linearGradient id="paint1_linear_2476_70563" x1="47.5" y1="12.8667" x2="47.5" y2="79.6767" gradientUnits="userSpaceOnUse">
<stop stop-color="#017AFF" stop-opacity="0"/>
<stop offset="1" stop-color="#017AFF"/>
</linearGradient>
<linearGradient id="paint2_linear_2476_70563" x1="28.5137" y1="20.0007" x2="36.3174" y2="67.3142" gradientUnits="userSpaceOnUse">
<stop stop-color="#3D9AFF"/>
<stop offset="1" stop-color="#88C0FF"/>
</linearGradient>
</defs>
</svg>
