<svg width="35" height="53" viewBox="0 0 35 53" fill="none" xmlns="http://www.w3.org/2000/svg">
<g clip-path="url(#clip0_2476_66273)">
<path d="M20.3423 49.6136L3.88648 40.0056C2.63943 39.2775 2.63418 37.4773 3.87696 36.7419L21.8682 26.0963C25.3822 24.017 29.7643 24.0794 33.2177 26.2578L48.733 36.0452C49.9283 36.7992 49.9057 38.5497 48.6912 39.2726L31.3972 49.5669C27.995 51.592 23.7615 51.6099 20.3423 49.6136Z" stroke="#017AFF" stroke-width="0.552083"/>
<path opacity="0.7" d="M22.8875 48.3656L7.1284 39.1704C6.43958 38.7685 6.43669 37.7742 7.12315 37.3683L24.1902 27.276C26.1294 26.1293 28.5473 26.1637 30.4531 27.3652L45.4167 36.7984C46.077 37.2146 46.0645 38.1815 45.3937 38.5805L28.9877 48.3398C27.1102 49.4567 24.7744 49.4666 22.8875 48.3656Z" fill="#017AFF"/>
<path fill-rule="evenodd" clip-rule="evenodd" d="M10.9544 38.6062L22.9748 45.5104C24.8436 46.5838 27.1441 46.5741 29.0039 45.4851L41.5686 38.1276C41.9014 37.9327 42.0741 37.5986 42.085 37.2597L42.0863 37.2597V35.0355L39.5471 35.0691L30.2114 29.2758C28.3227 28.1037 25.9413 28.07 24.0202 29.1883L13.321 35.4162L10.4277 35.4545V37.7157L10.4299 37.7156C10.4351 38.0631 10.61 38.4084 10.9544 38.6062Z" fill="#3796FF"/>
<path d="M22.9743 43.3022L10.9539 36.398C10.2568 35.9976 10.2539 34.993 10.9487 34.5887L24.0197 26.9801C25.9408 25.8618 28.3223 25.8955 30.211 27.0676L41.5911 34.1297C42.2597 34.5446 42.2472 35.5217 41.5681 35.9194L29.0034 43.2769C27.1436 44.3659 24.8431 44.3756 22.9743 43.3022Z" fill="white"/>
<g opacity="0.7">
<path d="M10.9546 36.3594L22.975 43.2636C24.8438 44.337 27.1443 44.3273 29.0041 43.2383L41.5688 35.8808C41.9016 35.6859 42.0743 35.3518 42.0852 35.0129L42.0863 35.0129V32.7887V7.17729L10.4301 7.1772L10.4277 33.2077V35.4689L10.4301 35.4689C10.4353 35.8164 10.6102 36.1616 10.9546 36.3594Z" fill="url(#paint0_linear_2476_66273)"/>
<path d="M10.9546 36.3594L22.975 43.2636C24.8438 44.337 27.1443 44.3273 29.0041 43.2383L41.5688 35.8808C41.9016 35.6859 42.0743 35.3518 42.0852 35.0129L42.0863 35.0129V32.7887V7.17729L10.4301 7.1772L10.4277 33.2077V35.4689L10.4301 35.4689C10.4353 35.8164 10.6102 36.1616 10.9546 36.3594Z" fill="url(#paint1_linear_2476_66273)"/>
</g>
<g filter="url(#filter0_d_2476_66273)">
<path fill-rule="evenodd" clip-rule="evenodd" d="M16.2325 29.8617L25.4094 35.2524C25.7997 35.4817 26.2828 35.4854 26.6766 35.2621L36.205 29.8587C36.3924 29.7524 36.416 29.5025 36.2746 29.3604V27.2472L32.5973 27.2132L26.8606 23.8832C26.4671 23.6548 25.9813 23.6548 25.5878 23.8833L20.0526 27.0972L16.1605 27.0612V29.3727C16.0278 29.5146 16.0516 29.7554 16.2325 29.8617Z" fill="url(#paint2_linear_2476_66273)"/>
</g>
<path d="M16.707 28.6323L22.382 31.9684V32.5764L16.707 29.2403V28.6323Z" fill="#1A88FF"/>
<path d="M22.7461 32.1904L23.5561 32.7092V33.3172L22.7461 32.7984V32.1904Z" fill="#1A88FF"/>
<path d="M23.9805 32.9995L24.7905 33.5182V34.1262L23.9805 33.6075V32.9995Z" fill="#1A88FF"/>
<path d="M25.4083 32.7984L16.2315 27.4077C16.0224 27.2848 16.0231 26.9822 16.2329 26.8604L25.5868 21.4293C25.9802 21.2008 26.466 21.2008 26.8595 21.4292L36.2067 26.855C36.4183 26.9778 36.4168 27.284 36.2039 27.4047L26.6755 32.8081C26.2817 33.0314 25.7987 33.0277 25.4083 32.7984Z" fill="url(#paint3_linear_2476_66273)"/>
<path fill-rule="evenodd" clip-rule="evenodd" d="M16.2325 25.8873L25.4094 31.2781C25.7997 31.5074 26.2828 31.5111 26.6766 31.2877L36.205 25.8843C36.3924 25.778 36.416 25.5281 36.2746 25.386V23.2729L32.5973 23.2389L26.8606 19.9088C26.4671 19.6804 25.9813 19.6805 25.5878 19.9089L20.0526 23.1229L16.1605 23.0869V25.3983C16.0278 25.5402 16.0516 25.781 16.2325 25.8873Z" fill="url(#paint4_linear_2476_66273)"/>
<path d="M16.707 24.658L22.382 27.994V28.602L16.707 25.266V24.658Z" fill="#1A88FF"/>
<path d="M22.7461 28.2158L23.5561 28.7345V29.3425L22.7461 28.8238V28.2158Z" fill="#1A88FF"/>
<path d="M23.9805 29.0247L24.7905 29.5434V30.1514L23.9805 29.6327V29.0247Z" fill="#1A88FF"/>
<path d="M25.4083 28.8238L16.2315 23.4331C16.0224 23.3102 16.0231 23.0076 16.2329 22.8858L25.5868 17.4547C25.9802 17.2262 26.466 17.2262 26.8595 17.4546L36.2067 22.8804C36.4183 23.0032 36.4168 23.3094 36.2039 23.4301L26.6755 28.8335C26.2817 29.0568 25.7987 29.0531 25.4083 28.8238Z" fill="url(#paint5_linear_2476_66273)"/>
<path fill-rule="evenodd" clip-rule="evenodd" d="M16.2325 22.1957L25.4094 27.5864C25.7997 27.8157 26.2828 27.8194 26.6766 27.5961L36.205 22.1926C36.3924 22.0864 36.416 21.8365 36.2746 21.6943V19.5812L32.5973 19.5472L26.8606 16.2172C26.4671 15.9888 25.9813 15.9888 25.5878 16.2173L20.0526 19.4312L16.1605 19.3952V21.7067C16.0278 21.8486 16.0516 22.0894 16.2325 22.1957Z" fill="url(#paint6_linear_2476_66273)"/>
<path d="M16.707 20.9663L22.382 24.3023V24.9103L16.707 21.5743V20.9663Z" fill="#1A88FF"/>
<path d="M22.7461 24.5242L23.5561 25.0429V25.6509L22.7461 25.1322V24.5242Z" fill="#1A88FF"/>
<path d="M23.9805 25.333L24.7905 25.8517V26.4597L23.9805 25.941V25.333Z" fill="#1A88FF"/>
<path d="M25.4083 25.1322L16.2315 19.7414C16.0224 19.6186 16.0231 19.316 16.2329 19.1942L25.5868 13.763C25.9802 13.5346 26.466 13.5345 26.8595 13.763L36.2067 19.1887C36.4183 19.3116 36.4168 19.6177 36.2039 19.7384L26.6755 25.1418C26.2817 25.3652 25.7987 25.3615 25.4083 25.1322Z" fill="url(#paint7_linear_2476_66273)"/>
<circle cx="34.7826" cy="34.3031" r="0.552083" fill="#017AFF"/>
<circle cx="14.9076" cy="33.7508" r="0.552083" fill="#017AFF"/>
<circle cx="13.8021" cy="23.8133" r="0.552083" fill="#017AFF"/>
<circle cx="17.6673" cy="13.3238" r="0.552083" fill="#017AFF"/>
<circle cx="15.4583" cy="17.1883" r="0.552083" fill="#017AFF"/>
<circle cx="30.9173" cy="12.2196" r="0.552083" fill="#017AFF"/>
<circle cx="20.151" cy="11.9435" r="0.276042" fill="#017AFF"/>
<circle cx="33.9538" cy="19.6728" r="0.276042" fill="#017AFF"/>
<circle cx="13.526" cy="15.8083" r="0.276042" fill="#017AFF"/>
<circle cx="25.6725" cy="8.07902" r="0.276042" fill="#017AFF"/>
<circle cx="17.3913" cy="9.73527" r="0.276042" fill="#017AFF"/>
<circle cx="33.401" cy="13.0478" r="0.276042" fill="#017AFF"/>
<circle cx="12.4225" cy="26.8498" r="0.276042" fill="#017AFF"/>
<circle cx="17.3913" cy="36.2353" r="0.276042" fill="#017AFF"/>
</g>
<defs>
<filter id="filter0_d_2476_66273" x="12.9075" y="23.7119" width="26.6264" height="20.5874" filterUnits="userSpaceOnUse" color-interpolation-filters="sRGB">
<feFlood flood-opacity="0" result="BackgroundImageFix"/>
<feColorMatrix in="SourceAlpha" type="matrix" values="0 0 0 0 0 0 0 0 0 0 0 0 0 0 0 0 0 0 127 0" result="hardAlpha"/>
<feOffset dy="5.70364"/>
<feGaussianBlur stdDeviation="1.58435"/>
<feComposite in2="hardAlpha" operator="out"/>
<feColorMatrix type="matrix" values="0 0 0 0 0.231526 0 0 0 0 0.59554 0 0 0 0 1 0 0 0 0.27 0"/>
<feBlend mode="normal" in2="BackgroundImageFix" result="effect1_dropShadow_2476_66273"/>
<feBlend mode="normal" in="SourceGraphic" in2="effect1_dropShadow_2476_66273" result="shape"/>
</filter>
<linearGradient id="paint0_linear_2476_66273" x1="26.257" y1="7.17725" x2="26.257" y2="44.0619" gradientUnits="userSpaceOnUse">
<stop stop-color="white" stop-opacity="0"/>
<stop offset="1" stop-color="white" stop-opacity="0.67"/>
</linearGradient>
<linearGradient id="paint1_linear_2476_66273" x1="26.257" y1="7.17725" x2="26.257" y2="44.0619" gradientUnits="userSpaceOnUse">
<stop stop-color="#017AFF" stop-opacity="0"/>
<stop offset="1" stop-color="#017AFF"/>
</linearGradient>
<linearGradient id="paint2_linear_2476_66273" x1="18.0843" y1="30.2091" x2="36.1388" y2="31.2971" gradientUnits="userSpaceOnUse">
<stop stop-color="#3C99FF"/>
<stop offset="0.424133" stop-color="#8EC4FF"/>
<stop offset="1" stop-color="#64AEFF"/>
</linearGradient>
<linearGradient id="paint3_linear_2476_66273" x1="20.3628" y1="24.7425" x2="35.2502" y2="27.426" gradientUnits="userSpaceOnUse">
<stop stop-color="#3A97FF"/>
<stop offset="1" stop-color="#5DABFF"/>
</linearGradient>
<linearGradient id="paint4_linear_2476_66273" x1="18.0843" y1="26.2347" x2="36.1388" y2="27.3227" gradientUnits="userSpaceOnUse">
<stop stop-color="#3C99FF"/>
<stop offset="0.424133" stop-color="#8EC4FF"/>
<stop offset="1" stop-color="#64AEFF"/>
</linearGradient>
<linearGradient id="paint5_linear_2476_66273" x1="20.3628" y1="20.7679" x2="35.2502" y2="23.4514" gradientUnits="userSpaceOnUse">
<stop stop-color="#3A97FF"/>
<stop offset="1" stop-color="#5DABFF"/>
</linearGradient>
<linearGradient id="paint6_linear_2476_66273" x1="18.0843" y1="22.5431" x2="36.1388" y2="23.6311" gradientUnits="userSpaceOnUse">
<stop stop-color="#3C99FF"/>
<stop offset="0.424133" stop-color="#8EC4FF"/>
<stop offset="1" stop-color="#64AEFF"/>
</linearGradient>
<linearGradient id="paint7_linear_2476_66273" x1="20.3628" y1="17.0762" x2="35.2502" y2="19.7597" gradientUnits="userSpaceOnUse">
<stop stop-color="#57A7FF"/>
<stop offset="1" stop-color="#ACD4FF"/>
</linearGradient>
<clipPath id="clip0_2476_66273">
<rect width="35" height="53" fill="white"/>
</clipPath>
</defs>
</svg>
