<svg width="451" height="321" viewBox="0 0 451 321" fill="none" xmlns="http://www.w3.org/2000/svg">
<path opacity="0.8" d="M80.5507 141.051L56.2923 127.015C53.5294 125.413 52.2584 123.258 52.3689 120.992C52.5347 118.505 54.4135 115.963 57.8948 113.919L72.3172 105.63C79.0588 101.762 89.2263 101.32 95.0285 104.691L146.419 134.42C149.182 136.022 150.453 138.177 150.342 140.443C150.176 142.93 148.298 145.471 144.816 147.516L130.394 155.805C126.692 157.905 121.995 159.01 117.519 159.01H28V141.051H80.5507Z" fill="url(#paint0_linear_2551_109050)"/>
<path d="M103.925 140.83C104.588 142.046 100.665 143.759 98.8413 144.145C97.7361 144.366 96.2994 145.858 95.2495 145.582C92.5418 144.808 93.7575 142.709 94.1996 141.88C94.8627 140.498 96.0784 140.554 96.0784 140.554C96.0784 140.554 98.9518 140.719 99.8912 140.498C100.72 140.222 102.986 139.227 103.925 140.83Z" fill="#001370"/>
<path d="M98.123 140.056C98.1782 141.161 97.9572 142.543 96.0784 142.764C92.7629 143.151 94.9179 139.282 94.9179 139.282L98.123 140.056Z" fill="white"/>
<path d="M82.1533 120.992C90.8841 113.532 100.775 111.101 104.754 114.748C108.733 118.34 100.444 136.464 98.8413 139.725C97.2941 142.985 93.647 141.769 94.1996 139.448C94.7522 137.127 95.8021 125.026 95.8021 125.026C95.8021 125.026 87.6238 131.712 79.8324 131.325C74.0855 131.049 80.164 122.705 82.1533 120.992Z" fill="url(#paint1_linear_2551_109050)"/>
<path d="M99.3386 151.163L85.4688 143.151L71.5989 151.163L85.4688 159.176L99.3386 151.163Z" fill="#9295B2"/>
<path d="M99.3386 133.702V149.671L85.4688 157.684V141.714L99.3386 133.702Z" fill="#2E73BE"/>
<path d="M71.5989 133.702V149.671L85.4688 157.684V141.714L71.5989 133.702Z" fill="#003672"/>
<path d="M99.3386 133.702L85.4688 125.689L71.5989 133.702L85.4688 141.714L99.3386 133.702Z" fill="#2C6AAD"/>
<path d="M117.463 144.698C118.127 145.913 114.203 147.626 112.38 148.013C111.274 148.234 109.838 149.726 108.788 149.45C106.08 148.676 107.296 146.576 107.738 145.748C108.401 144.366 109.617 144.421 109.617 144.421C109.617 144.421 112.49 144.587 113.43 144.366C114.203 144.145 116.524 143.15 117.463 144.698Z" fill="#001370"/>
<path d="M111.606 143.924C111.661 145.029 111.44 146.411 109.561 146.632C106.246 147.019 107.185 143.924 107.185 143.924H111.606Z" fill="white"/>
<path d="M91.492 126.407C101.438 120.66 109.893 116.461 113.927 120.053C117.961 123.644 112.766 138.067 112.269 142.377C111.882 145.969 107.13 146.687 107.02 144.311C106.909 141.603 107.02 129.889 107.02 129.889C107.02 129.889 96.9625 137.072 89.1158 136.685C83.4242 136.409 79.6114 133.867 78.1194 131.933C75.1907 128.176 76.8485 122.373 76.8485 122.373L91.492 126.407Z" fill="url(#paint2_linear_2551_109050)"/>
<path d="M73.0143 99.334C73.18 96.8473 75.0588 94.3055 78.5401 92.2609L92.9626 83.9721C99.7041 80.104 109.872 79.662 115.674 83.0327L167.064 112.762C169.827 114.364 171.098 116.519 170.988 118.785C170.822 121.272 168.943 123.813 165.462 125.858L151.039 134.147C144.298 138.015 134.13 138.457 128.328 135.086L76.9376 105.357C74.1194 103.755 72.8485 101.6 73.0143 99.334Z" fill="white"/>
<path d="M73.0143 96.5708C73.18 94.0842 75.0588 91.5423 78.5401 89.4977L92.9626 81.2089C99.7041 77.3409 109.872 76.8988 115.674 80.2695L167.064 109.999C169.827 111.601 171.098 113.756 170.988 116.022C170.822 118.508 168.943 121.05 165.462 123.095L151.039 131.384C144.298 135.252 134.13 135.694 128.328 132.323L76.9376 102.594C74.1194 100.991 72.8485 98.8364 73.0143 96.5708Z" fill="url(#paint3_linear_2551_109050)"/>
<path d="M125.863 120.882C126.913 120.882 128.018 120.605 128.957 120.053L134.759 116.682C135.533 116.24 136.03 115.411 136.03 114.472C136.03 113.532 135.533 112.759 134.759 112.261L108.788 97.2862C106.854 96.181 104.478 96.181 102.599 97.2862L96.7967 100.602C96.0231 101.044 95.5258 101.873 95.5258 102.812C95.5258 103.751 96.0231 104.525 96.7967 105.022L122.768 119.997C123.763 120.605 124.813 120.882 125.863 120.882ZM105.749 97.1756C106.688 97.1756 107.683 97.3967 108.512 97.894L134.483 112.869C135.091 113.201 135.422 113.808 135.422 114.472C135.422 115.135 135.091 115.742 134.483 116.074L128.681 119.445C126.968 120.439 124.868 120.439 123.155 119.445L97.1836 104.47C96.5757 104.138 96.2442 103.53 96.2442 102.867C96.2442 102.204 96.5757 101.596 97.1836 101.265L102.986 97.9493C103.815 97.3967 104.754 97.1756 105.749 97.1756Z" fill="#BCC0E5"/>
<path d="M105.638 104.249C105.638 104.249 107.13 104.304 108.29 103.807C109.451 103.309 110.335 103.033 111.717 103.807C112.545 104.249 113.595 105.464 112.766 105.63C111.496 105.962 111.33 105.409 110.943 105.133C110.556 104.856 109.396 105.022 109.23 105.188C109.009 105.464 109.838 106.183 109.727 106.404C109.451 106.956 108.401 105.741 107.13 105.409C105.859 105.078 105.417 105.52 105.417 105.409C105.528 105.354 105.638 104.249 105.638 104.249Z" fill="#F5D5D5"/>
<path d="M106.301 103.917C106.688 103.807 107.296 105.464 106.743 105.741C106.135 106.072 94.0338 110.051 94.0338 110.051L88.2869 101.154L95.6363 104.912L106.301 103.917Z" fill="#D0D3F5"/>
<path d="M118.79 111.267C120.558 109.664 120.945 110.051 120.834 110.383C120.724 110.659 120.171 111.046 120.337 111.267C120.447 111.488 120.834 111.046 122.381 111.654C123.984 112.261 125.144 114.14 124.205 114.361C123.321 114.638 121.497 113.809 120.337 114.14C119.176 114.472 117.574 113.753 117.574 113.753L117.463 112.483C117.519 112.427 118.569 111.488 118.79 111.267Z" fill="#F5D5D5"/>
<path d="M96.5757 102.26C98.344 111.212 92.5971 113.975 97.0178 123.59C99.5044 128.894 93.7575 133.094 87.016 133.204C81.9322 133.26 75.467 128.618 75.5222 126.297C75.909 109.057 78.0641 100.049 82.7611 94.6893C87.458 89.3845 95.6363 97.397 96.5757 102.26Z" fill="url(#paint4_linear_2551_109050)"/>
<path d="M86.0213 96.7334C85.1372 96.1256 85.3582 95.131 86.6844 94.8547C88.1764 94.5231 87.458 90.9866 87.458 90.9866L92.4866 94.3021C92.4866 94.3021 91.4919 96.0704 91.9892 96.5124C94.0338 98.4465 92.6524 101.265 86.0213 96.7334Z" fill="#F5D5D5"/>
<path d="M92.4313 94.3576C92.7076 93.6945 94.0338 94.7444 94.8627 94.3576C95.6363 93.9708 98.0124 88.0029 96.4099 85.2399C94.7522 82.477 89.8342 84.6874 87.458 91.0421L92.4313 94.3576Z" fill="#F5D5D5"/>
<path d="M97.7361 86.2896C97.1835 88.3342 94.4206 89.8814 94.1443 90.2682C93.8128 90.655 94.2548 89.7156 93.8128 89.5498C93.3707 89.4393 92.5971 89.8814 92.9286 90.9866C93.2602 92.0918 91.1051 93.0864 90.4972 93.4732C89.8894 93.86 87.5133 94.1363 86.795 93.639C86.0213 93.1417 86.9607 88.942 86.6292 86.2343C86.2976 83.5267 87.2923 81.5926 89.7236 82.0347C92.155 82.4768 91.8787 79.327 94.0338 80.1007C96.1889 80.8743 95.6363 82.6425 97.5704 82.532C99.5044 82.4215 97.9572 85.4607 97.7361 86.2896Z" fill="#080078"/>
<path d="M116.856 111.93C118.237 112.04 118.458 113.809 117.795 114.196C117.132 114.582 108.235 116.903 104.036 115.909C96.7967 114.196 91.3261 108.449 92.155 103.917C93.4812 96.5128 96.1336 102.481 103.87 109.278C108.733 113.588 116.856 111.93 116.856 111.93Z" fill="#D0D3F5"/>
<path d="M112.269 84.8535L156.2 110.549V77.9462L112.269 52.251V84.8535Z" fill="url(#paint5_linear_2551_109050)"/>
<path d="M140.893 66.3418V57.3899C140.893 56.8926 141.335 56.6716 141.832 57.0031C142.33 57.2794 142.772 57.9425 142.772 58.4951V67.4469C142.772 67.9443 142.33 68.1653 141.832 67.8338C141.28 67.5022 140.893 66.8391 140.893 66.3418Z" fill="white"/>
<path opacity="0.8" d="M151.668 45.7303L116.8 25.6163C114.314 24.1795 112.269 25.34 112.269 28.2134V68.4416C112.269 71.315 114.314 74.8515 116.8 76.2883L151.668 96.4024C154.155 97.8391 156.2 96.6786 156.2 93.8052V53.5771C156.2 50.7036 154.155 47.1671 151.668 45.7303Z" fill="#012975"/>
<path d="M124.923 64.5185V52.3064C124.923 51.8091 125.365 51.5881 125.863 51.9196C126.36 52.1959 126.802 52.859 126.802 53.4116V65.6237C126.802 66.121 126.36 66.3421 125.863 66.0105C125.365 65.679 124.923 65.0159 124.923 64.5185Z" fill="white"/>
<path d="M148.85 74.575V65.6231C148.85 65.1258 149.292 64.9047 149.79 65.2363C150.287 65.5126 150.729 66.1757 150.729 66.7282V75.6801C150.729 76.1774 150.287 76.3985 149.79 76.0669C149.237 75.7354 148.85 75.0723 148.85 74.575Z" fill="#0D81FF"/>
<path d="M132.881 73.5253V46.8355C132.881 46.3382 133.323 46.1171 133.82 46.4487C134.317 46.725 134.759 47.3881 134.759 47.9406V74.6305C134.759 75.1278 134.317 75.3488 133.82 75.0173C133.323 74.6857 132.881 74.0226 132.881 73.5253Z" fill="#0D81FF"/>
<path d="M156.2 111.101C156.365 111.101 156.586 110.991 156.697 110.825C156.863 110.549 156.752 110.217 156.476 110.051L112.601 84.2456C112.324 84.0798 111.993 84.1903 111.827 84.4666C111.661 84.7429 111.772 85.0745 112.048 85.2403L155.923 111.046C155.979 111.101 156.089 111.101 156.2 111.101Z" fill="#28CAF1"/>
<path d="M116.966 50.8697V34.8448C116.966 34.3474 117.408 34.1264 117.906 34.4579C118.403 34.7342 118.845 35.3973 118.845 35.9499V51.9749C118.845 52.4722 118.403 52.6932 117.906 52.3617C117.408 52.0301 116.966 51.367 116.966 50.8697Z" fill="#0D81FF"/>
<path d="M450.178 151.479H200.169V184.123L325.173 245.79L450.178 184.123V151.479Z" fill="url(#paint6_linear_2551_109050)"/>
<path d="M207.17 182.405L308.252 232.946C317.588 237.614 332.759 237.614 342.095 232.946L443.176 182.405C447.844 180.071 450.178 177.019 450.178 173.967V178.455C450.178 181.507 447.844 184.56 443.176 186.894L342.095 237.434C332.759 242.102 317.588 242.102 308.252 237.434L207.17 186.894C202.502 184.56 200.168 181.507 200.168 178.455V173.967C200.168 177.019 202.502 180.071 207.17 182.405Z" fill="#8CD9FF"/>
<path d="M207.171 186.893L308.252 237.434C317.588 242.102 332.759 242.102 342.095 237.434L443.176 186.893C447.844 184.559 450.178 181.507 450.178 178.455V182.943C450.178 185.995 447.844 189.047 443.176 191.381L342.095 241.922C332.759 246.59 317.588 246.59 308.252 241.922L207.171 191.381C202.503 189.047 200.169 185.995 200.169 182.943V178.455C200.169 181.507 202.503 184.559 207.171 186.893Z" fill="white"/>
<path d="M207.171 159.963L308.252 210.504C317.588 215.172 332.759 215.172 342.095 210.504L443.176 159.963C452.512 155.295 452.512 147.71 443.176 143.042L342.095 92.501C332.759 87.833 317.588 87.833 308.252 92.501L207.171 143.042C197.835 147.71 197.835 155.295 207.171 159.963Z" fill="url(#paint7_linear_2551_109050)"/>
<g opacity="0.3">
<path opacity="0.090909" d="M368.362 159.925L340.444 173.885L368.362 187.889L396.325 173.885L368.362 159.925Z" fill="#B9C1FF"/>
<path opacity="0.1818" d="M367.509 159.477L339.546 173.481L367.509 187.44L395.472 173.481L367.509 159.477Z" fill="#B9C1FF"/>
<path opacity="0.2727" d="M366.657 159.073L338.693 173.032L366.657 187.037L394.62 173.032L366.657 159.073Z" fill="#B9C1FF"/>
<path opacity="0.3636" d="M365.804 158.624L337.84 172.628L365.804 186.587L393.722 172.628L365.804 158.624Z" fill="#B9C1FF"/>
<path opacity="0.4545" d="M364.906 158.219L336.988 172.178L364.906 186.183L392.869 172.178L364.906 158.219Z" fill="#B9C1FF"/>
<path opacity="0.5455" d="M364.053 157.771L336.09 171.73L364.053 185.734L392.017 171.73L364.053 157.771Z" fill="#B9C1FF"/>
<path opacity="0.6364" d="M363.2 157.322L335.237 171.326L363.2 185.286L391.164 171.326L363.2 157.322Z" fill="#B9C1FF"/>
<path opacity="0.7273" d="M362.347 156.917L334.384 170.877L362.347 184.881L390.311 170.877L362.347 156.917Z" fill="#B9C1FF"/>
<path opacity="0.8182" d="M361.495 156.468L333.531 170.472L361.495 184.432L389.413 170.472L361.495 156.468Z" fill="#B9C1FF"/>
<path opacity="0.9091" d="M360.597 156.065L332.678 170.024L360.597 183.983L388.56 170.024L360.597 156.065Z" fill="#B9C1FF"/>
<path d="M359.744 155.616L331.781 169.575L359.744 183.58L387.708 169.575L359.744 155.616Z" fill="#B9C1FF"/>
</g>
<g opacity="0.3">
<path opacity="0.090909" d="M328.369 139.906L300.406 153.91L328.369 167.87L356.288 153.91L328.369 139.906Z" fill="#B9C1FF"/>
<path opacity="0.1818" d="M327.472 139.458L299.553 153.462L327.472 167.421L355.435 153.462L327.472 139.458Z" fill="#B9C1FF"/>
<path opacity="0.2727" d="M326.619 139.054L298.655 153.013L326.619 167.018L354.582 153.013L326.619 139.054Z" fill="#B9C1FF"/>
<path opacity="0.3636" d="M325.766 138.604L297.803 152.609L325.766 166.568L353.729 152.609L325.766 138.604Z" fill="#B9C1FF"/>
<path opacity="0.4545" d="M324.913 138.201L296.95 152.16L324.913 166.164L352.831 152.16L324.913 138.201Z" fill="#B9C1FF"/>
<path opacity="0.5455" d="M324.015 137.752L296.097 151.711L324.015 165.715L351.979 151.711L324.015 137.752Z" fill="#B9C1FF"/>
<path opacity="0.6364" d="M323.163 137.303L295.199 151.307L323.163 165.267L351.126 151.307L323.163 137.303Z" fill="#B9C1FF"/>
<path opacity="0.7273" d="M322.31 136.899L294.346 150.858L322.31 164.862L350.273 150.858L322.31 136.899Z" fill="#B9C1FF"/>
<path opacity="0.8182" d="M321.457 136.45L293.493 150.454L321.457 164.414L349.42 150.454L321.457 136.45Z" fill="#B9C1FF"/>
<path opacity="0.9091" d="M320.604 136.046L292.641 150.006L320.604 163.965L348.523 150.006L320.604 136.046Z" fill="#B9C1FF"/>
<path d="M319.706 135.598L291.788 149.557L319.706 163.561L347.67 149.557L319.706 135.598Z" fill="#B9C1FF"/>
</g>
<g opacity="0.3">
<path opacity="0.090909" d="M288.332 119.888L260.369 133.892L288.332 147.851L316.296 133.892L288.332 119.888Z" fill="#B9C1FF"/>
<path opacity="0.1818" d="M287.479 119.439L259.516 133.443L287.479 147.402L315.398 133.443L287.479 119.439Z" fill="#B9C1FF"/>
<path opacity="0.2727" d="M286.582 119.036L258.663 132.995L286.582 146.999L314.545 132.995L286.582 119.036Z" fill="#B9C1FF"/>
<path opacity="0.3636" d="M285.729 118.586L257.765 132.59L285.729 146.549L313.692 132.59L285.729 118.586Z" fill="#B9C1FF"/>
<path opacity="0.4545" d="M284.876 118.182L256.913 132.141L284.876 146.146L312.84 132.141L284.876 118.182Z" fill="#B9C1FF"/>
<path opacity="0.5455" d="M284.023 117.733L256.06 131.693L284.023 145.697L311.942 131.693L284.023 117.733Z" fill="#B9C1FF"/>
<path opacity="0.6364" d="M283.126 117.285L255.207 131.289L283.126 145.248L311.089 131.289L283.126 117.285Z" fill="#B9C1FF"/>
<path opacity="0.7273" d="M282.273 116.88L254.309 130.84L282.273 144.844L310.236 130.84L282.273 116.88Z" fill="#B9C1FF"/>
<path opacity="0.8182" d="M281.42 116.432L253.456 130.436L281.42 144.395L309.383 130.436L281.42 116.432Z" fill="#B9C1FF"/>
<path opacity="0.9091" d="M280.567 116.028L252.604 129.987L280.567 143.946L308.53 129.987L280.567 116.028Z" fill="#B9C1FF"/>
<path d="M279.714 115.579L251.751 129.538L279.714 143.542L307.633 129.538L279.714 115.579Z" fill="#B9C1FF"/>
</g>
<path d="M279.713 74.5986L251.75 88.6028L279.713 102.562L307.632 88.6028L279.713 74.5986Z" fill="#C3D7FC"/>
<path d="M279.714 102.562V143.542L251.751 129.538V88.603L279.714 102.562Z" fill="#AAC2F2"/>
<path d="M307.633 88.603V129.538L279.714 143.542V102.562L307.633 88.603Z" fill="#8EAEEB"/>
<path d="M319.706 163.56L291.788 149.556V14.0034L319.706 27.9627V163.56Z" fill="url(#paint8_linear_2551_109050)"/>
<path d="M347.67 149.556L319.707 163.56V27.9627L347.67 14.0034V149.556Z" fill="url(#paint9_linear_2551_109050)"/>
<path d="M319.707 0L291.788 14.0041L319.707 27.9634L347.67 14.0041L319.707 0Z" fill="url(#paint10_linear_2551_109050)"/>
<path d="M359.744 183.58L331.781 169.576V89.0522L359.744 103.011V183.58Z" fill="#E8EFF7"/>
<path d="M387.708 169.576L359.744 183.58V103.011L387.708 89.0522V169.576Z" fill="#D1E7FF"/>
<path d="M359.744 75.0474L331.78 89.0515L359.744 103.011L387.707 89.0515L359.744 75.0474Z" fill="url(#paint11_linear_2551_109050)"/>
<path d="M359.744 94.0329L331.781 80.0736V66.8325L359.744 80.8366V94.0329Z" fill="#E8EFF6"/>
<path d="M387.708 80.0736L359.744 94.0329V80.8366L387.708 66.8325V80.0736Z" fill="#D1E7FF"/>
<path d="M359.744 52.874L331.78 66.8333L359.744 80.8374L387.707 66.8333L359.744 52.874Z" fill="url(#paint12_linear_2551_109050)"/>
<path d="M178.071 273.748L167.192 268.309C164.128 266.776 159.186 266.776 156.122 268.309L144.477 274.131C142.944 274.897 142.178 275.893 142.178 276.889V286.389C142.178 287.385 142.944 288.381 144.477 289.147L155.356 294.587C158.42 296.119 163.362 296.119 166.426 294.587L178.071 288.764C179.604 287.998 180.37 287.002 180.37 286.006V276.506C180.37 275.51 179.604 274.514 178.071 273.748Z" fill="url(#paint13_linear_2551_109050)"/>
<path d="M178.071 279.264L166.426 285.087C163.362 286.619 158.42 286.619 155.356 285.087L144.477 279.647C141.412 278.115 141.412 275.625 144.477 274.131L156.122 268.309C159.186 266.776 164.128 266.776 167.192 268.309L178.071 273.748C181.136 275.28 181.136 277.732 178.071 279.264Z" fill="url(#paint14_linear_2551_109050)"/>
<path d="M206.495 250.65L195.616 245.21C192.551 243.678 187.61 243.678 184.545 245.21L172.9 251.033C171.368 251.799 170.602 252.795 170.602 253.791V263.291C170.602 264.287 171.368 265.283 172.9 266.049L183.779 271.488C186.844 273.02 191.785 273.02 194.85 271.488L206.495 265.666C208.027 264.9 208.793 263.904 208.793 262.908V253.408C208.793 252.412 208.027 251.416 206.495 250.65Z" fill="url(#paint15_linear_2551_109050)"/>
<path d="M206.495 256.204L194.85 262.027C191.785 263.559 186.844 263.559 183.779 262.027L172.9 256.587C169.836 255.055 169.836 252.565 172.9 251.071L184.545 245.21C187.61 243.678 192.551 243.678 195.616 245.21L206.495 250.65C209.559 252.182 209.559 254.672 206.495 256.204Z" fill="url(#paint16_linear_2551_109050)"/>
<path d="M234.88 226.589L224.001 221.149C220.936 219.617 215.995 219.617 212.93 221.149L201.285 226.972C199.753 227.738 198.987 228.734 198.987 229.73V239.23C198.987 240.226 199.753 241.222 201.285 241.988L212.164 247.427C215.229 248.96 220.17 248.96 223.235 247.427L234.88 241.605C236.412 240.839 237.178 239.843 237.178 238.847V229.347C237.178 228.351 236.412 227.355 234.88 226.589Z" fill="url(#paint17_linear_2551_109050)"/>
<path d="M234.88 232.105L223.235 237.927C220.17 239.46 215.229 239.46 212.164 237.927L201.285 232.488C198.221 230.956 198.221 228.466 201.285 226.972L212.93 221.149C215.995 219.617 220.936 219.617 224.001 221.149L234.88 226.589C237.944 228.121 237.944 230.611 234.88 232.105Z" fill="url(#paint18_linear_2551_109050)"/>
<path d="M183.472 215.685L199.178 207.794V192.088L183.472 199.941V215.685Z" fill="#017AFF"/>
<path d="M167.728 207.794L183.472 215.685V199.941L167.728 192.088V207.794Z" fill="#3193FF"/>
<path d="M167.728 192.088L183.472 199.941L199.178 192.088L183.472 184.235L167.728 192.088Z" fill="#6BB1FF"/>
<path d="M162.825 265.905C161.408 266.594 160.144 267.36 158.957 268.127C157.501 269.084 157.501 271.268 158.957 272.225C160.106 272.991 161.408 273.758 162.825 274.447C162.864 274.447 162.864 274.485 162.902 274.485C168.227 277.129 174.509 277.129 179.834 274.485C179.872 274.485 179.872 274.447 179.91 274.447L162.825 265.905Z" fill="url(#paint19_linear_2551_109050)"/>
<path d="M187.725 263.453C189.142 262.764 190.406 261.998 191.594 261.231C193.049 260.274 193.049 258.09 191.594 257.133C190.444 256.366 189.142 255.6 187.725 254.911C187.686 254.911 187.686 254.872 187.648 254.872C182.323 252.229 176.041 252.229 170.717 254.872C170.678 254.872 170.678 254.911 170.64 254.911L187.725 263.453Z" fill="url(#paint20_linear_2551_109050)"/>
<path d="M193.011 254.03L182.208 252.153V256.136C182.208 257.592 183.434 258.703 184.89 258.588C187.916 258.32 192.092 257.707 193.471 257.132C195.462 256.328 194.964 254.413 193.011 254.03Z" fill="#001370"/>
<path d="M188.146 251.731L189.104 225.874C189.18 224.265 188.337 222.81 187.035 222.005L186.346 221.584L171.329 212.276C168.227 210.36 164.128 211.318 162.212 214.421C160.297 217.524 161.255 221.622 164.358 223.538C164.702 223.729 165.085 223.921 165.43 224.074L181.864 230.548L179.106 226.219L181.864 251.961C182.055 253.723 183.626 254.987 185.35 254.796C186.92 254.604 188.108 253.263 188.146 251.731Z" fill="#130F40"/>
<path d="M160.106 276.056C162.212 275.366 165.698 273.183 167.116 271.881C168.61 270.502 167.575 268.931 165.66 269.237L157.462 270.272V274.256C157.462 275.481 158.612 276.516 160.106 276.056Z" fill="#001370"/>
<path d="M157.922 215.838L157.041 268.816C157.003 270.578 158.42 272.034 160.182 272.034C161.791 272.072 163.132 270.885 163.362 269.314L171.1 216.911C171.636 213.31 169.146 209.939 165.507 209.403C161.906 208.866 158.535 211.356 157.999 214.995C157.96 215.264 157.922 215.57 157.922 215.838Z" fill="#130F40"/>
<path d="M167.805 182.243L168.38 187.108L162.902 186.802V180.903L167.805 182.243Z" fill="#F5D5D5"/>
<path d="M169.759 181.132C169.759 181.898 168.725 183.048 167.269 182.473C166.771 182.282 163.668 180.864 163.668 180.864C163.668 180.864 163.745 175.655 164.358 175.195C165.2 174.544 167.307 174.429 168.188 175.042C169.452 175.999 169.759 179.447 169.759 181.132Z" fill="#F5D5D5"/>
<path d="M168.112 176.689C167.346 177.149 167.307 178.796 167.307 179.37C167.307 180.711 165.162 182.511 162.902 182.473C162.902 180.251 159.455 176.038 162.366 176.038C163.438 172.782 168.15 174.544 169.261 174.007C169.912 174.659 169.529 175.808 168.112 176.689Z" fill="#130F40"/>
<path d="M175.773 190.249C171.176 186.764 163.4 184.465 158.114 183.891C156.007 183.661 154.436 184.618 153.708 186.725C153.21 188.143 153.325 189.713 153.9 191.092C157.041 198.37 157.041 205.534 157.041 211.931C157.922 215.11 178.684 220.32 179.68 216.987L178.148 194.348C178.033 192.739 177.114 191.245 175.773 190.249Z" fill="white"/>
<path d="M188.529 212.62L188.491 209.977C189.487 209.326 189.487 208.139 190.866 208.062L192.015 208.828L193.969 209.135C194.696 209.326 194.581 210.016 194.083 210.169L193.892 210.207C193.854 210.782 193.739 211.318 193.547 211.816C193.279 212.506 188.529 212.62 188.529 212.62Z" fill="#F5D5D5"/>
<path d="M188.376 208.752C187.456 208.522 186.537 208.292 185.618 208.024C184.698 207.756 183.817 207.487 182.898 207.181C181.098 206.606 179.297 205.994 177.497 205.342L179.297 207.449C179.067 205.227 178.876 203.006 178.684 200.784C178.608 199.673 178.493 198.562 178.416 197.451C178.34 196.34 178.263 195.229 178.186 194.119C178.11 192.28 176.539 190.901 174.7 190.977C172.862 191.054 171.483 192.625 171.559 194.463C171.559 194.655 171.598 194.846 171.636 195.038C171.904 196.11 172.134 197.221 172.364 198.294C172.594 199.367 172.823 200.477 173.053 201.55C173.475 203.733 173.896 205.917 174.317 208.1L174.356 208.369C174.509 209.288 175.237 209.977 176.079 210.169C177.918 210.552 179.795 210.973 181.634 211.433C182.553 211.663 183.473 211.893 184.392 212.161C185.311 212.429 186.192 212.697 187.112 213.004C188.261 213.387 189.525 212.774 189.908 211.625C190.291 210.475 189.678 209.211 188.529 208.828C188.529 208.79 188.452 208.79 188.376 208.752Z" fill="white"/>
<path opacity="0.8" d="M24.7459 220.17H63.7733L39.3684 234.698L63.7733 248.784H24.7459L0.000144958 234.46L24.7459 220.17Z" fill="url(#paint21_linear_2551_109050)"/>
<path d="M63.7733 248.784L39.3684 234.699V206.051L63.7733 220.17V248.784Z" fill="#B9BEE4"/>
<path d="M63.7733 248.784L88.1782 234.699V206.051L63.7733 220.17V248.784Z" fill="#CCD1F6"/>
<path d="M63.7733 220.17L88.1782 206.051L63.7733 192L39.3683 206.051L63.7733 220.17Z" fill="url(#paint22_linear_2551_109050)"/>
<path opacity="0.8" d="M31.972 248.784H54.2977L40.3228 257.105L54.2977 265.154H31.972L17.7926 256.969L31.972 248.784Z" fill="url(#paint23_linear_2551_109050)"/>
<path d="M54.2977 265.154L40.3228 257.105V240.701L54.2977 248.783V265.154Z" fill="#3193FF"/>
<path d="M54.2977 265.154L68.2726 257.105V240.701L54.2977 248.783V265.154Z" fill="#017AFF"/>
<path d="M54.2976 248.784L68.2725 240.701L54.2976 232.652L40.3227 240.701L54.2976 248.784Z" fill="#6BB1FF"/>
<path opacity="0.3" d="M276.835 318.798C276.211 319.154 276.211 319.777 276.835 320.133C277.458 320.49 278.527 320.49 279.15 320.133C279.773 319.777 279.773 319.154 279.15 318.798C278.482 318.441 277.458 318.441 276.835 318.798Z" fill="#CED4FF"/>
<path opacity="0.3" d="M225.313 289.054C224.69 289.411 224.69 290.034 225.313 290.39C225.936 290.746 227.005 290.746 227.628 290.39C228.252 290.034 228.252 289.411 227.628 289.054C227.005 288.654 225.981 288.654 225.313 289.054Z" fill="#CED4FF"/>
<path opacity="0.3" d="M328.395 289.054C327.772 289.411 327.772 290.034 328.395 290.39C329.019 290.746 330.087 290.746 330.711 290.39C331.334 290.034 331.334 289.411 330.711 289.054C330.087 288.654 329.063 288.654 328.395 289.054Z" fill="#CED4FF"/>
<path opacity="0.3" d="M276.918 259.267C276.295 259.623 276.295 260.247 276.918 260.603C277.541 260.959 278.61 260.959 279.233 260.603C279.857 260.247 279.857 259.623 279.233 259.267C278.61 258.911 277.541 258.911 276.918 259.267Z" fill="#CED4FF"/>
<path opacity="0.3" d="M278.076 319.822L330.26 289.723L278.076 259.623L225.892 289.723L278.076 319.822ZM329.058 289.723L278.076 319.154L227.094 289.723L278.076 260.291L329.058 289.723Z" fill="#CED4FF"/>
<path opacity="0.2" d="M257.423 271.87C268.777 265.325 287.255 265.325 298.609 271.87C309.963 278.415 309.963 289.102 298.609 295.647C287.255 302.192 268.777 302.192 257.423 295.647C246.069 289.102 246.069 278.415 257.423 271.87ZM260.673 293.777C270.246 299.298 285.786 299.298 295.359 293.777C304.932 288.256 304.932 279.261 295.359 273.74C285.786 268.219 270.246 268.219 260.673 273.74C251.145 279.261 251.145 288.256 260.673 293.777Z" fill="#CED4FF"/>
<path d="M256.265 271.201C268.243 264.3 287.745 264.3 299.767 271.201L293.8 274.63C285.118 269.599 270.914 269.599 262.232 274.63C253.505 279.661 253.505 287.854 262.232 292.841C270.914 297.872 285.118 297.872 293.8 292.841L299.767 296.269C287.79 303.171 268.287 303.171 256.265 296.269C244.288 289.368 244.288 278.103 256.265 271.201Z" fill="#E5E9FF"/>
<path d="M299.767 271.202L293.8 274.675C285.118 269.644 270.959 269.644 262.232 274.675L256.265 271.202C268.243 264.256 287.79 264.256 299.767 271.202Z" fill="#8CD9FF"/>
<path d="M282.892 283.713L277.46 286.83V280.597L282.892 277.48V283.713Z" fill="#F4F5FF"/>
<path d="M277.46 286.83L272.028 283.713V277.48L277.46 280.597V286.83Z" fill="#E5E9FF"/>
<path d="M282.892 277.48L277.46 280.596L272.028 277.48L277.46 274.318L282.892 277.48Z" fill="#EEF0FF"/>
<defs>
<linearGradient id="paint0_linear_2551_109050" x1="150.305" y1="130.678" x2="27.9908" y2="130.678" gradientUnits="userSpaceOnUse">
<stop stop-color="#CED4FF"/>
<stop offset="1" stop-color="#CED4FF" stop-opacity="0"/>
</linearGradient>
<linearGradient id="paint1_linear_2551_109050" x1="119.565" y1="155.639" x2="101.887" y2="134.983" gradientUnits="userSpaceOnUse">
<stop stop-color="#5B68F5"/>
<stop offset="1" stop-color="#010854"/>
</linearGradient>
<linearGradient id="paint2_linear_2551_109050" x1="116.559" y1="158.018" x2="98.3453" y2="129.56" gradientUnits="userSpaceOnUse">
<stop stop-color="#5B68F5"/>
<stop offset="1" stop-color="#010854"/>
</linearGradient>
<linearGradient id="paint3_linear_2551_109050" x1="170.976" y1="106.285" x2="72.9883" y2="106.285" gradientUnits="userSpaceOnUse">
<stop stop-color="#F7F8FF"/>
<stop offset="1" stop-color="white"/>
</linearGradient>
<linearGradient id="paint4_linear_2551_109050" x1="97.6327" y1="113.086" x2="75.5437" y2="113.086" gradientUnits="userSpaceOnUse">
<stop stop-color="#BCC0E5"/>
<stop offset="1" stop-color="white"/>
</linearGradient>
<linearGradient id="paint5_linear_2551_109050" x1="123.485" y1="97.9736" x2="135.674" y2="79.1566" gradientUnits="userSpaceOnUse">
<stop stop-color="#02D0FF"/>
<stop offset="1" stop-color="#02D1FF" stop-opacity="0"/>
</linearGradient>
<linearGradient id="paint6_linear_2551_109050" x1="425.46" y1="196.675" x2="218.56" y2="240.3" gradientUnits="userSpaceOnUse">
<stop offset="0.4252" stop-color="#F3F4FF"/>
<stop offset="0.57835" stop-color="#E5E8FE"/>
</linearGradient>
<linearGradient id="paint7_linear_2551_109050" x1="450.131" y1="151.477" x2="200.139" y2="151.477" gradientUnits="userSpaceOnUse">
<stop stop-color="#F7F8FF"/>
<stop offset="1" stop-color="white"/>
</linearGradient>
<linearGradient id="paint8_linear_2551_109050" x1="268.766" y1="106.05" x2="338.276" y2="73.5691" gradientUnits="userSpaceOnUse">
<stop stop-color="#01328F"/>
<stop offset="1" stop-color="#4A78D0"/>
</linearGradient>
<linearGradient id="paint9_linear_2551_109050" x1="300.76" y1="72.1364" x2="367.534" y2="105.861" gradientUnits="userSpaceOnUse">
<stop stop-color="#154BB3"/>
<stop offset="1" stop-color="#4472CB"/>
</linearGradient>
<linearGradient id="paint10_linear_2551_109050" x1="346.415" y1="13.9908" x2="292.838" y2="13.9908" gradientUnits="userSpaceOnUse">
<stop stop-color="#00308C"/>
<stop offset="1" stop-color="#82ADFF"/>
</linearGradient>
<linearGradient id="paint11_linear_2551_109050" x1="387.702" y1="89.0404" x2="331.794" y2="89.0404" gradientUnits="userSpaceOnUse">
<stop stop-color="#EEF5FC"/>
<stop offset="1" stop-color="white"/>
</linearGradient>
<linearGradient id="paint12_linear_2551_109050" x1="387.702" y1="66.8395" x2="331.794" y2="66.8395" gradientUnits="userSpaceOnUse">
<stop stop-color="#F3F8FD"/>
<stop offset="1" stop-color="white"/>
</linearGradient>
<linearGradient id="paint13_linear_2551_109050" x1="176.594" y1="280.854" x2="143.951" y2="284.324" gradientUnits="userSpaceOnUse">
<stop offset="0.4252" stop-color="#F3F4FF"/>
<stop offset="0.57835" stop-color="#E5E8FE"/>
</linearGradient>
<linearGradient id="paint14_linear_2551_109050" x1="180.363" y1="276.694" x2="142.174" y2="276.694" gradientUnits="userSpaceOnUse">
<stop stop-color="#F7F8FF"/>
<stop offset="1" stop-color="white"/>
</linearGradient>
<linearGradient id="paint15_linear_2551_109050" x1="205.017" y1="257.755" x2="172.375" y2="261.225" gradientUnits="userSpaceOnUse">
<stop offset="0.4252" stop-color="#F3F4FF"/>
<stop offset="0.57835" stop-color="#E5E8FE"/>
</linearGradient>
<linearGradient id="paint16_linear_2551_109050" x1="208.786" y1="253.614" x2="170.597" y2="253.614" gradientUnits="userSpaceOnUse">
<stop stop-color="#F7F8FF"/>
<stop offset="1" stop-color="white"/>
</linearGradient>
<linearGradient id="paint17_linear_2551_109050" x1="233.402" y1="233.694" x2="200.76" y2="237.164" gradientUnits="userSpaceOnUse">
<stop offset="0.4252" stop-color="#F3F4FF"/>
<stop offset="0.57835" stop-color="#E5E8FE"/>
</linearGradient>
<linearGradient id="paint18_linear_2551_109050" x1="237.171" y1="229.534" x2="198.982" y2="229.534" gradientUnits="userSpaceOnUse">
<stop stop-color="#F7F8FF"/>
<stop offset="1" stop-color="white"/>
</linearGradient>
<linearGradient id="paint19_linear_2551_109050" x1="163.229" y1="273.858" x2="172.945" y2="270.619" gradientUnits="userSpaceOnUse">
<stop stop-color="#DDE5FF"/>
<stop offset="1" stop-color="#EBF0FF" stop-opacity="0"/>
</linearGradient>
<linearGradient id="paint20_linear_2551_109050" x1="188.599" y1="256.586" x2="184.82" y2="261.983" gradientUnits="userSpaceOnUse">
<stop stop-color="#DDE5FF"/>
<stop offset="1" stop-color="#EBF0FF" stop-opacity="0"/>
</linearGradient>
<linearGradient id="paint21_linear_2551_109050" x1="63.7505" y1="234.458" x2="-0.00464126" y2="234.458" gradientUnits="userSpaceOnUse">
<stop stop-color="#CED4FF"/>
<stop offset="1" stop-color="#CED4FF" stop-opacity="0"/>
</linearGradient>
<linearGradient id="paint22_linear_2551_109050" x1="88.1691" y1="206.079" x2="39.3626" y2="206.079" gradientUnits="userSpaceOnUse">
<stop stop-color="#F7F8FF"/>
<stop offset="1" stop-color="white"/>
</linearGradient>
<linearGradient id="paint23_linear_2551_109050" x1="54.2847" y1="256.958" x2="17.7898" y2="256.958" gradientUnits="userSpaceOnUse">
<stop stop-color="#CED4FF"/>
<stop offset="1" stop-color="#CED4FF" stop-opacity="0"/>
</linearGradient>
</defs>
</svg>
