<svg width="95" height="69" viewBox="0 0 95 69" fill="none" xmlns="http://www.w3.org/2000/svg">
<path fill-rule="evenodd" clip-rule="evenodd" d="M14.7793 19.405C14.8807 19.6875 14.8855 19.8761 14.987 20.1586C14.9966 20.5358 14.9046 20.6305 14.5273 20.632C13.1243 21.1093 11.8132 21.4918 10.4101 21.9691C10.0328 21.9706 9.74744 21.8774 9.64604 21.5949C9.53974 21.1238 9.53014 20.7466 9.52064 20.3694C8.95464 20.3717 8.48533 20.4679 8.01133 20.3755C7.45493 20.755 6.70504 20.9466 6.04714 21.0436C4.62974 20.955 3.20764 20.6779 1.79034 20.5893C1.31624 20.4969 0.934136 20.3098 0.827936 19.8387C0.620136 19.0851 0.233236 18.7094 0.794536 18.5185C2.10554 18.1359 3.51334 17.8473 4.92114 17.5587C5.20174 17.4632 5.48713 17.5564 5.77253 17.6495C6.25613 18.1191 6.83644 18.6826 7.32004 19.1522C7.41674 19.2462 7.60544 19.2454 7.60544 19.2454C7.88604 19.15 7.97793 19.0553 8.25853 18.9598C8.82453 18.9575 9.29854 19.0499 9.76784 18.9537C10.2323 18.6689 10.6048 18.4788 11.1708 18.4765C11.7416 18.6628 14.4843 18.9346 14.7793 19.405Z" fill="#0177FF"/>
<path fill-rule="evenodd" clip-rule="evenodd" d="M38.5019 52.4735C37.483 52.5687 36.5337 53.7923 37.7308 54.0298C41.1937 54.7018 44.5675 55.2075 47.9412 55.7133C48.3271 55.8344 48.7525 55.8296 49.0888 55.6585C49.7119 55.0241 50.3349 54.3897 50.8293 53.7149C50.958 53.7553 50.958 53.7553 51.0866 53.7957C51.9374 53.7861 52.8773 53.9428 53.7281 53.9332C54.0249 53.8881 54.1931 53.8025 54.5294 53.6314C58.289 54.2583 61.6923 54.2199 65.6 53.925C65.8968 53.8798 66.1936 53.8346 66.2726 53.5828C66.3912 53.205 66.1735 52.9984 65.6194 52.9628C62.4634 52.6637 59.2678 52.4906 55.8646 52.5289C55.3105 52.4933 54.9742 52.6644 54.5984 52.9614C54.4202 52.6288 54.1134 52.2559 53.4307 52.1799C52.748 52.1039 51.8972 52.1135 51.175 52.1635C50.8783 52.2087 50.6706 52.4201 50.3343 52.5912C49.3053 52.2682 48.2367 52.0711 47.1287 51.9999C44.3685 52.2402 41.3512 52.3996 38.5019 52.4735Z" fill="#0177FF"/>
<path fill-rule="evenodd" clip-rule="evenodd" d="M74.353 32.6175C73.4332 32.4081 74.8808 31.6737 75.4784 31.6163C75.7773 31.5876 76.0761 31.5589 76.3749 31.5302C78.6506 31.3711 79.9607 31.1857 82.1682 31.6882C82.283 31.6176 82.5129 31.4765 82.6968 31.5183C83.1796 31.5315 83.5474 31.6153 84.0302 31.6284C84.2141 31.6703 84.3524 31.8952 84.4215 32.0076C84.6055 32.0495 84.7893 32.0914 84.8584 32.2038C88.375 31.747 90.7431 31.9958 94.1461 32.3835C93.8941 33.0032 92.699 33.118 92.101 33.1754C89.457 33.2507 86.7904 33.0305 84.1235 32.8103C84.0086 32.8809 84.0086 32.8809 83.8937 32.9515C83.3419 32.8259 82.8591 32.8127 82.1923 32.7576C82.1233 32.6452 81.9394 32.6033 81.7554 32.5615C81.3651 32.9562 80.9055 33.2385 80.5151 33.6333C80.1705 33.845 79.826 34.0567 79.458 33.973C77.9173 33.5255 75.2037 32.7144 74.353 32.6175Z" fill="#0177FF"/>
<path fill-rule="evenodd" clip-rule="evenodd" d="M37.3213 9.76172C37.5909 10.8176 44.8709 10.8176 46.6235 10.8176C46.6235 10.9495 46.7583 10.9495 47.028 10.9495C47.028 11.0815 47.1628 11.0815 47.1628 11.2135C47.9717 11.3455 48.7805 11.3455 49.4546 11.3455C49.4546 11.2135 49.5894 11.2135 49.5894 11.0815C49.9939 11.4775 50.3983 11.8734 50.8028 12.2693C51.0724 12.5333 51.342 12.6653 51.7465 12.6653C52.5554 12.6653 59.8354 12.4013 59.7005 11.8734C59.1613 10.8176 51.0724 10.5536 49.7243 10.5536C49.7243 10.4216 49.5894 10.1577 49.3198 10.2896C48.7805 10.2896 48.1065 10.2896 47.5672 10.1577C47.2976 10.1577 47.1628 10.2896 47.028 10.4216C46.7583 10.4216 46.6235 10.4216 46.6235 10.6856C43.5228 10.1577 40.422 9.76172 37.3213 9.76172Z" fill="#0177FF"/>
<path fill-rule="evenodd" clip-rule="evenodd" d="M13.544 16.5872C13.753 16.8031 13.835 16.9731 14.043 17.1889C14.207 17.5289 14.162 17.653 13.819 17.8094C12.736 18.8209 11.697 19.7083 10.614 20.7198C10.271 20.8763 9.97197 20.9086 9.76397 20.6927C9.47297 20.3068 9.30996 19.9668 9.14596 19.6268C8.63096 19.8614 8.24296 20.142 7.77296 20.2525C7.42096 20.8271 6.81596 21.3099 6.25596 21.6686C4.92796 22.1701 3.51696 22.5016 2.18896 23.0032C1.71796 23.1137 1.29297 23.1001 1.00297 22.7142C0.503969 22.1125 -0.00304456 21.9289 0.429955 21.5243C1.46796 20.6369 2.63297 19.7954 3.79797 18.9539C4.01497 18.7516 4.31296 18.7193 4.61196 18.6869C5.24496 18.9164 6.00596 19.1918 6.63996 19.4212C6.76696 19.4671 6.93797 19.3889 6.93797 19.3889C7.15497 19.1866 7.19996 19.0625 7.41596 18.8602C7.93096 18.6256 8.40196 18.5151 8.78996 18.2346C9.09596 17.7841 9.35796 17.4577 9.87296 17.2231C10.47 17.1585 13.082 16.2795 13.544 16.5872Z" fill="#0177FF"/>
<path fill-rule="evenodd" clip-rule="evenodd" d="M39.259 59.0583C38.396 59.608 38.11 61.13 39.283 60.7949C42.671 59.8122 45.904 58.7223 49.137 57.6323C49.535 57.564 49.912 57.3655 50.133 57.0598C50.398 56.211 50.662 55.3621 50.794 54.5361C50.927 54.5133 50.927 54.5133 51.06 54.4905C51.813 54.0936 52.72 53.8041 53.473 53.4072C53.717 53.2315 53.827 53.0787 54.048 52.7729C57.68 51.6146 60.69 50.0271 64.032 47.9811C64.276 47.8054 64.519 47.6298 64.475 47.3696C64.408 46.9794 64.12 46.8948 63.61 47.1161C60.666 48.2905 57.744 49.5951 54.733 51.1826C54.224 51.4038 54.003 51.7095 53.804 52.1453C53.493 51.9307 53.05 51.7389 52.408 51.9829C51.766 52.2269 51.013 52.6238 50.394 52.9979C50.15 53.1735 50.062 53.4565 49.841 53.7622C48.778 53.9445 47.737 54.2569 46.719 54.6993C44.373 56.1729 41.761 57.692 39.259 59.0583Z" fill="#0177FF"/>
<path fill-rule="evenodd" clip-rule="evenodd" d="M75.3059 36.6053C74.3809 36.7929 75.3979 35.5279 75.9189 35.2297C76.1799 35.0806 76.4399 34.9315 76.7009 34.7824C78.7099 33.7011 79.8269 32.993 82.0459 32.5427C82.1219 32.4311 82.2729 32.208 82.4579 32.1704C82.9029 31.9838 83.2729 31.9087 83.7189 31.7221C83.9039 31.6846 84.1219 31.8327 84.2309 31.9068C84.4159 31.8692 84.6009 31.8317 84.7099 31.9058C87.7279 30.0423 89.9879 29.2948 93.2489 28.248C93.2739 28.9166 92.2319 29.513 91.7109 29.8112C89.3329 30.9676 86.8109 31.8643 84.2899 32.7609C84.2139 32.8725 84.2139 32.8725 84.1389 32.9841C83.5839 33.0967 83.1389 33.2833 82.5079 33.5075C82.3989 33.4334 82.2139 33.471 82.0289 33.5085C81.8359 34.0289 81.5329 34.4752 81.3399 34.9957C81.1129 35.3304 80.8859 35.6652 80.5159 35.7402C78.9279 35.9664 76.1209 36.3436 75.3059 36.6053Z" fill="#0177FF"/>
<path fill-rule="evenodd" clip-rule="evenodd" d="M37.806 14.7793C38.508 15.6124 45.062 12.4426 46.64 11.6795C46.697 11.7984 46.818 11.7397 47.061 11.6223C47.119 11.7411 47.24 11.6824 47.297 11.8012C48.083 11.5678 48.811 11.2156 49.418 10.9221C49.361 10.8033 49.482 10.7446 49.425 10.6258C49.961 10.8061 50.497 10.9865 51.034 11.1668C51.392 11.287 51.692 11.2884 52.056 11.1123C52.784 10.7601 59.223 7.35279 58.872 6.93619C57.926 6.22049 50.53 9.50479 49.316 10.0918C49.259 9.97299 49.022 9.79409 48.837 10.0303C48.352 10.2651 47.745 10.5586 47.202 10.6746C46.959 10.792 46.895 10.9695 46.831 11.147C46.589 11.2644 46.467 11.3231 46.582 11.5607C43.561 12.4356 40.597 13.4292 37.806 14.7793Z" fill="#0177FF"/>
<path fill-rule="evenodd" clip-rule="evenodd" d="M7.55609 12.5577C7.83909 12.4592 8.02811 12.4565 8.31211 12.358C8.68911 12.3525 8.78309 12.4454 8.78009 12.8227C9.24209 14.2308 9.61109 15.5458 10.0731 16.9539C10.0711 17.3312 9.9741 17.6156 9.6911 17.714C9.2191 17.8153 8.84108 17.8208 8.46408 17.8263C8.46008 18.3923 8.5511 18.8626 8.4541 19.3356C8.8281 19.896 9.01111 20.6479 9.10111 21.3068C8.99811 22.7232 8.70508 24.1422 8.60208 25.5586C8.50408 26.0316 8.3131 26.4117 7.8411 26.5129C7.0851 26.7126 6.70508 27.0955 6.52008 26.5322C6.15208 25.2172 5.8781 23.8064 5.6041 22.3956C5.5121 22.114 5.60809 21.8296 5.70409 21.5452C6.17909 21.0667 6.74909 20.4924 7.22309 20.0139C7.31809 19.9181 7.3201 19.7295 7.3201 19.7295C7.2271 19.4479 7.13408 19.3549 7.04108 19.0733C7.04508 18.5073 7.14209 18.0343 7.05109 17.5641C6.77109 17.0965 6.58508 16.722 6.58908 16.156C6.78108 15.5873 7.08209 12.8476 7.55609 12.5577Z" fill="#0177FF"/>
<path fill-rule="evenodd" clip-rule="evenodd" d="M51.6699 66.8434C51.7879 67.86 53.0329 68.7817 53.2439 67.5795C53.8379 64.1025 54.2679 60.7182 54.6979 57.334C54.8109 56.9455 54.7959 56.5203 54.6179 56.1879C53.9699 55.5792 53.3219 54.9705 52.6359 54.4913C52.6729 54.3618 52.6729 54.3618 52.7109 54.2323C52.6819 53.3819 52.8179 52.4388 52.7889 51.5884C52.7369 51.2927 52.6479 51.1265 52.4699 50.7941C53.0119 47.0213 52.8979 43.6198 52.5149 39.7197C52.4639 39.424 52.4119 39.1283 52.1579 39.0549C51.7779 38.9448 51.5759 39.1671 51.5529 39.7217C51.3249 42.8837 51.2229 46.0823 51.3379 49.4839C51.3139 50.0386 51.4929 50.371 51.7979 50.7401C51.4699 50.9257 51.1039 51.2408 51.0429 51.9249C50.9819 52.6091 51.0109 53.4595 51.0769 54.1804C51.1289 54.4761 51.3449 54.679 51.5229 55.0114C51.2239 56.0474 51.0499 57.1201 51.0039 58.2294C51.3059 60.9835 51.5329 63.9966 51.6699 66.8434Z" fill="#0177FF"/>
<path fill-rule="evenodd" clip-rule="evenodd" d="M84.389 41.7974C84.185 42.7184 83.442 41.2754 83.38 40.6782C83.35 40.3795 83.319 40.0809 83.289 39.7822C83.116 37.5075 82.923 36.1985 83.412 33.988C83.34 33.8736 83.198 33.6447 83.239 33.4605C83.249 32.9777 83.33 32.6092 83.34 32.1264C83.381 31.9422 83.605 31.8026 83.717 31.7329C83.758 31.5486 83.799 31.3644 83.911 31.2947C83.432 27.7807 83.667 25.4111 84.034 22.0061C84.655 22.2545 84.777 23.449 84.838 24.0463C84.93 26.6894 84.726 29.3577 84.522 32.0259C84.593 32.1403 84.593 32.1403 84.664 32.2548C84.542 32.8074 84.532 33.2903 84.481 33.9573C84.369 34.0271 84.328 34.2113 84.287 34.3955C84.684 34.7835 84.97 35.2412 85.367 35.6291C85.581 35.9724 85.794 36.3157 85.713 36.6842C85.275 38.2276 84.48 40.9461 84.389 41.7974Z" fill="#0177FF"/>
<path fill-rule="evenodd" clip-rule="evenodd" d="M47.252 22.4277C48.303 22.1401 48.179 14.8612 48.149 13.1088C48.281 13.1066 48.278 12.9718 48.274 12.7022C48.406 12.6999 48.403 12.5651 48.535 12.5629C48.653 11.7518 48.64 10.9431 48.628 10.2691C48.496 10.2714 48.494 10.1366 48.362 10.1388C48.751 9.72771 49.14 9.31651 49.529 8.90531C49.788 8.63121 49.915 8.35941 49.908 7.95501C49.895 7.14621 49.506 -0.128166 48.981 0.0156539C47.934 0.572884 47.809 8.66511 47.832 10.013C47.7 10.0153 47.438 10.1546 47.575 10.4219C47.584 10.9611 47.595 11.6351 47.473 12.1765C47.477 12.4461 47.612 12.5787 47.746 12.7112C47.75 12.9808 47.753 13.1156 48.017 13.1111C47.542 16.2204 47.199 19.3274 47.252 22.4277Z" fill="#0177FF"/>
<path fill-rule="evenodd" clip-rule="evenodd" d="M2.81089 14.5148C2.95289 14.2505 3.08989 14.121 3.23289 13.8567C3.50689 13.5976 3.63889 13.6028 3.89189 13.8825C5.18489 14.6078 6.34488 15.3278 7.63688 16.0531C7.89088 16.3328 8.01188 16.6074 7.86988 16.8717C7.58988 17.2655 7.31587 17.5246 7.04087 17.7836C7.42087 18.2033 7.80587 18.4882 8.05387 18.9027C8.70787 19.0632 9.3519 19.4932 9.8639 19.918C10.7439 21.0319 11.4879 22.2753 12.3689 23.3891C12.6169 23.8036 12.7329 24.2129 12.4539 24.6067C12.0309 25.2648 12.0099 25.8036 11.4929 25.5135C10.3329 24.7934 9.17789 23.9387 8.02189 23.0839C7.76389 22.9389 7.64289 22.6643 7.52089 22.3897C7.54789 21.7161 7.57888 20.9078 7.60588 20.2343C7.61088 20.0996 7.4839 19.9597 7.4839 19.9597C7.2259 19.8147 7.09389 19.8095 6.83589 19.6644C6.45589 19.2448 6.20789 18.8303 5.82289 18.5454C5.30089 18.39 4.90989 18.2398 4.52989 17.8202C4.28789 17.271 2.65789 15.0484 2.81089 14.5148Z" fill="#0177FF"/>
<path fill-rule="evenodd" clip-rule="evenodd" d="M59.9981 64.865C60.6791 65.629 62.2271 65.6676 61.7081 64.5629C60.1961 61.3762 58.6021 58.3599 57.0081 55.3436C56.8771 54.961 56.6211 54.6214 56.2831 54.452C55.4031 54.3267 54.5231 54.2013 53.6861 54.2034C53.6431 54.0759 53.6431 54.0759 53.5991 53.9483C53.0861 53.269 52.6551 52.4193 52.1431 51.7399C51.9311 51.5278 51.7621 51.4431 51.4251 51.2738C49.7001 47.875 47.6501 45.1576 45.0951 42.1862C44.8831 41.9741 44.6711 41.7619 44.4211 41.8476C44.0461 41.9762 44.0091 42.274 44.3091 42.7412C45.9401 45.4597 47.6961 48.1353 49.7451 50.8527C50.0451 51.3198 50.3821 51.4891 50.8441 51.6156C50.6821 51.9563 50.5641 52.4246 50.9081 53.0193C51.2511 53.614 51.7641 54.2933 52.2321 54.8451C52.4451 55.0573 52.7381 55.0991 53.0751 55.2684C53.4251 56.2885 53.9001 57.2657 54.5001 58.2001C56.3311 60.2799 58.2491 62.6148 59.9981 64.865Z" fill="#0177FF"/>
<path fill-rule="evenodd" clip-rule="evenodd" d="M89.1209 39.4368C89.5279 40.2879 88.0539 39.609 87.6379 39.1761C87.4299 38.9597 87.2219 38.7432 87.0139 38.5268C85.4759 36.8414 84.5179 35.9294 83.5409 33.8869C83.4139 33.8406 83.1609 33.7481 83.0799 33.5779C82.7899 33.1913 82.6279 32.8508 82.3379 32.4642C82.2569 32.294 82.3469 32.046 82.3929 31.922C82.3109 31.7518 82.2299 31.5816 82.2749 31.4576C79.7339 28.9842 78.4589 26.9732 76.6499 24.0648C77.2929 23.8778 78.1249 24.7436 78.5409 25.1765C80.2409 27.2023 81.7239 29.4298 83.2069 31.6573C83.3339 31.7036 83.3339 31.7036 83.4599 31.7498C83.7039 32.2604 83.9939 32.6471 84.3649 33.204C84.3189 33.328 84.4009 33.4982 84.4819 33.6684C85.0339 33.7294 85.5399 33.9143 86.0919 33.9753C86.4719 34.114 86.8519 34.2527 87.0149 34.5931C87.6199 36.0788 88.6689 38.7097 89.1209 39.4368Z" fill="#0177FF"/>
<path fill-rule="evenodd" clip-rule="evenodd" d="M54.519 19.6035C55.127 18.6994 50.28 13.2674 49.113 11.9598C49.212 11.8719 49.122 11.7713 48.942 11.5701C49.041 11.4822 48.951 11.3816 49.049 11.2938C48.609 10.6024 48.071 9.99885 47.622 9.49595C47.524 9.58375 47.434 9.48315 47.335 9.57105C47.362 9.00565 47.388 8.44025 47.414 7.87485C47.431 7.49795 47.35 7.20895 47.081 6.90715C46.542 6.30355 41.499 1.04745 41.194 1.49945C40.766 2.60485 45.954 8.81605 46.852 9.82195C46.753 9.90985 46.646 10.1861 46.924 10.2994C47.283 10.7018 47.732 11.2047 47.992 11.695C48.172 11.8961 48.36 11.9089 48.548 11.9216C48.728 12.1228 48.818 12.2234 49.015 12.0476C50.685 14.7127 52.454 17.2899 54.519 19.6035Z" fill="#0177FF"/>
<path fill-rule="evenodd" clip-rule="evenodd" d="M31.1199 43.4162C31.9289 43.4162 33.9509 40.3807 34.8949 38.7969C35.2989 39.0609 36.3779 39.7208 36.6469 39.8527C37.0519 39.9847 39.3429 39.3248 40.5569 38.7969C41.4999 38.401 44.4659 36.8172 45.8149 36.0253C45.9489 36.0253 46.0839 35.8933 46.3539 35.8933C46.6229 35.8933 46.8929 35.6294 46.8929 35.4974C48.2409 34.7055 50.9379 33.2538 51.4769 33.2538C52.0159 33.2538 52.8249 33.2538 53.4989 32.8578C54.0379 32.4619 54.9819 31.802 55.2519 31.406C55.2519 31.0101 55.5209 29.9543 56.7349 29.2944C57.9479 28.7664 58.4869 29.0304 58.7569 29.2944C58.8919 29.0304 59.0259 28.5025 59.1609 28.1065C59.2959 27.5786 58.7569 26.1268 58.6219 25.5989C58.4869 25.071 58.6219 24.0152 58.4869 23.4873C58.3519 22.9593 58.3519 22.8274 58.6219 22.2994C58.7569 21.9035 58.4869 21.5076 58.3519 21.2436C58.3519 20.9796 58.3519 20.5837 58.3519 20.4517C58.3519 20.3197 57.0039 20.0558 56.4649 19.9238C55.5209 19.2639 53.3639 17.9441 52.6899 17.2842C52.0159 16.6243 51.4769 16.3604 50.5329 16.3604C49.7239 16.3604 48.5109 17.6801 48.3759 17.9441C48.2409 18.2081 47.0279 18.604 46.4889 18.736L35.5689 22.1675C34.6249 22.1675 32.3329 22.1675 31.7939 22.2994C30.9849 22.2994 23.0309 25.9949 22.6259 26.2588C22.2219 26.5228 22.0869 27.4466 21.9519 27.8426V27.9746C21.8179 28.1065 21.5479 28.3705 21.5479 28.7664C21.5479 29.1624 21.6829 29.5583 21.8179 29.6903V30.4822C21.9519 30.6142 22.3569 31.0101 22.8959 31.67C23.5699 32.3299 24.6489 33.2538 25.1879 33.6497H24.3789C23.8399 33.2538 22.4919 33.1218 21.6829 34.8375C20.7389 36.6852 21.5479 37.2131 21.9519 37.2131L21.6829 38.7969L22.4919 41.0406C23.1659 41.5685 24.7829 42.6243 25.5919 43.2842C26.4009 43.9441 28.4229 43.5482 29.2319 43.2842H31.1199V43.4162Z" fill="#0177FF"/>
<path fill-rule="evenodd" clip-rule="evenodd" d="M58.3519 28.6348C58.3519 28.6348 58.2169 29.4266 58.4869 29.5586C58.7559 29.6906 77.8999 33.782 78.7089 34.0459C79.5179 34.1779 80.0569 34.0459 80.3269 34.0459C80.5959 34.0459 80.8659 33.518 82.8879 33.782C84.9099 34.0459 86.1239 36.9495 84.5059 37.4774C82.8879 38.0053 81.9449 38.0053 81.0009 37.4774C80.1919 36.9495 79.7879 36.2896 77.7649 35.8936C75.7429 35.6297 56.4649 32.1982 55.7899 31.9343C55.1159 31.8023 54.5769 31.0104 54.5769 30.4825C54.5769 29.9546 54.7119 29.5586 54.7119 29.5586L58.3519 28.6348Z" fill="#0188FF"/>
<path fill-rule="evenodd" clip-rule="evenodd" d="M56.6001 30.8777C55.7911 30.4818 56.1961 29.5579 56.1961 29.5579L55.9261 29.2939L54.7131 29.5579C54.7131 29.5579 54.4431 29.9538 54.5781 30.4818C54.7131 31.0097 55.1171 31.8016 55.7911 31.9335C56.4651 32.0655 75.7441 35.629 77.7661 35.8929C79.3841 36.1569 79.9231 36.5528 80.4621 37.0807C80.5971 37.2127 80.7321 37.3447 80.8671 37.4767C81.6761 38.0046 82.7541 38.0046 84.3721 37.4767C84.9111 37.3447 85.0461 36.9488 85.1811 36.4208L80.1931 35.761C80.3271 35.629 57.5441 31.2736 56.6001 30.8777Z" fill="#0176FF"/>
<path fill-rule="evenodd" clip-rule="evenodd" d="M85.0459 35.4979C85.3149 34.838 84.5059 33.9141 83.1579 33.3862C81.9449 32.9903 80.5969 33.2542 80.4619 33.9141C80.1919 34.574 81.0009 35.4979 82.3489 36.0258C83.5629 36.5537 84.9109 36.2898 85.0459 35.4979Z" fill="#006EED"/>
<path fill-rule="evenodd" clip-rule="evenodd" d="M80.4619 34.0454L81.2709 31.8018L85.8549 33.2535L85.0459 35.4972L80.4619 34.0454Z" fill="#006EED"/>
<path fill-rule="evenodd" clip-rule="evenodd" d="M85.854 33.2538C86.124 32.5939 85.315 31.67 83.967 31.1421C82.753 30.7461 81.4049 31.0101 81.2699 31.67C81.0009 32.3299 81.8099 33.2538 83.1579 33.7817C84.3709 34.3096 85.584 34.0456 85.854 33.2538Z" fill="#0188FF"/>
<path fill-rule="evenodd" clip-rule="evenodd" d="M85.3151 32.9895C85.5851 32.4616 84.9111 31.6697 83.9671 31.4058C83.0231 31.1418 82.0791 31.2738 81.9451 31.9337C81.6751 32.4616 82.3491 33.2535 83.2931 33.5175C84.2371 33.7814 85.1801 33.5175 85.3151 32.9895Z" fill="#1D95FF"/>
<path fill-rule="evenodd" clip-rule="evenodd" d="M46.7581 18.6041C46.7581 18.6041 47.1621 14.9087 47.0271 14.6447C46.8931 14.3807 46.623 14.3807 46.623 13.9848C46.623 13.7208 46.8931 13.7208 46.8931 13.7208C46.8931 13.7208 47.2971 14.1168 48.3761 13.9848C49.4541 13.8528 49.8591 13.5889 49.8591 13.5889C49.8591 13.5889 49.8591 13.9848 49.8591 14.2488C49.8591 14.5127 49.05 15.0406 49.05 15.8325C49.05 16.6244 49.05 17.2843 49.05 17.2843L47.8361 18.4721L46.7581 18.6041Z" fill="#0177FF"/>
<path fill-rule="evenodd" clip-rule="evenodd" d="M47.4321 13.9847C47.5671 14.2486 47.567 14.6446 47.567 15.1725C47.567 15.9644 47.4321 17.5481 47.2971 18.472L46.7581 18.604C46.7581 18.604 47.1621 14.9085 47.0271 14.6446C47.0271 14.5126 46.8931 14.5126 46.8931 14.3806C46.7581 14.2486 46.623 14.2486 46.623 13.9847C46.623 13.7207 46.8931 13.7207 46.8931 13.7207C46.8931 13.7207 47.0271 13.9847 47.4321 13.9847Z" fill="#019AFF"/>
<path fill-rule="evenodd" clip-rule="evenodd" d="M48.106 15.8324C49.185 15.8324 50.128 15.3045 50.128 14.7765C50.128 14.1166 49.185 13.7207 48.106 13.7207C47.028 13.7207 46.084 14.2486 46.084 14.7765C46.084 15.3045 47.028 15.8324 48.106 15.8324Z" fill="#0177FF"/>
<path fill-rule="evenodd" clip-rule="evenodd" d="M50.128 10.8173V10.9492C49.994 11.3452 49.185 11.6091 48.106 11.6091C47.028 11.6091 46.084 11.2132 46.084 10.8173C46.084 10.4213 47.028 10.0254 48.106 10.0254C49.32 10.0254 50.128 10.4213 50.128 10.8173Z" fill="#0177FF"/>
<path d="M50.128 10.8174H46.084V14.6448H50.128V10.8174Z" fill="#0177FF"/>
<path fill-rule="evenodd" clip-rule="evenodd" d="M24.109 25.7311C24.109 25.7311 11.167 24.2793 10.897 24.1473C10.493 24.0154 10.358 23.3555 10.358 23.3555C10.358 23.3555 10.223 23.8834 9.41401 24.0154C8.60601 24.1473 8.87501 25.0712 8.87501 25.0712L10.089 25.9951C10.089 25.9951 10.763 25.8631 15.346 26.523C20.065 27.1829 22.896 27.8428 22.896 27.8428L24.109 25.7311Z" fill="#019AFF"/>
<path fill-rule="evenodd" clip-rule="evenodd" d="M23.705 26.5225C21.413 26.2586 16.964 25.8626 14.133 25.4667C11.436 25.0707 9.684 24.8068 8.875 24.6748C8.875 24.9388 9.01001 25.2027 9.01001 25.2027L10.088 25.9946C10.088 25.9946 10.762 25.8626 15.346 26.5225C20.065 27.1824 22.896 27.8423 22.896 27.8423L23.705 26.5225Z" fill="#0177FF"/>
<path fill-rule="evenodd" clip-rule="evenodd" d="M10.088 25.9951C10.088 25.9951 9.41395 26.127 9.54895 26.523C9.81895 26.7869 11.437 31.4062 11.437 31.6702C11.437 31.9341 10.2229 32.0661 9.95395 31.9341C9.81895 31.8022 6.85293 26.7869 6.71793 26.655C6.58293 26.523 5.90893 25.5991 5.77393 25.2032C5.77393 24.6753 5.77393 23.3555 5.77393 23.3555H10.088V25.9951Z" fill="#0177FF"/>
<path fill-rule="evenodd" clip-rule="evenodd" d="M10.3579 23.3556C10.3579 24.0155 9.27995 24.4115 8.06595 24.4115C6.85295 24.4115 5.77393 23.8836 5.77393 23.3556C5.77393 22.6957 6.85295 22.2998 8.06595 22.2998C9.14495 22.2998 10.0879 22.6957 10.3579 23.2237C10.3579 23.2237 10.3579 23.2237 10.3579 23.3556Z" fill="#0177FF"/>
<path fill-rule="evenodd" clip-rule="evenodd" d="M10.2231 20.8477L10.3581 23.0913L5.77411 23.3553L5.64014 20.8477H10.2231Z" fill="#0177FF"/>
<path fill-rule="evenodd" clip-rule="evenodd" d="M7.93112 21.9037C9.14512 21.9037 10.2231 21.3757 10.2231 20.8478C10.2231 20.1879 9.14512 19.792 7.93112 19.792C6.71812 19.792 5.64014 20.3199 5.64014 20.8478C5.64014 21.5077 6.58312 21.9037 7.93112 21.9037Z" fill="#0177FF"/>
<path fill-rule="evenodd" clip-rule="evenodd" d="M8.06601 20.7156C8.87501 20.7156 9.54901 20.4516 9.54901 19.9237C9.54901 19.5278 8.87501 19.1318 8.06601 19.1318C7.25701 19.1318 6.58301 19.3958 6.58301 19.9237C6.58301 20.4516 7.25701 20.7156 8.06601 20.7156Z" fill="#0177FF"/>
<path fill-rule="evenodd" clip-rule="evenodd" d="M31.1199 43.4162C31.9289 43.4162 33.9509 40.3807 34.8949 38.7969C35.2989 39.0609 36.3779 39.7208 36.6469 39.8527C37.0519 39.9847 39.3429 39.3248 40.5569 38.7969C41.4999 38.401 44.4659 36.8172 45.8149 36.0253C45.9489 36.0253 46.0839 35.8933 46.3539 35.8933C46.6229 35.8933 46.8929 35.6294 46.8929 35.4974C48.2409 34.7055 50.9379 33.2538 51.4769 33.2538C52.0159 33.2538 52.8249 33.2538 53.4989 32.8578C54.0379 32.4619 54.9819 31.802 55.2519 31.406C55.2519 31.0101 55.5209 29.9543 56.7349 29.2944C57.9479 28.7664 58.4869 29.0304 58.7569 29.2944C58.8919 29.0304 59.0259 28.5025 59.1609 28.1065C59.2959 27.5786 58.7569 26.1268 58.6219 25.5989C58.4869 25.071 58.6219 24.0152 58.4869 23.4873C58.3519 22.9593 58.3519 22.8274 58.6219 22.2994C58.7569 21.9035 58.4869 21.5076 58.3519 21.2436C58.3519 20.9796 58.3519 20.5837 58.3519 20.4517C58.3519 20.3197 57.0039 20.0558 56.4649 19.9238C55.5209 19.2639 53.3639 17.9441 52.6899 17.2842C52.0159 16.6243 51.4769 16.3604 50.5329 16.3604C49.7239 16.3604 48.5109 17.6801 48.3759 17.9441C48.2409 18.2081 47.0279 18.604 46.4889 18.736L35.5689 22.1675C34.6249 22.1675 32.3329 22.1675 31.7939 22.2994C30.9849 22.2994 23.0309 25.9949 22.6259 26.2588C22.2219 26.5228 22.0869 27.4466 21.9519 27.8426V27.9746C21.8179 28.1065 21.5479 28.3705 21.5479 28.7664C21.5479 29.1624 21.6829 29.5583 21.8179 29.6903V30.4822C21.9519 30.6142 22.3569 31.0101 22.8959 31.67C23.5699 32.3299 24.6489 33.2538 25.1879 33.6497H24.3789C23.8399 33.2538 22.4919 33.1218 21.6829 34.8375C20.7389 36.6852 21.5479 37.2131 21.9519 37.2131L21.6829 38.7969L22.4919 41.0406C23.1659 41.5685 24.7829 42.6243 25.5919 43.2842C26.4009 43.9441 28.4229 43.5482 29.2319 43.2842H31.1199V43.4162Z" fill="#0177FF"/>
<path fill-rule="evenodd" clip-rule="evenodd" d="M22.2219 30.4818C21.6829 29.8219 21.8179 28.3702 21.9529 27.7103L22.4919 24.6747L31.2549 21.3752L46.0839 18.4717L52.8249 22.827C49.9939 23.8828 44.0619 25.9945 43.5229 26.1265C42.8489 26.3905 42.1749 29.162 42.0399 29.294C41.7699 29.426 29.2329 34.8372 28.8279 34.8372C28.1539 34.7052 22.7619 31.2737 22.2219 30.4818Z" fill="#019AFF"/>
<path fill-rule="evenodd" clip-rule="evenodd" d="M40.1521 36.6853V35.1016L50.3981 56.0863H49.7241L40.1521 36.6853Z" fill="#0176FF"/>
<path fill-rule="evenodd" clip-rule="evenodd" d="M41.7701 34.7061L40.1521 35.234L50.2631 56.2187L52.4201 55.6908L41.7701 34.7061Z" fill="#018CFF"/>
<path fill-rule="evenodd" clip-rule="evenodd" d="M49.185 56.7459C49.185 56.218 49.455 54.2383 49.589 53.1825C51.477 53.0505 55.252 52.9185 55.252 53.4465C55.252 54.1064 54.712 54.3703 54.847 55.1622C54.847 55.8221 54.308 56.746 54.308 57.5378C54.173 58.1977 53.769 58.5937 53.229 58.8576C52.69 59.1216 50.533 61.4972 50.264 61.6292C49.859 61.7612 49.05 61.7612 48.915 61.2333C48.781 60.8373 49.724 59.1216 50.264 58.3297C49.859 58.0657 49.185 57.2739 49.185 56.7459Z" fill="#0177FF"/>
<path fill-rule="evenodd" clip-rule="evenodd" d="M55.117 53.7107C55.252 52.7868 54.173 51.863 52.69 51.599C51.207 51.3351 49.724 51.731 49.59 52.5229C49.455 53.3148 50.533 54.3706 52.016 54.6345C53.499 55.0305 54.982 54.5026 55.117 53.7107Z" fill="#018CFF"/>
</svg>
