<svg width="20" height="20" viewBox="0 0 20 20" fill="none" xmlns="http://www.w3.org/2000/svg">
<path fill-rule="evenodd" clip-rule="evenodd" d="M2 1C1.44772 1 1 1.44772 1 2V18C1 18.5523 1.44772 19 2 19H18C18.5523 19 19 18.5523 19 18V2C19 1.44772 18.5523 1 18 1H2ZM14.9928 15.5859L16.9928 3.58594C17.024 3.3776 16.9537 3.21094 16.7819 3.08594C16.6985 3.02865 16.6048 3 16.5006 3C16.4121 3 16.3287 3.02344 16.2506 3.07031L3.25086 10.5703C3.07378 10.6693 2.99045 10.8229 3.00087 11.0312C3.01649 11.2448 3.12066 11.388 3.31336 11.4609L6.39924 12.7266L14.7506 5.5L8.00077 13.7734V16.5C8.00077 16.6042 8.03072 16.6992 8.09061 16.7852C8.15051 16.8711 8.22993 16.9323 8.32889 16.9687C8.37577 16.9896 8.43306 17 8.50076 17C8.66222 17 8.78982 16.9401 8.88357 16.8203L10.7742 14.5156L14.3132 15.9609C14.3809 15.987 14.4434 16 14.5006 16C14.5892 16 14.6699 15.9792 14.7428 15.9375C14.8835 15.8542 14.9668 15.737 14.9928 15.5859Z" fill="#017AFF"/>
</svg>
