<svg width="20" height="20" viewBox="0 0 20 20" fill="none" xmlns="http://www.w3.org/2000/svg">
<rect x="0.833008" y="0.833313" width="18" height="18" rx="1" fill="#017AFF"/>
<path d="M15.625 6.69046C15.2066 6.87115 14.7609 6.99092 14.2961 7.04908C14.7742 6.768 15.1391 6.32631 15.3107 5.79392C14.8649 6.05562 14.3727 6.24046 13.8482 6.34362C13.4249 5.89985 12.8216 5.625 12.1635 5.625C10.8866 5.625 9.85867 6.64546 9.85867 7.89646C9.85867 8.07646 9.87414 8.24954 9.91211 8.41431C7.99469 8.32223 6.29805 7.41738 5.15828 6.039C4.9593 6.37892 4.84258 6.768 4.84258 7.18685C4.84258 7.97331 5.25391 8.67046 5.86703 9.07408C5.49648 9.06715 5.13297 8.96123 4.825 8.79438C4.825 8.80131 4.825 8.81031 4.825 8.81931C4.825 9.92285 5.62445 10.8395 6.67281 11.0506C6.48508 11.1012 6.28047 11.1254 6.06813 11.1254C5.92047 11.1254 5.77141 11.1171 5.63148 11.0866C5.93031 11.9859 6.77828 12.6471 7.78656 12.6685C7.00188 13.2729 6.00555 13.6371 4.92695 13.6371C4.73781 13.6371 4.55641 13.6288 4.375 13.6059C5.39664 14.2546 6.60742 14.625 7.91313 14.625C12.1572 14.625 14.4775 11.1635 14.4775 8.163C14.4775 8.06262 14.474 7.96569 14.4691 7.86946C14.9268 7.54962 15.3114 7.15015 15.625 6.69046Z" fill="#E1E8F7"/>
</svg>
