<svg width="20" height="20" viewBox="0 0 20 20" fill="none" xmlns="http://www.w3.org/2000/svg">
<rect x="0.833008" y="0.833313" width="18.3333" height="18.3333" rx="1" fill="#017AFF"/>
<path fill-rule="evenodd" clip-rule="evenodd" d="M15.6291 6.82743C15.7141 6.5583 15.6291 6.36257 15.2529 6.36257H14.003C13.6875 6.36257 13.5419 6.53384 13.4569 6.71733C13.4569 6.71733 12.8138 8.28317 11.9157 9.29852C11.6245 9.59211 11.491 9.68998 11.3333 9.68998C11.2483 9.68998 11.1391 9.59211 11.1391 9.32298V6.8152C11.1391 6.49714 11.042 6.35034 10.775 6.35034H8.80912C8.61495 6.35034 8.4936 6.49714 8.4936 6.64394C8.4936 6.94976 8.94261 7.02316 8.99115 7.87948V9.73891C8.99115 10.1426 8.91834 10.216 8.76058 10.216C8.33584 10.216 7.30435 8.63793 6.68545 6.83967C6.5641 6.48491 6.44275 6.35034 6.12723 6.35034H4.86516C4.50111 6.35034 4.44043 6.5216 4.44043 6.7051C4.44043 7.03539 4.86516 8.6991 6.41848 10.9011C7.44997 12.4057 8.91834 13.2131 10.2411 13.2131C11.042 13.2131 11.1391 13.0296 11.1391 12.7238V11.5861C11.1391 11.2191 11.2119 11.1579 11.4667 11.1579C11.6488 11.1579 11.9764 11.2558 12.7167 11.9776C13.5661 12.8339 13.7118 13.2253 14.185 13.2253H15.435C15.799 13.2253 15.9689 13.0418 15.8718 12.6871C15.7626 12.3323 15.35 11.8185 14.8161 11.2069C14.5248 10.8644 14.088 10.4851 13.9545 10.3016C13.7724 10.057 13.821 9.95911 13.9545 9.73891C13.9423 9.73891 15.4714 7.56142 15.6291 6.82743Z" fill="#E1E8F7"/>
</svg>
