<svg width="20" height="20" viewBox="0 0 20 20" fill="none" xmlns="http://www.w3.org/2000/svg">
<rect x="0.833008" y="0.833313" width="18" height="18" rx="1" fill="#017AFF"/>
<path d="M12.9521 11.2876C12.7925 11.2056 11.9971 10.8159 11.8491 10.7632C11.7012 10.7075 11.5928 10.6812 11.4858 10.8452C11.3774 11.0078 11.0698 11.3696 10.9731 11.4795C10.8794 11.5879 10.7842 11.6011 10.6245 11.5205C9.67529 11.0459 9.05273 10.6738 8.42725 9.6001C8.26172 9.31445 8.59277 9.33496 8.90186 8.71826C8.95459 8.60986 8.92822 8.51758 8.88721 8.43555C8.84619 8.35352 8.52393 7.55957 8.38916 7.23584C8.25879 6.9209 8.12402 6.96484 8.02588 6.95898C7.93213 6.95312 7.8252 6.95312 7.7168 6.95312C7.6084 6.95312 7.43408 6.99414 7.28613 7.15381C7.13818 7.31641 6.7207 7.70752 6.7207 8.50147C6.7207 9.29541 7.29932 10.0645 7.37842 10.1729C7.46045 10.2812 8.5166 11.9102 10.1382 12.6118C11.1636 13.0542 11.5649 13.0923 12.0776 13.0161C12.3896 12.9692 13.0327 12.6265 13.166 12.2471C13.2993 11.8691 13.2993 11.5454 13.2598 11.478C13.2202 11.4063 13.1118 11.3652 12.9521 11.2876Z" fill="#E1E8F7"/>
<path d="M16.0528 7.45703C15.7218 6.67041 15.2472 5.96436 14.6422 5.35791C14.0372 4.75293 13.3311 4.27686 12.5431 3.94727C11.7374 3.60889 10.8819 3.4375 10.0001 3.4375H9.97079C9.08309 3.44189 8.22323 3.61768 7.41463 3.96338C6.63387 4.29736 5.93368 4.77197 5.33456 5.37695C4.73543 5.98193 4.26522 6.68506 3.94002 7.46875C3.60311 8.28027 3.43319 9.14307 3.43758 10.0308C3.44198 11.0474 3.68514 12.0566 4.14071 12.959V15.1855C4.14071 15.5576 4.44247 15.8594 4.81454 15.8594H7.04256C7.94491 16.3149 8.95419 16.5581 9.97079 16.5625H10.0015C10.879 16.5625 11.7301 16.3926 12.5313 16.0601C13.315 15.7334 14.0196 15.2646 14.6231 14.6655C15.2281 14.0664 15.7042 13.3662 16.0367 12.5854C16.3824 11.7769 16.5582 10.917 16.5626 10.0293C16.567 9.13721 16.3941 8.27148 16.0528 7.45703ZM13.8394 13.873C12.8126 14.8896 11.4503 15.4492 10.0001 15.4492H9.97518C9.09188 15.4448 8.21444 15.2251 7.43954 14.812L7.31649 14.7461H5.25399V12.6836L5.18807 12.5605C4.77499 11.7856 4.55526 10.9082 4.55086 10.0249C4.54501 8.56445 5.10311 7.19336 6.12704 6.16064C7.1495 5.12793 8.5162 4.55664 9.97665 4.55078H10.0015C10.734 4.55078 11.4444 4.69287 12.1139 4.97412C12.7672 5.24805 13.3531 5.64209 13.857 6.146C14.3595 6.64844 14.755 7.23584 15.0289 7.88916C15.3131 8.56592 15.4552 9.28369 15.4522 10.0249C15.4434 11.4839 14.8707 12.8506 13.8394 13.873Z" fill="#E1E8F7"/>
</svg>
