<svg width="20" height="20" viewBox="0 0 20 20" fill="none" xmlns="http://www.w3.org/2000/svg">
<path fill-rule="evenodd" clip-rule="evenodd" d="M2 1C1.44772 1 1 1.44772 1 2V18C1 18.5523 1.44772 19 2 19H18C18.5523 19 19 18.5523 19 18V2C19 1.44772 18.5523 1 18 1H2ZM16.7057 6.56452C16.5466 5.95161 16.0693 5.46774 15.4648 5.29839C14.375 5 10 5 10 5C10 5 5.625 5 4.52727 5.29839C3.92273 5.45968 3.45341 5.94355 3.28636 6.56452C3 7.67742 3 10 3 10C3 10 3 12.3226 3.29432 13.4355C3.45341 14.0484 3.93068 14.5323 4.53523 14.7016C5.625 15 10 15 10 15C10 15 14.375 15 15.4727 14.7016C16.0773 14.5403 16.5466 14.0565 16.7136 13.4355C17 12.3226 17 10 17 10C17 10 17 7.67742 16.7057 6.56452ZM8.56641 12.1133L12.2255 10.0004L8.56641 7.88751V12.1133Z" fill="#017AFF"/>
</svg>
